<svg width="1600" height="1000" viewBox="0 0 1600 1000" fill="none" xmlns="http://www.w3.org/2000/svg">
<path d="M1600 50H0V950H1600V50Z" fill="url(#paint0_linear_58_59)"/>
<path d="M800 1000C1241.83 1000 1600 776.142 1600 500C1600 223.858 1241.83 0 800 0C358.172 0 0 223.858 0 500C0 776.142 358.172 1000 800 1000Z" fill="url(#paint1_radial_58_59)"/>
<path d="M400 330L640 500" stroke="white" stroke-opacity="0.18" stroke-width="1.2"/>
<path d="M400 330H800" stroke="white" stroke-opacity="0.18" stroke-width="1.2"/>
<path d="M800 330H1200" stroke="white" stroke-opacity="0.18" stroke-width="1.2"/>
<path d="M800 330L960 500" stroke="white" stroke-opacity="0.18" stroke-width="1.2"/>
<path d="M1200 330L960 500" stroke="white" stroke-opacity="0.18" stroke-width="1.2"/>
<path d="M640 500H960" stroke="white" stroke-opacity="0.18" stroke-width="1.2"/>
<path d="M640 500L500 670" stroke="white" stroke-opacity="0.18" stroke-width="1.2"/>
<path d="M960 500L1100 670" stroke="white" stroke-opacity="0.18" stroke-width="1.2"/>
<path d="M500 670H1100" stroke="white" stroke-opacity="0.18" stroke-width="1.2"/>
<path d="M500 670L800 770" stroke="white" stroke-opacity="0.18" stroke-width="1.2"/>
<path d="M1100 670L800 770" stroke="white" stroke-opacity="0.18" stroke-width="1.2"/>
<path d="M400 350C411.046 350 420 341.046 420 330C420 318.954 411.046 310 400 310C388.954 310 380 318.954 380 330C380 341.046 388.954 350 400 350Z" stroke="white" stroke-opacity="0.32" stroke-width="1.2"/>
<path d="M800 350C811.046 350 820 341.046 820 330C820 318.954 811.046 310 800 310C788.954 310 780 318.954 780 330C780 341.046 788.954 350 800 350Z" stroke="white" stroke-opacity="0.32" stroke-width="1.2"/>
<path d="M1200 350C1211.05 350 1220 341.046 1220 330C1220 318.954 1211.05 310 1200 310C1188.95 310 1180 318.954 1180 330C1180 341.046 1188.95 350 1200 350Z" stroke="white" stroke-opacity="0.32" stroke-width="1.2"/>
<path d="M640 520C651.046 520 660 511.046 660 500C660 488.954 651.046 480 640 480C628.954 480 620 488.954 620 500C620 511.046 628.954 520 640 520Z" stroke="white" stroke-opacity="0.32" stroke-width="1.2"/>
<path d="M960 520C971.046 520 980 511.046 980 500C980 488.954 971.046 480 960 480C948.954 480 940 488.954 940 500C940 511.046 948.954 520 960 520Z" stroke="white" stroke-opacity="0.32" stroke-width="1.2"/>
<path d="M500 690C511.046 690 520 681.046 520 670C520 658.954 511.046 650 500 650C488.954 650 480 658.954 480 670C480 681.046 488.954 690 500 690Z" stroke="white" stroke-opacity="0.32" stroke-width="1.2"/>
<path d="M1100 690C1111.05 690 1120 681.046 1120 670C1120 658.954 1111.05 650 1100 650C1088.95 650 1080 658.954 1080 670C1080 681.046 1088.95 690 1100 690Z" stroke="white" stroke-opacity="0.32" stroke-width="1.2"/>
<path d="M800 790C811.046 790 820 781.046 820 770C820 758.954 811.046 750 800 750C788.954 750 780 758.954 780 770C780 781.046 788.954 790 800 790Z" stroke="white" stroke-opacity="0.32" stroke-width="1.2"/>
<path d="M400 338C404.418 338 408 334.418 408 330C408 325.582 404.418 322 400 322C395.582 322 392 325.582 392 330C392 334.418 395.582 338 400 338Z" fill="white" fill-opacity="0.85"/>
<path d="M800 338C804.418 338 808 334.418 808 330C808 325.582 804.418 322 800 322C795.582 322 792 325.582 792 330C792 334.418 795.582 338 800 338Z" fill="white" fill-opacity="0.85"/>
<path d="M1200 338C1204.42 338 1208 334.418 1208 330C1208 325.582 1204.42 322 1200 322C1195.58 322 1192 325.582 1192 330C1192 334.418 1195.58 338 1200 338Z" fill="white" fill-opacity="0.85"/>
<path d="M640 508C644.418 508 648 504.418 648 500C648 495.582 644.418 492 640 492C635.582 492 632 495.582 632 500C632 504.418 635.582 508 640 508Z" fill="white" fill-opacity="0.85"/>
<path d="M960 508C964.418 508 968 504.418 968 500C968 495.582 964.418 492 960 492C955.582 492 952 495.582 952 500C952 504.418 955.582 508 960 508Z" fill="white" fill-opacity="0.85"/>
<path d="M500 678C504.418 678 508 674.418 508 670C508 665.582 504.418 662 500 662C495.582 662 492 665.582 492 670C492 674.418 495.582 678 500 678Z" fill="white" fill-opacity="0.85"/>
<path d="M1100 678C1104.42 678 1108 674.418 1108 670C1108 665.582 1104.42 662 1100 662C1095.58 662 1092 665.582 1092 670C1092 674.418 1095.58 678 1100 678Z" fill="white" fill-opacity="0.85"/>
<path d="M800 778C804.418 778 808 774.418 808 770C808 765.582 804.418 762 800 762C795.582 762 792 765.582 792 770C792 774.418 795.582 778 800 778Z" fill="white" fill-opacity="0.85"/>
<path d="M400 330H800" stroke="#CC3444" stroke-opacity="0.55" stroke-width="1.4"/>
<path d="M800 330H1200" stroke="#CC3444" stroke-opacity="0.55" stroke-width="1.4"/>
<path d="M400 335C402.761 335 405 332.761 405 330C405 327.239 402.761 325 400 325C397.239 325 395 327.239 395 330C395 332.761 397.239 335 400 335Z" fill="#CC3444" fill-opacity="0.75"/>
<path d="M800 335C802.761 335 805 332.761 805 330C805 327.239 802.761 325 800 325C797.239 325 795 327.239 795 330C795 332.761 797.239 335 800 335Z" fill="#CC3444" fill-opacity="0.75"/>
<path d="M1200 335C1202.76 335 1205 332.761 1205 330C1205 327.239 1202.76 325 1200 325C1197.24 325 1195 327.239 1195 330C1195 332.761 1197.24 335 1200 335Z" fill="#CC3444" fill-opacity="0.75"/>
<path d="M103.034 868V833.091H110.415V861.915H125.381V868H103.034ZM130.132 868V841.818H137.393V868H130.132ZM133.78 838.443C132.7 838.443 131.774 838.085 131.001 837.369C130.24 836.642 129.859 835.773 129.859 834.761C129.859 833.761 130.24 832.903 131.001 832.188C131.774 831.46 132.7 831.097 133.78 831.097C134.859 831.097 135.78 831.46 136.541 832.188C137.314 832.903 137.7 833.761 137.7 834.761C137.7 835.773 137.314 836.642 136.541 837.369C135.78 838.085 134.859 838.443 133.78 838.443ZM150.472 852.864V868H143.21V841.818H150.131V846.438H150.438C151.017 844.915 151.989 843.71 153.352 842.824C154.716 841.926 156.369 841.477 158.312 841.477C160.131 841.477 161.716 841.875 163.068 842.67C164.42 843.466 165.472 844.602 166.222 846.08C166.972 847.545 167.347 849.295 167.347 851.33V868H160.085V852.625C160.097 851.023 159.688 849.773 158.858 848.875C158.028 847.966 156.886 847.511 155.432 847.511C154.455 847.511 153.591 847.722 152.841 848.142C152.102 848.562 151.523 849.176 151.102 849.983C150.693 850.778 150.483 851.739 150.472 852.864ZM179.649 860.466L179.666 851.756H180.723L189.109 841.818H197.445L186.178 854.977H184.456L179.649 860.466ZM173.07 868V833.091H180.331V868H173.07ZM189.433 868L181.729 856.597L186.57 851.466L197.939 868H189.433ZM211.861 868.511C209.168 868.511 206.849 867.966 204.906 866.875C202.974 865.773 201.486 864.216 200.44 862.205C199.395 860.182 198.872 857.79 198.872 855.028C198.872 852.335 199.395 849.972 200.44 847.938C201.486 845.903 202.957 844.318 204.855 843.182C206.764 842.045 209.003 841.477 211.571 841.477C213.298 841.477 214.906 841.756 216.395 842.312C217.895 842.858 219.202 843.682 220.315 844.784C221.44 845.886 222.315 847.273 222.94 848.943C223.565 850.602 223.878 852.545 223.878 854.773V856.767H201.77V852.267H217.043C217.043 851.222 216.815 850.295 216.361 849.489C215.906 848.682 215.276 848.051 214.469 847.597C213.673 847.131 212.747 846.898 211.69 846.898C210.588 846.898 209.611 847.153 208.759 847.665C207.918 848.165 207.259 848.841 206.781 849.693C206.304 850.534 206.06 851.472 206.048 852.506V856.784C206.048 858.08 206.287 859.199 206.764 860.142C207.253 861.085 207.94 861.812 208.827 862.324C209.713 862.835 210.764 863.091 211.98 863.091C212.787 863.091 213.526 862.977 214.196 862.75C214.866 862.523 215.44 862.182 215.918 861.727C216.395 861.273 216.759 860.716 217.009 860.057L223.724 860.5C223.384 862.114 222.685 863.523 221.628 864.727C220.582 865.92 219.23 866.852 217.571 867.523C215.923 868.182 214.02 868.511 211.861 868.511ZM228.616 868V841.818H235.656V846.386H235.929C236.406 844.761 237.207 843.534 238.332 842.705C239.457 841.864 240.753 841.443 242.219 841.443C242.582 841.443 242.974 841.466 243.395 841.511C243.815 841.557 244.185 841.619 244.503 841.699V848.142C244.162 848.04 243.69 847.949 243.088 847.869C242.486 847.79 241.935 847.75 241.435 847.75C240.366 847.75 239.412 847.983 238.571 848.449C237.741 848.903 237.082 849.54 236.594 850.358C236.116 851.176 235.878 852.119 235.878 853.188V868H228.616ZM256.686 868.426C254.697 868.426 252.896 867.915 251.283 866.892C249.68 865.858 248.408 864.341 247.464 862.341C246.533 860.33 246.067 857.864 246.067 854.943C246.067 851.943 246.55 849.449 247.516 847.46C248.482 845.46 249.766 843.966 251.368 842.977C252.982 841.977 254.749 841.477 256.669 841.477C258.135 841.477 259.357 841.727 260.334 842.227C261.322 842.716 262.118 843.33 262.72 844.068C263.334 844.795 263.8 845.511 264.118 846.216H264.339V833.091H271.584V868H264.425V863.807H264.118C263.777 864.534 263.294 865.256 262.669 865.972C262.055 866.676 261.254 867.261 260.266 867.727C259.288 868.193 258.095 868.426 256.686 868.426ZM258.987 862.648C260.158 862.648 261.146 862.33 261.953 861.693C262.771 861.045 263.396 860.142 263.828 858.983C264.271 857.824 264.493 856.466 264.493 854.909C264.493 853.352 264.277 852 263.845 850.852C263.413 849.705 262.788 848.818 261.97 848.193C261.152 847.568 260.158 847.256 258.987 847.256C257.794 847.256 256.788 847.58 255.97 848.227C255.152 848.875 254.533 849.773 254.112 850.92C253.692 852.068 253.482 853.398 253.482 854.909C253.482 856.432 253.692 857.778 254.112 858.949C254.544 860.108 255.163 861.017 255.97 861.676C256.788 862.324 257.794 862.648 258.987 862.648ZM300.493 868.511C297.845 868.511 295.555 867.949 293.624 866.824C291.703 865.687 290.22 864.108 289.175 862.085C288.129 860.051 287.607 857.693 287.607 855.011C287.607 852.307 288.129 849.943 289.175 847.92C290.22 845.886 291.703 844.307 293.624 843.182C295.555 842.045 297.845 841.477 300.493 841.477C303.141 841.477 305.425 842.045 307.345 843.182C309.277 844.307 310.766 845.886 311.811 847.92C312.857 849.943 313.379 852.307 313.379 855.011C313.379 857.693 312.857 860.051 311.811 862.085C310.766 864.108 309.277 865.687 307.345 866.824C305.425 867.949 303.141 868.511 300.493 868.511ZM300.527 862.886C301.732 862.886 302.737 862.545 303.544 861.864C304.351 861.17 304.959 860.227 305.368 859.034C305.788 857.841 305.999 856.483 305.999 854.96C305.999 853.438 305.788 852.08 305.368 850.886C304.959 849.693 304.351 848.75 303.544 848.057C302.737 847.364 301.732 847.017 300.527 847.017C299.311 847.017 298.288 847.364 297.459 848.057C296.641 848.75 296.021 849.693 295.601 850.886C295.192 852.08 294.987 853.438 294.987 854.96C294.987 856.483 295.192 857.841 295.601 859.034C296.021 860.227 296.641 861.17 297.459 861.864C298.288 862.545 299.311 862.886 300.527 862.886ZM325.362 852.864V868H318.101V841.818H325.021V846.438H325.328C325.908 844.915 326.879 843.71 328.243 842.824C329.607 841.926 331.26 841.477 333.203 841.477C335.021 841.477 336.607 841.875 337.959 842.67C339.311 843.466 340.362 844.602 341.112 846.08C341.862 847.545 342.237 849.295 342.237 851.33V868H334.976V852.625C334.987 851.023 334.578 849.773 333.749 848.875C332.919 847.966 331.777 847.511 330.322 847.511C329.345 847.511 328.482 847.722 327.732 848.142C326.993 848.562 326.413 849.176 325.993 849.983C325.584 850.778 325.374 851.739 325.362 852.864ZM391.286 850.545C391.286 854.352 390.564 857.591 389.121 860.261C387.689 862.932 385.734 864.972 383.257 866.381C380.791 867.778 378.018 868.477 374.939 868.477C371.837 868.477 369.053 867.773 366.587 866.364C364.121 864.955 362.172 862.915 360.74 860.244C359.308 857.574 358.592 854.341 358.592 850.545C358.592 846.739 359.308 843.5 360.74 840.83C362.172 838.159 364.121 836.125 366.587 834.727C369.053 833.318 371.837 832.614 374.939 832.614C378.018 832.614 380.791 833.318 383.257 834.727C385.734 836.125 387.689 838.159 389.121 840.83C390.564 843.5 391.286 846.739 391.286 850.545ZM383.803 850.545C383.803 848.08 383.433 846 382.695 844.307C381.967 842.614 380.939 841.33 379.609 840.455C378.28 839.58 376.723 839.142 374.939 839.142C373.155 839.142 371.598 839.58 370.268 840.455C368.939 841.33 367.905 842.614 367.166 844.307C366.439 846 366.075 848.08 366.075 850.545C366.075 853.011 366.439 855.091 367.166 856.784C367.905 858.477 368.939 859.761 370.268 860.636C371.598 861.511 373.155 861.949 374.939 861.949C376.723 861.949 378.28 861.511 379.609 860.636C380.939 859.761 381.967 858.477 382.695 856.784C383.433 855.091 383.803 853.011 383.803 850.545ZM396.616 877.818V841.818H403.776V846.216H404.099C404.418 845.511 404.878 844.795 405.48 844.068C406.094 843.33 406.889 842.716 407.866 842.227C408.855 841.727 410.082 841.477 411.548 841.477C413.457 841.477 415.219 841.977 416.832 842.977C418.446 843.966 419.736 845.46 420.702 847.46C421.668 849.449 422.151 851.943 422.151 854.943C422.151 857.864 421.679 860.33 420.736 862.341C419.804 864.341 418.531 865.858 416.918 866.892C415.315 867.915 413.52 868.426 411.531 868.426C410.122 868.426 408.923 868.193 407.935 867.727C406.957 867.261 406.156 866.676 405.531 865.972C404.906 865.256 404.429 864.534 404.099 863.807H403.878V877.818H396.616ZM403.724 854.909C403.724 856.466 403.94 857.824 404.372 858.983C404.804 860.142 405.429 861.045 406.247 861.693C407.065 862.33 408.06 862.648 409.23 862.648C410.412 862.648 411.412 862.324 412.23 861.676C413.048 861.017 413.668 860.108 414.088 858.949C414.52 857.778 414.736 856.432 414.736 854.909C414.736 853.398 414.526 852.068 414.105 850.92C413.685 849.773 413.065 848.875 412.247 848.227C411.429 847.58 410.423 847.256 409.23 847.256C408.048 847.256 407.048 847.568 406.23 848.193C405.423 848.818 404.804 849.705 404.372 850.852C403.94 852 403.724 853.352 403.724 854.909ZM438.923 868.511C436.23 868.511 433.912 867.966 431.969 866.875C430.037 865.773 428.548 864.216 427.503 862.205C426.457 860.182 425.935 857.79 425.935 855.028C425.935 852.335 426.457 849.972 427.503 847.938C428.548 845.903 430.02 844.318 431.918 843.182C433.827 842.045 436.065 841.477 438.634 841.477C440.361 841.477 441.969 841.756 443.457 842.312C444.957 842.858 446.264 843.682 447.378 844.784C448.503 845.886 449.378 847.273 450.003 848.943C450.628 850.602 450.94 852.545 450.94 854.773V856.767H428.832V852.267H444.105C444.105 851.222 443.878 850.295 443.423 849.489C442.969 848.682 442.338 848.051 441.531 847.597C440.736 847.131 439.81 846.898 438.753 846.898C437.651 846.898 436.673 847.153 435.821 847.665C434.98 848.165 434.321 848.841 433.844 849.693C433.366 850.534 433.122 851.472 433.111 852.506V856.784C433.111 858.08 433.349 859.199 433.827 860.142C434.315 861.085 435.003 861.812 435.889 862.324C436.776 862.835 437.827 863.091 439.043 863.091C439.849 863.091 440.588 862.977 441.259 862.75C441.929 862.523 442.503 862.182 442.98 861.727C443.457 861.273 443.821 860.716 444.071 860.057L450.787 860.5C450.446 862.114 449.747 863.523 448.69 864.727C447.645 865.92 446.293 866.852 444.634 867.523C442.986 868.182 441.082 868.511 438.923 868.511ZM462.94 852.864V868H455.679V841.818H462.599V846.438H462.906C463.486 844.915 464.457 843.71 465.821 842.824C467.185 841.926 468.838 841.477 470.781 841.477C472.599 841.477 474.185 841.875 475.537 842.67C476.889 843.466 477.94 844.602 478.69 846.08C479.44 847.545 479.815 849.295 479.815 851.33V868H472.554V852.625C472.565 851.023 472.156 849.773 471.327 848.875C470.497 847.966 469.355 847.511 467.901 847.511C466.923 847.511 466.06 847.722 465.31 848.142C464.571 848.562 463.991 849.176 463.571 849.983C463.162 850.778 462.952 851.739 462.94 852.864ZM504.612 843.131C504.476 841.756 503.891 840.687 502.857 839.926C501.822 839.165 500.419 838.784 498.646 838.784C497.442 838.784 496.425 838.955 495.595 839.295C494.766 839.625 494.129 840.085 493.686 840.676C493.254 841.267 493.038 841.938 493.038 842.688C493.016 843.312 493.146 843.858 493.43 844.324C493.726 844.79 494.129 845.193 494.641 845.534C495.152 845.864 495.743 846.153 496.413 846.403C497.084 846.642 497.8 846.847 498.561 847.017L501.697 847.767C503.22 848.108 504.618 848.562 505.891 849.131C507.163 849.699 508.266 850.398 509.197 851.227C510.129 852.057 510.851 853.034 511.362 854.159C511.885 855.284 512.152 856.574 512.163 858.028C512.152 860.165 511.607 862.017 510.527 863.585C509.459 865.142 507.913 866.352 505.891 867.216C503.879 868.068 501.453 868.494 498.612 868.494C495.794 868.494 493.339 868.062 491.249 867.199C489.169 866.335 487.544 865.057 486.374 863.364C485.214 861.659 484.607 859.551 484.55 857.04H491.692C491.771 858.21 492.107 859.187 492.697 859.972C493.3 860.744 494.101 861.33 495.101 861.727C496.112 862.114 497.254 862.307 498.527 862.307C499.777 862.307 500.862 862.125 501.783 861.761C502.714 861.398 503.436 860.892 503.947 860.244C504.459 859.597 504.714 858.852 504.714 858.011C504.714 857.227 504.482 856.568 504.016 856.034C503.561 855.5 502.891 855.045 502.004 854.67C501.129 854.295 500.055 853.955 498.783 853.648L494.982 852.693C492.038 851.977 489.714 850.858 488.01 849.335C486.305 847.812 485.459 845.761 485.47 843.182C485.459 841.068 486.021 839.222 487.158 837.642C488.305 836.062 489.879 834.83 491.879 833.943C493.879 833.057 496.152 832.614 498.697 832.614C501.288 832.614 503.55 833.057 505.482 833.943C507.425 834.83 508.936 836.062 510.016 837.642C511.095 839.222 511.652 841.051 511.686 843.131H504.612ZM524.253 852.864V868H516.991V833.091H524.048V846.438H524.355C524.946 844.892 525.901 843.682 527.219 842.807C528.537 841.92 530.19 841.477 532.179 841.477C533.997 841.477 535.582 841.875 536.935 842.67C538.298 843.455 539.355 844.585 540.105 846.062C540.866 847.528 541.241 849.284 541.23 851.33V868H533.969V852.625C533.98 851.011 533.571 849.756 532.741 848.858C531.923 847.96 530.776 847.511 529.298 847.511C528.31 847.511 527.435 847.722 526.673 848.142C525.923 848.562 525.332 849.176 524.901 849.983C524.48 850.778 524.264 851.739 524.253 852.864ZM546.945 868V841.818H554.206V868H546.945ZM550.592 838.443C549.513 838.443 548.587 838.085 547.814 837.369C547.053 836.642 546.672 835.773 546.672 834.761C546.672 833.761 547.053 832.903 547.814 832.188C548.587 831.46 549.513 831.097 550.592 831.097C551.672 831.097 552.592 831.46 553.354 832.188C554.126 832.903 554.513 833.761 554.513 834.761C554.513 835.773 554.126 836.642 553.354 837.369C552.592 838.085 551.672 838.443 550.592 838.443ZM574.102 841.818V847.273H557.943V841.818H574.102ZM561.642 868V839.926C561.642 838.028 562.011 836.455 562.75 835.205C563.5 833.955 564.523 833.017 565.818 832.392C567.114 831.767 568.585 831.455 570.233 831.455C571.347 831.455 572.364 831.54 573.284 831.71C574.216 831.881 574.909 832.034 575.364 832.17L574.068 837.625C573.784 837.534 573.432 837.449 573.011 837.369C572.602 837.29 572.182 837.25 571.75 837.25C570.682 837.25 569.938 837.5 569.517 838C569.097 838.489 568.886 839.176 568.886 840.062V868H561.642ZM592.464 841.818V847.273H576.697V841.818H592.464ZM580.277 835.545H587.538V859.955C587.538 860.625 587.641 861.148 587.845 861.523C588.05 861.886 588.334 862.142 588.697 862.29C589.072 862.437 589.504 862.511 589.993 862.511C590.334 862.511 590.675 862.483 591.016 862.426C591.357 862.358 591.618 862.307 591.8 862.273L592.942 867.676C592.578 867.79 592.067 867.92 591.408 868.068C590.749 868.227 589.947 868.324 589.004 868.358C587.254 868.426 585.72 868.193 584.402 867.659C583.095 867.125 582.078 866.295 581.351 865.17C580.624 864.045 580.266 862.625 580.277 860.909V835.545Z" fill="white"/>
<path d="M100.966 901.017V899.455H111.875V901.017H107.301V914H105.54V901.017H100.966ZM126.261 906.727C126.261 908.261 125.984 909.587 125.43 910.705C124.876 911.822 124.116 912.684 123.15 913.29C122.184 913.896 121.081 914.199 119.84 914.199C118.6 914.199 117.496 913.896 116.531 913.29C115.565 912.684 114.805 911.822 114.251 910.705C113.697 909.587 113.42 908.261 113.42 906.727C113.42 905.193 113.697 903.867 114.251 902.75C114.805 901.633 115.565 900.771 116.531 900.165C117.496 899.559 118.6 899.256 119.84 899.256C121.081 899.256 122.184 899.559 123.15 900.165C124.116 900.771 124.876 901.633 125.43 902.75C125.984 903.867 126.261 905.193 126.261 906.727ZM124.556 906.727C124.556 905.468 124.345 904.405 123.924 903.538C123.507 902.672 122.942 902.016 122.227 901.571C121.516 901.126 120.721 900.903 119.84 900.903C118.96 900.903 118.162 901.126 117.447 901.571C116.737 902.016 116.171 902.672 115.749 903.538C115.333 904.405 115.124 905.468 115.124 906.727C115.124 907.987 115.333 909.05 115.749 909.916C116.171 910.783 116.737 911.438 117.447 911.884C118.162 912.329 118.96 912.551 119.84 912.551C120.721 912.551 121.516 912.329 122.227 911.884C122.942 911.438 123.507 910.783 123.924 909.916C124.345 909.05 124.556 907.987 124.556 906.727ZM133.711 914H129.222V899.455H133.91C135.321 899.455 136.528 899.746 137.532 900.328C138.536 900.906 139.305 901.737 139.84 902.821C140.375 903.901 140.643 905.193 140.643 906.699C140.643 908.214 140.373 909.518 139.833 910.612C139.293 911.701 138.507 912.539 137.475 913.126C136.443 913.709 135.188 914 133.711 914ZM130.984 912.438H133.597C134.8 912.438 135.797 912.205 136.587 911.741C137.378 911.277 137.968 910.617 138.356 909.76C138.744 908.903 138.938 907.883 138.938 906.699C138.938 905.525 138.746 904.514 138.363 903.666C137.979 902.814 137.406 902.161 136.644 901.706C135.882 901.247 134.933 901.017 133.796 901.017H130.984V912.438ZM143.597 914V899.455H152.376V901.017H145.359V905.932H151.921V907.494H145.359V912.438H152.489V914H143.597ZM156.147 914H154.3L159.641 899.455H161.46L166.8 914H164.954L160.607 901.756H160.494L156.147 914ZM156.829 908.318H164.272V909.881H156.829V908.318ZM175.685 908.915C175.335 908.915 175.034 908.789 174.783 908.538C174.532 908.287 174.407 907.987 174.407 907.636C174.407 907.286 174.532 906.985 174.783 906.734C175.034 906.483 175.335 906.358 175.685 906.358C176.036 906.358 176.336 906.483 176.587 906.734C176.838 906.985 176.964 907.286 176.964 907.636C176.964 907.868 176.905 908.081 176.786 908.276C176.673 908.47 176.519 908.626 176.325 908.744C176.135 908.858 175.922 908.915 175.685 908.915ZM197.528 904H195.767C195.663 903.493 195.481 903.048 195.22 902.665C194.964 902.281 194.652 901.959 194.283 901.699C193.918 901.434 193.513 901.235 193.068 901.102C192.623 900.97 192.159 900.903 191.676 900.903C190.795 900.903 189.998 901.126 189.283 901.571C188.572 902.016 188.007 902.672 187.585 903.538C187.169 904.405 186.96 905.468 186.96 906.727C186.96 907.987 187.169 909.05 187.585 909.916C188.007 910.783 188.572 911.438 189.283 911.884C189.998 912.329 190.795 912.551 191.676 912.551C192.159 912.551 192.623 912.485 193.068 912.352C193.513 912.22 193.918 912.023 194.283 911.763C194.652 911.498 194.964 911.173 195.22 910.79C195.481 910.402 195.663 909.956 195.767 909.455H197.528C197.396 910.198 197.154 910.863 196.804 911.45C196.454 912.037 196.018 912.537 195.497 912.949C194.976 913.356 194.392 913.666 193.743 913.879C193.099 914.092 192.41 914.199 191.676 914.199C190.436 914.199 189.332 913.896 188.366 913.29C187.401 912.684 186.641 911.822 186.087 910.705C185.533 909.587 185.256 908.261 185.256 906.727C185.256 905.193 185.533 903.867 186.087 902.75C186.641 901.633 187.401 900.771 188.366 900.165C189.332 899.559 190.436 899.256 191.676 899.256C192.41 899.256 193.099 899.362 193.743 899.575C194.392 899.788 194.976 900.101 195.497 900.513C196.018 900.92 196.454 901.417 196.804 902.004C197.154 902.587 197.396 903.252 197.528 904ZM200.375 914V899.455H202.136V912.438H208.897V914H200.375ZM223.331 906.727C223.331 908.261 223.054 909.587 222.5 910.705C221.946 911.822 221.186 912.684 220.22 913.29C219.254 913.896 218.151 914.199 216.911 914.199C215.67 914.199 214.567 913.896 213.601 913.29C212.635 912.684 211.875 911.822 211.321 910.705C210.767 909.587 210.49 908.261 210.49 906.727C210.49 905.193 210.767 903.867 211.321 902.75C211.875 901.633 212.635 900.771 213.601 900.165C214.567 899.559 215.67 899.256 216.911 899.256C218.151 899.256 219.254 899.559 220.22 900.165C221.186 900.771 221.946 901.633 222.5 902.75C223.054 903.867 223.331 905.193 223.331 906.727ZM221.626 906.727C221.626 905.468 221.416 904.405 220.994 903.538C220.578 902.672 220.012 902.016 219.297 901.571C218.587 901.126 217.791 900.903 216.911 900.903C216.03 900.903 215.232 901.126 214.517 901.571C213.807 902.016 213.241 902.672 212.82 903.538C212.403 904.405 212.195 905.468 212.195 906.727C212.195 907.987 212.403 909.05 212.82 909.916C213.241 910.783 213.807 911.438 214.517 911.884C215.232 912.329 216.03 912.551 216.911 912.551C217.791 912.551 218.587 912.329 219.297 911.884C220.012 911.438 220.578 910.783 220.994 909.916C221.416 909.05 221.626 907.987 221.626 906.727ZM235.838 899.455H237.599V909.085C237.599 910.08 237.365 910.967 236.896 911.749C236.432 912.525 235.777 913.138 234.929 913.588C234.081 914.033 233.087 914.256 231.946 914.256C230.805 914.256 229.811 914.033 228.963 913.588C228.116 913.138 227.457 912.525 226.989 911.749C226.525 910.967 226.293 910.08 226.293 909.085V899.455H228.054V908.943C228.054 909.653 228.21 910.286 228.523 910.839C228.835 911.389 229.28 911.822 229.858 912.139C230.44 912.452 231.136 912.608 231.946 912.608C232.756 912.608 233.452 912.452 234.034 912.139C234.616 911.822 235.062 911.389 235.369 910.839C235.682 910.286 235.838 909.653 235.838 908.943V899.455ZM245.605 914H241.117V899.455H245.804C247.215 899.455 248.423 899.746 249.426 900.328C250.43 900.906 251.2 901.737 251.735 902.821C252.27 903.901 252.537 905.193 252.537 906.699C252.537 908.214 252.267 909.518 251.728 910.612C251.188 911.701 250.402 912.539 249.37 913.126C248.337 913.709 247.083 914 245.605 914ZM242.878 912.438H245.492C246.694 912.438 247.691 912.205 248.482 911.741C249.273 911.277 249.862 910.617 250.25 909.76C250.639 908.903 250.833 907.883 250.833 906.699C250.833 905.525 250.641 904.514 250.257 903.666C249.874 902.814 249.301 902.161 248.539 901.706C247.776 901.247 246.827 901.017 245.691 901.017H242.878V912.438ZM272.651 899.455V914H270.946L263.02 902.58H262.878V914H261.117V899.455H262.821L270.776 910.903H270.918V899.455H272.651ZM276.772 914H274.925L280.266 899.455H282.085L287.425 914H285.579L281.232 901.756H281.119L276.772 914ZM277.454 908.318H284.897V909.881H277.454V908.318ZM287.196 901.017V899.455H298.105V901.017H293.532V914H291.77V901.017H287.196ZM302.585 899.455V914H300.824V899.455H302.585ZM306.713 899.455L311.032 911.699H311.202L315.52 899.455H317.367L312.026 914H310.208L304.867 899.455H306.713ZM319.632 914V899.455H328.411V901.017H321.394V905.932H327.956V907.494H321.394V912.438H328.525V914H319.632ZM337.211 914V899.455H345.989V901.017H338.972V905.932H345.534V907.494H338.972V912.438H346.103V914H337.211ZM360.698 899.455V914H358.993L351.067 902.58H350.925V914H349.164V899.455H350.868L358.823 910.903H358.965V899.455H360.698ZM374.165 904C374.009 903.522 373.803 903.093 373.548 902.714C373.297 902.331 372.996 902.004 372.646 901.734C372.3 901.464 371.907 901.259 371.467 901.116C371.026 900.974 370.543 900.903 370.018 900.903C369.156 900.903 368.372 901.126 367.667 901.571C366.961 902.016 366.4 902.672 365.984 903.538C365.567 904.405 365.359 905.468 365.359 906.727C365.359 907.987 365.569 909.05 365.991 909.916C366.412 910.783 366.983 911.438 367.702 911.884C368.422 912.329 369.232 912.551 370.131 912.551C370.965 912.551 371.699 912.374 372.333 912.018C372.972 911.659 373.469 911.152 373.825 910.499C374.184 909.84 374.364 909.066 374.364 908.176L374.904 908.29H370.529V906.727H376.069V908.29C376.069 909.488 375.813 910.529 375.302 911.415C374.795 912.3 374.094 912.987 373.2 913.474C372.309 913.957 371.287 914.199 370.131 914.199C368.844 914.199 367.712 913.896 366.737 913.29C365.766 912.684 365.008 911.822 364.464 910.705C363.924 909.587 363.654 908.261 363.654 906.727C363.654 905.577 363.808 904.542 364.116 903.624C364.428 902.7 364.869 901.914 365.437 901.266C366.005 900.617 366.677 900.12 367.454 899.774C368.23 899.429 369.085 899.256 370.018 899.256C370.785 899.256 371.5 899.372 372.163 899.604C372.83 899.831 373.424 900.155 373.945 900.577C374.471 900.993 374.909 901.493 375.259 902.075C375.61 902.653 375.851 903.295 375.984 904H374.165ZM380.847 899.455V914H379.086V899.455H380.847ZM395.913 899.455V914H394.208L386.282 902.58H386.14V914H384.379V899.455H386.083L394.038 910.903H394.18V899.455H395.913ZM399.437 914V899.455H408.216V901.017H401.199V905.932H407.761V907.494H401.199V912.438H408.329V914H399.437ZM411.39 914V899.455H420.169V901.017H413.152V905.932H419.714V907.494H413.152V912.438H420.282V914H411.39ZM423.343 914V899.455H428.258C429.395 899.455 430.327 899.649 431.056 900.037C431.786 900.42 432.325 900.948 432.676 901.621C433.026 902.293 433.201 903.058 433.201 903.915C433.201 904.772 433.026 905.532 432.676 906.195C432.325 906.857 431.788 907.378 431.064 907.757C430.339 908.131 429.413 908.318 428.287 908.318H424.309V906.727H428.23C429.006 906.727 429.631 906.614 430.105 906.386C430.583 906.159 430.929 905.837 431.142 905.42C431.359 904.999 431.468 904.497 431.468 903.915C431.468 903.332 431.359 902.823 431.142 902.388C430.924 901.952 430.576 901.616 430.098 901.379C429.619 901.138 428.987 901.017 428.201 901.017H425.105V914H423.343ZM430.19 907.466L433.77 914H431.724L428.201 907.466H430.19ZM437.898 899.455V914H436.136V899.455H437.898ZM452.963 899.455V914H451.259L443.333 902.58H443.191V914H441.429V899.455H443.134L451.088 910.903H451.23V899.455H452.963ZM466.431 904C466.275 903.522 466.069 903.093 465.813 902.714C465.562 902.331 465.262 902.004 464.911 901.734C464.566 901.464 464.173 901.259 463.732 901.116C463.292 900.974 462.809 900.903 462.283 900.903C461.422 900.903 460.638 901.126 459.933 901.571C459.227 902.016 458.666 902.672 458.249 903.538C457.833 904.405 457.624 905.468 457.624 906.727C457.624 907.987 457.835 909.05 458.256 909.916C458.678 910.783 459.248 911.438 459.968 911.884C460.688 912.329 461.497 912.551 462.397 912.551C463.23 912.551 463.964 912.374 464.599 912.018C465.238 911.659 465.735 911.152 466.09 910.499C466.45 909.84 466.63 909.066 466.63 908.176L467.17 908.29H462.795V906.727H468.335V908.29C468.335 909.488 468.079 910.529 467.567 911.415C467.061 912.3 466.36 912.987 465.465 913.474C464.575 913.957 463.552 914.199 462.397 914.199C461.109 914.199 459.978 913.896 459.002 913.29C458.031 912.684 457.274 911.822 456.729 910.705C456.19 909.587 455.92 908.261 455.92 906.727C455.92 905.577 456.074 904.542 456.381 903.624C456.694 902.7 457.134 901.914 457.702 901.266C458.271 900.617 458.943 900.12 459.719 899.774C460.496 899.429 461.351 899.256 462.283 899.256C463.05 899.256 463.765 899.372 464.428 899.604C465.096 899.831 465.69 900.155 466.211 900.577C466.737 900.993 467.174 901.493 467.525 902.075C467.875 902.653 468.117 903.295 468.249 904H466.431Z" fill="#A3A3A3"/>
<path d="M734.133 499.685L683.742 517.123C684.337 524.815 685.713 532.435 687.852 539.877L735.65 523.476C734.078 515.639 733.568 507.644 734.133 499.685ZM956.947 446.737C953.45 439.89 949.399 433.311 944.83 427.059L894.369 444.48C900.144 450.167 905.166 456.5 909.326 463.338C909.079 463.138 956.947 446.737 956.947 446.737Z" fill="#C32034"/>
<path d="M846.043 433.195C856.207 437.74 865.435 443.968 873.292 451.586L923.7 434.165C905.416 409.884 879.241 391.954 849.183 383.12C819.124 374.285 786.839 375.033 757.272 385.25C727.704 395.466 702.485 414.587 685.474 439.685C668.464 464.783 660.601 494.474 663.089 524.212L713.55 506.791C714.358 496.135 717.215 485.71 721.981 476.029C732.464 454.774 751.412 438.328 774.669 430.298C797.927 422.269 823.594 423.31 846.043 433.195Z" fill="#DB212F"/>
<path d="M690.868 538.473L643 554.874C647.513 571.487 655.161 587.189 665.576 601.219L715.755 583.831C703.003 571.334 694.357 555.593 690.868 538.523" fill="#EA2227"/>
<path d="M899.801 520.434C898.886 531.074 896.027 541.483 891.353 551.196C886.163 561.754 878.828 571.239 869.767 579.107C860.707 586.975 850.099 593.073 838.55 597.051C827.001 601.029 814.738 602.81 802.462 602.292C790.186 601.774 778.139 598.966 767.009 594.03C756.844 589.485 747.616 583.257 739.759 575.639L689.581 593.01C703.928 612.177 723.311 627.456 745.809 637.332C768.609 647.438 793.807 651.697 818.887 649.685C843.966 647.674 868.051 639.461 888.735 625.867C909.42 612.274 925.981 593.774 936.765 572.217C947.549 550.659 952.178 526.797 950.192 503.013L899.801 520.434Z" fill="#DB212F"/>
<path d="M912.183 462.069L864.385 478.47C873.389 493.691 877.45 511.092 876.061 528.493L926.24 511.072C924.773 494.051 919.989 477.436 912.13 462.069" fill="#EA2227"/>
<path d="M683.866 516.956L734.045 499.735L733.833 509.165L685.33 526.201L683.866 516.956ZM894.316 444.195L945.359 427.794L950.774 435.184L901.248 451.568C901.018 451.786 894.316 444.195 894.316 444.195Z" fill="#AD213A"/>
<path d="M689.316 592.926L739.495 575.906L754.627 589.282L701.856 607.672C702.085 607.689 689.316 592.926 689.316 592.926ZM950.88 503.38L899.837 520.601L896.168 539.677L950.668 521.62C950.439 521.42 950.88 503.38 950.88 503.38Z" fill="#BA2034"/>
<defs>
<linearGradient id="paint0_linear_58_59" x1="0" y1="50" x2="769.139" y2="1417.36" gradientUnits="userSpaceOnUse">
<stop stop-color="#0A0F10"/>
<stop offset="1" stop-color="#1A1F20"/>
</linearGradient>
<radialGradient id="paint1_radial_58_59" cx="0" cy="0" r="1" gradientUnits="userSpaceOnUse" gradientTransform="translate(800 500) scale(880 550)">
<stop stop-color="white" stop-opacity="0.06"/>
<stop offset="1" stop-color="white" stop-opacity="0"/>
</radialGradient>
</defs>
</svg>
