<svg width="1600" height="1000" viewBox="0 0 1600 1000" fill="none" xmlns="http://www.w3.org/2000/svg">
<path d="M1600 50H0V950H1600V50Z" fill="url(#paint0_linear_58_59)"/>
<path d="M800 1000C1241.83 1000 1600 776.142 1600 500C1600 223.858 1241.83 0 800 0C358.172 0 0 223.858 0 500C0 776.142 358.172 1000 800 1000Z" fill="url(#paint1_radial_58_59)"/>
<path d="M400 330L640 500" stroke="white" stroke-opacity="0.18" stroke-width="1.2"/>
<path d="M400 330H800" stroke="white" stroke-opacity="0.18" stroke-width="1.2"/>
<path d="M800 330H1200" stroke="white" stroke-opacity="0.18" stroke-width="1.2"/>
<path d="M800 330L960 500" stroke="white" stroke-opacity="0.18" stroke-width="1.2"/>
<path d="M1200 330L960 500" stroke="white" stroke-opacity="0.18" stroke-width="1.2"/>
<path d="M640 500H960" stroke="white" stroke-opacity="0.18" stroke-width="1.2"/>
<path d="M640 500L500 670" stroke="white" stroke-opacity="0.18" stroke-width="1.2"/>
<path d="M960 500L1100 670" stroke="white" stroke-opacity="0.18" stroke-width="1.2"/>
<path d="M500 670H1100" stroke="white" stroke-opacity="0.18" stroke-width="1.2"/>
<path d="M500 670L800 770" stroke="white" stroke-opacity="0.18" stroke-width="1.2"/>
<path d="M1100 670L800 770" stroke="white" stroke-opacity="0.18" stroke-width="1.2"/>
<path d="M400 350C411.046 350 420 341.046 420 330C420 318.954 411.046 310 400 310C388.954 310 380 318.954 380 330C380 341.046 388.954 350 400 350Z" stroke="white" stroke-opacity="0.32" stroke-width="1.2"/>
<path d="M800 350C811.046 350 820 341.046 820 330C820 318.954 811.046 310 800 310C788.954 310 780 318.954 780 330C780 341.046 788.954 350 800 350Z" stroke="white" stroke-opacity="0.32" stroke-width="1.2"/>
<path d="M1200 350C1211.05 350 1220 341.046 1220 330C1220 318.954 1211.05 310 1200 310C1188.95 310 1180 318.954 1180 330C1180 341.046 1188.95 350 1200 350Z" stroke="white" stroke-opacity="0.32" stroke-width="1.2"/>
<path d="M640 520C651.046 520 660 511.046 660 500C660 488.954 651.046 480 640 480C628.954 480 620 488.954 620 500C620 511.046 628.954 520 640 520Z" stroke="white" stroke-opacity="0.32" stroke-width="1.2"/>
<path d="M960 520C971.046 520 980 511.046 980 500C980 488.954 971.046 480 960 480C948.954 480 940 488.954 940 500C940 511.046 948.954 520 960 520Z" stroke="white" stroke-opacity="0.32" stroke-width="1.2"/>
<path d="M500 690C511.046 690 520 681.046 520 670C520 658.954 511.046 650 500 650C488.954 650 480 658.954 480 670C480 681.046 488.954 690 500 690Z" stroke="white" stroke-opacity="0.32" stroke-width="1.2"/>
<path d="M1100 690C1111.05 690 1120 681.046 1120 670C1120 658.954 1111.05 650 1100 650C1088.95 650 1080 658.954 1080 670C1080 681.046 1088.95 690 1100 690Z" stroke="white" stroke-opacity="0.32" stroke-width="1.2"/>
<path d="M800 790C811.046 790 820 781.046 820 770C820 758.954 811.046 750 800 750C788.954 750 780 758.954 780 770C780 781.046 788.954 790 800 790Z" stroke="white" stroke-opacity="0.32" stroke-width="1.2"/>
<path d="M400 338C404.418 338 408 334.418 408 330C408 325.582 404.418 322 400 322C395.582 322 392 325.582 392 330C392 334.418 395.582 338 400 338Z" fill="white" fill-opacity="0.85"/>
<path d="M800 338C804.418 338 808 334.418 808 330C808 325.582 804.418 322 800 322C795.582 322 792 325.582 792 330C792 334.418 795.582 338 800 338Z" fill="white" fill-opacity="0.85"/>
<path d="M1200 338C1204.42 338 1208 334.418 1208 330C1208 325.582 1204.42 322 1200 322C1195.58 322 1192 325.582 1192 330C1192 334.418 1195.58 338 1200 338Z" fill="white" fill-opacity="0.85"/>
<path d="M640 508C644.418 508 648 504.418 648 500C648 495.582 644.418 492 640 492C635.582 492 632 495.582 632 500C632 504.418 635.582 508 640 508Z" fill="white" fill-opacity="0.85"/>
<path d="M960 508C964.418 508 968 504.418 968 500C968 495.582 964.418 492 960 492C955.582 492 952 495.582 952 500C952 504.418 955.582 508 960 508Z" fill="white" fill-opacity="0.85"/>
<path d="M500 678C504.418 678 508 674.418 508 670C508 665.582 504.418 662 500 662C495.582 662 492 665.582 492 670C492 674.418 495.582 678 500 678Z" fill="white" fill-opacity="0.85"/>
<path d="M1100 678C1104.42 678 1108 674.418 1108 670C1108 665.582 1104.42 662 1100 662C1095.58 662 1092 665.582 1092 670C1092 674.418 1095.58 678 1100 678Z" fill="white" fill-opacity="0.85"/>
<path d="M800 778C804.418 778 808 774.418 808 770C808 765.582 804.418 762 800 762C795.582 762 792 765.582 792 770C792 774.418 795.582 778 800 778Z" fill="white" fill-opacity="0.85"/>
<path d="M400 330H800" stroke="#CC3444" stroke-opacity="0.55" stroke-width="1.4"/>
<path d="M800 330H1200" stroke="#CC3444" stroke-opacity="0.55" stroke-width="1.4"/>
<path d="M400 335C402.761 335 405 332.761 405 330C405 327.239 402.761 325 400 325C397.239 325 395 327.239 395 330C395 332.761 397.239 335 400 335Z" fill="#CC3444" fill-opacity="0.75"/>
<path d="M800 335C802.761 335 805 332.761 805 330C805 327.239 802.761 325 800 325C797.239 325 795 327.239 795 330C795 332.761 797.239 335 800 335Z" fill="#CC3444" fill-opacity="0.75"/>
<path d="M1200 335C1202.76 335 1205 332.761 1205 330C1205 327.239 1202.76 325 1200 325C1197.24 325 1195 327.239 1195 330C1195 332.761 1197.24 335 1200 335Z" fill="#CC3444" fill-opacity="0.75"/>
<path d="M717.133 499.685L666.742 517.123C667.337 524.815 668.713 532.435 670.852 539.877L718.65 523.476C717.078 515.639 716.568 507.644 717.133 499.685ZM939.947 446.737C936.45 439.89 932.399 433.311 927.83 427.059L877.369 444.48C883.144 450.167 888.166 456.5 892.326 463.338C892.079 463.138 939.947 446.737 939.947 446.737Z" fill="#C32034"/>
<path d="M829.043 433.195C839.207 437.74 848.435 443.968 856.292 451.586L906.7 434.165C888.416 409.884 862.241 391.954 832.183 383.12C802.124 374.285 769.839 375.033 740.272 385.25C710.704 395.466 685.485 414.587 668.474 439.685C651.464 464.783 643.601 494.474 646.089 524.212L696.55 506.791C697.358 496.135 700.215 485.71 704.981 476.029C715.464 454.774 734.412 438.328 757.669 430.298C780.927 422.269 806.594 423.31 829.043 433.195Z" fill="#DB212F"/>
<path d="M673.868 538.473L626 554.874C630.513 571.487 638.161 587.189 648.576 601.219L698.755 583.831C686.003 571.334 677.357 555.593 673.868 538.523" fill="#EA2227"/>
<path d="M882.801 520.434C881.886 531.074 879.027 541.483 874.353 551.196C869.163 561.754 861.828 571.239 852.767 579.107C843.707 586.975 833.099 593.073 821.55 597.051C810.001 601.029 797.738 602.81 785.462 602.292C773.186 601.774 761.139 598.966 750.009 594.03C739.844 589.485 730.616 583.257 722.759 575.639L672.581 593.01C686.928 612.177 706.311 627.456 728.809 637.332C751.609 647.438 776.807 651.697 801.887 649.685C826.966 647.674 851.051 639.461 871.735 625.867C892.42 612.274 908.981 593.774 919.765 572.217C930.549 550.659 935.178 526.797 933.192 503.013L882.801 520.434Z" fill="#DB212F"/>
<path d="M895.183 462.069L847.385 478.47C856.389 493.691 860.45 511.092 859.061 528.493L909.24 511.072C907.773 494.051 902.989 477.436 895.13 462.069" fill="#EA2227"/>
<path d="M666.866 516.956L717.045 499.735L716.833 509.165L668.33 526.201L666.866 516.956ZM877.316 444.195L928.359 427.794L933.774 435.184L884.248 451.568C884.018 451.786 877.316 444.195 877.316 444.195Z" fill="#AD213A"/>
<path d="M672.316 592.926L722.495 575.906L737.627 589.282L684.856 607.672C685.085 607.689 672.316 592.926 672.316 592.926ZM933.88 503.38L882.837 520.601L879.168 539.677L933.668 521.62C933.439 521.42 933.88 503.38 933.88 503.38Z" fill="#BA2034"/>
<text x="100" y="868" font-family="'Noto Sans JP', system-ui, -apple-system, sans-serif" font-weight="800" font-size="48" fill="#ffffff" letter-spacing="-1">OpenShift 上の Linkerd</text>
<text x="100" y="914" font-family="'Noto Sans JP', system-ui, -apple-system, sans-serif" font-weight="400" font-size="20" fill="#a3a3a3" letter-spacing="2">TODEA · CLOUD NATIVE ENGINEERING</text>
<defs>
<linearGradient id="paint0_linear_58_59" x1="0" y1="50" x2="769.139" y2="1417.36" gradientUnits="userSpaceOnUse">
<stop stop-color="#0A0F10"/>
<stop offset="1" stop-color="#1A1F20"/>
</linearGradient>
<radialGradient id="paint1_radial_58_59" cx="0" cy="0" r="1" gradientUnits="userSpaceOnUse" gradientTransform="translate(800 500) scale(880 550)">
<stop stop-color="white" stop-opacity="0.06"/>
<stop offset="1" stop-color="white" stop-opacity="0"/>
</radialGradient>
</defs>
</svg>
