<svg width="676" height="280" viewBox="0 0 676 280" fill="none" xmlns="http://www.w3.org/2000/svg">
<rect x="462.5" y="0.5" width="193" height="279" rx="18.5" fill="white" stroke="#D4D4D4"/>
<path d="M551.161 14.2727V23H550.138L545.382 16.1477H545.297V23H544.24V14.2727H545.263L550.036 21.142H550.121V14.2727H551.161ZM555.798 23.1364C555.207 23.1364 554.689 22.9957 554.243 22.7145C553.8 22.4332 553.453 22.0398 553.203 21.5341C552.956 21.0284 552.832 20.4375 552.832 19.7614C552.832 19.0795 552.956 18.4844 553.203 17.9759C553.453 17.4673 553.8 17.0724 554.243 16.7912C554.689 16.5099 555.207 16.3693 555.798 16.3693C556.389 16.3693 556.906 16.5099 557.349 16.7912C557.795 17.0724 558.142 17.4673 558.389 17.9759C558.639 18.4844 558.764 19.0795 558.764 19.7614C558.764 20.4375 558.639 21.0284 558.389 21.5341C558.142 22.0398 557.795 22.4332 557.349 22.7145C556.906 22.9957 556.389 23.1364 555.798 23.1364ZM555.798 22.233C556.247 22.233 556.616 22.1179 556.906 21.8878C557.196 21.6577 557.411 21.3551 557.55 20.9801C557.689 20.6051 557.759 20.1989 557.759 19.7614C557.759 19.3239 557.689 18.9162 557.55 18.5384C557.411 18.1605 557.196 17.8551 556.906 17.6222C556.616 17.3892 556.247 17.2727 555.798 17.2727C555.349 17.2727 554.98 17.3892 554.69 17.6222C554.401 17.8551 554.186 18.1605 554.047 18.5384C553.908 18.9162 553.838 19.3239 553.838 19.7614C553.838 20.1989 553.908 20.6051 554.047 20.9801C554.186 21.3551 554.401 21.6577 554.69 21.8878C554.98 22.1179 555.349 22.233 555.798 22.233ZM562.771 23.1364C562.225 23.1364 561.744 22.9986 561.326 22.723C560.909 22.4446 560.582 22.0526 560.346 21.5469C560.11 21.0384 559.993 20.4375 559.993 19.7443C559.993 19.0568 560.11 18.4602 560.346 17.9545C560.582 17.4489 560.91 17.0582 561.331 16.7827C561.751 16.5071 562.237 16.3693 562.788 16.3693C563.214 16.3693 563.551 16.4403 563.798 16.5824C564.048 16.7216 564.238 16.8807 564.369 17.0597C564.502 17.2358 564.606 17.3807 564.68 17.4943H564.765V14.2727H565.771V23H564.799V21.9943H564.68C564.606 22.1136 564.501 22.2642 564.365 22.446C564.228 22.625 564.034 22.7855 563.781 22.9276C563.528 23.0668 563.191 23.1364 562.771 23.1364ZM562.907 22.233C563.311 22.233 563.652 22.1278 563.93 21.9176C564.208 21.7045 564.42 21.4105 564.565 21.0355C564.71 20.6577 564.782 20.2216 564.782 19.7273C564.782 19.2386 564.711 18.8111 564.569 18.4446C564.427 18.0753 564.217 17.7884 563.939 17.5838C563.66 17.3764 563.316 17.2727 562.907 17.2727C562.481 17.2727 562.126 17.3821 561.842 17.6009C561.561 17.8168 561.349 18.1108 561.207 18.483C561.068 18.8523 560.998 19.267 560.998 19.7273C560.998 20.1932 561.069 20.6165 561.211 20.9972C561.356 21.375 561.569 21.6761 561.85 21.9006C562.135 22.1222 562.487 22.233 562.907 22.233ZM570.497 23.1364C569.866 23.1364 569.322 22.9972 568.865 22.7188C568.41 22.4375 568.059 22.0455 567.812 21.5426C567.568 21.0369 567.446 20.4489 567.446 19.7784C567.446 19.108 567.568 18.517 567.812 18.0057C568.059 17.4915 568.403 17.0909 568.843 16.804C569.287 16.5142 569.804 16.3693 570.395 16.3693C570.735 16.3693 571.072 16.4261 571.404 16.5398C571.737 16.6534 572.039 16.8381 572.312 17.0938C572.585 17.3466 572.802 17.6818 572.964 18.0994C573.126 18.517 573.207 19.0312 573.207 19.642V20.0682H568.162V19.1989H572.184C572.184 18.8295 572.11 18.5 571.963 18.2102C571.818 17.9205 571.61 17.6918 571.341 17.5241C571.074 17.3565 570.758 17.2727 570.395 17.2727C569.994 17.2727 569.647 17.3722 569.355 17.571C569.065 17.767 568.842 18.0227 568.686 18.3381C568.529 18.6534 568.451 18.9915 568.451 19.3523V19.9318C568.451 20.4261 568.537 20.8452 568.707 21.1889C568.88 21.5298 569.12 21.7898 569.427 21.9688C569.734 22.1449 570.091 22.233 570.497 22.233C570.761 22.233 571 22.196 571.213 22.1222C571.429 22.0455 571.615 21.9318 571.771 21.7812C571.927 21.6278 572.048 21.4375 572.133 21.2102L573.105 21.483C573.002 21.8125 572.831 22.1023 572.589 22.3523C572.348 22.5994 572.049 22.7926 571.694 22.9318C571.339 23.0682 570.94 23.1364 570.497 23.1364Z" fill="#171717"/>
<rect x="468.5" y="124.5" width="180" height="64" rx="18.5" fill="white" stroke="#D4D4D4"/>
<path d="M620.5 137.75C630.855 137.75 639.25 146.145 639.25 156.5C639.25 166.855 630.855 175.25 620.5 175.25H497.5C487.145 175.25 478.75 166.855 478.75 156.5C478.75 146.145 487.145 137.75 497.5 137.75H620.5Z" fill="#F7F7F7" stroke="#D4D4D4" stroke-width="0.5"/>
<rect x="468.5" y="203.5" width="180" height="62" rx="18.5" fill="white" stroke="#D4D4D4"/>
<path d="M620.5 216.75C630.855 216.75 639.25 225.145 639.25 235.5C639.25 245.855 630.855 254.25 620.5 254.25H497.5C487.145 254.25 478.75 245.855 478.75 235.5C478.75 225.145 487.145 216.75 497.5 216.75H620.5Z" fill="#F7F7F7" stroke="#D4D4D4" stroke-width="0.5"/>
<path d="M537.366 240V239.233L541.082 234.46V234.392H537.485V233.455H542.377V234.256L538.763 238.994V239.062H542.496V240H537.366ZM543.294 232.21V231.273H549.84V232.21H547.096V240H546.039V232.21H543.294ZM554.569 237.324V233.455H555.575V240H554.569V238.892H554.501C554.347 239.224 554.109 239.507 553.785 239.74C553.461 239.97 553.052 240.085 552.558 240.085C552.148 240.085 551.785 239.996 551.467 239.817C551.148 239.635 550.898 239.362 550.717 238.999C550.535 238.632 550.444 238.17 550.444 237.614V233.455H551.45V237.545C551.45 238.023 551.583 238.403 551.85 238.688C552.12 238.972 552.464 239.114 552.881 239.114C553.131 239.114 553.386 239.05 553.644 238.922C553.906 238.794 554.124 238.598 554.3 238.334C554.479 238.07 554.569 237.733 554.569 237.324ZM558.422 236.062V240H557.417V233.455H558.388V234.477H558.473C558.627 234.145 558.86 233.878 559.172 233.676C559.485 233.472 559.888 233.369 560.382 233.369C560.826 233.369 561.213 233.46 561.546 233.642C561.878 233.821 562.137 234.094 562.321 234.46C562.506 234.824 562.598 235.284 562.598 235.841V240H561.593V235.909C561.593 235.395 561.459 234.994 561.192 234.707C560.925 234.418 560.559 234.273 560.093 234.273C559.772 234.273 559.485 234.342 559.232 234.482C558.982 234.621 558.784 234.824 558.64 235.091C558.495 235.358 558.422 235.682 558.422 236.062ZM565.442 236.062V240H564.436V233.455H565.408V234.477H565.493C565.646 234.145 565.879 233.878 566.192 233.676C566.504 233.472 566.908 233.369 567.402 233.369C567.845 233.369 568.233 233.46 568.565 233.642C568.898 233.821 569.156 234.094 569.341 234.46C569.526 234.824 569.618 235.284 569.618 235.841V240H568.612V235.909C568.612 235.395 568.479 234.994 568.212 234.707C567.945 234.418 567.578 234.273 567.112 234.273C566.791 234.273 566.504 234.342 566.251 234.482C566.001 234.621 565.804 234.824 565.659 235.091C565.514 235.358 565.442 235.682 565.442 236.062ZM574.2 240.136C573.569 240.136 573.025 239.997 572.568 239.719C572.113 239.438 571.762 239.045 571.515 238.543C571.271 238.037 571.149 237.449 571.149 236.778C571.149 236.108 571.271 235.517 571.515 235.006C571.762 234.491 572.106 234.091 572.547 233.804C572.99 233.514 573.507 233.369 574.098 233.369C574.439 233.369 574.775 233.426 575.108 233.54C575.44 233.653 575.743 233.838 576.015 234.094C576.288 234.347 576.505 234.682 576.667 235.099C576.829 235.517 576.91 236.031 576.91 236.642V237.068H571.865V236.199H575.887C575.887 235.83 575.814 235.5 575.666 235.21C575.521 234.92 575.314 234.692 575.044 234.524C574.777 234.357 574.461 234.273 574.098 234.273C573.697 234.273 573.35 234.372 573.058 234.571C572.768 234.767 572.545 235.023 572.389 235.338C572.233 235.653 572.154 235.991 572.154 236.352V236.932C572.154 237.426 572.24 237.845 572.41 238.189C572.583 238.53 572.824 238.79 573.13 238.969C573.437 239.145 573.794 239.233 574.2 239.233C574.464 239.233 574.703 239.196 574.916 239.122C575.132 239.045 575.318 238.932 575.474 238.781C575.63 238.628 575.751 238.437 575.836 238.21L576.808 238.483C576.706 238.812 576.534 239.102 576.292 239.352C576.051 239.599 575.752 239.793 575.397 239.932C575.042 240.068 574.643 240.136 574.2 240.136ZM579.446 231.273V240H578.44V231.273H579.446Z" fill="#171717"/>
<rect x="468.5" y="47.5" width="180" height="62" rx="18.5" fill="white" stroke="#D4D4D4"/>
<path d="M620.5 60.75C630.855 60.75 639.25 69.1447 639.25 79.5C639.25 89.8553 630.855 98.25 620.5 98.25H497.5C487.145 98.25 478.75 89.8553 478.75 79.5C478.75 69.1447 487.145 60.75 497.5 60.75H620.5Z" fill="#F7F7F7" stroke="#D4D4D4" stroke-width="0.5"/>
<path d="M534.798 83L532.412 74.2727H533.486L535.31 81.3807H535.395L537.253 74.2727H538.446L540.304 81.3807H540.389L542.213 74.2727H543.287L540.901 83H539.81L537.884 76.0455H537.815L535.889 83H534.798ZM545.784 83.1534C545.369 83.1534 544.993 83.0753 544.655 82.919C544.317 82.7599 544.048 82.5312 543.849 82.233C543.651 81.9318 543.551 81.5682 543.551 81.142C543.551 80.767 543.625 80.4631 543.773 80.2301C543.92 79.9943 544.118 79.8097 544.365 79.6761C544.612 79.5426 544.885 79.4432 545.183 79.3778C545.484 79.3097 545.787 79.2557 546.091 79.2159C546.489 79.1648 546.811 79.1264 547.058 79.1009C547.308 79.0724 547.49 79.0256 547.604 78.9602C547.72 78.8949 547.778 78.7812 547.778 78.6193V78.5852C547.778 78.1648 547.663 77.8381 547.433 77.6051C547.206 77.3722 546.861 77.2557 546.398 77.2557C545.918 77.2557 545.541 77.3608 545.268 77.571C544.996 77.7812 544.804 78.0057 544.693 78.2443L543.739 77.9034C543.909 77.5057 544.136 77.196 544.42 76.9744C544.707 76.75 545.02 76.5937 545.358 76.5057C545.699 76.4148 546.034 76.3693 546.364 76.3693C546.574 76.3693 546.815 76.3949 547.088 76.446C547.364 76.4943 547.629 76.5952 547.885 76.7486C548.143 76.902 548.358 77.1335 548.528 77.4432C548.699 77.7528 548.784 78.1676 548.784 78.6875V83H547.778V82.1136H547.727C547.659 82.2557 547.545 82.4077 547.386 82.5696C547.227 82.7315 547.016 82.8693 546.751 82.983C546.487 83.0966 546.165 83.1534 545.784 83.1534ZM545.938 82.25C546.335 82.25 546.67 82.1719 546.943 82.0156C547.219 81.8594 547.426 81.6577 547.565 81.4105C547.707 81.1634 547.778 80.9034 547.778 80.6307V79.7102C547.736 79.7614 547.642 79.8082 547.497 79.8509C547.355 79.8906 547.19 79.9261 547.003 79.9574C546.818 79.9858 546.638 80.0114 546.462 80.0341C546.288 80.054 546.148 80.071 546.04 80.0852C545.778 80.1193 545.534 80.1747 545.307 80.2514C545.082 80.3253 544.901 80.4375 544.761 80.5881C544.625 80.7358 544.557 80.9375 544.557 81.1932C544.557 81.5426 544.686 81.8068 544.945 81.9858C545.206 82.1619 545.537 82.25 545.938 82.25ZM551.033 85.4545C550.863 85.4545 550.711 85.4403 550.577 85.4119C550.444 85.3864 550.351 85.3608 550.3 85.3352L550.556 84.4489C550.8 84.5114 551.016 84.5341 551.203 84.517C551.391 84.5 551.557 84.4162 551.702 84.2656C551.85 84.1179 551.985 83.8778 552.107 83.5455L552.294 83.0341L549.874 76.4545H550.965L552.772 81.6705H552.84L554.647 76.4545H555.738L552.959 83.9545C552.834 84.2926 552.679 84.5724 552.495 84.794C552.31 85.0185 552.096 85.1847 551.851 85.2926C551.61 85.4006 551.337 85.4545 551.033 85.4545ZM557.065 85.4545V76.4545H558.037V77.4943H558.156C558.23 77.3807 558.332 77.2358 558.463 77.0597C558.596 76.8807 558.787 76.7216 559.034 76.5824C559.284 76.4403 559.622 76.3693 560.048 76.3693C560.599 76.3693 561.085 76.5071 561.505 76.7827C561.926 77.0582 562.254 77.4489 562.49 77.9545C562.725 78.4602 562.843 79.0568 562.843 79.7443C562.843 80.4375 562.725 81.0384 562.49 81.5469C562.254 82.0526 561.927 82.4446 561.51 82.723C561.092 82.9986 560.61 83.1364 560.065 83.1364C559.645 83.1364 559.308 83.0668 559.055 82.9276C558.802 82.7855 558.608 82.625 558.471 82.446C558.335 82.2642 558.23 82.1136 558.156 81.9943H558.071V85.4545H557.065ZM558.054 79.7273C558.054 80.2216 558.126 80.6577 558.271 81.0355C558.416 81.4105 558.627 81.7045 558.906 81.9176C559.184 82.1278 559.525 82.233 559.929 82.233C560.349 82.233 560.7 82.1222 560.981 81.9006C561.265 81.6761 561.478 81.375 561.62 80.9972C561.765 80.6165 561.838 80.1932 561.838 79.7273C561.838 79.267 561.767 78.8523 561.625 78.483C561.485 78.1108 561.274 77.8168 560.99 77.6009C560.708 77.3821 560.355 77.2727 559.929 77.2727C559.52 77.2727 559.176 77.3764 558.897 77.5838C558.619 77.7884 558.409 78.0753 558.267 78.4446C558.125 78.8111 558.054 79.2386 558.054 79.7273ZM567.037 83.1364C566.446 83.1364 565.927 82.9957 565.481 82.7145C565.038 82.4332 564.691 82.0398 564.441 81.5341C564.194 81.0284 564.071 80.4375 564.071 79.7614C564.071 79.0795 564.194 78.4844 564.441 77.9759C564.691 77.4673 565.038 77.0724 565.481 76.7912C565.927 76.5099 566.446 76.3693 567.037 76.3693C567.627 76.3693 568.145 76.5099 568.588 76.7912C569.034 77.0724 569.38 77.4673 569.627 77.9759C569.877 78.4844 570.002 79.0795 570.002 79.7614C570.002 80.4375 569.877 81.0284 569.627 81.5341C569.38 82.0398 569.034 82.4332 568.588 82.7145C568.145 82.9957 567.627 83.1364 567.037 83.1364ZM567.037 82.233C567.485 82.233 567.855 82.1179 568.145 81.8878C568.434 81.6577 568.649 81.3551 568.788 80.9801C568.927 80.6051 568.997 80.1989 568.997 79.7614C568.997 79.3239 568.927 78.9162 568.788 78.5384C568.649 78.1605 568.434 77.8551 568.145 77.6222C567.855 77.3892 567.485 77.2727 567.037 77.2727C566.588 77.2727 566.218 77.3892 565.929 77.6222C565.639 77.8551 565.424 78.1605 565.285 78.5384C565.146 78.9162 565.076 79.3239 565.076 79.7614C565.076 80.1989 565.146 80.6051 565.285 80.9801C565.424 81.3551 565.639 81.6577 565.929 81.8878C566.218 82.1179 566.588 82.233 567.037 82.233ZM571.538 83V76.4545H572.543V83H571.538ZM572.049 75.3636C571.853 75.3636 571.684 75.2969 571.542 75.1634C571.403 75.0298 571.333 74.8693 571.333 74.6818C571.333 74.4943 571.403 74.3338 571.542 74.2003C571.684 74.0668 571.853 74 572.049 74C572.245 74 572.413 74.0668 572.552 74.2003C572.694 74.3338 572.765 74.4943 572.765 74.6818C572.765 74.8693 572.694 75.0298 572.552 75.1634C572.413 75.2969 572.245 75.3636 572.049 75.3636ZM575.391 79.0625V83H574.385V76.4545H575.357V77.4773H575.442C575.596 77.1449 575.828 76.8778 576.141 76.6761C576.453 76.4716 576.857 76.3693 577.351 76.3693C577.794 76.3693 578.182 76.4602 578.515 76.642C578.847 76.821 579.105 77.0938 579.29 77.4602C579.475 77.8239 579.567 78.2841 579.567 78.8409V83H578.561V78.9091C578.561 78.3949 578.428 77.9943 578.161 77.7074C577.894 77.4176 577.527 77.2727 577.061 77.2727C576.74 77.2727 576.453 77.3423 576.201 77.4815C575.951 77.6207 575.753 77.8239 575.608 78.0909C575.463 78.358 575.391 78.6818 575.391 79.0625ZM584.251 76.4545V77.3068H580.859V76.4545H584.251ZM581.848 74.8864H582.854V81.125C582.854 81.4091 582.895 81.6222 582.977 81.7642C583.063 81.9034 583.17 81.9972 583.301 82.0455C583.435 82.0909 583.575 82.1136 583.723 82.1136C583.834 82.1136 583.925 82.108 583.996 82.0966C584.067 82.0824 584.124 82.071 584.166 82.0625L584.371 82.9659C584.303 82.9915 584.207 83.017 584.085 83.0426C583.963 83.071 583.808 83.0852 583.621 83.0852C583.337 83.0852 583.058 83.0241 582.786 82.902C582.516 82.7798 582.291 82.5938 582.112 82.3438C581.936 82.0938 581.848 81.7784 581.848 81.3977V74.8864Z" fill="#171717"/>
<path d="M599.271 78.5552L599.301 79.8141L600.642 80.6366L600.611 79.3777L599.271 78.5552ZM602.542 83.798L602.512 82.564L601.336 81.8411C601.322 81.8309 601.301 81.8161 601.287 81.8062L601.317 83.0449L602.542 83.798ZM598.356 85.4632L595.291 83.5799L595.215 80.4231L596.721 79.7792L596.691 78.5156L594.29 79.5415C594.106 79.6206 593.996 79.7892 594 79.9826L594.09 83.7733C594.096 83.9666 594.216 84.16 594.406 84.2788L598.081 86.5387C598.251 86.6427 598.462 86.6728 598.631 86.6178C598.649 86.6145 598.666 86.6079 598.681 86.5984L600.937 85.6371L599.712 84.8838L598.356 85.4632Z" fill="#B31AAB"/>
<path d="M608.263 78.4807C608.258 78.2525 608.118 78.0295 607.898 77.8912L603.432 75.1506L603.292 75.2098L603.323 76.5377L606.858 78.7084L606.943 82.2573L608.294 83.0844L608.368 83.0548L608.263 78.4807ZM602.917 84.7098L598.771 82.1628L598.671 77.886L600.562 77.0782L600.527 75.6066L597.591 76.8601C597.376 76.9541 597.246 77.1475 597.251 77.3757L597.366 82.391C597.371 82.6186 597.511 82.8422 597.731 82.9758L602.592 85.9641C602.792 86.0884 603.032 86.1178 603.237 86.0582C603.257 86.0534 603.277 86.0434 603.297 86.0332L606.168 84.8095L604.738 83.9326L602.917 84.7098Z" fill="#D163CE"/>
<path d="M614.579 74.9721L608.348 71.141C608.118 71.0021 607.843 70.9626 607.608 71.037C607.583 71.0418 607.563 71.0518 607.538 71.0619L601.457 73.6589C601.212 73.7629 601.062 73.9858 601.067 74.2483L601.222 80.6714C601.227 80.9339 601.387 81.1864 601.642 81.34L607.873 85.1663C608.103 85.3047 608.378 85.3442 608.608 85.2705C608.633 85.2651 608.653 85.255 608.678 85.2455L614.759 82.6485C615.005 82.5445 615.154 82.3163 615.15 82.0585L614.999 75.636C614.994 75.3828 614.834 75.1257 614.579 74.9721ZM608.248 83.7389L602.832 80.4136L602.697 74.8284L607.978 72.5732L613.394 75.8985L613.529 81.4839L608.248 83.7389Z" fill="#E13EAF"/>
<rect x="0.5" y="87.5" width="382" height="192" rx="18.5" fill="white" stroke="#D4D4D4"/>
<path d="M183.161 102.273V111H182.138L177.382 104.148H177.297V111H176.24V102.273H177.263L182.036 109.142H182.121V102.273H183.161ZM187.798 111.136C187.207 111.136 186.689 110.996 186.243 110.714C185.8 110.433 185.453 110.04 185.203 109.534C184.956 109.028 184.832 108.437 184.832 107.761C184.832 107.08 184.956 106.484 185.203 105.976C185.453 105.467 185.8 105.072 186.243 104.791C186.689 104.51 187.207 104.369 187.798 104.369C188.389 104.369 188.906 104.51 189.349 104.791C189.795 105.072 190.142 105.467 190.389 105.976C190.639 106.484 190.764 107.08 190.764 107.761C190.764 108.437 190.639 109.028 190.389 109.534C190.142 110.04 189.795 110.433 189.349 110.714C188.906 110.996 188.389 111.136 187.798 111.136ZM187.798 110.233C188.247 110.233 188.616 110.118 188.906 109.888C189.196 109.658 189.411 109.355 189.55 108.98C189.689 108.605 189.759 108.199 189.759 107.761C189.759 107.324 189.689 106.916 189.55 106.538C189.411 106.161 189.196 105.855 188.906 105.622C188.616 105.389 188.247 105.273 187.798 105.273C187.349 105.273 186.98 105.389 186.69 105.622C186.401 105.855 186.186 106.161 186.047 106.538C185.908 106.916 185.838 107.324 185.838 107.761C185.838 108.199 185.908 108.605 186.047 108.98C186.186 109.355 186.401 109.658 186.69 109.888C186.98 110.118 187.349 110.233 187.798 110.233ZM194.771 111.136C194.225 111.136 193.744 110.999 193.326 110.723C192.909 110.445 192.582 110.053 192.346 109.547C192.11 109.038 191.993 108.438 191.993 107.744C191.993 107.057 192.11 106.46 192.346 105.955C192.582 105.449 192.91 105.058 193.331 104.783C193.751 104.507 194.237 104.369 194.788 104.369C195.214 104.369 195.551 104.44 195.798 104.582C196.048 104.722 196.238 104.881 196.369 105.06C196.502 105.236 196.606 105.381 196.68 105.494H196.765V102.273H197.771V111H196.799V109.994H196.68C196.606 110.114 196.501 110.264 196.365 110.446C196.228 110.625 196.034 110.786 195.781 110.928C195.528 111.067 195.191 111.136 194.771 111.136ZM194.907 110.233C195.311 110.233 195.652 110.128 195.93 109.918C196.208 109.705 196.42 109.411 196.565 109.036C196.71 108.658 196.782 108.222 196.782 107.727C196.782 107.239 196.711 106.811 196.569 106.445C196.427 106.075 196.217 105.788 195.939 105.584C195.66 105.376 195.316 105.273 194.907 105.273C194.481 105.273 194.126 105.382 193.842 105.601C193.561 105.817 193.349 106.111 193.207 106.483C193.068 106.852 192.998 107.267 192.998 107.727C192.998 108.193 193.069 108.616 193.211 108.997C193.356 109.375 193.569 109.676 193.85 109.901C194.135 110.122 194.487 110.233 194.907 110.233ZM202.497 111.136C201.866 111.136 201.322 110.997 200.865 110.719C200.41 110.438 200.059 110.045 199.812 109.543C199.568 109.037 199.446 108.449 199.446 107.778C199.446 107.108 199.568 106.517 199.812 106.006C200.059 105.491 200.403 105.091 200.843 104.804C201.287 104.514 201.804 104.369 202.395 104.369C202.735 104.369 203.072 104.426 203.404 104.54C203.737 104.653 204.039 104.838 204.312 105.094C204.585 105.347 204.802 105.682 204.964 106.099C205.126 106.517 205.207 107.031 205.207 107.642V108.068H200.162V107.199H204.184C204.184 106.83 204.11 106.5 203.963 106.21C203.818 105.92 203.61 105.692 203.341 105.524C203.074 105.357 202.758 105.273 202.395 105.273C201.994 105.273 201.647 105.372 201.355 105.571C201.065 105.767 200.842 106.023 200.686 106.338C200.529 106.653 200.451 106.991 200.451 107.352V107.932C200.451 108.426 200.537 108.845 200.707 109.189C200.88 109.53 201.12 109.79 201.427 109.969C201.734 110.145 202.091 110.233 202.497 110.233C202.761 110.233 203 110.196 203.213 110.122C203.429 110.045 203.615 109.932 203.771 109.781C203.927 109.628 204.048 109.437 204.133 109.21L205.105 109.483C205.002 109.812 204.831 110.102 204.589 110.352C204.348 110.599 204.049 110.793 203.694 110.932C203.339 111.068 202.94 111.136 202.497 111.136Z" fill="#171717"/>
<rect x="195.5" y="124.5" width="180" height="64" rx="18.5" fill="white" stroke="#D4D4D4"/>
<path d="M347.5 137.75C357.855 137.75 366.25 146.145 366.25 156.5C366.25 166.855 357.855 175.25 347.5 175.25H224.5C214.145 175.25 205.75 166.855 205.75 156.5C205.75 146.145 214.145 137.75 224.5 137.75H347.5Z" fill="#F7F7F7" stroke="#D4D4D4" stroke-width="0.5"/>
<rect x="8.5" y="124.5" width="180" height="64" rx="18.5" fill="white" stroke="#D4D4D4"/>
<path d="M160.5 137.75C170.855 137.75 179.25 146.145 179.25 156.5C179.25 166.855 170.855 175.25 160.5 175.25H37.5C27.1447 175.25 18.75 166.855 18.75 156.5C18.75 146.145 27.1447 137.75 37.5 137.75H160.5Z" fill="#F7F7F7" stroke="#D4D4D4" stroke-width="0.5"/>
<rect x="195.5" y="203.5" width="180" height="62" rx="18.5" fill="white" stroke="#D4D4D4"/>
<path d="M347.5 216.75C357.855 216.75 366.25 225.145 366.25 235.5C366.25 245.855 357.855 254.25 347.5 254.25H224.5C214.145 254.25 205.75 245.855 205.75 235.5C205.75 225.145 214.145 216.75 224.5 216.75H347.5Z" fill="#F7F7F7" stroke="#D4D4D4" stroke-width="0.5"/>
<path d="M264.366 240V239.233L268.082 234.46V234.392H264.485V233.455H269.377V234.256L265.763 238.994V239.062H269.496V240H264.366ZM270.294 232.21V231.273H276.84V232.21H274.096V240H273.039V232.21H270.294ZM281.569 237.324V233.455H282.575V240H281.569V238.892H281.501C281.347 239.224 281.109 239.507 280.785 239.74C280.461 239.97 280.052 240.085 279.558 240.085C279.148 240.085 278.785 239.996 278.467 239.817C278.148 239.635 277.898 239.362 277.717 238.999C277.535 238.632 277.444 238.17 277.444 237.614V233.455H278.45V237.545C278.45 238.023 278.583 238.403 278.85 238.688C279.12 238.972 279.464 239.114 279.881 239.114C280.131 239.114 280.386 239.05 280.644 238.922C280.906 238.794 281.124 238.598 281.3 238.334C281.479 238.07 281.569 237.733 281.569 237.324ZM285.422 236.062V240H284.417V233.455H285.388V234.477H285.473C285.627 234.145 285.86 233.878 286.172 233.676C286.485 233.472 286.888 233.369 287.382 233.369C287.826 233.369 288.213 233.46 288.546 233.642C288.878 233.821 289.137 234.094 289.321 234.46C289.506 234.824 289.598 235.284 289.598 235.841V240H288.593V235.909C288.593 235.395 288.459 234.994 288.192 234.707C287.925 234.418 287.559 234.273 287.093 234.273C286.772 234.273 286.485 234.342 286.232 234.482C285.982 234.621 285.784 234.824 285.64 235.091C285.495 235.358 285.422 235.682 285.422 236.062ZM292.442 236.062V240H291.436V233.455H292.408V234.477H292.493C292.646 234.145 292.879 233.878 293.192 233.676C293.504 233.472 293.908 233.369 294.402 233.369C294.845 233.369 295.233 233.46 295.565 233.642C295.898 233.821 296.156 234.094 296.341 234.46C296.526 234.824 296.618 235.284 296.618 235.841V240H295.612V235.909C295.612 235.395 295.479 234.994 295.212 234.707C294.945 234.418 294.578 234.273 294.112 234.273C293.791 234.273 293.504 234.342 293.251 234.482C293.001 234.621 292.804 234.824 292.659 235.091C292.514 235.358 292.442 235.682 292.442 236.062ZM301.2 240.136C300.569 240.136 300.025 239.997 299.568 239.719C299.113 239.438 298.762 239.045 298.515 238.543C298.271 238.037 298.149 237.449 298.149 236.778C298.149 236.108 298.271 235.517 298.515 235.006C298.762 234.491 299.106 234.091 299.547 233.804C299.99 233.514 300.507 233.369 301.098 233.369C301.439 233.369 301.775 233.426 302.108 233.54C302.44 233.653 302.743 233.838 303.015 234.094C303.288 234.347 303.505 234.682 303.667 235.099C303.829 235.517 303.91 236.031 303.91 236.642V237.068H298.865V236.199H302.887C302.887 235.83 302.814 235.5 302.666 235.21C302.521 234.92 302.314 234.692 302.044 234.524C301.777 234.357 301.461 234.273 301.098 234.273C300.697 234.273 300.35 234.372 300.058 234.571C299.768 234.767 299.545 235.023 299.389 235.338C299.233 235.653 299.154 235.991 299.154 236.352V236.932C299.154 237.426 299.24 237.845 299.41 238.189C299.583 238.53 299.824 238.79 300.13 238.969C300.437 239.145 300.794 239.233 301.2 239.233C301.464 239.233 301.703 239.196 301.916 239.122C302.132 239.045 302.318 238.932 302.474 238.781C302.63 238.628 302.751 238.437 302.836 238.21L303.808 238.483C303.706 238.812 303.534 239.102 303.292 239.352C303.051 239.599 302.752 239.793 302.397 239.932C302.042 240.068 301.643 240.136 301.2 240.136ZM306.446 231.273V240H305.44V231.273H306.446Z" fill="#171717"/>
<rect x="191.5" y="41.5" width="461" height="152" rx="18.5" stroke="#6A55F3" stroke-dasharray="2 2"/>
<path d="M208.856 52.2727V61H207.833L203.078 54.1477H202.993V61H201.936V52.2727H202.958L207.731 59.142H207.816V52.2727H208.856ZM212.761 61.1534C212.346 61.1534 211.969 61.0753 211.631 60.919C211.293 60.7599 211.025 60.5312 210.826 60.233C210.627 59.9318 210.528 59.5682 210.528 59.142C210.528 58.767 210.602 58.4631 210.749 58.2301C210.897 57.9943 211.094 57.8097 211.342 57.6761C211.589 57.5426 211.862 57.4432 212.16 57.3778C212.461 57.3097 212.763 57.2557 213.067 57.2159C213.465 57.1648 213.788 57.1264 214.035 57.1009C214.285 57.0724 214.467 57.0256 214.58 56.9602C214.697 56.8949 214.755 56.7812 214.755 56.6193V56.5852C214.755 56.1648 214.64 55.8381 214.41 55.6051C214.183 55.3722 213.837 55.2557 213.374 55.2557C212.894 55.2557 212.518 55.3608 212.245 55.571C211.972 55.7812 211.781 56.0057 211.67 56.2443L210.715 55.9034C210.886 55.5057 211.113 55.196 211.397 54.9744C211.684 54.75 211.996 54.5937 212.335 54.5057C212.675 54.4148 213.011 54.3693 213.34 54.3693C213.55 54.3693 213.792 54.3949 214.065 54.446C214.34 54.4943 214.606 54.5952 214.862 54.7486C215.12 54.902 215.335 55.1335 215.505 55.4432C215.675 55.7528 215.761 56.1676 215.761 56.6875V61H214.755V60.1136H214.704C214.636 60.2557 214.522 60.4077 214.363 60.5696C214.204 60.7315 213.992 60.8693 213.728 60.983C213.464 61.0966 213.141 61.1534 212.761 61.1534ZM212.914 60.25C213.312 60.25 213.647 60.1719 213.92 60.0156C214.195 59.8594 214.403 59.6577 214.542 59.4105C214.684 59.1634 214.755 58.9034 214.755 58.6307V57.7102C214.712 57.7614 214.619 57.8082 214.474 57.8509C214.332 57.8906 214.167 57.9261 213.979 57.9574C213.795 57.9858 213.614 58.0114 213.438 58.0341C213.265 58.054 213.124 58.071 213.016 58.0852C212.755 58.1193 212.511 58.1747 212.283 58.2514C212.059 58.3253 211.877 58.4375 211.738 58.5881C211.602 58.7358 211.533 58.9375 211.533 59.1932C211.533 59.5426 211.663 59.8068 211.921 59.9858C212.183 60.1619 212.513 60.25 212.914 60.25ZM217.596 61V54.4545H218.568V55.4773H218.653C218.789 55.1278 219.01 54.8565 219.314 54.6634C219.618 54.4673 219.983 54.3693 220.409 54.3693C220.841 54.3693 221.2 54.4673 221.487 54.6634C221.777 54.8565 222.002 55.1278 222.164 55.4773H222.233C222.4 55.1392 222.652 54.8707 222.987 54.6719C223.322 54.4702 223.724 54.3693 224.193 54.3693C224.778 54.3693 225.257 54.5526 225.629 54.919C226.001 55.2827 226.187 55.8494 226.187 56.6193V61H225.181V56.6193C225.181 56.1364 225.049 55.7912 224.785 55.5838C224.521 55.3764 224.21 55.2727 223.852 55.2727C223.392 55.2727 223.035 55.4119 222.782 55.6903C222.529 55.9659 222.403 56.3153 222.403 56.7386V61H221.38V56.517C221.38 56.1449 221.26 55.8452 221.018 55.6179C220.777 55.3878 220.466 55.2727 220.085 55.2727C219.824 55.2727 219.579 55.3423 219.352 55.4815C219.127 55.6207 218.946 55.8139 218.806 56.0611C218.67 56.3054 218.602 56.5881 218.602 56.9091V61H217.596ZM230.77 61.1364C230.14 61.1364 229.596 60.9972 229.138 60.7188C228.684 60.4375 228.333 60.0455 228.086 59.5426C227.841 59.0369 227.719 58.4489 227.719 57.7784C227.719 57.108 227.841 56.517 228.086 56.0057C228.333 55.4915 228.676 55.0909 229.117 54.804C229.56 54.5142 230.077 54.3693 230.668 54.3693C231.009 54.3693 231.346 54.4261 231.678 54.5398C232.01 54.6534 232.313 54.8381 232.586 55.0938C232.858 55.3466 233.076 55.6818 233.238 56.0994C233.4 56.517 233.48 57.0312 233.48 57.642V58.0682H228.435V57.1989H232.458C232.458 56.8295 232.384 56.5 232.236 56.2102C232.091 55.9205 231.884 55.6918 231.614 55.5241C231.347 55.3565 231.032 55.2727 230.668 55.2727C230.267 55.2727 229.921 55.3722 229.628 55.571C229.338 55.767 229.115 56.0227 228.959 56.3381C228.803 56.6534 228.725 56.9915 228.725 57.3523V57.9318C228.725 58.4261 228.81 58.8452 228.98 59.1889C229.154 59.5298 229.394 59.7898 229.701 59.9688C230.007 60.1449 230.364 60.233 230.77 60.233C231.034 60.233 231.273 60.196 231.486 60.1222C231.702 60.0455 231.888 59.9318 232.044 59.7812C232.201 59.6278 232.321 59.4375 232.407 59.2102L233.378 59.483C233.276 59.8125 233.104 60.1023 232.863 60.3523C232.621 60.5994 232.323 60.7926 231.968 60.9318C231.613 61.0682 231.213 61.1364 230.77 61.1364ZM239.647 55.9205L238.743 56.1761C238.686 56.0256 238.603 55.8793 238.492 55.7372C238.384 55.5923 238.236 55.473 238.049 55.3793C237.861 55.2855 237.621 55.2386 237.328 55.2386C236.928 55.2386 236.594 55.331 236.327 55.5156C236.063 55.6974 235.931 55.929 235.931 56.2102C235.931 56.4602 236.022 56.6577 236.203 56.8026C236.385 56.9474 236.669 57.0682 237.056 57.1648L238.027 57.4034C238.613 57.5455 239.049 57.7628 239.336 58.0554C239.623 58.3452 239.766 58.7187 239.766 59.1761C239.766 59.5511 239.658 59.8864 239.442 60.1818C239.229 60.4773 238.931 60.7102 238.547 60.8807C238.164 61.0511 237.718 61.1364 237.209 61.1364C236.542 61.1364 235.989 60.9915 235.551 60.7017C235.114 60.4119 234.837 59.9886 234.721 59.4318L235.675 59.1932C235.766 59.5455 235.938 59.8097 236.191 59.9858C236.446 60.1619 236.78 60.25 237.192 60.25C237.661 60.25 238.033 60.1506 238.309 59.9517C238.587 59.75 238.726 59.5085 238.726 59.2273C238.726 59 238.647 58.8097 238.488 58.6562C238.328 58.5 238.084 58.3835 237.755 58.3068L236.664 58.0511C236.064 57.9091 235.624 57.6889 235.343 57.3906C235.064 57.0895 234.925 56.7131 234.925 56.2614C234.925 55.892 235.029 55.5653 235.236 55.2812C235.446 54.9972 235.732 54.7741 236.093 54.6122C236.456 54.4503 236.868 54.3693 237.328 54.3693C237.976 54.3693 238.485 54.5114 238.854 54.7955C239.226 55.0795 239.49 55.4545 239.647 55.9205ZM241.28 63.4545V54.4545H242.251V55.4943H242.371C242.445 55.3807 242.547 55.2358 242.678 55.0597C242.811 54.8807 243.001 54.7216 243.249 54.5824C243.499 54.4403 243.837 54.3693 244.263 54.3693C244.814 54.3693 245.3 54.5071 245.72 54.7827C246.141 55.0582 246.469 55.4489 246.705 55.9545C246.94 56.4602 247.058 57.0568 247.058 57.7443C247.058 58.4375 246.94 59.0384 246.705 59.5469C246.469 60.0526 246.142 60.4446 245.724 60.723C245.307 60.9986 244.825 61.1364 244.28 61.1364C243.859 61.1364 243.523 61.0668 243.27 60.9276C243.017 60.7855 242.822 60.625 242.686 60.446C242.55 60.2642 242.445 60.1136 242.371 59.9943H242.286V63.4545H241.28ZM242.268 57.7273C242.268 58.2216 242.341 58.6577 242.486 59.0355C242.631 59.4105 242.842 59.7045 243.121 59.9176C243.399 60.1278 243.74 60.233 244.143 60.233C244.564 60.233 244.915 60.1222 245.196 59.9006C245.48 59.6761 245.693 59.375 245.835 58.9972C245.98 58.6165 246.053 58.1932 246.053 57.7273C246.053 57.267 245.982 56.8523 245.839 56.483C245.7 56.1108 245.489 55.8168 245.205 55.6009C244.923 55.3821 244.57 55.2727 244.143 55.2727C243.734 55.2727 243.391 55.3764 243.112 55.5838C242.834 55.7884 242.624 56.0753 242.482 56.4446C242.339 56.8111 242.268 57.2386 242.268 57.7273ZM250.518 61.1534C250.104 61.1534 249.727 61.0753 249.389 60.919C249.051 60.7599 248.783 60.5312 248.584 60.233C248.385 59.9318 248.286 59.5682 248.286 59.142C248.286 58.767 248.359 58.4631 248.507 58.2301C248.655 57.9943 248.852 57.8097 249.099 57.6761C249.347 57.5426 249.619 57.4432 249.918 57.3778C250.219 57.3097 250.521 57.2557 250.825 57.2159C251.223 57.1648 251.545 57.1264 251.793 57.1009C252.043 57.0724 252.224 57.0256 252.338 56.9602C252.455 56.8949 252.513 56.7812 252.513 56.6193V56.5852C252.513 56.1648 252.398 55.8381 252.168 55.6051C251.94 55.3722 251.595 55.2557 251.132 55.2557C250.652 55.2557 250.276 55.3608 250.003 55.571C249.73 55.7812 249.538 56.0057 249.428 56.2443L248.473 55.9034C248.643 55.5057 248.871 55.196 249.155 54.9744C249.442 54.75 249.754 54.5937 250.092 54.5057C250.433 54.4148 250.768 54.3693 251.098 54.3693C251.308 54.3693 251.55 54.3949 251.822 54.446C252.098 54.4943 252.364 54.5952 252.619 54.7486C252.878 54.902 253.092 55.1335 253.263 55.4432C253.433 55.7528 253.518 56.1676 253.518 56.6875V61H252.513V60.1136H252.462C252.393 60.2557 252.28 60.4077 252.121 60.5696C251.962 60.7315 251.75 60.8693 251.486 60.983C251.222 61.0966 250.899 61.1534 250.518 61.1534ZM250.672 60.25C251.07 60.25 251.405 60.1719 251.678 60.0156C251.953 59.8594 252.161 59.6577 252.3 59.4105C252.442 59.1634 252.513 58.9034 252.513 58.6307V57.7102C252.47 57.7614 252.376 57.8082 252.232 57.8509C252.089 57.8906 251.925 57.9261 251.737 57.9574C251.553 57.9858 251.372 58.0114 251.196 58.0341C251.023 58.054 250.882 58.071 250.774 58.0852C250.513 58.1193 250.268 58.1747 250.041 58.2514C249.817 58.3253 249.635 58.4375 249.496 58.5881C249.359 58.7358 249.291 58.9375 249.291 59.1932C249.291 59.5426 249.42 59.8068 249.679 59.9858C249.94 60.1619 250.271 60.25 250.672 60.25ZM258.013 61.1364C257.4 61.1364 256.871 60.9915 256.428 60.7017C255.985 60.4119 255.644 60.0128 255.405 59.5043C255.167 58.9957 255.047 58.4148 255.047 57.7614C255.047 57.0966 255.169 56.5099 255.414 56.0014C255.661 55.4901 256.005 55.0909 256.445 54.804C256.888 54.5142 257.405 54.3693 257.996 54.3693C258.456 54.3693 258.871 54.4545 259.24 54.625C259.61 54.7955 259.912 55.0341 260.148 55.3409C260.384 55.6477 260.53 56.0057 260.587 56.4148H259.581C259.505 56.1165 259.334 55.8523 259.07 55.6222C258.809 55.3892 258.456 55.2727 258.013 55.2727C257.621 55.2727 257.277 55.375 256.982 55.5795C256.689 55.7812 256.461 56.0668 256.296 56.4361C256.134 56.8026 256.053 57.233 256.053 57.7273C256.053 58.233 256.132 58.6733 256.292 59.0483C256.453 59.4233 256.681 59.7145 256.973 59.9219C257.269 60.1293 257.615 60.233 258.013 60.233C258.275 60.233 258.512 60.1875 258.725 60.0966C258.938 60.0057 259.118 59.875 259.266 59.7045C259.414 59.5341 259.519 59.3295 259.581 59.0909H260.587C260.53 59.4773 260.39 59.8253 260.165 60.1349C259.944 60.4418 259.65 60.6861 259.283 60.8679C258.919 61.0469 258.496 61.1364 258.013 61.1364ZM264.801 61.1364C264.171 61.1364 263.627 60.9972 263.169 60.7188C262.715 60.4375 262.364 60.0455 262.117 59.5426C261.873 59.0369 261.75 58.4489 261.75 57.7784C261.75 57.108 261.873 56.517 262.117 56.0057C262.364 55.4915 262.708 55.0909 263.148 54.804C263.591 54.5142 264.108 54.3693 264.699 54.3693C265.04 54.3693 265.377 54.4261 265.709 54.5398C266.042 54.6534 266.344 54.8381 266.617 55.0938C266.89 55.3466 267.107 55.6818 267.269 56.0994C267.431 56.517 267.512 57.0312 267.512 57.642V58.0682H262.466V57.1989H266.489C266.489 56.8295 266.415 56.5 266.267 56.2102C266.123 55.9205 265.915 55.6918 265.645 55.5241C265.378 55.3565 265.063 55.2727 264.699 55.2727C264.299 55.2727 263.952 55.3722 263.659 55.571C263.37 55.767 263.147 56.0227 262.99 56.3381C262.834 56.6534 262.756 56.9915 262.756 57.3523V57.9318C262.756 58.4261 262.841 58.8452 263.012 59.1889C263.185 59.5298 263.425 59.7898 263.732 59.9688C264.039 60.1449 264.395 60.233 264.801 60.233C265.066 60.233 265.304 60.196 265.517 60.1222C265.733 60.0455 265.919 59.9318 266.076 59.7812C266.232 59.6278 266.353 59.4375 266.438 59.2102L267.409 59.483C267.307 59.8125 267.135 60.1023 266.894 60.3523C266.652 60.5994 266.354 60.7926 265.999 60.9318C265.644 61.0682 265.245 61.1364 264.801 61.1364Z" fill="#6A55F3"/>
<path d="M394.918 213V204.273H400.185V205.21H395.975V208.159H399.912V209.097H395.975V212.062H400.253V213H394.918ZM402.959 209.062V213H401.954V206.455H402.925V207.477H403.01C403.164 207.145 403.397 206.878 403.709 206.676C404.022 206.472 404.425 206.369 404.92 206.369C405.363 206.369 405.751 206.46 406.083 206.642C406.415 206.821 406.674 207.094 406.858 207.46C407.043 207.824 407.135 208.284 407.135 208.841V213H406.13V208.909C406.13 208.395 405.996 207.994 405.729 207.707C405.462 207.418 405.096 207.273 404.63 207.273C404.309 207.273 404.022 207.342 403.769 207.482C403.519 207.621 403.322 207.824 403.177 208.091C403.032 208.358 402.959 208.682 402.959 209.062ZM411.632 213.136C411.019 213.136 410.49 212.991 410.047 212.702C409.604 212.412 409.263 212.013 409.024 211.504C408.786 210.996 408.666 210.415 408.666 209.761C408.666 209.097 408.789 208.51 409.033 208.001C409.28 207.49 409.624 207.091 410.064 206.804C410.507 206.514 411.024 206.369 411.615 206.369C412.075 206.369 412.49 206.455 412.86 206.625C413.229 206.795 413.531 207.034 413.767 207.341C414.003 207.648 414.149 208.006 414.206 208.415H413.2C413.124 208.116 412.953 207.852 412.689 207.622C412.428 207.389 412.075 207.273 411.632 207.273C411.24 207.273 410.896 207.375 410.601 207.58C410.308 207.781 410.08 208.067 409.915 208.436C409.753 208.803 409.672 209.233 409.672 209.727C409.672 210.233 409.752 210.673 409.911 211.048C410.073 211.423 410.3 211.714 410.593 211.922C410.888 212.129 411.235 212.233 411.632 212.233C411.894 212.233 412.131 212.188 412.344 212.097C412.557 212.006 412.737 211.875 412.885 211.705C413.033 211.534 413.138 211.33 413.2 211.091H414.206C414.149 211.477 414.009 211.825 413.784 212.135C413.563 212.442 413.269 212.686 412.902 212.868C412.539 213.047 412.115 213.136 411.632 213.136ZM415.676 213V206.455H416.648V207.443H416.716C416.835 207.119 417.051 206.857 417.364 206.655C417.676 206.453 418.029 206.352 418.421 206.352C418.494 206.352 418.587 206.354 418.698 206.357C418.808 206.359 418.892 206.364 418.949 206.369V207.392C418.915 207.384 418.837 207.371 418.715 207.354C418.595 207.334 418.469 207.324 418.335 207.324C418.017 207.324 417.733 207.391 417.483 207.524C417.236 207.655 417.04 207.837 416.895 208.07C416.753 208.3 416.682 208.562 416.682 208.858V213H415.676ZM420.988 215.455C420.818 215.455 420.666 215.44 420.532 215.412C420.399 215.386 420.306 215.361 420.255 215.335L420.511 214.449C420.755 214.511 420.971 214.534 421.159 214.517C421.346 214.5 421.512 214.416 421.657 214.266C421.805 214.118 421.94 213.878 422.062 213.545L422.249 213.034L419.829 206.455H420.92L422.727 211.67H422.795L424.602 206.455H425.693L422.914 213.955C422.789 214.293 422.634 214.572 422.45 214.794C422.265 215.018 422.051 215.185 421.806 215.293C421.565 215.401 421.292 215.455 420.988 215.455ZM427.02 215.455V206.455H427.992V207.494H428.111C428.185 207.381 428.287 207.236 428.418 207.06C428.551 206.881 428.742 206.722 428.989 206.582C429.239 206.44 429.577 206.369 430.003 206.369C430.554 206.369 431.04 206.507 431.46 206.783C431.881 207.058 432.209 207.449 432.445 207.955C432.681 208.46 432.798 209.057 432.798 209.744C432.798 210.438 432.681 211.038 432.445 211.547C432.209 212.053 431.882 212.445 431.465 212.723C431.047 212.999 430.566 213.136 430.02 213.136C429.6 213.136 429.263 213.067 429.01 212.928C428.757 212.786 428.563 212.625 428.426 212.446C428.29 212.264 428.185 212.114 428.111 211.994H428.026V215.455H427.02ZM428.009 209.727C428.009 210.222 428.081 210.658 428.226 211.036C428.371 211.411 428.583 211.705 428.861 211.918C429.139 212.128 429.48 212.233 429.884 212.233C430.304 212.233 430.655 212.122 430.936 211.901C431.22 211.676 431.433 211.375 431.575 210.997C431.72 210.616 431.793 210.193 431.793 209.727C431.793 209.267 431.722 208.852 431.58 208.483C431.441 208.111 431.229 207.817 430.945 207.601C430.664 207.382 430.31 207.273 429.884 207.273C429.475 207.273 429.131 207.376 428.852 207.584C428.574 207.788 428.364 208.075 428.222 208.445C428.08 208.811 428.009 209.239 428.009 209.727ZM437.179 206.455V207.307H433.787V206.455H437.179ZM434.776 204.886H435.781V211.125C435.781 211.409 435.823 211.622 435.905 211.764C435.99 211.903 436.098 211.997 436.229 212.045C436.362 212.091 436.503 212.114 436.651 212.114C436.762 212.114 436.852 212.108 436.923 212.097C436.994 212.082 437.051 212.071 437.094 212.062L437.298 212.966C437.23 212.991 437.135 213.017 437.013 213.043C436.891 213.071 436.736 213.085 436.548 213.085C436.264 213.085 435.986 213.024 435.713 212.902C435.443 212.78 435.219 212.594 435.04 212.344C434.864 212.094 434.776 211.778 434.776 211.398V204.886ZM441.366 213.136C440.735 213.136 440.191 212.997 439.734 212.719C439.279 212.438 438.928 212.045 438.681 211.543C438.437 211.037 438.315 210.449 438.315 209.778C438.315 209.108 438.437 208.517 438.681 208.006C438.928 207.491 439.272 207.091 439.713 206.804C440.156 206.514 440.673 206.369 441.264 206.369C441.605 206.369 441.941 206.426 442.274 206.54C442.606 206.653 442.909 206.838 443.181 207.094C443.454 207.347 443.671 207.682 443.833 208.099C443.995 208.517 444.076 209.031 444.076 209.642V210.068H439.031V209.199H443.053C443.053 208.83 442.98 208.5 442.832 208.21C442.687 207.92 442.48 207.692 442.21 207.524C441.943 207.357 441.627 207.273 441.264 207.273C440.863 207.273 440.517 207.372 440.224 207.571C439.934 207.767 439.711 208.023 439.555 208.338C439.399 208.653 439.32 208.991 439.32 209.352V209.932C439.32 210.426 439.406 210.845 439.576 211.189C439.749 211.53 439.99 211.79 440.296 211.969C440.603 212.145 440.96 212.233 441.366 212.233C441.63 212.233 441.869 212.196 442.082 212.122C442.298 212.045 442.484 211.932 442.64 211.781C442.796 211.628 442.917 211.437 443.002 211.21L443.974 211.483C443.872 211.812 443.7 212.102 443.458 212.352C443.217 212.599 442.919 212.793 442.563 212.932C442.208 213.068 441.809 213.136 441.366 213.136ZM448.078 213.136C447.532 213.136 447.051 212.999 446.633 212.723C446.215 212.445 445.889 212.053 445.653 211.547C445.417 211.038 445.299 210.438 445.299 209.744C445.299 209.057 445.417 208.46 445.653 207.955C445.889 207.449 446.217 207.058 446.637 206.783C447.058 206.507 447.544 206.369 448.095 206.369C448.521 206.369 448.857 206.44 449.105 206.582C449.355 206.722 449.545 206.881 449.676 207.06C449.809 207.236 449.913 207.381 449.987 207.494H450.072V204.273H451.078V213H450.106V211.994H449.987C449.913 212.114 449.808 212.264 449.671 212.446C449.535 212.625 449.34 212.786 449.088 212.928C448.835 213.067 448.498 213.136 448.078 213.136ZM448.214 212.233C448.617 212.233 448.958 212.128 449.237 211.918C449.515 211.705 449.727 211.411 449.872 211.036C450.017 210.658 450.089 210.222 450.089 209.727C450.089 209.239 450.018 208.811 449.876 208.445C449.734 208.075 449.524 207.788 449.245 207.584C448.967 207.376 448.623 207.273 448.214 207.273C447.788 207.273 447.433 207.382 447.149 207.601C446.867 207.817 446.656 208.111 446.514 208.483C446.374 208.852 446.305 209.267 446.305 209.727C446.305 210.193 446.376 210.616 446.518 210.997C446.663 211.375 446.876 211.676 447.157 211.901C447.441 212.122 447.794 212.233 448.214 212.233ZM409.874 221.455V222.307H406.482V221.455H409.874ZM407.471 219.886H408.477V226.125C408.477 226.409 408.518 226.622 408.6 226.764C408.686 226.903 408.794 226.997 408.924 227.045C409.058 227.091 409.198 227.114 409.346 227.114C409.457 227.114 409.548 227.108 409.619 227.097C409.69 227.082 409.747 227.071 409.789 227.062L409.994 227.966C409.926 227.991 409.83 228.017 409.708 228.043C409.586 228.071 409.431 228.085 409.244 228.085C408.96 228.085 408.681 228.024 408.409 227.902C408.139 227.78 407.914 227.594 407.735 227.344C407.559 227.094 407.471 226.778 407.471 226.398V219.886ZM411.387 228V221.455H412.359V222.443H412.427C412.546 222.119 412.762 221.857 413.075 221.655C413.387 221.453 413.74 221.352 414.132 221.352C414.205 221.352 414.298 221.354 414.409 221.357C414.519 221.359 414.603 221.364 414.66 221.369V222.392C414.626 222.384 414.548 222.371 414.426 222.354C414.306 222.334 414.18 222.324 414.046 222.324C413.728 222.324 413.444 222.391 413.194 222.524C412.947 222.655 412.751 222.837 412.606 223.07C412.464 223.3 412.393 223.562 412.393 223.858V228H411.387ZM417.778 228.153C417.363 228.153 416.987 228.075 416.649 227.919C416.311 227.76 416.042 227.531 415.844 227.233C415.645 226.932 415.545 226.568 415.545 226.142C415.545 225.767 415.619 225.463 415.767 225.23C415.915 224.994 416.112 224.81 416.359 224.676C416.606 224.543 416.879 224.443 417.177 224.378C417.479 224.31 417.781 224.256 418.085 224.216C418.483 224.165 418.805 224.126 419.052 224.101C419.302 224.072 419.484 224.026 419.598 223.96C419.714 223.895 419.773 223.781 419.773 223.619V223.585C419.773 223.165 419.657 222.838 419.427 222.605C419.2 222.372 418.855 222.256 418.392 222.256C417.912 222.256 417.535 222.361 417.263 222.571C416.99 222.781 416.798 223.006 416.687 223.244L415.733 222.903C415.903 222.506 416.131 222.196 416.415 221.974C416.702 221.75 417.014 221.594 417.352 221.506C417.693 221.415 418.028 221.369 418.358 221.369C418.568 221.369 418.809 221.395 419.082 221.446C419.358 221.494 419.623 221.595 419.879 221.749C420.138 221.902 420.352 222.134 420.523 222.443C420.693 222.753 420.778 223.168 420.778 223.688V228H419.773V227.114H419.721C419.653 227.256 419.54 227.408 419.381 227.57C419.221 227.732 419.01 227.869 418.746 227.983C418.481 228.097 418.159 228.153 417.778 228.153ZM417.932 227.25C418.329 227.25 418.665 227.172 418.937 227.016C419.213 226.859 419.42 226.658 419.559 226.411C419.702 226.163 419.773 225.903 419.773 225.631V224.71C419.73 224.761 419.636 224.808 419.491 224.851C419.349 224.891 419.184 224.926 418.997 224.957C418.812 224.986 418.632 225.011 418.456 225.034C418.282 225.054 418.142 225.071 418.034 225.085C417.773 225.119 417.528 225.175 417.301 225.251C417.077 225.325 416.895 225.437 416.756 225.588C416.619 225.736 416.551 225.937 416.551 226.193C416.551 226.543 416.68 226.807 416.939 226.986C417.2 227.162 417.531 227.25 417.932 227.25ZM425.529 221.455V222.307H422V221.455H425.529ZM423.057 228V220.551C423.057 220.176 423.145 219.864 423.321 219.614C423.497 219.364 423.726 219.176 424.007 219.051C424.289 218.926 424.585 218.864 424.898 218.864C425.145 218.864 425.347 218.884 425.503 218.923C425.659 218.963 425.776 219 425.852 219.034L425.563 219.903C425.512 219.886 425.441 219.865 425.35 219.839C425.262 219.814 425.145 219.801 425 219.801C424.668 219.801 424.428 219.885 424.28 220.053C424.135 220.22 424.063 220.466 424.063 220.79V228H423.057ZM429.853 221.455V222.307H426.324V221.455H429.853ZM427.381 228V220.551C427.381 220.176 427.469 219.864 427.645 219.614C427.822 219.364 428.05 219.176 428.331 219.051C428.613 218.926 428.91 218.864 429.222 218.864C429.469 218.864 429.671 218.884 429.827 218.923C429.983 218.963 430.1 219 430.177 219.034L429.887 219.903C429.836 219.886 429.765 219.865 429.674 219.839C429.586 219.814 429.469 219.801 429.324 219.801C428.992 219.801 428.752 219.885 428.604 220.053C428.459 220.22 428.387 220.466 428.387 220.79V228H427.381ZM431.262 228V221.455H432.268V228H431.262ZM431.774 220.364C431.578 220.364 431.409 220.297 431.267 220.163C431.127 220.03 431.058 219.869 431.058 219.682C431.058 219.494 431.127 219.334 431.267 219.2C431.409 219.067 431.578 219 431.774 219C431.97 219 432.137 219.067 432.276 219.2C432.419 219.334 432.49 219.494 432.49 219.682C432.49 219.869 432.419 220.03 432.276 220.163C432.137 220.297 431.97 220.364 431.774 220.364ZM436.769 228.136C436.155 228.136 435.627 227.991 435.184 227.702C434.741 227.412 434.4 227.013 434.161 226.504C433.922 225.996 433.803 225.415 433.803 224.761C433.803 224.097 433.925 223.51 434.17 223.001C434.417 222.49 434.76 222.091 435.201 221.804C435.644 221.514 436.161 221.369 436.752 221.369C437.212 221.369 437.627 221.455 437.996 221.625C438.366 221.795 438.668 222.034 438.904 222.341C439.14 222.648 439.286 223.006 439.343 223.415H438.337C438.26 223.116 438.09 222.852 437.826 222.622C437.564 222.389 437.212 222.273 436.769 222.273C436.377 222.273 436.033 222.375 435.738 222.58C435.445 222.781 435.216 223.067 435.052 223.436C434.89 223.803 434.809 224.233 434.809 224.727C434.809 225.233 434.888 225.673 435.047 226.048C435.209 226.423 435.437 226.714 435.729 226.922C436.025 227.129 436.371 227.233 436.769 227.233C437.03 227.233 437.268 227.188 437.481 227.097C437.694 227.006 437.874 226.875 438.022 226.705C438.17 226.534 438.275 226.33 438.337 226.091H439.343C439.286 226.477 439.145 226.825 438.921 227.135C438.699 227.442 438.405 227.686 438.039 227.868C437.675 228.047 437.252 228.136 436.769 228.136Z" fill="#171717"/>
<path d="M478.5 235L468.5 229.226V240.774L478.5 235ZM366 235L376 240.774V229.226L366 235ZM469.5 235V234H375V235V236H469.5V235Z" fill="#A3A3A3"/>
<path d="M638.998 235.49L648.867 241.486L649.125 229.942L638.998 235.49ZM638.998 80.5002L649.31 85.6976L648.655 74.1692L638.998 80.5002ZM648.001 235.692L648.356 236.626C652.456 235.069 656.066 231.457 659.187 226.507C662.317 221.542 665.02 215.127 667.263 207.79C671.749 193.112 674.436 174.599 674.952 156.245C675.468 137.897 673.816 119.631 669.576 105.462C665.363 91.3855 658.458 80.9332 648.165 79.0073L647.981 79.9903L647.797 80.9732C656.878 82.6723 663.473 92.0477 667.66 106.035C671.818 119.93 673.465 137.966 672.953 156.189C672.44 174.407 669.772 192.736 665.35 207.205C663.138 214.441 660.499 220.676 657.495 225.441C654.482 230.22 651.166 233.419 647.646 234.757L648.001 235.692Z" fill="#A3A3A3"/>
<path d="M98.999 175L93.7507 185.285L105.282 184.688L98.999 175ZM286.5 210.5L287.498 210.447C287.257 205.851 284.222 202.311 279.461 199.595C274.704 196.883 268.052 194.885 260.158 193.394C244.355 190.41 223.239 189.4 201.492 188.993C179.687 188.586 157.31 188.785 138.758 188.234C129.497 187.96 121.24 187.499 114.549 186.686C107.816 185.868 102.811 184.708 99.9518 183.114L99.4647 183.987L98.9776 184.86C102.212 186.664 107.568 187.853 114.308 188.671C121.09 189.495 129.418 189.958 138.699 190.234C157.23 190.784 179.764 190.587 201.454 190.993C223.202 191.399 244.167 192.41 259.787 195.36C267.604 196.836 274 198.784 278.47 201.333C282.936 203.879 285.31 206.917 285.501 210.553L286.5 210.5Z" fill="#A3A3A3"/>
<path d="M559 216.5L564.774 206.5H553.226L559 216.5ZM559 176L553.226 186H564.774L559 176ZM559 207.5H560V185H559H558V207.5H559Z" fill="#A3A3A3"/>
<path d="M286 215.5L291.774 205.5H280.226L286 215.5ZM286 175L280.226 185H291.774L286 175ZM286 206.5H287V184H286H285V206.5H286Z" fill="#A3A3A3"/>
</svg>
