<svg width="676" height="280" viewBox="0 0 676 280" fill="none" xmlns="http://www.w3.org/2000/svg">
<rect x="462.5" y="0.5" width="193" height="279" rx="18.5" fill="white" stroke="#D4D4D4"/>
<path d="M550.124 14.372C550.052 14.532 549.984 14.708 549.92 14.9C549.856 15.092 549.796 15.264 549.74 15.416C549.588 15.848 549.404 16.324 549.188 16.844C548.972 17.356 548.728 17.864 548.456 18.368C548.184 18.872 547.88 19.344 547.544 19.784C547.184 20.24 546.76 20.684 546.272 21.116C545.784 21.548 545.264 21.944 544.712 22.304C544.16 22.664 543.596 22.964 543.02 23.204L542.18 22.328C542.78 22.12 543.356 21.856 543.908 21.536C544.46 21.208 544.976 20.84 545.456 20.432C545.936 20.024 546.356 19.596 546.716 19.148C547.092 18.684 547.428 18.168 547.724 17.6C548.02 17.032 548.276 16.444 548.492 15.836C548.708 15.228 548.872 14.636 548.984 14.06L550.124 14.372ZM553.724 17.804C553.844 17.812 553.992 17.824 554.168 17.84C554.344 17.848 554.536 17.856 554.744 17.864C554.96 17.864 555.176 17.864 555.392 17.864C555.52 17.864 555.716 17.864 555.98 17.864C556.252 17.864 556.568 17.864 556.928 17.864C557.288 17.864 557.668 17.864 558.068 17.864C558.476 17.864 558.88 17.864 559.28 17.864C559.688 17.864 560.072 17.864 560.432 17.864C560.8 17.864 561.116 17.864 561.38 17.864C561.644 17.864 561.84 17.864 561.968 17.864C562.272 17.864 562.532 17.856 562.748 17.84C562.964 17.824 563.136 17.812 563.264 17.804V18.98C563.144 18.972 562.964 18.96 562.724 18.944C562.492 18.928 562.244 18.92 561.98 18.92C561.852 18.92 561.652 18.92 561.38 18.92C561.108 18.92 560.792 18.92 560.432 18.92C560.08 18.92 559.7 18.92 559.292 18.92C558.884 18.92 558.476 18.92 558.068 18.92C557.668 18.92 557.288 18.92 556.928 18.92C556.576 18.92 556.264 18.92 555.992 18.92C555.72 18.92 555.52 18.92 555.392 18.92C555.064 18.92 554.752 18.928 554.456 18.944C554.16 18.952 553.916 18.964 553.724 18.98V17.804ZM572.372 14.36C572.476 14.504 572.596 14.684 572.732 14.9C572.868 15.108 573 15.324 573.128 15.548C573.264 15.772 573.376 15.98 573.464 16.172L572.78 16.484C572.684 16.276 572.576 16.068 572.456 15.86C572.344 15.644 572.224 15.436 572.096 15.236C571.976 15.028 571.848 14.836 571.712 14.66L572.372 14.36ZM573.824 13.76C573.928 13.896 574.048 14.068 574.184 14.276C574.328 14.484 574.468 14.7 574.604 14.924C574.74 15.148 574.856 15.352 574.952 15.536L574.28 15.872C574.176 15.664 574.064 15.456 573.944 15.248C573.824 15.04 573.696 14.836 573.56 14.636C573.432 14.436 573.3 14.248 573.164 14.072L573.824 13.76ZM568.16 22.1C568.16 21.988 568.16 21.764 568.16 21.428C568.16 21.092 568.16 20.692 568.16 20.228C568.16 19.756 568.16 19.26 568.16 18.74C568.16 18.22 568.16 17.716 568.16 17.228C568.16 16.74 568.16 16.308 568.16 15.932C568.16 15.556 568.16 15.284 568.16 15.116C568.16 14.948 568.152 14.744 568.136 14.504C568.128 14.264 568.104 14.052 568.064 13.868H569.252C569.228 14.052 569.208 14.264 569.192 14.504C569.176 14.736 569.168 14.94 569.168 15.116C569.168 15.428 569.168 15.804 569.168 16.244C569.168 16.676 569.168 17.14 569.168 17.636C569.168 18.124 569.168 18.612 569.168 19.1C569.168 19.58 569.168 20.032 569.168 20.456C569.168 20.872 569.168 21.228 569.168 21.524C569.168 21.812 569.168 22.004 569.168 22.1C569.168 22.22 569.168 22.368 569.168 22.544C569.176 22.72 569.188 22.892 569.204 23.06C569.22 23.236 569.232 23.388 569.24 23.516H568.088C568.112 23.324 568.128 23.096 568.136 22.832C568.152 22.568 568.16 22.324 568.16 22.1ZM568.952 17.012C569.344 17.132 569.78 17.276 570.26 17.444C570.74 17.604 571.224 17.776 571.712 17.96C572.208 18.144 572.676 18.332 573.116 18.524C573.564 18.708 573.956 18.884 574.292 19.052L573.872 20.072C573.528 19.888 573.14 19.7 572.708 19.508C572.284 19.316 571.844 19.128 571.388 18.944C570.932 18.76 570.492 18.596 570.068 18.452C569.652 18.308 569.28 18.184 568.952 18.08V17.012Z" fill="#171717"/>
<rect x="468.5" y="124.5" width="180" height="64" rx="18.5" fill="white" stroke="#D4D4D4"/>
<path d="M620.5 137.75C630.855 137.75 639.25 146.145 639.25 156.5C639.25 166.855 630.855 175.25 620.5 175.25H497.5C487.145 175.25 478.75 166.855 478.75 156.5C478.75 146.145 487.145 137.75 497.5 137.75H620.5Z" fill="#F7F7F7" stroke="#D4D4D4" stroke-width="0.5"/>
<rect x="468.5" y="203.5" width="180" height="62" rx="18.5" fill="white" stroke="#D4D4D4"/>
<path d="M620.5 216.75C630.855 216.75 639.25 225.145 639.25 235.5C639.25 245.855 630.855 254.25 620.5 254.25H497.5C487.145 254.25 478.75 245.855 478.75 235.5C478.75 225.145 487.145 216.75 497.5 216.75H620.5Z" fill="#F7F7F7" stroke="#D4D4D4" stroke-width="0.5"/>
<path d="M537.366 240V239.233L541.082 234.46V234.392H537.485V233.455H542.377V234.256L538.763 238.994V239.062H542.496V240H537.366ZM543.294 232.21V231.273H549.84V232.21H547.096V240H546.039V232.21H543.294ZM554.569 237.324V233.455H555.575V240H554.569V238.892H554.501C554.347 239.224 554.109 239.507 553.785 239.74C553.461 239.97 553.052 240.085 552.558 240.085C552.148 240.085 551.785 239.996 551.467 239.817C551.148 239.635 550.898 239.362 550.717 238.999C550.535 238.632 550.444 238.17 550.444 237.614V233.455H551.45V237.545C551.45 238.023 551.583 238.403 551.85 238.688C552.12 238.972 552.464 239.114 552.881 239.114C553.131 239.114 553.386 239.05 553.644 238.922C553.906 238.794 554.124 238.598 554.3 238.334C554.479 238.07 554.569 237.733 554.569 237.324ZM558.422 236.062V240H557.417V233.455H558.388V234.477H558.473C558.627 234.145 558.86 233.878 559.172 233.676C559.485 233.472 559.888 233.369 560.382 233.369C560.826 233.369 561.213 233.46 561.546 233.642C561.878 233.821 562.137 234.094 562.321 234.46C562.506 234.824 562.598 235.284 562.598 235.841V240H561.593V235.909C561.593 235.395 561.459 234.994 561.192 234.707C560.925 234.418 560.559 234.273 560.093 234.273C559.772 234.273 559.485 234.342 559.232 234.482C558.982 234.621 558.784 234.824 558.64 235.091C558.495 235.358 558.422 235.682 558.422 236.062ZM565.442 236.062V240H564.436V233.455H565.408V234.477H565.493C565.646 234.145 565.879 233.878 566.192 233.676C566.504 233.472 566.908 233.369 567.402 233.369C567.845 233.369 568.233 233.46 568.565 233.642C568.898 233.821 569.156 234.094 569.341 234.46C569.526 234.824 569.618 235.284 569.618 235.841V240H568.612V235.909C568.612 235.395 568.479 234.994 568.212 234.707C567.945 234.418 567.578 234.273 567.112 234.273C566.791 234.273 566.504 234.342 566.251 234.482C566.001 234.621 565.804 234.824 565.659 235.091C565.514 235.358 565.442 235.682 565.442 236.062ZM574.2 240.136C573.569 240.136 573.025 239.997 572.568 239.719C572.113 239.438 571.762 239.045 571.515 238.543C571.271 238.037 571.149 237.449 571.149 236.778C571.149 236.108 571.271 235.517 571.515 235.006C571.762 234.491 572.106 234.091 572.547 233.804C572.99 233.514 573.507 233.369 574.098 233.369C574.439 233.369 574.775 233.426 575.108 233.54C575.44 233.653 575.743 233.838 576.015 234.094C576.288 234.347 576.505 234.682 576.667 235.099C576.829 235.517 576.91 236.031 576.91 236.642V237.068H571.865V236.199H575.887C575.887 235.83 575.814 235.5 575.666 235.21C575.521 234.92 575.314 234.692 575.044 234.524C574.777 234.357 574.461 234.273 574.098 234.273C573.697 234.273 573.35 234.372 573.058 234.571C572.768 234.767 572.545 235.023 572.389 235.338C572.233 235.653 572.154 235.991 572.154 236.352V236.932C572.154 237.426 572.24 237.845 572.41 238.189C572.583 238.53 572.824 238.79 573.13 238.969C573.437 239.145 573.794 239.233 574.2 239.233C574.464 239.233 574.703 239.196 574.916 239.122C575.132 239.045 575.318 238.932 575.474 238.781C575.63 238.628 575.751 238.437 575.836 238.21L576.808 238.483C576.706 238.812 576.534 239.102 576.292 239.352C576.051 239.599 575.752 239.793 575.397 239.932C575.042 240.068 574.643 240.136 574.2 240.136ZM579.446 231.273V240H578.44V231.273H579.446Z" fill="#171717"/>
<rect x="468.5" y="47.5" width="180" height="62" rx="18.5" fill="white" stroke="#D4D4D4"/>
<path d="M620.5 60.75C630.855 60.75 639.25 69.1447 639.25 79.5C639.25 89.8553 630.855 98.25 620.5 98.25H497.5C487.145 98.25 478.75 89.8553 478.75 79.5C478.75 69.1447 487.145 60.75 497.5 60.75H620.5Z" fill="#F7F7F7" stroke="#D4D4D4" stroke-width="0.5"/>
<path d="M510.992 73.388C510.968 73.572 510.948 73.736 510.932 73.88C510.924 74.024 510.92 74.16 510.92 74.288C510.92 74.384 510.92 74.532 510.92 74.732C510.92 74.932 510.92 75.14 510.92 75.356C510.92 75.572 510.92 75.752 510.92 75.896H509.9C509.9 75.736 509.9 75.548 509.9 75.332C509.9 75.116 509.9 74.912 509.9 74.72C509.9 74.528 509.9 74.384 509.9 74.288C509.9 74.16 509.896 74.024 509.888 73.88C509.888 73.736 509.872 73.572 509.84 73.388H510.992ZM515.084 75.716C515.052 75.804 515.02 75.92 514.988 76.064C514.956 76.2 514.928 76.324 514.904 76.436C514.872 76.676 514.82 76.944 514.748 77.24C514.684 77.536 514.604 77.848 514.508 78.176C514.412 78.496 514.3 78.816 514.172 79.136C514.044 79.448 513.896 79.752 513.728 80.048C513.432 80.568 513.052 81.048 512.588 81.488C512.124 81.928 511.588 82.312 510.98 82.64C510.38 82.968 509.712 83.236 508.976 83.444L508.196 82.544C508.396 82.512 508.604 82.468 508.82 82.412C509.044 82.348 509.252 82.28 509.444 82.208C509.844 82.08 510.248 81.9 510.656 81.668C511.064 81.428 511.444 81.152 511.796 80.84C512.156 80.52 512.456 80.172 512.696 79.796C512.912 79.452 513.096 79.076 513.248 78.668C513.408 78.26 513.536 77.848 513.632 77.432C513.728 77.016 513.796 76.636 513.836 76.292H507.128C507.128 76.42 507.128 76.584 507.128 76.784C507.128 76.984 507.128 77.196 507.128 77.42C507.128 77.636 507.128 77.84 507.128 78.032C507.128 78.216 507.128 78.352 507.128 78.44C507.128 78.552 507.132 78.676 507.14 78.812C507.148 78.948 507.16 79.064 507.176 79.16H506.132C506.148 79.048 506.156 78.92 506.156 78.776C506.164 78.632 506.168 78.504 506.168 78.392C506.168 78.296 506.168 78.152 506.168 77.96C506.168 77.768 506.168 77.564 506.168 77.348C506.168 77.124 506.168 76.916 506.168 76.724C506.168 76.532 506.168 76.384 506.168 76.28C506.168 76.152 506.164 76 506.156 75.824C506.156 75.648 506.148 75.492 506.132 75.356C506.308 75.372 506.484 75.384 506.66 75.392C506.844 75.4 507.04 75.404 507.248 75.404H513.608C513.832 75.404 514.004 75.396 514.124 75.38C514.252 75.356 514.356 75.332 514.436 75.308L515.084 75.716ZM518.948 76.796C519.076 76.812 519.22 76.824 519.38 76.832C519.548 76.84 519.68 76.844 519.776 76.844H525.296C525.448 76.844 525.596 76.84 525.74 76.832C525.884 76.824 526.02 76.812 526.148 76.796V77.756C526.02 77.74 525.88 77.732 525.728 77.732C525.576 77.732 525.432 77.732 525.296 77.732H519.776C519.68 77.732 519.548 77.732 519.38 77.732C519.22 77.732 519.076 77.74 518.948 77.756V76.796ZM521.984 82.64V77.336H522.956V82.64H521.984ZM518.36 82.076C518.504 82.092 518.648 82.108 518.792 82.124C518.944 82.132 519.088 82.136 519.224 82.136H525.86C526.004 82.136 526.144 82.132 526.28 82.124C526.416 82.108 526.544 82.092 526.664 82.076V83.084C526.544 83.068 526.404 83.056 526.244 83.048C526.084 83.048 525.956 83.048 525.86 83.048H519.224C519.096 83.048 518.956 83.048 518.804 83.048C518.66 83.056 518.512 83.068 518.36 83.084V82.076ZM529.532 78.668C530.572 78.388 531.54 78.048 532.436 77.648C533.332 77.248 534.112 76.84 534.776 76.424C535.192 76.16 535.596 75.876 535.988 75.572C536.388 75.26 536.764 74.936 537.116 74.6C537.468 74.264 537.78 73.932 538.052 73.604L538.856 74.348C538.52 74.708 538.156 75.06 537.764 75.404C537.372 75.748 536.956 76.08 536.516 76.4C536.084 76.712 535.632 77.016 535.16 77.312C534.72 77.576 534.224 77.848 533.672 78.128C533.12 78.408 532.532 78.672 531.908 78.92C531.284 79.168 530.652 79.396 530.012 79.604L529.532 78.668ZM534.584 76.928L535.616 76.616V82.088C535.616 82.24 535.616 82.4 535.616 82.568C535.624 82.736 535.632 82.892 535.64 83.036C535.656 83.18 535.672 83.292 535.688 83.372H534.512C534.52 83.292 534.528 83.18 534.536 83.036C534.552 82.892 534.564 82.736 534.572 82.568C534.58 82.4 534.584 82.24 534.584 82.088V76.928ZM549.56 74.132C549.56 74.348 549.632 74.532 549.776 74.684C549.928 74.828 550.108 74.9 550.316 74.9C550.532 74.9 550.716 74.828 550.868 74.684C551.02 74.532 551.096 74.348 551.096 74.132C551.096 73.916 551.02 73.736 550.868 73.592C550.716 73.44 550.532 73.364 550.316 73.364C550.108 73.364 549.928 73.44 549.776 73.592C549.632 73.736 549.56 73.916 549.56 74.132ZM549.008 74.132C549.008 73.892 549.068 73.672 549.188 73.472C549.308 73.272 549.464 73.112 549.656 72.992C549.856 72.872 550.076 72.812 550.316 72.812C550.564 72.812 550.788 72.872 550.988 72.992C551.188 73.112 551.344 73.272 551.456 73.472C551.576 73.672 551.636 73.892 551.636 74.132C551.636 74.372 551.576 74.592 551.456 74.792C551.344 74.992 551.188 75.152 550.988 75.272C550.788 75.384 550.564 75.44 550.316 75.44C550.076 75.44 549.856 75.384 549.656 75.272C549.464 75.152 549.308 74.992 549.188 74.792C549.068 74.592 549.008 74.372 549.008 74.132ZM547.004 73.748C546.996 73.804 546.984 73.884 546.968 73.988C546.96 74.092 546.952 74.2 546.944 74.312C546.936 74.424 546.932 74.524 546.932 74.612C546.932 74.82 546.932 75.06 546.932 75.332C546.932 75.604 546.932 75.872 546.932 76.136C546.932 76.4 546.932 76.632 546.932 76.832C546.932 76.992 546.932 77.224 546.932 77.528C546.932 77.832 546.932 78.176 546.932 78.56C546.932 78.944 546.932 79.34 546.932 79.748C546.932 80.148 546.932 80.536 546.932 80.912C546.932 81.288 546.932 81.62 546.932 81.908C546.932 82.196 546.932 82.412 546.932 82.556C546.932 82.876 546.852 83.116 546.692 83.276C546.532 83.436 546.268 83.516 545.9 83.516C545.732 83.516 545.544 83.512 545.336 83.504C545.136 83.496 544.936 83.484 544.736 83.468C544.536 83.452 544.356 83.44 544.196 83.432L544.112 82.472C544.376 82.52 544.632 82.556 544.88 82.58C545.128 82.604 545.332 82.616 545.492 82.616C545.652 82.616 545.768 82.58 545.84 82.508C545.912 82.428 545.952 82.312 545.96 82.16C545.96 82.048 545.96 81.856 545.96 81.584C545.96 81.304 545.96 80.984 545.96 80.624C545.96 80.256 545.96 79.872 545.96 79.472C545.96 79.064 545.96 78.68 545.96 78.32C545.96 77.952 545.96 77.636 545.96 77.372C545.96 77.108 545.96 76.928 545.96 76.832C545.96 76.696 545.96 76.492 545.96 76.22C545.96 75.948 545.96 75.664 545.96 75.368C545.96 75.064 545.96 74.808 545.96 74.6C545.96 74.472 545.948 74.32 545.924 74.144C545.908 73.968 545.892 73.836 545.876 73.748H547.004ZM541.604 75.776C541.772 75.792 541.936 75.808 542.096 75.824C542.256 75.832 542.432 75.836 542.624 75.836C542.72 75.836 542.916 75.836 543.212 75.836C543.508 75.836 543.864 75.836 544.28 75.836C544.704 75.836 545.156 75.836 545.636 75.836C546.116 75.836 546.596 75.836 547.076 75.836C547.564 75.836 548.016 75.836 548.432 75.836C548.856 75.836 549.212 75.836 549.5 75.836C549.796 75.836 549.996 75.836 550.1 75.836C550.244 75.836 550.404 75.832 550.58 75.824C550.764 75.808 550.932 75.792 551.084 75.776V76.772C550.924 76.764 550.756 76.76 550.58 76.76C550.412 76.752 550.256 76.748 550.112 76.748C550.008 76.748 549.808 76.748 549.512 76.748C549.224 76.748 548.868 76.748 548.444 76.748C548.028 76.748 547.58 76.748 547.1 76.748C546.62 76.748 546.14 76.748 545.66 76.748C545.18 76.748 544.728 76.748 544.304 76.748C543.88 76.748 543.52 76.748 543.224 76.748C542.936 76.748 542.736 76.748 542.624 76.748C542.448 76.748 542.272 76.752 542.096 76.76C541.928 76.76 541.764 76.768 541.604 76.784V75.776ZM544.364 78.596C544.236 78.852 544.076 79.132 543.884 79.436C543.7 79.74 543.496 80.048 543.272 80.36C543.056 80.664 542.84 80.948 542.624 81.212C542.416 81.476 542.228 81.7 542.06 81.884L541.232 81.332C541.432 81.148 541.64 80.928 541.856 80.672C542.072 80.408 542.284 80.132 542.492 79.844C542.708 79.556 542.904 79.272 543.08 78.992C543.256 78.704 543.404 78.436 543.524 78.188L544.364 78.596ZM549.38 78.2C549.54 78.392 549.712 78.62 549.896 78.884C550.088 79.148 550.28 79.432 550.472 79.736C550.672 80.032 550.856 80.32 551.024 80.6C551.192 80.872 551.336 81.116 551.456 81.332L550.568 81.824C550.456 81.584 550.316 81.32 550.148 81.032C549.988 80.744 549.816 80.452 549.632 80.156C549.448 79.86 549.26 79.58 549.068 79.316C548.884 79.052 548.716 78.824 548.564 78.632L549.38 78.2ZM553.532 78.668C554.572 78.388 555.54 78.048 556.436 77.648C557.332 77.248 558.112 76.84 558.776 76.424C559.192 76.16 559.596 75.876 559.988 75.572C560.388 75.26 560.764 74.936 561.116 74.6C561.468 74.264 561.78 73.932 562.052 73.604L562.856 74.348C562.52 74.708 562.156 75.06 561.764 75.404C561.372 75.748 560.956 76.08 560.516 76.4C560.084 76.712 559.632 77.016 559.16 77.312C558.72 77.576 558.224 77.848 557.672 78.128C557.12 78.408 556.532 78.672 555.908 78.92C555.284 79.168 554.652 79.396 554.012 79.604L553.532 78.668ZM558.584 76.928L559.616 76.616V82.088C559.616 82.24 559.616 82.4 559.616 82.568C559.624 82.736 559.632 82.892 559.64 83.036C559.656 83.18 559.672 83.292 559.688 83.372H558.512C558.52 83.292 558.528 83.18 558.536 83.036C558.552 82.892 558.564 82.736 558.572 82.568C558.58 82.4 558.584 82.24 558.584 82.088V76.928ZM567.224 74.204C567.44 74.348 567.688 74.528 567.968 74.744C568.248 74.952 568.532 75.176 568.82 75.416C569.116 75.648 569.392 75.876 569.648 76.1C569.904 76.324 570.116 76.52 570.284 76.688L569.528 77.444C569.376 77.292 569.18 77.104 568.94 76.88C568.7 76.656 568.436 76.424 568.148 76.184C567.86 75.936 567.576 75.704 567.296 75.488C567.016 75.264 566.764 75.08 566.54 74.936L567.224 74.204ZM566.192 82.244C566.896 82.14 567.536 81.996 568.112 81.812C568.696 81.628 569.228 81.42 569.708 81.188C570.188 80.956 570.616 80.724 570.992 80.492C571.608 80.108 572.176 79.668 572.696 79.172C573.216 78.668 573.672 78.148 574.064 77.612C574.456 77.076 574.768 76.564 575 76.076L575.576 77.096C575.304 77.592 574.968 78.096 574.568 78.608C574.168 79.12 573.716 79.612 573.212 80.084C572.708 80.556 572.152 80.984 571.544 81.368C571.144 81.616 570.704 81.86 570.224 82.1C569.752 82.34 569.232 82.56 568.664 82.76C568.104 82.952 567.492 83.108 566.828 83.228L566.192 82.244ZM580.544 81.944C580.544 81.832 580.544 81.608 580.544 81.272C580.544 80.928 580.544 80.524 580.544 80.06C580.544 79.588 580.544 79.096 580.544 78.584C580.544 78.064 580.544 77.56 580.544 77.072C580.544 76.584 580.544 76.152 580.544 75.776C580.544 75.4 580.544 75.128 580.544 74.96C580.544 74.792 580.536 74.588 580.52 74.348C580.504 74.108 580.48 73.896 580.448 73.712H581.624C581.608 73.888 581.588 74.096 581.564 74.336C581.548 74.576 581.54 74.784 581.54 74.96C581.54 75.272 581.54 75.648 581.54 76.088C581.54 76.52 581.54 76.984 581.54 77.48C581.54 77.968 581.54 78.456 581.54 78.944C581.548 79.424 581.552 79.876 581.552 80.3C581.552 80.716 581.552 81.072 581.552 81.368C581.552 81.656 581.552 81.848 581.552 81.944C581.552 82.072 581.552 82.22 581.552 82.388C581.56 82.556 581.572 82.728 581.588 82.904C581.604 83.072 581.616 83.224 581.624 83.36H580.46C580.492 83.168 580.512 82.94 580.52 82.676C580.536 82.412 580.544 82.168 580.544 81.944ZM581.336 76.856C581.728 76.976 582.16 77.12 582.632 77.288C583.112 77.448 583.6 77.62 584.096 77.804C584.592 77.988 585.06 78.176 585.5 78.368C585.948 78.552 586.336 78.728 586.664 78.896L586.256 79.916C585.912 79.724 585.524 79.536 585.092 79.352C584.66 79.16 584.216 78.972 583.76 78.788C583.312 78.604 582.876 78.44 582.452 78.296C582.036 78.144 581.664 78.02 581.336 77.924V76.856Z" fill="#171717"/>
<path d="M599.271 78.5552L599.301 79.8141L600.642 80.6366L600.611 79.3777L599.271 78.5552ZM602.542 83.798L602.512 82.564L601.336 81.8411C601.322 81.8309 601.301 81.8161 601.287 81.8062L601.317 83.0449L602.542 83.798ZM598.356 85.4632L595.291 83.5799L595.215 80.4231L596.721 79.7792L596.691 78.5156L594.29 79.5415C594.106 79.6206 593.996 79.7892 594 79.9826L594.09 83.7733C594.096 83.9666 594.216 84.16 594.406 84.2788L598.081 86.5387C598.251 86.6427 598.462 86.6728 598.631 86.6178C598.649 86.6145 598.666 86.6079 598.681 86.5984L600.937 85.6371L599.712 84.8838L598.356 85.4632Z" fill="#B31AAB"/>
<path d="M608.263 78.4807C608.258 78.2525 608.118 78.0295 607.898 77.8912L603.432 75.1506L603.292 75.2098L603.323 76.5377L606.858 78.7084L606.943 82.2573L608.294 83.0844L608.368 83.0548L608.263 78.4807ZM602.917 84.7098L598.771 82.1628L598.671 77.886L600.562 77.0782L600.527 75.6066L597.591 76.8601C597.376 76.9541 597.246 77.1475 597.251 77.3757L597.366 82.391C597.371 82.6186 597.511 82.8422 597.731 82.9758L602.592 85.9641C602.792 86.0884 603.032 86.1178 603.237 86.0582C603.257 86.0534 603.277 86.0434 603.297 86.0332L606.168 84.8095L604.738 83.9326L602.917 84.7098Z" fill="#D163CE"/>
<path d="M614.579 74.9721L608.348 71.141C608.118 71.0021 607.843 70.9626 607.608 71.037C607.583 71.0418 607.563 71.0518 607.538 71.0619L601.457 73.6589C601.212 73.7629 601.062 73.9858 601.067 74.2483L601.222 80.6714C601.227 80.9339 601.387 81.1864 601.642 81.34L607.873 85.1663C608.103 85.3047 608.378 85.3442 608.608 85.2705C608.633 85.2651 608.653 85.255 608.678 85.2455L614.759 82.6485C615.005 82.5445 615.154 82.3163 615.15 82.0585L614.999 75.636C614.994 75.3828 614.834 75.1257 614.579 74.9721ZM608.248 83.7389L602.832 80.4136L602.697 74.8284L607.978 72.5732L613.394 75.8985L613.529 81.4839L608.248 83.7389Z" fill="#E13EAF"/>
<rect x="0.5" y="87.5" width="382" height="192" rx="18.5" fill="white" stroke="#D4D4D4"/>
<path d="M182.124 102.372C182.052 102.532 181.984 102.708 181.92 102.9C181.856 103.092 181.796 103.264 181.74 103.416C181.588 103.848 181.404 104.324 181.188 104.844C180.972 105.356 180.728 105.864 180.456 106.368C180.184 106.872 179.88 107.344 179.544 107.784C179.184 108.24 178.76 108.684 178.272 109.116C177.784 109.548 177.264 109.944 176.712 110.304C176.16 110.664 175.596 110.964 175.02 111.204L174.18 110.328C174.78 110.12 175.356 109.856 175.908 109.536C176.46 109.208 176.976 108.84 177.456 108.432C177.936 108.024 178.356 107.596 178.716 107.148C179.092 106.684 179.428 106.168 179.724 105.6C180.02 105.032 180.276 104.444 180.492 103.836C180.708 103.228 180.872 102.636 180.984 102.06L182.124 102.372ZM185.724 105.804C185.844 105.812 185.992 105.824 186.168 105.84C186.344 105.848 186.536 105.856 186.744 105.864C186.96 105.864 187.176 105.864 187.392 105.864C187.52 105.864 187.716 105.864 187.98 105.864C188.252 105.864 188.568 105.864 188.928 105.864C189.288 105.864 189.668 105.864 190.068 105.864C190.476 105.864 190.88 105.864 191.28 105.864C191.688 105.864 192.072 105.864 192.432 105.864C192.8 105.864 193.116 105.864 193.38 105.864C193.644 105.864 193.84 105.864 193.968 105.864C194.272 105.864 194.532 105.856 194.748 105.84C194.964 105.824 195.136 105.812 195.264 105.804V106.98C195.144 106.972 194.964 106.96 194.724 106.944C194.492 106.928 194.244 106.92 193.98 106.92C193.852 106.92 193.652 106.92 193.38 106.92C193.108 106.92 192.792 106.92 192.432 106.92C192.08 106.92 191.7 106.92 191.292 106.92C190.884 106.92 190.476 106.92 190.068 106.92C189.668 106.92 189.288 106.92 188.928 106.92C188.576 106.92 188.264 106.92 187.992 106.92C187.72 106.92 187.52 106.92 187.392 106.92C187.064 106.92 186.752 106.928 186.456 106.944C186.16 106.952 185.916 106.964 185.724 106.98V105.804ZM204.372 102.36C204.476 102.504 204.596 102.684 204.732 102.9C204.868 103.108 205 103.324 205.128 103.548C205.264 103.772 205.376 103.98 205.464 104.172L204.78 104.484C204.684 104.276 204.576 104.068 204.456 103.86C204.344 103.644 204.224 103.436 204.096 103.236C203.976 103.028 203.848 102.836 203.712 102.66L204.372 102.36ZM205.824 101.76C205.928 101.896 206.048 102.068 206.184 102.276C206.328 102.484 206.468 102.7 206.604 102.924C206.74 103.148 206.856 103.352 206.952 103.536L206.28 103.872C206.176 103.664 206.064 103.456 205.944 103.248C205.824 103.04 205.696 102.836 205.56 102.636C205.432 102.436 205.3 102.248 205.164 102.072L205.824 101.76ZM200.16 110.1C200.16 109.988 200.16 109.764 200.16 109.428C200.16 109.092 200.16 108.692 200.16 108.228C200.16 107.756 200.16 107.26 200.16 106.74C200.16 106.22 200.16 105.716 200.16 105.228C200.16 104.74 200.16 104.308 200.16 103.932C200.16 103.556 200.16 103.284 200.16 103.116C200.16 102.948 200.152 102.744 200.136 102.504C200.128 102.264 200.104 102.052 200.064 101.868H201.252C201.228 102.052 201.208 102.264 201.192 102.504C201.176 102.736 201.168 102.94 201.168 103.116C201.168 103.428 201.168 103.804 201.168 104.244C201.168 104.676 201.168 105.14 201.168 105.636C201.168 106.124 201.168 106.612 201.168 107.1C201.168 107.58 201.168 108.032 201.168 108.456C201.168 108.872 201.168 109.228 201.168 109.524C201.168 109.812 201.168 110.004 201.168 110.1C201.168 110.22 201.168 110.368 201.168 110.544C201.176 110.72 201.188 110.892 201.204 111.06C201.22 111.236 201.232 111.388 201.24 111.516H200.088C200.112 111.324 200.128 111.096 200.136 110.832C200.152 110.568 200.16 110.324 200.16 110.1ZM200.952 105.012C201.344 105.132 201.78 105.276 202.26 105.444C202.74 105.604 203.224 105.776 203.712 105.96C204.208 106.144 204.676 106.332 205.116 106.524C205.564 106.708 205.956 106.884 206.292 107.052L205.872 108.072C205.528 107.888 205.14 107.7 204.708 107.508C204.284 107.316 203.844 107.128 203.388 106.944C202.932 106.76 202.492 106.596 202.068 106.452C201.652 106.308 201.28 106.184 200.952 106.08V105.012Z" fill="#171717"/>
<rect x="195.5" y="124.5" width="180" height="64" rx="18.5" fill="white" stroke="#D4D4D4"/>
<path d="M347.5 137.75C357.855 137.75 366.25 146.145 366.25 156.5C366.25 166.855 357.855 175.25 347.5 175.25H224.5C214.145 175.25 205.75 166.855 205.75 156.5C205.75 146.145 214.145 137.75 224.5 137.75H347.5Z" fill="#F7F7F7" stroke="#D4D4D4" stroke-width="0.5"/>
<rect x="8.5" y="124.5" width="180" height="64" rx="18.5" fill="white" stroke="#D4D4D4"/>
<path d="M160.5 137.75C170.855 137.75 179.25 146.145 179.25 156.5C179.25 166.855 170.855 175.25 160.5 175.25H37.5C27.1447 175.25 18.75 166.855 18.75 156.5C18.75 146.145 27.1447 137.75 37.5 137.75H160.5Z" fill="#F7F7F7" stroke="#D4D4D4" stroke-width="0.5"/>
<rect x="195.5" y="203.5" width="180" height="62" rx="18.5" fill="white" stroke="#D4D4D4"/>
<path d="M347.5 216.75C357.855 216.75 366.25 225.145 366.25 235.5C366.25 245.855 357.855 254.25 347.5 254.25H224.5C214.145 254.25 205.75 245.855 205.75 235.5C205.75 225.145 214.145 216.75 224.5 216.75H347.5Z" fill="#F7F7F7" stroke="#D4D4D4" stroke-width="0.5"/>
<path d="M264.366 240V239.233L268.082 234.46V234.392H264.485V233.455H269.377V234.256L265.763 238.994V239.062H269.496V240H264.366ZM270.294 232.21V231.273H276.84V232.21H274.096V240H273.039V232.21H270.294ZM281.569 237.324V233.455H282.575V240H281.569V238.892H281.501C281.347 239.224 281.109 239.507 280.785 239.74C280.461 239.97 280.052 240.085 279.558 240.085C279.148 240.085 278.785 239.996 278.467 239.817C278.148 239.635 277.898 239.362 277.717 238.999C277.535 238.632 277.444 238.17 277.444 237.614V233.455H278.45V237.545C278.45 238.023 278.583 238.403 278.85 238.688C279.12 238.972 279.464 239.114 279.881 239.114C280.131 239.114 280.386 239.05 280.644 238.922C280.906 238.794 281.124 238.598 281.3 238.334C281.479 238.07 281.569 237.733 281.569 237.324ZM285.422 236.062V240H284.417V233.455H285.388V234.477H285.473C285.627 234.145 285.86 233.878 286.172 233.676C286.485 233.472 286.888 233.369 287.382 233.369C287.826 233.369 288.213 233.46 288.546 233.642C288.878 233.821 289.137 234.094 289.321 234.46C289.506 234.824 289.598 235.284 289.598 235.841V240H288.593V235.909C288.593 235.395 288.459 234.994 288.192 234.707C287.925 234.418 287.559 234.273 287.093 234.273C286.772 234.273 286.485 234.342 286.232 234.482C285.982 234.621 285.784 234.824 285.64 235.091C285.495 235.358 285.422 235.682 285.422 236.062ZM292.442 236.062V240H291.436V233.455H292.408V234.477H292.493C292.646 234.145 292.879 233.878 293.192 233.676C293.504 233.472 293.908 233.369 294.402 233.369C294.845 233.369 295.233 233.46 295.565 233.642C295.898 233.821 296.156 234.094 296.341 234.46C296.526 234.824 296.618 235.284 296.618 235.841V240H295.612V235.909C295.612 235.395 295.479 234.994 295.212 234.707C294.945 234.418 294.578 234.273 294.112 234.273C293.791 234.273 293.504 234.342 293.251 234.482C293.001 234.621 292.804 234.824 292.659 235.091C292.514 235.358 292.442 235.682 292.442 236.062ZM301.2 240.136C300.569 240.136 300.025 239.997 299.568 239.719C299.113 239.438 298.762 239.045 298.515 238.543C298.271 238.037 298.149 237.449 298.149 236.778C298.149 236.108 298.271 235.517 298.515 235.006C298.762 234.491 299.106 234.091 299.547 233.804C299.99 233.514 300.507 233.369 301.098 233.369C301.439 233.369 301.775 233.426 302.108 233.54C302.44 233.653 302.743 233.838 303.015 234.094C303.288 234.347 303.505 234.682 303.667 235.099C303.829 235.517 303.91 236.031 303.91 236.642V237.068H298.865V236.199H302.887C302.887 235.83 302.814 235.5 302.666 235.21C302.521 234.92 302.314 234.692 302.044 234.524C301.777 234.357 301.461 234.273 301.098 234.273C300.697 234.273 300.35 234.372 300.058 234.571C299.768 234.767 299.545 235.023 299.389 235.338C299.233 235.653 299.154 235.991 299.154 236.352V236.932C299.154 237.426 299.24 237.845 299.41 238.189C299.583 238.53 299.824 238.79 300.13 238.969C300.437 239.145 300.794 239.233 301.2 239.233C301.464 239.233 301.703 239.196 301.916 239.122C302.132 239.045 302.318 238.932 302.474 238.781C302.63 238.628 302.751 238.437 302.836 238.21L303.808 238.483C303.706 238.812 303.534 239.102 303.292 239.352C303.051 239.599 302.752 239.793 302.397 239.932C302.042 240.068 301.643 240.136 301.2 240.136ZM306.446 231.273V240H305.44V231.273H306.446Z" fill="#171717"/>
<rect x="191.5" y="41.5" width="461" height="152" rx="18.5" stroke="#6A55F3" stroke-dasharray="2 2"/>
<path d="M207.038 51.388C207.014 51.524 206.994 51.692 206.978 51.892C206.97 52.092 206.966 52.276 206.966 52.444C206.966 52.548 206.966 52.68 206.966 52.84C206.966 52.992 206.966 53.14 206.966 53.284C206.966 53.428 206.966 53.544 206.966 53.632H205.994C205.994 53.544 205.994 53.428 205.994 53.284C205.994 53.14 205.994 52.992 205.994 52.84C205.994 52.688 205.994 52.556 205.994 52.444C205.994 52.276 205.99 52.092 205.982 51.892C205.974 51.692 205.958 51.524 205.934 51.388H207.038ZM210.326 53.74C210.222 53.852 210.106 53.972 209.978 54.1C209.858 54.228 209.75 54.348 209.654 54.46C209.454 54.708 209.206 54.98 208.91 55.276C208.622 55.572 208.302 55.872 207.95 56.176C207.606 56.472 207.242 56.752 206.858 57.016C206.426 57.32 205.958 57.6 205.454 57.856C204.958 58.112 204.418 58.356 203.834 58.588C203.25 58.812 202.614 59.028 201.926 59.236L201.35 58.348C202.486 58.076 203.442 57.756 204.218 57.388C205.002 57.02 205.666 56.66 206.21 56.308C206.57 56.076 206.906 55.828 207.218 55.564C207.538 55.292 207.822 55.032 208.07 54.784C208.326 54.528 208.518 54.304 208.646 54.112C208.558 54.112 208.386 54.112 208.13 54.112C207.874 54.112 207.574 54.112 207.23 54.112C206.886 54.112 206.526 54.112 206.15 54.112C205.774 54.112 205.414 54.112 205.07 54.112C204.726 54.112 204.426 54.112 204.17 54.112C203.922 54.112 203.754 54.112 203.666 54.112C203.53 54.112 203.366 54.116 203.174 54.124C202.99 54.124 202.81 54.128 202.634 54.136C202.466 54.144 202.318 54.152 202.19 54.16V53.152C202.39 53.168 202.63 53.184 202.91 53.2C203.198 53.208 203.442 53.212 203.642 53.212C203.738 53.212 203.914 53.212 204.17 53.212C204.434 53.212 204.742 53.212 205.094 53.212C205.454 53.212 205.83 53.212 206.222 53.212C206.622 53.212 207.006 53.212 207.374 53.212C207.75 53.212 208.074 53.212 208.346 53.212C208.626 53.212 208.826 53.212 208.946 53.212C209.082 53.212 209.218 53.208 209.354 53.2C209.49 53.184 209.606 53.164 209.702 53.14L210.326 53.74ZM206.942 56.512C206.942 56.752 206.942 57.032 206.942 57.352C206.942 57.664 206.938 57.996 206.93 58.348C206.93 58.692 206.93 59.024 206.93 59.344C206.93 59.664 206.93 59.944 206.93 60.184C206.93 60.32 206.934 60.468 206.942 60.628C206.95 60.788 206.958 60.944 206.966 61.096C206.974 61.248 206.982 61.384 206.99 61.504H205.898C205.914 61.392 205.926 61.26 205.934 61.108C205.95 60.956 205.958 60.8 205.958 60.64C205.966 60.472 205.97 60.32 205.97 60.184C205.97 59.952 205.97 59.692 205.97 59.404C205.97 59.108 205.97 58.808 205.97 58.504C205.978 58.192 205.982 57.9 205.982 57.628C205.982 57.348 205.982 57.116 205.982 56.932L206.942 56.512ZM210.89 59.392C210.546 59.136 210.222 58.908 209.918 58.708C209.622 58.5 209.322 58.304 209.018 58.12C208.714 57.936 208.374 57.744 207.998 57.544L208.622 56.836C208.998 57.036 209.334 57.22 209.63 57.388C209.934 57.556 210.23 57.732 210.518 57.916C210.814 58.1 211.146 58.32 211.514 58.576L210.89 59.392ZM213.626 55.804C213.746 55.812 213.894 55.824 214.07 55.84C214.246 55.848 214.438 55.856 214.646 55.864C214.862 55.864 215.078 55.864 215.294 55.864C215.422 55.864 215.618 55.864 215.882 55.864C216.154 55.864 216.47 55.864 216.83 55.864C217.19 55.864 217.57 55.864 217.97 55.864C218.378 55.864 218.782 55.864 219.182 55.864C219.59 55.864 219.974 55.864 220.334 55.864C220.702 55.864 221.018 55.864 221.282 55.864C221.546 55.864 221.742 55.864 221.87 55.864C222.174 55.864 222.434 55.856 222.65 55.84C222.866 55.824 223.038 55.812 223.166 55.804V56.98C223.046 56.972 222.866 56.96 222.626 56.944C222.394 56.928 222.146 56.92 221.882 56.92C221.754 56.92 221.554 56.92 221.282 56.92C221.01 56.92 220.694 56.92 220.334 56.92C219.982 56.92 219.602 56.92 219.194 56.92C218.786 56.92 218.378 56.92 217.97 56.92C217.57 56.92 217.19 56.92 216.83 56.92C216.478 56.92 216.166 56.92 215.894 56.92C215.622 56.92 215.422 56.92 215.294 56.92C214.966 56.92 214.654 56.928 214.358 56.944C214.062 56.952 213.818 56.964 213.626 56.98V55.804ZM230.303 52.048C230.247 52.2 230.183 52.36 230.111 52.528C230.047 52.696 229.975 52.908 229.895 53.164C229.823 53.364 229.731 53.644 229.619 54.004C229.507 54.364 229.379 54.764 229.235 55.204C229.099 55.636 228.951 56.084 228.791 56.548C228.639 57.012 228.487 57.464 228.335 57.904C228.183 58.344 228.043 58.74 227.915 59.092C227.795 59.436 227.691 59.712 227.603 59.92L226.511 59.956C226.615 59.716 226.735 59.412 226.871 59.044C227.007 58.676 227.155 58.264 227.315 57.808C227.475 57.352 227.631 56.888 227.783 56.416C227.943 55.936 228.095 55.472 228.239 55.024C228.383 54.576 228.507 54.172 228.611 53.812C228.723 53.452 228.811 53.168 228.875 52.96C228.947 52.68 228.999 52.46 229.031 52.3C229.063 52.132 229.087 51.968 229.103 51.808L230.303 52.048ZM232.583 56.068C232.799 56.38 233.031 56.748 233.279 57.172C233.535 57.596 233.787 58.044 234.035 58.516C234.291 58.98 234.523 59.424 234.731 59.848C234.947 60.272 235.119 60.64 235.247 60.952L234.239 61.408C234.119 61.08 233.959 60.696 233.759 60.256C233.559 59.808 233.339 59.348 233.099 58.876C232.867 58.404 232.627 57.956 232.379 57.532C232.131 57.108 231.899 56.756 231.683 56.476L232.583 56.068ZM226.043 59.668C226.331 59.652 226.679 59.628 227.087 59.596C227.503 59.556 227.951 59.516 228.431 59.476C228.911 59.428 229.399 59.376 229.895 59.32C230.399 59.264 230.887 59.212 231.359 59.164C231.831 59.108 232.263 59.056 232.655 59.008C233.047 58.952 233.371 58.908 233.627 58.876L233.891 59.8C233.619 59.84 233.275 59.884 232.859 59.932C232.443 59.98 231.991 60.032 231.503 60.088C231.023 60.136 230.523 60.192 230.003 60.256C229.491 60.312 228.991 60.368 228.503 60.424C228.015 60.48 227.563 60.528 227.147 60.568C226.731 60.608 226.383 60.64 226.103 60.664C225.951 60.68 225.791 60.7 225.623 60.724C225.455 60.748 225.283 60.772 225.107 60.796L224.927 59.68C225.111 59.688 225.299 59.692 225.491 59.692C225.691 59.684 225.875 59.676 226.043 59.668ZM245.639 52.972C245.599 53.02 245.547 53.1 245.483 53.212C245.427 53.316 245.379 53.412 245.339 53.5C245.187 53.892 244.987 54.328 244.739 54.808C244.491 55.28 244.215 55.748 243.911 56.212C243.607 56.676 243.287 57.096 242.951 57.472C242.511 57.968 242.027 58.452 241.499 58.924C240.971 59.388 240.415 59.824 239.831 60.232C239.247 60.632 238.639 60.976 238.007 61.264L237.239 60.46C237.887 60.204 238.507 59.888 239.099 59.512C239.699 59.128 240.259 58.712 240.779 58.264C241.307 57.808 241.775 57.352 242.183 56.896C242.455 56.584 242.723 56.236 242.987 55.852C243.259 55.46 243.499 55.064 243.707 54.664C243.923 54.256 244.079 53.888 244.175 53.56C244.111 53.56 243.959 53.56 243.719 53.56C243.479 53.56 243.195 53.56 242.867 53.56C242.539 53.56 242.195 53.56 241.835 53.56C241.475 53.56 241.131 53.56 240.803 53.56C240.475 53.56 240.191 53.56 239.951 53.56C239.719 53.56 239.567 53.56 239.495 53.56C239.359 53.56 239.203 53.564 239.027 53.572C238.859 53.58 238.703 53.588 238.559 53.596C238.423 53.604 238.331 53.612 238.283 53.62V52.528C238.339 52.536 238.439 52.548 238.583 52.564C238.735 52.572 238.895 52.58 239.063 52.588C239.231 52.596 239.375 52.6 239.495 52.6C239.583 52.6 239.743 52.6 239.975 52.6C240.207 52.6 240.483 52.6 240.803 52.6C241.131 52.6 241.471 52.6 241.823 52.6C242.175 52.6 242.511 52.6 242.831 52.6C243.159 52.6 243.439 52.6 243.671 52.6C243.903 52.6 244.055 52.6 244.127 52.6C244.327 52.6 244.503 52.592 244.655 52.576C244.815 52.56 244.939 52.536 245.027 52.504L245.639 52.972ZM243.107 56.836C243.435 57.108 243.771 57.408 244.115 57.736C244.467 58.064 244.811 58.404 245.147 58.756C245.483 59.1 245.795 59.432 246.083 59.752C246.371 60.064 246.619 60.348 246.827 60.604L245.987 61.324C245.707 60.94 245.371 60.528 244.979 60.088C244.587 59.64 244.171 59.196 243.731 58.756C243.299 58.308 242.863 57.896 242.423 57.52L243.107 56.836ZM255.643 53.8C255.643 54.04 255.727 54.248 255.895 54.424C256.071 54.592 256.283 54.676 256.531 54.676C256.771 54.676 256.975 54.592 257.143 54.424C257.319 54.248 257.407 54.04 257.407 53.8C257.407 53.552 257.319 53.344 257.143 53.176C256.975 53.008 256.771 52.924 256.531 52.924C256.283 52.924 256.071 53.008 255.895 53.176C255.727 53.344 255.643 53.552 255.643 53.8ZM255.067 53.8C255.067 53.528 255.131 53.284 255.259 53.068C255.395 52.844 255.571 52.668 255.787 52.54C256.011 52.404 256.259 52.336 256.531 52.336C256.795 52.336 257.035 52.404 257.251 52.54C257.475 52.668 257.651 52.844 257.779 53.068C257.915 53.284 257.983 53.528 257.983 53.8C257.983 54.064 257.915 54.308 257.779 54.532C257.651 54.748 257.475 54.924 257.251 55.06C257.035 55.188 256.795 55.252 256.531 55.252C256.259 55.252 256.011 55.188 255.787 55.06C255.571 54.924 255.395 54.748 255.259 54.532C255.131 54.308 255.067 54.064 255.067 53.8ZM247.831 57.844C247.991 57.708 248.131 57.58 248.251 57.46C248.379 57.34 248.523 57.2 248.683 57.04C248.827 56.896 248.991 56.712 249.175 56.488C249.367 56.264 249.571 56.024 249.787 55.768C250.011 55.504 250.231 55.24 250.447 54.976C250.663 54.704 250.863 54.46 251.047 54.244C251.367 53.868 251.683 53.66 251.995 53.62C252.307 53.572 252.667 53.74 253.075 54.124C253.323 54.348 253.591 54.612 253.879 54.916C254.175 55.212 254.467 55.512 254.755 55.816C255.043 56.12 255.303 56.396 255.535 56.644C255.807 56.924 256.111 57.248 256.447 57.616C256.783 57.976 257.127 58.348 257.479 58.732C257.831 59.108 258.159 59.46 258.463 59.788L257.635 60.664C257.355 60.32 257.055 59.964 256.735 59.596C256.423 59.22 256.111 58.856 255.799 58.504C255.495 58.144 255.215 57.82 254.959 57.532C254.783 57.332 254.587 57.116 254.371 56.884C254.155 56.652 253.939 56.42 253.723 56.188C253.507 55.956 253.303 55.74 253.111 55.54C252.927 55.34 252.771 55.18 252.643 55.06C252.411 54.836 252.219 54.732 252.067 54.748C251.923 54.764 251.747 54.896 251.539 55.144C251.395 55.32 251.231 55.528 251.047 55.768C250.863 56 250.671 56.244 250.471 56.5C250.271 56.756 250.079 57 249.895 57.232C249.711 57.464 249.551 57.664 249.415 57.832C249.295 57.984 249.171 58.144 249.043 58.312C248.923 58.48 248.819 58.628 248.731 58.756L247.831 57.844ZM260.419 55.804C260.539 55.812 260.687 55.824 260.863 55.84C261.039 55.848 261.231 55.856 261.439 55.864C261.655 55.864 261.871 55.864 262.087 55.864C262.215 55.864 262.411 55.864 262.675 55.864C262.947 55.864 263.263 55.864 263.623 55.864C263.983 55.864 264.363 55.864 264.763 55.864C265.171 55.864 265.575 55.864 265.975 55.864C266.383 55.864 266.767 55.864 267.127 55.864C267.495 55.864 267.811 55.864 268.075 55.864C268.339 55.864 268.535 55.864 268.663 55.864C268.967 55.864 269.227 55.856 269.443 55.84C269.659 55.824 269.831 55.812 269.959 55.804V56.98C269.839 56.972 269.659 56.96 269.419 56.944C269.187 56.928 268.939 56.92 268.675 56.92C268.547 56.92 268.347 56.92 268.075 56.92C267.803 56.92 267.487 56.92 267.127 56.92C266.775 56.92 266.395 56.92 265.987 56.92C265.579 56.92 265.171 56.92 264.763 56.92C264.363 56.92 263.983 56.92 263.623 56.92C263.271 56.92 262.959 56.92 262.687 56.92C262.415 56.92 262.215 56.92 262.087 56.92C261.759 56.92 261.447 56.928 261.151 56.944C260.855 56.952 260.611 56.964 260.419 56.98V55.804ZM280.198 52.972C280.158 53.02 280.106 53.1 280.042 53.212C279.986 53.316 279.938 53.412 279.898 53.5C279.746 53.892 279.546 54.328 279.298 54.808C279.05 55.28 278.774 55.748 278.47 56.212C278.166 56.676 277.846 57.096 277.51 57.472C277.07 57.968 276.586 58.452 276.058 58.924C275.53 59.388 274.974 59.824 274.39 60.232C273.806 60.632 273.198 60.976 272.566 61.264L271.798 60.46C272.446 60.204 273.066 59.888 273.658 59.512C274.258 59.128 274.818 58.712 275.338 58.264C275.866 57.808 276.334 57.352 276.742 56.896C277.014 56.584 277.282 56.236 277.546 55.852C277.818 55.46 278.058 55.064 278.266 54.664C278.482 54.256 278.638 53.888 278.734 53.56C278.67 53.56 278.518 53.56 278.278 53.56C278.038 53.56 277.754 53.56 277.426 53.56C277.098 53.56 276.754 53.56 276.394 53.56C276.034 53.56 275.69 53.56 275.362 53.56C275.034 53.56 274.75 53.56 274.51 53.56C274.278 53.56 274.126 53.56 274.054 53.56C273.918 53.56 273.762 53.564 273.586 53.572C273.418 53.58 273.262 53.588 273.118 53.596C272.982 53.604 272.89 53.612 272.842 53.62V52.528C272.898 52.536 272.998 52.548 273.142 52.564C273.294 52.572 273.454 52.58 273.622 52.588C273.79 52.596 273.934 52.6 274.054 52.6C274.142 52.6 274.302 52.6 274.534 52.6C274.766 52.6 275.042 52.6 275.362 52.6C275.69 52.6 276.03 52.6 276.382 52.6C276.734 52.6 277.07 52.6 277.39 52.6C277.718 52.6 277.998 52.6 278.23 52.6C278.462 52.6 278.614 52.6 278.686 52.6C278.886 52.6 279.062 52.592 279.214 52.576C279.374 52.56 279.498 52.536 279.586 52.504L280.198 52.972ZM277.666 56.836C277.994 57.108 278.33 57.408 278.674 57.736C279.026 58.064 279.37 58.404 279.706 58.756C280.042 59.1 280.354 59.432 280.642 59.752C280.93 60.064 281.178 60.348 281.386 60.604L280.546 61.324C280.266 60.94 279.93 60.528 279.538 60.088C279.146 59.64 278.73 59.196 278.29 58.756C277.858 58.308 277.422 57.896 276.982 57.52L277.666 56.836Z" fill="#6A55F3"/>
<path d="M409.728 204.096H416.4V204.9H409.728V204.096ZM409.428 206.964H416.616V207.768H409.428V206.964ZM410.856 210.708H415.236V211.428H410.856V210.708ZM410.88 212.664H415.284V213.432H410.88V212.664ZM412.56 203.004H413.448V204.504H412.56V203.004ZM410.76 205.14L411.54 204.984C411.676 205.256 411.804 205.56 411.924 205.896C412.044 206.224 412.124 206.508 412.164 206.748L411.348 206.928C411.308 206.688 411.232 206.4 411.12 206.064C411.008 205.728 410.888 205.42 410.76 205.14ZM414.516 204.96L415.404 205.152C415.284 205.464 415.156 205.784 415.02 206.112C414.892 206.44 414.768 206.716 414.648 206.94L413.904 206.772C413.976 206.604 414.048 206.416 414.12 206.208C414.2 205.992 414.276 205.776 414.348 205.56C414.42 205.336 414.476 205.136 414.516 204.96ZM410.376 208.764H415.8V213.924H414.936V209.52H411.216V213.948H410.376V208.764ZM406.332 203.688H409.2V211.584H406.332V210.768H408.372V204.516H406.332V203.688ZM406.38 207.192H408.84V208.008H406.38V207.192ZM405.912 203.688H406.74V212.568H405.912V203.688ZM420.132 204.216V206.148H425.964V204.216H420.132ZM419.244 203.412H426.9V206.94H419.244V203.412ZM417.588 207.876H428.4V208.704H417.588V207.876ZM420.144 209.772H426.264V210.6H420.144V209.772ZM425.94 209.772H426.912C426.912 209.772 426.908 209.796 426.9 209.844C426.892 209.892 426.884 209.952 426.876 210.024C426.876 210.088 426.872 210.14 426.864 210.18C426.76 210.884 426.656 211.468 426.552 211.932C426.448 212.388 426.336 212.752 426.216 213.024C426.096 213.296 425.96 213.496 425.808 213.624C425.664 213.752 425.512 213.836 425.352 213.876C425.192 213.924 424.996 213.952 424.764 213.96C424.564 213.976 424.276 213.976 423.9 213.96C423.532 213.952 423.136 213.94 422.712 213.924C422.704 213.788 422.672 213.64 422.616 213.48C422.56 213.32 422.488 213.18 422.4 213.06C422.688 213.084 422.968 213.104 423.24 213.12C423.512 213.136 423.756 213.144 423.972 213.144C424.196 213.152 424.36 213.156 424.464 213.156C424.608 213.156 424.724 213.148 424.812 213.132C424.9 213.124 424.976 213.092 425.04 213.036C425.168 212.94 425.28 212.772 425.376 212.532C425.48 212.292 425.58 211.956 425.676 211.524C425.772 211.092 425.86 210.552 425.94 209.904V209.772ZM420.372 208.104L421.332 208.248C421.22 208.592 421.1 208.96 420.972 209.352C420.844 209.736 420.712 210.108 420.576 210.468C420.448 210.828 420.324 211.148 420.204 211.428L419.256 211.26C419.376 210.98 419.504 210.66 419.64 210.3C419.776 209.94 419.908 209.568 420.036 209.184C420.164 208.792 420.276 208.432 420.372 208.104ZM434.832 203.208H435.744V212.124C435.744 212.348 435.764 212.52 435.804 212.64C435.844 212.752 435.92 212.832 436.032 212.88C436.152 212.92 436.324 212.94 436.548 212.94C436.628 212.94 436.772 212.94 436.98 212.94C437.196 212.94 437.432 212.94 437.688 212.94C437.952 212.94 438.196 212.94 438.42 212.94C438.644 212.94 438.804 212.94 438.9 212.94C439.124 212.94 439.288 212.88 439.392 212.76C439.504 212.632 439.584 212.408 439.632 212.088C439.688 211.768 439.728 211.32 439.752 210.744C439.864 210.824 440 210.904 440.16 210.984C440.328 211.056 440.476 211.104 440.604 211.128C440.564 211.784 440.492 212.308 440.388 212.7C440.292 213.084 440.132 213.36 439.908 213.528C439.692 213.696 439.372 213.78 438.948 213.78C438.884 213.78 438.768 213.78 438.6 213.78C438.44 213.78 438.248 213.78 438.024 213.78C437.808 213.78 437.592 213.78 437.376 213.78C437.16 213.78 436.968 213.78 436.8 213.78C436.64 213.78 436.532 213.78 436.476 213.78C436.06 213.78 435.732 213.732 435.492 213.636C435.252 213.54 435.08 213.368 434.976 213.12C434.88 212.88 434.832 212.54 434.832 212.1V203.208ZM439.344 205.2L439.992 205.968C439.592 206.304 439.14 206.636 438.636 206.964C438.132 207.284 437.604 207.596 437.052 207.9C436.508 208.204 435.972 208.492 435.444 208.764C435.412 208.66 435.356 208.544 435.276 208.416C435.204 208.28 435.136 208.16 435.072 208.056C435.584 207.784 436.104 207.488 436.632 207.168C437.16 206.848 437.66 206.52 438.132 206.184C438.604 205.84 439.008 205.512 439.344 205.2ZM432.756 203.1L433.632 203.4C433.328 204.096 432.972 204.78 432.564 205.452C432.156 206.124 431.716 206.756 431.244 207.348C430.78 207.932 430.296 208.448 429.792 208.896C429.768 208.816 429.72 208.72 429.648 208.608C429.584 208.496 429.516 208.384 429.444 208.272C429.372 208.152 429.308 208.056 429.252 207.984C429.716 207.6 430.164 207.152 430.596 206.64C431.036 206.12 431.44 205.56 431.808 204.96C432.176 204.352 432.492 203.732 432.756 203.1ZM431.376 206.244L432.264 205.356L432.276 205.38V213.936H431.376V206.244ZM391.161 226.944C391.161 226.832 391.161 226.608 391.161 226.272C391.161 225.928 391.161 225.524 391.161 225.06C391.161 224.588 391.161 224.096 391.161 223.584C391.161 223.064 391.161 222.56 391.161 222.072C391.161 221.584 391.161 221.152 391.161 220.776C391.161 220.4 391.161 220.128 391.161 219.96C391.161 219.792 391.153 219.588 391.137 219.348C391.121 219.108 391.097 218.896 391.065 218.712H392.241C392.225 218.888 392.205 219.096 392.181 219.336C392.165 219.576 392.157 219.784 392.157 219.96C392.157 220.272 392.157 220.648 392.157 221.088C392.157 221.52 392.157 221.984 392.157 222.48C392.157 222.968 392.157 223.456 392.157 223.944C392.165 224.424 392.169 224.876 392.169 225.3C392.169 225.716 392.169 226.072 392.169 226.368C392.169 226.656 392.169 226.848 392.169 226.944C392.169 227.072 392.169 227.22 392.169 227.388C392.177 227.556 392.189 227.728 392.205 227.904C392.221 228.072 392.233 228.224 392.241 228.36H391.077C391.109 228.168 391.129 227.94 391.137 227.676C391.153 227.412 391.161 227.168 391.161 226.944ZM391.953 221.856C392.345 221.976 392.777 222.12 393.249 222.288C393.729 222.448 394.217 222.62 394.713 222.804C395.209 222.988 395.677 223.176 396.117 223.368C396.565 223.552 396.953 223.728 397.281 223.896L396.873 224.916C396.529 224.724 396.141 224.536 395.709 224.352C395.277 224.16 394.833 223.972 394.377 223.788C393.929 223.604 393.493 223.44 393.069 223.296C392.653 223.144 392.281 223.02 391.953 222.924V221.856ZM401.889 219.06C402.049 219.084 402.221 219.1 402.405 219.108C402.589 219.116 402.777 219.12 402.969 219.12C403.089 219.12 403.305 219.12 403.617 219.12C403.937 219.12 404.297 219.12 404.697 219.12C405.105 219.12 405.509 219.12 405.909 219.12C406.317 219.12 406.681 219.12 407.001 219.12C407.321 219.12 407.549 219.12 407.685 219.12C407.877 219.12 408.069 219.116 408.261 219.108C408.453 219.1 408.625 219.084 408.777 219.06V220.056C408.633 220.04 408.461 220.032 408.261 220.032C408.069 220.024 407.873 220.02 407.673 220.02C407.537 220.02 407.309 220.02 406.989 220.02C406.677 220.02 406.321 220.02 405.921 220.02C405.521 220.02 405.117 220.02 404.709 220.02C404.309 220.02 403.949 220.02 403.629 220.02C403.317 220.02 403.097 220.02 402.969 220.02C402.785 220.02 402.601 220.024 402.417 220.032C402.233 220.04 402.057 220.048 401.889 220.056V219.06ZM409.653 222.228C409.629 222.276 409.597 222.336 409.557 222.408C409.525 222.472 409.505 222.528 409.497 222.576C409.337 223.168 409.117 223.764 408.837 224.364C408.557 224.956 408.193 225.496 407.745 225.984C407.113 226.672 406.429 227.208 405.693 227.592C404.965 227.976 404.217 228.276 403.449 228.492L402.705 227.64C403.553 227.464 404.341 227.188 405.069 226.812C405.797 226.436 406.417 225.98 406.929 225.444C407.297 225.06 407.597 224.632 407.829 224.16C408.069 223.68 408.245 223.224 408.357 222.792C408.269 222.792 408.101 222.792 407.853 222.792C407.613 222.792 407.317 222.792 406.965 222.792C406.613 222.792 406.233 222.792 405.825 222.792C405.425 222.792 405.017 222.792 404.601 222.792C404.193 222.792 403.809 222.792 403.449 222.792C403.097 222.792 402.789 222.792 402.525 222.792C402.269 222.792 402.089 222.792 401.985 222.792C401.841 222.792 401.665 222.796 401.457 222.804C401.249 222.804 401.033 222.812 400.809 222.828V221.82C401.033 221.844 401.245 221.864 401.445 221.88C401.645 221.888 401.825 221.892 401.985 221.892C402.073 221.892 402.241 221.892 402.489 221.892C402.737 221.892 403.037 221.892 403.389 221.892C403.741 221.892 404.121 221.892 404.529 221.892C404.937 221.892 405.345 221.892 405.753 221.892C406.161 221.892 406.541 221.892 406.893 221.892C407.245 221.892 407.545 221.892 407.793 221.892C408.049 221.892 408.221 221.892 408.309 221.892C408.445 221.892 408.573 221.884 408.693 221.868C408.813 221.852 408.905 221.828 408.969 221.796L409.653 222.228ZM421.449 220.02C421.409 220.108 421.373 220.2 421.341 220.296C421.317 220.392 421.293 220.5 421.269 220.62C421.205 220.94 421.121 221.292 421.017 221.676C420.913 222.052 420.785 222.444 420.633 222.852C420.489 223.252 420.317 223.644 420.117 224.028C419.925 224.404 419.713 224.744 419.481 225.048C419.113 225.512 418.705 225.948 418.257 226.356C417.809 226.756 417.297 227.116 416.721 227.436C416.145 227.756 415.489 228.032 414.753 228.264L413.937 227.364C414.721 227.164 415.397 226.924 415.965 226.644C416.541 226.356 417.045 226.028 417.477 225.66C417.909 225.292 418.289 224.896 418.617 224.472C418.905 224.112 419.153 223.7 419.361 223.236C419.577 222.772 419.753 222.308 419.889 221.844C420.033 221.372 420.133 220.944 420.189 220.56C420.077 220.56 419.865 220.56 419.553 220.56C419.241 220.56 418.873 220.56 418.449 220.56C418.025 220.56 417.581 220.56 417.117 220.56C416.661 220.56 416.221 220.56 415.797 220.56C415.373 220.56 415.005 220.56 414.693 220.56C414.381 220.56 414.169 220.56 414.057 220.56C413.817 220.56 413.597 220.564 413.397 220.572C413.197 220.58 413.017 220.588 412.857 220.596V219.54C412.969 219.548 413.093 219.56 413.229 219.576C413.365 219.592 413.505 219.604 413.649 219.612C413.793 219.612 413.929 219.612 414.057 219.612C414.153 219.612 414.325 219.612 414.573 219.612C414.821 219.612 415.113 219.612 415.449 219.612C415.793 219.612 416.157 219.612 416.541 219.612C416.933 219.612 417.317 219.612 417.693 219.612C418.077 219.612 418.433 219.612 418.761 219.612C419.097 219.612 419.381 219.612 419.613 219.612C419.845 219.612 420.001 219.612 420.081 219.612C420.169 219.612 420.269 219.612 420.381 219.612C420.493 219.604 420.605 219.584 420.717 219.552L421.449 220.02ZM424.347 224.904C424.875 224.776 425.407 224.608 425.943 224.4C426.487 224.192 426.995 223.972 427.467 223.74C427.947 223.508 428.347 223.292 428.667 223.092C429.051 222.86 429.419 222.604 429.771 222.324C430.131 222.036 430.463 221.748 430.767 221.46C431.071 221.172 431.323 220.9 431.523 220.644L432.267 221.364C432.043 221.612 431.759 221.888 431.415 222.192C431.079 222.488 430.711 222.784 430.311 223.08C429.911 223.376 429.499 223.652 429.075 223.908C428.827 224.06 428.539 224.22 428.211 224.388C427.883 224.556 427.535 224.724 427.167 224.892C426.799 225.06 426.411 225.224 426.003 225.384C425.603 225.536 425.203 225.672 424.803 225.792L424.347 224.904ZM428.559 223.632L429.555 223.392V227.88C429.555 228 429.555 228.128 429.555 228.264C429.563 228.408 429.571 228.54 429.579 228.66C429.587 228.78 429.599 228.872 429.615 228.936H428.511C428.519 228.872 428.527 228.78 428.535 228.66C428.543 228.54 428.547 228.408 428.547 228.264C428.555 228.128 428.559 228 428.559 227.88V223.632ZM440.679 221.088C440.735 221.208 440.807 221.388 440.895 221.628C440.983 221.86 441.075 222.108 441.171 222.372C441.275 222.636 441.367 222.888 441.447 223.128C441.527 223.36 441.587 223.544 441.627 223.68L440.739 223.992C440.707 223.856 440.651 223.672 440.571 223.44C440.499 223.208 440.415 222.96 440.319 222.696C440.223 222.424 440.127 222.172 440.031 221.94C439.935 221.708 439.859 221.524 439.803 221.388L440.679 221.088ZM445.023 221.76C444.983 221.88 444.947 221.992 444.915 222.096C444.891 222.192 444.867 222.28 444.843 222.36C444.683 223.016 444.467 223.66 444.195 224.292C443.923 224.916 443.571 225.5 443.139 226.044C442.587 226.748 441.963 227.336 441.267 227.808C440.579 228.28 439.899 228.644 439.227 228.9L438.435 228.096C438.899 227.952 439.367 227.76 439.839 227.52C440.319 227.28 440.771 226.992 441.195 226.656C441.627 226.32 442.007 225.948 442.335 225.54C442.623 225.188 442.879 224.792 443.103 224.352C443.335 223.912 443.527 223.444 443.679 222.948C443.831 222.452 443.935 221.948 443.991 221.436L445.023 221.76ZM437.895 221.688C437.959 221.824 438.039 222.008 438.135 222.24C438.231 222.472 438.331 222.728 438.435 223.008C438.547 223.28 438.651 223.544 438.747 223.8C438.851 224.048 438.931 224.248 438.987 224.4L438.075 224.736C438.027 224.584 437.955 224.38 437.859 224.124C437.771 223.86 437.671 223.588 437.559 223.308C437.447 223.028 437.339 222.772 437.235 222.54C437.139 222.308 437.063 222.14 437.007 222.036L437.895 221.688ZM457.347 220.5C457.291 220.58 457.239 220.684 457.191 220.812C457.143 220.932 457.103 221.04 457.071 221.136C456.967 221.536 456.815 221.976 456.615 222.456C456.415 222.928 456.175 223.408 455.895 223.896C455.615 224.376 455.295 224.832 454.935 225.264C454.391 225.928 453.739 226.536 452.979 227.088C452.227 227.632 451.287 228.112 450.159 228.528L449.295 227.748C450.031 227.532 450.691 227.272 451.275 226.968C451.859 226.656 452.383 226.312 452.847 225.936C453.311 225.56 453.723 225.16 454.083 224.736C454.395 224.368 454.679 223.964 454.935 223.524C455.199 223.084 455.423 222.644 455.607 222.204C455.791 221.756 455.923 221.352 456.003 220.992H451.551L451.935 220.128C452.031 220.128 452.211 220.128 452.475 220.128C452.739 220.128 453.039 220.128 453.375 220.128C453.719 220.128 454.059 220.128 454.395 220.128C454.731 220.128 455.023 220.128 455.271 220.128C455.527 220.128 455.691 220.128 455.763 220.128C455.923 220.128 456.071 220.12 456.207 220.104C456.343 220.08 456.455 220.048 456.543 220.008L457.347 220.5ZM453.327 218.676C453.223 218.836 453.123 219.008 453.027 219.192C452.931 219.368 452.855 219.512 452.799 219.624C452.559 220.064 452.259 220.54 451.899 221.052C451.539 221.556 451.111 222.056 450.615 222.552C450.119 223.048 449.547 223.512 448.899 223.944L448.071 223.32C448.591 223.016 449.055 222.684 449.463 222.324C449.871 221.964 450.227 221.6 450.531 221.232C450.843 220.864 451.107 220.512 451.323 220.176C451.539 219.84 451.711 219.536 451.839 219.264C451.903 219.16 451.971 219.016 452.043 218.832C452.123 218.64 452.179 218.468 452.211 218.316L453.327 218.676Z" fill="#171717"/>
<path d="M478.5 235L468.5 229.226V240.774L478.5 235ZM366 235L376 240.774V229.226L366 235ZM469.5 235V234H375V235V236H469.5V235Z" fill="#A3A3A3"/>
<path d="M638.998 235.49L648.867 241.486L649.125 229.942L638.998 235.49ZM638.998 80.5002L649.31 85.6976L648.655 74.1692L638.998 80.5002ZM648.001 235.692L648.356 236.626C652.456 235.069 656.066 231.457 659.187 226.507C662.317 221.542 665.02 215.127 667.263 207.79C671.749 193.112 674.436 174.599 674.952 156.245C675.468 137.897 673.816 119.631 669.576 105.462C665.363 91.3855 658.458 80.9332 648.165 79.0073L647.981 79.9903L647.797 80.9732C656.878 82.6723 663.473 92.0477 667.66 106.035C671.818 119.93 673.465 137.966 672.953 156.189C672.44 174.407 669.772 192.736 665.35 207.205C663.138 214.441 660.499 220.676 657.495 225.441C654.482 230.22 651.166 233.419 647.646 234.757L648.001 235.692Z" fill="#A3A3A3"/>
<path d="M98.999 175L93.7507 185.285L105.282 184.688L98.999 175ZM286.5 210.5L287.498 210.447C287.257 205.851 284.222 202.311 279.461 199.595C274.704 196.883 268.052 194.885 260.158 193.394C244.355 190.41 223.239 189.4 201.492 188.993C179.687 188.586 157.31 188.785 138.758 188.234C129.497 187.96 121.24 187.499 114.549 186.686C107.816 185.868 102.811 184.708 99.9518 183.114L99.4647 183.987L98.9776 184.86C102.212 186.664 107.568 187.853 114.308 188.671C121.09 189.495 129.418 189.958 138.699 190.234C157.23 190.784 179.764 190.587 201.454 190.993C223.202 191.399 244.167 192.41 259.787 195.36C267.604 196.836 274 198.784 278.47 201.333C282.936 203.879 285.31 206.917 285.501 210.553L286.5 210.5Z" fill="#A3A3A3"/>
<path d="M559 216.5L564.774 206.5H553.226L559 216.5ZM559 176L553.226 186H564.774L559 176ZM559 207.5H560V185H559H558V207.5H559Z" fill="#A3A3A3"/>
<path d="M286 215.5L291.774 205.5H280.226L286 215.5ZM286 175L280.226 185H291.774L286 175ZM286 206.5H287V184H286H285V206.5H286Z" fill="#A3A3A3"/>
</svg>
