<svg width="613" height="243" viewBox="0 0 613 243" fill="none" xmlns="http://www.w3.org/2000/svg">
<path d="M224.5 0.25C235.131 0.250008 243.75 8.86852 243.75 19.5V223.5C243.75 234.131 235.131 242.75 224.5 242.75H19.5C8.86852 242.75 0.25 234.131 0.25 223.5V19.5C0.25 8.86852 8.86852 0.25 19.5 0.25H224.5Z" fill="#F7F7F7" stroke="#D4D4D4" stroke-width="0.5"/>
<path d="M212.5 14.25C219.818 14.25 225.75 20.1822 225.75 27.5C225.75 34.8178 219.818 40.75 212.5 40.75H28.5C21.1822 40.75 15.25 34.8178 15.25 27.5C15.25 20.1822 21.1822 14.25 28.5 14.25H212.5Z" fill="white" stroke="#E5E5E5" stroke-width="0.5"/>
<path d="M62.9657 22.488C63.4377 22.488 63.8457 22.64 64.1897 22.944C64.5417 23.248 64.8137 23.684 65.0057 24.252C65.1977 24.82 65.2937 25.488 65.2937 26.256C65.2937 27.032 65.1977 27.704 65.0057 28.272C64.8137 28.84 64.5417 29.28 64.1897 29.592C63.8457 29.896 63.4377 30.048 62.9657 30.048C62.5097 30.048 62.1057 29.896 61.7537 29.592C61.4097 29.28 61.1417 28.84 60.9497 28.272C60.7577 27.704 60.6617 27.032 60.6617 26.256C60.6617 25.488 60.7577 24.82 60.9497 24.252C61.1417 23.684 61.4097 23.248 61.7537 22.944C62.1057 22.64 62.5097 22.488 62.9657 22.488ZM62.9657 23.412C62.6857 23.412 62.4417 23.528 62.2337 23.76C62.0257 23.992 61.8657 24.32 61.7537 24.744C61.6417 25.168 61.5857 25.672 61.5857 26.256C61.5857 26.84 61.6417 27.348 61.7537 27.78C61.8657 28.204 62.0257 28.532 62.2337 28.764C62.4417 28.996 62.6857 29.112 62.9657 29.112C63.2537 29.112 63.5017 28.996 63.7097 28.764C63.9177 28.532 64.0777 28.204 64.1897 27.78C64.3097 27.348 64.3697 26.84 64.3697 26.256C64.3697 25.672 64.3097 25.168 64.1897 24.744C64.0777 24.32 63.9177 23.992 63.7097 23.76C63.5017 23.528 63.2537 23.412 62.9657 23.412ZM68.7977 21.576H69.7577V32.436H68.7977V21.576ZM67.0697 25.872H69.1577V26.7H67.0697V25.872ZM66.3857 21.804H67.3337V31.884H66.3857V21.804ZM72.4808 21.912H80.4368V22.68H72.4808V21.912ZM72.5168 24.744H80.4008V25.512H72.5168V24.744ZM74.1128 22.2H75.1088V25.26H74.1128V22.2ZM77.8088 22.2H78.8048V25.26H77.8088V22.2ZM71.5688 26.412H81.3728V27.216H71.5688V26.412ZM72.7568 28.164H80.1128V30.552H73.7528V31.86H72.7808V29.832H79.1408V28.908H72.7568V28.164ZM72.7808 31.548H80.4368V32.316H72.7808V31.548ZM90.5158 21.576H91.4998V32.448H90.5158V21.576ZM83.2318 28.992H84.1318C84.7478 28.992 85.3398 28.984 85.9078 28.968C86.4838 28.944 87.0638 28.904 87.6478 28.848C88.2398 28.792 88.8558 28.712 89.4958 28.608L89.5918 29.424C88.6158 29.584 87.6958 29.692 86.8318 29.748C85.9678 29.796 85.0678 29.82 84.1318 29.82H83.2318V28.992ZM83.2078 22.584H88.2238V26.46H84.2398V29.304H83.2318V25.656H87.2158V23.4H83.2078V22.584ZM97.4389 22.86H98.3869C98.3869 23.564 98.3229 24.256 98.1949 24.936C98.0749 25.616 97.8629 26.272 97.5589 26.904C97.2549 27.528 96.8349 28.116 96.2989 28.668C95.7629 29.22 95.0869 29.724 94.2709 30.18L93.7069 29.472C94.4349 29.072 95.0389 28.632 95.5189 28.152C95.9989 27.672 96.3789 27.16 96.6589 26.616C96.9469 26.064 97.1469 25.488 97.2589 24.888C97.3789 24.28 97.4389 23.656 97.4389 23.016V22.86ZM94.2229 22.86H97.8109V23.676H94.2229V22.86ZM97.3189 25.368V26.124L93.8389 26.472L93.6949 25.608L97.3189 25.368ZM97.5349 25.86H100.031V26.676H97.5349V25.86ZM101.915 21.576H102.875V32.436H101.915V21.576ZM99.6589 21.864H100.595V31.884H99.6589V21.864ZM112.57 21.576H113.566V32.448H112.57V21.576ZM107.842 22.416C108.378 22.416 108.85 22.572 109.258 22.884C109.674 23.188 109.998 23.624 110.23 24.192C110.47 24.76 110.59 25.428 110.59 26.196C110.59 26.964 110.47 27.632 110.23 28.2C109.998 28.768 109.674 29.208 109.258 29.52C108.85 29.832 108.378 29.988 107.842 29.988C107.306 29.988 106.83 29.832 106.414 29.52C105.998 29.208 105.67 28.768 105.43 28.2C105.198 27.632 105.082 26.964 105.082 26.196C105.082 25.428 105.198 24.76 105.43 24.192C105.67 23.624 105.998 23.188 106.414 22.884C106.83 22.572 107.306 22.416 107.842 22.416ZM107.842 23.304C107.482 23.304 107.166 23.424 106.894 23.664C106.63 23.896 106.422 24.232 106.27 24.672C106.118 25.104 106.042 25.612 106.042 26.196C106.042 26.78 106.118 27.292 106.27 27.732C106.422 28.164 106.63 28.5 106.894 28.74C107.166 28.98 107.482 29.1 107.842 29.1C108.194 29.1 108.502 28.98 108.766 28.74C109.038 28.5 109.25 28.164 109.402 27.732C109.554 27.292 109.63 26.78 109.63 26.196C109.63 25.612 109.554 25.104 109.402 24.672C109.25 24.232 109.038 23.896 108.766 23.664C108.502 23.424 108.194 23.304 107.842 23.304ZM121.473 23.184H123.909V24H121.473V23.184ZM121.473 25.404H123.909V26.22H121.473V25.404ZM118.449 22.188H119.253V23.568C119.253 24.28 119.129 24.948 118.881 25.572C118.633 26.188 118.285 26.728 117.837 27.192C117.397 27.648 116.877 28 116.277 28.248L115.749 27.456C116.157 27.296 116.525 27.088 116.853 26.832C117.181 26.568 117.461 26.264 117.693 25.92C117.933 25.576 118.117 25.208 118.245 24.816C118.381 24.416 118.449 24 118.449 23.568V22.188ZM118.629 22.188H119.433V23.568C119.433 23.968 119.493 24.356 119.613 24.732C119.741 25.108 119.921 25.46 120.153 25.788C120.385 26.116 120.661 26.408 120.981 26.664C121.309 26.92 121.665 27.124 122.049 27.276L121.497 28.056C120.929 27.824 120.429 27.484 119.997 27.036C119.565 26.58 119.229 26.056 118.989 25.464C118.749 24.872 118.629 24.24 118.629 23.568V22.188ZM123.657 21.588H124.653V29.688H123.657V21.588ZM117.681 31.38H124.905V32.196H117.681V31.38ZM117.681 28.86H118.677V31.812H117.681V28.86ZM131.315 22.632H138.191V23.448H131.315V22.632ZM130.139 30.132H139.943V30.96H130.139V30.132ZM137.783 22.632H138.755V23.664C138.755 24.104 138.747 24.572 138.731 25.068C138.723 25.564 138.687 26.108 138.623 26.7C138.567 27.284 138.463 27.948 138.311 28.692L137.327 28.584C137.551 27.528 137.683 26.604 137.723 25.812C137.763 25.02 137.783 24.304 137.783 23.664V22.632ZM138.011 25.236V25.992L131.159 26.388L131.003 25.524L138.011 25.236ZM133.955 27.324H134.939V30.432H133.955V27.324ZM142.426 26.784H149.878V27.6H142.426V26.784ZM141.178 30.132H151.018V30.96H141.178V30.132ZM142.426 22.584H149.77V23.4H143.41V27.144H142.426V22.584ZM163.824 21.576H164.784V32.436H163.824V21.576ZM162.072 25.944H164.16V26.76H162.072V25.944ZM159.276 22.98H160.224C160.224 23.676 160.156 24.356 160.02 25.02C159.884 25.684 159.66 26.324 159.348 26.94C159.044 27.548 158.632 28.12 158.112 28.656C157.592 29.184 156.944 29.668 156.168 30.108L155.592 29.4C156.504 28.888 157.228 28.308 157.764 27.66C158.3 27.012 158.684 26.312 158.916 25.56C159.156 24.8 159.276 24 159.276 23.16V22.98ZM156.012 22.98H159.6V23.796H156.012V22.98ZM161.424 21.864H162.36V31.896H161.424V21.864ZM167.075 22.032H168.059V23.58H171.119V22.032H172.103V26.76H167.075V22.032ZM168.059 24.36V25.956H171.119V24.36H168.059ZM174.059 21.576H175.055V27.18H174.059V21.576ZM174.611 23.916H176.651V24.732H174.611V23.916ZM168.155 27.696H175.055V30.336H169.163V31.956H168.191V29.592H174.071V28.488H168.155V27.696ZM168.191 31.512H175.439V32.316H168.191V31.512Z" fill="#525252"/>
<path d="M212.5 45.25C219.818 45.25 225.75 51.1822 225.75 58.5C225.75 65.8178 219.818 71.75 212.5 71.75H28.5C21.1822 71.75 15.25 65.8178 15.25 58.5C15.25 51.1822 21.1822 45.25 28.5 45.25H212.5Z" fill="white" stroke="#E5E5E5" stroke-width="0.5"/>
<path d="M88.101 54.7102V53.7727H94.6465V54.7102H91.9022V62.5H90.8453V54.7102H88.101ZM96.2775 62.5V53.7727H97.3343V61.5625H101.391V62.5H96.2775ZM107.8 55.9545C107.749 55.5227 107.542 55.1875 107.178 54.9489C106.814 54.7102 106.368 54.5909 105.84 54.5909C105.454 54.5909 105.116 54.6534 104.826 54.7784C104.539 54.9034 104.314 55.0753 104.153 55.294C103.993 55.5128 103.914 55.7614 103.914 56.0398C103.914 56.2727 103.969 56.473 104.08 56.6406C104.194 56.8054 104.339 56.9432 104.515 57.054C104.691 57.1619 104.876 57.2514 105.069 57.3224C105.262 57.3906 105.439 57.446 105.601 57.4886L106.488 57.7273C106.715 57.7869 106.968 57.8693 107.246 57.9744C107.528 58.0795 107.796 58.223 108.052 58.4048C108.31 58.5838 108.523 58.8139 108.691 59.0952C108.858 59.3764 108.942 59.7216 108.942 60.1307C108.942 60.6023 108.819 61.0284 108.572 61.4091C108.327 61.7898 107.969 62.0923 107.498 62.3168C107.029 62.5412 106.459 62.6534 105.789 62.6534C105.164 62.6534 104.623 62.5526 104.165 62.3509C103.711 62.1491 103.353 61.8679 103.091 61.5071C102.833 61.1463 102.687 60.7273 102.653 60.25H103.743C103.772 60.5795 103.883 60.8523 104.076 61.0682C104.272 61.2812 104.519 61.4403 104.817 61.5455C105.118 61.6477 105.442 61.6989 105.789 61.6989C106.192 61.6989 106.555 61.6335 106.876 61.5028C107.197 61.3693 107.451 61.1847 107.638 60.9489C107.826 60.7102 107.92 60.4318 107.92 60.1136C107.92 59.8239 107.839 59.5881 107.677 59.4062C107.515 59.2244 107.302 59.0767 107.037 58.9631C106.773 58.8494 106.488 58.75 106.181 58.6648L105.107 58.358C104.425 58.1619 103.885 57.8821 103.488 57.5185C103.09 57.1548 102.891 56.679 102.891 56.0909C102.891 55.6023 103.023 55.1761 103.287 54.8125C103.555 54.446 103.912 54.1619 104.361 53.9602C104.813 53.7557 105.317 53.6534 105.874 53.6534C106.437 53.6534 106.937 53.7543 107.374 53.956C107.812 54.1548 108.158 54.4276 108.414 54.7741C108.672 55.1207 108.809 55.5142 108.823 55.9545H107.8ZM112.044 61.3068L111.975 61.767C111.927 62.0909 111.853 62.4375 111.754 62.8068C111.657 63.1761 111.556 63.5241 111.451 63.8509C111.346 64.1776 111.259 64.4375 111.191 64.6307H110.424C110.461 64.4489 110.509 64.2088 110.569 63.9105C110.629 63.6122 110.688 63.2784 110.748 62.9091C110.811 62.5426 110.862 62.1676 110.901 61.7841L110.953 61.3068H112.044ZM124.857 52.588H125.853V60.508H124.857V52.588ZM118.881 62.38H126.189V63.196H118.881V62.38ZM118.881 59.704H119.877V62.656H118.881V59.704ZM120.033 53.344C120.577 53.344 121.061 53.456 121.485 53.68C121.909 53.904 122.245 54.22 122.493 54.628C122.741 55.028 122.865 55.488 122.865 56.008C122.865 56.528 122.741 56.992 122.493 57.4C122.245 57.8 121.909 58.116 121.485 58.348C121.061 58.572 120.577 58.684 120.033 58.684C119.497 58.684 119.013 58.572 118.581 58.348C118.157 58.116 117.821 57.8 117.573 57.4C117.325 56.992 117.201 56.528 117.201 56.008C117.201 55.488 117.325 55.028 117.573 54.628C117.821 54.22 118.157 53.904 118.581 53.68C119.013 53.456 119.497 53.344 120.033 53.344ZM120.033 54.208C119.681 54.208 119.365 54.284 119.085 54.436C118.805 54.588 118.581 54.8 118.413 55.072C118.253 55.344 118.173 55.656 118.173 56.008C118.173 56.368 118.253 56.684 118.413 56.956C118.581 57.22 118.805 57.428 119.085 57.58C119.365 57.732 119.681 57.808 120.033 57.808C120.385 57.808 120.701 57.732 120.981 57.58C121.269 57.428 121.493 57.22 121.653 56.956C121.813 56.684 121.893 56.368 121.893 56.008C121.893 55.656 121.813 55.344 121.653 55.072C121.493 54.8 121.269 54.588 120.981 54.436C120.701 54.284 120.385 54.208 120.033 54.208ZM128 57.736H137.804V58.552H128V57.736ZM132.896 59.488C134.056 59.488 134.964 59.66 135.62 60.004C136.276 60.348 136.604 60.832 136.604 61.456C136.604 62.08 136.276 62.56 135.62 62.896C134.964 63.24 134.056 63.412 132.896 63.412C131.736 63.412 130.824 63.24 130.16 62.896C129.504 62.56 129.176 62.08 129.176 61.456C129.176 60.832 129.504 60.348 130.16 60.004C130.824 59.66 131.736 59.488 132.896 59.488ZM132.896 60.28C132.328 60.28 131.84 60.324 131.432 60.412C131.032 60.5 130.724 60.632 130.508 60.808C130.292 60.984 130.184 61.2 130.184 61.456C130.184 61.704 130.292 61.916 130.508 62.092C130.724 62.26 131.032 62.392 131.432 62.488C131.84 62.576 132.328 62.62 132.896 62.62C133.464 62.62 133.948 62.576 134.348 62.488C134.756 62.392 135.068 62.26 135.284 62.092C135.5 61.916 135.608 61.704 135.608 61.456C135.608 61.2 135.5 60.984 135.284 60.808C135.068 60.632 134.756 60.5 134.348 60.412C133.948 60.324 133.464 60.28 132.896 60.28ZM132.26 53.56H133.136V53.884C133.136 54.236 133.06 54.564 132.908 54.868C132.764 55.164 132.56 55.436 132.296 55.684C132.032 55.932 131.72 56.152 131.36 56.344C131.008 56.536 130.624 56.696 130.208 56.824C129.792 56.944 129.356 57.032 128.9 57.088L128.54 56.296C128.932 56.256 129.308 56.184 129.668 56.08C130.036 55.976 130.376 55.852 130.688 55.708C131.008 55.556 131.284 55.388 131.516 55.204C131.748 55.012 131.928 54.808 132.056 54.592C132.192 54.368 132.26 54.132 132.26 53.884V53.56ZM132.668 53.56H133.544V53.884C133.544 54.132 133.608 54.368 133.736 54.592C133.872 54.808 134.056 55.012 134.288 55.204C134.52 55.396 134.792 55.568 135.104 55.72C135.424 55.864 135.764 55.988 136.124 56.092C136.492 56.188 136.872 56.256 137.264 56.296L136.904 57.088C136.448 57.032 136.012 56.944 135.596 56.824C135.18 56.696 134.792 56.536 134.432 56.344C134.08 56.152 133.772 55.932 133.508 55.684C133.244 55.436 133.036 55.16 132.884 54.856C132.74 54.552 132.668 54.228 132.668 53.884V53.56ZM128.9 53.128H136.916V53.944H128.9V53.128ZM144.463 56.26H147.475V57.076H144.463V56.26ZM141.835 53.512H142.651V55.456C142.651 56.056 142.575 56.648 142.423 57.232C142.279 57.816 142.071 58.36 141.799 58.864C141.527 59.368 141.207 59.816 140.839 60.208C140.479 60.6 140.083 60.912 139.651 61.144L139.027 60.34C139.427 60.148 139.795 59.88 140.131 59.536C140.475 59.192 140.775 58.8 141.031 58.36C141.287 57.912 141.483 57.444 141.619 56.956C141.763 56.46 141.835 55.96 141.835 55.456V53.512ZM142.039 53.512H142.843V55.456C142.843 55.944 142.911 56.428 143.047 56.908C143.191 57.388 143.391 57.84 143.647 58.264C143.903 58.68 144.199 59.052 144.535 59.38C144.879 59.708 145.247 59.964 145.639 60.148L145.039 60.952C144.607 60.728 144.207 60.428 143.839 60.052C143.471 59.676 143.151 59.244 142.879 58.756C142.615 58.268 142.407 57.744 142.255 57.184C142.111 56.624 142.039 56.048 142.039 55.456V53.512ZM146.983 52.576H147.967V63.448H146.983V52.576Z" fill="#525252"/>
<path d="M212.5 76.25C219.818 76.25 225.75 82.1822 225.75 89.5C225.75 96.8178 219.818 102.75 212.5 102.75H28.5C21.1822 102.75 15.25 96.8178 15.25 89.5C15.25 82.1822 21.1822 76.25 28.5 76.25H212.5Z" fill="white" stroke="#E5E5E5" stroke-width="0.5"/>
<path d="M63.0699 84.836H67.2099V91.52H63.0699V84.836ZM66.2739 85.628H64.0059V90.728H66.2739V85.628ZM70.9539 83.576H71.9139V94.436H70.9539V83.576ZM66.7179 87.668H69.2139V88.484H66.7179V87.668ZM68.7939 83.804H69.7419V93.884H68.7939V83.804ZM74.985 89.432H82.437V90.236H74.985V89.432ZM73.725 92.204H83.565V93.032H73.725V92.204ZM74.985 84.512H82.329V85.328H75.993V89.672H74.985V84.512ZM75.681 86.924H82.089V87.728H75.681V86.924ZM92.6601 83.588H93.6561V90.212H92.6601V83.588ZM86.4081 90.8H93.6561V94.436H92.6601V91.628H86.4081V90.8ZM85.3281 88.784H86.2041C86.8601 88.784 87.4681 88.776 88.0281 88.76C88.5961 88.744 89.1481 88.712 89.6841 88.664C90.2201 88.608 90.7761 88.536 91.3521 88.448L91.4721 89.264C90.8721 89.36 90.2961 89.432 89.7441 89.48C89.2001 89.528 88.6401 89.564 88.0641 89.588C87.4961 89.604 86.8761 89.612 86.2041 89.612H85.3281V88.784ZM85.3041 84.224H90.2241V87.236H86.3001V89.192H85.3281V86.456H89.2521V85.04H85.3041V84.224ZM97.6236 92.3068L97.5554 92.767C97.5071 93.0909 97.4332 93.4375 97.3338 93.8068C97.2372 94.1761 97.1364 94.5241 97.0312 94.8509C96.9261 95.1776 96.8395 95.4375 96.7713 95.6307H96.0043C96.0412 95.4489 96.0895 95.2088 96.1491 94.9105C96.2088 94.6122 96.2685 94.2784 96.3281 93.9091C96.3906 93.5426 96.4418 93.1676 96.4815 92.7841L96.5327 92.3068H97.6236ZM102.541 92.264H112.381V93.092H102.541V92.264ZM106.945 89.948H107.929V92.612H106.945V89.948ZM103.741 84.38H111.157V87.668H104.749V89.84H103.765V86.876H110.173V85.196H103.741V84.38ZM103.765 89.42H111.409V90.236H103.765V89.42ZM114.648 84.728H121.632V85.544H114.648V84.728ZM113.58 92.024H123.384V92.852H113.58V92.024ZM121.092 84.728H122.076V85.82C122.076 86.276 122.068 86.764 122.052 87.284C122.044 87.796 122.012 88.364 121.956 88.988C121.9 89.612 121.804 90.316 121.668 91.1L120.66 90.992C120.804 90.256 120.904 89.58 120.96 88.964C121.024 88.348 121.06 87.78 121.068 87.26C121.084 86.74 121.092 86.26 121.092 85.82V84.728ZM126.44 92.3068L126.372 92.767C126.324 93.0909 126.25 93.4375 126.15 93.8068C126.054 94.1761 125.953 94.5241 125.848 94.8509C125.743 95.1776 125.656 95.4375 125.588 95.6307H124.821C124.858 95.4489 124.906 95.2088 124.966 94.9105C125.025 94.6122 125.085 94.2784 125.145 93.9091C125.207 93.5426 125.258 93.1676 125.298 92.7841L125.349 92.3068H126.44ZM132.618 89.432H140.07V90.236H132.618V89.432ZM131.358 92.204H141.198V93.032H131.358V92.204ZM132.618 84.512H139.962V85.328H133.626V89.672H132.618V84.512ZM133.314 86.924H139.722V87.728H133.314V86.924ZM142.757 90.932H143.477C144.133 90.932 144.781 90.916 145.421 90.884C146.069 90.844 146.765 90.76 147.509 90.632L147.593 91.448C146.833 91.584 146.125 91.672 145.469 91.712C144.821 91.744 144.157 91.76 143.477 91.76H142.757V90.932ZM142.733 84.776H146.597V88.544H143.717V91.28H142.757V87.74H145.637V85.592H142.733V84.776ZM150.653 83.576H151.601V94.436H150.653V83.576ZM147.113 87.476H148.877V88.304H147.113V87.476ZM148.457 83.84H149.393V93.86H148.457V83.84ZM161.32 83.576H162.316V94.448H161.32V83.576ZM156.592 84.416C157.128 84.416 157.6 84.572 158.008 84.884C158.424 85.188 158.748 85.624 158.98 86.192C159.22 86.76 159.34 87.428 159.34 88.196C159.34 88.964 159.22 89.632 158.98 90.2C158.748 90.768 158.424 91.208 158.008 91.52C157.6 91.832 157.128 91.988 156.592 91.988C156.056 91.988 155.58 91.832 155.164 91.52C154.748 91.208 154.42 90.768 154.18 90.2C153.948 89.632 153.832 88.964 153.832 88.196C153.832 87.428 153.948 86.76 154.18 86.192C154.42 85.624 154.748 85.188 155.164 84.884C155.58 84.572 156.056 84.416 156.592 84.416ZM156.592 85.304C156.232 85.304 155.916 85.424 155.644 85.664C155.38 85.896 155.172 86.232 155.02 86.672C154.868 87.104 154.792 87.612 154.792 88.196C154.792 88.78 154.868 89.292 155.02 89.732C155.172 90.164 155.38 90.5 155.644 90.74C155.916 90.98 156.232 91.1 156.592 91.1C156.944 91.1 157.252 90.98 157.516 90.74C157.788 90.5 158 90.164 158.152 89.732C158.304 89.292 158.38 88.78 158.38 88.196C158.38 87.612 158.304 87.104 158.152 86.672C158 86.232 157.788 85.896 157.516 85.664C157.252 85.424 156.944 85.304 156.592 85.304ZM168.819 84.32H169.695V85.16C169.695 85.632 169.611 86.08 169.443 86.504C169.283 86.928 169.059 87.324 168.771 87.692C168.491 88.052 168.163 88.376 167.787 88.664C167.419 88.952 167.023 89.196 166.599 89.396C166.183 89.596 165.759 89.748 165.327 89.852L164.883 89.024C165.259 88.944 165.635 88.82 166.011 88.652C166.395 88.484 166.755 88.28 167.091 88.04C167.427 87.792 167.723 87.516 167.979 87.212C168.243 86.908 168.447 86.584 168.591 86.24C168.743 85.888 168.819 85.528 168.819 85.16V84.32ZM169.011 84.32H169.863V85.16C169.863 85.528 169.939 85.888 170.091 86.24C170.243 86.584 170.447 86.908 170.703 87.212C170.967 87.516 171.267 87.792 171.603 88.04C171.939 88.28 172.295 88.488 172.671 88.664C173.055 88.832 173.439 88.952 173.823 89.024L173.367 89.852C172.935 89.748 172.511 89.596 172.095 89.396C171.679 89.196 171.283 88.952 170.907 88.664C170.539 88.376 170.211 88.052 169.923 87.692C169.635 87.324 169.411 86.928 169.251 86.504C169.091 86.08 169.011 85.632 169.011 85.16V84.32ZM164.475 92.144H174.315V92.972H164.475V92.144Z" fill="#525252"/>
<path d="M212.5 107.25C219.818 107.25 225.75 113.182 225.75 120.5C225.75 127.818 219.818 133.75 212.5 133.75H28.5C21.1822 133.75 15.25 127.818 15.25 120.5C15.25 113.182 21.1822 107.25 28.5 107.25H212.5Z" fill="white" stroke="#E5E5E5" stroke-width="0.5"/>
<path d="M85.3861 114.576H86.3461V125.436H85.3861V114.576ZM83.6701 118.956H85.7581V119.796H83.6701V118.956ZM83.0221 114.804H83.9701V124.884H83.0221V114.804ZM79.3381 116.256H80.1061V117.516C80.1061 118.156 80.0541 118.768 79.9501 119.352C79.8461 119.936 79.6861 120.472 79.4701 120.96C79.2621 121.448 79.0021 121.884 78.6901 122.268C78.3781 122.644 78.0141 122.956 77.5981 123.204L76.9741 122.436C77.5021 122.148 77.9381 121.76 78.2821 121.272C78.6261 120.776 78.8861 120.208 79.0621 119.568C79.2461 118.928 79.3381 118.244 79.3381 117.516V116.256ZM79.5181 116.256H80.2981V117.516C80.2981 118.172 80.3861 118.796 80.5621 119.388C80.7381 119.98 80.9981 120.508 81.3421 120.972C81.6861 121.428 82.1141 121.788 82.6261 122.052L82.0381 122.82C81.4861 122.508 81.0221 122.088 80.6461 121.56C80.2701 121.032 79.9861 120.424 79.7941 119.736C79.6101 119.048 79.5181 118.308 79.5181 117.516V116.256ZM77.2381 115.86H82.2661V116.676H77.2381V115.86ZM90.9892 115.512H91.8172V117.456C91.8172 118.08 91.7372 118.688 91.5772 119.28C91.4252 119.864 91.2052 120.412 90.9172 120.924C90.6372 121.428 90.3052 121.876 89.9212 122.268C89.5452 122.652 89.1332 122.956 88.6852 123.18L88.0732 122.352C88.4812 122.168 88.8612 121.904 89.2132 121.56C89.5652 121.216 89.8732 120.828 90.1372 120.396C90.4012 119.956 90.6092 119.484 90.7612 118.98C90.9132 118.476 90.9892 117.968 90.9892 117.456V115.512ZM91.1572 115.512H91.9852V117.456C91.9852 117.952 92.0572 118.44 92.2012 118.92C92.3532 119.4 92.5612 119.856 92.8252 120.288C93.0972 120.712 93.4052 121.088 93.7492 121.416C94.1012 121.736 94.4772 121.988 94.8772 122.172L94.2772 122.964C93.8372 122.756 93.4292 122.464 93.0532 122.088C92.6772 121.712 92.3452 121.28 92.0572 120.792C91.7772 120.304 91.5572 119.776 91.3972 119.208C91.2372 118.64 91.1572 118.056 91.1572 117.456V115.512ZM96.0172 114.576H97.0132V125.448H96.0172V114.576ZM100.42 119.652H107.872V120.456H100.42V119.652ZM99.1723 123.24H109.012V124.068H99.1723V123.24ZM103.576 120H104.56V123.564H103.576V120ZM100.42 115.44H107.764V116.268H101.416V120.012H100.42V115.44ZM112.032 123.307L111.964 123.767C111.915 124.091 111.841 124.438 111.742 124.807C111.645 125.176 111.545 125.524 111.439 125.851C111.334 126.178 111.248 126.438 111.18 126.631H110.412C110.449 126.449 110.498 126.209 110.557 125.911C110.617 125.612 110.677 125.278 110.736 124.909C110.799 124.543 110.85 124.168 110.89 123.784L110.941 123.307H112.032ZM117.418 121.992H118.27C118.934 121.992 119.542 121.984 120.094 121.968C120.646 121.952 121.178 121.92 121.69 121.872C122.21 121.824 122.742 121.752 123.286 121.656L123.382 122.472C122.83 122.568 122.29 122.644 121.762 122.7C121.234 122.748 120.686 122.78 120.118 122.796C119.558 122.812 118.942 122.82 118.27 122.82H117.418V121.992ZM117.418 115.56H122.47V116.388H118.414V122.28H117.418V115.56ZM118.162 118.608H122.23V119.412H118.162V118.608ZM124.294 114.576H125.29V125.436H124.294V114.576ZM125.062 118.932H127.066V119.772H125.062V118.932ZM135.885 114.588H136.881V120.78H135.885V114.588ZM129.873 121.368H136.881V125.292H129.873V121.368ZM135.909 122.172H130.845V124.476H135.909V122.172ZM131.061 115.152C131.613 115.152 132.101 115.26 132.525 115.476C132.949 115.692 133.281 115.992 133.521 116.376C133.769 116.752 133.893 117.192 133.893 117.696C133.893 118.192 133.769 118.632 133.521 119.016C133.281 119.392 132.949 119.688 132.525 119.904C132.101 120.12 131.613 120.228 131.061 120.228C130.517 120.228 130.029 120.12 129.597 119.904C129.173 119.688 128.837 119.392 128.589 119.016C128.349 118.632 128.229 118.192 128.229 117.696C128.229 117.192 128.349 116.752 128.589 116.376C128.837 115.992 129.173 115.692 129.597 115.476C130.029 115.26 130.517 115.152 131.061 115.152ZM131.061 115.992C130.709 115.992 130.393 116.064 130.113 116.208C129.833 116.352 129.609 116.552 129.441 116.808C129.281 117.056 129.201 117.352 129.201 117.696C129.201 118.024 129.281 118.316 129.441 118.572C129.609 118.828 129.833 119.028 130.113 119.172C130.393 119.316 130.709 119.388 131.061 119.388C131.421 119.388 131.741 119.316 132.021 119.172C132.301 119.028 132.521 118.828 132.681 118.572C132.841 118.316 132.921 118.024 132.921 117.696C132.921 117.352 132.841 117.056 132.681 116.808C132.521 116.552 132.301 116.352 132.021 116.208C131.741 116.064 131.421 115.992 131.061 115.992ZM141.908 115.416C142.444 115.416 142.916 115.572 143.324 115.884C143.732 116.188 144.052 116.624 144.284 117.192C144.516 117.76 144.632 118.428 144.632 119.196C144.632 119.964 144.516 120.632 144.284 121.2C144.052 121.768 143.732 122.208 143.324 122.52C142.916 122.832 142.444 122.988 141.908 122.988C141.38 122.988 140.908 122.832 140.492 122.52C140.084 122.208 139.764 121.768 139.532 121.2C139.3 120.632 139.184 119.964 139.184 119.196C139.184 118.428 139.3 117.76 139.532 117.192C139.764 116.624 140.084 116.188 140.492 115.884C140.908 115.572 141.38 115.416 141.908 115.416ZM141.908 116.304C141.564 116.304 141.256 116.424 140.984 116.664C140.72 116.896 140.512 117.232 140.36 117.672C140.208 118.104 140.132 118.612 140.132 119.196C140.132 119.78 140.208 120.292 140.36 120.732C140.512 121.164 140.72 121.5 140.984 121.74C141.256 121.98 141.568 122.1 141.92 122.1C142.264 122.1 142.568 121.98 142.832 121.74C143.104 121.5 143.312 121.164 143.456 120.732C143.608 120.292 143.684 119.78 143.684 119.196C143.684 118.612 143.608 118.104 143.456 117.672C143.312 117.232 143.104 116.896 142.832 116.664C142.568 116.424 142.26 116.304 141.908 116.304ZM146.372 114.576H147.368V125.436H146.372V114.576ZM147.14 118.908H149.144V119.748H147.14V118.908ZM150.067 119.532H159.895V120.36H150.067V119.532ZM154.459 119.892H155.443V121.548H154.459V119.892ZM154.435 122.052H155.287V122.388C155.287 122.796 155.179 123.172 154.963 123.516C154.747 123.852 154.443 124.152 154.051 124.416C153.659 124.672 153.211 124.88 152.707 125.04C152.203 125.208 151.667 125.324 151.099 125.388L150.775 124.62C151.271 124.572 151.739 124.484 152.179 124.356C152.619 124.228 153.007 124.064 153.343 123.864C153.679 123.664 153.943 123.44 154.135 123.192C154.335 122.936 154.435 122.668 154.435 122.388V122.052ZM154.615 122.052H155.455V122.388C155.455 122.684 155.551 122.956 155.743 123.204C155.943 123.452 156.211 123.676 156.547 123.876C156.891 124.068 157.283 124.228 157.723 124.356C158.163 124.484 158.627 124.572 159.115 124.62L158.803 125.388C158.235 125.324 157.699 125.208 157.195 125.04C156.691 124.88 156.243 124.676 155.851 124.428C155.467 124.172 155.163 123.872 154.939 123.528C154.723 123.184 154.615 122.804 154.615 122.388V122.052ZM154.963 114.744C155.747 114.744 156.423 114.82 156.991 114.972C157.567 115.124 158.007 115.352 158.311 115.656C158.623 115.952 158.779 116.312 158.779 116.736C158.779 117.152 158.623 117.508 158.311 117.804C158.007 118.1 157.567 118.328 156.991 118.488C156.423 118.648 155.747 118.728 154.963 118.728C154.179 118.728 153.499 118.648 152.923 118.488C152.355 118.328 151.915 118.1 151.603 117.804C151.299 117.508 151.147 117.152 151.147 116.736C151.147 116.312 151.299 115.952 151.603 115.656C151.915 115.352 152.355 115.124 152.923 114.972C153.499 114.82 154.179 114.744 154.963 114.744ZM154.963 115.5C154.387 115.5 153.891 115.552 153.475 115.656C153.059 115.752 152.735 115.892 152.503 116.076C152.279 116.252 152.167 116.472 152.167 116.736C152.167 116.992 152.279 117.212 152.503 117.396C152.735 117.572 153.059 117.708 153.475 117.804C153.891 117.9 154.387 117.948 154.963 117.948C155.547 117.948 156.047 117.9 156.463 117.804C156.879 117.708 157.199 117.572 157.423 117.396C157.647 117.212 157.759 116.992 157.759 116.736C157.759 116.472 157.647 116.252 157.423 116.076C157.199 115.892 156.879 115.752 156.463 115.656C156.047 115.552 155.547 115.5 154.963 115.5Z" fill="#525252"/>
<path d="M212.5 200.25C219.818 200.25 225.75 206.182 225.75 213.5C225.75 220.818 219.818 226.75 212.5 226.75H28.5C21.1822 226.75 15.25 220.818 15.25 213.5C15.25 206.182 21.1822 200.25 28.5 200.25H212.5Z" fill="white" stroke="#E5E5E5" stroke-width="0.5"/>
<path d="M89.7193 211.26H92.7313V212.076H89.7193V211.26ZM87.0913 208.512H87.9073V210.456C87.9073 211.056 87.8313 211.648 87.6793 212.232C87.5353 212.816 87.3273 213.36 87.0553 213.864C86.7833 214.368 86.4633 214.816 86.0953 215.208C85.7353 215.6 85.3393 215.912 84.9073 216.144L84.2833 215.34C84.6833 215.148 85.0513 214.88 85.3873 214.536C85.7313 214.192 86.0313 213.8 86.2873 213.36C86.5433 212.912 86.7393 212.444 86.8753 211.956C87.0193 211.46 87.0913 210.96 87.0913 210.456V208.512ZM87.2953 208.512H88.0993V210.456C88.0993 210.944 88.1673 211.428 88.3033 211.908C88.4473 212.388 88.6473 212.84 88.9033 213.264C89.1593 213.68 89.4553 214.052 89.7913 214.38C90.1353 214.708 90.5033 214.964 90.8953 215.148L90.2953 215.952C89.8633 215.728 89.4633 215.428 89.0953 215.052C88.7273 214.676 88.4073 214.244 88.1353 213.756C87.8713 213.268 87.6633 212.744 87.5113 212.184C87.3673 211.624 87.2953 211.048 87.2953 210.456V208.512ZM92.2393 207.576H93.2233V218.448H92.2393V207.576ZM103.218 207.588H104.202V214.92H103.218V207.588ZM100.194 214.104H101.046V214.488C101.046 215.008 100.938 215.484 100.722 215.916C100.506 216.348 100.206 216.732 99.8224 217.068C99.4384 217.404 98.9984 217.68 98.5024 217.896C98.0144 218.12 97.4944 218.288 96.9424 218.4L96.5464 217.608C97.0344 217.528 97.4984 217.396 97.9384 217.212C98.3784 217.02 98.7664 216.788 99.1024 216.516C99.4464 216.244 99.7144 215.936 99.9064 215.592C100.098 215.248 100.194 214.88 100.194 214.488V214.104ZM100.374 214.104H101.226V214.488C101.226 214.88 101.322 215.248 101.514 215.592C101.706 215.928 101.966 216.232 102.294 216.504C102.63 216.768 103.014 216.992 103.446 217.176C103.878 217.36 104.334 217.496 104.814 217.584L104.394 218.376C103.858 218.272 103.346 218.108 102.858 217.884C102.378 217.66 101.95 217.384 101.574 217.056C101.198 216.72 100.902 216.34 100.686 215.916C100.478 215.484 100.374 215.008 100.374 214.488V214.104ZM100.014 208.332H101.046C101.046 209.276 100.87 210.136 100.518 210.912C100.174 211.68 99.6304 212.356 98.8864 212.94C98.1504 213.516 97.1944 213.992 96.0184 214.368L95.6344 213.564C96.4184 213.324 97.0864 213.04 97.6384 212.712C98.1904 212.376 98.6424 212.004 98.9944 211.596C99.3464 211.18 99.6024 210.728 99.7624 210.24C99.9304 209.752 100.014 209.236 100.014 208.692V208.332ZM96.1024 208.332H100.554V209.136H96.1024V208.332ZM99.8824 210.444V211.14L95.7304 211.452L95.5624 210.636L99.8824 210.444ZM109.748 216.168H119.588V216.996H109.748V216.168ZM110.9 208.356H111.896V210.36H117.416V208.356H118.4V214.008H110.9V208.356ZM111.896 211.164V213.204H117.416V211.164H111.896ZM121.148 214.932H121.868C122.524 214.932 123.172 214.916 123.812 214.884C124.46 214.844 125.156 214.76 125.9 214.632L125.984 215.448C125.224 215.584 124.516 215.672 123.86 215.712C123.212 215.744 122.548 215.76 121.868 215.76H121.148V214.932ZM121.124 208.776H124.988V212.544H122.108V215.28H121.148V211.74H124.028V209.592H121.124V208.776ZM129.044 207.576H129.992V218.436H129.044V207.576ZM125.504 211.476H127.268V212.304H125.504V211.476ZM126.848 207.84H127.784V217.86H126.848V207.84ZM139.711 207.576H140.707V218.448H139.711V207.576ZM134.983 208.416C135.519 208.416 135.991 208.572 136.399 208.884C136.815 209.188 137.139 209.624 137.371 210.192C137.611 210.76 137.731 211.428 137.731 212.196C137.731 212.964 137.611 213.632 137.371 214.2C137.139 214.768 136.815 215.208 136.399 215.52C135.991 215.832 135.519 215.988 134.983 215.988C134.447 215.988 133.971 215.832 133.555 215.52C133.139 215.208 132.811 214.768 132.571 214.2C132.339 213.632 132.223 212.964 132.223 212.196C132.223 211.428 132.339 210.76 132.571 210.192C132.811 209.624 133.139 209.188 133.555 208.884C133.971 208.572 134.447 208.416 134.983 208.416ZM134.983 209.304C134.623 209.304 134.307 209.424 134.035 209.664C133.771 209.896 133.563 210.232 133.411 210.672C133.259 211.104 133.183 211.612 133.183 212.196C133.183 212.78 133.259 213.292 133.411 213.732C133.563 214.164 133.771 214.5 134.035 214.74C134.307 214.98 134.623 215.1 134.983 215.1C135.335 215.1 135.643 214.98 135.907 214.74C136.179 214.5 136.391 214.164 136.543 213.732C136.695 213.292 136.771 212.78 136.771 212.196C136.771 211.612 136.695 211.104 136.543 210.672C136.391 210.232 136.179 209.896 135.907 209.664C135.643 209.424 135.335 209.304 134.983 209.304ZM147.546 208.32H148.59C148.59 209.256 148.41 210.1 148.05 210.852C147.69 211.604 147.138 212.26 146.394 212.82C145.658 213.372 144.71 213.82 143.55 214.164L143.166 213.36C143.942 213.136 144.606 212.868 145.158 212.556C145.71 212.244 146.162 211.892 146.514 211.5C146.866 211.1 147.126 210.668 147.294 210.204C147.462 209.74 147.546 209.244 147.546 208.716V208.32ZM143.634 208.32H148.086V209.124H143.634V208.32ZM147.414 210.324V211.02L143.262 211.332L143.094 210.516L147.414 210.324ZM150.762 207.588H151.758V214.104H150.762V207.588ZM148.182 214.26C148.934 214.26 149.578 214.344 150.114 214.512C150.658 214.68 151.078 214.916 151.374 215.22C151.67 215.524 151.818 215.896 151.818 216.336C151.818 216.776 151.67 217.152 151.374 217.464C151.078 217.776 150.658 218.012 150.114 218.172C149.578 218.332 148.934 218.412 148.182 218.412C147.43 218.412 146.782 218.332 146.238 218.172C145.694 218.012 145.274 217.776 144.978 217.464C144.682 217.152 144.534 216.776 144.534 216.336C144.534 215.896 144.682 215.524 144.978 215.22C145.274 214.916 145.694 214.68 146.238 214.512C146.782 214.344 147.43 214.26 148.182 214.26ZM148.182 215.052C147.63 215.052 147.154 215.104 146.754 215.208C146.362 215.312 146.058 215.46 145.842 215.652C145.634 215.836 145.53 216.064 145.53 216.336C145.53 216.6 145.634 216.832 145.842 217.032C146.058 217.224 146.362 217.372 146.754 217.476C147.154 217.58 147.63 217.632 148.182 217.632C148.726 217.632 149.194 217.58 149.586 217.476C149.986 217.372 150.29 217.224 150.498 217.032C150.714 216.832 150.822 216.6 150.822 216.336C150.822 216.064 150.714 215.836 150.498 215.652C150.29 215.46 149.986 215.312 149.586 215.208C149.194 215.104 148.726 215.052 148.182 215.052Z" fill="#525252"/>
<path d="M212.5 138.25C219.818 138.25 225.75 144.182 225.75 151.5C225.75 158.818 219.818 164.75 212.5 164.75H28.5C21.1822 164.75 15.25 158.818 15.25 151.5C15.25 144.182 21.1822 138.25 28.5 138.25H212.5Z" fill="white" stroke="#E5E5E5" stroke-width="0.5"/>
<path d="M212.5 169.25C219.818 169.25 225.75 175.182 225.75 182.5C225.75 189.818 219.818 195.75 212.5 195.75H28.5C21.1822 195.75 15.25 189.818 15.25 182.5C15.25 175.182 21.1822 169.25 28.5 169.25H212.5Z" fill="white" stroke="#E5E5E5" stroke-width="0.5"/>
<path d="M101.549 145.588H102.545V153.508H101.549V145.588ZM95.5727 155.38H102.881V156.196H95.5727V155.38ZM95.5727 152.704H96.5687V155.656H95.5727V152.704ZM96.7247 146.344C97.2687 146.344 97.7527 146.456 98.1767 146.68C98.6007 146.904 98.9367 147.22 99.1847 147.628C99.4327 148.028 99.5567 148.488 99.5567 149.008C99.5567 149.528 99.4327 149.992 99.1847 150.4C98.9367 150.8 98.6007 151.116 98.1767 151.348C97.7527 151.572 97.2687 151.684 96.7247 151.684C96.1887 151.684 95.7047 151.572 95.2727 151.348C94.8487 151.116 94.5127 150.8 94.2647 150.4C94.0167 149.992 93.8927 149.528 93.8927 149.008C93.8927 148.488 94.0167 148.028 94.2647 147.628C94.5127 147.22 94.8487 146.904 95.2727 146.68C95.7047 146.456 96.1887 146.344 96.7247 146.344ZM96.7247 147.208C96.3727 147.208 96.0567 147.284 95.7767 147.436C95.4967 147.588 95.2727 147.8 95.1047 148.072C94.9447 148.344 94.8647 148.656 94.8647 149.008C94.8647 149.368 94.9447 149.684 95.1047 149.956C95.2727 150.22 95.4967 150.428 95.7767 150.58C96.0567 150.732 96.3727 150.808 96.7247 150.808C97.0767 150.808 97.3927 150.732 97.6727 150.58C97.9607 150.428 98.1847 150.22 98.3447 149.956C98.5047 149.684 98.5847 149.368 98.5847 149.008C98.5847 148.656 98.5047 148.344 98.3447 148.072C98.1847 147.8 97.9607 147.588 97.6727 147.436C97.3927 147.284 97.0767 147.208 96.7247 147.208ZM104.692 150.736H114.496V151.552H104.692V150.736ZM109.588 152.488C110.748 152.488 111.656 152.66 112.312 153.004C112.968 153.348 113.296 153.832 113.296 154.456C113.296 155.08 112.968 155.56 112.312 155.896C111.656 156.24 110.748 156.412 109.588 156.412C108.428 156.412 107.516 156.24 106.852 155.896C106.196 155.56 105.868 155.08 105.868 154.456C105.868 153.832 106.196 153.348 106.852 153.004C107.516 152.66 108.428 152.488 109.588 152.488ZM109.588 153.28C109.02 153.28 108.532 153.324 108.124 153.412C107.724 153.5 107.416 153.632 107.2 153.808C106.984 153.984 106.876 154.2 106.876 154.456C106.876 154.704 106.984 154.916 107.2 155.092C107.416 155.26 107.724 155.392 108.124 155.488C108.532 155.576 109.02 155.62 109.588 155.62C110.156 155.62 110.64 155.576 111.04 155.488C111.448 155.392 111.76 155.26 111.976 155.092C112.192 154.916 112.3 154.704 112.3 154.456C112.3 154.2 112.192 153.984 111.976 153.808C111.76 153.632 111.448 153.5 111.04 153.412C110.64 153.324 110.156 153.28 109.588 153.28ZM108.952 146.56H109.828V146.884C109.828 147.236 109.752 147.564 109.6 147.868C109.456 148.164 109.252 148.436 108.988 148.684C108.724 148.932 108.412 149.152 108.052 149.344C107.7 149.536 107.316 149.696 106.9 149.824C106.484 149.944 106.048 150.032 105.592 150.088L105.232 149.296C105.624 149.256 106 149.184 106.36 149.08C106.728 148.976 107.068 148.852 107.38 148.708C107.7 148.556 107.976 148.388 108.208 148.204C108.44 148.012 108.62 147.808 108.748 147.592C108.884 147.368 108.952 147.132 108.952 146.884V146.56ZM109.36 146.56H110.236V146.884C110.236 147.132 110.3 147.368 110.428 147.592C110.564 147.808 110.748 148.012 110.98 148.204C111.212 148.396 111.484 148.568 111.796 148.72C112.116 148.864 112.456 148.988 112.816 149.092C113.184 149.188 113.564 149.256 113.956 149.296L113.596 150.088C113.14 150.032 112.704 149.944 112.288 149.824C111.872 149.696 111.484 149.536 111.124 149.344C110.772 149.152 110.464 148.932 110.2 148.684C109.936 148.436 109.728 148.16 109.576 147.856C109.432 147.552 109.36 147.228 109.36 146.884V146.56ZM105.592 146.128H113.608V146.944H105.592V146.128ZM117.551 154.307L117.483 154.767C117.435 155.091 117.361 155.438 117.262 155.807C117.165 156.176 117.064 156.524 116.959 156.851C116.854 157.178 116.767 157.438 116.699 157.631H115.932C115.969 157.449 116.017 157.209 116.077 156.911C116.137 156.612 116.196 156.278 116.256 155.909C116.318 155.543 116.369 155.168 116.409 154.784L116.46 154.307H117.551ZM130.365 145.588H131.361V153.508H130.365V145.588ZM124.389 155.38H131.697V156.196H124.389V155.38ZM124.389 152.704H125.385V155.656H124.389V152.704ZM125.541 146.344C126.085 146.344 126.569 146.456 126.993 146.68C127.417 146.904 127.753 147.22 128.001 147.628C128.249 148.028 128.373 148.488 128.373 149.008C128.373 149.528 128.249 149.992 128.001 150.4C127.753 150.8 127.417 151.116 126.993 151.348C126.569 151.572 126.085 151.684 125.541 151.684C125.005 151.684 124.521 151.572 124.089 151.348C123.665 151.116 123.329 150.8 123.081 150.4C122.833 149.992 122.709 149.528 122.709 149.008C122.709 148.488 122.833 148.028 123.081 147.628C123.329 147.22 123.665 146.904 124.089 146.68C124.521 146.456 125.005 146.344 125.541 146.344ZM125.541 147.208C125.189 147.208 124.873 147.284 124.593 147.436C124.313 147.588 124.089 147.8 123.921 148.072C123.761 148.344 123.681 148.656 123.681 149.008C123.681 149.368 123.761 149.684 123.921 149.956C124.089 150.22 124.313 150.428 124.593 150.58C124.873 150.732 125.189 150.808 125.541 150.808C125.893 150.808 126.209 150.732 126.489 150.58C126.777 150.428 127.001 150.22 127.161 149.956C127.321 149.684 127.401 149.368 127.401 149.008C127.401 148.656 127.321 148.344 127.161 148.072C127.001 147.8 126.777 147.588 126.489 147.436C126.209 147.284 125.893 147.208 125.541 147.208ZM140.852 145.576H141.848V156.424H140.852V145.576ZM141.584 149.98H143.576V150.808H141.584V149.98ZM138.08 146.74H139.052C139.052 147.772 138.884 148.76 138.548 149.704C138.212 150.64 137.684 151.508 136.964 152.308C136.244 153.1 135.296 153.788 134.12 154.372L133.568 153.604C134.576 153.1 135.412 152.512 136.076 151.84C136.748 151.16 137.248 150.408 137.576 149.584C137.912 148.752 138.08 147.856 138.08 146.896V146.74ZM134.072 146.74H138.584V147.568H134.072V146.74Z" fill="#525252"/>
<path d="M101.549 176.588H102.545V184.508H101.549V176.588ZM95.5727 186.38H102.881V187.196H95.5727V186.38ZM95.5727 183.704H96.5687V186.656H95.5727V183.704ZM96.7247 177.344C97.2687 177.344 97.7527 177.456 98.1767 177.68C98.6007 177.904 98.9367 178.22 99.1847 178.628C99.4327 179.028 99.5567 179.488 99.5567 180.008C99.5567 180.528 99.4327 180.992 99.1847 181.4C98.9367 181.8 98.6007 182.116 98.1767 182.348C97.7527 182.572 97.2687 182.684 96.7247 182.684C96.1887 182.684 95.7047 182.572 95.2727 182.348C94.8487 182.116 94.5127 181.8 94.2647 181.4C94.0167 180.992 93.8927 180.528 93.8927 180.008C93.8927 179.488 94.0167 179.028 94.2647 178.628C94.5127 178.22 94.8487 177.904 95.2727 177.68C95.7047 177.456 96.1887 177.344 96.7247 177.344ZM96.7247 178.208C96.3727 178.208 96.0567 178.284 95.7767 178.436C95.4967 178.588 95.2727 178.8 95.1047 179.072C94.9447 179.344 94.8647 179.656 94.8647 180.008C94.8647 180.368 94.9447 180.684 95.1047 180.956C95.2727 181.22 95.4967 181.428 95.7767 181.58C96.0567 181.732 96.3727 181.808 96.7247 181.808C97.0767 181.808 97.3927 181.732 97.6727 181.58C97.9607 181.428 98.1847 181.22 98.3447 180.956C98.5047 180.684 98.5847 180.368 98.5847 180.008C98.5847 179.656 98.5047 179.344 98.3447 179.072C98.1847 178.8 97.9607 178.588 97.6727 178.436C97.3927 178.284 97.0767 178.208 96.7247 178.208ZM104.692 181.736H114.496V182.552H104.692V181.736ZM109.588 183.488C110.748 183.488 111.656 183.66 112.312 184.004C112.968 184.348 113.296 184.832 113.296 185.456C113.296 186.08 112.968 186.56 112.312 186.896C111.656 187.24 110.748 187.412 109.588 187.412C108.428 187.412 107.516 187.24 106.852 186.896C106.196 186.56 105.868 186.08 105.868 185.456C105.868 184.832 106.196 184.348 106.852 184.004C107.516 183.66 108.428 183.488 109.588 183.488ZM109.588 184.28C109.02 184.28 108.532 184.324 108.124 184.412C107.724 184.5 107.416 184.632 107.2 184.808C106.984 184.984 106.876 185.2 106.876 185.456C106.876 185.704 106.984 185.916 107.2 186.092C107.416 186.26 107.724 186.392 108.124 186.488C108.532 186.576 109.02 186.62 109.588 186.62C110.156 186.62 110.64 186.576 111.04 186.488C111.448 186.392 111.76 186.26 111.976 186.092C112.192 185.916 112.3 185.704 112.3 185.456C112.3 185.2 112.192 184.984 111.976 184.808C111.76 184.632 111.448 184.5 111.04 184.412C110.64 184.324 110.156 184.28 109.588 184.28ZM108.952 177.56H109.828V177.884C109.828 178.236 109.752 178.564 109.6 178.868C109.456 179.164 109.252 179.436 108.988 179.684C108.724 179.932 108.412 180.152 108.052 180.344C107.7 180.536 107.316 180.696 106.9 180.824C106.484 180.944 106.048 181.032 105.592 181.088L105.232 180.296C105.624 180.256 106 180.184 106.36 180.08C106.728 179.976 107.068 179.852 107.38 179.708C107.7 179.556 107.976 179.388 108.208 179.204C108.44 179.012 108.62 178.808 108.748 178.592C108.884 178.368 108.952 178.132 108.952 177.884V177.56ZM109.36 177.56H110.236V177.884C110.236 178.132 110.3 178.368 110.428 178.592C110.564 178.808 110.748 179.012 110.98 179.204C111.212 179.396 111.484 179.568 111.796 179.72C112.116 179.864 112.456 179.988 112.816 180.092C113.184 180.188 113.564 180.256 113.956 180.296L113.596 181.088C113.14 181.032 112.704 180.944 112.288 180.824C111.872 180.696 111.484 180.536 111.124 180.344C110.772 180.152 110.464 179.932 110.2 179.684C109.936 179.436 109.728 179.16 109.576 178.856C109.432 178.552 109.36 178.228 109.36 177.884V177.56ZM105.592 177.128H113.608V177.944H105.592V177.128ZM117.551 185.307L117.483 185.767C117.435 186.091 117.361 186.438 117.262 186.807C117.165 187.176 117.064 187.524 116.959 187.851C116.854 188.178 116.767 188.438 116.699 188.631H115.932C115.969 188.449 116.017 188.209 116.077 187.911C116.137 187.612 116.196 187.278 116.256 186.909C116.318 186.543 116.369 186.168 116.409 185.784L116.46 185.307H117.551ZM130.365 176.588H131.361V184.508H130.365V176.588ZM124.389 186.38H131.697V187.196H124.389V186.38ZM124.389 183.704H125.385V186.656H124.389V183.704ZM125.541 177.344C126.085 177.344 126.569 177.456 126.993 177.68C127.417 177.904 127.753 178.22 128.001 178.628C128.249 179.028 128.373 179.488 128.373 180.008C128.373 180.528 128.249 180.992 128.001 181.4C127.753 181.8 127.417 182.116 126.993 182.348C126.569 182.572 126.085 182.684 125.541 182.684C125.005 182.684 124.521 182.572 124.089 182.348C123.665 182.116 123.329 181.8 123.081 181.4C122.833 180.992 122.709 180.528 122.709 180.008C122.709 179.488 122.833 179.028 123.081 178.628C123.329 178.22 123.665 177.904 124.089 177.68C124.521 177.456 125.005 177.344 125.541 177.344ZM125.541 178.208C125.189 178.208 124.873 178.284 124.593 178.436C124.313 178.588 124.089 178.8 123.921 179.072C123.761 179.344 123.681 179.656 123.681 180.008C123.681 180.368 123.761 180.684 123.921 180.956C124.089 181.22 124.313 181.428 124.593 181.58C124.873 181.732 125.189 181.808 125.541 181.808C125.893 181.808 126.209 181.732 126.489 181.58C126.777 181.428 127.001 181.22 127.161 180.956C127.321 180.684 127.401 180.368 127.401 180.008C127.401 179.656 127.321 179.344 127.161 179.072C127.001 178.8 126.777 178.588 126.489 178.436C126.209 178.284 125.893 178.208 125.541 178.208ZM140.852 176.576H141.848V187.424H140.852V176.576ZM141.584 180.98H143.576V181.808H141.584V180.98ZM138.08 177.74H139.052C139.052 178.772 138.884 179.76 138.548 180.704C138.212 181.64 137.684 182.508 136.964 183.308C136.244 184.1 135.296 184.788 134.12 185.372L133.568 184.604C134.576 184.1 135.412 183.512 136.076 182.84C136.748 182.16 137.248 181.408 137.576 180.584C137.912 179.752 138.08 178.856 138.08 177.896V177.74ZM134.072 177.74H138.584V178.568H134.072V177.74Z" fill="#525252"/>
<path d="M546.5 0.25C557.131 0.250008 565.75 8.86852 565.75 19.5V223.5C565.75 234.131 557.131 242.75 546.5 242.75H341.5C330.869 242.75 322.25 234.131 322.25 223.5V19.5C322.25 8.86852 330.869 0.25 341.5 0.25H546.5Z" fill="#F7F7F7" stroke="#D4D4D4" stroke-width="0.5"/>
<path d="M534.5 14.25C541.818 14.25 547.75 20.1822 547.75 27.5C547.75 34.8178 541.818 40.75 534.5 40.75H350.5C343.182 40.75 337.25 34.8178 337.25 27.5C337.25 20.1822 343.182 14.25 350.5 14.25H534.5Z" fill="white" stroke="#E5E5E5" stroke-width="0.5"/>
<path d="M384.966 22.488C385.438 22.488 385.846 22.64 386.19 22.944C386.542 23.248 386.814 23.684 387.006 24.252C387.198 24.82 387.294 25.488 387.294 26.256C387.294 27.032 387.198 27.704 387.006 28.272C386.814 28.84 386.542 29.28 386.19 29.592C385.846 29.896 385.438 30.048 384.966 30.048C384.51 30.048 384.106 29.896 383.754 29.592C383.41 29.28 383.142 28.84 382.95 28.272C382.758 27.704 382.662 27.032 382.662 26.256C382.662 25.488 382.758 24.82 382.95 24.252C383.142 23.684 383.41 23.248 383.754 22.944C384.106 22.64 384.51 22.488 384.966 22.488ZM384.966 23.412C384.686 23.412 384.442 23.528 384.234 23.76C384.026 23.992 383.866 24.32 383.754 24.744C383.642 25.168 383.586 25.672 383.586 26.256C383.586 26.84 383.642 27.348 383.754 27.78C383.866 28.204 384.026 28.532 384.234 28.764C384.442 28.996 384.686 29.112 384.966 29.112C385.254 29.112 385.502 28.996 385.71 28.764C385.918 28.532 386.078 28.204 386.19 27.78C386.31 27.348 386.37 26.84 386.37 26.256C386.37 25.672 386.31 25.168 386.19 24.744C386.078 24.32 385.918 23.992 385.71 23.76C385.502 23.528 385.254 23.412 384.966 23.412ZM390.798 21.576H391.758V32.436H390.798V21.576ZM389.07 25.872H391.158V26.7H389.07V25.872ZM388.386 21.804H389.334V31.884H388.386V21.804ZM394.481 21.912H402.437V22.68H394.481V21.912ZM394.517 24.744H402.401V25.512H394.517V24.744ZM396.113 22.2H397.109V25.26H396.113V22.2ZM399.809 22.2H400.805V25.26H399.809V22.2ZM393.569 26.412H403.373V27.216H393.569V26.412ZM394.757 28.164H402.113V30.552H395.753V31.86H394.781V29.832H401.141V28.908H394.757V28.164ZM394.781 31.548H402.437V32.316H394.781V31.548ZM412.516 21.576H413.5V32.448H412.516V21.576ZM405.232 28.992H406.132C406.748 28.992 407.34 28.984 407.908 28.968C408.484 28.944 409.064 28.904 409.648 28.848C410.24 28.792 410.856 28.712 411.496 28.608L411.592 29.424C410.616 29.584 409.696 29.692 408.832 29.748C407.968 29.796 407.068 29.82 406.132 29.82H405.232V28.992ZM405.208 22.584H410.224V26.46H406.24V29.304H405.232V25.656H409.216V23.4H405.208V22.584ZM419.439 22.86H420.387C420.387 23.564 420.323 24.256 420.195 24.936C420.075 25.616 419.863 26.272 419.559 26.904C419.255 27.528 418.835 28.116 418.299 28.668C417.763 29.22 417.087 29.724 416.271 30.18L415.707 29.472C416.435 29.072 417.039 28.632 417.519 28.152C417.999 27.672 418.379 27.16 418.659 26.616C418.947 26.064 419.147 25.488 419.259 24.888C419.379 24.28 419.439 23.656 419.439 23.016V22.86ZM416.223 22.86H419.811V23.676H416.223V22.86ZM419.319 25.368V26.124L415.839 26.472L415.695 25.608L419.319 25.368ZM419.535 25.86H422.031V26.676H419.535V25.86ZM423.915 21.576H424.875V32.436H423.915V21.576ZM421.659 21.864H422.595V31.884H421.659V21.864ZM434.57 21.576H435.566V32.448H434.57V21.576ZM429.842 22.416C430.378 22.416 430.85 22.572 431.258 22.884C431.674 23.188 431.998 23.624 432.23 24.192C432.47 24.76 432.59 25.428 432.59 26.196C432.59 26.964 432.47 27.632 432.23 28.2C431.998 28.768 431.674 29.208 431.258 29.52C430.85 29.832 430.378 29.988 429.842 29.988C429.306 29.988 428.83 29.832 428.414 29.52C427.998 29.208 427.67 28.768 427.43 28.2C427.198 27.632 427.082 26.964 427.082 26.196C427.082 25.428 427.198 24.76 427.43 24.192C427.67 23.624 427.998 23.188 428.414 22.884C428.83 22.572 429.306 22.416 429.842 22.416ZM429.842 23.304C429.482 23.304 429.166 23.424 428.894 23.664C428.63 23.896 428.422 24.232 428.27 24.672C428.118 25.104 428.042 25.612 428.042 26.196C428.042 26.78 428.118 27.292 428.27 27.732C428.422 28.164 428.63 28.5 428.894 28.74C429.166 28.98 429.482 29.1 429.842 29.1C430.194 29.1 430.502 28.98 430.766 28.74C431.038 28.5 431.25 28.164 431.402 27.732C431.554 27.292 431.63 26.78 431.63 26.196C431.63 25.612 431.554 25.104 431.402 24.672C431.25 24.232 431.038 23.896 430.766 23.664C430.502 23.424 430.194 23.304 429.842 23.304ZM443.473 23.184H445.909V24H443.473V23.184ZM443.473 25.404H445.909V26.22H443.473V25.404ZM440.449 22.188H441.253V23.568C441.253 24.28 441.129 24.948 440.881 25.572C440.633 26.188 440.285 26.728 439.837 27.192C439.397 27.648 438.877 28 438.277 28.248L437.749 27.456C438.157 27.296 438.525 27.088 438.853 26.832C439.181 26.568 439.461 26.264 439.693 25.92C439.933 25.576 440.117 25.208 440.245 24.816C440.381 24.416 440.449 24 440.449 23.568V22.188ZM440.629 22.188H441.433V23.568C441.433 23.968 441.493 24.356 441.613 24.732C441.741 25.108 441.921 25.46 442.153 25.788C442.385 26.116 442.661 26.408 442.981 26.664C443.309 26.92 443.665 27.124 444.049 27.276L443.497 28.056C442.929 27.824 442.429 27.484 441.997 27.036C441.565 26.58 441.229 26.056 440.989 25.464C440.749 24.872 440.629 24.24 440.629 23.568V22.188ZM445.657 21.588H446.653V29.688H445.657V21.588ZM439.681 31.38H446.905V32.196H439.681V31.38ZM439.681 28.86H440.677V31.812H439.681V28.86ZM453.315 22.632H460.191V23.448H453.315V22.632ZM452.139 30.132H461.943V30.96H452.139V30.132ZM459.783 22.632H460.755V23.664C460.755 24.104 460.747 24.572 460.731 25.068C460.723 25.564 460.687 26.108 460.623 26.7C460.567 27.284 460.463 27.948 460.311 28.692L459.327 28.584C459.551 27.528 459.683 26.604 459.723 25.812C459.763 25.02 459.783 24.304 459.783 23.664V22.632ZM460.011 25.236V25.992L453.159 26.388L453.003 25.524L460.011 25.236ZM455.955 27.324H456.939V30.432H455.955V27.324ZM464.426 26.784H471.878V27.6H464.426V26.784ZM463.178 30.132H473.018V30.96H463.178V30.132ZM464.426 22.584H471.77V23.4H465.41V27.144H464.426V22.584ZM485.824 21.576H486.784V32.436H485.824V21.576ZM484.072 25.944H486.16V26.76H484.072V25.944ZM481.276 22.98H482.224C482.224 23.676 482.156 24.356 482.02 25.02C481.884 25.684 481.66 26.324 481.348 26.94C481.044 27.548 480.632 28.12 480.112 28.656C479.592 29.184 478.944 29.668 478.168 30.108L477.592 29.4C478.504 28.888 479.228 28.308 479.764 27.66C480.3 27.012 480.684 26.312 480.916 25.56C481.156 24.8 481.276 24 481.276 23.16V22.98ZM478.012 22.98H481.6V23.796H478.012V22.98ZM483.424 21.864H484.36V31.896H483.424V21.864ZM489.075 22.032H490.059V23.58H493.119V22.032H494.103V26.76H489.075V22.032ZM490.059 24.36V25.956H493.119V24.36H490.059ZM496.059 21.576H497.055V27.18H496.059V21.576ZM496.611 23.916H498.651V24.732H496.611V23.916ZM490.155 27.696H497.055V30.336H491.163V31.956H490.191V29.592H496.071V28.488H490.155V27.696ZM490.191 31.512H497.439V32.316H490.191V31.512Z" fill="#525252"/>
<path d="M534.5 45.25C541.818 45.25 547.75 51.1822 547.75 58.5C547.75 65.8178 541.818 71.75 534.5 71.75H350.5C343.182 71.75 337.25 65.8178 337.25 58.5C337.25 51.1822 343.182 45.25 350.5 45.25H534.5Z" fill="#F7F7F7" stroke="#E5E5E5" stroke-width="0.5"/>
<path d="M410.101 54.7102V53.7727H416.646V54.7102H413.902V62.5H412.845V54.7102H410.101ZM418.278 62.5V53.7727H419.334V61.5625H423.391V62.5H418.278ZM429.8 55.9545C429.749 55.5227 429.542 55.1875 429.178 54.9489C428.814 54.7102 428.368 54.5909 427.84 54.5909C427.454 54.5909 427.116 54.6534 426.826 54.7784C426.539 54.9034 426.314 55.0753 426.153 55.294C425.993 55.5128 425.914 55.7614 425.914 56.0398C425.914 56.2727 425.969 56.473 426.08 56.6406C426.194 56.8054 426.339 56.9432 426.515 57.054C426.691 57.1619 426.876 57.2514 427.069 57.3224C427.262 57.3906 427.439 57.446 427.601 57.4886L428.488 57.7273C428.715 57.7869 428.968 57.8693 429.246 57.9744C429.528 58.0795 429.796 58.223 430.052 58.4048C430.31 58.5838 430.523 58.8139 430.691 59.0952C430.858 59.3764 430.942 59.7216 430.942 60.1307C430.942 60.6023 430.819 61.0284 430.572 61.4091C430.327 61.7898 429.969 62.0923 429.498 62.3168C429.029 62.5412 428.459 62.6534 427.789 62.6534C427.164 62.6534 426.623 62.5526 426.165 62.3509C425.711 62.1491 425.353 61.8679 425.091 61.5071C424.833 61.1463 424.687 60.7273 424.653 60.25H425.743C425.772 60.5795 425.883 60.8523 426.076 61.0682C426.272 61.2812 426.519 61.4403 426.817 61.5455C427.118 61.6477 427.442 61.6989 427.789 61.6989C428.192 61.6989 428.555 61.6335 428.876 61.5028C429.197 61.3693 429.451 61.1847 429.638 60.9489C429.826 60.7102 429.92 60.4318 429.92 60.1136C429.92 59.8239 429.839 59.5881 429.677 59.4062C429.515 59.2244 429.302 59.0767 429.037 58.9631C428.773 58.8494 428.488 58.75 428.181 58.6648L427.107 58.358C426.425 58.1619 425.885 57.8821 425.488 57.5185C425.09 57.1548 424.891 56.679 424.891 56.0909C424.891 55.6023 425.023 55.1761 425.287 54.8125C425.555 54.446 425.912 54.1619 426.361 53.9602C426.813 53.7557 427.317 53.6534 427.874 53.6534C428.437 53.6534 428.937 53.7543 429.374 53.956C429.812 54.1548 430.158 54.4276 430.414 54.7741C430.672 55.1207 430.809 55.5142 430.823 55.9545H429.8ZM434.044 61.3068L433.975 61.767C433.927 62.0909 433.853 62.4375 433.754 62.8068C433.657 63.1761 433.556 63.5241 433.451 63.8509C433.346 64.1776 433.259 64.4375 433.191 64.6307H432.424C432.461 64.4489 432.509 64.2088 432.569 63.9105C432.629 63.6122 432.688 63.2784 432.748 62.9091C432.811 62.5426 432.862 62.1676 432.901 61.7841L432.953 61.3068H434.044ZM446.857 52.588H447.853V60.508H446.857V52.588ZM440.881 62.38H448.189V63.196H440.881V62.38ZM440.881 59.704H441.877V62.656H440.881V59.704ZM442.033 53.344C442.577 53.344 443.061 53.456 443.485 53.68C443.909 53.904 444.245 54.22 444.493 54.628C444.741 55.028 444.865 55.488 444.865 56.008C444.865 56.528 444.741 56.992 444.493 57.4C444.245 57.8 443.909 58.116 443.485 58.348C443.061 58.572 442.577 58.684 442.033 58.684C441.497 58.684 441.013 58.572 440.581 58.348C440.157 58.116 439.821 57.8 439.573 57.4C439.325 56.992 439.201 56.528 439.201 56.008C439.201 55.488 439.325 55.028 439.573 54.628C439.821 54.22 440.157 53.904 440.581 53.68C441.013 53.456 441.497 53.344 442.033 53.344ZM442.033 54.208C441.681 54.208 441.365 54.284 441.085 54.436C440.805 54.588 440.581 54.8 440.413 55.072C440.253 55.344 440.173 55.656 440.173 56.008C440.173 56.368 440.253 56.684 440.413 56.956C440.581 57.22 440.805 57.428 441.085 57.58C441.365 57.732 441.681 57.808 442.033 57.808C442.385 57.808 442.701 57.732 442.981 57.58C443.269 57.428 443.493 57.22 443.653 56.956C443.813 56.684 443.893 56.368 443.893 56.008C443.893 55.656 443.813 55.344 443.653 55.072C443.493 54.8 443.269 54.588 442.981 54.436C442.701 54.284 442.385 54.208 442.033 54.208ZM450 57.736H459.804V58.552H450V57.736ZM454.896 59.488C456.056 59.488 456.964 59.66 457.62 60.004C458.276 60.348 458.604 60.832 458.604 61.456C458.604 62.08 458.276 62.56 457.62 62.896C456.964 63.24 456.056 63.412 454.896 63.412C453.736 63.412 452.824 63.24 452.16 62.896C451.504 62.56 451.176 62.08 451.176 61.456C451.176 60.832 451.504 60.348 452.16 60.004C452.824 59.66 453.736 59.488 454.896 59.488ZM454.896 60.28C454.328 60.28 453.84 60.324 453.432 60.412C453.032 60.5 452.724 60.632 452.508 60.808C452.292 60.984 452.184 61.2 452.184 61.456C452.184 61.704 452.292 61.916 452.508 62.092C452.724 62.26 453.032 62.392 453.432 62.488C453.84 62.576 454.328 62.62 454.896 62.62C455.464 62.62 455.948 62.576 456.348 62.488C456.756 62.392 457.068 62.26 457.284 62.092C457.5 61.916 457.608 61.704 457.608 61.456C457.608 61.2 457.5 60.984 457.284 60.808C457.068 60.632 456.756 60.5 456.348 60.412C455.948 60.324 455.464 60.28 454.896 60.28ZM454.26 53.56H455.136V53.884C455.136 54.236 455.06 54.564 454.908 54.868C454.764 55.164 454.56 55.436 454.296 55.684C454.032 55.932 453.72 56.152 453.36 56.344C453.008 56.536 452.624 56.696 452.208 56.824C451.792 56.944 451.356 57.032 450.9 57.088L450.54 56.296C450.932 56.256 451.308 56.184 451.668 56.08C452.036 55.976 452.376 55.852 452.688 55.708C453.008 55.556 453.284 55.388 453.516 55.204C453.748 55.012 453.928 54.808 454.056 54.592C454.192 54.368 454.26 54.132 454.26 53.884V53.56ZM454.668 53.56H455.544V53.884C455.544 54.132 455.608 54.368 455.736 54.592C455.872 54.808 456.056 55.012 456.288 55.204C456.52 55.396 456.792 55.568 457.104 55.72C457.424 55.864 457.764 55.988 458.124 56.092C458.492 56.188 458.872 56.256 459.264 56.296L458.904 57.088C458.448 57.032 458.012 56.944 457.596 56.824C457.18 56.696 456.792 56.536 456.432 56.344C456.08 56.152 455.772 55.932 455.508 55.684C455.244 55.436 455.036 55.16 454.884 54.856C454.74 54.552 454.668 54.228 454.668 53.884V53.56ZM450.9 53.128H458.916V53.944H450.9V53.128ZM466.463 56.26H469.475V57.076H466.463V56.26ZM463.835 53.512H464.651V55.456C464.651 56.056 464.575 56.648 464.423 57.232C464.279 57.816 464.071 58.36 463.799 58.864C463.527 59.368 463.207 59.816 462.839 60.208C462.479 60.6 462.083 60.912 461.651 61.144L461.027 60.34C461.427 60.148 461.795 59.88 462.131 59.536C462.475 59.192 462.775 58.8 463.031 58.36C463.287 57.912 463.483 57.444 463.619 56.956C463.763 56.46 463.835 55.96 463.835 55.456V53.512ZM464.039 53.512H464.843V55.456C464.843 55.944 464.911 56.428 465.047 56.908C465.191 57.388 465.391 57.84 465.647 58.264C465.903 58.68 466.199 59.052 466.535 59.38C466.879 59.708 467.247 59.964 467.639 60.148L467.039 60.952C466.607 60.728 466.207 60.428 465.839 60.052C465.471 59.676 465.151 59.244 464.879 58.756C464.615 58.268 464.407 57.744 464.255 57.184C464.111 56.624 464.039 56.048 464.039 55.456V53.512ZM468.983 52.576H469.967V63.448H468.983V52.576Z" fill="#525252"/>
<path d="M534.5 76.25C541.818 76.25 547.75 82.1822 547.75 89.5C547.75 96.8178 541.818 102.75 534.5 102.75H350.5C343.182 102.75 337.25 96.8178 337.25 89.5C337.25 82.1822 343.182 76.25 350.5 76.25H534.5Z" fill="#F7F7F7" stroke="#E5E5E5" stroke-width="0.5"/>
<path d="M385.07 84.836H389.21V91.52H385.07V84.836ZM388.274 85.628H386.006V90.728H388.274V85.628ZM392.954 83.576H393.914V94.436H392.954V83.576ZM388.718 87.668H391.214V88.484H388.718V87.668ZM390.794 83.804H391.742V93.884H390.794V83.804ZM396.985 89.432H404.437V90.236H396.985V89.432ZM395.725 92.204H405.565V93.032H395.725V92.204ZM396.985 84.512H404.329V85.328H397.993V89.672H396.985V84.512ZM397.681 86.924H404.089V87.728H397.681V86.924ZM414.66 83.588H415.656V90.212H414.66V83.588ZM408.408 90.8H415.656V94.436H414.66V91.628H408.408V90.8ZM407.328 88.784H408.204C408.86 88.784 409.468 88.776 410.028 88.76C410.596 88.744 411.148 88.712 411.684 88.664C412.22 88.608 412.776 88.536 413.352 88.448L413.472 89.264C412.872 89.36 412.296 89.432 411.744 89.48C411.2 89.528 410.64 89.564 410.064 89.588C409.496 89.604 408.876 89.612 408.204 89.612H407.328V88.784ZM407.304 84.224H412.224V87.236H408.3V89.192H407.328V86.456H411.252V85.04H407.304V84.224ZM419.624 92.3068L419.555 92.767C419.507 93.0909 419.433 93.4375 419.334 93.8068C419.237 94.1761 419.136 94.5241 419.031 94.8509C418.926 95.1776 418.839 95.4375 418.771 95.6307H418.004C418.041 95.4489 418.089 95.2088 418.149 94.9105C418.209 94.6122 418.268 94.2784 418.328 93.9091C418.391 93.5426 418.442 93.1676 418.482 92.7841L418.533 92.3068H419.624ZM424.541 92.264H434.381V93.092H424.541V92.264ZM428.945 89.948H429.929V92.612H428.945V89.948ZM425.741 84.38H433.157V87.668H426.749V89.84H425.765V86.876H432.173V85.196H425.741V84.38ZM425.765 89.42H433.409V90.236H425.765V89.42ZM436.648 84.728H443.632V85.544H436.648V84.728ZM435.58 92.024H445.384V92.852H435.58V92.024ZM443.092 84.728H444.076V85.82C444.076 86.276 444.068 86.764 444.052 87.284C444.044 87.796 444.012 88.364 443.956 88.988C443.9 89.612 443.804 90.316 443.668 91.1L442.66 90.992C442.804 90.256 442.904 89.58 442.96 88.964C443.024 88.348 443.06 87.78 443.068 87.26C443.084 86.74 443.092 86.26 443.092 85.82V84.728ZM448.44 92.3068L448.372 92.767C448.324 93.0909 448.25 93.4375 448.15 93.8068C448.054 94.1761 447.953 94.5241 447.848 94.8509C447.743 95.1776 447.656 95.4375 447.588 95.6307H446.821C446.858 95.4489 446.906 95.2088 446.966 94.9105C447.025 94.6122 447.085 94.2784 447.145 93.9091C447.207 93.5426 447.258 93.1676 447.298 92.7841L447.349 92.3068H448.44ZM454.618 89.432H462.07V90.236H454.618V89.432ZM453.358 92.204H463.198V93.032H453.358V92.204ZM454.618 84.512H461.962V85.328H455.626V89.672H454.618V84.512ZM455.314 86.924H461.722V87.728H455.314V86.924ZM464.757 90.932H465.477C466.133 90.932 466.781 90.916 467.421 90.884C468.069 90.844 468.765 90.76 469.509 90.632L469.593 91.448C468.833 91.584 468.125 91.672 467.469 91.712C466.821 91.744 466.157 91.76 465.477 91.76H464.757V90.932ZM464.733 84.776H468.597V88.544H465.717V91.28H464.757V87.74H467.637V85.592H464.733V84.776ZM472.653 83.576H473.601V94.436H472.653V83.576ZM469.113 87.476H470.877V88.304H469.113V87.476ZM470.457 83.84H471.393V93.86H470.457V83.84ZM483.32 83.576H484.316V94.448H483.32V83.576ZM478.592 84.416C479.128 84.416 479.6 84.572 480.008 84.884C480.424 85.188 480.748 85.624 480.98 86.192C481.22 86.76 481.34 87.428 481.34 88.196C481.34 88.964 481.22 89.632 480.98 90.2C480.748 90.768 480.424 91.208 480.008 91.52C479.6 91.832 479.128 91.988 478.592 91.988C478.056 91.988 477.58 91.832 477.164 91.52C476.748 91.208 476.42 90.768 476.18 90.2C475.948 89.632 475.832 88.964 475.832 88.196C475.832 87.428 475.948 86.76 476.18 86.192C476.42 85.624 476.748 85.188 477.164 84.884C477.58 84.572 478.056 84.416 478.592 84.416ZM478.592 85.304C478.232 85.304 477.916 85.424 477.644 85.664C477.38 85.896 477.172 86.232 477.02 86.672C476.868 87.104 476.792 87.612 476.792 88.196C476.792 88.78 476.868 89.292 477.02 89.732C477.172 90.164 477.38 90.5 477.644 90.74C477.916 90.98 478.232 91.1 478.592 91.1C478.944 91.1 479.252 90.98 479.516 90.74C479.788 90.5 480 90.164 480.152 89.732C480.304 89.292 480.38 88.78 480.38 88.196C480.38 87.612 480.304 87.104 480.152 86.672C480 86.232 479.788 85.896 479.516 85.664C479.252 85.424 478.944 85.304 478.592 85.304ZM490.819 84.32H491.695V85.16C491.695 85.632 491.611 86.08 491.443 86.504C491.283 86.928 491.059 87.324 490.771 87.692C490.491 88.052 490.163 88.376 489.787 88.664C489.419 88.952 489.023 89.196 488.599 89.396C488.183 89.596 487.759 89.748 487.327 89.852L486.883 89.024C487.259 88.944 487.635 88.82 488.011 88.652C488.395 88.484 488.755 88.28 489.091 88.04C489.427 87.792 489.723 87.516 489.979 87.212C490.243 86.908 490.447 86.584 490.591 86.24C490.743 85.888 490.819 85.528 490.819 85.16V84.32ZM491.011 84.32H491.863V85.16C491.863 85.528 491.939 85.888 492.091 86.24C492.243 86.584 492.447 86.908 492.703 87.212C492.967 87.516 493.267 87.792 493.603 88.04C493.939 88.28 494.295 88.488 494.671 88.664C495.055 88.832 495.439 88.952 495.823 89.024L495.367 89.852C494.935 89.748 494.511 89.596 494.095 89.396C493.679 89.196 493.283 88.952 492.907 88.664C492.539 88.376 492.211 88.052 491.923 87.692C491.635 87.324 491.411 86.928 491.251 86.504C491.091 86.08 491.011 85.632 491.011 85.16V84.32ZM486.475 92.144H496.315V92.972H486.475V92.144Z" fill="#525252"/>
<path d="M534.5 107.25C541.818 107.25 547.75 113.182 547.75 120.5C547.75 127.818 541.818 133.75 534.5 133.75H350.5C343.182 133.75 337.25 127.818 337.25 120.5C337.25 113.182 343.182 107.25 350.5 107.25H534.5Z" fill="#F7F7F7" stroke="#E5E5E5" stroke-width="0.5"/>
<path d="M407.386 114.576H408.346V125.436H407.386V114.576ZM405.67 118.956H407.758V119.796H405.67V118.956ZM405.022 114.804H405.97V124.884H405.022V114.804ZM401.338 116.256H402.106V117.516C402.106 118.156 402.054 118.768 401.95 119.352C401.846 119.936 401.686 120.472 401.47 120.96C401.262 121.448 401.002 121.884 400.69 122.268C400.378 122.644 400.014 122.956 399.598 123.204L398.974 122.436C399.502 122.148 399.938 121.76 400.282 121.272C400.626 120.776 400.886 120.208 401.062 119.568C401.246 118.928 401.338 118.244 401.338 117.516V116.256ZM401.518 116.256H402.298V117.516C402.298 118.172 402.386 118.796 402.562 119.388C402.738 119.98 402.998 120.508 403.342 120.972C403.686 121.428 404.114 121.788 404.626 122.052L404.038 122.82C403.486 122.508 403.022 122.088 402.646 121.56C402.27 121.032 401.986 120.424 401.794 119.736C401.61 119.048 401.518 118.308 401.518 117.516V116.256ZM399.238 115.86H404.266V116.676H399.238V115.86ZM412.989 115.512H413.817V117.456C413.817 118.08 413.737 118.688 413.577 119.28C413.425 119.864 413.205 120.412 412.917 120.924C412.637 121.428 412.305 121.876 411.921 122.268C411.545 122.652 411.133 122.956 410.685 123.18L410.073 122.352C410.481 122.168 410.861 121.904 411.213 121.56C411.565 121.216 411.873 120.828 412.137 120.396C412.401 119.956 412.609 119.484 412.761 118.98C412.913 118.476 412.989 117.968 412.989 117.456V115.512ZM413.157 115.512H413.985V117.456C413.985 117.952 414.057 118.44 414.201 118.92C414.353 119.4 414.561 119.856 414.825 120.288C415.097 120.712 415.405 121.088 415.749 121.416C416.101 121.736 416.477 121.988 416.877 122.172L416.277 122.964C415.837 122.756 415.429 122.464 415.053 122.088C414.677 121.712 414.345 121.28 414.057 120.792C413.777 120.304 413.557 119.776 413.397 119.208C413.237 118.64 413.157 118.056 413.157 117.456V115.512ZM418.017 114.576H419.013V125.448H418.017V114.576ZM422.42 119.652H429.872V120.456H422.42V119.652ZM421.172 123.24H431.012V124.068H421.172V123.24ZM425.576 120H426.56V123.564H425.576V120ZM422.42 115.44H429.764V116.268H423.416V120.012H422.42V115.44ZM434.032 123.307L433.964 123.767C433.915 124.091 433.841 124.438 433.742 124.807C433.645 125.176 433.545 125.524 433.439 125.851C433.334 126.178 433.248 126.438 433.18 126.631H432.412C432.449 126.449 432.498 126.209 432.557 125.911C432.617 125.612 432.677 125.278 432.736 124.909C432.799 124.543 432.85 124.168 432.89 123.784L432.941 123.307H434.032ZM439.418 121.992H440.27C440.934 121.992 441.542 121.984 442.094 121.968C442.646 121.952 443.178 121.92 443.69 121.872C444.21 121.824 444.742 121.752 445.286 121.656L445.382 122.472C444.83 122.568 444.29 122.644 443.762 122.7C443.234 122.748 442.686 122.78 442.118 122.796C441.558 122.812 440.942 122.82 440.27 122.82H439.418V121.992ZM439.418 115.56H444.47V116.388H440.414V122.28H439.418V115.56ZM440.162 118.608H444.23V119.412H440.162V118.608ZM446.294 114.576H447.29V125.436H446.294V114.576ZM447.062 118.932H449.066V119.772H447.062V118.932ZM457.885 114.588H458.881V120.78H457.885V114.588ZM451.873 121.368H458.881V125.292H451.873V121.368ZM457.909 122.172H452.845V124.476H457.909V122.172ZM453.061 115.152C453.613 115.152 454.101 115.26 454.525 115.476C454.949 115.692 455.281 115.992 455.521 116.376C455.769 116.752 455.893 117.192 455.893 117.696C455.893 118.192 455.769 118.632 455.521 119.016C455.281 119.392 454.949 119.688 454.525 119.904C454.101 120.12 453.613 120.228 453.061 120.228C452.517 120.228 452.029 120.12 451.597 119.904C451.173 119.688 450.837 119.392 450.589 119.016C450.349 118.632 450.229 118.192 450.229 117.696C450.229 117.192 450.349 116.752 450.589 116.376C450.837 115.992 451.173 115.692 451.597 115.476C452.029 115.26 452.517 115.152 453.061 115.152ZM453.061 115.992C452.709 115.992 452.393 116.064 452.113 116.208C451.833 116.352 451.609 116.552 451.441 116.808C451.281 117.056 451.201 117.352 451.201 117.696C451.201 118.024 451.281 118.316 451.441 118.572C451.609 118.828 451.833 119.028 452.113 119.172C452.393 119.316 452.709 119.388 453.061 119.388C453.421 119.388 453.741 119.316 454.021 119.172C454.301 119.028 454.521 118.828 454.681 118.572C454.841 118.316 454.921 118.024 454.921 117.696C454.921 117.352 454.841 117.056 454.681 116.808C454.521 116.552 454.301 116.352 454.021 116.208C453.741 116.064 453.421 115.992 453.061 115.992ZM463.908 115.416C464.444 115.416 464.916 115.572 465.324 115.884C465.732 116.188 466.052 116.624 466.284 117.192C466.516 117.76 466.632 118.428 466.632 119.196C466.632 119.964 466.516 120.632 466.284 121.2C466.052 121.768 465.732 122.208 465.324 122.52C464.916 122.832 464.444 122.988 463.908 122.988C463.38 122.988 462.908 122.832 462.492 122.52C462.084 122.208 461.764 121.768 461.532 121.2C461.3 120.632 461.184 119.964 461.184 119.196C461.184 118.428 461.3 117.76 461.532 117.192C461.764 116.624 462.084 116.188 462.492 115.884C462.908 115.572 463.38 115.416 463.908 115.416ZM463.908 116.304C463.564 116.304 463.256 116.424 462.984 116.664C462.72 116.896 462.512 117.232 462.36 117.672C462.208 118.104 462.132 118.612 462.132 119.196C462.132 119.78 462.208 120.292 462.36 120.732C462.512 121.164 462.72 121.5 462.984 121.74C463.256 121.98 463.568 122.1 463.92 122.1C464.264 122.1 464.568 121.98 464.832 121.74C465.104 121.5 465.312 121.164 465.456 120.732C465.608 120.292 465.684 119.78 465.684 119.196C465.684 118.612 465.608 118.104 465.456 117.672C465.312 117.232 465.104 116.896 464.832 116.664C464.568 116.424 464.26 116.304 463.908 116.304ZM468.372 114.576H469.368V125.436H468.372V114.576ZM469.14 118.908H471.144V119.748H469.14V118.908ZM472.067 119.532H481.895V120.36H472.067V119.532ZM476.459 119.892H477.443V121.548H476.459V119.892ZM476.435 122.052H477.287V122.388C477.287 122.796 477.179 123.172 476.963 123.516C476.747 123.852 476.443 124.152 476.051 124.416C475.659 124.672 475.211 124.88 474.707 125.04C474.203 125.208 473.667 125.324 473.099 125.388L472.775 124.62C473.271 124.572 473.739 124.484 474.179 124.356C474.619 124.228 475.007 124.064 475.343 123.864C475.679 123.664 475.943 123.44 476.135 123.192C476.335 122.936 476.435 122.668 476.435 122.388V122.052ZM476.615 122.052H477.455V122.388C477.455 122.684 477.551 122.956 477.743 123.204C477.943 123.452 478.211 123.676 478.547 123.876C478.891 124.068 479.283 124.228 479.723 124.356C480.163 124.484 480.627 124.572 481.115 124.62L480.803 125.388C480.235 125.324 479.699 125.208 479.195 125.04C478.691 124.88 478.243 124.676 477.851 124.428C477.467 124.172 477.163 123.872 476.939 123.528C476.723 123.184 476.615 122.804 476.615 122.388V122.052ZM476.963 114.744C477.747 114.744 478.423 114.82 478.991 114.972C479.567 115.124 480.007 115.352 480.311 115.656C480.623 115.952 480.779 116.312 480.779 116.736C480.779 117.152 480.623 117.508 480.311 117.804C480.007 118.1 479.567 118.328 478.991 118.488C478.423 118.648 477.747 118.728 476.963 118.728C476.179 118.728 475.499 118.648 474.923 118.488C474.355 118.328 473.915 118.1 473.603 117.804C473.299 117.508 473.147 117.152 473.147 116.736C473.147 116.312 473.299 115.952 473.603 115.656C473.915 115.352 474.355 115.124 474.923 114.972C475.499 114.82 476.179 114.744 476.963 114.744ZM476.963 115.5C476.387 115.5 475.891 115.552 475.475 115.656C475.059 115.752 474.735 115.892 474.503 116.076C474.279 116.252 474.167 116.472 474.167 116.736C474.167 116.992 474.279 117.212 474.503 117.396C474.735 117.572 475.059 117.708 475.475 117.804C475.891 117.9 476.387 117.948 476.963 117.948C477.547 117.948 478.047 117.9 478.463 117.804C478.879 117.708 479.199 117.572 479.423 117.396C479.647 117.212 479.759 116.992 479.759 116.736C479.759 116.472 479.647 116.252 479.423 116.076C479.199 115.892 478.879 115.752 478.463 115.656C478.047 115.552 477.547 115.5 476.963 115.5Z" fill="#525252"/>
<path d="M534.5 200.25C541.818 200.25 547.75 206.182 547.75 213.5C547.75 220.818 541.818 226.75 534.5 226.75H350.5C343.182 226.75 337.25 220.818 337.25 213.5C337.25 206.182 343.182 200.25 350.5 200.25H534.5Z" fill="#F7F7F7" stroke="#E5E5E5" stroke-width="0.5"/>
<path d="M411.719 211.26H414.731V212.076H411.719V211.26ZM409.091 208.512H409.907V210.456C409.907 211.056 409.831 211.648 409.679 212.232C409.535 212.816 409.327 213.36 409.055 213.864C408.783 214.368 408.463 214.816 408.095 215.208C407.735 215.6 407.339 215.912 406.907 216.144L406.283 215.34C406.683 215.148 407.051 214.88 407.387 214.536C407.731 214.192 408.031 213.8 408.287 213.36C408.543 212.912 408.739 212.444 408.875 211.956C409.019 211.46 409.091 210.96 409.091 210.456V208.512ZM409.295 208.512H410.099V210.456C410.099 210.944 410.167 211.428 410.303 211.908C410.447 212.388 410.647 212.84 410.903 213.264C411.159 213.68 411.455 214.052 411.791 214.38C412.135 214.708 412.503 214.964 412.895 215.148L412.295 215.952C411.863 215.728 411.463 215.428 411.095 215.052C410.727 214.676 410.407 214.244 410.135 213.756C409.871 213.268 409.663 212.744 409.511 212.184C409.367 211.624 409.295 211.048 409.295 210.456V208.512ZM414.239 207.576H415.223V218.448H414.239V207.576ZM425.218 207.588H426.202V214.92H425.218V207.588ZM422.194 214.104H423.046V214.488C423.046 215.008 422.938 215.484 422.722 215.916C422.506 216.348 422.206 216.732 421.822 217.068C421.438 217.404 420.998 217.68 420.502 217.896C420.014 218.12 419.494 218.288 418.942 218.4L418.546 217.608C419.034 217.528 419.498 217.396 419.938 217.212C420.378 217.02 420.766 216.788 421.102 216.516C421.446 216.244 421.714 215.936 421.906 215.592C422.098 215.248 422.194 214.88 422.194 214.488V214.104ZM422.374 214.104H423.226V214.488C423.226 214.88 423.322 215.248 423.514 215.592C423.706 215.928 423.966 216.232 424.294 216.504C424.63 216.768 425.014 216.992 425.446 217.176C425.878 217.36 426.334 217.496 426.814 217.584L426.394 218.376C425.858 218.272 425.346 218.108 424.858 217.884C424.378 217.66 423.95 217.384 423.574 217.056C423.198 216.72 422.902 216.34 422.686 215.916C422.478 215.484 422.374 215.008 422.374 214.488V214.104ZM422.014 208.332H423.046C423.046 209.276 422.87 210.136 422.518 210.912C422.174 211.68 421.63 212.356 420.886 212.94C420.15 213.516 419.194 213.992 418.018 214.368L417.634 213.564C418.418 213.324 419.086 213.04 419.638 212.712C420.19 212.376 420.642 212.004 420.994 211.596C421.346 211.18 421.602 210.728 421.762 210.24C421.93 209.752 422.014 209.236 422.014 208.692V208.332ZM418.102 208.332H422.554V209.136H418.102V208.332ZM421.882 210.444V211.14L417.73 211.452L417.562 210.636L421.882 210.444ZM431.748 216.168H441.588V216.996H431.748V216.168ZM432.9 208.356H433.896V210.36H439.416V208.356H440.4V214.008H432.9V208.356ZM433.896 211.164V213.204H439.416V211.164H433.896ZM443.148 214.932H443.868C444.524 214.932 445.172 214.916 445.812 214.884C446.46 214.844 447.156 214.76 447.9 214.632L447.984 215.448C447.224 215.584 446.516 215.672 445.86 215.712C445.212 215.744 444.548 215.76 443.868 215.76H443.148V214.932ZM443.124 208.776H446.988V212.544H444.108V215.28H443.148V211.74H446.028V209.592H443.124V208.776ZM451.044 207.576H451.992V218.436H451.044V207.576ZM447.504 211.476H449.268V212.304H447.504V211.476ZM448.848 207.84H449.784V217.86H448.848V207.84ZM461.711 207.576H462.707V218.448H461.711V207.576ZM456.983 208.416C457.519 208.416 457.991 208.572 458.399 208.884C458.815 209.188 459.139 209.624 459.371 210.192C459.611 210.76 459.731 211.428 459.731 212.196C459.731 212.964 459.611 213.632 459.371 214.2C459.139 214.768 458.815 215.208 458.399 215.52C457.991 215.832 457.519 215.988 456.983 215.988C456.447 215.988 455.971 215.832 455.555 215.52C455.139 215.208 454.811 214.768 454.571 214.2C454.339 213.632 454.223 212.964 454.223 212.196C454.223 211.428 454.339 210.76 454.571 210.192C454.811 209.624 455.139 209.188 455.555 208.884C455.971 208.572 456.447 208.416 456.983 208.416ZM456.983 209.304C456.623 209.304 456.307 209.424 456.035 209.664C455.771 209.896 455.563 210.232 455.411 210.672C455.259 211.104 455.183 211.612 455.183 212.196C455.183 212.78 455.259 213.292 455.411 213.732C455.563 214.164 455.771 214.5 456.035 214.74C456.307 214.98 456.623 215.1 456.983 215.1C457.335 215.1 457.643 214.98 457.907 214.74C458.179 214.5 458.391 214.164 458.543 213.732C458.695 213.292 458.771 212.78 458.771 212.196C458.771 211.612 458.695 211.104 458.543 210.672C458.391 210.232 458.179 209.896 457.907 209.664C457.643 209.424 457.335 209.304 456.983 209.304ZM469.546 208.32H470.59C470.59 209.256 470.41 210.1 470.05 210.852C469.69 211.604 469.138 212.26 468.394 212.82C467.658 213.372 466.71 213.82 465.55 214.164L465.166 213.36C465.942 213.136 466.606 212.868 467.158 212.556C467.71 212.244 468.162 211.892 468.514 211.5C468.866 211.1 469.126 210.668 469.294 210.204C469.462 209.74 469.546 209.244 469.546 208.716V208.32ZM465.634 208.32H470.086V209.124H465.634V208.32ZM469.414 210.324V211.02L465.262 211.332L465.094 210.516L469.414 210.324ZM472.762 207.588H473.758V214.104H472.762V207.588ZM470.182 214.26C470.934 214.26 471.578 214.344 472.114 214.512C472.658 214.68 473.078 214.916 473.374 215.22C473.67 215.524 473.818 215.896 473.818 216.336C473.818 216.776 473.67 217.152 473.374 217.464C473.078 217.776 472.658 218.012 472.114 218.172C471.578 218.332 470.934 218.412 470.182 218.412C469.43 218.412 468.782 218.332 468.238 218.172C467.694 218.012 467.274 217.776 466.978 217.464C466.682 217.152 466.534 216.776 466.534 216.336C466.534 215.896 466.682 215.524 466.978 215.22C467.274 214.916 467.694 214.68 468.238 214.512C468.782 214.344 469.43 214.26 470.182 214.26ZM470.182 215.052C469.63 215.052 469.154 215.104 468.754 215.208C468.362 215.312 468.058 215.46 467.842 215.652C467.634 215.836 467.53 216.064 467.53 216.336C467.53 216.6 467.634 216.832 467.842 217.032C468.058 217.224 468.362 217.372 468.754 217.476C469.154 217.58 469.63 217.632 470.182 217.632C470.726 217.632 471.194 217.58 471.586 217.476C471.986 217.372 472.29 217.224 472.498 217.032C472.714 216.832 472.822 216.6 472.822 216.336C472.822 216.064 472.714 215.836 472.498 215.652C472.29 215.46 471.986 215.312 471.586 215.208C471.194 215.104 470.726 215.052 470.182 215.052Z" fill="#525252"/>
<path d="M534.5 138.25C541.818 138.25 547.75 144.182 547.75 151.5C547.75 158.818 541.818 164.75 534.5 164.75H350.5C343.182 164.75 337.25 158.818 337.25 151.5C337.25 144.182 343.182 138.25 350.5 138.25H534.5Z" fill="#F7F7F7" stroke="#E5E5E5" stroke-width="0.5"/>
<path d="M534.5 169.25C541.818 169.25 547.75 175.182 547.75 182.5C547.75 189.818 541.818 195.75 534.5 195.75H350.5C343.182 195.75 337.25 189.818 337.25 182.5C337.25 175.182 343.182 169.25 350.5 169.25H534.5Z" fill="#F7F7F7" stroke="#E5E5E5" stroke-width="0.5"/>
<path d="M423.549 145.588H424.545V153.508H423.549V145.588ZM417.573 155.38H424.881V156.196H417.573V155.38ZM417.573 152.704H418.569V155.656H417.573V152.704ZM418.725 146.344C419.269 146.344 419.753 146.456 420.177 146.68C420.601 146.904 420.937 147.22 421.185 147.628C421.433 148.028 421.557 148.488 421.557 149.008C421.557 149.528 421.433 149.992 421.185 150.4C420.937 150.8 420.601 151.116 420.177 151.348C419.753 151.572 419.269 151.684 418.725 151.684C418.189 151.684 417.705 151.572 417.273 151.348C416.849 151.116 416.513 150.8 416.265 150.4C416.017 149.992 415.893 149.528 415.893 149.008C415.893 148.488 416.017 148.028 416.265 147.628C416.513 147.22 416.849 146.904 417.273 146.68C417.705 146.456 418.189 146.344 418.725 146.344ZM418.725 147.208C418.373 147.208 418.057 147.284 417.777 147.436C417.497 147.588 417.273 147.8 417.105 148.072C416.945 148.344 416.865 148.656 416.865 149.008C416.865 149.368 416.945 149.684 417.105 149.956C417.273 150.22 417.497 150.428 417.777 150.58C418.057 150.732 418.373 150.808 418.725 150.808C419.077 150.808 419.393 150.732 419.673 150.58C419.961 150.428 420.185 150.22 420.345 149.956C420.505 149.684 420.585 149.368 420.585 149.008C420.585 148.656 420.505 148.344 420.345 148.072C420.185 147.8 419.961 147.588 419.673 147.436C419.393 147.284 419.077 147.208 418.725 147.208ZM426.692 150.736H436.496V151.552H426.692V150.736ZM431.588 152.488C432.748 152.488 433.656 152.66 434.312 153.004C434.968 153.348 435.296 153.832 435.296 154.456C435.296 155.08 434.968 155.56 434.312 155.896C433.656 156.24 432.748 156.412 431.588 156.412C430.428 156.412 429.516 156.24 428.852 155.896C428.196 155.56 427.868 155.08 427.868 154.456C427.868 153.832 428.196 153.348 428.852 153.004C429.516 152.66 430.428 152.488 431.588 152.488ZM431.588 153.28C431.02 153.28 430.532 153.324 430.124 153.412C429.724 153.5 429.416 153.632 429.2 153.808C428.984 153.984 428.876 154.2 428.876 154.456C428.876 154.704 428.984 154.916 429.2 155.092C429.416 155.26 429.724 155.392 430.124 155.488C430.532 155.576 431.02 155.62 431.588 155.62C432.156 155.62 432.64 155.576 433.04 155.488C433.448 155.392 433.76 155.26 433.976 155.092C434.192 154.916 434.3 154.704 434.3 154.456C434.3 154.2 434.192 153.984 433.976 153.808C433.76 153.632 433.448 153.5 433.04 153.412C432.64 153.324 432.156 153.28 431.588 153.28ZM430.952 146.56H431.828V146.884C431.828 147.236 431.752 147.564 431.6 147.868C431.456 148.164 431.252 148.436 430.988 148.684C430.724 148.932 430.412 149.152 430.052 149.344C429.7 149.536 429.316 149.696 428.9 149.824C428.484 149.944 428.048 150.032 427.592 150.088L427.232 149.296C427.624 149.256 428 149.184 428.36 149.08C428.728 148.976 429.068 148.852 429.38 148.708C429.7 148.556 429.976 148.388 430.208 148.204C430.44 148.012 430.62 147.808 430.748 147.592C430.884 147.368 430.952 147.132 430.952 146.884V146.56ZM431.36 146.56H432.236V146.884C432.236 147.132 432.3 147.368 432.428 147.592C432.564 147.808 432.748 148.012 432.98 148.204C433.212 148.396 433.484 148.568 433.796 148.72C434.116 148.864 434.456 148.988 434.816 149.092C435.184 149.188 435.564 149.256 435.956 149.296L435.596 150.088C435.14 150.032 434.704 149.944 434.288 149.824C433.872 149.696 433.484 149.536 433.124 149.344C432.772 149.152 432.464 148.932 432.2 148.684C431.936 148.436 431.728 148.16 431.576 147.856C431.432 147.552 431.36 147.228 431.36 146.884V146.56ZM427.592 146.128H435.608V146.944H427.592V146.128ZM439.551 154.307L439.483 154.767C439.435 155.091 439.361 155.438 439.262 155.807C439.165 156.176 439.064 156.524 438.959 156.851C438.854 157.178 438.767 157.438 438.699 157.631H437.932C437.969 157.449 438.017 157.209 438.077 156.911C438.137 156.612 438.196 156.278 438.256 155.909C438.318 155.543 438.369 155.168 438.409 154.784L438.46 154.307H439.551ZM452.365 145.588H453.361V153.508H452.365V145.588ZM446.389 155.38H453.697V156.196H446.389V155.38ZM446.389 152.704H447.385V155.656H446.389V152.704ZM447.541 146.344C448.085 146.344 448.569 146.456 448.993 146.68C449.417 146.904 449.753 147.22 450.001 147.628C450.249 148.028 450.373 148.488 450.373 149.008C450.373 149.528 450.249 149.992 450.001 150.4C449.753 150.8 449.417 151.116 448.993 151.348C448.569 151.572 448.085 151.684 447.541 151.684C447.005 151.684 446.521 151.572 446.089 151.348C445.665 151.116 445.329 150.8 445.081 150.4C444.833 149.992 444.709 149.528 444.709 149.008C444.709 148.488 444.833 148.028 445.081 147.628C445.329 147.22 445.665 146.904 446.089 146.68C446.521 146.456 447.005 146.344 447.541 146.344ZM447.541 147.208C447.189 147.208 446.873 147.284 446.593 147.436C446.313 147.588 446.089 147.8 445.921 148.072C445.761 148.344 445.681 148.656 445.681 149.008C445.681 149.368 445.761 149.684 445.921 149.956C446.089 150.22 446.313 150.428 446.593 150.58C446.873 150.732 447.189 150.808 447.541 150.808C447.893 150.808 448.209 150.732 448.489 150.58C448.777 150.428 449.001 150.22 449.161 149.956C449.321 149.684 449.401 149.368 449.401 149.008C449.401 148.656 449.321 148.344 449.161 148.072C449.001 147.8 448.777 147.588 448.489 147.436C448.209 147.284 447.893 147.208 447.541 147.208ZM462.852 145.576H463.848V156.424H462.852V145.576ZM463.584 149.98H465.576V150.808H463.584V149.98ZM460.08 146.74H461.052C461.052 147.772 460.884 148.76 460.548 149.704C460.212 150.64 459.684 151.508 458.964 152.308C458.244 153.1 457.296 153.788 456.12 154.372L455.568 153.604C456.576 153.1 457.412 152.512 458.076 151.84C458.748 151.16 459.248 150.408 459.576 149.584C459.912 148.752 460.08 147.856 460.08 146.896V146.74ZM456.072 146.74H460.584V147.568H456.072V146.74Z" fill="#525252"/>
<path d="M423.549 176.588H424.545V184.508H423.549V176.588ZM417.573 186.38H424.881V187.196H417.573V186.38ZM417.573 183.704H418.569V186.656H417.573V183.704ZM418.725 177.344C419.269 177.344 419.753 177.456 420.177 177.68C420.601 177.904 420.937 178.22 421.185 178.628C421.433 179.028 421.557 179.488 421.557 180.008C421.557 180.528 421.433 180.992 421.185 181.4C420.937 181.8 420.601 182.116 420.177 182.348C419.753 182.572 419.269 182.684 418.725 182.684C418.189 182.684 417.705 182.572 417.273 182.348C416.849 182.116 416.513 181.8 416.265 181.4C416.017 180.992 415.893 180.528 415.893 180.008C415.893 179.488 416.017 179.028 416.265 178.628C416.513 178.22 416.849 177.904 417.273 177.68C417.705 177.456 418.189 177.344 418.725 177.344ZM418.725 178.208C418.373 178.208 418.057 178.284 417.777 178.436C417.497 178.588 417.273 178.8 417.105 179.072C416.945 179.344 416.865 179.656 416.865 180.008C416.865 180.368 416.945 180.684 417.105 180.956C417.273 181.22 417.497 181.428 417.777 181.58C418.057 181.732 418.373 181.808 418.725 181.808C419.077 181.808 419.393 181.732 419.673 181.58C419.961 181.428 420.185 181.22 420.345 180.956C420.505 180.684 420.585 180.368 420.585 180.008C420.585 179.656 420.505 179.344 420.345 179.072C420.185 178.8 419.961 178.588 419.673 178.436C419.393 178.284 419.077 178.208 418.725 178.208ZM426.692 181.736H436.496V182.552H426.692V181.736ZM431.588 183.488C432.748 183.488 433.656 183.66 434.312 184.004C434.968 184.348 435.296 184.832 435.296 185.456C435.296 186.08 434.968 186.56 434.312 186.896C433.656 187.24 432.748 187.412 431.588 187.412C430.428 187.412 429.516 187.24 428.852 186.896C428.196 186.56 427.868 186.08 427.868 185.456C427.868 184.832 428.196 184.348 428.852 184.004C429.516 183.66 430.428 183.488 431.588 183.488ZM431.588 184.28C431.02 184.28 430.532 184.324 430.124 184.412C429.724 184.5 429.416 184.632 429.2 184.808C428.984 184.984 428.876 185.2 428.876 185.456C428.876 185.704 428.984 185.916 429.2 186.092C429.416 186.26 429.724 186.392 430.124 186.488C430.532 186.576 431.02 186.62 431.588 186.62C432.156 186.62 432.64 186.576 433.04 186.488C433.448 186.392 433.76 186.26 433.976 186.092C434.192 185.916 434.3 185.704 434.3 185.456C434.3 185.2 434.192 184.984 433.976 184.808C433.76 184.632 433.448 184.5 433.04 184.412C432.64 184.324 432.156 184.28 431.588 184.28ZM430.952 177.56H431.828V177.884C431.828 178.236 431.752 178.564 431.6 178.868C431.456 179.164 431.252 179.436 430.988 179.684C430.724 179.932 430.412 180.152 430.052 180.344C429.7 180.536 429.316 180.696 428.9 180.824C428.484 180.944 428.048 181.032 427.592 181.088L427.232 180.296C427.624 180.256 428 180.184 428.36 180.08C428.728 179.976 429.068 179.852 429.38 179.708C429.7 179.556 429.976 179.388 430.208 179.204C430.44 179.012 430.62 178.808 430.748 178.592C430.884 178.368 430.952 178.132 430.952 177.884V177.56ZM431.36 177.56H432.236V177.884C432.236 178.132 432.3 178.368 432.428 178.592C432.564 178.808 432.748 179.012 432.98 179.204C433.212 179.396 433.484 179.568 433.796 179.72C434.116 179.864 434.456 179.988 434.816 180.092C435.184 180.188 435.564 180.256 435.956 180.296L435.596 181.088C435.14 181.032 434.704 180.944 434.288 180.824C433.872 180.696 433.484 180.536 433.124 180.344C432.772 180.152 432.464 179.932 432.2 179.684C431.936 179.436 431.728 179.16 431.576 178.856C431.432 178.552 431.36 178.228 431.36 177.884V177.56ZM427.592 177.128H435.608V177.944H427.592V177.128ZM439.551 185.307L439.483 185.767C439.435 186.091 439.361 186.438 439.262 186.807C439.165 187.176 439.064 187.524 438.959 187.851C438.854 188.178 438.767 188.438 438.699 188.631H437.932C437.969 188.449 438.017 188.209 438.077 187.911C438.137 187.612 438.196 187.278 438.256 186.909C438.318 186.543 438.369 186.168 438.409 185.784L438.46 185.307H439.551ZM452.365 176.588H453.361V184.508H452.365V176.588ZM446.389 186.38H453.697V187.196H446.389V186.38ZM446.389 183.704H447.385V186.656H446.389V183.704ZM447.541 177.344C448.085 177.344 448.569 177.456 448.993 177.68C449.417 177.904 449.753 178.22 450.001 178.628C450.249 179.028 450.373 179.488 450.373 180.008C450.373 180.528 450.249 180.992 450.001 181.4C449.753 181.8 449.417 182.116 448.993 182.348C448.569 182.572 448.085 182.684 447.541 182.684C447.005 182.684 446.521 182.572 446.089 182.348C445.665 182.116 445.329 181.8 445.081 181.4C444.833 180.992 444.709 180.528 444.709 180.008C444.709 179.488 444.833 179.028 445.081 178.628C445.329 178.22 445.665 177.904 446.089 177.68C446.521 177.456 447.005 177.344 447.541 177.344ZM447.541 178.208C447.189 178.208 446.873 178.284 446.593 178.436C446.313 178.588 446.089 178.8 445.921 179.072C445.761 179.344 445.681 179.656 445.681 180.008C445.681 180.368 445.761 180.684 445.921 180.956C446.089 181.22 446.313 181.428 446.593 181.58C446.873 181.732 447.189 181.808 447.541 181.808C447.893 181.808 448.209 181.732 448.489 181.58C448.777 181.428 449.001 181.22 449.161 180.956C449.321 180.684 449.401 180.368 449.401 180.008C449.401 179.656 449.321 179.344 449.161 179.072C449.001 178.8 448.777 178.588 448.489 178.436C448.209 178.284 447.893 178.208 447.541 178.208ZM462.852 176.576H463.848V187.424H462.852V176.576ZM463.584 180.98H465.576V181.808H463.584V180.98ZM460.08 177.74H461.052C461.052 178.772 460.884 179.76 460.548 180.704C460.212 181.64 459.684 182.508 458.964 183.308C458.244 184.1 457.296 184.788 456.12 185.372L455.568 184.604C456.576 184.1 457.412 183.512 458.076 182.84C458.748 182.16 459.248 181.408 459.576 180.584C459.912 179.752 460.08 178.856 460.08 177.896V177.74ZM456.072 177.74H460.584V178.568H456.072V177.74Z" fill="#525252"/>
<path d="M318.5 113.5L308.5 107.726V119.274L318.5 113.5ZM243.5 113.5V114.5H309.5V113.5V112.5H243.5V113.5Z" fill="#A3A3A3"/>
<path d="M601.363 96.9949L601.363 100.007L600.547 100.007L600.547 96.9947L601.363 96.9949ZM604.111 94.3672L604.111 95.1832L602.167 95.183C601.567 95.1829 600.975 95.1068 600.391 94.9547C599.807 94.8106 599.263 94.6026 598.759 94.3305C598.256 94.0584 597.808 93.7384 597.416 93.3703C597.024 93.0103 596.712 92.6142 596.48 92.1822L597.284 91.5583C597.476 91.9583 597.744 92.3264 598.088 92.6624C598.432 93.0064 598.824 93.3065 599.264 93.5626C599.712 93.8186 600.18 94.0147 600.668 94.1508C601.163 94.2948 601.663 94.3669 602.167 94.367L604.111 94.3672ZM604.111 94.5712L604.111 95.3752L602.167 95.375C601.679 95.3749 601.195 95.4428 600.715 95.5788C600.235 95.7227 599.783 95.9226 599.359 96.1786C598.943 96.4345 598.571 96.7305 598.243 97.0664C597.915 97.4104 597.659 97.7783 597.475 98.1703L596.671 97.5702C596.895 97.1382 597.195 96.7383 597.571 96.3703C597.947 96.0024 598.379 95.6824 598.867 95.4105C599.355 95.1466 599.879 94.9386 600.439 94.7867C600.999 94.6428 601.575 94.5709 602.167 94.571L604.111 94.5712ZM605.047 99.5154L605.047 100.499L594.175 100.498L594.175 99.5139L605.047 99.5154ZM605.045 110.494L605.045 111.49L594.173 111.489L594.173 110.493L605.045 110.494ZM604.122 103.222L604.122 104.218L601.266 104.218L601.266 107.35L604.122 107.35L604.122 108.334L596.79 108.333L596.79 103.221L604.122 103.222ZM600.474 104.218L597.618 104.217L597.618 107.349L600.474 107.35L600.474 104.218ZM604.3 117.993L604.3 118.869L603.46 118.869C602.988 118.869 602.54 118.785 602.116 118.617C601.692 118.457 601.296 118.233 600.928 117.945C600.568 117.665 600.244 117.337 599.956 116.961C599.668 116.593 599.424 116.197 599.225 115.773C599.025 115.357 598.873 114.933 598.769 114.501L599.597 114.057C599.677 114.433 599.801 114.809 599.969 115.185C600.137 115.569 600.34 115.929 600.58 116.265C600.828 116.601 601.104 116.897 601.408 117.153C601.712 117.417 602.036 117.621 602.38 117.765C602.732 117.917 603.092 117.993 603.46 117.993L604.3 117.993ZM604.3 118.185L604.3 119.037L603.46 119.037C603.092 119.037 602.732 119.113 602.38 119.265C602.036 119.417 601.712 119.621 601.408 119.877C601.104 120.141 600.828 120.441 600.58 120.777C600.34 121.113 600.132 121.469 599.956 121.845C599.788 122.229 599.668 122.613 599.595 122.997L598.768 122.541C598.872 122.109 599.024 121.685 599.224 121.269C599.424 120.853 599.668 120.457 599.956 120.081C600.244 119.713 600.568 119.385 600.928 119.097C601.296 118.809 601.692 118.585 602.116 118.425C602.54 118.265 602.988 118.185 603.46 118.185L604.3 118.185ZM596.477 113.648L596.475 123.488L595.647 123.488L595.649 113.648L596.477 113.648ZM603.783 128.447L603.782 132.587L597.098 132.586L597.099 128.446L603.783 128.447ZM602.99 131.651L602.991 129.383L597.891 129.383L597.89 131.651L602.99 131.651ZM605.042 136.332L605.042 137.292L594.182 137.29L594.182 136.33L605.042 136.332ZM600.95 132.095L600.95 134.591L600.134 134.591L600.134 132.095L600.95 132.095ZM604.814 134.172L604.814 135.12L594.734 135.118L594.734 134.17L604.814 134.172ZM604.105 141.958L604.105 142.786L602.161 142.786C601.537 142.786 600.929 142.706 600.337 142.546C599.753 142.394 599.205 142.174 598.693 141.886C598.189 141.606 597.741 141.274 597.349 140.89C596.965 140.513 596.661 140.101 596.437 139.653L597.265 139.042C597.449 139.45 597.713 139.83 598.057 140.182C598.401 140.534 598.789 140.842 599.221 141.106C599.661 141.37 600.133 141.578 600.637 141.73C601.141 141.882 601.649 141.958 602.161 141.958L604.105 141.958ZM604.105 142.126L604.105 142.954L602.161 142.954C601.665 142.954 601.177 143.026 600.697 143.17C600.217 143.322 599.761 143.53 599.329 143.794C598.905 144.066 598.529 144.374 598.2 144.718C597.88 145.07 597.628 145.446 597.444 145.846L596.652 145.245C596.86 144.805 597.153 144.398 597.529 144.022C597.905 143.646 598.337 143.314 598.825 143.026C599.313 142.746 599.841 142.526 600.409 142.366C600.977 142.206 601.561 142.126 602.161 142.126L604.105 142.126ZM605.04 146.987L605.04 147.983L594.168 147.981L594.168 146.985L605.04 146.987ZM605.039 157.486L605.039 158.482L594.191 158.48L594.191 157.484L605.039 157.486ZM600.635 158.217L600.634 160.209L599.806 160.209L599.807 158.217L600.635 158.217ZM603.875 154.714L603.875 155.686C602.843 155.685 601.855 155.517 600.911 155.181C599.975 154.845 599.107 154.317 598.307 153.597C597.515 152.877 596.827 151.929 596.244 150.752L597.012 150.201C597.516 151.209 598.103 152.045 598.775 152.709C599.455 153.381 600.207 153.881 601.031 154.209C601.863 154.545 602.759 154.713 603.719 154.713L603.875 154.714ZM603.876 150.706L603.875 155.218L603.047 155.217L603.048 150.705L603.876 150.706ZM604.198 165.144L604.197 169.944L603.369 169.944L603.37 165.144L604.198 165.144ZM601.773 166.775L601.773 167.759L599.061 167.759L599.061 166.775L601.773 166.775ZM604.197 169.548L604.197 170.52L603.621 170.52C603.261 170.519 602.813 170.507 602.277 170.483C601.741 170.467 601.117 170.387 600.405 170.243L600.501 169.259C601.221 169.403 601.833 169.487 602.337 169.511C602.841 169.535 603.269 169.547 603.621 169.548L604.197 169.548ZM605.037 171.996L605.037 173.004L596.865 173.003L596.865 171.995L605.037 171.996ZM601.509 172.547L601.508 174.551L600.668 174.551L600.669 172.547L601.509 172.547ZM595.233 166.138L595.232 173.35L594.416 173.35L594.417 166.138L595.233 166.138ZM597.609 166.139L597.609 167.135L594.993 167.134L594.993 166.138L597.609 166.139ZM598.594 164.591L599.41 164.483C599.41 165.123 599.418 165.831 599.433 166.607C599.449 167.383 599.481 168.171 599.529 168.971C599.585 169.771 599.661 170.539 599.757 171.275L599.025 171.335C598.897 170.591 598.801 169.819 598.737 169.019C598.673 168.219 598.633 167.439 598.617 166.679C598.602 165.927 598.594 165.231 598.594 164.591ZM605.035 183.503L605.035 184.487L594.163 184.485L594.163 183.501L605.035 183.503ZM597.62 176.218L597.62 177.118C597.62 177.734 597.628 178.326 597.644 178.894C597.668 179.47 597.708 180.05 597.763 180.634C597.819 181.226 597.899 181.842 598.003 182.482L597.187 182.578C597.027 181.602 596.919 180.682 596.864 179.818C596.816 178.954 596.792 178.054 596.792 177.118L596.792 176.218L597.62 176.218ZM604.028 176.195L604.027 181.211L600.151 181.21L600.152 177.226L597.308 177.226L597.308 176.218L600.956 176.218L600.956 180.202L603.212 180.203L603.212 176.195L604.028 176.195Z" fill="#525252"/>
<path d="M568.941 48.8184C586.604 48.8184 565.104 137 586.604 137" stroke="#A3A3A3" stroke-width="2"/>
<path d="M586.104 137C565.104 137 586.104 226.485 568.809 226.485" stroke="#A3A3A3" stroke-width="2"/>
</svg>
