<svg width="676" height="280" viewBox="0 0 676 280" fill="none" xmlns="http://www.w3.org/2000/svg">
<rect x="462.5" y="0.5" width="193" height="279" rx="18.5" fill="white" stroke="#D4D4D4"/>
<path d="M549.261 18.008H556.773V18.824H549.261V18.008ZM548.061 21.716H557.901V22.532H548.061V21.716ZM552.465 18.5H553.461V21.968H552.465V18.5ZM549.261 14H550.269V18.356H549.261V14ZM560.348 18.284H567.8V19.1H560.348V18.284ZM559.1 21.632H568.94V22.46H559.1V21.632ZM560.348 14.084H567.692V14.9H561.332V18.644H560.348V14.084Z" fill="#171717"/>
<rect x="468.5" y="124.5" width="180" height="64" rx="18.5" fill="white" stroke="#D4D4D4"/>
<path d="M620.5 137.75C630.855 137.75 639.25 146.145 639.25 156.5C639.25 166.855 630.855 175.25 620.5 175.25H497.5C487.145 175.25 478.75 166.855 478.75 156.5C478.75 146.145 487.145 137.75 497.5 137.75H620.5Z" fill="#F7F7F7" stroke="#D4D4D4" stroke-width="0.5"/>
<rect x="468.5" y="203.5" width="180" height="62" rx="18.5" fill="white" stroke="#D4D4D4"/>
<path d="M620.5 216.75C630.855 216.75 639.25 225.145 639.25 235.5C639.25 245.855 630.855 254.25 620.5 254.25H497.5C487.145 254.25 478.75 245.855 478.75 235.5C478.75 225.145 487.145 216.75 497.5 216.75H620.5Z" fill="#F7F7F7" stroke="#D4D4D4" stroke-width="0.5"/>
<path d="M537.366 240V239.233L541.082 234.46V234.392H537.485V233.455H542.377V234.256L538.763 238.994V239.062H542.496V240H537.366ZM543.294 232.21V231.273H549.84V232.21H547.096V240H546.039V232.21H543.294ZM554.569 237.324V233.455H555.575V240H554.569V238.892H554.501C554.347 239.224 554.109 239.507 553.785 239.74C553.461 239.97 553.052 240.085 552.558 240.085C552.148 240.085 551.785 239.996 551.467 239.817C551.148 239.635 550.898 239.362 550.717 238.999C550.535 238.632 550.444 238.17 550.444 237.614V233.455H551.45V237.545C551.45 238.023 551.583 238.403 551.85 238.688C552.12 238.972 552.464 239.114 552.881 239.114C553.131 239.114 553.386 239.05 553.644 238.922C553.906 238.794 554.124 238.598 554.3 238.334C554.479 238.07 554.569 237.733 554.569 237.324ZM558.422 236.062V240H557.417V233.455H558.388V234.477H558.473C558.627 234.145 558.86 233.878 559.172 233.676C559.485 233.472 559.888 233.369 560.382 233.369C560.826 233.369 561.213 233.46 561.546 233.642C561.878 233.821 562.137 234.094 562.321 234.46C562.506 234.824 562.598 235.284 562.598 235.841V240H561.593V235.909C561.593 235.395 561.459 234.994 561.192 234.707C560.925 234.418 560.559 234.273 560.093 234.273C559.772 234.273 559.485 234.342 559.232 234.482C558.982 234.621 558.784 234.824 558.64 235.091C558.495 235.358 558.422 235.682 558.422 236.062ZM565.442 236.062V240H564.436V233.455H565.408V234.477H565.493C565.646 234.145 565.879 233.878 566.192 233.676C566.504 233.472 566.908 233.369 567.402 233.369C567.845 233.369 568.233 233.46 568.565 233.642C568.898 233.821 569.156 234.094 569.341 234.46C569.526 234.824 569.618 235.284 569.618 235.841V240H568.612V235.909C568.612 235.395 568.479 234.994 568.212 234.707C567.945 234.418 567.578 234.273 567.112 234.273C566.791 234.273 566.504 234.342 566.251 234.482C566.001 234.621 565.804 234.824 565.659 235.091C565.514 235.358 565.442 235.682 565.442 236.062ZM574.2 240.136C573.569 240.136 573.025 239.997 572.568 239.719C572.113 239.438 571.762 239.045 571.515 238.543C571.271 238.037 571.149 237.449 571.149 236.778C571.149 236.108 571.271 235.517 571.515 235.006C571.762 234.491 572.106 234.091 572.547 233.804C572.99 233.514 573.507 233.369 574.098 233.369C574.439 233.369 574.775 233.426 575.108 233.54C575.44 233.653 575.743 233.838 576.015 234.094C576.288 234.347 576.505 234.682 576.667 235.099C576.829 235.517 576.91 236.031 576.91 236.642V237.068H571.865V236.199H575.887C575.887 235.83 575.814 235.5 575.666 235.21C575.521 234.92 575.314 234.692 575.044 234.524C574.777 234.357 574.461 234.273 574.098 234.273C573.697 234.273 573.35 234.372 573.058 234.571C572.768 234.767 572.545 235.023 572.389 235.338C572.233 235.653 572.154 235.991 572.154 236.352V236.932C572.154 237.426 572.24 237.845 572.41 238.189C572.583 238.53 572.824 238.79 573.13 238.969C573.437 239.145 573.794 239.233 574.2 239.233C574.464 239.233 574.703 239.196 574.916 239.122C575.132 239.045 575.318 238.932 575.474 238.781C575.63 238.628 575.751 238.437 575.836 238.21L576.808 238.483C576.706 238.812 576.534 239.102 576.292 239.352C576.051 239.599 575.752 239.793 575.397 239.932C575.042 240.068 574.643 240.136 574.2 240.136ZM579.446 231.273V240H578.44V231.273H579.446Z" fill="#171717"/>
<rect x="468.5" y="47.5" width="180" height="62" rx="18.5" fill="white" stroke="#D4D4D4"/>
<path d="M620.5 60.75C630.855 60.75 639.25 69.1447 639.25 79.5C639.25 89.8553 630.855 98.25 620.5 98.25H497.5C487.145 98.25 478.75 89.8553 478.75 79.5C478.75 69.1447 487.145 60.75 497.5 60.75H620.5Z" fill="#F7F7F7" stroke="#D4D4D4" stroke-width="0.5"/>
<path d="M534.226 73.772C534.69 73.772 535.098 73.856 535.45 74.024C535.802 74.192 536.078 74.428 536.278 74.732C536.486 75.028 536.59 75.376 536.59 75.776C536.59 76.168 536.486 76.516 536.278 76.82C536.078 77.124 535.802 77.36 535.45 77.528C535.098 77.696 534.694 77.78 534.238 77.78C533.782 77.78 533.374 77.696 533.014 77.528C532.662 77.36 532.382 77.124 532.174 76.82C531.974 76.516 531.874 76.168 531.874 75.776C531.874 75.376 531.974 75.028 532.174 74.732C532.382 74.428 532.662 74.192 533.014 74.024C533.374 73.856 533.778 73.772 534.226 73.772ZM534.238 74.528C533.95 74.528 533.694 74.584 533.47 74.696C533.254 74.8 533.082 74.944 532.954 75.128C532.834 75.312 532.774 75.528 532.774 75.776C532.774 76.016 532.834 76.232 532.954 76.424C533.082 76.608 533.254 76.756 533.47 76.868C533.694 76.972 533.95 77.024 534.238 77.024C534.518 77.024 534.766 76.972 534.982 76.868C535.206 76.756 535.382 76.608 535.51 76.424C535.638 76.232 535.702 76.016 535.702 75.776C535.702 75.528 535.638 75.312 535.51 75.128C535.382 74.944 535.21 74.8 534.994 74.696C534.778 74.584 534.526 74.528 534.238 74.528ZM539.734 73.076H540.682V83.936H539.734V73.076ZM537.682 73.316H538.618V83.36H537.682V73.316ZM535.666 80.192H538.03V80.972H535.666V80.192ZM533.71 79.04H534.658V83.048H533.71V79.04ZM531.49 79.448L531.358 78.608C531.734 78.608 532.154 78.608 532.618 78.608C533.082 78.6 533.566 78.588 534.07 78.572C534.582 78.548 535.086 78.516 535.582 78.476C536.086 78.436 536.558 78.384 536.998 78.32L537.07 79.064C536.462 79.184 535.818 79.272 535.138 79.328C534.466 79.376 533.81 79.408 533.17 79.424C532.538 79.44 531.978 79.448 531.49 79.448ZM550.425 73.076H551.421V83.948H550.425V73.076ZM545.697 73.916C546.233 73.916 546.705 74.072 547.113 74.384C547.529 74.688 547.853 75.124 548.085 75.692C548.325 76.26 548.445 76.928 548.445 77.696C548.445 78.464 548.325 79.132 548.085 79.7C547.853 80.268 547.529 80.708 547.113 81.02C546.705 81.332 546.233 81.488 545.697 81.488C545.161 81.488 544.685 81.332 544.269 81.02C543.853 80.708 543.525 80.268 543.285 79.7C543.053 79.132 542.937 78.464 542.937 77.696C542.937 76.928 543.053 76.26 543.285 75.692C543.525 75.124 543.853 74.688 544.269 74.384C544.685 74.072 545.161 73.916 545.697 73.916ZM545.697 74.804C545.337 74.804 545.021 74.924 544.749 75.164C544.485 75.396 544.277 75.732 544.125 76.172C543.973 76.604 543.897 77.112 543.897 77.696C543.897 78.28 543.973 78.792 544.125 79.232C544.277 79.664 544.485 80 544.749 80.24C545.021 80.48 545.337 80.6 545.697 80.6C546.049 80.6 546.357 80.48 546.621 80.24C546.893 80 547.105 79.664 547.257 79.232C547.409 78.792 547.485 78.28 547.485 77.696C547.485 77.112 547.409 76.604 547.257 76.172C547.105 75.732 546.893 75.396 546.621 75.164C546.357 74.924 546.049 74.804 545.697 74.804ZM553.58 81.752H563.42V82.592H553.58V81.752ZM557.972 78.944H558.956V82.124H557.972V78.944ZM554.444 74.12H562.496V74.936H554.444V74.12ZM554.468 78.488H562.472V79.28H554.468V78.488ZM556.124 74.768H557.12V78.62H556.124V74.768ZM559.82 74.768H560.804V78.62H559.82V74.768ZM572.516 73.088H573.512V81.008H572.516V73.088ZM566.54 82.88H573.848V83.696H566.54V82.88ZM566.54 80.204H567.536V83.156H566.54V80.204ZM567.692 73.844C568.236 73.844 568.72 73.956 569.144 74.18C569.568 74.404 569.904 74.72 570.152 75.128C570.4 75.528 570.524 75.988 570.524 76.508C570.524 77.028 570.4 77.492 570.152 77.9C569.904 78.3 569.568 78.616 569.144 78.848C568.72 79.072 568.236 79.184 567.692 79.184C567.156 79.184 566.672 79.072 566.24 78.848C565.816 78.616 565.48 78.3 565.232 77.9C564.984 77.492 564.86 77.028 564.86 76.508C564.86 75.988 564.984 75.528 565.232 75.128C565.48 74.72 565.816 74.404 566.24 74.18C566.672 73.956 567.156 73.844 567.692 73.844ZM567.692 74.708C567.34 74.708 567.024 74.784 566.744 74.936C566.464 75.088 566.24 75.3 566.072 75.572C565.912 75.844 565.832 76.156 565.832 76.508C565.832 76.868 565.912 77.184 566.072 77.456C566.24 77.72 566.464 77.928 566.744 78.08C567.024 78.232 567.34 78.308 567.692 78.308C568.044 78.308 568.36 78.232 568.64 78.08C568.928 77.928 569.152 77.72 569.312 77.456C569.472 77.184 569.552 76.868 569.552 76.508C569.552 76.156 569.472 75.844 569.312 75.572C569.152 75.3 568.928 75.088 568.64 74.936C568.36 74.784 568.044 74.708 567.692 74.708ZM576.919 78.932H584.371V79.736H576.919V78.932ZM575.659 81.704H585.499V82.532H575.659V81.704ZM576.919 74.012H584.263V74.828H577.927V79.172H576.919V74.012ZM577.615 76.424H584.023V77.228H577.615V76.424Z" fill="#171717"/>
<path d="M599.271 78.5552L599.301 79.8141L600.642 80.6366L600.611 79.3777L599.271 78.5552ZM602.542 83.798L602.512 82.564L601.336 81.8411C601.322 81.8309 601.301 81.8161 601.287 81.8062L601.317 83.0449L602.542 83.798ZM598.356 85.4632L595.291 83.5799L595.215 80.4231L596.721 79.7792L596.691 78.5156L594.29 79.5415C594.106 79.6206 593.996 79.7892 594 79.9826L594.09 83.7733C594.096 83.9666 594.216 84.16 594.406 84.2788L598.081 86.5387C598.251 86.6427 598.462 86.6728 598.631 86.6178C598.649 86.6145 598.666 86.6079 598.681 86.5984L600.937 85.6371L599.712 84.8838L598.356 85.4632Z" fill="#B31AAB"/>
<path d="M608.263 78.4807C608.258 78.2525 608.118 78.0295 607.898 77.8912L603.432 75.1506L603.292 75.2098L603.323 76.5377L606.858 78.7084L606.943 82.2573L608.294 83.0844L608.368 83.0548L608.263 78.4807ZM602.917 84.7098L598.771 82.1628L598.671 77.886L600.562 77.0782L600.527 75.6066L597.591 76.8601C597.376 76.9541 597.246 77.1475 597.251 77.3757L597.366 82.391C597.371 82.6186 597.511 82.8422 597.731 82.9758L602.592 85.9641C602.792 86.0884 603.032 86.1178 603.237 86.0582C603.257 86.0534 603.277 86.0434 603.297 86.0332L606.168 84.8095L604.738 83.9326L602.917 84.7098Z" fill="#D163CE"/>
<path d="M614.579 74.9721L608.348 71.141C608.118 71.0021 607.843 70.9626 607.608 71.037C607.583 71.0418 607.563 71.0518 607.538 71.0619L601.457 73.6589C601.212 73.7629 601.062 73.9858 601.067 74.2483L601.222 80.6714C601.227 80.9339 601.387 81.1864 601.642 81.34L607.873 85.1663C608.103 85.3047 608.378 85.3442 608.608 85.2705C608.633 85.2651 608.653 85.255 608.678 85.2455L614.759 82.6485C615.005 82.5445 615.154 82.3163 615.15 82.0585L614.999 75.636C614.994 75.3828 614.834 75.1257 614.579 74.9721ZM608.248 83.7389L602.832 80.4136L602.697 74.8284L607.978 72.5732L613.394 75.8985L613.529 81.4839L608.248 83.7389Z" fill="#E13EAF"/>
<rect x="0.5" y="87.5" width="382" height="192" rx="18.5" fill="white" stroke="#D4D4D4"/>
<path d="M181.261 106.008H188.773V106.824H181.261V106.008ZM180.061 109.716H189.901V110.532H180.061V109.716ZM184.465 106.5H185.461V109.968H184.465V106.5ZM181.261 102H182.269V106.356H181.261V102ZM192.348 106.284H199.8V107.1H192.348V106.284ZM191.1 109.632H200.94V110.46H191.1V109.632ZM192.348 102.084H199.692V102.9H193.332V106.644H192.348V102.084Z" fill="#171717"/>
<rect x="195.5" y="124.5" width="180" height="64" rx="18.5" fill="white" stroke="#D4D4D4"/>
<path d="M347.5 137.75C357.855 137.75 366.25 146.145 366.25 156.5C366.25 166.855 357.855 175.25 347.5 175.25H224.5C214.145 175.25 205.75 166.855 205.75 156.5C205.75 146.145 214.145 137.75 224.5 137.75H347.5Z" fill="#F7F7F7" stroke="#D4D4D4" stroke-width="0.5"/>
<rect x="8.5" y="124.5" width="180" height="64" rx="18.5" fill="white" stroke="#D4D4D4"/>
<path d="M160.5 137.75C170.855 137.75 179.25 146.145 179.25 156.5C179.25 166.855 170.855 175.25 160.5 175.25H37.5C27.1447 175.25 18.75 166.855 18.75 156.5C18.75 146.145 27.1447 137.75 37.5 137.75H160.5Z" fill="#F7F7F7" stroke="#D4D4D4" stroke-width="0.5"/>
<rect x="195.5" y="203.5" width="180" height="62" rx="18.5" fill="white" stroke="#D4D4D4"/>
<path d="M347.5 216.75C357.855 216.75 366.25 225.145 366.25 235.5C366.25 245.855 357.855 254.25 347.5 254.25H224.5C214.145 254.25 205.75 245.855 205.75 235.5C205.75 225.145 214.145 216.75 224.5 216.75H347.5Z" fill="#F7F7F7" stroke="#D4D4D4" stroke-width="0.5"/>
<path d="M264.366 240V239.233L268.082 234.46V234.392H264.485V233.455H269.377V234.256L265.763 238.994V239.062H269.496V240H264.366ZM270.294 232.21V231.273H276.84V232.21H274.096V240H273.039V232.21H270.294ZM281.569 237.324V233.455H282.575V240H281.569V238.892H281.501C281.347 239.224 281.109 239.507 280.785 239.74C280.461 239.97 280.052 240.085 279.558 240.085C279.148 240.085 278.785 239.996 278.467 239.817C278.148 239.635 277.898 239.362 277.717 238.999C277.535 238.632 277.444 238.17 277.444 237.614V233.455H278.45V237.545C278.45 238.023 278.583 238.403 278.85 238.688C279.12 238.972 279.464 239.114 279.881 239.114C280.131 239.114 280.386 239.05 280.644 238.922C280.906 238.794 281.124 238.598 281.3 238.334C281.479 238.07 281.569 237.733 281.569 237.324ZM285.422 236.062V240H284.417V233.455H285.388V234.477H285.473C285.627 234.145 285.86 233.878 286.172 233.676C286.485 233.472 286.888 233.369 287.382 233.369C287.826 233.369 288.213 233.46 288.546 233.642C288.878 233.821 289.137 234.094 289.321 234.46C289.506 234.824 289.598 235.284 289.598 235.841V240H288.593V235.909C288.593 235.395 288.459 234.994 288.192 234.707C287.925 234.418 287.559 234.273 287.093 234.273C286.772 234.273 286.485 234.342 286.232 234.482C285.982 234.621 285.784 234.824 285.64 235.091C285.495 235.358 285.422 235.682 285.422 236.062ZM292.442 236.062V240H291.436V233.455H292.408V234.477H292.493C292.646 234.145 292.879 233.878 293.192 233.676C293.504 233.472 293.908 233.369 294.402 233.369C294.845 233.369 295.233 233.46 295.565 233.642C295.898 233.821 296.156 234.094 296.341 234.46C296.526 234.824 296.618 235.284 296.618 235.841V240H295.612V235.909C295.612 235.395 295.479 234.994 295.212 234.707C294.945 234.418 294.578 234.273 294.112 234.273C293.791 234.273 293.504 234.342 293.251 234.482C293.001 234.621 292.804 234.824 292.659 235.091C292.514 235.358 292.442 235.682 292.442 236.062ZM301.2 240.136C300.569 240.136 300.025 239.997 299.568 239.719C299.113 239.438 298.762 239.045 298.515 238.543C298.271 238.037 298.149 237.449 298.149 236.778C298.149 236.108 298.271 235.517 298.515 235.006C298.762 234.491 299.106 234.091 299.547 233.804C299.99 233.514 300.507 233.369 301.098 233.369C301.439 233.369 301.775 233.426 302.108 233.54C302.44 233.653 302.743 233.838 303.015 234.094C303.288 234.347 303.505 234.682 303.667 235.099C303.829 235.517 303.91 236.031 303.91 236.642V237.068H298.865V236.199H302.887C302.887 235.83 302.814 235.5 302.666 235.21C302.521 234.92 302.314 234.692 302.044 234.524C301.777 234.357 301.461 234.273 301.098 234.273C300.697 234.273 300.35 234.372 300.058 234.571C299.768 234.767 299.545 235.023 299.389 235.338C299.233 235.653 299.154 235.991 299.154 236.352V236.932C299.154 237.426 299.24 237.845 299.41 238.189C299.583 238.53 299.824 238.79 300.13 238.969C300.437 239.145 300.794 239.233 301.2 239.233C301.464 239.233 301.703 239.196 301.916 239.122C302.132 239.045 302.318 238.932 302.474 238.781C302.63 238.628 302.751 238.437 302.836 238.21L303.808 238.483C303.706 238.812 303.534 239.102 303.292 239.352C303.051 239.599 302.752 239.793 302.397 239.932C302.042 240.068 301.643 240.136 301.2 240.136ZM306.446 231.273V240H305.44V231.273H306.446Z" fill="#171717"/>
<rect x="191.5" y="41.5" width="461" height="152" rx="18.5" stroke="#6A55F3" stroke-dasharray="2 2"/>
<path d="M202.499 52.24H203.495V58.6H202.499V52.24ZM202.499 58.324H203.195C203.827 58.324 204.447 58.304 205.055 58.264C205.671 58.216 206.319 58.12 206.999 57.976L207.143 58.828C206.431 58.98 205.759 59.08 205.127 59.128C204.503 59.168 203.859 59.188 203.195 59.188H202.499V58.324ZM210.251 51.076H211.211V61.936H210.251V51.076ZM205.523 54.724H208.223V55.54H205.523V54.724ZM207.947 51.34H208.895V61.384H207.947V51.34ZM220.918 51.088H221.914V57.28H220.918V51.088ZM214.906 57.868H221.914V61.792H214.906V57.868ZM220.942 58.672H215.878V60.976H220.942V58.672ZM216.094 51.652C216.646 51.652 217.134 51.76 217.558 51.976C217.982 52.192 218.314 52.492 218.554 52.876C218.802 53.252 218.926 53.692 218.926 54.196C218.926 54.692 218.802 55.132 218.554 55.516C218.314 55.892 217.982 56.188 217.558 56.404C217.134 56.62 216.646 56.728 216.094 56.728C215.55 56.728 215.062 56.62 214.63 56.404C214.206 56.188 213.87 55.892 213.622 55.516C213.382 55.132 213.262 54.692 213.262 54.196C213.262 53.692 213.382 53.252 213.622 52.876C213.87 52.492 214.206 52.192 214.63 51.976C215.062 51.76 215.55 51.652 216.094 51.652ZM216.094 52.492C215.742 52.492 215.426 52.564 215.146 52.708C214.866 52.852 214.642 53.052 214.474 53.308C214.314 53.556 214.234 53.852 214.234 54.196C214.234 54.524 214.314 54.816 214.474 55.072C214.642 55.328 214.866 55.528 215.146 55.672C215.426 55.816 215.742 55.888 216.094 55.888C216.454 55.888 216.774 55.816 217.054 55.672C217.334 55.528 217.554 55.328 217.714 55.072C217.874 54.816 217.954 54.524 217.954 54.196C217.954 53.852 217.874 53.556 217.714 53.308C217.554 53.052 217.334 52.852 217.054 52.708C216.774 52.564 216.454 52.492 216.094 52.492ZM228.405 51.82H229.281V52.66C229.281 53.132 229.197 53.58 229.029 54.004C228.869 54.428 228.645 54.824 228.357 55.192C228.077 55.552 227.749 55.876 227.373 56.164C227.005 56.452 226.609 56.696 226.185 56.896C225.769 57.096 225.345 57.248 224.913 57.352L224.469 56.524C224.845 56.444 225.221 56.32 225.597 56.152C225.981 55.984 226.341 55.78 226.677 55.54C227.013 55.292 227.309 55.016 227.565 54.712C227.829 54.408 228.033 54.084 228.177 53.74C228.329 53.388 228.405 53.028 228.405 52.66V51.82ZM228.597 51.82H229.449V52.66C229.449 53.028 229.525 53.388 229.677 53.74C229.829 54.084 230.033 54.408 230.289 54.712C230.553 55.016 230.853 55.292 231.189 55.54C231.525 55.78 231.881 55.988 232.257 56.164C232.641 56.332 233.025 56.452 233.409 56.524L232.953 57.352C232.521 57.248 232.097 57.096 231.681 56.896C231.265 56.696 230.869 56.452 230.493 56.164C230.125 55.876 229.797 55.552 229.509 55.192C229.221 54.824 228.997 54.428 228.837 54.004C228.677 53.58 228.597 53.132 228.597 52.66V51.82ZM224.061 59.644H233.901V60.472H224.061V59.644ZM243.404 51.076H244.364V61.936H243.404V51.076ZM239.84 55.204H241.628V56.092H239.84V55.204ZM241.304 51.34H242.252V61.36H241.304V51.34ZM235.208 52.456H240.152V53.272H235.208V52.456ZM235.1 59.26L234.98 58.42C235.34 58.42 235.744 58.42 236.192 58.42C236.64 58.412 237.108 58.4 237.596 58.384C238.084 58.36 238.568 58.332 239.048 58.3C239.528 58.26 239.976 58.212 240.392 58.156L240.464 58.9C239.896 59.004 239.284 59.084 238.628 59.14C237.98 59.188 237.348 59.22 236.732 59.236C236.116 59.252 235.572 59.26 235.1 59.26ZM236.096 52.984H237.008V58.66H236.096V52.984ZM238.34 52.984H239.264V58.66H238.34V52.984ZM254.023 51.076H255.019V61.948H254.023V51.076ZM249.295 51.916C249.831 51.916 250.303 52.072 250.711 52.384C251.127 52.688 251.451 53.124 251.683 53.692C251.923 54.26 252.043 54.928 252.043 55.696C252.043 56.464 251.923 57.132 251.683 57.7C251.451 58.268 251.127 58.708 250.711 59.02C250.303 59.332 249.831 59.488 249.295 59.488C248.759 59.488 248.283 59.332 247.867 59.02C247.451 58.708 247.123 58.268 246.883 57.7C246.651 57.132 246.535 56.464 246.535 55.696C246.535 54.928 246.651 54.26 246.883 53.692C247.123 53.124 247.451 52.688 247.867 52.384C248.283 52.072 248.759 51.916 249.295 51.916ZM249.295 52.804C248.935 52.804 248.619 52.924 248.347 53.164C248.083 53.396 247.875 53.732 247.723 54.172C247.571 54.604 247.495 55.112 247.495 55.696C247.495 56.28 247.571 56.792 247.723 57.232C247.875 57.664 248.083 58 248.347 58.24C248.619 58.48 248.935 58.6 249.295 58.6C249.647 58.6 249.955 58.48 250.219 58.24C250.491 58 250.703 57.664 250.855 57.232C251.007 56.792 251.083 56.28 251.083 55.696C251.083 55.112 251.007 54.604 250.855 54.172C250.703 53.732 250.491 53.396 250.219 53.164C249.955 52.924 249.647 52.804 249.295 52.804ZM261.522 51.82H262.398V52.66C262.398 53.132 262.314 53.58 262.146 54.004C261.986 54.428 261.762 54.824 261.474 55.192C261.194 55.552 260.866 55.876 260.49 56.164C260.122 56.452 259.726 56.696 259.302 56.896C258.886 57.096 258.462 57.248 258.03 57.352L257.586 56.524C257.962 56.444 258.338 56.32 258.714 56.152C259.098 55.984 259.458 55.78 259.794 55.54C260.13 55.292 260.426 55.016 260.682 54.712C260.946 54.408 261.15 54.084 261.294 53.74C261.446 53.388 261.522 53.028 261.522 52.66V51.82ZM261.714 51.82H262.566V52.66C262.566 53.028 262.642 53.388 262.794 53.74C262.946 54.084 263.15 54.408 263.406 54.712C263.67 55.016 263.97 55.292 264.306 55.54C264.642 55.78 264.998 55.988 265.374 56.164C265.758 56.332 266.142 56.452 266.526 56.524L266.07 57.352C265.638 57.248 265.214 57.096 264.798 56.896C264.382 56.696 263.986 56.452 263.61 56.164C263.242 55.876 262.914 55.552 262.626 55.192C262.338 54.824 262.114 54.428 261.954 54.004C261.794 53.58 261.714 53.132 261.714 52.66V51.82ZM257.178 59.644H267.018V60.472H257.178V59.644Z" fill="#6A55F3"/>
<path d="M407.262 203.076H408.258V209.34H407.262V203.076ZM407.982 205.74H409.854V206.556H407.982V205.74ZM401.442 209.868H408.258V213.792H401.442V209.868ZM407.274 210.672H402.414V212.976H407.274V210.672ZM402.858 203.724C403.41 203.724 403.898 203.832 404.322 204.048C404.746 204.264 405.078 204.564 405.318 204.948C405.566 205.332 405.69 205.776 405.69 206.28C405.69 206.792 405.566 207.24 405.318 207.624C405.078 208 404.746 208.296 404.322 208.512C403.898 208.728 403.41 208.836 402.858 208.836C402.322 208.836 401.838 208.728 401.406 208.512C400.982 208.296 400.646 208 400.398 207.624C400.15 207.24 400.026 206.792 400.026 206.28C400.026 205.776 400.15 205.332 400.398 204.948C400.646 204.564 400.982 204.264 401.406 204.048C401.838 203.832 402.322 203.724 402.858 203.724ZM402.858 204.564C402.506 204.564 402.19 204.64 401.91 204.792C401.63 204.936 401.406 205.136 401.238 205.392C401.078 205.648 400.998 205.944 400.998 206.28C400.998 206.624 401.078 206.924 401.238 207.18C401.406 207.436 401.63 207.636 401.91 207.78C402.19 207.924 402.506 207.996 402.858 207.996C403.218 207.996 403.538 207.924 403.818 207.78C404.098 207.636 404.318 207.436 404.478 207.18C404.646 206.924 404.73 206.624 404.73 206.28C404.73 205.944 404.646 205.648 404.478 205.392C404.318 205.136 404.098 204.936 403.818 204.792C403.538 204.64 403.218 204.564 402.858 204.564ZM411.353 204.672H420.173V205.488H411.353V204.672ZM410.873 211.848H420.713V212.664H410.873V211.848ZM415.277 210.12H416.261V212.16H415.277V210.12ZM415.769 206.208C416.497 206.208 417.125 206.292 417.653 206.46C418.189 206.62 418.601 206.852 418.889 207.156C419.177 207.46 419.321 207.832 419.321 208.272C419.321 208.704 419.177 209.076 418.889 209.388C418.601 209.7 418.189 209.94 417.653 210.108C417.125 210.268 416.497 210.348 415.769 210.348C415.041 210.348 414.409 210.268 413.873 210.108C413.345 209.94 412.937 209.7 412.649 209.388C412.361 209.076 412.217 208.704 412.217 208.272C412.217 207.832 412.361 207.46 412.649 207.156C412.937 206.852 413.345 206.62 413.873 206.46C414.409 206.292 415.041 206.208 415.769 206.208ZM415.769 207C415.241 207 414.785 207.052 414.401 207.156C414.025 207.252 413.733 207.396 413.525 207.588C413.325 207.772 413.225 208 413.225 208.272C413.225 208.536 413.325 208.764 413.525 208.956C413.733 209.148 414.025 209.296 414.401 209.4C414.785 209.496 415.241 209.544 415.769 209.544C416.297 209.544 416.749 209.496 417.125 209.4C417.501 209.296 417.793 209.148 418.001 208.956C418.209 208.764 418.313 208.536 418.313 208.272C418.313 208 418.209 207.772 418.001 207.588C417.793 207.396 417.501 207.252 417.125 207.156C416.749 207.052 416.297 207 415.769 207ZM415.277 203.256H416.261V205.164H415.277V203.256ZM424.721 209.544H425.717V211.308H424.721V209.544ZM429.281 203.076H430.277V213.936H429.281V203.076ZM429.965 207.684H431.969V208.524H429.965V207.684ZM421.937 211.872L421.781 211.032C422.437 211.032 423.149 211.028 423.917 211.02C424.693 211.004 425.485 210.972 426.293 210.924C427.101 210.876 427.881 210.8 428.633 210.696L428.705 211.428C427.929 211.564 427.137 211.664 426.329 211.728C425.529 211.792 424.753 211.832 424.001 211.848C423.257 211.864 422.569 211.872 421.937 211.872ZM421.973 204.396H428.453V205.2H421.973V204.396ZM425.225 205.824C425.729 205.824 426.173 205.908 426.557 206.076C426.941 206.244 427.241 206.48 427.457 206.784C427.673 207.08 427.781 207.432 427.781 207.84C427.781 208.24 427.673 208.592 427.457 208.896C427.241 209.2 426.941 209.436 426.557 209.604C426.173 209.764 425.729 209.844 425.225 209.844C424.721 209.844 424.273 209.764 423.881 209.604C423.497 209.436 423.197 209.2 422.981 208.896C422.773 208.592 422.669 208.24 422.669 207.84C422.669 207.432 422.773 207.08 422.981 206.784C423.197 206.48 423.497 206.244 423.881 206.076C424.273 205.908 424.721 205.824 425.225 205.824ZM425.225 206.604C424.737 206.604 424.345 206.716 424.049 206.94C423.753 207.164 423.605 207.464 423.605 207.84C423.605 208.208 423.753 208.504 424.049 208.728C424.345 208.952 424.737 209.064 425.225 209.064C425.705 209.064 426.093 208.952 426.389 208.728C426.685 208.504 426.833 208.208 426.833 207.84C426.833 207.464 426.685 207.164 426.389 206.94C426.093 206.716 425.705 206.604 425.225 206.604ZM424.721 203.1H425.717V204.924H424.721V203.1ZM433.972 206.628H439.204V207.432H433.972V206.628ZM436.06 207.12H437.056V209.28H436.06V207.12ZM433.972 203.784H439.12V204.6H434.968V206.976H433.972V203.784ZM440.836 203.088H441.832V211.2H440.836V203.088ZM434.812 212.88H442.192V213.696H434.812V212.88ZM434.812 210.66H435.808V213.228H434.812V210.66ZM433.144 209.832L433 209.016C433.696 209.008 434.44 208.996 435.232 208.98C436.024 208.964 436.824 208.936 437.632 208.896C438.44 208.848 439.216 208.784 439.96 208.704L440.032 209.436C439.264 209.54 438.476 209.624 437.668 209.688C436.868 209.744 436.08 209.784 435.304 209.808C434.536 209.824 433.816 209.832 433.144 209.832ZM408.301 223.932H415.753V224.736H408.301V223.932ZM407.041 226.704H416.881V227.532H407.041V226.704ZM408.301 219.012H415.645V219.828H409.309V224.172H408.301V219.012ZM408.997 221.424H415.405V222.228H408.997V221.424ZM418.44 225.504H419.148C419.812 225.504 420.46 225.488 421.092 225.456C421.724 225.416 422.404 225.336 423.132 225.216L423.228 226.032C422.476 226.168 421.776 226.256 421.128 226.296C420.488 226.328 419.828 226.344 419.148 226.344H418.44V225.504ZM418.416 219.252H422.472V223.068H419.4V225.816H418.44V222.252H421.512V220.08H418.416V219.252ZM426.336 218.076H427.284V228.936H426.336V218.076ZM424.5 222.36H426.588V223.176H424.5V222.36ZM423.876 218.316H424.8V228.372H423.876V218.316ZM429.6 218.952H435.432V219.78H429.6V218.952ZM429.42 224.004L429.3 223.164C429.94 223.164 430.636 223.16 431.388 223.152C432.148 223.136 432.92 223.108 433.704 223.068C434.488 223.028 435.236 222.968 435.948 222.888L436.02 223.632C435.284 223.744 434.528 223.828 433.752 223.884C432.976 223.932 432.216 223.964 431.472 223.98C430.728 223.996 430.044 224.004 429.42 224.004ZM430.668 219.54H431.628V223.464H430.668V219.54ZM433.392 219.54H434.364V223.464H433.392V219.54ZM430.764 225.204H438.012V228.936H437.016V226.02H430.764V225.204ZM437.016 218.076H438.012V224.664H437.016V218.076Z" fill="#171717"/>
<path d="M478.5 235L468.5 229.226V240.774L478.5 235ZM366 235L376 240.774V229.226L366 235ZM469.5 235V234H375V235V236H469.5V235Z" fill="#A3A3A3"/>
<path d="M638.998 235.49L648.867 241.486L649.125 229.942L638.998 235.49ZM638.998 80.5002L649.31 85.6976L648.655 74.1692L638.998 80.5002ZM648.001 235.692L648.356 236.626C652.456 235.069 656.066 231.457 659.187 226.507C662.317 221.542 665.02 215.127 667.263 207.79C671.749 193.112 674.436 174.599 674.952 156.245C675.468 137.897 673.816 119.631 669.576 105.462C665.363 91.3855 658.458 80.9332 648.165 79.0073L647.981 79.9903L647.797 80.9732C656.878 82.6723 663.473 92.0477 667.66 106.035C671.818 119.93 673.465 137.966 672.953 156.189C672.44 174.407 669.772 192.736 665.35 207.205C663.138 214.441 660.499 220.676 657.495 225.441C654.482 230.22 651.166 233.419 647.646 234.757L648.001 235.692Z" fill="#A3A3A3"/>
<path d="M98.999 175L93.7507 185.285L105.282 184.688L98.999 175ZM286.5 210.5L287.498 210.447C287.257 205.851 284.222 202.311 279.461 199.595C274.704 196.883 268.052 194.885 260.158 193.394C244.355 190.41 223.239 189.4 201.492 188.993C179.687 188.586 157.31 188.785 138.758 188.234C129.497 187.96 121.24 187.499 114.549 186.686C107.816 185.868 102.811 184.708 99.9518 183.114L99.4647 183.987L98.9776 184.86C102.212 186.664 107.568 187.853 114.308 188.671C121.09 189.495 129.418 189.958 138.699 190.234C157.23 190.784 179.764 190.587 201.454 190.993C223.202 191.399 244.167 192.41 259.787 195.36C267.604 196.836 274 198.784 278.47 201.333C282.936 203.879 285.31 206.917 285.501 210.553L286.5 210.5Z" fill="#A3A3A3"/>
<path d="M559 216.5L564.774 206.5H553.226L559 216.5ZM559 176L553.226 186H564.774L559 176ZM559 207.5H560V185H559H558V207.5H559Z" fill="#A3A3A3"/>
<path d="M286 215.5L291.774 205.5H280.226L286 215.5ZM286 175L280.226 185H291.774L286 175ZM286 206.5H287V184H286H285V206.5H286Z" fill="#A3A3A3"/>
</svg>
