<svg width="1093" height="465" viewBox="0 0 1093 465" fill="none" xmlns="http://www.w3.org/2000/svg">
<path d="M1073 6.75C1083.63 6.75 1092.25 15.3685 1092.25 26V189C1092.25 199.631 1083.63 208.25 1073 208.25H875C864.369 208.25 855.75 199.631 855.75 189V26C855.75 15.3685 864.369 6.75 875 6.75H1073Z" fill="#F7F7F7" stroke="#D4D4D4" stroke-width="0.5"/>
<path d="M958.433 25.476H968.501V26.784H958.433V25.476ZM959.201 17.904H967.673V19.188H959.201V17.904ZM959.261 22.512H967.637V23.784H959.261V22.512ZM960.713 19.092H962.309V22.632H960.713V19.092ZM964.565 19.092H966.161V22.632H964.565V19.092ZM969.472 22.908H979.528V24.168H969.472V22.908ZM970.696 17.16H978.304V20.172H972.292V21.372H970.72V19.044H976.732V18.372H970.696V17.16ZM970.72 20.904H978.52V22.116H970.72V20.904ZM973.708 21.492H975.292V23.592H973.708V21.492ZM970.576 24.792H978.376V28.032H976.78V26.064H970.576V24.792ZM983.212 17.808H984.52V19.416C984.52 20.136 984.456 20.828 984.328 21.492C984.2 22.148 984.004 22.764 983.74 23.34C983.484 23.908 983.152 24.412 982.744 24.852C982.344 25.284 981.868 25.628 981.316 25.884L980.368 24.564C980.856 24.348 981.276 24.064 981.628 23.712C981.988 23.352 982.284 22.944 982.516 22.488C982.748 22.024 982.92 21.532 983.032 21.012C983.152 20.492 983.212 19.96 983.212 19.416V17.808ZM983.524 17.808H984.82V19.416C984.82 19.936 984.876 20.444 984.988 20.94C985.1 21.436 985.268 21.904 985.492 22.344C985.724 22.784 986.012 23.176 986.356 23.52C986.708 23.856 987.12 24.124 987.592 24.324L986.668 25.62C986.132 25.372 985.664 25.04 985.264 24.624C984.872 24.208 984.548 23.728 984.292 23.184C984.036 22.632 983.844 22.04 983.716 21.408C983.588 20.768 983.524 20.104 983.524 19.416V17.808ZM988.132 16.932H989.728V28.08H988.132V16.932Z" fill="#171717"/>
<path d="M993 43.75C1000.32 43.75 1006.25 49.6822 1006.25 57C1006.25 64.3178 1000.32 70.25 993 70.25H884C876.682 70.25 870.75 64.3178 870.75 57C870.75 49.6822 876.682 43.75 884 43.75H993Z" fill="white" stroke="#E5E5E5" stroke-width="0.5"/>
<path d="M920.13 53.896H922.566V54.724H920.13V53.896ZM922.266 51.076H923.262V57.544H922.266V51.076ZM919.686 57.88C920.438 57.88 921.082 57.96 921.618 58.12C922.162 58.28 922.578 58.512 922.866 58.816C923.154 59.112 923.298 59.476 923.298 59.908C923.298 60.548 922.974 61.044 922.326 61.396C921.686 61.748 920.806 61.924 919.686 61.924C918.566 61.924 917.682 61.748 917.034 61.396C916.394 61.044 916.074 60.548 916.074 59.908C916.074 59.476 916.218 59.112 916.506 58.816C916.802 58.512 917.218 58.28 917.754 58.12C918.298 57.96 918.942 57.88 919.686 57.88ZM919.686 58.66C919.142 58.66 918.674 58.708 918.282 58.804C917.89 58.9 917.586 59.04 917.37 59.224C917.162 59.408 917.058 59.636 917.058 59.908C917.058 60.164 917.162 60.384 917.37 60.568C917.586 60.752 917.89 60.896 918.282 61C918.674 61.096 919.142 61.144 919.686 61.144C920.238 61.144 920.706 61.096 921.09 61C921.482 60.896 921.782 60.752 921.99 60.568C922.206 60.384 922.314 60.164 922.314 59.908C922.314 59.636 922.206 59.408 921.99 59.224C921.782 59.04 921.482 58.9 921.09 58.804C920.706 58.708 920.238 58.66 919.686 58.66ZM917.094 52.18H917.91V53.056C917.91 53.72 917.782 54.344 917.526 54.928C917.278 55.504 916.926 56.012 916.47 56.452C916.014 56.884 915.486 57.216 914.886 57.448L914.37 56.656C914.778 56.512 915.146 56.316 915.474 56.068C915.81 55.82 916.098 55.536 916.338 55.216C916.586 54.896 916.774 54.552 916.902 54.184C917.03 53.816 917.094 53.44 917.094 53.056V52.18ZM917.286 52.18H918.102V53.044C918.102 53.508 918.21 53.96 918.426 54.4C918.642 54.84 918.95 55.228 919.35 55.564C919.75 55.9 920.21 56.164 920.73 56.356L920.226 57.148C919.634 56.932 919.118 56.62 918.678 56.212C918.238 55.796 917.894 55.316 917.646 54.772C917.406 54.228 917.286 53.652 917.286 53.044V52.18ZM914.682 51.868H920.478V52.684H914.682V51.868ZM927.629 53.068H928.397V53.428C928.397 54.004 928.301 54.556 928.109 55.084C927.917 55.604 927.637 56.068 927.269 56.476C926.909 56.876 926.465 57.188 925.937 57.412L925.457 56.668C925.913 56.476 926.301 56.216 926.621 55.888C926.949 55.552 927.197 55.172 927.365 54.748C927.541 54.324 927.629 53.884 927.629 53.428V53.068ZM927.821 53.068H928.577V53.428C928.577 53.852 928.665 54.264 928.841 54.664C929.017 55.064 929.269 55.42 929.597 55.732C929.925 56.044 930.313 56.288 930.761 56.464L930.293 57.22C929.765 57.004 929.317 56.704 928.949 56.32C928.581 55.936 928.301 55.496 928.109 55C927.917 54.504 927.821 53.98 927.821 53.428V53.068ZM925.673 52.504H930.497V53.308H925.673V52.504ZM927.629 51.208H928.577V52.84H927.629V51.208ZM933.569 51.088H934.517V57.736H933.569V51.088ZM931.817 53.98H933.857V54.796H931.817V53.98ZM931.253 51.28H932.201V57.676H931.253V51.28ZM927.245 58.312H934.517V61.936H933.533V59.128H927.245V58.312ZM942.548 52.18H943.364V53.068C943.364 53.724 943.236 54.34 942.98 54.916C942.732 55.492 942.38 55.996 941.924 56.428C941.468 56.852 940.94 57.176 940.34 57.4L939.824 56.608C940.224 56.464 940.588 56.272 940.916 56.032C941.252 55.792 941.544 55.516 941.792 55.204C942.04 54.884 942.228 54.544 942.355 54.184C942.484 53.816 942.548 53.444 942.548 53.068V52.18ZM942.74 52.18H943.556V53.056C943.556 53.52 943.664 53.972 943.88 54.412C944.096 54.844 944.404 55.232 944.804 55.576C945.204 55.912 945.664 56.176 946.184 56.368L945.68 57.148C945.088 56.932 944.572 56.62 944.132 56.212C943.692 55.804 943.348 55.328 943.1 54.784C942.86 54.24 942.74 53.664 942.74 53.056V52.18ZM945.596 53.908H948.008V54.736H945.596V53.908ZM940.136 51.82H945.932V52.636H940.136V51.82ZM941.468 58.156H948.716V61.936H947.72V58.972H941.468V58.156ZM947.72 51.076H948.716V57.568H947.72V51.076ZM953.239 54.76H954.235V56.8H953.239V54.76ZM957.223 54.76H958.207V56.8H957.223V54.76ZM950.827 56.44H960.631V57.244H950.827V56.44ZM955.723 58.072C956.883 58.072 957.791 58.236 958.447 58.564C959.103 58.892 959.431 59.364 959.431 59.98C959.431 60.604 959.103 61.08 958.447 61.408C957.791 61.744 956.883 61.912 955.723 61.912C954.563 61.912 953.651 61.744 952.987 61.408C952.331 61.08 952.003 60.604 952.003 59.98C952.003 59.364 952.331 58.892 952.987 58.564C953.651 58.236 954.563 58.072 955.723 58.072ZM955.723 58.84C955.155 58.84 954.667 58.884 954.259 58.972C953.859 59.06 953.551 59.192 953.335 59.368C953.119 59.536 953.011 59.74 953.011 59.98C953.011 60.236 953.119 60.452 953.335 60.628C953.551 60.796 953.859 60.924 954.259 61.012C954.667 61.1 955.155 61.144 955.723 61.144C956.291 61.144 956.775 61.1 957.175 61.012C957.583 60.924 957.895 60.796 958.111 60.628C958.327 60.452 958.435 60.236 958.435 59.98C958.435 59.74 958.327 59.536 958.111 59.368C957.895 59.192 957.583 59.06 957.175 58.972C956.775 58.884 956.291 58.84 955.723 58.84ZM955.723 51.28C956.507 51.28 957.183 51.36 957.751 51.52C958.327 51.68 958.767 51.912 959.071 52.216C959.383 52.512 959.539 52.872 959.539 53.296C959.539 53.712 959.383 54.072 959.071 54.376C958.767 54.68 958.327 54.912 957.751 55.072C957.183 55.224 956.507 55.3 955.723 55.3C954.939 55.3 954.259 55.224 953.683 55.072C953.115 54.912 952.675 54.68 952.363 54.376C952.059 54.072 951.907 53.712 951.907 53.296C951.907 52.872 952.059 52.512 952.363 52.216C952.675 51.912 953.115 51.68 953.683 51.52C954.259 51.36 954.939 51.28 955.723 51.28ZM955.723 52.06C955.155 52.06 954.659 52.108 954.235 52.204C953.819 52.3 953.495 52.44 953.263 52.624C953.039 52.808 952.927 53.032 952.927 53.296C952.927 53.552 953.039 53.776 953.263 53.968C953.495 54.152 953.819 54.292 954.235 54.388C954.659 54.484 955.155 54.532 955.723 54.532C956.307 54.532 956.807 54.484 957.223 54.388C957.639 54.292 957.959 54.152 958.183 53.968C958.407 53.776 958.519 53.552 958.519 53.296C958.519 53.032 958.407 52.808 958.183 52.624C957.959 52.44 957.639 52.3 957.223 52.204C956.807 52.108 956.307 52.06 955.723 52.06Z" fill="#525252"/>
<path d="M990 74.75C997.318 74.75 1003.25 80.6822 1003.25 88C1003.25 95.3178 997.318 101.25 990 101.25H884C876.682 101.25 870.75 95.3178 870.75 88C870.75 80.6822 876.682 74.75 884 74.75H990Z" fill="white" stroke="#E5E5E5" stroke-width="0.5"/>
<path d="M906.815 90.764H916.655V91.592H906.815V90.764ZM911.219 88.448H912.203V91.112H911.219V88.448ZM908.015 82.88H915.431V86.168H909.023V88.34H908.039V85.376H914.447V83.696H908.015V82.88ZM908.039 87.92H915.683V88.736H908.039V87.92ZM919.102 87.284H926.554V88.1H919.102V87.284ZM917.854 90.632H927.694V91.46H917.854V90.632ZM919.102 83.084H926.446V83.9H920.086V87.644H919.102V83.084ZM932.748 82.652H933.696V84.08H936.012V82.652H936.948V87.224H932.748V82.652ZM933.696 84.848V86.432H936.012V84.848H933.696ZM940.464 82.088H941.412V87.752H940.464V82.088ZM938.724 84.5H940.776V85.316H938.724V84.5ZM938.136 82.292H939.072V87.632H938.136V82.292ZM934.248 88.232H941.412V90.836H935.268V92.456H934.272V90.08H940.428V89.024H934.248V88.232ZM934.272 92.012H941.808V92.816H934.272V92.012ZM943.751 87.752H944.579C945.283 87.752 945.907 87.744 946.451 87.728C946.995 87.712 947.503 87.684 947.975 87.644C948.447 87.596 948.927 87.532 949.415 87.452L949.511 88.268C948.999 88.348 948.499 88.412 948.011 88.46C947.531 88.508 947.019 88.54 946.475 88.556C945.931 88.564 945.299 88.568 944.579 88.568H943.751V87.752ZM943.727 82.844H948.539V86.024H944.747V88.268H943.751V85.232H947.555V83.648H943.727V82.844ZM951.239 82.088H952.235V90.056H951.239V82.088ZM945.239 91.88H952.559V92.696H945.239V91.88ZM945.239 89.456H946.223V92.132H945.239V89.456ZM949.211 84.908H951.479V85.76H949.211V84.908ZM962.242 82.088H963.238V88.556H962.242V82.088ZM959.662 88.808C960.414 88.808 961.062 88.888 961.606 89.048C962.15 89.208 962.57 89.44 962.866 89.744C963.162 90.048 963.31 90.42 963.31 90.86C963.31 91.284 963.162 91.652 962.866 91.964C962.57 92.268 962.15 92.5 961.606 92.66C961.062 92.82 960.414 92.9 959.662 92.9C958.91 92.9 958.262 92.82 957.718 92.66C957.174 92.5 956.754 92.268 956.458 91.964C956.17 91.652 956.026 91.284 956.026 90.86C956.026 90.42 956.17 90.048 956.458 89.744C956.754 89.44 957.174 89.208 957.718 89.048C958.262 88.888 958.91 88.808 959.662 88.808ZM959.662 89.6C959.11 89.6 958.634 89.652 958.234 89.756C957.842 89.852 957.538 89.992 957.322 90.176C957.114 90.36 957.01 90.588 957.01 90.86C957.01 91.116 957.114 91.34 957.322 91.532C957.538 91.716 957.842 91.86 958.234 91.964C958.634 92.06 959.11 92.108 959.662 92.108C960.214 92.108 960.686 92.06 961.078 91.964C961.47 91.86 961.774 91.716 961.99 91.532C962.206 91.34 962.314 91.116 962.314 90.86C962.314 90.588 962.206 90.36 961.99 90.176C961.774 89.992 961.47 89.852 961.078 89.756C960.686 89.652 960.214 89.6 959.662 89.6ZM957.166 82.568H957.994V83.624C957.994 84.312 957.866 84.96 957.61 85.568C957.362 86.168 957.006 86.696 956.542 87.152C956.086 87.6 955.554 87.944 954.946 88.184L954.442 87.38C954.85 87.228 955.218 87.024 955.546 86.768C955.882 86.512 956.17 86.22 956.41 85.892C956.658 85.556 956.846 85.196 956.974 84.812C957.102 84.428 957.166 84.032 957.166 83.624V82.568ZM957.346 82.568H958.174V83.624C958.174 84.016 958.238 84.392 958.366 84.752C958.502 85.104 958.69 85.436 958.93 85.748C959.17 86.052 959.458 86.32 959.794 86.552C960.13 86.784 960.498 86.968 960.898 87.104L960.406 87.896C959.95 87.728 959.534 87.508 959.158 87.236C958.782 86.956 958.458 86.632 958.186 86.264C957.922 85.888 957.714 85.48 957.562 85.04C957.418 84.592 957.346 84.12 957.346 83.624V82.568Z" fill="#525252"/>
<path d="M941 105.75C948.318 105.75 954.25 111.682 954.25 119C954.25 126.318 948.318 132.25 941 132.25H884C876.682 132.25 870.75 126.318 870.75 119C870.75 111.682 876.682 105.75 884 105.75H941Z" fill="white" stroke="#E5E5E5" stroke-width="0.5"/>
<path d="M895.925 114.336H900.065V121.02H895.925V114.336ZM899.129 115.128H896.861V120.228H899.129V115.128ZM903.809 113.076H904.769V123.936H903.809V113.076ZM899.573 117.168H902.069V117.984H899.573V117.168ZM901.649 113.304H902.597V123.384H901.649V113.304ZM907.84 118.932H915.292V119.736H907.84V118.932ZM906.58 121.704H916.42V122.532H906.58V121.704ZM907.84 114.012H915.184V114.828H908.848V119.172H907.84V114.012ZM908.536 116.424H914.944V117.228H908.536V116.424ZM925.516 113.088H926.512V119.712H925.516V113.088ZM919.264 120.3H926.512V123.936H925.516V121.128H919.264V120.3ZM918.184 118.284H919.06C919.716 118.284 920.324 118.276 920.884 118.26C921.452 118.244 922.004 118.212 922.54 118.164C923.076 118.108 923.632 118.036 924.208 117.948L924.328 118.764C923.728 118.86 923.152 118.932 922.6 118.98C922.056 119.028 921.496 119.064 920.92 119.088C920.352 119.104 919.732 119.112 919.06 119.112H918.184V118.284ZM918.16 113.724H923.08V116.736H919.156V118.692H918.184V115.956H922.108V114.54H918.16V113.724Z" fill="#525252"/>
<path d="M975 136.75C982.318 136.75 988.25 142.682 988.25 150C988.25 157.318 982.318 163.25 975 163.25H884C876.682 163.25 870.75 157.318 870.75 150C870.75 142.682 876.682 136.75 884 136.75H975Z" fill="white" stroke="#E5E5E5" stroke-width="0.5"/>
<path d="M900.219 147.76H903.231V148.576H900.219V147.76ZM897.591 145.012H898.407V146.956C898.407 147.556 898.331 148.148 898.179 148.732C898.035 149.316 897.827 149.86 897.555 150.364C897.283 150.868 896.963 151.316 896.595 151.708C896.235 152.1 895.839 152.412 895.407 152.644L894.783 151.84C895.183 151.648 895.551 151.38 895.887 151.036C896.231 150.692 896.531 150.3 896.787 149.86C897.043 149.412 897.239 148.944 897.375 148.456C897.519 147.96 897.591 147.46 897.591 146.956V145.012ZM897.795 145.012H898.599V146.956C898.599 147.444 898.667 147.928 898.803 148.408C898.947 148.888 899.147 149.34 899.403 149.764C899.659 150.18 899.955 150.552 900.291 150.88C900.635 151.208 901.003 151.464 901.395 151.648L900.795 152.452C900.363 152.228 899.963 151.928 899.595 151.552C899.227 151.176 898.907 150.744 898.635 150.256C898.371 149.768 898.163 149.244 898.011 148.684C897.867 148.124 897.795 147.548 897.795 146.956V145.012ZM902.739 144.076H903.723V154.948H902.739V144.076ZM913.718 144.088H914.702V151.42H913.718V144.088ZM910.694 150.604H911.546V150.988C911.546 151.508 911.438 151.984 911.222 152.416C911.006 152.848 910.706 153.232 910.322 153.568C909.938 153.904 909.498 154.18 909.002 154.396C908.514 154.62 907.994 154.788 907.442 154.9L907.046 154.108C907.534 154.028 907.998 153.896 908.438 153.712C908.878 153.52 909.266 153.288 909.602 153.016C909.946 152.744 910.214 152.436 910.406 152.092C910.598 151.748 910.694 151.38 910.694 150.988V150.604ZM910.874 150.604H911.726V150.988C911.726 151.38 911.822 151.748 912.014 152.092C912.206 152.428 912.466 152.732 912.794 153.004C913.13 153.268 913.514 153.492 913.946 153.676C914.378 153.86 914.834 153.996 915.314 154.084L914.894 154.876C914.358 154.772 913.846 154.608 913.358 154.384C912.878 154.16 912.45 153.884 912.074 153.556C911.698 153.22 911.402 152.84 911.186 152.416C910.978 151.984 910.874 151.508 910.874 150.988V150.604ZM910.514 144.832H911.546C911.546 145.776 911.37 146.636 911.018 147.412C910.674 148.18 910.13 148.856 909.386 149.44C908.65 150.016 907.694 150.492 906.518 150.868L906.134 150.064C906.918 149.824 907.586 149.54 908.138 149.212C908.69 148.876 909.142 148.504 909.494 148.096C909.846 147.68 910.102 147.228 910.262 146.74C910.43 146.252 910.514 145.736 910.514 145.192V144.832ZM906.602 144.832H911.054V145.636H906.602V144.832ZM910.382 146.944V147.64L906.23 147.952L906.062 147.136L910.382 146.944ZM920.248 152.668H930.088V153.496H920.248V152.668ZM921.4 144.856H922.396V146.86H927.916V144.856H928.9V150.508H921.4V144.856ZM922.396 147.664V149.704H927.916V147.664H922.396ZM931.648 151.432H932.368C933.024 151.432 933.672 151.416 934.312 151.384C934.96 151.344 935.656 151.26 936.4 151.132L936.484 151.948C935.724 152.084 935.016 152.172 934.36 152.212C933.712 152.244 933.048 152.26 932.368 152.26H931.648V151.432ZM931.624 145.276H935.488V149.044H932.608V151.78H931.648V148.24H934.528V146.092H931.624V145.276ZM939.544 144.076H940.492V154.936H939.544V144.076ZM936.004 147.976H937.768V148.804H936.004V147.976ZM937.348 144.34H938.284V154.36H937.348V144.34ZM950.211 144.076H951.207V154.948H950.211V144.076ZM945.483 144.916C946.019 144.916 946.491 145.072 946.899 145.384C947.315 145.688 947.639 146.124 947.871 146.692C948.111 147.26 948.231 147.928 948.231 148.696C948.231 149.464 948.111 150.132 947.871 150.7C947.639 151.268 947.315 151.708 946.899 152.02C946.491 152.332 946.019 152.488 945.483 152.488C944.947 152.488 944.471 152.332 944.055 152.02C943.639 151.708 943.311 151.268 943.071 150.7C942.839 150.132 942.723 149.464 942.723 148.696C942.723 147.928 942.839 147.26 943.071 146.692C943.311 146.124 943.639 145.688 944.055 145.384C944.471 145.072 944.947 144.916 945.483 144.916ZM945.483 145.804C945.123 145.804 944.807 145.924 944.535 146.164C944.271 146.396 944.063 146.732 943.911 147.172C943.759 147.604 943.683 148.112 943.683 148.696C943.683 149.28 943.759 149.792 943.911 150.232C944.063 150.664 944.271 151 944.535 151.24C944.807 151.48 945.123 151.6 945.483 151.6C945.835 151.6 946.143 151.48 946.407 151.24C946.679 151 946.891 150.664 947.043 150.232C947.195 149.792 947.271 149.28 947.271 148.696C947.271 148.112 947.195 147.604 947.043 147.172C946.891 146.732 946.679 146.396 946.407 146.164C946.143 145.924 945.835 145.804 945.483 145.804ZM958.046 144.82H959.09C959.09 145.756 958.91 146.6 958.55 147.352C958.19 148.104 957.638 148.76 956.894 149.32C956.158 149.872 955.21 150.32 954.05 150.664L953.666 149.86C954.442 149.636 955.106 149.368 955.658 149.056C956.21 148.744 956.662 148.392 957.014 148C957.366 147.6 957.626 147.168 957.794 146.704C957.962 146.24 958.046 145.744 958.046 145.216V144.82ZM954.134 144.82H958.586V145.624H954.134V144.82ZM957.914 146.824V147.52L953.762 147.832L953.594 147.016L957.914 146.824ZM961.262 144.088H962.258V150.604H961.262V144.088ZM958.682 150.76C959.434 150.76 960.078 150.844 960.614 151.012C961.158 151.18 961.578 151.416 961.874 151.72C962.17 152.024 962.318 152.396 962.318 152.836C962.318 153.276 962.17 153.652 961.874 153.964C961.578 154.276 961.158 154.512 960.614 154.672C960.078 154.832 959.434 154.912 958.682 154.912C957.93 154.912 957.282 154.832 956.738 154.672C956.194 154.512 955.774 154.276 955.478 153.964C955.182 153.652 955.034 153.276 955.034 152.836C955.034 152.396 955.182 152.024 955.478 151.72C955.774 151.416 956.194 151.18 956.738 151.012C957.282 150.844 957.93 150.76 958.682 150.76ZM958.682 151.552C958.13 151.552 957.654 151.604 957.254 151.708C956.862 151.812 956.558 151.96 956.342 152.152C956.134 152.336 956.03 152.564 956.03 152.836C956.03 153.1 956.134 153.332 956.342 153.532C956.558 153.724 956.862 153.872 957.254 153.976C957.654 154.08 958.13 154.132 958.682 154.132C959.226 154.132 959.694 154.08 960.086 153.976C960.486 153.872 960.79 153.724 960.998 153.532C961.214 153.332 961.322 153.1 961.322 152.836C961.322 152.564 961.214 152.336 960.998 152.152C960.79 151.96 960.486 151.812 960.086 151.708C959.694 151.604 959.226 151.552 958.682 151.552Z" fill="#525252"/>
<path d="M975 167.75C982.318 167.75 988.25 173.682 988.25 181C988.25 188.318 982.318 194.25 975 194.25H884C876.682 194.25 870.75 188.318 870.75 181C870.75 173.682 876.682 167.75 884 167.75H975Z" fill="white" stroke="#E5E5E5" stroke-width="0.5"/>
<path d="M901.575 180.932H909.027V181.736H901.575V180.932ZM900.315 183.704H910.155V184.532H900.315V183.704ZM901.575 176.012H908.919V176.828H902.583V181.172H901.575V176.012ZM902.271 178.424H908.679V179.228H902.271V178.424ZM911.714 182.504H912.422C913.086 182.504 913.734 182.488 914.366 182.456C914.998 182.416 915.678 182.336 916.406 182.216L916.502 183.032C915.75 183.168 915.05 183.256 914.402 183.296C913.762 183.328 913.102 183.344 912.422 183.344H911.714V182.504ZM911.69 176.252H915.746V180.068H912.674V182.816H911.714V179.252H914.786V177.08H911.69V176.252ZM919.61 175.076H920.558V185.936H919.61V175.076ZM917.774 179.36H919.862V180.176H917.774V179.36ZM917.15 175.316H918.074V185.372H917.15V175.316ZM922.873 175.952H928.705V176.78H922.873V175.952ZM922.693 181.004L922.573 180.164C923.213 180.164 923.909 180.16 924.661 180.152C925.421 180.136 926.193 180.108 926.977 180.068C927.761 180.028 928.509 179.968 929.221 179.888L929.293 180.632C928.557 180.744 927.801 180.828 927.025 180.884C926.249 180.932 925.489 180.964 924.745 180.98C924.001 180.996 923.317 181.004 922.693 181.004ZM923.941 176.54H924.901V180.464H923.941V176.54ZM926.665 176.54H927.637V180.464H926.665V176.54ZM924.037 182.204H931.285V185.936H930.289V183.02H924.037V182.204ZM930.289 175.076H931.285V181.664H930.289V175.076ZM936.795 180.812H946.635V181.616H936.795V180.812ZM941.283 181.22H942.279V183.716H941.283V181.22ZM938.043 184.88H945.543V185.696H938.043V184.88ZM938.043 182.744H939.027V185.18H938.043V182.744ZM938.103 175.424H939.087V176.804H944.343V175.424H945.327V179.768H938.103V175.424ZM939.087 177.572V178.964H944.343V177.572H939.087ZM955.274 175.04H956.27V181.04H955.274V175.04ZM955.838 177.656H957.878V178.484H955.838V177.656ZM949.37 181.592H956.27V184.016H950.378V185.324H949.406V183.296H955.286V182.336H949.37V181.592ZM949.406 185.048H956.654V185.816H949.406V185.048ZM947.87 176.06H954.278V176.84H947.87V176.06ZM951.074 177.32C951.858 177.32 952.486 177.48 952.958 177.8C953.43 178.112 953.666 178.544 953.666 179.096C953.666 179.64 953.43 180.072 952.958 180.392C952.486 180.712 951.858 180.872 951.074 180.872C950.282 180.872 949.65 180.712 949.178 180.392C948.706 180.072 948.47 179.64 948.47 179.096C948.47 178.544 948.706 178.112 949.178 177.8C949.65 177.48 950.282 177.32 951.074 177.32ZM951.074 178.052C950.578 178.052 950.178 178.148 949.874 178.34C949.578 178.524 949.43 178.776 949.43 179.096C949.43 179.416 949.578 179.672 949.874 179.864C950.178 180.048 950.578 180.14 951.074 180.14C951.578 180.14 951.978 180.048 952.274 179.864C952.57 179.672 952.718 179.416 952.718 179.096C952.718 178.776 952.57 178.524 952.274 178.34C951.978 178.148 951.578 178.052 951.074 178.052ZM950.582 174.968H951.578V176.6H950.582V174.968Z" fill="#525252"/>
<path d="M1029 105.75C1036.32 105.75 1042.25 111.682 1042.25 119C1042.25 126.318 1036.32 132.25 1029 132.25H972C964.682 132.25 958.75 126.318 958.75 119C958.75 111.682 964.682 105.75 972 105.75H1029Z" fill="white" stroke="#E5E5E5" stroke-width="0.5"/>
<path d="M979.282 118.932H986.734V119.736H979.282V118.932ZM978.022 121.704H987.862V122.532H978.022V121.704ZM979.282 114.012H986.626V114.828H980.29V119.172H979.282V114.012ZM979.978 116.424H986.386V117.228H979.978V116.424ZM989.421 120.432H990.141C990.797 120.432 991.445 120.416 992.085 120.384C992.733 120.344 993.429 120.26 994.173 120.132L994.257 120.948C993.497 121.084 992.789 121.172 992.133 121.212C991.485 121.244 990.821 121.26 990.141 121.26H989.421V120.432ZM989.397 114.276H993.261V118.044H990.381V120.78H989.421V117.24H992.301V115.092H989.397V114.276ZM997.317 113.076H998.265V123.936H997.317V113.076ZM993.777 116.976H995.541V117.804H993.777V116.976ZM995.121 113.34H996.057V123.36H995.121V113.34ZM1007.98 113.076H1008.98V123.948H1007.98V113.076ZM1003.26 113.916C1003.79 113.916 1004.26 114.072 1004.67 114.384C1005.09 114.688 1005.41 115.124 1005.64 115.692C1005.88 116.26 1006 116.928 1006 117.696C1006 118.464 1005.88 119.132 1005.64 119.7C1005.41 120.268 1005.09 120.708 1004.67 121.02C1004.26 121.332 1003.79 121.488 1003.26 121.488C1002.72 121.488 1002.24 121.332 1001.83 121.02C1001.41 120.708 1001.08 120.268 1000.84 119.7C1000.61 119.132 1000.5 118.464 1000.5 117.696C1000.5 116.928 1000.61 116.26 1000.84 115.692C1001.08 115.124 1001.41 114.688 1001.83 114.384C1002.24 114.072 1002.72 113.916 1003.26 113.916ZM1003.26 114.804C1002.9 114.804 1002.58 114.924 1002.31 115.164C1002.04 115.396 1001.84 115.732 1001.68 116.172C1001.53 116.604 1001.46 117.112 1001.46 117.696C1001.46 118.28 1001.53 118.792 1001.68 119.232C1001.84 119.664 1002.04 120 1002.31 120.24C1002.58 120.48 1002.9 120.6 1003.26 120.6C1003.61 120.6 1003.92 120.48 1004.18 120.24C1004.45 120 1004.66 119.664 1004.82 119.232C1004.97 118.792 1005.04 118.28 1005.04 117.696C1005.04 117.112 1004.97 116.604 1004.82 116.172C1004.66 115.732 1004.45 115.396 1004.18 115.164C1003.92 114.924 1003.61 114.804 1003.26 114.804ZM1015.48 113.82H1016.36V114.66C1016.36 115.132 1016.28 115.58 1016.11 116.004C1015.95 116.428 1015.72 116.824 1015.44 117.192C1015.16 117.552 1014.83 117.876 1014.45 118.164C1014.08 118.452 1013.69 118.696 1013.26 118.896C1012.85 119.096 1012.42 119.248 1011.99 119.352L1011.55 118.524C1011.92 118.444 1012.3 118.32 1012.68 118.152C1013.06 117.984 1013.42 117.78 1013.76 117.54C1014.09 117.292 1014.39 117.016 1014.64 116.712C1014.91 116.408 1015.11 116.084 1015.26 115.74C1015.41 115.388 1015.48 115.028 1015.48 114.66V113.82ZM1015.68 113.82H1016.53V114.66C1016.53 115.028 1016.6 115.388 1016.76 115.74C1016.91 116.084 1017.11 116.408 1017.37 116.712C1017.63 117.016 1017.93 117.292 1018.27 117.54C1018.6 117.78 1018.96 117.988 1019.34 118.164C1019.72 118.332 1020.1 118.452 1020.49 118.524L1020.03 119.352C1019.6 119.248 1019.18 119.096 1018.76 118.896C1018.34 118.696 1017.95 118.452 1017.57 118.164C1017.2 117.876 1016.88 117.552 1016.59 117.192C1016.3 116.824 1016.08 116.428 1015.92 116.004C1015.76 115.58 1015.68 115.132 1015.68 114.66V113.82ZM1011.14 121.644H1020.98V122.472H1011.14V121.644Z" fill="#525252"/>
<path d="M1062 136.75C1069.32 136.75 1075.25 142.682 1075.25 150C1075.25 157.318 1069.32 163.25 1062 163.25H1005C997.682 163.25 991.75 157.318 991.75 150C991.75 142.682 997.682 136.75 1005 136.75H1062Z" fill="white" stroke="#E5E5E5" stroke-width="0.5"/>
<path d="M1011.49 151.492H1012.34C1013.01 151.492 1013.61 151.484 1014.17 151.468C1014.72 151.452 1015.25 151.42 1015.76 151.372C1016.28 151.324 1016.81 151.252 1017.36 151.156L1017.45 151.972C1016.9 152.068 1016.36 152.144 1015.83 152.2C1015.31 152.248 1014.76 152.28 1014.19 152.296C1013.63 152.312 1013.01 152.32 1012.34 152.32H1011.49V151.492ZM1011.49 145.06H1016.54V145.888H1012.49V151.78H1011.49V145.06ZM1012.23 148.108H1016.3V148.912H1012.23V148.108ZM1018.37 144.076H1019.36V154.936H1018.37V144.076ZM1019.13 148.432H1021.14V149.272H1019.13V148.432ZM1029.96 144.088H1030.95V150.28H1029.96V144.088ZM1023.94 150.868H1030.95V154.792H1023.94V150.868ZM1029.98 151.672H1024.92V153.976H1029.98V151.672ZM1025.13 144.652C1025.68 144.652 1026.17 144.76 1026.6 144.976C1027.02 145.192 1027.35 145.492 1027.59 145.876C1027.84 146.252 1027.96 146.692 1027.96 147.196C1027.96 147.692 1027.84 148.132 1027.59 148.516C1027.35 148.892 1027.02 149.188 1026.6 149.404C1026.17 149.62 1025.68 149.728 1025.13 149.728C1024.59 149.728 1024.1 149.62 1023.67 149.404C1023.24 149.188 1022.91 148.892 1022.66 148.516C1022.42 148.132 1022.3 147.692 1022.3 147.196C1022.3 146.692 1022.42 146.252 1022.66 145.876C1022.91 145.492 1023.24 145.192 1023.67 144.976C1024.1 144.76 1024.59 144.652 1025.13 144.652ZM1025.13 145.492C1024.78 145.492 1024.46 145.564 1024.18 145.708C1023.9 145.852 1023.68 146.052 1023.51 146.308C1023.35 146.556 1023.27 146.852 1023.27 147.196C1023.27 147.524 1023.35 147.816 1023.51 148.072C1023.68 148.328 1023.9 148.528 1024.18 148.672C1024.46 148.816 1024.78 148.888 1025.13 148.888C1025.49 148.888 1025.81 148.816 1026.09 148.672C1026.37 148.528 1026.59 148.328 1026.75 148.072C1026.91 147.816 1026.99 147.524 1026.99 147.196C1026.99 146.852 1026.91 146.556 1026.75 146.308C1026.59 146.052 1026.37 145.852 1026.09 145.708C1025.81 145.564 1025.49 145.492 1025.13 145.492ZM1035.98 144.916C1036.52 144.916 1036.99 145.072 1037.4 145.384C1037.8 145.688 1038.12 146.124 1038.36 146.692C1038.59 147.26 1038.7 147.928 1038.7 148.696C1038.7 149.464 1038.59 150.132 1038.36 150.7C1038.12 151.268 1037.8 151.708 1037.4 152.02C1036.99 152.332 1036.52 152.488 1035.98 152.488C1035.45 152.488 1034.98 152.332 1034.56 152.02C1034.16 151.708 1033.84 151.268 1033.6 150.7C1033.37 150.132 1033.26 149.464 1033.26 148.696C1033.26 147.928 1033.37 147.26 1033.6 146.692C1033.84 146.124 1034.16 145.688 1034.56 145.384C1034.98 145.072 1035.45 144.916 1035.98 144.916ZM1035.98 145.804C1035.64 145.804 1035.33 145.924 1035.06 146.164C1034.79 146.396 1034.58 146.732 1034.43 147.172C1034.28 147.604 1034.2 148.112 1034.2 148.696C1034.2 149.28 1034.28 149.792 1034.43 150.232C1034.58 150.664 1034.79 151 1035.06 151.24C1035.33 151.48 1035.64 151.6 1035.99 151.6C1036.34 151.6 1036.64 151.48 1036.9 151.24C1037.18 151 1037.38 150.664 1037.53 150.232C1037.68 149.792 1037.76 149.28 1037.76 148.696C1037.76 148.112 1037.68 147.604 1037.53 147.172C1037.38 146.732 1037.18 146.396 1036.9 146.164C1036.64 145.924 1036.33 145.804 1035.98 145.804ZM1040.44 144.076H1041.44V154.936H1040.44V144.076ZM1041.21 148.408H1043.22V149.248H1041.21V148.408ZM1044.14 149.032H1053.97V149.86H1044.14V149.032ZM1048.53 149.392H1049.52V151.048H1048.53V149.392ZM1048.51 151.552H1049.36V151.888C1049.36 152.296 1049.25 152.672 1049.04 153.016C1048.82 153.352 1048.52 153.652 1048.12 153.916C1047.73 154.172 1047.28 154.38 1046.78 154.54C1046.28 154.708 1045.74 154.824 1045.17 154.888L1044.85 154.12C1045.34 154.072 1045.81 153.984 1046.25 153.856C1046.69 153.728 1047.08 153.564 1047.42 153.364C1047.75 153.164 1048.02 152.94 1048.21 152.692C1048.41 152.436 1048.51 152.168 1048.51 151.888V151.552ZM1048.69 151.552H1049.53V151.888C1049.53 152.184 1049.62 152.456 1049.82 152.704C1050.02 152.952 1050.28 153.176 1050.62 153.376C1050.96 153.568 1051.36 153.728 1051.8 153.856C1052.24 153.984 1052.7 154.072 1053.19 154.12L1052.88 154.888C1052.31 154.824 1051.77 154.708 1051.27 154.54C1050.76 154.38 1050.32 154.176 1049.92 153.928C1049.54 153.672 1049.24 153.372 1049.01 153.028C1048.8 152.684 1048.69 152.304 1048.69 151.888V151.552ZM1049.04 144.244C1049.82 144.244 1050.5 144.32 1051.06 144.472C1051.64 144.624 1052.08 144.852 1052.38 145.156C1052.7 145.452 1052.85 145.812 1052.85 146.236C1052.85 146.652 1052.7 147.008 1052.38 147.304C1052.08 147.6 1051.64 147.828 1051.06 147.988C1050.5 148.148 1049.82 148.228 1049.04 148.228C1048.25 148.228 1047.57 148.148 1047 147.988C1046.43 147.828 1045.99 147.6 1045.68 147.304C1045.37 147.008 1045.22 146.652 1045.22 146.236C1045.22 145.812 1045.37 145.452 1045.68 145.156C1045.99 144.852 1046.43 144.624 1047 144.472C1047.57 144.32 1048.25 144.244 1049.04 144.244ZM1049.04 145C1048.46 145 1047.96 145.052 1047.55 145.156C1047.13 145.252 1046.81 145.392 1046.58 145.576C1046.35 145.752 1046.24 145.972 1046.24 146.236C1046.24 146.492 1046.35 146.712 1046.58 146.896C1046.81 147.072 1047.13 147.208 1047.55 147.304C1047.96 147.4 1048.46 147.448 1049.04 147.448C1049.62 147.448 1050.12 147.4 1050.54 147.304C1050.95 147.208 1051.27 147.072 1051.5 146.896C1051.72 146.712 1051.83 146.492 1051.83 146.236C1051.83 145.972 1051.72 145.752 1051.5 145.576C1051.27 145.392 1050.95 145.252 1050.54 145.156C1050.12 145.052 1049.62 145 1049.04 145Z" fill="#525252"/>
<path d="M1070 74.75C1077.32 74.75 1083.25 80.6822 1083.25 88C1083.25 95.3178 1077.32 101.25 1070 101.25H1021C1013.68 101.25 1007.75 95.3178 1007.75 88C1007.75 80.6822 1013.68 74.75 1021 74.75H1070Z" fill="white" stroke="#E5E5E5" stroke-width="0.5"/>
<path d="M1037.33 82.076H1038.29V92.936H1037.33V82.076ZM1035.62 86.456H1037.71V87.296H1035.62V86.456ZM1034.97 82.304H1035.92V92.384H1034.97V82.304ZM1031.29 83.756H1032.05V85.016C1032.05 85.656 1032 86.268 1031.9 86.852C1031.79 87.436 1031.63 87.972 1031.42 88.46C1031.21 88.948 1030.95 89.384 1030.64 89.768C1030.33 90.144 1029.96 90.456 1029.55 90.704L1028.92 89.936C1029.45 89.648 1029.89 89.26 1030.23 88.772C1030.57 88.276 1030.83 87.708 1031.01 87.068C1031.19 86.428 1031.29 85.744 1031.29 85.016V83.756ZM1031.47 83.756H1032.25V85.016C1032.25 85.672 1032.33 86.296 1032.51 86.888C1032.69 87.48 1032.95 88.008 1033.29 88.472C1033.63 88.928 1034.06 89.288 1034.57 89.552L1033.99 90.32C1033.43 90.008 1032.97 89.588 1032.59 89.06C1032.22 88.532 1031.93 87.924 1031.74 87.236C1031.56 86.548 1031.47 85.808 1031.47 85.016V83.756ZM1029.19 83.36H1034.21V84.176H1029.19V83.36ZM1042.94 83.012H1043.76V84.956C1043.76 85.58 1043.68 86.188 1043.52 86.78C1043.37 87.364 1043.15 87.912 1042.86 88.424C1042.58 88.928 1042.25 89.376 1041.87 89.768C1041.49 90.152 1041.08 90.456 1040.63 90.68L1040.02 89.852C1040.43 89.668 1040.81 89.404 1041.16 89.06C1041.51 88.716 1041.82 88.328 1042.08 87.896C1042.35 87.456 1042.56 86.984 1042.71 86.48C1042.86 85.976 1042.94 85.468 1042.94 84.956V83.012ZM1043.1 83.012H1043.93V84.956C1043.93 85.452 1044 85.94 1044.15 86.42C1044.3 86.9 1044.51 87.356 1044.77 87.788C1045.04 88.212 1045.35 88.588 1045.7 88.916C1046.05 89.236 1046.42 89.488 1046.82 89.672L1046.22 90.464C1045.78 90.256 1045.38 89.964 1045 89.588C1044.62 89.212 1044.29 88.78 1044 88.292C1043.72 87.804 1043.5 87.276 1043.34 86.708C1043.18 86.14 1043.1 85.556 1043.1 84.956V83.012ZM1047.96 82.076H1048.96V92.948H1047.96V82.076ZM1052.37 87.152H1059.82V87.956H1052.37V87.152ZM1051.12 90.74H1060.96V91.568H1051.12V90.74ZM1055.52 87.5H1056.51V91.064H1055.52V87.5ZM1052.37 82.94H1059.71V83.768H1053.36V87.512H1052.37V82.94Z" fill="#525252"/>
<path d="M1067 43.75C1074.32 43.75 1080.25 49.6822 1080.25 57C1080.25 64.3178 1074.32 70.25 1067 70.25H1025C1017.68 70.25 1011.75 64.3178 1011.75 57C1011.75 49.6822 1017.68 43.75 1025 43.75H1067Z" fill="white" stroke="#E5E5E5" stroke-width="0.5"/>
<path d="M1030.43 61V54.4545H1031.4V55.4773H1031.49C1031.62 55.1278 1031.84 54.8565 1032.15 54.6634C1032.45 54.4673 1032.82 54.3693 1033.24 54.3693C1033.67 54.3693 1034.03 54.4673 1034.32 54.6634C1034.61 54.8565 1034.84 55.1278 1035 55.4773H1035.07C1035.23 55.1392 1035.49 54.8707 1035.82 54.6719C1036.16 54.4702 1036.56 54.3693 1037.03 54.3693C1037.61 54.3693 1038.09 54.5526 1038.46 54.919C1038.84 55.2827 1039.02 55.8494 1039.02 56.6193V61H1038.02V56.6193C1038.02 56.1364 1037.88 55.7912 1037.62 55.5838C1037.35 55.3764 1037.04 55.2727 1036.69 55.2727C1036.23 55.2727 1035.87 55.4119 1035.62 55.6903C1035.36 55.9659 1035.24 56.3153 1035.24 56.7386V61H1034.21V56.517C1034.21 56.1449 1034.09 55.8452 1033.85 55.6179C1033.61 55.3878 1033.3 55.2727 1032.92 55.2727C1032.66 55.2727 1032.41 55.3423 1032.19 55.4815C1031.96 55.6207 1031.78 55.8139 1031.64 56.0611C1031.5 56.3054 1031.44 56.5881 1031.44 56.9091V61H1030.43ZM1039.97 53.2102V52.2727H1046.51V53.2102H1043.77V61H1042.71V53.2102H1039.97ZM1048.14 61V52.2727H1049.2V60.0625H1053.26V61H1048.14ZM1059.67 54.4545C1059.62 54.0227 1059.41 53.6875 1059.05 53.4489C1058.68 53.2102 1058.24 53.0909 1057.71 53.0909C1057.32 53.0909 1056.98 53.1534 1056.69 53.2784C1056.41 53.4034 1056.18 53.5753 1056.02 53.794C1055.86 54.0128 1055.78 54.2614 1055.78 54.5398C1055.78 54.7727 1055.84 54.973 1055.95 55.1406C1056.06 55.3054 1056.21 55.4432 1056.38 55.554C1056.56 55.6619 1056.74 55.7514 1056.94 55.8224C1057.13 55.8906 1057.31 55.946 1057.47 55.9886L1058.35 56.2273C1058.58 56.2869 1058.84 56.3693 1059.11 56.4744C1059.39 56.5795 1059.66 56.723 1059.92 56.9048C1060.18 57.0838 1060.39 57.3139 1060.56 57.5952C1060.73 57.8764 1060.81 58.2216 1060.81 58.6307C1060.81 59.1023 1060.69 59.5284 1060.44 59.9091C1060.19 60.2898 1059.84 60.5923 1059.36 60.8168C1058.9 61.0412 1058.33 61.1534 1057.66 61.1534C1057.03 61.1534 1056.49 61.0526 1056.03 60.8509C1055.58 60.6491 1055.22 60.3679 1054.96 60.0071C1054.7 59.6463 1054.55 59.2273 1054.52 58.75H1055.61C1055.64 59.0795 1055.75 59.3523 1055.94 59.5682C1056.14 59.7812 1056.39 59.9403 1056.68 60.0455C1056.99 60.1477 1057.31 60.1989 1057.66 60.1989C1058.06 60.1989 1058.42 60.1335 1058.74 60.0028C1059.06 59.8693 1059.32 59.6847 1059.51 59.4489C1059.69 59.2102 1059.79 58.9318 1059.79 58.6136C1059.79 58.3239 1059.71 58.0881 1059.54 57.9062C1059.38 57.7244 1059.17 57.5767 1058.9 57.4631C1058.64 57.3494 1058.35 57.25 1058.05 57.1648L1056.97 56.858C1056.29 56.6619 1055.75 56.3821 1055.35 56.0185C1054.96 55.6548 1054.76 55.179 1054.76 54.5909C1054.76 54.1023 1054.89 53.6761 1055.15 53.3125C1055.42 52.946 1055.78 52.6619 1056.23 52.4602C1056.68 52.2557 1057.18 52.1534 1057.74 52.1534C1058.3 52.1534 1058.8 52.2543 1059.24 52.456C1059.68 52.6548 1060.03 52.9276 1060.28 53.2741C1060.54 53.6207 1060.68 54.0142 1060.69 54.4545H1059.67Z" fill="#525252"/>
<rect x="110.5" y="140.5" width="180" height="117" rx="18.5" fill="white" stroke="#D4D4D4"/>
<path d="M262.5 153.75C272.855 153.75 281.25 162.145 281.25 172.5C281.25 182.855 272.855 191.25 262.5 191.25H139.5C129.145 191.25 120.75 182.855 120.75 172.5C120.75 162.145 129.145 153.75 139.5 153.75H262.5Z" fill="#F7F7F7" stroke="#D4D4D4" stroke-width="0.5"/>
<mask id="path-23-outside-1_34_1745" maskUnits="userSpaceOnUse" x="120" y="209" width="162" height="39" fill="black">
<rect fill="white" x="120" y="209" width="162" height="39"/>
<path d="M121 228.5C121 218.283 129.283 210 139.5 210H262.5C272.717 210 281 218.283 281 228.5C281 238.717 272.717 247 262.5 247H139.5C129.283 247 121 238.717 121 228.5Z"/>
</mask>
<path d="M121 228.5C121 218.283 129.283 210 139.5 210H262.5C272.717 210 281 218.283 281 228.5C281 238.717 272.717 247 262.5 247H139.5C129.283 247 121 238.717 121 228.5Z" fill="#F7F7F7"/>
<path d="M121 228.5M281 228.5M281 228.5M121 228.5M139.5 210V211H262.5V210V209H139.5V210ZM281 228.5M262.5 247V246H139.5V247V248H262.5V247ZM121 228.5M139.5 247V246C129.835 246 122 238.165 122 228.5H121H120C120 239.27 128.73 248 139.5 248V247ZM281 228.5H280C280 238.165 272.165 246 262.5 246V247V248C273.27 248 282 239.27 282 228.5H281ZM262.5 210V211C272.165 211 280 218.835 280 228.5H281H282C282 217.73 273.27 209 262.5 209V210ZM139.5 210V209C128.73 209 120 217.73 120 228.5H121H122C122 218.835 129.835 211 139.5 211V210Z" fill="#D4D4D4" mask="url(#path-23-outside-1_34_1745)"/>
<path d="M185.541 175.704H195.381V176.544H185.541V175.704ZM186.405 168.168H194.457V168.984H186.405V168.168ZM186.429 172.74H194.433V173.556H186.429V172.74ZM188.085 168.912H189.081V172.836H188.085V168.912ZM191.781 168.912H192.765V172.836H191.781V168.912ZM196.568 173.052H206.408V173.868H196.568V173.052ZM197.816 167.352H205.148V169.992H198.824V171.444H197.84V169.248H204.164V168.144H197.816V167.352ZM197.84 171.12H205.376V171.912H197.84V171.12ZM200.996 171.528H201.98V173.448H200.996V171.528ZM197.672 174.696H205.208V177.828H204.212V175.5H197.672V174.696ZM210.476 168.012H211.304V169.956C211.304 170.58 211.224 171.188 211.064 171.78C210.912 172.364 210.692 172.912 210.404 173.424C210.124 173.928 209.792 174.376 209.408 174.768C209.032 175.152 208.62 175.456 208.172 175.68L207.56 174.852C207.968 174.668 208.348 174.404 208.7 174.06C209.052 173.716 209.36 173.328 209.624 172.896C209.888 172.456 210.096 171.984 210.248 171.48C210.4 170.976 210.476 170.468 210.476 169.956V168.012ZM210.644 168.012H211.472V169.956C211.472 170.452 211.544 170.94 211.688 171.42C211.84 171.9 212.048 172.356 212.312 172.788C212.584 173.212 212.892 173.588 213.236 173.916C213.588 174.236 213.964 174.488 214.364 174.672L213.764 175.464C213.324 175.256 212.916 174.964 212.54 174.588C212.164 174.212 211.832 173.78 211.544 173.292C211.264 172.804 211.044 172.276 210.884 171.708C210.724 171.14 210.644 170.556 210.644 169.956V168.012ZM215.504 167.076H216.5V177.948H215.504V167.076Z" fill="#171717"/>
<path d="M28.4729 172.668H29.4569V175.908H28.4729V172.668ZM32.4809 172.668H33.4769V175.908H32.4809V172.668ZM26.0609 175.716H35.9009V176.544H26.0609V175.716ZM30.9569 167.76C31.7249 167.76 32.4049 167.876 32.9969 168.108C33.5889 168.34 34.0529 168.664 34.3889 169.08C34.7329 169.496 34.9049 169.988 34.9049 170.556C34.9049 171.116 34.7329 171.608 34.3889 172.032C34.0529 172.448 33.5889 172.772 32.9969 173.004C32.4049 173.228 31.7249 173.34 30.9569 173.34C30.1969 173.34 29.5169 173.228 28.9169 173.004C28.3249 172.772 27.8609 172.448 27.5249 172.032C27.1889 171.608 27.0209 171.116 27.0209 170.556C27.0209 169.988 27.1889 169.496 27.5249 169.08C27.8609 168.664 28.3249 168.34 28.9169 168.108C29.5169 167.876 30.1969 167.76 30.9569 167.76ZM30.9569 168.552C30.3809 168.552 29.8689 168.636 29.4209 168.804C28.9729 168.972 28.6209 169.208 28.3649 169.512C28.1089 169.808 27.9809 170.156 27.9809 170.556C27.9809 170.956 28.1089 171.308 28.3649 171.612C28.6209 171.908 28.9729 172.14 29.4209 172.308C29.8689 172.476 30.3809 172.56 30.9569 172.56C31.5409 172.56 32.0569 172.476 32.5049 172.308C32.9529 172.14 33.3049 171.908 33.5609 171.612C33.8169 171.308 33.9449 170.956 33.9449 170.556C33.9449 170.156 33.8169 169.808 33.5609 169.512C33.3049 169.208 32.9529 168.972 32.5049 168.804C32.0569 168.636 31.5409 168.552 30.9569 168.552ZM39.812 168.936H40.616V169.392C40.616 170.024 40.492 170.612 40.244 171.156C39.996 171.692 39.644 172.164 39.188 172.572C38.74 172.972 38.212 173.276 37.604 173.484L37.124 172.704C37.66 172.528 38.128 172.276 38.528 171.948C38.928 171.612 39.24 171.224 39.464 170.784C39.696 170.344 39.812 169.88 39.812 169.392V168.936ZM39.98 168.936H40.796V169.392C40.796 169.728 40.86 170.052 40.988 170.364C41.124 170.676 41.312 170.968 41.552 171.24C41.792 171.504 42.08 171.736 42.416 171.936C42.752 172.136 43.12 172.296 43.52 172.416L43.052 173.196C42.444 173.012 41.908 172.736 41.444 172.368C40.988 171.992 40.628 171.552 40.364 171.048C40.108 170.536 39.98 169.984 39.98 169.392V168.936ZM37.4 168.384H43.196V169.188H37.4V168.384ZM39.812 167.028H40.808V168.672H39.812V167.028ZM42.86 170.172H45.308V170.988H42.86V170.172ZM45.032 167.076H46.028V173.652H45.032V167.076ZM42.452 173.94C43.58 173.94 44.464 174.116 45.104 174.468C45.744 174.812 46.064 175.296 46.064 175.92C46.064 176.544 45.744 177.032 45.104 177.384C44.464 177.736 43.58 177.912 42.452 177.912C41.332 177.912 40.448 177.736 39.8 177.384C39.16 177.032 38.84 176.544 38.84 175.92C38.84 175.296 39.16 174.812 39.8 174.468C40.448 174.116 41.332 173.94 42.452 173.94ZM42.452 174.72C41.908 174.72 41.44 174.768 41.048 174.864C40.656 174.952 40.352 175.088 40.136 175.272C39.928 175.448 39.824 175.664 39.824 175.92C39.824 176.176 39.928 176.396 40.136 176.58C40.352 176.756 40.656 176.892 41.048 176.988C41.44 177.084 41.908 177.132 42.452 177.132C43.004 177.132 43.472 177.084 43.856 176.988C44.248 176.892 44.548 176.756 44.756 176.58C44.972 176.396 45.08 176.176 45.08 175.92C45.08 175.664 44.972 175.448 44.756 175.272C44.548 175.088 44.248 174.952 43.856 174.864C43.472 174.768 43.004 174.72 42.452 174.72Z" fill="#525252"/>
<rect x="389.5" y="8.42856" width="39" height="20.1429" fill="#FAFAFA" stroke="#D4D4D4"/>
<path d="M408.375 21.6429C413.851 21.6429 418.945 22.5241 422.652 23.9329C424.508 24.638 425.99 25.4654 426.999 26.3596C428.01 27.2552 428.5 28.1728 428.5 29.0716C428.5 29.9703 428.01 30.888 426.999 31.7835C425.99 32.6777 424.508 33.5052 422.652 34.2102C418.945 35.619 413.851 36.5003 408.375 36.5003C402.899 36.5003 398.123 35.6194 394.736 34.2161C393.042 33.5141 391.719 32.6906 390.827 31.803C389.937 30.9179 389.5 29.9955 389.5 29.0716C389.5 28.1476 389.937 27.2253 390.827 26.3401C391.719 25.4525 393.042 24.629 394.736 23.927C398.123 22.5237 402.899 21.6429 408.375 21.6429Z" fill="#FAFAFA" stroke="#D4D4D4"/>
<path d="M408.375 11.0714C413.851 11.0714 418.945 11.9527 422.652 13.3615C424.508 14.0665 425.99 14.894 426.999 15.7882C428.01 16.6837 428.5 17.6014 428.5 18.5002C428.5 19.3988 428.01 20.3166 426.999 21.2121C425.99 22.1063 424.508 22.9338 422.652 23.6388C418.945 25.0476 413.851 25.9289 408.375 25.9289C402.899 25.9289 398.123 25.048 394.736 23.6447C393.042 22.9427 391.719 22.1191 390.827 21.2316C389.937 20.3465 389.5 19.4241 389.5 18.5002C389.5 17.5762 389.937 16.6539 390.827 15.7687C391.719 14.8811 393.042 14.0576 394.736 13.3556C398.123 11.9523 402.899 11.0714 408.375 11.0714Z" fill="#FAFAFA" stroke="#D4D4D4"/>
<path d="M409 0.5C414.476 0.5 419.411 1.38088 422.958 2.78711C424.733 3.4907 426.135 4.31613 427.086 5.20703C428.036 6.09726 428.5 7.01749 428.5 7.92871C428.5 8.83988 428.036 9.76021 427.086 10.6504C426.135 11.5413 424.733 12.3667 422.958 13.0703C419.411 14.4765 414.476 15.3574 409 15.3574C403.524 15.3574 398.589 14.4765 395.042 13.0703C393.267 12.3667 391.865 11.5413 390.914 10.6504C389.964 9.76021 389.5 8.83988 389.5 7.92871C389.5 7.01749 389.964 6.09726 390.914 5.20703C391.865 4.31613 393.267 3.4907 395.042 2.78711C398.589 1.38088 403.524 0.5 409 0.5Z" fill="#F5F5F5" stroke="#D4D4D4"/>
<path d="M201 192V209" stroke="#A3A3A3" stroke-width="2"/>
<rect x="374.5" y="73.5" width="180" height="117" rx="18.5" fill="white" stroke="#D4D4D4"/>
<path d="M526.5 86.75C536.855 86.75 545.25 95.1447 545.25 105.5C545.25 115.855 536.855 124.25 526.5 124.25H403.5C393.145 124.25 384.75 115.855 384.75 105.5C384.75 95.1447 393.145 86.75 403.5 86.75H526.5Z" fill="#F7F7F7" stroke="#D4D4D4" stroke-width="0.5"/>
<mask id="path-34-outside-2_34_1745" maskUnits="userSpaceOnUse" x="384" y="142" width="162" height="39" fill="black">
<rect fill="white" x="384" y="142" width="162" height="39"/>
<path d="M385 161.5C385 151.283 393.283 143 403.5 143H526.5C536.717 143 545 151.283 545 161.5C545 171.717 536.717 180 526.5 180H403.5C393.283 180 385 171.717 385 161.5Z"/>
</mask>
<path d="M385 161.5C385 151.283 393.283 143 403.5 143H526.5C536.717 143 545 151.283 545 161.5C545 171.717 536.717 180 526.5 180H403.5C393.283 180 385 171.717 385 161.5Z" fill="#F7F7F7"/>
<path d="M385 161.5M545 161.5M545 161.5M385 161.5M403.5 143V144H526.5V143V142H403.5V143ZM545 161.5M526.5 180V179H403.5V180V181H526.5V180ZM385 161.5M403.5 180V179C393.835 179 386 171.165 386 161.5H385H384C384 172.27 392.73 181 403.5 181V180ZM545 161.5H544C544 171.165 536.165 179 526.5 179V180V181C537.27 181 546 172.27 546 161.5H545ZM526.5 143V144C536.165 144 544 151.835 544 161.5H545H546C546 150.73 537.27 142 526.5 142V143ZM403.5 143V142C392.73 142 384 150.73 384 161.5H385H386C386 151.835 393.835 144 403.5 144V143Z" fill="#D4D4D4" mask="url(#path-34-outside-2_34_1745)"/>
<path d="M449.541 108.704H459.381V109.544H449.541V108.704ZM450.405 101.168H458.457V101.984H450.405V101.168ZM450.429 105.74H458.433V106.556H450.429V105.74ZM452.085 101.912H453.081V105.836H452.085V101.912ZM455.781 101.912H456.765V105.836H455.781V101.912ZM460.568 106.052H470.408V106.868H460.568V106.052ZM461.816 100.352H469.148V102.992H462.824V104.444H461.84V102.248H468.164V101.144H461.816V100.352ZM461.84 104.12H469.376V104.912H461.84V104.12ZM464.996 104.528H465.98V106.448H464.996V104.528ZM461.672 107.696H469.208V110.828H468.212V108.5H461.672V107.696ZM474.476 101.012H475.304V102.956C475.304 103.58 475.224 104.188 475.064 104.78C474.912 105.364 474.692 105.912 474.404 106.424C474.124 106.928 473.792 107.376 473.408 107.768C473.032 108.152 472.62 108.456 472.172 108.68L471.56 107.852C471.968 107.668 472.348 107.404 472.7 107.06C473.052 106.716 473.36 106.328 473.624 105.896C473.888 105.456 474.096 104.984 474.248 104.48C474.4 103.976 474.476 103.468 474.476 102.956V101.012ZM474.644 101.012H475.472V102.956C475.472 103.452 475.544 103.94 475.688 104.42C475.84 104.9 476.048 105.356 476.312 105.788C476.584 106.212 476.892 106.588 477.236 106.916C477.588 107.236 477.964 107.488 478.364 107.672L477.764 108.464C477.324 108.256 476.916 107.964 476.54 107.588C476.164 107.212 475.832 106.78 475.544 106.292C475.264 105.804 475.044 105.276 474.884 104.708C474.724 104.14 474.644 103.556 474.644 102.956V101.012ZM479.504 100.076H480.5V110.948H479.504V100.076Z" fill="#171717"/>
<path d="M465 125V142" stroke="#A3A3A3" stroke-width="2"/>
<rect x="373.5" y="210.5" width="180" height="117" rx="18.5" fill="white" stroke="#D4D4D4"/>
<path d="M525.5 223.75C535.855 223.75 544.25 232.145 544.25 242.5C544.25 252.855 535.855 261.25 525.5 261.25H402.5C392.145 261.25 383.75 252.855 383.75 242.5C383.75 232.145 392.145 223.75 402.5 223.75H525.5Z" fill="#F7F7F7" stroke="#D4D4D4" stroke-width="0.5"/>
<mask id="path-40-outside-3_34_1745" maskUnits="userSpaceOnUse" x="383" y="279" width="162" height="39" fill="black">
<rect fill="white" x="383" y="279" width="162" height="39"/>
<path d="M384 298.5C384 288.283 392.283 280 402.5 280H525.5C535.717 280 544 288.283 544 298.5C544 308.717 535.717 317 525.5 317H402.5C392.283 317 384 308.717 384 298.5Z"/>
</mask>
<path d="M384 298.5C384 288.283 392.283 280 402.5 280H525.5C535.717 280 544 288.283 544 298.5C544 308.717 535.717 317 525.5 317H402.5C392.283 317 384 308.717 384 298.5Z" fill="#F7F7F7"/>
<path d="M384 298.5M544 298.5M544 298.5M384 298.5M402.5 280V281H525.5V280V279H402.5V280ZM544 298.5M525.5 317V316H402.5V317V318H525.5V317ZM384 298.5M402.5 317V316C392.835 316 385 308.165 385 298.5H384H383C383 309.27 391.73 318 402.5 318V317ZM544 298.5H543C543 308.165 535.165 316 525.5 316V317V318C536.27 318 545 309.27 545 298.5H544ZM525.5 280V281C535.165 281 543 288.835 543 298.5H544H545C545 287.73 536.27 279 525.5 279V280ZM402.5 280V279C391.73 279 383 287.73 383 298.5H384H385C385 288.835 392.835 281 402.5 281V280Z" fill="#D4D4D4" mask="url(#path-40-outside-3_34_1745)"/>
<path d="M448.541 245.704H458.381V246.544H448.541V245.704ZM449.405 238.168H457.457V238.984H449.405V238.168ZM449.429 242.74H457.433V243.556H449.429V242.74ZM451.085 238.912H452.081V242.836H451.085V238.912ZM454.781 238.912H455.765V242.836H454.781V238.912ZM459.568 243.052H469.408V243.868H459.568V243.052ZM460.816 237.352H468.148V239.992H461.824V241.444H460.84V239.248H467.164V238.144H460.816V237.352ZM460.84 241.12H468.376V241.912H460.84V241.12ZM463.996 241.528H464.98V243.448H463.996V241.528ZM460.672 244.696H468.208V247.828H467.212V245.5H460.672V244.696ZM473.476 238.012H474.304V239.956C474.304 240.58 474.224 241.188 474.064 241.78C473.912 242.364 473.692 242.912 473.404 243.424C473.124 243.928 472.792 244.376 472.408 244.768C472.032 245.152 471.62 245.456 471.172 245.68L470.56 244.852C470.968 244.668 471.348 244.404 471.7 244.06C472.052 243.716 472.36 243.328 472.624 242.896C472.888 242.456 473.096 241.984 473.248 241.48C473.4 240.976 473.476 240.468 473.476 239.956V238.012ZM473.644 238.012H474.472V239.956C474.472 240.452 474.544 240.94 474.688 241.42C474.84 241.9 475.048 242.356 475.312 242.788C475.584 243.212 475.892 243.588 476.236 243.916C476.588 244.236 476.964 244.488 477.364 244.672L476.764 245.464C476.324 245.256 475.916 244.964 475.54 244.588C475.164 244.212 474.832 243.78 474.544 243.292C474.264 242.804 474.044 242.276 473.884 241.708C473.724 241.14 473.644 240.556 473.644 239.956V238.012ZM478.504 237.076H479.5V247.948H478.504V237.076Z" fill="#171717"/>
<path d="M464 262V279" stroke="#A3A3A3" stroke-width="2"/>
<rect x="373.5" y="347.5" width="180" height="117" rx="18.5" fill="white" stroke="#D4D4D4"/>
<path d="M525.5 360.75C535.855 360.75 544.25 369.145 544.25 379.5C544.25 389.855 535.855 398.25 525.5 398.25H402.5C392.145 398.25 383.75 389.855 383.75 379.5C383.75 369.145 392.145 360.75 402.5 360.75H525.5Z" fill="#F7F7F7" stroke="#E5E5E5" stroke-width="0.5"/>
<mask id="path-46-outside-4_34_1745" maskUnits="userSpaceOnUse" x="383" y="416" width="162" height="39" fill="black">
<rect fill="white" x="383" y="416" width="162" height="39"/>
<path d="M384 435.5C384 425.283 392.283 417 402.5 417H525.5C535.717 417 544 425.283 544 435.5C544 445.717 535.717 454 525.5 454H402.5C392.283 454 384 445.717 384 435.5Z"/>
</mask>
<path d="M384 435.5C384 425.283 392.283 417 402.5 417H525.5C535.717 417 544 425.283 544 435.5C544 445.717 535.717 454 525.5 454H402.5C392.283 454 384 445.717 384 435.5Z" fill="#F7F7F7"/>
<path d="M384 435.5M544 435.5M544 435.5M384 435.5M402.5 417V418H525.5V417V416H402.5V417ZM544 435.5M525.5 454V453H402.5V454V455H525.5V454ZM384 435.5M402.5 454V453C392.835 453 385 445.165 385 435.5H384H383C383 446.27 391.73 455 402.5 455V454ZM544 435.5H543C543 445.165 535.165 453 525.5 453V454V455C536.27 455 545 446.27 545 435.5H544ZM525.5 417V418C535.165 418 543 425.835 543 435.5H544H545C545 424.73 536.27 416 525.5 416V417ZM402.5 417V416C391.73 416 383 424.73 383 435.5H384H385C385 425.835 392.835 418 402.5 418V417Z" fill="#E5E5E5" mask="url(#path-46-outside-4_34_1745)"/>
<path d="M448.541 382.704H458.381V383.544H448.541V382.704ZM449.405 375.168H457.457V375.984H449.405V375.168ZM449.429 379.74H457.433V380.556H449.429V379.74ZM451.085 375.912H452.081V379.836H451.085V375.912ZM454.781 375.912H455.765V379.836H454.781V375.912ZM459.568 380.052H469.408V380.868H459.568V380.052ZM460.816 374.352H468.148V376.992H461.824V378.444H460.84V376.248H467.164V375.144H460.816V374.352ZM460.84 378.12H468.376V378.912H460.84V378.12ZM463.996 378.528H464.98V380.448H463.996V378.528ZM460.672 381.696H468.208V384.828H467.212V382.5H460.672V381.696ZM473.476 375.012H474.304V376.956C474.304 377.58 474.224 378.188 474.064 378.78C473.912 379.364 473.692 379.912 473.404 380.424C473.124 380.928 472.792 381.376 472.408 381.768C472.032 382.152 471.62 382.456 471.172 382.68L470.56 381.852C470.968 381.668 471.348 381.404 471.7 381.06C472.052 380.716 472.36 380.328 472.624 379.896C472.888 379.456 473.096 378.984 473.248 378.48C473.4 377.976 473.476 377.468 473.476 376.956V375.012ZM473.644 375.012H474.472V376.956C474.472 377.452 474.544 377.94 474.688 378.42C474.84 378.9 475.048 379.356 475.312 379.788C475.584 380.212 475.892 380.588 476.236 380.916C476.588 381.236 476.964 381.488 477.364 381.672L476.764 382.464C476.324 382.256 475.916 381.964 475.54 381.588C475.164 381.212 474.832 380.78 474.544 380.292C474.264 379.804 474.044 379.276 473.884 378.708C473.724 378.14 473.644 377.556 473.644 376.956V375.012ZM478.504 374.076H479.5V384.948H478.504V374.076Z" fill="#171717"/>
<path d="M464 399V416" stroke="#A3A3A3" stroke-width="2"/>
<path d="M121 173L111 167.226V178.774L121 173ZM112 173V172H73V173V174H112V173Z" fill="#A3A3A3"/>
<path d="M385 110L374.585 105.015L375.475 116.527L385 110ZM281 173L281 174C303.546 174 316.844 159.774 329.704 145.078C342.645 130.289 355.145 115.044 376.189 111.681L376.031 110.694L375.873 109.706C353.987 113.204 341.018 129.111 328.199 143.761C315.299 158.503 302.546 172 281 172L281 173Z" fill="#A3A3A3"/>
<rect x="639.569" y="7.5" width="180" height="116.371" rx="18.5" fill="white" stroke="#D4D4D4"/>
<path d="M791.667 20.6754C801.968 20.6754 810.319 29.0259 810.319 39.3267C810.319 49.6276 801.968 57.9781 791.667 57.9781H668.47C658.169 57.9781 649.819 49.6276 649.819 39.3267C649.819 29.0259 658.169 20.6754 668.47 20.6754H791.667Z" fill="#F7F7F7" stroke="#E5E5E5" stroke-width="0.5"/>
<mask id="path-54-outside-5_34_1745" maskUnits="userSpaceOnUse" x="649.069" y="75.6266" width="162" height="39" fill="black">
<rect fill="white" x="649.069" y="75.6266" width="162" height="39"/>
<path d="M650.069 95.028C650.069 84.8652 658.307 76.6266 668.47 76.6266H791.667C801.83 76.6266 810.069 84.8652 810.069 95.028C810.069 105.191 801.83 113.429 791.667 113.429H668.47C658.307 113.429 650.069 105.191 650.069 95.028Z"/>
</mask>
<path d="M650.069 95.028C650.069 84.8652 658.307 76.6266 668.47 76.6266H791.667C801.83 76.6266 810.069 84.8652 810.069 95.028C810.069 105.191 801.83 113.429 791.667 113.429H668.47C658.307 113.429 650.069 105.191 650.069 95.028Z" fill="#F7F7F7"/>
<path d="M650.069 95.028M810.069 95.028M810.069 95.028M650.069 95.028M668.47 76.6266V77.6266H791.667V76.6266V75.6266H668.47V76.6266ZM810.069 95.028M791.667 113.429V112.429H668.47V113.429V114.429H791.667V113.429ZM650.069 95.028M668.47 113.429V112.429C658.86 112.429 651.069 104.638 651.069 95.028H650.069H649.069C649.069 105.743 657.755 114.429 668.47 114.429V113.429ZM810.069 95.028H809.069C809.069 104.638 801.278 112.429 791.667 112.429V113.429V114.429C802.383 114.429 811.069 105.743 811.069 95.028H810.069ZM791.667 76.6266V77.6266C801.278 77.6266 809.069 85.4175 809.069 95.028H810.069H811.069C811.069 84.3129 802.383 75.6266 791.667 75.6266V76.6266ZM668.47 76.6266V75.6266C657.755 75.6266 649.069 84.3129 649.069 95.028H650.069H651.069C651.069 85.4175 658.86 77.6266 668.47 77.6266V76.6266Z" fill="#E5E5E5" mask="url(#path-54-outside-5_34_1745)"/>
<path d="M714.61 42.704H724.45V43.544H714.61V42.704ZM715.474 35.168H723.526V35.984H715.474V35.168ZM715.498 39.74H723.502V40.556H715.498V39.74ZM717.154 35.912H718.15V39.836H717.154V35.912ZM720.85 35.912H721.834V39.836H720.85V35.912ZM725.637 40.052H735.477V40.868H725.637V40.052ZM726.885 34.352H734.217V36.992H727.893V38.444H726.909V36.248H733.233V35.144H726.885V34.352ZM726.909 38.12H734.445V38.912H726.909V38.12ZM730.065 38.528H731.049V40.448H730.065V38.528ZM726.741 41.696H734.277V44.828H733.281V42.5H726.741V41.696ZM739.544 35.012H740.372V36.956C740.372 37.58 740.292 38.188 740.132 38.78C739.98 39.364 739.76 39.912 739.472 40.424C739.192 40.928 738.86 41.376 738.476 41.768C738.1 42.152 737.688 42.456 737.24 42.68L736.628 41.852C737.036 41.668 737.416 41.404 737.768 41.06C738.12 40.716 738.428 40.328 738.692 39.896C738.956 39.456 739.164 38.984 739.316 38.48C739.468 37.976 739.544 37.468 739.544 36.956V35.012ZM739.712 35.012H740.54V36.956C740.54 37.452 740.612 37.94 740.756 38.42C740.908 38.9 741.116 39.356 741.38 39.788C741.652 40.212 741.96 40.588 742.304 40.916C742.656 41.236 743.032 41.488 743.432 41.672L742.832 42.464C742.392 42.256 741.984 41.964 741.608 41.588C741.232 41.212 740.9 40.78 740.612 40.292C740.332 39.804 740.112 39.276 739.952 38.708C739.792 38.14 739.712 37.556 739.712 36.956V35.012ZM744.572 34.076H745.568V44.948H744.572V34.076Z" fill="#171717"/>
<path d="M730.069 59V76" stroke="#A3A3A3" stroke-width="2"/>
<path d="M650.069 44L639.653 39.0146L640.544 50.5273L650.069 44ZM546.069 107L546.069 108C568.615 108 581.913 93.7743 594.773 79.0779C607.713 64.2893 620.214 49.0438 641.258 45.681L641.1 44.6935L640.942 43.7061C619.055 47.2036 606.087 63.1114 593.267 77.7609C580.368 92.5026 567.615 106 546.069 106L546.069 107Z" fill="#A3A3A3"/>
<path d="M384.296 242.54L374.872 235.868L373.806 247.366L384.296 242.54ZM280.296 172.54L280.296 173.54C305.277 173.54 318.583 188.489 330.853 204.771C336.962 212.877 342.85 221.364 349.75 228.282C356.678 235.228 364.696 240.671 375.143 242.691L375.333 241.709L375.523 240.727C365.588 238.806 357.911 233.633 351.166 226.87C344.394 220.08 338.631 211.768 332.45 203.567C320.142 187.235 306.31 171.54 280.296 171.54L280.296 172.54Z" fill="#A3A3A3"/>
<rect x="635.796" y="281.04" width="180" height="117" rx="18.5" fill="white" stroke="#D4D4D4"/>
<path d="M787.796 294.29C798.151 294.29 806.546 302.685 806.546 313.04C806.546 323.396 798.151 331.79 787.796 331.79H664.796C654.441 331.79 646.046 323.396 646.046 313.04C646.046 302.685 654.441 294.29 664.796 294.29H787.796Z" fill="#F7F7F7" stroke="#D4D4D4" stroke-width="0.5"/>
<mask id="path-62-outside-6_34_1745" maskUnits="userSpaceOnUse" x="645.296" y="349.54" width="162" height="39" fill="black">
<rect fill="white" x="645.296" y="349.54" width="162" height="39"/>
<path d="M646.296 369.04C646.296 358.823 654.579 350.54 664.796 350.54H787.796C798.013 350.54 806.296 358.823 806.296 369.04C806.296 379.258 798.013 387.54 787.796 387.54H664.796C654.579 387.54 646.296 379.258 646.296 369.04Z"/>
</mask>
<path d="M646.296 369.04C646.296 358.823 654.579 350.54 664.796 350.54H787.796C798.013 350.54 806.296 358.823 806.296 369.04C806.296 379.258 798.013 387.54 787.796 387.54H664.796C654.579 387.54 646.296 379.258 646.296 369.04Z" fill="#F7F7F7"/>
<path d="M646.296 369.04M806.296 369.04M806.296 369.04M646.296 369.04M664.796 350.54V351.54H787.796V350.54V349.54H664.796V350.54ZM806.296 369.04M787.796 387.54V386.54H664.796V387.54V388.54H787.796V387.54ZM646.296 369.04M664.796 387.54V386.54C655.131 386.54 647.296 378.705 647.296 369.04H646.296H645.296C645.296 379.81 654.026 388.54 664.796 388.54V387.54ZM806.296 369.04H805.296C805.296 378.705 797.461 386.54 787.796 386.54V387.54V388.54C798.566 388.54 807.296 379.81 807.296 369.04H806.296ZM787.796 350.54V351.54C797.461 351.54 805.296 359.375 805.296 369.04H806.296H807.296C807.296 358.271 798.566 349.54 787.796 349.54V350.54ZM664.796 350.54V349.54C654.026 349.54 645.296 358.271 645.296 369.04H646.296H647.296C647.296 359.375 655.131 351.54 664.796 351.54V350.54Z" fill="#D4D4D4" mask="url(#path-62-outside-6_34_1745)"/>
<path d="M710.837 316.244H720.677V317.084H710.837V316.244ZM711.701 308.708H719.753V309.524H711.701V308.708ZM711.725 313.28H719.729V314.096H711.725V313.28ZM713.381 309.452H714.377V313.376H713.381V309.452ZM717.077 309.452H718.061V313.376H717.077V309.452ZM721.864 313.592H731.704V314.408H721.864V313.592ZM723.112 307.892H730.444V310.532H724.12V311.984H723.136V309.788H729.46V308.684H723.112V307.892ZM723.136 311.66H730.672V312.452H723.136V311.66ZM726.292 312.068H727.276V313.988H726.292V312.068ZM722.968 315.236H730.504V318.368H729.508V316.04H722.968V315.236ZM735.772 308.552H736.6V310.496C736.6 311.12 736.52 311.728 736.36 312.32C736.208 312.904 735.988 313.452 735.7 313.964C735.42 314.468 735.088 314.916 734.704 315.308C734.328 315.692 733.916 315.996 733.468 316.22L732.856 315.392C733.264 315.208 733.644 314.944 733.996 314.6C734.348 314.256 734.656 313.868 734.92 313.436C735.184 312.996 735.392 312.524 735.544 312.02C735.696 311.516 735.772 311.008 735.772 310.496V308.552ZM735.94 308.552H736.768V310.496C736.768 310.992 736.84 311.48 736.984 311.96C737.136 312.44 737.344 312.896 737.608 313.328C737.88 313.752 738.188 314.128 738.532 314.456C738.884 314.776 739.26 315.028 739.66 315.212L739.06 316.004C738.62 315.796 738.212 315.504 737.836 315.128C737.46 314.752 737.128 314.32 736.84 313.832C736.56 313.344 736.34 312.816 736.18 312.248C736.02 311.68 735.94 311.096 735.94 310.496V308.552ZM740.8 307.616H741.796V318.488H740.8V307.616Z" fill="#171717"/>
<path d="M726.296 332.54V349.54" stroke="#A3A3A3" stroke-width="2"/>
<path d="M647.296 313.54L637.872 306.868L636.806 318.366L647.296 313.54ZM543.296 243.54L543.296 244.54C568.277 244.54 581.583 259.489 593.853 275.771C599.962 283.877 605.85 292.364 612.75 299.282C619.678 306.228 627.696 311.671 638.143 313.691L638.333 312.709L638.523 311.727C628.588 309.806 620.911 304.633 614.166 297.87C607.394 291.08 601.631 282.768 595.45 274.567C583.142 258.235 569.31 242.54 543.296 242.54L543.296 243.54Z" fill="#A3A3A3"/>
<rect x="638.796" y="144.04" width="180" height="117" rx="18.5" fill="white" stroke="#D4D4D4"/>
<path d="M790.796 157.29C801.151 157.29 809.546 165.685 809.546 176.04C809.546 186.396 801.151 194.79 790.796 194.79H667.796C657.441 194.79 649.046 186.396 649.046 176.04C649.046 165.685 657.441 157.29 667.796 157.29H790.796Z" fill="#F7F7F7" stroke="#D4D4D4" stroke-width="0.5"/>
<mask id="path-69-outside-7_34_1745" maskUnits="userSpaceOnUse" x="648.296" y="212.54" width="162" height="39" fill="black">
<rect fill="white" x="648.296" y="212.54" width="162" height="39"/>
<path d="M649.296 232.04C649.296 221.823 657.579 213.54 667.796 213.54H790.796C801.013 213.54 809.296 221.823 809.296 232.04C809.296 242.258 801.013 250.54 790.796 250.54H667.796C657.579 250.54 649.296 242.258 649.296 232.04Z"/>
</mask>
<path d="M649.296 232.04C649.296 221.823 657.579 213.54 667.796 213.54H790.796C801.013 213.54 809.296 221.823 809.296 232.04C809.296 242.258 801.013 250.54 790.796 250.54H667.796C657.579 250.54 649.296 242.258 649.296 232.04Z" fill="#F7F7F7"/>
<path d="M649.296 232.04M809.296 232.04M809.296 232.04M649.296 232.04M667.796 213.54V214.54H790.796V213.54V212.54H667.796V213.54ZM809.296 232.04M790.796 250.54V249.54H667.796V250.54V251.54H790.796V250.54ZM649.296 232.04M667.796 250.54V249.54C658.131 249.54 650.296 241.705 650.296 232.04H649.296H648.296C648.296 242.81 657.026 251.54 667.796 251.54V250.54ZM809.296 232.04H808.296C808.296 241.705 800.461 249.54 790.796 249.54V250.54V251.54C801.566 251.54 810.296 242.81 810.296 232.04H809.296ZM790.796 213.54V214.54C800.461 214.54 808.296 222.375 808.296 232.04H809.296H810.296C810.296 221.271 801.566 212.54 790.796 212.54V213.54ZM667.796 213.54V212.54C657.026 212.54 648.296 221.271 648.296 232.04H649.296H650.296C650.296 222.375 658.131 214.54 667.796 214.54V213.54Z" fill="#D4D4D4" mask="url(#path-69-outside-7_34_1745)"/>
<path d="M713.837 179.244H723.677V180.084H713.837V179.244ZM714.701 171.708H722.753V172.524H714.701V171.708ZM714.725 176.28H722.729V177.096H714.725V176.28ZM716.381 172.452H717.377V176.376H716.381V172.452ZM720.077 172.452H721.061V176.376H720.077V172.452ZM724.864 176.592H734.704V177.408H724.864V176.592ZM726.112 170.892H733.444V173.532H727.12V174.984H726.136V172.788H732.46V171.684H726.112V170.892ZM726.136 174.66H733.672V175.452H726.136V174.66ZM729.292 175.068H730.276V176.988H729.292V175.068ZM725.968 178.236H733.504V181.368H732.508V179.04H725.968V178.236ZM738.772 171.552H739.6V173.496C739.6 174.12 739.52 174.728 739.36 175.32C739.208 175.904 738.988 176.452 738.7 176.964C738.42 177.468 738.088 177.916 737.704 178.308C737.328 178.692 736.916 178.996 736.468 179.22L735.856 178.392C736.264 178.208 736.644 177.944 736.996 177.6C737.348 177.256 737.656 176.868 737.92 176.436C738.184 175.996 738.392 175.524 738.544 175.02C738.696 174.516 738.772 174.008 738.772 173.496V171.552ZM738.94 171.552H739.768V173.496C739.768 173.992 739.84 174.48 739.984 174.96C740.136 175.44 740.344 175.896 740.608 176.328C740.88 176.752 741.188 177.128 741.532 177.456C741.884 177.776 742.26 178.028 742.66 178.212L742.06 179.004C741.62 178.796 741.212 178.504 740.836 178.128C740.46 177.752 740.128 177.32 739.84 176.832C739.56 176.344 739.34 175.816 739.18 175.248C739.02 174.68 738.94 174.096 738.94 173.496V171.552ZM743.8 170.616H744.796V181.488H743.8V170.616Z" fill="#171717"/>
<path d="M729.296 195.54V212.54" stroke="#A3A3A3" stroke-width="2"/>
<path d="M650.296 176.54L640.872 169.868L639.806 181.366L650.296 176.54ZM546.296 106.54L546.296 107.54C571.277 107.54 584.583 122.489 596.853 138.771C602.962 146.877 608.85 155.364 615.75 162.282C622.678 169.228 630.696 174.671 641.143 176.691L641.333 175.709L641.523 174.727C631.588 172.806 623.911 167.633 617.166 160.87C610.394 154.08 604.631 145.768 598.45 137.567C586.142 121.235 572.31 105.54 546.296 105.54L546.296 106.54Z" fill="#A3A3A3"/>
<path d="M384 380L374.412 373.566L373.634 385.086L384 380ZM283 173L283 174C295.054 174 304.095 176.987 310.91 182.162C317.733 187.342 322.418 194.785 325.627 203.858C332.065 222.056 332.474 246.522 332.498 271.598C332.523 296.574 332.166 322.14 337.213 342.214C339.741 352.269 343.642 361.03 349.693 367.676C355.76 374.342 363.934 378.819 374.878 380.383L375.02 379.393L375.161 378.403C364.645 376.901 356.905 372.628 351.172 366.33C345.42 360.012 341.633 351.595 339.152 341.726C334.18 321.951 334.523 296.685 334.498 271.596C334.474 246.607 334.086 221.774 327.513 203.191C324.217 193.872 319.343 186.053 312.12 180.569C304.889 175.079 295.398 172 283 172L283 173Z" fill="#A3A3A3"/>
<path d="M374.5 379.5C345.009 378.63 342.922 241.054 375 242" stroke="#A3A3A3" stroke-width="2"/>
<path d="M384.391 17L374.905 10.4172L373.947 21.9244L384.391 17ZM375.5 110L375.5 109C369.927 109 365.773 104.329 363.064 96.3584C360.381 88.463 359.292 77.7615 359.604 66.6963C359.915 55.6414 361.623 44.3114 364.473 35.1835C365.899 30.619 367.601 26.6357 369.536 23.5207C371.478 20.394 373.606 18.222 375.849 17.1568L375.42 16.2535L374.991 15.3502C372.263 16.6459 369.881 19.1741 367.837 22.4653C365.785 25.7683 364.022 29.9205 362.564 34.5873C359.649 43.9223 357.92 55.4387 357.605 66.6399C357.289 77.8309 358.382 88.7953 361.17 97.0019C363.934 105.133 368.541 111 375.5 111L375.5 110Z" fill="#A3A3A3"/>
<rect x="652.5" y="422.429" width="39" height="20.1429" fill="#FAFAFA" stroke="#D4D4D4"/>
<path d="M671.375 435.643C676.851 435.643 681.945 436.524 685.652 437.933C687.508 438.638 688.99 439.465 689.999 440.36C691.01 441.255 691.5 442.173 691.5 443.072C691.5 443.97 691.01 444.888 689.999 445.784C688.99 446.678 687.508 447.505 685.652 448.21C681.945 449.619 676.851 450.5 671.375 450.5C665.899 450.5 661.123 449.619 657.736 448.216C656.042 447.514 654.719 446.691 653.827 445.803C652.937 444.918 652.5 443.995 652.5 443.072C652.5 442.148 652.937 441.225 653.827 440.34C654.719 439.453 656.042 438.629 657.736 437.927C661.123 436.524 665.899 435.643 671.375 435.643Z" fill="#FAFAFA" stroke="#D4D4D4"/>
<path d="M671.375 425.071C676.851 425.071 681.945 425.953 685.652 427.361C687.508 428.067 688.99 428.894 689.999 429.788C691.01 430.684 691.5 431.601 691.5 432.5C691.5 433.399 691.01 434.317 689.999 435.212C688.99 436.106 687.508 436.934 685.652 437.639C681.945 439.048 676.851 439.929 671.375 439.929C665.899 439.929 661.123 439.048 657.736 437.645C656.042 436.943 654.719 436.119 653.827 435.232C652.937 434.346 652.5 433.424 652.5 432.5C652.5 431.576 652.937 430.654 653.827 429.769C654.719 428.881 656.042 428.058 657.736 427.356C661.123 425.952 665.899 425.071 671.375 425.071Z" fill="#FAFAFA" stroke="#D4D4D4"/>
<path d="M672 414.5C677.476 414.5 682.411 415.381 685.958 416.787C687.733 417.491 689.135 418.316 690.086 419.207C691.036 420.097 691.5 421.017 691.5 421.929C691.5 422.84 691.036 423.76 690.086 424.65C689.135 425.541 687.733 426.367 685.958 427.07C682.411 428.477 677.476 429.357 672 429.357C666.524 429.357 661.589 428.477 658.042 427.07C656.267 426.367 654.865 425.541 653.914 424.65C652.964 423.76 652.5 422.84 652.5 421.929C652.5 421.017 652.964 420.097 653.914 419.207C654.865 418.316 656.267 417.491 658.042 416.787C661.589 415.381 666.524 414.5 672 414.5Z" fill="#F5F5F5" stroke="#D4D4D4"/>
<path d="M647.061 431L637.154 425.067L636.97 436.613L647.061 431ZM638.059 430.856L638.63 430.035C636.327 428.432 634.12 425.459 632.098 421.34C630.086 417.243 628.304 412.108 626.801 406.297C623.795 394.677 621.931 380.458 621.539 366.661C621.146 352.853 622.231 339.547 625.076 329.729C626.5 324.816 628.344 320.85 630.605 318.13C632.847 315.433 635.459 314 638.5 314L638.5 313L638.5 312C634.729 312 631.593 313.813 629.067 316.852C626.56 319.868 624.618 324.127 623.155 329.172C620.229 339.27 619.144 352.808 619.54 366.718C619.935 380.639 621.815 395.01 624.864 406.798C626.389 412.691 628.212 417.964 630.303 422.222C632.383 426.459 634.775 429.788 637.488 431.677L638.059 430.856Z" fill="#A3A3A3"/>
<path d="M639.5 313C611 313 610.5 175.5 641.5 175.5" stroke="#A3A3A3" stroke-width="2"/>
</svg>
