<svg width="676" height="280" viewBox="0 0 676 280" fill="none" xmlns="http://www.w3.org/2000/svg">
<rect x="462.5" y="0.5" width="193" height="279" rx="18.5" fill="white" stroke="#D4D4D4"/>
<path d="M555.764 17.168H556.688V21.176C556.688 21.448 556.652 21.664 556.58 21.824C556.508 21.976 556.36 22.092 556.136 22.172C555.912 22.244 555.608 22.288 555.224 22.304C554.848 22.312 554.376 22.316 553.808 22.316C553.792 22.172 553.756 22.012 553.7 21.836C553.652 21.66 553.596 21.508 553.532 21.38C553.828 21.388 554.108 21.396 554.372 21.404C554.636 21.404 554.864 21.404 555.056 21.404C555.248 21.396 555.384 21.392 555.464 21.392C555.576 21.384 555.652 21.364 555.692 21.332C555.74 21.3 555.764 21.24 555.764 21.152V17.168ZM550.82 17.696H551.768V23.936H550.82V17.696ZM547.676 17.168H556.16V18.032H547.676V17.168ZM547.16 14.276H557.852V15.14H547.16V14.276ZM549.968 12.92H550.892V16.52H549.968V12.92ZM554.108 12.92H555.044V16.52H554.108V12.92ZM563.96 12.92H564.86V17.012H563.96V12.92ZM561.344 17.42V19.568H567.62V17.42H561.344ZM560.492 16.568H568.52V20.408H560.492V16.568ZM564.38 14.192H569.42V15.044H564.38V14.192ZM562.58 21.464L563.432 21.392C563.496 21.64 563.548 21.912 563.588 22.208C563.636 22.496 563.672 22.772 563.696 23.036C563.728 23.308 563.744 23.54 563.744 23.732L562.832 23.852C562.832 23.652 562.82 23.416 562.796 23.144C562.78 22.872 562.752 22.588 562.712 22.292C562.672 21.996 562.628 21.72 562.58 21.464ZM565.064 21.476L565.88 21.296C566.008 21.536 566.128 21.8 566.24 22.088C566.36 22.368 566.468 22.64 566.564 22.904C566.668 23.168 566.74 23.4 566.78 23.6L565.904 23.828C565.864 23.628 565.8 23.392 565.712 23.12C565.624 22.848 565.524 22.568 565.412 22.28C565.3 21.992 565.184 21.724 565.064 21.476ZM567.512 21.38L568.316 21.068C568.524 21.324 568.728 21.596 568.928 21.884C569.136 22.172 569.328 22.46 569.504 22.748C569.68 23.028 569.816 23.28 569.912 23.504L569.06 23.864C568.972 23.64 568.844 23.384 568.676 23.096C568.508 22.808 568.32 22.516 568.112 22.22C567.912 21.916 567.712 21.636 567.512 21.38ZM560.624 21.14L561.476 21.368C561.284 21.832 561.04 22.3 560.744 22.772C560.456 23.244 560.148 23.636 559.82 23.948L559.004 23.552C559.324 23.28 559.628 22.924 559.916 22.484C560.204 22.036 560.44 21.588 560.624 21.14Z" fill="#171717"/>
<rect x="468.5" y="124.5" width="180" height="64" rx="18.5" fill="white" stroke="#D4D4D4"/>
<path d="M620.5 137.75C630.855 137.75 639.25 146.145 639.25 156.5C639.25 166.855 630.855 175.25 620.5 175.25H497.5C487.145 175.25 478.75 166.855 478.75 156.5C478.75 146.145 487.145 137.75 497.5 137.75H620.5Z" fill="#F7F7F7" stroke="#D4D4D4" stroke-width="0.5"/>
<rect x="468.5" y="203.5" width="180" height="62" rx="18.5" fill="white" stroke="#D4D4D4"/>
<path d="M620.5 216.75C630.855 216.75 639.25 225.145 639.25 235.5C639.25 245.855 630.855 254.25 620.5 254.25H497.5C487.145 254.25 478.75 245.855 478.75 235.5C478.75 225.145 487.145 216.75 497.5 216.75H620.5Z" fill="#F7F7F7" stroke="#D4D4D4" stroke-width="0.5"/>
<path d="M537.366 240V239.233L541.082 234.46V234.392H537.485V233.455H542.377V234.256L538.763 238.994V239.062H542.496V240H537.366ZM543.294 232.21V231.273H549.84V232.21H547.096V240H546.039V232.21H543.294ZM554.569 237.324V233.455H555.575V240H554.569V238.892H554.501C554.347 239.224 554.109 239.507 553.785 239.74C553.461 239.97 553.052 240.085 552.558 240.085C552.148 240.085 551.785 239.996 551.467 239.817C551.148 239.635 550.898 239.362 550.717 238.999C550.535 238.632 550.444 238.17 550.444 237.614V233.455H551.45V237.545C551.45 238.023 551.583 238.403 551.85 238.688C552.12 238.972 552.464 239.114 552.881 239.114C553.131 239.114 553.386 239.05 553.644 238.922C553.906 238.794 554.124 238.598 554.3 238.334C554.479 238.07 554.569 237.733 554.569 237.324ZM558.422 236.062V240H557.417V233.455H558.388V234.477H558.473C558.627 234.145 558.86 233.878 559.172 233.676C559.485 233.472 559.888 233.369 560.382 233.369C560.826 233.369 561.213 233.46 561.546 233.642C561.878 233.821 562.137 234.094 562.321 234.46C562.506 234.824 562.598 235.284 562.598 235.841V240H561.593V235.909C561.593 235.395 561.459 234.994 561.192 234.707C560.925 234.418 560.559 234.273 560.093 234.273C559.772 234.273 559.485 234.342 559.232 234.482C558.982 234.621 558.784 234.824 558.64 235.091C558.495 235.358 558.422 235.682 558.422 236.062ZM565.442 236.062V240H564.436V233.455H565.408V234.477H565.493C565.646 234.145 565.879 233.878 566.192 233.676C566.504 233.472 566.908 233.369 567.402 233.369C567.845 233.369 568.233 233.46 568.565 233.642C568.898 233.821 569.156 234.094 569.341 234.46C569.526 234.824 569.618 235.284 569.618 235.841V240H568.612V235.909C568.612 235.395 568.479 234.994 568.212 234.707C567.945 234.418 567.578 234.273 567.112 234.273C566.791 234.273 566.504 234.342 566.251 234.482C566.001 234.621 565.804 234.824 565.659 235.091C565.514 235.358 565.442 235.682 565.442 236.062ZM574.2 240.136C573.569 240.136 573.025 239.997 572.568 239.719C572.113 239.438 571.762 239.045 571.515 238.543C571.271 238.037 571.149 237.449 571.149 236.778C571.149 236.108 571.271 235.517 571.515 235.006C571.762 234.491 572.106 234.091 572.547 233.804C572.99 233.514 573.507 233.369 574.098 233.369C574.439 233.369 574.775 233.426 575.108 233.54C575.44 233.653 575.743 233.838 576.015 234.094C576.288 234.347 576.505 234.682 576.667 235.099C576.829 235.517 576.91 236.031 576.91 236.642V237.068H571.865V236.199H575.887C575.887 235.83 575.814 235.5 575.666 235.21C575.521 234.92 575.314 234.692 575.044 234.524C574.777 234.357 574.461 234.273 574.098 234.273C573.697 234.273 573.35 234.372 573.058 234.571C572.768 234.767 572.545 235.023 572.389 235.338C572.233 235.653 572.154 235.991 572.154 236.352V236.932C572.154 237.426 572.24 237.845 572.41 238.189C572.583 238.53 572.824 238.79 573.13 238.969C573.437 239.145 573.794 239.233 574.2 239.233C574.464 239.233 574.703 239.196 574.916 239.122C575.132 239.045 575.318 238.932 575.474 238.781C575.63 238.628 575.751 238.437 575.836 238.21L576.808 238.483C576.706 238.812 576.534 239.102 576.292 239.352C576.051 239.599 575.752 239.793 575.397 239.932C575.042 240.068 574.643 240.136 574.2 240.136ZM579.446 231.273V240H578.44V231.273H579.446Z" fill="#171717"/>
<rect x="468.5" y="47.5" width="180" height="62" rx="18.5" fill="white" stroke="#D4D4D4"/>
<path d="M620.5 60.75C630.855 60.75 639.25 69.1447 639.25 79.5C639.25 89.8553 630.855 98.25 620.5 98.25H497.5C487.145 98.25 478.75 89.8553 478.75 79.5C478.75 69.1447 487.145 60.75 497.5 60.75H620.5Z" fill="#F7F7F7" stroke="#D4D4D4" stroke-width="0.5"/>
<path d="M554.372 72.944H555.248V75.236H554.372V72.944ZM551.768 74.828H557.996V75.644H551.768V74.828ZM553.268 76.952H556.148V77.744H553.268V76.952ZM552.812 76.952H553.664V79.628C553.664 80.084 553.628 80.572 553.556 81.092C553.492 81.612 553.364 82.12 553.172 82.616C552.98 83.112 552.684 83.556 552.284 83.948C552.236 83.892 552.168 83.832 552.08 83.768C552 83.704 551.916 83.64 551.828 83.576C551.74 83.512 551.66 83.468 551.588 83.444C551.956 83.076 552.224 82.672 552.392 82.232C552.568 81.792 552.68 81.348 552.728 80.9C552.784 80.444 552.812 80.016 552.812 79.616V76.952ZM549.212 79.244H549.812V82.112H549.212V79.244ZM548.168 74.552H550.868V75.284H548.168V74.552ZM550.628 74.552H551.384V83.012C551.384 83.22 551.356 83.384 551.3 83.504C551.244 83.632 551.148 83.728 551.012 83.792C550.876 83.856 550.692 83.896 550.46 83.912C550.228 83.928 549.932 83.936 549.572 83.936C549.556 83.832 549.52 83.708 549.464 83.564C549.416 83.42 549.368 83.3 549.32 83.204C549.576 83.212 549.808 83.216 550.016 83.216C550.224 83.216 550.36 83.212 550.424 83.204C550.56 83.204 550.628 83.136 550.628 83V74.552ZM547.82 74.552H548.552V78.92C548.552 79.304 548.54 79.72 548.516 80.168C548.492 80.616 548.448 81.068 548.384 81.524C548.32 81.972 548.22 82.404 548.084 82.82C547.956 83.236 547.784 83.616 547.568 83.96C547.52 83.912 547.456 83.86 547.376 83.804C547.304 83.756 547.224 83.708 547.136 83.66C547.056 83.612 546.984 83.576 546.92 83.552C547.2 83.112 547.4 82.628 547.52 82.1C547.648 81.564 547.728 81.02 547.76 80.468C547.8 79.916 547.82 79.4 547.82 78.92V74.552ZM546.956 78.344C547.38 78.312 547.868 78.28 548.42 78.248C548.972 78.216 549.56 78.18 550.184 78.14C550.816 78.092 551.448 78.044 552.08 77.996L552.092 78.728C551.484 78.776 550.876 78.824 550.268 78.872C549.66 78.912 549.08 78.952 548.528 78.992C547.984 79.032 547.492 79.072 547.052 79.112L546.956 78.344ZM548.924 76.028L549.5 75.8C549.66 76.048 549.808 76.324 549.944 76.628C550.08 76.932 550.172 77.2 550.22 77.432L549.608 77.696C549.56 77.464 549.472 77.192 549.344 76.88C549.216 76.568 549.076 76.284 548.924 76.028ZM549.272 72.908L550.232 73.1C550.12 73.42 550.004 73.744 549.884 74.072C549.764 74.4 549.656 74.68 549.56 74.912L548.768 74.744C548.864 74.488 548.96 74.184 549.056 73.832C549.152 73.48 549.224 73.172 549.272 72.908ZM555.668 76.952H556.532V82.412C556.532 82.724 556.552 82.896 556.592 82.928C556.624 82.968 556.688 82.988 556.784 82.988C556.816 82.988 556.864 82.988 556.928 82.988C556.992 82.988 557.044 82.988 557.084 82.988C557.132 82.988 557.18 82.984 557.228 82.976C557.276 82.968 557.312 82.952 557.336 82.928C557.384 82.888 557.42 82.776 557.444 82.592C557.452 82.48 557.46 82.312 557.468 82.088C557.476 81.864 557.484 81.604 557.492 81.308C557.572 81.372 557.668 81.436 557.78 81.5C557.9 81.564 558.016 81.612 558.128 81.644C558.128 81.916 558.116 82.2 558.092 82.496C558.076 82.784 558.052 82.988 558.02 83.108C557.964 83.34 557.86 83.508 557.708 83.612C557.636 83.66 557.548 83.696 557.444 83.72C557.34 83.744 557.236 83.756 557.132 83.756C557.052 83.756 556.952 83.756 556.832 83.756C556.72 83.756 556.632 83.756 556.568 83.756C556.448 83.756 556.328 83.74 556.208 83.708C556.096 83.676 555.996 83.62 555.908 83.54C555.82 83.46 555.756 83.344 555.716 83.192C555.684 83.04 555.668 82.76 555.668 82.352V76.952ZM563.96 72.92H564.86V77.012H563.96V72.92ZM561.344 77.42V79.568H567.62V77.42H561.344ZM560.492 76.568H568.52V80.408H560.492V76.568ZM564.38 74.192H569.42V75.044H564.38V74.192ZM562.58 81.464L563.432 81.392C563.496 81.64 563.548 81.912 563.588 82.208C563.636 82.496 563.672 82.772 563.696 83.036C563.728 83.308 563.744 83.54 563.744 83.732L562.832 83.852C562.832 83.652 562.82 83.416 562.796 83.144C562.78 82.872 562.752 82.588 562.712 82.292C562.672 81.996 562.628 81.72 562.58 81.464ZM565.064 81.476L565.88 81.296C566.008 81.536 566.128 81.8 566.24 82.088C566.36 82.368 566.468 82.64 566.564 82.904C566.668 83.168 566.74 83.4 566.78 83.6L565.904 83.828C565.864 83.628 565.8 83.392 565.712 83.12C565.624 82.848 565.524 82.568 565.412 82.28C565.3 81.992 565.184 81.724 565.064 81.476ZM567.512 81.38L568.316 81.068C568.524 81.324 568.728 81.596 568.928 81.884C569.136 82.172 569.328 82.46 569.504 82.748C569.68 83.028 569.816 83.28 569.912 83.504L569.06 83.864C568.972 83.64 568.844 83.384 568.676 83.096C568.508 82.808 568.32 82.516 568.112 82.22C567.912 81.916 567.712 81.636 567.512 81.38ZM560.624 81.14L561.476 81.368C561.284 81.832 561.04 82.3 560.744 82.772C560.456 83.244 560.148 83.636 559.82 83.948L559.004 83.552C559.324 83.28 559.628 82.924 559.916 82.484C560.204 82.036 560.44 81.588 560.624 81.14Z" fill="#171717"/>
<path d="M599.271 78.5552L599.301 79.8141L600.642 80.6366L600.611 79.3777L599.271 78.5552ZM602.542 83.798L602.512 82.564L601.336 81.8411C601.322 81.8309 601.301 81.8161 601.287 81.8062L601.317 83.0449L602.542 83.798ZM598.356 85.4632L595.291 83.5799L595.215 80.4231L596.721 79.7792L596.691 78.5156L594.29 79.5415C594.106 79.6206 593.996 79.7892 594 79.9826L594.09 83.7733C594.096 83.9666 594.216 84.16 594.406 84.2788L598.081 86.5387C598.251 86.6427 598.462 86.6728 598.631 86.6178C598.649 86.6145 598.666 86.6079 598.681 86.5984L600.937 85.6371L599.712 84.8838L598.356 85.4632Z" fill="#B31AAB"/>
<path d="M608.263 78.4807C608.258 78.2525 608.118 78.0295 607.898 77.8912L603.432 75.1506L603.292 75.2098L603.323 76.5377L606.858 78.7084L606.943 82.2573L608.294 83.0844L608.368 83.0548L608.263 78.4807ZM602.917 84.7098L598.771 82.1628L598.671 77.886L600.562 77.0782L600.527 75.6066L597.591 76.8601C597.376 76.9541 597.246 77.1475 597.251 77.3757L597.366 82.391C597.371 82.6186 597.511 82.8422 597.731 82.9758L602.592 85.9641C602.792 86.0884 603.032 86.1178 603.237 86.0582C603.257 86.0534 603.277 86.0434 603.297 86.0332L606.168 84.8095L604.738 83.9326L602.917 84.7098Z" fill="#D163CE"/>
<path d="M614.579 74.9721L608.348 71.141C608.118 71.0021 607.843 70.9626 607.608 71.037C607.583 71.0418 607.563 71.0518 607.538 71.0619L601.457 73.6589C601.212 73.7629 601.062 73.9858 601.067 74.2483L601.222 80.6714C601.227 80.9339 601.387 81.1864 601.642 81.34L607.873 85.1663C608.103 85.3047 608.378 85.3442 608.608 85.2705C608.633 85.2651 608.653 85.255 608.678 85.2455L614.759 82.6485C615.005 82.5445 615.154 82.3163 615.15 82.0585L614.999 75.636C614.994 75.3828 614.834 75.1257 614.579 74.9721ZM608.248 83.7389L602.832 80.4136L602.697 74.8284L607.978 72.5732L613.394 75.8985L613.529 81.4839L608.248 83.7389Z" fill="#E13EAF"/>
<rect x="0.5" y="87.5" width="382" height="192" rx="18.5" fill="white" stroke="#D4D4D4"/>
<path d="M187.764 105.168H188.688V109.176C188.688 109.448 188.652 109.664 188.58 109.824C188.508 109.976 188.36 110.092 188.136 110.172C187.912 110.244 187.608 110.288 187.224 110.304C186.848 110.312 186.376 110.316 185.808 110.316C185.792 110.172 185.756 110.012 185.7 109.836C185.652 109.66 185.596 109.508 185.532 109.38C185.828 109.388 186.108 109.396 186.372 109.404C186.636 109.404 186.864 109.404 187.056 109.404C187.248 109.396 187.384 109.392 187.464 109.392C187.576 109.384 187.652 109.364 187.692 109.332C187.74 109.3 187.764 109.24 187.764 109.152V105.168ZM182.82 105.696H183.768V111.936H182.82V105.696ZM179.676 105.168H188.16V106.032H179.676V105.168ZM179.16 102.276H189.852V103.14H179.16V102.276ZM181.968 100.92H182.892V104.52H181.968V100.92ZM186.108 100.92H187.044V104.52H186.108V100.92ZM195.96 100.92H196.86V105.012H195.96V100.92ZM193.344 105.42V107.568H199.62V105.42H193.344ZM192.492 104.568H200.52V108.408H192.492V104.568ZM196.38 102.192H201.42V103.044H196.38V102.192ZM194.58 109.464L195.432 109.392C195.496 109.64 195.548 109.912 195.588 110.208C195.636 110.496 195.672 110.772 195.696 111.036C195.728 111.308 195.744 111.54 195.744 111.732L194.832 111.852C194.832 111.652 194.82 111.416 194.796 111.144C194.78 110.872 194.752 110.588 194.712 110.292C194.672 109.996 194.628 109.72 194.58 109.464ZM197.064 109.476L197.88 109.296C198.008 109.536 198.128 109.8 198.24 110.088C198.36 110.368 198.468 110.64 198.564 110.904C198.668 111.168 198.74 111.4 198.78 111.6L197.904 111.828C197.864 111.628 197.8 111.392 197.712 111.12C197.624 110.848 197.524 110.568 197.412 110.28C197.3 109.992 197.184 109.724 197.064 109.476ZM199.512 109.38L200.316 109.068C200.524 109.324 200.728 109.596 200.928 109.884C201.136 110.172 201.328 110.46 201.504 110.748C201.68 111.028 201.816 111.28 201.912 111.504L201.06 111.864C200.972 111.64 200.844 111.384 200.676 111.096C200.508 110.808 200.32 110.516 200.112 110.22C199.912 109.916 199.712 109.636 199.512 109.38ZM192.624 109.14L193.476 109.368C193.284 109.832 193.04 110.3 192.744 110.772C192.456 111.244 192.148 111.636 191.82 111.948L191.004 111.552C191.324 111.28 191.628 110.924 191.916 110.484C192.204 110.036 192.44 109.588 192.624 109.14Z" fill="#171717"/>
<rect x="195.5" y="124.5" width="180" height="64" rx="18.5" fill="white" stroke="#D4D4D4"/>
<path d="M347.5 137.75C357.855 137.75 366.25 146.145 366.25 156.5C366.25 166.855 357.855 175.25 347.5 175.25H224.5C214.145 175.25 205.75 166.855 205.75 156.5C205.75 146.145 214.145 137.75 224.5 137.75H347.5Z" fill="#F7F7F7" stroke="#D4D4D4" stroke-width="0.5"/>
<rect x="8.5" y="124.5" width="180" height="64" rx="18.5" fill="white" stroke="#D4D4D4"/>
<path d="M160.5 137.75C170.855 137.75 179.25 146.145 179.25 156.5C179.25 166.855 170.855 175.25 160.5 175.25H37.5C27.1447 175.25 18.75 166.855 18.75 156.5C18.75 146.145 27.1447 137.75 37.5 137.75H160.5Z" fill="#F7F7F7" stroke="#D4D4D4" stroke-width="0.5"/>
<rect x="195.5" y="203.5" width="180" height="62" rx="18.5" fill="white" stroke="#D4D4D4"/>
<path d="M347.5 216.75C357.855 216.75 366.25 225.145 366.25 235.5C366.25 245.855 357.855 254.25 347.5 254.25H224.5C214.145 254.25 205.75 245.855 205.75 235.5C205.75 225.145 214.145 216.75 224.5 216.75H347.5Z" fill="#F7F7F7" stroke="#D4D4D4" stroke-width="0.5"/>
<path d="M264.366 240V239.233L268.082 234.46V234.392H264.485V233.455H269.377V234.256L265.763 238.994V239.062H269.496V240H264.366ZM270.294 232.21V231.273H276.84V232.21H274.096V240H273.039V232.21H270.294ZM281.569 237.324V233.455H282.575V240H281.569V238.892H281.501C281.347 239.224 281.109 239.507 280.785 239.74C280.461 239.97 280.052 240.085 279.558 240.085C279.148 240.085 278.785 239.996 278.467 239.817C278.148 239.635 277.898 239.362 277.717 238.999C277.535 238.632 277.444 238.17 277.444 237.614V233.455H278.45V237.545C278.45 238.023 278.583 238.403 278.85 238.688C279.12 238.972 279.464 239.114 279.881 239.114C280.131 239.114 280.386 239.05 280.644 238.922C280.906 238.794 281.124 238.598 281.3 238.334C281.479 238.07 281.569 237.733 281.569 237.324ZM285.422 236.062V240H284.417V233.455H285.388V234.477H285.473C285.627 234.145 285.86 233.878 286.172 233.676C286.485 233.472 286.888 233.369 287.382 233.369C287.826 233.369 288.213 233.46 288.546 233.642C288.878 233.821 289.137 234.094 289.321 234.46C289.506 234.824 289.598 235.284 289.598 235.841V240H288.593V235.909C288.593 235.395 288.459 234.994 288.192 234.707C287.925 234.418 287.559 234.273 287.093 234.273C286.772 234.273 286.485 234.342 286.232 234.482C285.982 234.621 285.784 234.824 285.64 235.091C285.495 235.358 285.422 235.682 285.422 236.062ZM292.442 236.062V240H291.436V233.455H292.408V234.477H292.493C292.646 234.145 292.879 233.878 293.192 233.676C293.504 233.472 293.908 233.369 294.402 233.369C294.845 233.369 295.233 233.46 295.565 233.642C295.898 233.821 296.156 234.094 296.341 234.46C296.526 234.824 296.618 235.284 296.618 235.841V240H295.612V235.909C295.612 235.395 295.479 234.994 295.212 234.707C294.945 234.418 294.578 234.273 294.112 234.273C293.791 234.273 293.504 234.342 293.251 234.482C293.001 234.621 292.804 234.824 292.659 235.091C292.514 235.358 292.442 235.682 292.442 236.062ZM301.2 240.136C300.569 240.136 300.025 239.997 299.568 239.719C299.113 239.438 298.762 239.045 298.515 238.543C298.271 238.037 298.149 237.449 298.149 236.778C298.149 236.108 298.271 235.517 298.515 235.006C298.762 234.491 299.106 234.091 299.547 233.804C299.99 233.514 300.507 233.369 301.098 233.369C301.439 233.369 301.775 233.426 302.108 233.54C302.44 233.653 302.743 233.838 303.015 234.094C303.288 234.347 303.505 234.682 303.667 235.099C303.829 235.517 303.91 236.031 303.91 236.642V237.068H298.865V236.199H302.887C302.887 235.83 302.814 235.5 302.666 235.21C302.521 234.92 302.314 234.692 302.044 234.524C301.777 234.357 301.461 234.273 301.098 234.273C300.697 234.273 300.35 234.372 300.058 234.571C299.768 234.767 299.545 235.023 299.389 235.338C299.233 235.653 299.154 235.991 299.154 236.352V236.932C299.154 237.426 299.24 237.845 299.41 238.189C299.583 238.53 299.824 238.79 300.13 238.969C300.437 239.145 300.794 239.233 301.2 239.233C301.464 239.233 301.703 239.196 301.916 239.122C302.132 239.045 302.318 238.932 302.474 238.781C302.63 238.628 302.751 238.437 302.836 238.21L303.808 238.483C303.706 238.812 303.534 239.102 303.292 239.352C303.051 239.599 302.752 239.793 302.397 239.932C302.042 240.068 301.643 240.136 301.2 240.136ZM306.446 231.273V240H305.44V231.273H306.446Z" fill="#171717"/>
<rect x="191.5" y="41.5" width="461" height="152" rx="18.5" stroke="#6A55F3" stroke-dasharray="2 2"/>
<path d="M216.452 51.748C216.108 52.188 215.664 52.648 215.12 53.128C214.576 53.6 213.972 54.056 213.308 54.496C212.652 54.936 211.976 55.324 211.28 55.66C211.24 55.588 211.188 55.508 211.124 55.42C211.068 55.332 211.004 55.244 210.932 55.156C210.868 55.06 210.8 54.984 210.728 54.928C211.44 54.6 212.132 54.212 212.804 53.764C213.476 53.316 214.084 52.844 214.628 52.348C215.172 51.844 215.608 51.36 215.936 50.896H216.86C217.196 51.296 217.576 51.688 218 52.072C218.432 52.448 218.888 52.808 219.368 53.152C219.848 53.488 220.336 53.796 220.832 54.076C221.336 54.356 221.832 54.592 222.32 54.784C222.208 54.888 222.1 55.016 221.996 55.168C221.9 55.32 221.808 55.456 221.72 55.576C221.256 55.36 220.776 55.108 220.28 54.82C219.784 54.524 219.3 54.208 218.828 53.872C218.356 53.528 217.916 53.176 217.508 52.816C217.1 52.448 216.748 52.092 216.452 51.748ZM214.088 54.004H219.008V54.82H214.088V54.004ZM212.504 55.9H215.852V60.016H212.504V59.212H215.036V56.704H212.504V55.9ZM216.896 55.9H220.448V56.692H217.748V61.984H216.896V55.9ZM220.172 55.9H221.036V59.656C221.036 59.88 221.004 60.06 220.94 60.196C220.884 60.332 220.772 60.436 220.604 60.508C220.436 60.58 220.204 60.624 219.908 60.64C219.612 60.648 219.24 60.652 218.792 60.652C218.776 60.532 218.74 60.396 218.684 60.244C218.636 60.084 218.58 59.944 218.516 59.824C218.86 59.832 219.164 59.84 219.428 59.848C219.692 59.848 219.868 59.844 219.956 59.836C220.036 59.836 220.092 59.824 220.124 59.8C220.156 59.768 220.172 59.716 220.172 59.644V55.9ZM212.12 55.9H212.948V61.036H212.12V55.9ZM226.88 60.652H232.664V61.48H226.88V60.652ZM226.46 52.12H230.864V52.936H226.46V52.12ZM227 50.884L228.02 51.076C227.716 51.596 227.352 52.12 226.928 52.648C226.504 53.168 226.016 53.672 225.464 54.16C224.912 54.648 224.288 55.096 223.592 55.504C223.552 55.432 223.492 55.352 223.412 55.264C223.34 55.176 223.264 55.092 223.184 55.012C223.104 54.924 223.028 54.856 222.956 54.808C223.612 54.448 224.2 54.048 224.72 53.608C225.248 53.16 225.7 52.704 226.076 52.24C226.46 51.768 226.768 51.316 227 50.884ZM230.564 52.12H230.744L230.9 52.072L231.5 52.408C231.14 53.312 230.672 54.14 230.096 54.892C229.52 55.644 228.868 56.316 228.14 56.908C227.42 57.5 226.656 58.016 225.848 58.456C225.048 58.888 224.236 59.236 223.412 59.5C223.38 59.42 223.332 59.328 223.268 59.224C223.212 59.12 223.148 59.02 223.076 58.924C223.012 58.828 222.952 58.752 222.896 58.696C223.672 58.472 224.448 58.16 225.224 57.76C226 57.36 226.732 56.884 227.42 56.332C228.116 55.78 228.736 55.164 229.28 54.484C229.832 53.804 230.26 53.072 230.564 52.288V52.12ZM224.972 54.256L225.632 53.692C225.952 53.9 226.28 54.14 226.616 54.412C226.96 54.684 227.28 54.956 227.576 55.228C227.872 55.5 228.112 55.752 228.296 55.984L227.564 56.62C227.396 56.388 227.168 56.132 226.88 55.852C226.592 55.572 226.28 55.292 225.944 55.012C225.608 54.732 225.284 54.48 224.972 54.256ZM232.232 56.848H233.156V61.984H232.232V56.848ZM227.288 56.848H232.688V57.676H227.288V61.96H226.388V57.568L227.108 56.848H227.288ZM240.008 50.92H240.932V52.72H240.008V50.92ZM240.008 57.904H240.932V61.228H240.008V57.904ZM238.676 52.864H239.612C239.548 53.416 239.448 53.916 239.312 54.364C239.176 54.804 238.968 55.192 238.688 55.528C238.416 55.864 238.044 56.156 237.572 56.404C237.108 56.644 236.512 56.848 235.784 57.016C235.76 56.936 235.72 56.852 235.664 56.764C235.616 56.668 235.56 56.576 235.496 56.488C235.432 56.392 235.364 56.312 235.292 56.248C235.956 56.12 236.496 55.96 236.912 55.768C237.336 55.568 237.668 55.332 237.908 55.06C238.148 54.78 238.324 54.46 238.436 54.1C238.548 53.732 238.628 53.32 238.676 52.864ZM241.352 52.84H242.24V55.384C242.24 55.528 242.272 55.62 242.336 55.66C242.4 55.7 242.54 55.72 242.756 55.72C242.812 55.72 242.908 55.72 243.044 55.72C243.18 55.72 243.332 55.72 243.5 55.72C243.676 55.72 243.836 55.72 243.98 55.72C244.132 55.72 244.24 55.72 244.304 55.72C244.424 55.72 244.512 55.7 244.568 55.66C244.632 55.612 244.676 55.52 244.7 55.384C244.732 55.24 244.752 55.028 244.76 54.748C244.824 54.796 244.9 54.84 244.988 54.88C245.084 54.92 245.18 54.956 245.276 54.988C245.38 55.02 245.472 55.048 245.552 55.072C245.52 55.448 245.464 55.74 245.384 55.948C245.304 56.156 245.188 56.304 245.036 56.392C244.884 56.472 244.672 56.512 244.4 56.512C244.336 56.512 244.22 56.512 244.052 56.512C243.892 56.512 243.716 56.512 243.524 56.512C243.332 56.512 243.152 56.512 242.984 56.512C242.824 56.512 242.72 56.512 242.672 56.512C242.32 56.512 242.048 56.48 241.856 56.416C241.664 56.352 241.532 56.236 241.46 56.068C241.388 55.9 241.352 55.672 241.352 55.384V52.84ZM235.436 52.168H245.6V54.328H244.676V52.996H236.324V54.592H235.436V52.168ZM236.48 57.52H244.748V58.348H236.48V57.52ZM235.22 60.772H245.792V61.6H235.22V60.772ZM247.592 53.62H248.516V61.96H247.592V53.62ZM247.772 51.508L248.468 51.076C248.66 51.244 248.852 51.432 249.044 51.64C249.236 51.84 249.416 52.04 249.584 52.24C249.752 52.44 249.88 52.624 249.968 52.792L249.224 53.272C249.128 53.112 249 52.928 248.84 52.72C248.688 52.512 248.516 52.304 248.324 52.096C248.14 51.88 247.956 51.684 247.772 51.508ZM250.724 51.592H257.036V52.444H250.724V51.592ZM256.532 51.592H257.456V60.868C257.456 61.116 257.424 61.304 257.36 61.432C257.304 61.568 257.196 61.676 257.036 61.756C256.876 61.828 256.664 61.868 256.4 61.876C256.144 61.892 255.832 61.9 255.464 61.9C255.44 61.788 255.4 61.648 255.344 61.48C255.296 61.32 255.24 61.184 255.176 61.072C255.432 61.08 255.668 61.084 255.884 61.084C256.1 61.084 256.248 61.084 256.328 61.084C256.408 61.076 256.46 61.056 256.484 61.024C256.516 60.992 256.532 60.94 256.532 60.868V51.592ZM251.048 57.46V59.08H253.928V57.46H251.048ZM251.048 55.108V56.704H253.928V55.108H251.048ZM250.232 54.352H254.78V59.824H250.232V54.352Z" fill="#6A55F3"/>
<path d="M406.26 220.028H409.524V220.892H406.26V220.028ZM399.636 213.188H404.256V214.076H399.636V213.188ZM405.864 212.408H409.956V221.684H409.056V213.284H406.728V221.78H405.864V212.408ZM404.016 213.188H404.88C404.88 213.188 404.88 213.22 404.88 213.284C404.88 213.34 404.88 213.408 404.88 213.488C404.88 213.56 404.88 213.616 404.88 213.656C404.856 214.992 404.832 216.116 404.808 217.028C404.784 217.94 404.752 218.688 404.712 219.272C404.672 219.848 404.62 220.292 404.556 220.604C404.5 220.916 404.424 221.136 404.328 221.264C404.216 221.416 404.1 221.524 403.98 221.588C403.86 221.66 403.712 221.708 403.536 221.732C403.368 221.756 403.152 221.764 402.888 221.756C402.632 221.756 402.372 221.748 402.108 221.732C402.1 221.596 402.072 221.444 402.024 221.276C401.984 221.108 401.924 220.96 401.844 220.832C402.124 220.856 402.384 220.872 402.624 220.88C402.864 220.88 403.036 220.88 403.14 220.88C403.228 220.888 403.304 220.88 403.368 220.856C403.432 220.824 403.492 220.768 403.548 220.688C403.612 220.6 403.668 220.412 403.716 220.124C403.764 219.828 403.808 219.4 403.848 218.84C403.888 218.28 403.92 217.556 403.944 216.668C403.968 215.772 403.992 214.684 404.016 213.404V213.188ZM401.34 211.076H402.228C402.22 212.188 402.2 213.272 402.168 214.328C402.136 215.384 402.052 216.384 401.916 217.328C401.788 218.272 401.572 219.14 401.268 219.932C400.972 220.716 400.56 221.396 400.032 221.972C399.984 221.9 399.92 221.824 399.84 221.744C399.76 221.672 399.676 221.6 399.588 221.528C399.5 221.456 399.416 221.396 399.336 221.348C399.736 220.932 400.06 220.444 400.308 219.884C400.564 219.324 400.764 218.712 400.908 218.048C401.052 217.376 401.152 216.664 401.208 215.912C401.272 215.152 401.308 214.368 401.316 213.56C401.332 212.744 401.34 211.916 401.34 211.076ZM413.184 214.364L413.94 214.64C413.788 215.08 413.58 215.516 413.316 215.948C413.06 216.372 412.708 216.72 412.26 216.992L411.564 216.5C411.972 216.26 412.308 215.948 412.572 215.564C412.844 215.172 413.048 214.772 413.184 214.364ZM414.648 214.172H415.464V216.512C415.464 216.672 415.512 216.776 415.608 216.824C415.712 216.872 415.928 216.896 416.256 216.896C416.336 216.896 416.476 216.896 416.676 216.896C416.884 216.896 417.116 216.896 417.372 216.896C417.628 216.896 417.864 216.896 418.08 216.896C418.296 216.896 418.46 216.896 418.572 216.896C418.748 216.896 418.88 216.872 418.968 216.824C419.064 216.768 419.132 216.656 419.172 216.488C419.212 216.312 419.24 216.048 419.256 215.696C419.352 215.76 419.468 215.82 419.604 215.876C419.748 215.932 419.88 215.972 420 215.996C419.968 216.428 419.908 216.764 419.82 217.004C419.732 217.244 419.596 217.412 419.412 217.508C419.228 217.596 418.972 217.64 418.644 217.64C418.588 217.64 418.476 217.64 418.308 217.64C418.148 217.64 417.96 217.64 417.744 217.64C417.528 217.64 417.312 217.64 417.096 217.64C416.88 217.64 416.692 217.64 416.532 217.64C416.372 217.64 416.264 217.64 416.208 217.64C415.8 217.64 415.48 217.608 415.248 217.544C415.024 217.48 414.868 217.368 414.78 217.208C414.692 217.048 414.648 216.82 414.648 216.524V214.172ZM415.224 213.464L415.68 212.936C415.928 213.04 416.184 213.168 416.448 213.32C416.712 213.464 416.96 213.612 417.192 213.764C417.432 213.916 417.624 214.06 417.768 214.196L417.288 214.784C417.144 214.648 416.956 214.5 416.724 214.34C416.5 214.172 416.256 214.012 415.992 213.86C415.728 213.708 415.472 213.576 415.224 213.464ZM419.736 214.868L420.384 214.424C420.664 214.64 420.94 214.884 421.212 215.156C421.492 215.42 421.748 215.688 421.98 215.96C422.22 216.232 422.404 216.484 422.532 216.716L421.836 217.208C421.708 216.984 421.532 216.736 421.308 216.464C421.084 216.184 420.832 215.904 420.552 215.624C420.28 215.344 420.008 215.092 419.736 214.868ZM419.136 213.428L419.916 213.776C419.332 214.552 418.616 215.24 417.768 215.84C416.928 216.44 416.012 216.96 415.02 217.4C414.036 217.84 413.024 218.208 411.984 218.504C411.952 218.44 411.904 218.36 411.84 218.264C411.776 218.168 411.708 218.076 411.636 217.988C411.572 217.892 411.512 217.816 411.456 217.76C412.504 217.504 413.512 217.176 414.48 216.776C415.456 216.368 416.344 215.888 417.144 215.336C417.952 214.776 418.616 214.14 419.136 213.428ZM416.52 217.82H417.432V221.048H416.52V217.82ZM412.932 218.516H413.82V221.96H412.932V218.516ZM420.3 218.516H421.2V221.936H420.3V218.516ZM413.388 220.604H420.768V221.444H413.388V220.604ZM416.508 210.92H417.432V212.492H416.508V210.92ZM411.924 211.952H422.1V214.304H421.188V212.768H412.812V214.304H411.924V211.952ZM426.78 212.48H434.412V213.308H426.78V212.48ZM429.96 210.92H430.872V212.876H429.96V210.92ZM429.96 216.668H430.776V221.444H429.96V216.668ZM427.86 216.596H428.676V217.868C428.676 218.204 428.656 218.548 428.616 218.9C428.584 219.252 428.504 219.608 428.376 219.968C428.256 220.32 428.076 220.664 427.836 221C427.596 221.336 427.272 221.648 426.864 221.936C426.824 221.88 426.768 221.812 426.696 221.732C426.624 221.66 426.544 221.588 426.456 221.516C426.376 221.444 426.3 221.388 426.228 221.348C426.724 221.004 427.084 220.632 427.308 220.232C427.54 219.832 427.688 219.428 427.752 219.02C427.824 218.604 427.86 218.212 427.86 217.844V216.596ZM429.432 212.924L430.356 213.212C430.212 213.508 430.052 213.812 429.876 214.124C429.708 214.428 429.54 214.72 429.372 215C429.204 215.28 429.044 215.532 428.892 215.756L428.16 215.492C428.312 215.26 428.464 214.996 428.616 214.7C428.776 214.396 428.928 214.088 429.072 213.776C429.216 213.464 429.336 213.18 429.432 212.924ZM431.532 214.1L432.216 213.716C432.504 213.956 432.796 214.224 433.092 214.52C433.388 214.816 433.656 215.112 433.896 215.408C434.144 215.704 434.336 215.976 434.472 216.224L433.74 216.656C433.604 216.416 433.416 216.148 433.176 215.852C432.936 215.548 432.672 215.244 432.384 214.94C432.104 214.628 431.82 214.348 431.532 214.1ZM426.924 215.276C427.444 215.26 428.052 215.24 428.748 215.216C429.444 215.192 430.18 215.168 430.956 215.144C431.74 215.112 432.524 215.08 433.308 215.048L433.284 215.816C432.532 215.856 431.78 215.896 431.028 215.936C430.276 215.976 429.56 216.012 428.88 216.044C428.2 216.076 427.584 216.104 427.032 216.128L426.924 215.276ZM424.092 211.676L424.584 211.028C424.848 211.132 425.116 211.256 425.388 211.4C425.66 211.544 425.916 211.696 426.156 211.856C426.404 212.016 426.604 212.164 426.756 212.3L426.24 213.044C426.088 212.892 425.892 212.736 425.652 212.576C425.412 212.408 425.156 212.244 424.884 212.084C424.612 211.924 424.348 211.788 424.092 211.676ZM423.456 214.928L423.948 214.256C424.204 214.352 424.472 214.472 424.752 214.616C425.032 214.752 425.296 214.892 425.544 215.036C425.792 215.18 425.996 215.32 426.156 215.456L425.64 216.212C425.488 216.076 425.288 215.932 425.04 215.78C424.792 215.62 424.528 215.468 424.248 215.324C423.976 215.172 423.712 215.04 423.456 214.928ZM423.804 221.216C424.012 220.904 424.24 220.532 424.488 220.1C424.736 219.668 424.988 219.212 425.244 218.732C425.5 218.244 425.736 217.772 425.952 217.316L426.636 217.88C426.436 218.304 426.22 218.748 425.988 219.212C425.756 219.668 425.52 220.12 425.28 220.568C425.04 221.008 424.808 221.416 424.584 221.792L423.804 221.216ZM432.096 216.596H432.936V220.568C432.936 220.808 432.96 220.948 433.008 220.988C433.024 221.004 433.048 221.016 433.08 221.024C433.12 221.04 433.16 221.048 433.2 221.048C433.24 221.048 433.292 221.048 433.356 221.048C433.428 221.048 433.488 221.048 433.536 221.048C433.584 221.048 433.632 221.044 433.68 221.036C433.736 221.028 433.776 221.012 433.8 220.988C433.848 220.956 433.888 220.848 433.92 220.664C433.936 220.568 433.944 220.416 433.944 220.208C433.952 219.992 433.96 219.74 433.968 219.452C434.04 219.524 434.136 219.592 434.256 219.656C434.376 219.712 434.492 219.76 434.604 219.8C434.596 220.064 434.58 220.332 434.556 220.604C434.54 220.876 434.516 221.068 434.484 221.18C434.428 221.396 434.32 221.552 434.16 221.648C434.096 221.688 434.008 221.72 433.896 221.744C433.784 221.768 433.68 221.78 433.584 221.78C433.512 221.78 433.408 221.78 433.272 221.78C433.144 221.78 433.048 221.78 432.984 221.78C432.872 221.78 432.756 221.76 432.636 221.72C432.516 221.688 432.412 221.636 432.324 221.564C432.236 221.484 432.176 221.372 432.144 221.228C432.112 221.092 432.096 220.844 432.096 220.484V216.596ZM438 213.02V213.68H443.964V213.02H438ZM438 211.844V212.492H443.964V211.844H438ZM437.124 211.304H444.864V214.22H437.124V211.304ZM437.76 217.724V218.42H444.324V217.724H437.76ZM437.76 216.524V217.196H444.324V216.524H437.76ZM436.908 215.96H445.212V218.972H436.908V215.96ZM440.544 216.164H441.42V221.324H440.544V216.164ZM435.624 214.736H446.388V215.42H435.624V214.736ZM436.572 219.632H445.476V220.268H436.572V219.632ZM435.564 220.964H446.46V221.66H435.564V220.964Z" fill="#171717"/>
<path d="M478.5 235L468.5 229.226V240.774L478.5 235ZM366 235L376 240.774V229.226L366 235ZM469.5 235V234H375V235V236H469.5V235Z" fill="#A3A3A3"/>
<path d="M638.998 235.49L648.867 241.486L649.125 229.942L638.998 235.49ZM638.998 80.5002L649.31 85.6976L648.655 74.1692L638.998 80.5002ZM648.001 235.692L648.356 236.626C652.456 235.069 656.066 231.457 659.187 226.507C662.317 221.542 665.02 215.127 667.263 207.79C671.749 193.112 674.436 174.599 674.952 156.245C675.468 137.897 673.816 119.631 669.576 105.462C665.363 91.3855 658.458 80.9332 648.165 79.0073L647.981 79.9903L647.797 80.9732C656.878 82.6723 663.473 92.0477 667.66 106.035C671.818 119.93 673.465 137.966 672.953 156.189C672.44 174.407 669.772 192.736 665.35 207.205C663.138 214.441 660.499 220.676 657.495 225.441C654.482 230.22 651.166 233.419 647.646 234.757L648.001 235.692Z" fill="#A3A3A3"/>
<path d="M98.999 175L93.7507 185.285L105.282 184.688L98.999 175ZM286.5 210.5L287.498 210.447C287.257 205.851 284.222 202.311 279.461 199.595C274.704 196.883 268.052 194.885 260.158 193.394C244.355 190.41 223.239 189.4 201.492 188.993C179.687 188.586 157.31 188.785 138.758 188.234C129.497 187.96 121.24 187.499 114.549 186.686C107.816 185.868 102.811 184.708 99.9518 183.114L99.4647 183.987L98.9776 184.86C102.212 186.664 107.568 187.853 114.308 188.671C121.09 189.495 129.418 189.958 138.699 190.234C157.23 190.784 179.764 190.587 201.454 190.993C223.202 191.399 244.167 192.41 259.787 195.36C267.604 196.836 274 198.784 278.47 201.333C282.936 203.879 285.31 206.917 285.501 210.553L286.5 210.5Z" fill="#A3A3A3"/>
<path d="M559 216.5L564.774 206.5H553.226L559 216.5ZM559 176L553.226 186H564.774L559 176ZM559 207.5H560V185H559H558V207.5H559Z" fill="#A3A3A3"/>
<path d="M286 215.5L291.774 205.5H280.226L286 215.5ZM286 175L280.226 185H291.774L286 175ZM286 206.5H287V184H286H285V206.5H286Z" fill="#A3A3A3"/>
</svg>
