<svg width="742" height="168" viewBox="0 0 742 168" fill="none" xmlns="http://www.w3.org/2000/svg">
<rect x="0.5" y="0.5" width="467" height="167" rx="18.5" fill="white" stroke="#D4D4D4"/>
<path d="M242.764 17.168H243.688V21.176C243.688 21.448 243.652 21.664 243.58 21.824C243.508 21.976 243.36 22.092 243.136 22.172C242.912 22.244 242.608 22.288 242.224 22.304C241.848 22.312 241.376 22.316 240.808 22.316C240.792 22.172 240.756 22.012 240.7 21.836C240.652 21.66 240.596 21.508 240.532 21.38C240.828 21.388 241.108 21.396 241.372 21.404C241.636 21.404 241.864 21.404 242.056 21.404C242.248 21.396 242.384 21.392 242.464 21.392C242.576 21.384 242.652 21.364 242.692 21.332C242.74 21.3 242.764 21.24 242.764 21.152V17.168ZM237.82 17.696H238.768V23.936H237.82V17.696ZM234.676 17.168H243.16V18.032H234.676V17.168ZM234.16 14.276H244.852V15.14H234.16V14.276ZM236.968 12.92H237.892V16.52H236.968V12.92ZM241.108 12.92H242.044V16.52H241.108V12.92ZM250.96 12.92H251.86V17.012H250.96V12.92ZM248.344 17.42V19.568H254.62V17.42H248.344ZM247.492 16.568H255.52V20.408H247.492V16.568ZM251.38 14.192H256.42V15.044H251.38V14.192ZM249.58 21.464L250.432 21.392C250.496 21.64 250.548 21.912 250.588 22.208C250.636 22.496 250.672 22.772 250.696 23.036C250.728 23.308 250.744 23.54 250.744 23.732L249.832 23.852C249.832 23.652 249.82 23.416 249.796 23.144C249.78 22.872 249.752 22.588 249.712 22.292C249.672 21.996 249.628 21.72 249.58 21.464ZM252.064 21.476L252.88 21.296C253.008 21.536 253.128 21.8 253.24 22.088C253.36 22.368 253.468 22.64 253.564 22.904C253.668 23.168 253.74 23.4 253.78 23.6L252.904 23.828C252.864 23.628 252.8 23.392 252.712 23.12C252.624 22.848 252.524 22.568 252.412 22.28C252.3 21.992 252.184 21.724 252.064 21.476ZM254.512 21.38L255.316 21.068C255.524 21.324 255.728 21.596 255.928 21.884C256.136 22.172 256.328 22.46 256.504 22.748C256.68 23.028 256.816 23.28 256.912 23.504L256.06 23.864C255.972 23.64 255.844 23.384 255.676 23.096C255.508 22.808 255.32 22.516 255.112 22.22C254.912 21.916 254.712 21.636 254.512 21.38ZM247.624 21.14L248.476 21.368C248.284 21.832 248.04 22.3 247.744 22.772C247.456 23.244 247.148 23.636 246.82 23.948L246.004 23.552C246.324 23.28 246.628 22.924 246.916 22.484C247.204 22.036 247.44 21.588 247.624 21.14Z" fill="#171717"/>
<rect x="281.5" y="37.5" width="180" height="117" rx="18.5" fill="white" stroke="#D4D4D4"/>
<mask id="path-4-outside-1_38_407" maskUnits="userSpaceOnUse" x="291" y="106" width="162" height="39" fill="black">
<rect fill="white" x="291" y="106" width="162" height="39"/>
<path d="M292 125.5C292 115.283 300.283 107 310.5 107H433.5C443.717 107 452 115.283 452 125.5C452 135.717 443.717 144 433.5 144H310.5C300.283 144 292 135.717 292 125.5Z"/>
</mask>
<path d="M292 125.5C292 115.283 300.283 107 310.5 107H433.5C443.717 107 452 115.283 452 125.5C452 135.717 443.717 144 433.5 144H310.5C300.283 144 292 135.717 292 125.5Z" fill="#F7F7F7"/>
<path d="M292 125.5M452 125.5M452 125.5M292 125.5M310.5 107V108H433.5V107V106H310.5V107ZM452 125.5M433.5 144V143H310.5V144V145H433.5V144ZM292 125.5M310.5 144V143C300.835 143 293 135.165 293 125.5H292H291C291 136.27 299.73 145 310.5 145V144ZM452 125.5H451C451 135.165 443.165 143 433.5 143V144V145C444.27 145 453 136.27 453 125.5H452ZM433.5 107V108C443.165 108 451 115.835 451 125.5H452H453C453 114.73 444.27 106 433.5 106V107ZM310.5 107V106C299.73 106 291 114.73 291 125.5H292H293C293 115.835 300.835 108 310.5 108V107Z" fill="#D4D4D4" mask="url(#path-4-outside-1_38_407)"/>
<path d="M433.5 50.75C443.855 50.75 452.25 59.1447 452.25 69.5C452.25 79.8553 443.855 88.25 433.5 88.25H310.5C300.145 88.25 291.75 79.8553 291.75 69.5C291.75 59.1447 300.145 50.75 310.5 50.75H433.5Z" fill="#F7F7F7" stroke="#D4D4D4" stroke-width="0.5"/>
<path d="M363.388 68.036L370.828 67.1L370.96 67.952L363.52 68.888L363.388 68.036ZM368.08 64.604L368.728 64.172C368.968 64.364 369.216 64.576 369.472 64.808C369.728 65.04 369.964 65.272 370.18 65.504C370.404 65.728 370.584 65.928 370.72 66.104L370.024 66.584C369.888 66.4 369.712 66.196 369.496 65.972C369.288 65.74 369.06 65.504 368.812 65.264C368.564 65.016 368.32 64.796 368.08 64.604ZM363.256 64.04L364.108 64.316C363.804 65.02 363.448 65.708 363.04 66.38C362.64 67.052 362.204 67.684 361.732 68.276C361.26 68.86 360.776 69.376 360.28 69.824C360.248 69.752 360.2 69.66 360.136 69.548C360.072 69.436 360.004 69.328 359.932 69.224C359.868 69.112 359.808 69.024 359.752 68.96C360.216 68.568 360.664 68.112 361.096 67.592C361.536 67.072 361.94 66.508 362.308 65.9C362.676 65.292 362.992 64.672 363.256 64.04ZM361.888 67.244L362.8 66.332L362.812 66.356V74.936H361.888V67.244ZM366.076 64.088H366.976C367.024 65.44 367.112 66.7 367.24 67.868C367.368 69.036 367.544 70.064 367.768 70.952C367.992 71.84 368.272 72.54 368.608 73.052C368.944 73.564 369.336 73.844 369.784 73.892C369.96 73.9 370.1 73.728 370.204 73.376C370.308 73.024 370.388 72.5 370.444 71.804C370.508 71.86 370.588 71.92 370.684 71.984C370.78 72.048 370.876 72.108 370.972 72.164C371.068 72.212 371.144 72.252 371.2 72.284C371.112 72.972 371 73.516 370.864 73.916C370.728 74.308 370.572 74.58 370.396 74.732C370.228 74.892 370.036 74.964 369.82 74.948C369.284 74.908 368.816 74.704 368.416 74.336C368.016 73.968 367.676 73.46 367.396 72.812C367.124 72.164 366.9 71.396 366.724 70.508C366.548 69.62 366.408 68.636 366.304 67.556C366.208 66.476 366.132 65.32 366.076 64.088ZM377.212 67.52V69.068H381.664V67.52H377.212ZM377.212 65.264V66.788H381.664V65.264H377.212ZM376.384 64.472H382.528V69.848H376.384V64.472ZM376.24 71.264H382.696V72.08H376.24V71.264ZM375.316 73.736H383.104V74.564H375.316V73.736ZM372.052 64.724H375.796V65.576H372.052V64.724ZM372.172 68.204H375.616V69.044H372.172V68.204ZM371.92 72.8C372.248 72.704 372.616 72.596 373.024 72.476C373.44 72.348 373.876 72.208 374.332 72.056C374.796 71.896 375.26 71.74 375.724 71.588L375.88 72.464C375.232 72.68 374.58 72.9 373.924 73.124C373.268 73.34 372.676 73.536 372.148 73.712L371.92 72.8ZM373.54 65.06H374.404V72.5L373.54 72.668V65.06ZM379.048 64.844H379.828V69.464H379.9V74.108H378.976V69.464H379.048V64.844Z" fill="#171717"/>
<path d="M418.611 72.2538L420 73.0697V65.4062L418.611 64.59V72.2538ZM400 65.4062V73.0702L401.389 72.2539V64.5902L400 65.4062ZM406.112 79.1146L407.501 79.9305L410.808 77.9877L409.419 77.1718L406.112 79.1146Z" fill="#40A0B4"/>
<path d="M408.056 77.9724L409.445 78.7884L410.808 77.9876L409.419 77.1718L408.056 77.9724Z" fill="#338090"/>
<path d="M413.194 76.748V75.116L407.214 71.6027L406.806 71.8425L406.806 71.8429V72.9951L413.194 76.748ZM406.806 76.5855L412.5 79.9306L413.889 79.1147L406.806 74.9534V76.5855Z" fill="#45C1A8"/>
<path d="M415.212 66.5871L416.601 67.403L420 65.4061L418.61 64.5904L415.212 66.5871ZM410.702 70.8684L409.313 70.0525L406.111 71.9339L407.5 72.7498L410.702 70.8684ZM416.945 63.6114L415.555 62.7954L412.157 64.7923L413.546 65.6084L416.945 63.6114ZM407.648 69.0737L406.259 68.2578L403.056 70.1391L404.445 70.955L407.648 69.0737ZM409.102 62.9976L410.491 63.8135L413.89 61.8167L412.501 61.0008L409.102 62.9976ZM400.002 68.3443L401.39 69.1602L404.593 67.2789L403.204 66.4629L400.002 68.3443Z" fill="#7CE1C0"/>
<path d="M418.611 69.1596V76.3404L420 75.5243V68.3437L418.611 69.1596ZM416.944 77.3195V70.1388L415.555 70.9547V78.1355L416.944 77.3195ZM412.499 72.7498V79.9305L413.889 79.1146V71.9337L412.499 72.7498ZM406.112 79.1146L407.501 79.9305V72.7499L406.112 71.9338V79.1146ZM404.445 70.9547V78.1354L403.056 77.3195V70.1388L404.445 70.9547ZM400.001 75.5243L401.39 76.3402V69.1596L400.001 68.3436V75.5243Z" fill="url(#paint0_linear_38_407)"/>
<path d="M408.055 70.7916L409.444 71.6075L410.702 70.8684L409.314 70.0525L408.055 70.7916ZM401.946 67.202L403.335 68.018L404.593 67.2788L403.204 66.463L401.946 67.202ZM405.001 68.9969L406.389 69.8127L407.647 69.0736L406.259 68.2578L405.001 68.9969Z" fill="#45C1A8"/>
<path d="M407.5 61L406.111 61.8159L418.611 69.1595L420 68.3436L407.5 61ZM404.445 62.7952L403.056 63.6111L415.555 70.9547L416.944 70.1388L404.445 62.7952ZM400 65.4062L412.499 72.7498L413.888 71.9339L401.389 64.5903L400 65.4062Z" fill="#A2EACF"/>
<rect x="7.5" y="37.5" width="180" height="117" rx="18.5" fill="white" stroke="#D4D4D4"/>
<mask id="path-16-outside-2_38_407" maskUnits="userSpaceOnUse" x="17" y="106" width="162" height="39" fill="black">
<rect fill="white" x="17" y="106" width="162" height="39"/>
<path d="M18 125.5C18 115.283 26.2827 107 36.5 107H159.5C169.717 107 178 115.283 178 125.5C178 135.717 169.717 144 159.5 144H36.5C26.2827 144 18 135.717 18 125.5Z"/>
</mask>
<path d="M18 125.5C18 115.283 26.2827 107 36.5 107H159.5C169.717 107 178 115.283 178 125.5C178 135.717 169.717 144 159.5 144H36.5C26.2827 144 18 135.717 18 125.5Z" fill="#F7F7F7"/>
<path d="M18 125.5M178 125.5M178 125.5M18 125.5M36.5 107V108H159.5V107V106H36.5V107ZM178 125.5M159.5 144V143H36.5V144V145H159.5V144ZM18 125.5M36.5 144V143C26.835 143 19 135.165 19 125.5H18H17C17 136.27 25.7305 145 36.5 145V144ZM178 125.5H177C177 135.165 169.165 143 159.5 143V144V145C170.27 145 179 136.27 179 125.5H178ZM159.5 107V108C169.165 108 177 115.835 177 125.5H178H179C179 114.73 170.27 106 159.5 106V107ZM36.5 107V106C25.7304 106 17 114.73 17 125.5H18H19C19 115.835 26.835 108 36.5 108V107Z" fill="#D4D4D4" mask="url(#path-16-outside-2_38_407)"/>
<path d="M159.5 50.75C169.855 50.75 178.25 59.1447 178.25 69.5C178.25 79.8553 169.855 88.25 159.5 88.25H36.5C26.1447 88.25 17.75 79.8553 17.75 69.5C17.75 59.1447 26.1447 50.75 36.5 50.75H159.5Z" fill="#F7F7F7" stroke="#D4D4D4" stroke-width="0.5"/>
<path d="M89.388 68.036L96.828 67.1L96.96 67.952L89.52 68.888L89.388 68.036ZM94.08 64.604L94.728 64.172C94.968 64.364 95.216 64.576 95.472 64.808C95.728 65.04 95.964 65.272 96.18 65.504C96.404 65.728 96.584 65.928 96.72 66.104L96.024 66.584C95.888 66.4 95.712 66.196 95.496 65.972C95.288 65.74 95.06 65.504 94.812 65.264C94.564 65.016 94.32 64.796 94.08 64.604ZM89.256 64.04L90.108 64.316C89.804 65.02 89.448 65.708 89.04 66.38C88.64 67.052 88.204 67.684 87.732 68.276C87.26 68.86 86.776 69.376 86.28 69.824C86.248 69.752 86.2 69.66 86.136 69.548C86.072 69.436 86.004 69.328 85.932 69.224C85.868 69.112 85.808 69.024 85.752 68.96C86.216 68.568 86.664 68.112 87.096 67.592C87.536 67.072 87.94 66.508 88.308 65.9C88.676 65.292 88.992 64.672 89.256 64.04ZM87.888 67.244L88.8 66.332L88.812 66.356V74.936H87.888V67.244ZM92.076 64.088H92.976C93.024 65.44 93.112 66.7 93.24 67.868C93.368 69.036 93.544 70.064 93.768 70.952C93.992 71.84 94.272 72.54 94.608 73.052C94.944 73.564 95.336 73.844 95.784 73.892C95.96 73.9 96.1 73.728 96.204 73.376C96.308 73.024 96.388 72.5 96.444 71.804C96.508 71.86 96.588 71.92 96.684 71.984C96.78 72.048 96.876 72.108 96.972 72.164C97.068 72.212 97.144 72.252 97.2 72.284C97.112 72.972 97 73.516 96.864 73.916C96.728 74.308 96.572 74.58 96.396 74.732C96.228 74.892 96.036 74.964 95.82 74.948C95.284 74.908 94.816 74.704 94.416 74.336C94.016 73.968 93.676 73.46 93.396 72.812C93.124 72.164 92.9 71.396 92.724 70.508C92.548 69.62 92.408 68.636 92.304 67.556C92.208 66.476 92.132 65.32 92.076 64.088ZM103.212 67.52V69.068H107.664V67.52H103.212ZM103.212 65.264V66.788H107.664V65.264H103.212ZM102.384 64.472H108.528V69.848H102.384V64.472ZM102.24 71.264H108.696V72.08H102.24V71.264ZM101.316 73.736H109.104V74.564H101.316V73.736ZM98.052 64.724H101.796V65.576H98.052V64.724ZM98.172 68.204H101.616V69.044H98.172V68.204ZM97.92 72.8C98.248 72.704 98.616 72.596 99.024 72.476C99.44 72.348 99.876 72.208 100.332 72.056C100.796 71.896 101.26 71.74 101.724 71.588L101.88 72.464C101.232 72.68 100.58 72.9 99.924 73.124C99.268 73.34 98.676 73.536 98.148 73.712L97.92 72.8ZM99.54 65.06H100.404V72.5L99.54 72.668V65.06ZM105.048 64.844H105.828V69.464H105.9V74.108H104.976V69.464H105.048V64.844Z" fill="#171717"/>
<path d="M144.611 72.2538L146 73.0697V65.4062L144.611 64.59V72.2538ZM126 65.4062V73.0702L127.389 72.2539V64.5902L126 65.4062ZM132.112 79.1146L133.501 79.9305L136.808 77.9877L135.419 77.1718L132.112 79.1146Z" fill="#40A0B4"/>
<path d="M134.056 77.9724L135.445 78.7884L136.808 77.9876L135.419 77.1718L134.056 77.9724Z" fill="#338090"/>
<path d="M139.194 76.748V75.116L133.214 71.6027L132.806 71.8425L132.806 71.8429V72.9951L139.194 76.748ZM132.806 76.5855L138.5 79.9306L139.889 79.1147L132.806 74.9534V76.5855Z" fill="#45C1A8"/>
<path d="M141.212 66.5871L142.601 67.403L146 65.4061L144.61 64.5904L141.212 66.5871ZM136.702 70.8684L135.313 70.0525L132.111 71.9339L133.5 72.7498L136.702 70.8684ZM142.945 63.6114L141.555 62.7954L138.157 64.7923L139.546 65.6084L142.945 63.6114ZM133.648 69.0737L132.259 68.2578L129.056 70.1391L130.445 70.955L133.648 69.0737ZM135.102 62.9976L136.491 63.8135L139.89 61.8167L138.501 61.0008L135.102 62.9976ZM126.002 68.3443L127.39 69.1602L130.593 67.2789L129.204 66.4629L126.002 68.3443Z" fill="#7CE1C0"/>
<path d="M144.611 69.1596V76.3404L146 75.5243V68.3437L144.611 69.1596ZM142.944 77.3195V70.1388L141.555 70.9547V78.1355L142.944 77.3195ZM138.499 72.7498V79.9305L139.889 79.1146V71.9337L138.499 72.7498ZM132.112 79.1146L133.501 79.9305V72.7499L132.112 71.9338V79.1146ZM130.445 70.9547V78.1354L129.056 77.3195V70.1388L130.445 70.9547ZM126.001 75.5243L127.39 76.3402V69.1596L126.001 68.3436V75.5243Z" fill="url(#paint1_linear_38_407)"/>
<path d="M134.055 70.7916L135.444 71.6075L136.702 70.8684L135.314 70.0525L134.055 70.7916ZM127.946 67.202L129.335 68.018L130.593 67.2788L129.204 66.463L127.946 67.202ZM131.001 68.9969L132.389 69.8127L133.647 69.0736L132.259 68.2578L131.001 68.9969Z" fill="#45C1A8"/>
<path d="M133.5 61L132.111 61.8159L144.611 69.1595L146 68.3436L133.5 61ZM130.445 62.7952L129.056 63.6111L141.555 70.9547L142.944 70.1388L130.445 62.7952ZM126 65.4062L138.499 72.7498L139.888 71.9339L127.389 64.5903L126 65.4062Z" fill="#A2EACF"/>
<rect x="548.5" y="0.5" width="193" height="167" rx="18.5" fill="white" stroke="#D4D4D4"/>
<path d="M641.764 17.168H642.688V21.176C642.688 21.448 642.652 21.664 642.58 21.824C642.508 21.976 642.36 22.092 642.136 22.172C641.912 22.244 641.608 22.288 641.224 22.304C640.848 22.312 640.376 22.316 639.808 22.316C639.792 22.172 639.756 22.012 639.7 21.836C639.652 21.66 639.596 21.508 639.532 21.38C639.828 21.388 640.108 21.396 640.372 21.404C640.636 21.404 640.864 21.404 641.056 21.404C641.248 21.396 641.384 21.392 641.464 21.392C641.576 21.384 641.652 21.364 641.692 21.332C641.74 21.3 641.764 21.24 641.764 21.152V17.168ZM636.82 17.696H637.768V23.936H636.82V17.696ZM633.676 17.168H642.16V18.032H633.676V17.168ZM633.16 14.276H643.852V15.14H633.16V14.276ZM635.968 12.92H636.892V16.52H635.968V12.92ZM640.108 12.92H641.044V16.52H640.108V12.92ZM649.96 12.92H650.86V17.012H649.96V12.92ZM647.344 17.42V19.568H653.62V17.42H647.344ZM646.492 16.568H654.52V20.408H646.492V16.568ZM650.38 14.192H655.42V15.044H650.38V14.192ZM648.58 21.464L649.432 21.392C649.496 21.64 649.548 21.912 649.588 22.208C649.636 22.496 649.672 22.772 649.696 23.036C649.728 23.308 649.744 23.54 649.744 23.732L648.832 23.852C648.832 23.652 648.82 23.416 648.796 23.144C648.78 22.872 648.752 22.588 648.712 22.292C648.672 21.996 648.628 21.72 648.58 21.464ZM651.064 21.476L651.88 21.296C652.008 21.536 652.128 21.8 652.24 22.088C652.36 22.368 652.468 22.64 652.564 22.904C652.668 23.168 652.74 23.4 652.78 23.6L651.904 23.828C651.864 23.628 651.8 23.392 651.712 23.12C651.624 22.848 651.524 22.568 651.412 22.28C651.3 21.992 651.184 21.724 651.064 21.476ZM653.512 21.38L654.316 21.068C654.524 21.324 654.728 21.596 654.928 21.884C655.136 22.172 655.328 22.46 655.504 22.748C655.68 23.028 655.816 23.28 655.912 23.504L655.06 23.864C654.972 23.64 654.844 23.384 654.676 23.096C654.508 22.808 654.32 22.516 654.112 22.22C653.912 21.916 653.712 21.636 653.512 21.38ZM646.624 21.14L647.476 21.368C647.284 21.832 647.04 22.3 646.744 22.772C646.456 23.244 646.148 23.636 645.82 23.948L645.004 23.552C645.324 23.28 645.628 22.924 645.916 22.484C646.204 22.036 646.44 21.588 646.624 21.14Z" fill="#171717"/>
<rect x="554.5" y="37.5" width="180" height="117" rx="18.5" fill="white" stroke="#D4D4D4"/>
<path d="M706.5 50.75C716.855 50.75 725.25 59.1447 725.25 69.5C725.25 79.8553 716.855 88.25 706.5 88.25H583.5C573.145 88.25 564.75 79.8553 564.75 69.5C564.75 59.1447 573.145 50.75 583.5 50.75H706.5Z" fill="#F7F7F7" stroke="#D4D4D4" stroke-width="0.5"/>
<mask id="path-31-outside-3_38_407" maskUnits="userSpaceOnUse" x="564" y="106" width="162" height="39" fill="black">
<rect fill="white" x="564" y="106" width="162" height="39"/>
<path d="M565 125.5C565 115.283 573.283 107 583.5 107H706.5C716.717 107 725 115.283 725 125.5C725 135.717 716.717 144 706.5 144H583.5C573.283 144 565 135.717 565 125.5Z"/>
</mask>
<path d="M565 125.5C565 115.283 573.283 107 583.5 107H706.5C716.717 107 725 115.283 725 125.5C725 135.717 716.717 144 706.5 144H583.5C573.283 144 565 135.717 565 125.5Z" fill="#F7F7F7"/>
<path d="M565 125.5M725 125.5M725 125.5M565 125.5M583.5 107V108H706.5V107V106H583.5V107ZM725 125.5M706.5 144V143H583.5V144V145H706.5V144ZM565 125.5M583.5 144V143C573.835 143 566 135.165 566 125.5H565H564C564 136.27 572.73 145 583.5 145V144ZM725 125.5H724C724 135.165 716.165 143 706.5 143V144V145C717.27 145 726 136.27 726 125.5H725ZM706.5 107V108C716.165 108 724 115.835 724 125.5H725H726C726 114.73 717.27 106 706.5 106V107ZM583.5 107V106C572.73 106 564 114.73 564 125.5H565H566C566 115.835 573.835 108 583.5 108V107Z" fill="#D4D4D4" mask="url(#path-31-outside-3_38_407)"/>
<path d="M636.388 68.036L643.828 67.1L643.96 67.952L636.52 68.888L636.388 68.036ZM641.08 64.604L641.728 64.172C641.968 64.364 642.216 64.576 642.472 64.808C642.728 65.04 642.964 65.272 643.18 65.504C643.404 65.728 643.584 65.928 643.72 66.104L643.024 66.584C642.888 66.4 642.712 66.196 642.496 65.972C642.288 65.74 642.06 65.504 641.812 65.264C641.564 65.016 641.32 64.796 641.08 64.604ZM636.256 64.04L637.108 64.316C636.804 65.02 636.448 65.708 636.04 66.38C635.64 67.052 635.204 67.684 634.732 68.276C634.26 68.86 633.776 69.376 633.28 69.824C633.248 69.752 633.2 69.66 633.136 69.548C633.072 69.436 633.004 69.328 632.932 69.224C632.868 69.112 632.808 69.024 632.752 68.96C633.216 68.568 633.664 68.112 634.096 67.592C634.536 67.072 634.94 66.508 635.308 65.9C635.676 65.292 635.992 64.672 636.256 64.04ZM634.888 67.244L635.8 66.332L635.812 66.356V74.936H634.888V67.244ZM639.076 64.088H639.976C640.024 65.44 640.112 66.7 640.24 67.868C640.368 69.036 640.544 70.064 640.768 70.952C640.992 71.84 641.272 72.54 641.608 73.052C641.944 73.564 642.336 73.844 642.784 73.892C642.96 73.9 643.1 73.728 643.204 73.376C643.308 73.024 643.388 72.5 643.444 71.804C643.508 71.86 643.588 71.92 643.684 71.984C643.78 72.048 643.876 72.108 643.972 72.164C644.068 72.212 644.144 72.252 644.2 72.284C644.112 72.972 644 73.516 643.864 73.916C643.728 74.308 643.572 74.58 643.396 74.732C643.228 74.892 643.036 74.964 642.82 74.948C642.284 74.908 641.816 74.704 641.416 74.336C641.016 73.968 640.676 73.46 640.396 72.812C640.124 72.164 639.9 71.396 639.724 70.508C639.548 69.62 639.408 68.636 639.304 67.556C639.208 66.476 639.132 65.32 639.076 64.088ZM650.212 67.52V69.068H654.664V67.52H650.212ZM650.212 65.264V66.788H654.664V65.264H650.212ZM649.384 64.472H655.528V69.848H649.384V64.472ZM649.24 71.264H655.696V72.08H649.24V71.264ZM648.316 73.736H656.104V74.564H648.316V73.736ZM645.052 64.724H648.796V65.576H645.052V64.724ZM645.172 68.204H648.616V69.044H645.172V68.204ZM644.92 72.8C645.248 72.704 645.616 72.596 646.024 72.476C646.44 72.348 646.876 72.208 647.332 72.056C647.796 71.896 648.26 71.74 648.724 71.588L648.88 72.464C648.232 72.68 647.58 72.9 646.924 73.124C646.268 73.34 645.676 73.536 645.148 73.712L644.92 72.8ZM646.54 65.06H647.404V72.5L646.54 72.668V65.06ZM652.048 64.844H652.828V69.464H652.9V74.108H651.976V69.464H652.048V64.844Z" fill="#171717"/>
<path d="M691.611 72.2538L693 73.0697V65.4062L691.611 64.59V72.2538ZM673 65.4062V73.0702L674.389 72.2539V64.5902L673 65.4062ZM679.112 79.1146L680.501 79.9305L683.808 77.9877L682.419 77.1718L679.112 79.1146Z" fill="#40A0B4"/>
<path d="M681.056 77.9724L682.445 78.7884L683.808 77.9876L682.419 77.1718L681.056 77.9724Z" fill="#338090"/>
<path d="M686.194 76.748V75.116L680.214 71.6027L679.806 71.8425L679.806 71.8429V72.9951L686.194 76.748ZM679.806 76.5855L685.5 79.9306L686.889 79.1147L679.806 74.9534V76.5855Z" fill="#45C1A8"/>
<path d="M688.212 66.5871L689.601 67.403L693 65.4061L691.61 64.5904L688.212 66.5871ZM683.702 70.8684L682.313 70.0525L679.111 71.9339L680.5 72.7498L683.702 70.8684ZM689.945 63.6114L688.555 62.7954L685.157 64.7923L686.546 65.6084L689.945 63.6114ZM680.647 69.0737L679.258 68.2578L676.056 70.1391L677.445 70.955L680.647 69.0737ZM682.102 62.9976L683.491 63.8135L686.89 61.8167L685.501 61.0008L682.102 62.9976ZM673.001 68.3443L674.39 69.1602L677.592 67.2789L676.204 66.4629L673.001 68.3443Z" fill="#7CE1C0"/>
<path d="M691.611 69.1596V76.3404L693 75.5243V68.3437L691.611 69.1596ZM689.944 77.3195V70.1388L688.555 70.9547V78.1355L689.944 77.3195ZM685.499 72.7498V79.9305L686.889 79.1146V71.9337L685.499 72.7498ZM679.112 79.1146L680.501 79.9305V72.7499L679.112 71.9338V79.1146ZM677.445 70.9547V78.1354L676.056 77.3195V70.1388L677.445 70.9547ZM673.001 75.5243L674.39 76.3402V69.1596L673.001 68.3436V75.5243Z" fill="url(#paint2_linear_38_407)"/>
<path d="M681.055 70.7916L682.444 71.6075L683.703 70.8684L682.314 70.0525L681.055 70.7916ZM674.946 67.202L676.335 68.018L677.593 67.2788L676.204 66.463L674.946 67.202ZM678.001 68.9969L679.39 69.8127L680.648 69.0736L679.259 68.2578L678.001 68.9969Z" fill="#45C1A8"/>
<path d="M680.5 61L679.111 61.8159L691.611 69.1595L693 68.3436L680.5 61ZM677.445 62.7952L676.056 63.6111L688.555 70.9547L689.944 70.1388L677.445 62.7952ZM673 65.4062L685.499 72.7498L686.888 71.9339L674.389 64.5903L673 65.4062Z" fill="#A2EACF"/>
<path d="M372 107V88" stroke="#A3A3A3" stroke-width="2"/>
<path d="M645 107V88" stroke="#A3A3A3" stroke-width="2"/>
<path d="M100 107V88" stroke="#A3A3A3" stroke-width="2"/>
<path d="M564.5 69L554.5 63.2265V74.7735L564.5 69ZM452 69L462 74.7735V63.2265L452 69ZM555.5 69V68L461 68V69V70L555.5 70V69Z" fill="#A3A3A3"/>
<path d="M492.26 54.028H495.524V54.892H492.26V54.028ZM485.636 47.188H490.256V48.076H485.636V47.188ZM491.864 46.408H495.956V55.684H495.056V47.284H492.728V55.78H491.864V46.408ZM490.016 47.188H490.88C490.88 47.188 490.88 47.22 490.88 47.284C490.88 47.34 490.88 47.408 490.88 47.488C490.88 47.56 490.88 47.616 490.88 47.656C490.856 48.992 490.832 50.116 490.808 51.028C490.784 51.94 490.752 52.688 490.712 53.272C490.672 53.848 490.62 54.292 490.556 54.604C490.5 54.916 490.424 55.136 490.328 55.264C490.216 55.416 490.1 55.524 489.98 55.588C489.86 55.66 489.712 55.708 489.536 55.732C489.368 55.756 489.152 55.764 488.888 55.756C488.632 55.756 488.372 55.748 488.108 55.732C488.1 55.596 488.072 55.444 488.024 55.276C487.984 55.108 487.924 54.96 487.844 54.832C488.124 54.856 488.384 54.872 488.624 54.88C488.864 54.88 489.036 54.88 489.14 54.88C489.228 54.888 489.304 54.88 489.368 54.856C489.432 54.824 489.492 54.768 489.548 54.688C489.612 54.6 489.668 54.412 489.716 54.124C489.764 53.828 489.808 53.4 489.848 52.84C489.888 52.28 489.92 51.556 489.944 50.668C489.968 49.772 489.992 48.684 490.016 47.404V47.188ZM487.34 45.076H488.228C488.22 46.188 488.2 47.272 488.168 48.328C488.136 49.384 488.052 50.384 487.916 51.328C487.788 52.272 487.572 53.14 487.268 53.932C486.972 54.716 486.56 55.396 486.032 55.972C485.984 55.9 485.92 55.824 485.84 55.744C485.76 55.672 485.676 55.6 485.588 55.528C485.5 55.456 485.416 55.396 485.336 55.348C485.736 54.932 486.06 54.444 486.308 53.884C486.564 53.324 486.764 52.712 486.908 52.048C487.052 51.376 487.152 50.664 487.208 49.912C487.272 49.152 487.308 48.368 487.316 47.56C487.332 46.744 487.34 45.916 487.34 45.076ZM499.184 48.364L499.94 48.64C499.788 49.08 499.58 49.516 499.316 49.948C499.06 50.372 498.708 50.72 498.26 50.992L497.564 50.5C497.972 50.26 498.308 49.948 498.572 49.564C498.844 49.172 499.048 48.772 499.184 48.364ZM500.648 48.172H501.464V50.512C501.464 50.672 501.512 50.776 501.608 50.824C501.712 50.872 501.928 50.896 502.256 50.896C502.336 50.896 502.476 50.896 502.676 50.896C502.884 50.896 503.116 50.896 503.372 50.896C503.628 50.896 503.864 50.896 504.08 50.896C504.296 50.896 504.46 50.896 504.572 50.896C504.748 50.896 504.88 50.872 504.968 50.824C505.064 50.768 505.132 50.656 505.172 50.488C505.212 50.312 505.24 50.048 505.256 49.696C505.352 49.76 505.468 49.82 505.604 49.876C505.748 49.932 505.88 49.972 506 49.996C505.968 50.428 505.908 50.764 505.82 51.004C505.732 51.244 505.596 51.412 505.412 51.508C505.228 51.596 504.972 51.64 504.644 51.64C504.588 51.64 504.476 51.64 504.308 51.64C504.148 51.64 503.96 51.64 503.744 51.64C503.528 51.64 503.312 51.64 503.096 51.64C502.88 51.64 502.692 51.64 502.532 51.64C502.372 51.64 502.264 51.64 502.208 51.64C501.8 51.64 501.48 51.608 501.248 51.544C501.024 51.48 500.868 51.368 500.78 51.208C500.692 51.048 500.648 50.82 500.648 50.524V48.172ZM501.224 47.464L501.68 46.936C501.928 47.04 502.184 47.168 502.448 47.32C502.712 47.464 502.96 47.612 503.192 47.764C503.432 47.916 503.624 48.06 503.768 48.196L503.288 48.784C503.144 48.648 502.956 48.5 502.724 48.34C502.5 48.172 502.256 48.012 501.992 47.86C501.728 47.708 501.472 47.576 501.224 47.464ZM505.736 48.868L506.384 48.424C506.664 48.64 506.94 48.884 507.212 49.156C507.492 49.42 507.748 49.688 507.98 49.96C508.22 50.232 508.404 50.484 508.532 50.716L507.836 51.208C507.708 50.984 507.532 50.736 507.308 50.464C507.084 50.184 506.832 49.904 506.552 49.624C506.28 49.344 506.008 49.092 505.736 48.868ZM505.136 47.428L505.916 47.776C505.332 48.552 504.616 49.24 503.768 49.84C502.928 50.44 502.012 50.96 501.02 51.4C500.036 51.84 499.024 52.208 497.984 52.504C497.952 52.44 497.904 52.36 497.84 52.264C497.776 52.168 497.708 52.076 497.636 51.988C497.572 51.892 497.512 51.816 497.456 51.76C498.504 51.504 499.512 51.176 500.48 50.776C501.456 50.368 502.344 49.888 503.144 49.336C503.952 48.776 504.616 48.14 505.136 47.428ZM502.52 51.82H503.432V55.048H502.52V51.82ZM498.932 52.516H499.82V55.96H498.932V52.516ZM506.3 52.516H507.2V55.936H506.3V52.516ZM499.388 54.604H506.768V55.444H499.388V54.604ZM502.508 44.92H503.432V46.492H502.508V44.92ZM497.924 45.952H508.1V48.304H507.188V46.768H498.812V48.304H497.924V45.952ZM512.78 46.48H520.412V47.308H512.78V46.48ZM515.96 44.92H516.872V46.876H515.96V44.92ZM515.96 50.668H516.776V55.444H515.96V50.668ZM513.86 50.596H514.676V51.868C514.676 52.204 514.656 52.548 514.616 52.9C514.584 53.252 514.504 53.608 514.376 53.968C514.256 54.32 514.076 54.664 513.836 55C513.596 55.336 513.272 55.648 512.864 55.936C512.824 55.88 512.768 55.812 512.696 55.732C512.624 55.66 512.544 55.588 512.456 55.516C512.376 55.444 512.3 55.388 512.228 55.348C512.724 55.004 513.084 54.632 513.308 54.232C513.54 53.832 513.688 53.428 513.752 53.02C513.824 52.604 513.86 52.212 513.86 51.844V50.596ZM515.432 46.924L516.356 47.212C516.212 47.508 516.052 47.812 515.876 48.124C515.708 48.428 515.54 48.72 515.372 49C515.204 49.28 515.044 49.532 514.892 49.756L514.16 49.492C514.312 49.26 514.464 48.996 514.616 48.7C514.776 48.396 514.928 48.088 515.072 47.776C515.216 47.464 515.336 47.18 515.432 46.924ZM517.532 48.1L518.216 47.716C518.504 47.956 518.796 48.224 519.092 48.52C519.388 48.816 519.656 49.112 519.896 49.408C520.144 49.704 520.336 49.976 520.472 50.224L519.74 50.656C519.604 50.416 519.416 50.148 519.176 49.852C518.936 49.548 518.672 49.244 518.384 48.94C518.104 48.628 517.82 48.348 517.532 48.1ZM512.924 49.276C513.444 49.26 514.052 49.24 514.748 49.216C515.444 49.192 516.18 49.168 516.956 49.144C517.74 49.112 518.524 49.08 519.308 49.048L519.284 49.816C518.532 49.856 517.78 49.896 517.028 49.936C516.276 49.976 515.56 50.012 514.88 50.044C514.2 50.076 513.584 50.104 513.032 50.128L512.924 49.276ZM510.092 45.676L510.584 45.028C510.848 45.132 511.116 45.256 511.388 45.4C511.66 45.544 511.916 45.696 512.156 45.856C512.404 46.016 512.604 46.164 512.756 46.3L512.24 47.044C512.088 46.892 511.892 46.736 511.652 46.576C511.412 46.408 511.156 46.244 510.884 46.084C510.612 45.924 510.348 45.788 510.092 45.676ZM509.456 48.928L509.948 48.256C510.204 48.352 510.472 48.472 510.752 48.616C511.032 48.752 511.296 48.892 511.544 49.036C511.792 49.18 511.996 49.32 512.156 49.456L511.64 50.212C511.488 50.076 511.288 49.932 511.04 49.78C510.792 49.62 510.528 49.468 510.248 49.324C509.976 49.172 509.712 49.04 509.456 48.928ZM509.804 55.216C510.012 54.904 510.24 54.532 510.488 54.1C510.736 53.668 510.988 53.212 511.244 52.732C511.5 52.244 511.736 51.772 511.952 51.316L512.636 51.88C512.436 52.304 512.22 52.748 511.988 53.212C511.756 53.668 511.52 54.12 511.28 54.568C511.04 55.008 510.808 55.416 510.584 55.792L509.804 55.216ZM518.096 50.596H518.936V54.568C518.936 54.808 518.96 54.948 519.008 54.988C519.024 55.004 519.048 55.016 519.08 55.024C519.12 55.04 519.16 55.048 519.2 55.048C519.24 55.048 519.292 55.048 519.356 55.048C519.428 55.048 519.488 55.048 519.536 55.048C519.584 55.048 519.632 55.044 519.68 55.036C519.736 55.028 519.776 55.012 519.8 54.988C519.848 54.956 519.888 54.848 519.92 54.664C519.936 54.568 519.944 54.416 519.944 54.208C519.952 53.992 519.96 53.74 519.968 53.452C520.04 53.524 520.136 53.592 520.256 53.656C520.376 53.712 520.492 53.76 520.604 53.8C520.596 54.064 520.58 54.332 520.556 54.604C520.54 54.876 520.516 55.068 520.484 55.18C520.428 55.396 520.32 55.552 520.16 55.648C520.096 55.688 520.008 55.72 519.896 55.744C519.784 55.768 519.68 55.78 519.584 55.78C519.512 55.78 519.408 55.78 519.272 55.78C519.144 55.78 519.048 55.78 518.984 55.78C518.872 55.78 518.756 55.76 518.636 55.72C518.516 55.688 518.412 55.636 518.324 55.564C518.236 55.484 518.176 55.372 518.144 55.228C518.112 55.092 518.096 54.844 518.096 54.484V50.596ZM524 47.02V47.68H529.964V47.02H524ZM524 45.844V46.492H529.964V45.844H524ZM523.124 45.304H530.864V48.22H523.124V45.304ZM523.76 51.724V52.42H530.324V51.724H523.76ZM523.76 50.524V51.196H530.324V50.524H523.76ZM522.908 49.96H531.212V52.972H522.908V49.96ZM526.544 50.164H527.42V55.324H526.544V50.164ZM521.624 48.736H532.388V49.42H521.624V48.736ZM522.572 53.632H531.476V54.268H522.572V53.632ZM521.564 54.964H532.46V55.66H521.564V54.964Z" fill="#171717"/>
<path d="M291.5 70L281.5 64.2265V75.7735L291.5 70ZM179 70L189 75.7735V64.2265L179 70ZM282.5 70V69L188 69V70V71L282.5 71V70Z" fill="#A3A3A3"/>
<path d="M219.26 55.028H222.524V55.892H219.26V55.028ZM212.636 48.188H217.256V49.076H212.636V48.188ZM218.864 47.408H222.956V56.684H222.056V48.284H219.728V56.78H218.864V47.408ZM217.016 48.188H217.88C217.88 48.188 217.88 48.22 217.88 48.284C217.88 48.34 217.88 48.408 217.88 48.488C217.88 48.56 217.88 48.616 217.88 48.656C217.856 49.992 217.832 51.116 217.808 52.028C217.784 52.94 217.752 53.688 217.712 54.272C217.672 54.848 217.62 55.292 217.556 55.604C217.5 55.916 217.424 56.136 217.328 56.264C217.216 56.416 217.1 56.524 216.98 56.588C216.86 56.66 216.712 56.708 216.536 56.732C216.368 56.756 216.152 56.764 215.888 56.756C215.632 56.756 215.372 56.748 215.108 56.732C215.1 56.596 215.072 56.444 215.024 56.276C214.984 56.108 214.924 55.96 214.844 55.832C215.124 55.856 215.384 55.872 215.624 55.88C215.864 55.88 216.036 55.88 216.14 55.88C216.228 55.888 216.304 55.88 216.368 55.856C216.432 55.824 216.492 55.768 216.548 55.688C216.612 55.6 216.668 55.412 216.716 55.124C216.764 54.828 216.808 54.4 216.848 53.84C216.888 53.28 216.92 52.556 216.944 51.668C216.968 50.772 216.992 49.684 217.016 48.404V48.188ZM214.34 46.076H215.228C215.22 47.188 215.2 48.272 215.168 49.328C215.136 50.384 215.052 51.384 214.916 52.328C214.788 53.272 214.572 54.14 214.268 54.932C213.972 55.716 213.56 56.396 213.032 56.972C212.984 56.9 212.92 56.824 212.84 56.744C212.76 56.672 212.676 56.6 212.588 56.528C212.5 56.456 212.416 56.396 212.336 56.348C212.736 55.932 213.06 55.444 213.308 54.884C213.564 54.324 213.764 53.712 213.908 53.048C214.052 52.376 214.152 51.664 214.208 50.912C214.272 50.152 214.308 49.368 214.316 48.56C214.332 47.744 214.34 46.916 214.34 46.076ZM226.184 49.364L226.94 49.64C226.788 50.08 226.58 50.516 226.316 50.948C226.06 51.372 225.708 51.72 225.26 51.992L224.564 51.5C224.972 51.26 225.308 50.948 225.572 50.564C225.844 50.172 226.048 49.772 226.184 49.364ZM227.648 49.172H228.464V51.512C228.464 51.672 228.512 51.776 228.608 51.824C228.712 51.872 228.928 51.896 229.256 51.896C229.336 51.896 229.476 51.896 229.676 51.896C229.884 51.896 230.116 51.896 230.372 51.896C230.628 51.896 230.864 51.896 231.08 51.896C231.296 51.896 231.46 51.896 231.572 51.896C231.748 51.896 231.88 51.872 231.968 51.824C232.064 51.768 232.132 51.656 232.172 51.488C232.212 51.312 232.24 51.048 232.256 50.696C232.352 50.76 232.468 50.82 232.604 50.876C232.748 50.932 232.88 50.972 233 50.996C232.968 51.428 232.908 51.764 232.82 52.004C232.732 52.244 232.596 52.412 232.412 52.508C232.228 52.596 231.972 52.64 231.644 52.64C231.588 52.64 231.476 52.64 231.308 52.64C231.148 52.64 230.96 52.64 230.744 52.64C230.528 52.64 230.312 52.64 230.096 52.64C229.88 52.64 229.692 52.64 229.532 52.64C229.372 52.64 229.264 52.64 229.208 52.64C228.8 52.64 228.48 52.608 228.248 52.544C228.024 52.48 227.868 52.368 227.78 52.208C227.692 52.048 227.648 51.82 227.648 51.524V49.172ZM228.224 48.464L228.68 47.936C228.928 48.04 229.184 48.168 229.448 48.32C229.712 48.464 229.96 48.612 230.192 48.764C230.432 48.916 230.624 49.06 230.768 49.196L230.288 49.784C230.144 49.648 229.956 49.5 229.724 49.34C229.5 49.172 229.256 49.012 228.992 48.86C228.728 48.708 228.472 48.576 228.224 48.464ZM232.736 49.868L233.384 49.424C233.664 49.64 233.94 49.884 234.212 50.156C234.492 50.42 234.748 50.688 234.98 50.96C235.22 51.232 235.404 51.484 235.532 51.716L234.836 52.208C234.708 51.984 234.532 51.736 234.308 51.464C234.084 51.184 233.832 50.904 233.552 50.624C233.28 50.344 233.008 50.092 232.736 49.868ZM232.136 48.428L232.916 48.776C232.332 49.552 231.616 50.24 230.768 50.84C229.928 51.44 229.012 51.96 228.02 52.4C227.036 52.84 226.024 53.208 224.984 53.504C224.952 53.44 224.904 53.36 224.84 53.264C224.776 53.168 224.708 53.076 224.636 52.988C224.572 52.892 224.512 52.816 224.456 52.76C225.504 52.504 226.512 52.176 227.48 51.776C228.456 51.368 229.344 50.888 230.144 50.336C230.952 49.776 231.616 49.14 232.136 48.428ZM229.52 52.82H230.432V56.048H229.52V52.82ZM225.932 53.516H226.82V56.96H225.932V53.516ZM233.3 53.516H234.2V56.936H233.3V53.516ZM226.388 55.604H233.768V56.444H226.388V55.604ZM229.508 45.92H230.432V47.492H229.508V45.92ZM224.924 46.952H235.1V49.304H234.188V47.768H225.812V49.304H224.924V46.952ZM239.78 47.48H247.412V48.308H239.78V47.48ZM242.96 45.92H243.872V47.876H242.96V45.92ZM242.96 51.668H243.776V56.444H242.96V51.668ZM240.86 51.596H241.676V52.868C241.676 53.204 241.656 53.548 241.616 53.9C241.584 54.252 241.504 54.608 241.376 54.968C241.256 55.32 241.076 55.664 240.836 56C240.596 56.336 240.272 56.648 239.864 56.936C239.824 56.88 239.768 56.812 239.696 56.732C239.624 56.66 239.544 56.588 239.456 56.516C239.376 56.444 239.3 56.388 239.228 56.348C239.724 56.004 240.084 55.632 240.308 55.232C240.54 54.832 240.688 54.428 240.752 54.02C240.824 53.604 240.86 53.212 240.86 52.844V51.596ZM242.432 47.924L243.356 48.212C243.212 48.508 243.052 48.812 242.876 49.124C242.708 49.428 242.54 49.72 242.372 50C242.204 50.28 242.044 50.532 241.892 50.756L241.16 50.492C241.312 50.26 241.464 49.996 241.616 49.7C241.776 49.396 241.928 49.088 242.072 48.776C242.216 48.464 242.336 48.18 242.432 47.924ZM244.532 49.1L245.216 48.716C245.504 48.956 245.796 49.224 246.092 49.52C246.388 49.816 246.656 50.112 246.896 50.408C247.144 50.704 247.336 50.976 247.472 51.224L246.74 51.656C246.604 51.416 246.416 51.148 246.176 50.852C245.936 50.548 245.672 50.244 245.384 49.94C245.104 49.628 244.82 49.348 244.532 49.1ZM239.924 50.276C240.444 50.26 241.052 50.24 241.748 50.216C242.444 50.192 243.18 50.168 243.956 50.144C244.74 50.112 245.524 50.08 246.308 50.048L246.284 50.816C245.532 50.856 244.78 50.896 244.028 50.936C243.276 50.976 242.56 51.012 241.88 51.044C241.2 51.076 240.584 51.104 240.032 51.128L239.924 50.276ZM237.092 46.676L237.584 46.028C237.848 46.132 238.116 46.256 238.388 46.4C238.66 46.544 238.916 46.696 239.156 46.856C239.404 47.016 239.604 47.164 239.756 47.3L239.24 48.044C239.088 47.892 238.892 47.736 238.652 47.576C238.412 47.408 238.156 47.244 237.884 47.084C237.612 46.924 237.348 46.788 237.092 46.676ZM236.456 49.928L236.948 49.256C237.204 49.352 237.472 49.472 237.752 49.616C238.032 49.752 238.296 49.892 238.544 50.036C238.792 50.18 238.996 50.32 239.156 50.456L238.64 51.212C238.488 51.076 238.288 50.932 238.04 50.78C237.792 50.62 237.528 50.468 237.248 50.324C236.976 50.172 236.712 50.04 236.456 49.928ZM236.804 56.216C237.012 55.904 237.24 55.532 237.488 55.1C237.736 54.668 237.988 54.212 238.244 53.732C238.5 53.244 238.736 52.772 238.952 52.316L239.636 52.88C239.436 53.304 239.22 53.748 238.988 54.212C238.756 54.668 238.52 55.12 238.28 55.568C238.04 56.008 237.808 56.416 237.584 56.792L236.804 56.216ZM245.096 51.596H245.936V55.568C245.936 55.808 245.96 55.948 246.008 55.988C246.024 56.004 246.048 56.016 246.08 56.024C246.12 56.04 246.16 56.048 246.2 56.048C246.24 56.048 246.292 56.048 246.356 56.048C246.428 56.048 246.488 56.048 246.536 56.048C246.584 56.048 246.632 56.044 246.68 56.036C246.736 56.028 246.776 56.012 246.8 55.988C246.848 55.956 246.888 55.848 246.92 55.664C246.936 55.568 246.944 55.416 246.944 55.208C246.952 54.992 246.96 54.74 246.968 54.452C247.04 54.524 247.136 54.592 247.256 54.656C247.376 54.712 247.492 54.76 247.604 54.8C247.596 55.064 247.58 55.332 247.556 55.604C247.54 55.876 247.516 56.068 247.484 56.18C247.428 56.396 247.32 56.552 247.16 56.648C247.096 56.688 247.008 56.72 246.896 56.744C246.784 56.768 246.68 56.78 246.584 56.78C246.512 56.78 246.408 56.78 246.272 56.78C246.144 56.78 246.048 56.78 245.984 56.78C245.872 56.78 245.756 56.76 245.636 56.72C245.516 56.688 245.412 56.636 245.324 56.564C245.236 56.484 245.176 56.372 245.144 56.228C245.112 56.092 245.096 55.844 245.096 55.484V51.596ZM251 48.02V48.68H256.964V48.02H251ZM251 46.844V47.492H256.964V46.844H251ZM250.124 46.304H257.864V49.22H250.124V46.304ZM250.76 52.724V53.42H257.324V52.724H250.76ZM250.76 51.524V52.196H257.324V51.524H250.76ZM249.908 50.96H258.212V53.972H249.908V50.96ZM253.544 51.164H254.42V56.324H253.544V51.164ZM248.624 49.736H259.388V50.42H248.624V49.736ZM249.572 54.632H258.476V55.268H249.572V54.632ZM248.564 55.964H259.46V56.66H248.564V55.964Z" fill="#171717"/>
<defs>
<linearGradient id="paint0_linear_38_407" x1="410" y1="68.3436" x2="410" y2="79.9305" gradientUnits="userSpaceOnUse">
<stop stop-color="#4AD8AC"/>
<stop offset="1" stop-color="#4076C4"/>
</linearGradient>
<linearGradient id="paint1_linear_38_407" x1="136" y1="68.3436" x2="136" y2="79.9305" gradientUnits="userSpaceOnUse">
<stop stop-color="#4AD8AC"/>
<stop offset="1" stop-color="#4076C4"/>
</linearGradient>
<linearGradient id="paint2_linear_38_407" x1="683" y1="68.3436" x2="683" y2="79.9305" gradientUnits="userSpaceOnUse">
<stop stop-color="#4AD8AC"/>
<stop offset="1" stop-color="#4076C4"/>
</linearGradient>
</defs>
</svg>
