<svg width="742" height="168" viewBox="0 0 742 168" fill="none" xmlns="http://www.w3.org/2000/svg">
<rect x="0.5" y="0.5" width="467" height="167" rx="18.5" fill="white" stroke="#D4D4D4"/>
<path d="M238.161 14.2727V23H237.138L232.382 16.1477H232.297V23H231.24V14.2727H232.263L237.036 21.142H237.121V14.2727H238.161ZM242.798 23.1364C242.207 23.1364 241.689 22.9957 241.243 22.7145C240.8 22.4332 240.453 22.0398 240.203 21.5341C239.956 21.0284 239.832 20.4375 239.832 19.7614C239.832 19.0795 239.956 18.4844 240.203 17.9759C240.453 17.4673 240.8 17.0724 241.243 16.7912C241.689 16.5099 242.207 16.3693 242.798 16.3693C243.389 16.3693 243.906 16.5099 244.349 16.7912C244.795 17.0724 245.142 17.4673 245.389 17.9759C245.639 18.4844 245.764 19.0795 245.764 19.7614C245.764 20.4375 245.639 21.0284 245.389 21.5341C245.142 22.0398 244.795 22.4332 244.349 22.7145C243.906 22.9957 243.389 23.1364 242.798 23.1364ZM242.798 22.233C243.247 22.233 243.616 22.1179 243.906 21.8878C244.196 21.6577 244.411 21.3551 244.55 20.9801C244.689 20.6051 244.759 20.1989 244.759 19.7614C244.759 19.3239 244.689 18.9162 244.55 18.5384C244.411 18.1605 244.196 17.8551 243.906 17.6222C243.616 17.3892 243.247 17.2727 242.798 17.2727C242.349 17.2727 241.98 17.3892 241.69 17.6222C241.401 17.8551 241.186 18.1605 241.047 18.5384C240.908 18.9162 240.838 19.3239 240.838 19.7614C240.838 20.1989 240.908 20.6051 241.047 20.9801C241.186 21.3551 241.401 21.6577 241.69 21.8878C241.98 22.1179 242.349 22.233 242.798 22.233ZM249.771 23.1364C249.225 23.1364 248.744 22.9986 248.326 22.723C247.909 22.4446 247.582 22.0526 247.346 21.5469C247.11 21.0384 246.993 20.4375 246.993 19.7443C246.993 19.0568 247.11 18.4602 247.346 17.9545C247.582 17.4489 247.91 17.0582 248.331 16.7827C248.751 16.5071 249.237 16.3693 249.788 16.3693C250.214 16.3693 250.551 16.4403 250.798 16.5824C251.048 16.7216 251.238 16.8807 251.369 17.0597C251.502 17.2358 251.606 17.3807 251.68 17.4943H251.765V14.2727H252.771V23H251.799V21.9943H251.68C251.606 22.1136 251.501 22.2642 251.365 22.446C251.228 22.625 251.034 22.7855 250.781 22.9276C250.528 23.0668 250.191 23.1364 249.771 23.1364ZM249.907 22.233C250.311 22.233 250.652 22.1278 250.93 21.9176C251.208 21.7045 251.42 21.4105 251.565 21.0355C251.71 20.6577 251.782 20.2216 251.782 19.7273C251.782 19.2386 251.711 18.8111 251.569 18.4446C251.427 18.0753 251.217 17.7884 250.939 17.5838C250.66 17.3764 250.316 17.2727 249.907 17.2727C249.481 17.2727 249.126 17.3821 248.842 17.6009C248.561 17.8168 248.349 18.1108 248.207 18.483C248.068 18.8523 247.998 19.267 247.998 19.7273C247.998 20.1932 248.069 20.6165 248.211 20.9972C248.356 21.375 248.569 21.6761 248.85 21.9006C249.135 22.1222 249.487 22.233 249.907 22.233ZM257.497 23.1364C256.866 23.1364 256.322 22.9972 255.865 22.7188C255.41 22.4375 255.059 22.0455 254.812 21.5426C254.568 21.0369 254.446 20.4489 254.446 19.7784C254.446 19.108 254.568 18.517 254.812 18.0057C255.059 17.4915 255.403 17.0909 255.843 16.804C256.287 16.5142 256.804 16.3693 257.395 16.3693C257.735 16.3693 258.072 16.4261 258.404 16.5398C258.737 16.6534 259.039 16.8381 259.312 17.0938C259.585 17.3466 259.802 17.6818 259.964 18.0994C260.126 18.517 260.207 19.0312 260.207 19.642V20.0682H255.162V19.1989H259.184C259.184 18.8295 259.11 18.5 258.963 18.2102C258.818 17.9205 258.61 17.6918 258.341 17.5241C258.074 17.3565 257.758 17.2727 257.395 17.2727C256.994 17.2727 256.647 17.3722 256.355 17.571C256.065 17.767 255.842 18.0227 255.686 18.3381C255.529 18.6534 255.451 18.9915 255.451 19.3523V19.9318C255.451 20.4261 255.537 20.8452 255.707 21.1889C255.88 21.5298 256.12 21.7898 256.427 21.9688C256.734 22.1449 257.091 22.233 257.497 22.233C257.761 22.233 258 22.196 258.213 22.1222C258.429 22.0455 258.615 21.9318 258.771 21.7812C258.927 21.6278 259.048 21.4375 259.133 21.2102L260.105 21.483C260.002 21.8125 259.831 22.1023 259.589 22.3523C259.348 22.5994 259.049 22.7926 258.694 22.9318C258.339 23.0682 257.94 23.1364 257.497 23.1364Z" fill="#171717"/>
<rect x="281.5" y="37.5" width="180" height="117" rx="18.5" fill="white" stroke="#D4D4D4"/>
<mask id="path-4-outside-1_38_207" maskUnits="userSpaceOnUse" x="291" y="106" width="162" height="39" fill="black">
<rect fill="white" x="291" y="106" width="162" height="39"/>
<path d="M292 125.5C292 115.283 300.283 107 310.5 107H433.5C443.717 107 452 115.283 452 125.5C452 135.717 443.717 144 433.5 144H310.5C300.283 144 292 135.717 292 125.5Z"/>
</mask>
<path d="M292 125.5C292 115.283 300.283 107 310.5 107H433.5C443.717 107 452 115.283 452 125.5C452 135.717 443.717 144 433.5 144H310.5C300.283 144 292 135.717 292 125.5Z" fill="#F7F7F7"/>
<path d="M292 125.5M452 125.5M452 125.5M292 125.5M310.5 107V108H433.5V107V106H310.5V107ZM452 125.5M433.5 144V143H310.5V144V145H433.5V144ZM292 125.5M310.5 144V143C300.835 143 293 135.165 293 125.5H292H291C291 136.27 299.73 145 310.5 145V144ZM452 125.5H451C451 135.165 443.165 143 433.5 143V144V145C444.27 145 453 136.27 453 125.5H452ZM433.5 107V108C443.165 108 451 115.835 451 125.5H452H453C453 114.73 444.27 106 433.5 106V107ZM310.5 107V106C299.73 106 291 114.73 291 125.5H292H293C293 115.835 300.835 108 310.5 108V107Z" fill="#D4D4D4" mask="url(#path-4-outside-1_38_207)"/>
<path d="M433.5 50.75C443.855 50.75 452.25 59.1447 452.25 69.5C452.25 79.8553 443.855 88.25 433.5 88.25H310.5C300.145 88.25 291.75 79.8553 291.75 69.5C291.75 59.1447 300.145 50.75 310.5 50.75H433.5Z" fill="#F7F7F7" stroke="#D4D4D4" stroke-width="0.5"/>
<path d="M356.59 74V65.2727H359.539C360.224 65.2727 360.783 65.3963 361.218 65.6435C361.655 65.8878 361.979 66.2188 362.189 66.6364C362.4 67.054 362.505 67.5199 362.505 68.0341C362.505 68.5483 362.4 69.0156 362.189 69.4361C361.982 69.8565 361.661 70.1918 361.226 70.4418C360.792 70.6889 360.235 70.8125 359.556 70.8125H357.442V69.875H359.522C359.991 69.875 360.367 69.794 360.651 69.6321C360.935 69.4702 361.141 69.2514 361.269 68.9759C361.4 68.6974 361.465 68.3835 361.465 68.0341C361.465 67.6847 361.4 67.3722 361.269 67.0966C361.141 66.821 360.934 66.6051 360.647 66.4489C360.36 66.2898 359.979 66.2102 359.505 66.2102H357.647V74H356.59ZM364.071 74V67.4545H365.042V68.4432H365.111C365.23 68.1193 365.446 67.8565 365.758 67.6548C366.071 67.4531 366.423 67.3523 366.815 67.3523C366.889 67.3523 366.981 67.3537 367.092 67.3565C367.203 67.3594 367.287 67.3636 367.344 67.3693V68.392C367.309 68.3835 367.231 68.3707 367.109 68.3537C366.99 68.3338 366.863 68.3239 366.73 68.3239C366.412 68.3239 366.128 68.3906 365.878 68.5241C365.631 68.6548 365.434 68.8366 365.29 69.0696C365.148 69.2997 365.077 69.5625 365.077 69.858V74H364.071ZM370.996 74.1364C370.405 74.1364 369.886 73.9957 369.44 73.7145C368.997 73.4332 368.65 73.0398 368.4 72.5341C368.153 72.0284 368.03 71.4375 368.03 70.7614C368.03 70.0795 368.153 69.4844 368.4 68.9759C368.65 68.4673 368.997 68.0724 369.44 67.7912C369.886 67.5099 370.405 67.3693 370.996 67.3693C371.586 67.3693 372.104 67.5099 372.547 67.7912C372.993 68.0724 373.339 68.4673 373.586 68.9759C373.836 69.4844 373.961 70.0795 373.961 70.7614C373.961 71.4375 373.836 72.0284 373.586 72.5341C373.339 73.0398 372.993 73.4332 372.547 73.7145C372.104 73.9957 371.586 74.1364 370.996 74.1364ZM370.996 73.233C371.444 73.233 371.814 73.1179 372.104 72.8878C372.393 72.6577 372.608 72.3551 372.747 71.9801C372.886 71.6051 372.956 71.1989 372.956 70.7614C372.956 70.3239 372.886 69.9162 372.747 69.5384C372.608 69.1605 372.393 68.8551 372.104 68.6222C371.814 68.3892 371.444 68.2727 370.996 68.2727C370.547 68.2727 370.177 68.3892 369.888 68.6222C369.598 68.8551 369.383 69.1605 369.244 69.5384C369.105 69.9162 369.035 70.3239 369.035 70.7614C369.035 71.1989 369.105 71.6051 369.244 71.9801C369.383 72.3551 369.598 72.6577 369.888 72.8878C370.177 73.1179 370.547 73.233 370.996 73.233ZM375.977 67.4545L377.545 70.1307L379.113 67.4545H380.273L378.159 70.7273L380.273 74H379.113L377.545 71.4602L375.977 74H374.818L376.898 70.7273L374.818 67.4545H375.977ZM382.355 76.4545C382.185 76.4545 382.033 76.4403 381.899 76.4119C381.766 76.3864 381.673 76.3608 381.622 76.3352L381.878 75.4489C382.122 75.5114 382.338 75.5341 382.526 75.517C382.713 75.5 382.879 75.4162 383.024 75.2656C383.172 75.1179 383.307 74.8778 383.429 74.5455L383.617 74.0341L381.196 67.4545H382.287L384.094 72.6705H384.162L385.969 67.4545H387.06L384.281 74.9545C384.156 75.2926 384.002 75.5724 383.817 75.794C383.632 76.0185 383.418 76.1847 383.173 76.2926C382.932 76.4006 382.659 76.4545 382.355 76.4545Z" fill="#171717"/>
<path d="M418.611 72.2538L420 73.0697V65.4061L418.611 64.5899V72.2538ZM400 65.4062V73.0702L401.389 72.2539V64.5902L400 65.4062ZM406.112 79.1146L407.501 79.9305L410.808 77.9876L409.419 77.1718L406.112 79.1146Z" fill="#40A0B4"/>
<path d="M408.056 77.9724L409.445 78.7884L410.808 77.9876L409.419 77.1718L408.056 77.9724Z" fill="#338090"/>
<path d="M413.194 76.748V75.116L407.214 71.6026L406.806 71.8425L406.806 71.8429V72.9951L413.194 76.748ZM406.806 76.5855L412.5 79.9305L413.889 79.1147L406.806 74.9534V76.5855Z" fill="#45C1A8"/>
<path d="M415.212 66.5871L416.601 67.403L420 65.4061L418.61 64.5904L415.212 66.5871ZM410.702 70.8684L409.313 70.0525L406.111 71.9339L407.5 72.7498L410.702 70.8684ZM416.945 63.6114L415.555 62.7954L412.157 64.7923L413.546 65.6084L416.945 63.6114ZM407.648 69.0737L406.259 68.2578L403.056 70.1391L404.445 70.955L407.648 69.0737ZM409.102 62.9976L410.491 63.8135L413.89 61.8167L412.501 61.0008L409.102 62.9976ZM400.002 68.3443L401.39 69.1602L404.593 67.2789L403.204 66.4629L400.002 68.3443Z" fill="#7CE1C0"/>
<path d="M418.611 69.1596V76.3404L420 75.5243V68.3437L418.611 69.1596ZM416.944 77.3195V70.1388L415.555 70.9547V78.1355L416.944 77.3195ZM412.499 72.7498V79.9306L413.889 79.1146V71.9338L412.499 72.7498ZM406.112 79.1146L407.501 79.9305V72.75L406.112 71.9338V79.1146ZM404.445 70.9548V78.1354L403.056 77.3196V70.1388L404.445 70.9548ZM400.001 75.5243L401.39 76.3402V69.1596L400.001 68.3436V75.5243Z" fill="url(#paint0_linear_38_207)"/>
<path d="M408.055 70.7916L409.444 71.6075L410.702 70.8684L409.314 70.0525L408.055 70.7916ZM401.946 67.2021L403.335 68.018L404.593 67.2789L403.204 66.463L401.946 67.2021ZM405.001 68.9969L406.389 69.8128L407.647 69.0736L406.259 68.2578L405.001 68.9969Z" fill="#45C1A8"/>
<path d="M407.5 61L406.111 61.8159L418.611 69.1595L420 68.3436L407.5 61ZM404.445 62.7952L403.056 63.6111L415.555 70.9547L416.944 70.1388L404.445 62.7952ZM400 65.4062L412.499 72.7498L413.888 71.9339L401.389 64.5903L400 65.4062Z" fill="#A2EACF"/>
<rect x="7.5" y="37.5" width="180" height="117" rx="18.5" fill="white" stroke="#D4D4D4"/>
<mask id="path-16-outside-2_38_207" maskUnits="userSpaceOnUse" x="17" y="106" width="162" height="39" fill="black">
<rect fill="white" x="17" y="106" width="162" height="39"/>
<path d="M18 125.5C18 115.283 26.2827 107 36.5 107H159.5C169.717 107 178 115.283 178 125.5C178 135.717 169.717 144 159.5 144H36.5C26.2827 144 18 135.717 18 125.5Z"/>
</mask>
<path d="M18 125.5C18 115.283 26.2827 107 36.5 107H159.5C169.717 107 178 115.283 178 125.5C178 135.717 169.717 144 159.5 144H36.5C26.2827 144 18 135.717 18 125.5Z" fill="#F7F7F7"/>
<path d="M18 125.5M178 125.5M178 125.5M18 125.5M36.5 107V108H159.5V107V106H36.5V107ZM178 125.5M159.5 144V143H36.5V144V145H159.5V144ZM18 125.5M36.5 144V143C26.835 143 19 135.165 19 125.5H18H17C17 136.27 25.7305 145 36.5 145V144ZM178 125.5H177C177 135.165 169.165 143 159.5 143V144V145C170.27 145 179 136.27 179 125.5H178ZM159.5 107V108C169.165 108 177 115.835 177 125.5H178H179C179 114.73 170.27 106 159.5 106V107ZM36.5 107V106C25.7304 106 17 114.73 17 125.5H18H19C19 115.835 26.835 108 36.5 108V107Z" fill="#D4D4D4" mask="url(#path-16-outside-2_38_207)"/>
<path d="M159.5 50.75C169.855 50.75 178.25 59.1447 178.25 69.5C178.25 79.8553 169.855 88.25 159.5 88.25H36.5C26.1447 88.25 17.75 79.8553 17.75 69.5C17.75 59.1447 26.1447 50.75 36.5 50.75H159.5Z" fill="#F7F7F7" stroke="#D4D4D4" stroke-width="0.5"/>
<path d="M82.59 74V65.2727H85.5389C86.2235 65.2727 86.7832 65.3963 87.2179 65.6435C87.6554 65.8878 87.9792 66.2188 88.1895 66.6364C88.3997 67.054 88.5048 67.5199 88.5048 68.0341C88.5048 68.5483 88.3997 69.0156 88.1895 69.4361C87.9821 69.8565 87.661 70.1918 87.2264 70.4418C86.7917 70.6889 86.2349 70.8125 85.5559 70.8125H83.4423V69.875H85.5218C85.9906 69.875 86.367 69.794 86.6511 69.6321C86.9352 69.4702 87.1412 69.2514 87.269 68.9759C87.3997 68.6974 87.465 68.3835 87.465 68.0341C87.465 67.6847 87.3997 67.3722 87.269 67.0966C87.1412 66.821 86.9338 66.6051 86.6468 66.4489C86.3599 66.2898 85.9792 66.2102 85.5048 66.2102H83.6468V74H82.59ZM90.0708 74V67.4545H91.0424V68.4432H91.1106C91.2299 68.1193 91.4458 67.8565 91.7583 67.6548C92.0708 67.4531 92.4231 67.3523 92.8152 67.3523C92.889 67.3523 92.9814 67.3537 93.0922 67.3565C93.2029 67.3594 93.2868 67.3636 93.3436 67.3693V68.392C93.3095 68.3835 93.2314 68.3707 93.1092 68.3537C92.9899 68.3338 92.8635 68.3239 92.7299 68.3239C92.4118 68.3239 92.1277 68.3906 91.8777 68.5241C91.6305 68.6548 91.4345 68.8366 91.2896 69.0696C91.1475 69.2997 91.0765 69.5625 91.0765 69.858V74H90.0708ZM96.9956 74.1364C96.4047 74.1364 95.8862 73.9957 95.4402 73.7145C94.997 73.4332 94.6504 73.0398 94.4004 72.5341C94.1532 72.0284 94.0297 71.4375 94.0297 70.7614C94.0297 70.0795 94.1532 69.4844 94.4004 68.9759C94.6504 68.4673 94.997 68.0724 95.4402 67.7912C95.8862 67.5099 96.4047 67.3693 96.9956 67.3693C97.5865 67.3693 98.1035 67.5099 98.5467 67.7912C98.9927 68.0724 99.3393 68.4673 99.5865 68.9759C99.8365 69.4844 99.9615 70.0795 99.9615 70.7614C99.9615 71.4375 99.8365 72.0284 99.5865 72.5341C99.3393 73.0398 98.9927 73.4332 98.5467 73.7145C98.1035 73.9957 97.5865 74.1364 96.9956 74.1364ZM96.9956 73.233C97.4444 73.233 97.8137 73.1179 98.1035 72.8878C98.3933 72.6577 98.6078 72.3551 98.747 71.9801C98.8862 71.6051 98.9558 71.1989 98.9558 70.7614C98.9558 70.3239 98.8862 69.9162 98.747 69.5384C98.6078 69.1605 98.3933 68.8551 98.1035 68.6222C97.8137 68.3892 97.4444 68.2727 96.9956 68.2727C96.5467 68.2727 96.1774 68.3892 95.8876 68.6222C95.5978 68.8551 95.3833 69.1605 95.2441 69.5384C95.1049 69.9162 95.0353 70.3239 95.0353 70.7614C95.0353 71.1989 95.1049 71.6051 95.2441 71.9801C95.3833 72.3551 95.5978 72.6577 95.8876 72.8878C96.1774 73.1179 96.5467 73.233 96.9956 73.233ZM101.977 67.4545L103.545 70.1307L105.113 67.4545H106.273L104.159 70.7273L106.273 74H105.113L103.545 71.4602L101.977 74H100.818L102.898 70.7273L100.818 67.4545H101.977ZM108.355 76.4545C108.185 76.4545 108.033 76.4403 107.899 76.4119C107.766 76.3864 107.673 76.3608 107.622 76.3352L107.878 75.4489C108.122 75.5114 108.338 75.5341 108.526 75.517C108.713 75.5 108.879 75.4162 109.024 75.2656C109.172 75.1179 109.307 74.8778 109.429 74.5455L109.617 74.0341L107.196 67.4545H108.287L110.094 72.6705H110.162L111.969 67.4545H113.06L110.281 74.9545C110.156 75.2926 110.002 75.5724 109.817 75.794C109.632 76.0185 109.418 76.1847 109.173 76.2926C108.932 76.4006 108.659 76.4545 108.355 76.4545Z" fill="#171717"/>
<path d="M144.611 72.2538L146 73.0697V65.4061L144.611 64.5899V72.2538ZM126 65.4062V73.0702L127.389 72.2539V64.5902L126 65.4062ZM132.112 79.1146L133.501 79.9305L136.808 77.9876L135.419 77.1718L132.112 79.1146Z" fill="#40A0B4"/>
<path d="M134.056 77.9724L135.445 78.7884L136.808 77.9876L135.419 77.1718L134.056 77.9724Z" fill="#338090"/>
<path d="M139.194 76.748V75.116L133.214 71.6026L132.806 71.8425L132.806 71.8429V72.9951L139.194 76.748ZM132.806 76.5855L138.5 79.9305L139.889 79.1147L132.806 74.9534V76.5855Z" fill="#45C1A8"/>
<path d="M141.212 66.5871L142.601 67.403L146 65.4061L144.61 64.5904L141.212 66.5871ZM136.702 70.8684L135.313 70.0525L132.111 71.9339L133.5 72.7498L136.702 70.8684ZM142.945 63.6114L141.555 62.7954L138.157 64.7923L139.546 65.6084L142.945 63.6114ZM133.648 69.0737L132.259 68.2578L129.056 70.1391L130.445 70.955L133.648 69.0737ZM135.102 62.9976L136.491 63.8135L139.89 61.8167L138.501 61.0008L135.102 62.9976ZM126.002 68.3443L127.39 69.1602L130.593 67.2789L129.204 66.4629L126.002 68.3443Z" fill="#7CE1C0"/>
<path d="M144.611 69.1596V76.3404L146 75.5243V68.3437L144.611 69.1596ZM142.944 77.3195V70.1388L141.555 70.9547V78.1355L142.944 77.3195ZM138.499 72.7498V79.9306L139.889 79.1146V71.9338L138.499 72.7498ZM132.112 79.1146L133.501 79.9305V72.75L132.112 71.9338V79.1146ZM130.445 70.9548V78.1354L129.056 77.3196V70.1388L130.445 70.9548ZM126.001 75.5243L127.39 76.3402V69.1596L126.001 68.3436V75.5243Z" fill="url(#paint1_linear_38_207)"/>
<path d="M134.055 70.7916L135.444 71.6075L136.702 70.8684L135.314 70.0525L134.055 70.7916ZM127.946 67.2021L129.335 68.018L130.593 67.2789L129.204 66.463L127.946 67.2021ZM131.001 68.9969L132.389 69.8128L133.647 69.0736L132.259 68.2578L131.001 68.9969Z" fill="#45C1A8"/>
<path d="M133.5 61L132.111 61.8159L144.611 69.1595L146 68.3436L133.5 61ZM130.445 62.7952L129.056 63.6111L141.555 70.9547L142.944 70.1388L130.445 62.7952ZM126 65.4062L138.499 72.7498L139.888 71.9339L127.389 64.5903L126 65.4062Z" fill="#A2EACF"/>
<rect x="548.5" y="0.5" width="193" height="167" rx="18.5" fill="white" stroke="#D4D4D4"/>
<path d="M637.161 14.2727V23H636.138L631.382 16.1477H631.297V23H630.24V14.2727H631.263L636.036 21.142H636.121V14.2727H637.161ZM641.798 23.1364C641.207 23.1364 640.689 22.9957 640.243 22.7145C639.8 22.4332 639.453 22.0398 639.203 21.5341C638.956 21.0284 638.832 20.4375 638.832 19.7614C638.832 19.0795 638.956 18.4844 639.203 17.9759C639.453 17.4673 639.8 17.0724 640.243 16.7912C640.689 16.5099 641.207 16.3693 641.798 16.3693C642.389 16.3693 642.906 16.5099 643.349 16.7912C643.795 17.0724 644.142 17.4673 644.389 17.9759C644.639 18.4844 644.764 19.0795 644.764 19.7614C644.764 20.4375 644.639 21.0284 644.389 21.5341C644.142 22.0398 643.795 22.4332 643.349 22.7145C642.906 22.9957 642.389 23.1364 641.798 23.1364ZM641.798 22.233C642.247 22.233 642.616 22.1179 642.906 21.8878C643.196 21.6577 643.411 21.3551 643.55 20.9801C643.689 20.6051 643.759 20.1989 643.759 19.7614C643.759 19.3239 643.689 18.9162 643.55 18.5384C643.411 18.1605 643.196 17.8551 642.906 17.6222C642.616 17.3892 642.247 17.2727 641.798 17.2727C641.349 17.2727 640.98 17.3892 640.69 17.6222C640.401 17.8551 640.186 18.1605 640.047 18.5384C639.908 18.9162 639.838 19.3239 639.838 19.7614C639.838 20.1989 639.908 20.6051 640.047 20.9801C640.186 21.3551 640.401 21.6577 640.69 21.8878C640.98 22.1179 641.349 22.233 641.798 22.233ZM648.771 23.1364C648.225 23.1364 647.744 22.9986 647.326 22.723C646.909 22.4446 646.582 22.0526 646.346 21.5469C646.11 21.0384 645.993 20.4375 645.993 19.7443C645.993 19.0568 646.11 18.4602 646.346 17.9545C646.582 17.4489 646.91 17.0582 647.331 16.7827C647.751 16.5071 648.237 16.3693 648.788 16.3693C649.214 16.3693 649.551 16.4403 649.798 16.5824C650.048 16.7216 650.238 16.8807 650.369 17.0597C650.502 17.2358 650.606 17.3807 650.68 17.4943H650.765V14.2727H651.771V23H650.799V21.9943H650.68C650.606 22.1136 650.501 22.2642 650.365 22.446C650.228 22.625 650.034 22.7855 649.781 22.9276C649.528 23.0668 649.191 23.1364 648.771 23.1364ZM648.907 22.233C649.311 22.233 649.652 22.1278 649.93 21.9176C650.208 21.7045 650.42 21.4105 650.565 21.0355C650.71 20.6577 650.782 20.2216 650.782 19.7273C650.782 19.2386 650.711 18.8111 650.569 18.4446C650.427 18.0753 650.217 17.7884 649.939 17.5838C649.66 17.3764 649.316 17.2727 648.907 17.2727C648.481 17.2727 648.126 17.3821 647.842 17.6009C647.561 17.8168 647.349 18.1108 647.207 18.483C647.068 18.8523 646.998 19.267 646.998 19.7273C646.998 20.1932 647.069 20.6165 647.211 20.9972C647.356 21.375 647.569 21.6761 647.85 21.9006C648.135 22.1222 648.487 22.233 648.907 22.233ZM656.497 23.1364C655.866 23.1364 655.322 22.9972 654.865 22.7188C654.41 22.4375 654.059 22.0455 653.812 21.5426C653.568 21.0369 653.446 20.4489 653.446 19.7784C653.446 19.108 653.568 18.517 653.812 18.0057C654.059 17.4915 654.403 17.0909 654.843 16.804C655.287 16.5142 655.804 16.3693 656.395 16.3693C656.735 16.3693 657.072 16.4261 657.404 16.5398C657.737 16.6534 658.039 16.8381 658.312 17.0938C658.585 17.3466 658.802 17.6818 658.964 18.0994C659.126 18.517 659.207 19.0312 659.207 19.642V20.0682H654.162V19.1989H658.184C658.184 18.8295 658.11 18.5 657.963 18.2102C657.818 17.9205 657.61 17.6918 657.341 17.5241C657.074 17.3565 656.758 17.2727 656.395 17.2727C655.994 17.2727 655.647 17.3722 655.355 17.571C655.065 17.767 654.842 18.0227 654.686 18.3381C654.529 18.6534 654.451 18.9915 654.451 19.3523V19.9318C654.451 20.4261 654.537 20.8452 654.707 21.1889C654.88 21.5298 655.12 21.7898 655.427 21.9688C655.734 22.1449 656.091 22.233 656.497 22.233C656.761 22.233 657 22.196 657.213 22.1222C657.429 22.0455 657.615 21.9318 657.771 21.7812C657.927 21.6278 658.048 21.4375 658.133 21.2102L659.105 21.483C659.002 21.8125 658.831 22.1023 658.589 22.3523C658.348 22.5994 658.049 22.7926 657.694 22.9318C657.339 23.0682 656.94 23.1364 656.497 23.1364Z" fill="#171717"/>
<rect x="554.5" y="37.5" width="180" height="117" rx="18.5" fill="white" stroke="#D4D4D4"/>
<path d="M706.5 50.75C716.855 50.75 725.25 59.1447 725.25 69.5C725.25 79.8553 716.855 88.25 706.5 88.25H583.5C573.145 88.25 564.75 79.8553 564.75 69.5C564.75 59.1447 573.145 50.75 583.5 50.75H706.5Z" fill="#F7F7F7" stroke="#D4D4D4" stroke-width="0.5"/>
<mask id="path-31-outside-3_38_207" maskUnits="userSpaceOnUse" x="564" y="106" width="162" height="39" fill="black">
<rect fill="white" x="564" y="106" width="162" height="39"/>
<path d="M565 125.5C565 115.283 573.283 107 583.5 107H706.5C716.717 107 725 115.283 725 125.5C725 135.717 716.717 144 706.5 144H583.5C573.283 144 565 135.717 565 125.5Z"/>
</mask>
<path d="M565 125.5C565 115.283 573.283 107 583.5 107H706.5C716.717 107 725 115.283 725 125.5C725 135.717 716.717 144 706.5 144H583.5C573.283 144 565 135.717 565 125.5Z" fill="#F7F7F7"/>
<path d="M565 125.5M725 125.5M725 125.5M565 125.5M583.5 107V108H706.5V107V106H583.5V107ZM725 125.5M706.5 144V143H583.5V144V145H706.5V144ZM565 125.5M583.5 144V143C573.835 143 566 135.165 566 125.5H565H564C564 136.27 572.73 145 583.5 145V144ZM725 125.5H724C724 135.165 716.165 143 706.5 143V144V145C717.27 145 726 136.27 726 125.5H725ZM706.5 107V108C716.165 108 724 115.835 724 125.5H725H726C726 114.73 717.27 106 706.5 106V107ZM583.5 107V106C572.73 106 564 114.73 564 125.5H565H566C566 115.835 573.835 108 583.5 108V107Z" fill="#D4D4D4" mask="url(#path-31-outside-3_38_207)"/>
<path d="M629.59 74V65.2727H632.539C633.224 65.2727 633.783 65.3963 634.218 65.6435C634.655 65.8878 634.979 66.2188 635.189 66.6364C635.4 67.054 635.505 67.5199 635.505 68.0341C635.505 68.5483 635.4 69.0156 635.189 69.4361C634.982 69.8565 634.661 70.1918 634.226 70.4418C633.792 70.6889 633.235 70.8125 632.556 70.8125H630.442V69.875H632.522C632.991 69.875 633.367 69.794 633.651 69.6321C633.935 69.4702 634.141 69.2514 634.269 68.9759C634.4 68.6974 634.465 68.3835 634.465 68.0341C634.465 67.6847 634.4 67.3722 634.269 67.0966C634.141 66.821 633.934 66.6051 633.647 66.4489C633.36 66.2898 632.979 66.2102 632.505 66.2102H630.647V74H629.59ZM637.071 74V67.4545H638.042V68.4432H638.111C638.23 68.1193 638.446 67.8565 638.758 67.6548C639.071 67.4531 639.423 67.3523 639.815 67.3523C639.889 67.3523 639.981 67.3537 640.092 67.3565C640.203 67.3594 640.287 67.3636 640.344 67.3693V68.392C640.309 68.3835 640.231 68.3707 640.109 68.3537C639.99 68.3338 639.863 68.3239 639.73 68.3239C639.412 68.3239 639.128 68.3906 638.878 68.5241C638.631 68.6548 638.434 68.8366 638.29 69.0696C638.148 69.2997 638.077 69.5625 638.077 69.858V74H637.071ZM643.996 74.1364C643.405 74.1364 642.886 73.9957 642.44 73.7145C641.997 73.4332 641.65 73.0398 641.4 72.5341C641.153 72.0284 641.03 71.4375 641.03 70.7614C641.03 70.0795 641.153 69.4844 641.4 68.9759C641.65 68.4673 641.997 68.0724 642.44 67.7912C642.886 67.5099 643.405 67.3693 643.996 67.3693C644.586 67.3693 645.104 67.5099 645.547 67.7912C645.993 68.0724 646.339 68.4673 646.586 68.9759C646.836 69.4844 646.961 70.0795 646.961 70.7614C646.961 71.4375 646.836 72.0284 646.586 72.5341C646.339 73.0398 645.993 73.4332 645.547 73.7145C645.104 73.9957 644.586 74.1364 643.996 74.1364ZM643.996 73.233C644.444 73.233 644.814 73.1179 645.104 72.8878C645.393 72.6577 645.608 72.3551 645.747 71.9801C645.886 71.6051 645.956 71.1989 645.956 70.7614C645.956 70.3239 645.886 69.9162 645.747 69.5384C645.608 69.1605 645.393 68.8551 645.104 68.6222C644.814 68.3892 644.444 68.2727 643.996 68.2727C643.547 68.2727 643.177 68.3892 642.888 68.6222C642.598 68.8551 642.383 69.1605 642.244 69.5384C642.105 69.9162 642.035 70.3239 642.035 70.7614C642.035 71.1989 642.105 71.6051 642.244 71.9801C642.383 72.3551 642.598 72.6577 642.888 72.8878C643.177 73.1179 643.547 73.233 643.996 73.233ZM648.977 67.4545L650.545 70.1307L652.113 67.4545H653.273L651.159 70.7273L653.273 74H652.113L650.545 71.4602L648.977 74H647.818L649.898 70.7273L647.818 67.4545H648.977ZM655.355 76.4545C655.185 76.4545 655.033 76.4403 654.899 76.4119C654.766 76.3864 654.673 76.3608 654.622 76.3352L654.878 75.4489C655.122 75.5114 655.338 75.5341 655.526 75.517C655.713 75.5 655.879 75.4162 656.024 75.2656C656.172 75.1179 656.307 74.8778 656.429 74.5455L656.617 74.0341L654.196 67.4545H655.287L657.094 72.6705H657.162L658.969 67.4545H660.06L657.281 74.9545C657.156 75.2926 657.002 75.5724 656.817 75.794C656.632 76.0185 656.418 76.1847 656.173 76.2926C655.932 76.4006 655.659 76.4545 655.355 76.4545Z" fill="#171717"/>
<path d="M691.611 72.2538L693 73.0697V65.4061L691.611 64.5899V72.2538ZM673 65.4062V73.0702L674.389 72.2539V64.5902L673 65.4062ZM679.112 79.1146L680.501 79.9305L683.808 77.9876L682.419 77.1718L679.112 79.1146Z" fill="#40A0B4"/>
<path d="M681.056 77.9724L682.445 78.7884L683.808 77.9876L682.419 77.1718L681.056 77.9724Z" fill="#338090"/>
<path d="M686.194 76.748V75.116L680.214 71.6026L679.806 71.8425L679.806 71.8429V72.9951L686.194 76.748ZM679.806 76.5855L685.5 79.9305L686.889 79.1147L679.806 74.9534V76.5855Z" fill="#45C1A8"/>
<path d="M688.212 66.5871L689.601 67.403L693 65.4061L691.61 64.5904L688.212 66.5871ZM683.702 70.8684L682.313 70.0525L679.111 71.9339L680.5 72.7498L683.702 70.8684ZM689.945 63.6114L688.555 62.7954L685.157 64.7923L686.546 65.6084L689.945 63.6114ZM680.647 69.0737L679.258 68.2578L676.056 70.1391L677.445 70.955L680.647 69.0737ZM682.102 62.9976L683.491 63.8135L686.89 61.8167L685.501 61.0008L682.102 62.9976ZM673.001 68.3443L674.39 69.1602L677.592 67.2789L676.204 66.4629L673.001 68.3443Z" fill="#7CE1C0"/>
<path d="M691.611 69.1596V76.3404L693 75.5243V68.3437L691.611 69.1596ZM689.944 77.3195V70.1388L688.555 70.9547V78.1355L689.944 77.3195ZM685.499 72.7498V79.9306L686.889 79.1146V71.9338L685.499 72.7498ZM679.112 79.1146L680.501 79.9305V72.75L679.112 71.9338V79.1146ZM677.445 70.9548V78.1354L676.056 77.3196V70.1388L677.445 70.9548ZM673.001 75.5243L674.39 76.3402V69.1596L673.001 68.3436V75.5243Z" fill="url(#paint2_linear_38_207)"/>
<path d="M681.055 70.7916L682.444 71.6075L683.703 70.8684L682.314 70.0525L681.055 70.7916ZM674.946 67.2021L676.335 68.018L677.593 67.2789L676.204 66.463L674.946 67.2021ZM678.001 68.9969L679.39 69.8128L680.648 69.0736L679.259 68.2578L678.001 68.9969Z" fill="#45C1A8"/>
<path d="M680.5 61L679.111 61.8159L691.611 69.1595L693 68.3436L680.5 61ZM677.445 62.7952L676.056 63.6111L688.555 70.9547L689.944 70.1388L677.445 62.7952ZM673 65.4062L685.499 72.7498L686.888 71.9339L674.389 64.5903L673 65.4062Z" fill="#A2EACF"/>
<path d="M372 107V88" stroke="#A3A3A3" stroke-width="2"/>
<path d="M645 107V88" stroke="#A3A3A3" stroke-width="2"/>
<path d="M100 107V88" stroke="#A3A3A3" stroke-width="2"/>
<path d="M564.5 69L554.5 63.2265V74.7735L564.5 69ZM452 69L462 74.7735V63.2265L452 69ZM555.5 69V68L461 68V69V70L555.5 70V69Z" fill="#A3A3A3"/>
<path d="M480.918 47V38.2727H486.185V39.2102H481.975V42.1591H485.912V43.0966H481.975V46.0625H486.253V47H480.918ZM488.959 43.0625V47H487.954V40.4545H488.925V41.4773H489.01C489.164 41.1449 489.397 40.8778 489.709 40.6761C490.022 40.4716 490.425 40.3693 490.92 40.3693C491.363 40.3693 491.751 40.4602 492.083 40.642C492.415 40.821 492.674 41.0938 492.858 41.4602C493.043 41.8239 493.135 42.2841 493.135 42.8409V47H492.13V42.9091C492.13 42.3949 491.996 41.9943 491.729 41.7074C491.462 41.4176 491.096 41.2727 490.63 41.2727C490.309 41.2727 490.022 41.3423 489.769 41.4815C489.519 41.6207 489.322 41.8239 489.177 42.0909C489.032 42.358 488.959 42.6818 488.959 43.0625ZM497.632 47.1364C497.019 47.1364 496.49 46.9915 496.047 46.7017C495.604 46.4119 495.263 46.0128 495.024 45.5043C494.786 44.9957 494.666 44.4148 494.666 43.7614C494.666 43.0966 494.789 42.5099 495.033 42.0014C495.28 41.4901 495.624 41.0909 496.064 40.804C496.507 40.5142 497.024 40.3693 497.615 40.3693C498.075 40.3693 498.49 40.4545 498.86 40.625C499.229 40.7955 499.531 41.0341 499.767 41.3409C500.003 41.6477 500.149 42.0057 500.206 42.4148H499.2C499.124 42.1165 498.953 41.8523 498.689 41.6222C498.428 41.3892 498.075 41.2727 497.632 41.2727C497.24 41.2727 496.896 41.375 496.601 41.5795C496.308 41.7812 496.08 42.0668 495.915 42.4361C495.753 42.8026 495.672 43.233 495.672 43.7273C495.672 44.233 495.752 44.6733 495.911 45.0483C496.073 45.4233 496.3 45.7145 496.593 45.9219C496.888 46.1293 497.235 46.233 497.632 46.233C497.894 46.233 498.131 46.1875 498.344 46.0966C498.557 46.0057 498.737 45.875 498.885 45.7045C499.033 45.5341 499.138 45.3295 499.2 45.0909H500.206C500.149 45.4773 500.009 45.8253 499.784 46.1349C499.563 46.4418 499.269 46.6861 498.902 46.8679C498.539 47.0469 498.115 47.1364 497.632 47.1364ZM501.676 47V40.4545H502.648V41.4432H502.716C502.835 41.1193 503.051 40.8565 503.364 40.6548C503.676 40.4531 504.029 40.3523 504.421 40.3523C504.494 40.3523 504.587 40.3537 504.698 40.3565C504.808 40.3594 504.892 40.3636 504.949 40.3693V41.392C504.915 41.3835 504.837 41.3707 504.715 41.3537C504.595 41.3338 504.469 41.3239 504.335 41.3239C504.017 41.3239 503.733 41.3906 503.483 41.5241C503.236 41.6548 503.04 41.8366 502.895 42.0696C502.753 42.2997 502.682 42.5625 502.682 42.858V47H501.676ZM506.988 49.4545C506.818 49.4545 506.666 49.4403 506.532 49.4119C506.399 49.3864 506.306 49.3608 506.255 49.3352L506.511 48.4489C506.755 48.5114 506.971 48.5341 507.159 48.517C507.346 48.5 507.512 48.4162 507.657 48.2656C507.805 48.1179 507.94 47.8778 508.062 47.5455L508.249 47.0341L505.829 40.4545H506.92L508.727 45.6705H508.795L510.602 40.4545H511.693L508.914 47.9545C508.789 48.2926 508.634 48.5724 508.45 48.794C508.265 49.0185 508.051 49.1847 507.806 49.2926C507.565 49.4006 507.292 49.4545 506.988 49.4545ZM513.02 49.4545V40.4545H513.992V41.4943H514.111C514.185 41.3807 514.287 41.2358 514.418 41.0597C514.551 40.8807 514.742 40.7216 514.989 40.5824C515.239 40.4403 515.577 40.3693 516.003 40.3693C516.554 40.3693 517.04 40.5071 517.46 40.7827C517.881 41.0582 518.209 41.4489 518.445 41.9545C518.681 42.4602 518.798 43.0568 518.798 43.7443C518.798 44.4375 518.681 45.0384 518.445 45.5469C518.209 46.0526 517.882 46.4446 517.465 46.723C517.047 46.9986 516.566 47.1364 516.02 47.1364C515.6 47.1364 515.263 47.0668 515.01 46.9276C514.757 46.7855 514.563 46.625 514.426 46.446C514.29 46.2642 514.185 46.1136 514.111 45.9943H514.026V49.4545H513.02ZM514.009 43.7273C514.009 44.2216 514.081 44.6577 514.226 45.0355C514.371 45.4105 514.583 45.7045 514.861 45.9176C515.139 46.1278 515.48 46.233 515.884 46.233C516.304 46.233 516.655 46.1222 516.936 45.9006C517.22 45.6761 517.433 45.375 517.575 44.9972C517.72 44.6165 517.793 44.1932 517.793 43.7273C517.793 43.267 517.722 42.8523 517.58 42.483C517.441 42.1108 517.229 41.8168 516.945 41.6009C516.664 41.3821 516.31 41.2727 515.884 41.2727C515.475 41.2727 515.131 41.3764 514.852 41.5838C514.574 41.7884 514.364 42.0753 514.222 42.4446C514.08 42.8111 514.009 43.2386 514.009 43.7273ZM523.179 40.4545V41.3068H519.787V40.4545H523.179ZM520.776 38.8864H521.781V45.125C521.781 45.4091 521.823 45.6222 521.905 45.7642C521.99 45.9034 522.098 45.9972 522.229 46.0455C522.362 46.0909 522.503 46.1136 522.651 46.1136C522.762 46.1136 522.852 46.108 522.923 46.0966C522.994 46.0824 523.051 46.071 523.094 46.0625L523.298 46.9659C523.23 46.9915 523.135 47.017 523.013 47.0426C522.891 47.071 522.736 47.0852 522.548 47.0852C522.264 47.0852 521.986 47.0241 521.713 46.902C521.443 46.7798 521.219 46.5938 521.04 46.3438C520.864 46.0938 520.776 45.7784 520.776 45.3977V38.8864ZM527.366 47.1364C526.735 47.1364 526.191 46.9972 525.734 46.7188C525.279 46.4375 524.928 46.0455 524.681 45.5426C524.437 45.0369 524.315 44.4489 524.315 43.7784C524.315 43.108 524.437 42.517 524.681 42.0057C524.928 41.4915 525.272 41.0909 525.713 40.804C526.156 40.5142 526.673 40.3693 527.264 40.3693C527.605 40.3693 527.941 40.4261 528.274 40.5398C528.606 40.6534 528.909 40.8381 529.181 41.0938C529.454 41.3466 529.671 41.6818 529.833 42.0994C529.995 42.517 530.076 43.0312 530.076 43.642V44.0682H525.031V43.1989H529.053C529.053 42.8295 528.98 42.5 528.832 42.2102C528.687 41.9205 528.48 41.6918 528.21 41.5241C527.943 41.3565 527.627 41.2727 527.264 41.2727C526.863 41.2727 526.517 41.3722 526.224 41.571C525.934 41.767 525.711 42.0227 525.555 42.3381C525.399 42.6534 525.32 42.9915 525.32 43.3523V43.9318C525.32 44.4261 525.406 44.8452 525.576 45.1889C525.749 45.5298 525.99 45.7898 526.296 45.9688C526.603 46.1449 526.96 46.233 527.366 46.233C527.63 46.233 527.869 46.196 528.082 46.1222C528.298 46.0455 528.484 45.9318 528.64 45.7812C528.796 45.6278 528.917 45.4375 529.002 45.2102L529.974 45.483C529.872 45.8125 529.7 46.1023 529.458 46.3523C529.217 46.5994 528.919 46.7926 528.563 46.9318C528.208 47.0682 527.809 47.1364 527.366 47.1364ZM534.078 47.1364C533.532 47.1364 533.051 46.9986 532.633 46.723C532.215 46.4446 531.889 46.0526 531.653 45.5469C531.417 45.0384 531.299 44.4375 531.299 43.7443C531.299 43.0568 531.417 42.4602 531.653 41.9545C531.889 41.4489 532.217 41.0582 532.637 40.7827C533.058 40.5071 533.544 40.3693 534.095 40.3693C534.521 40.3693 534.857 40.4403 535.105 40.5824C535.355 40.7216 535.545 40.8807 535.676 41.0597C535.809 41.2358 535.913 41.3807 535.987 41.4943H536.072V38.2727H537.078V47H536.106V45.9943H535.987C535.913 46.1136 535.808 46.2642 535.671 46.446C535.535 46.625 535.34 46.7855 535.088 46.9276C534.835 47.0668 534.498 47.1364 534.078 47.1364ZM534.214 46.233C534.617 46.233 534.958 46.1278 535.237 45.9176C535.515 45.7045 535.727 45.4105 535.872 45.0355C536.017 44.6577 536.089 44.2216 536.089 43.7273C536.089 43.2386 536.018 42.8111 535.876 42.4446C535.734 42.0753 535.524 41.7884 535.245 41.5838C534.967 41.3764 534.623 41.2727 534.214 41.2727C533.788 41.2727 533.433 41.3821 533.149 41.6009C532.867 41.8168 532.656 42.1108 532.514 42.483C532.374 42.8523 532.305 43.267 532.305 43.7273C532.305 44.1932 532.376 44.6165 532.518 44.9972C532.663 45.375 532.876 45.6761 533.157 45.9006C533.441 46.1222 533.794 46.233 534.214 46.233ZM495.874 55.4545V56.3068H492.482V55.4545H495.874ZM493.471 53.8864H494.477V60.125C494.477 60.4091 494.518 60.6222 494.6 60.7642C494.686 60.9034 494.794 60.9972 494.924 61.0455C495.058 61.0909 495.198 61.1136 495.346 61.1136C495.457 61.1136 495.548 61.108 495.619 61.0966C495.69 61.0824 495.747 61.071 495.789 61.0625L495.994 61.9659C495.926 61.9915 495.83 62.017 495.708 62.0426C495.586 62.071 495.431 62.0852 495.244 62.0852C494.96 62.0852 494.681 62.0241 494.409 61.902C494.139 61.7798 493.914 61.5938 493.735 61.3438C493.559 61.0938 493.471 60.7784 493.471 60.3977V53.8864ZM497.387 62V55.4545H498.359V56.4432H498.427C498.546 56.1193 498.762 55.8565 499.075 55.6548C499.387 55.4531 499.74 55.3523 500.132 55.3523C500.205 55.3523 500.298 55.3537 500.409 55.3565C500.519 55.3594 500.603 55.3636 500.66 55.3693V56.392C500.626 56.3835 500.548 56.3707 500.426 56.3537C500.306 56.3338 500.18 56.3239 500.046 56.3239C499.728 56.3239 499.444 56.3906 499.194 56.5241C498.947 56.6548 498.751 56.8366 498.606 57.0696C498.464 57.2997 498.393 57.5625 498.393 57.858V62H497.387ZM503.778 62.1534C503.363 62.1534 502.987 62.0753 502.649 61.919C502.311 61.7599 502.042 61.5312 501.844 61.233C501.645 60.9318 501.545 60.5682 501.545 60.142C501.545 59.767 501.619 59.4631 501.767 59.2301C501.915 58.9943 502.112 58.8097 502.359 58.6761C502.606 58.5426 502.879 58.4432 503.177 58.3778C503.479 58.3097 503.781 58.2557 504.085 58.2159C504.483 58.1648 504.805 58.1264 505.052 58.1009C505.302 58.0724 505.484 58.0256 505.598 57.9602C505.714 57.8949 505.773 57.7812 505.773 57.6193V57.5852C505.773 57.1648 505.657 56.8381 505.427 56.6051C505.2 56.3722 504.855 56.2557 504.392 56.2557C503.912 56.2557 503.535 56.3608 503.263 56.571C502.99 56.7812 502.798 57.0057 502.687 57.2443L501.733 56.9034C501.903 56.5057 502.131 56.196 502.415 55.9744C502.702 55.75 503.014 55.5937 503.352 55.5057C503.693 55.4148 504.028 55.3693 504.358 55.3693C504.568 55.3693 504.809 55.3949 505.082 55.446C505.358 55.4943 505.623 55.5952 505.879 55.7486C506.138 55.902 506.352 56.1335 506.523 56.4432C506.693 56.7528 506.778 57.1676 506.778 57.6875V62H505.773V61.1136H505.721C505.653 61.2557 505.54 61.4077 505.381 61.5696C505.221 61.7315 505.01 61.8693 504.746 61.983C504.481 62.0966 504.159 62.1534 503.778 62.1534ZM503.932 61.25C504.329 61.25 504.665 61.1719 504.937 61.0156C505.213 60.8594 505.42 60.6577 505.559 60.4105C505.702 60.1634 505.773 59.9034 505.773 59.6307V58.7102C505.73 58.7614 505.636 58.8082 505.491 58.8509C505.349 58.8906 505.184 58.9261 504.997 58.9574C504.812 58.9858 504.632 59.0114 504.456 59.0341C504.282 59.054 504.142 59.071 504.034 59.0852C503.773 59.1193 503.528 59.1747 503.301 59.2514C503.077 59.3253 502.895 59.4375 502.756 59.5881C502.619 59.7358 502.551 59.9375 502.551 60.1932C502.551 60.5426 502.68 60.8068 502.939 60.9858C503.2 61.1619 503.531 61.25 503.932 61.25ZM511.529 55.4545V56.3068H508V55.4545H511.529ZM509.057 62V54.5511C509.057 54.1761 509.145 53.8636 509.321 53.6136C509.497 53.3636 509.726 53.1761 510.007 53.0511C510.289 52.9261 510.585 52.8636 510.898 52.8636C511.145 52.8636 511.347 52.8835 511.503 52.9233C511.659 52.9631 511.776 53 511.852 53.0341L511.563 53.9034C511.512 53.8864 511.441 53.8651 511.35 53.8395C511.262 53.8139 511.145 53.8011 511 53.8011C510.668 53.8011 510.428 53.8849 510.28 54.0526C510.135 54.2202 510.063 54.4659 510.063 54.7898V62H509.057ZM515.853 55.4545V56.3068H512.324V55.4545H515.853ZM513.381 62V54.5511C513.381 54.1761 513.469 53.8636 513.645 53.6136C513.822 53.3636 514.05 53.1761 514.331 53.0511C514.613 52.9261 514.91 52.8636 515.222 52.8636C515.469 52.8636 515.671 52.8835 515.827 52.9233C515.983 52.9631 516.1 53 516.177 53.0341L515.887 53.9034C515.836 53.8864 515.765 53.8651 515.674 53.8395C515.586 53.8139 515.469 53.8011 515.324 53.8011C514.992 53.8011 514.752 53.8849 514.604 54.0526C514.459 54.2202 514.387 54.4659 514.387 54.7898V62H513.381ZM517.262 62V55.4545H518.268V62H517.262ZM517.774 54.3636C517.578 54.3636 517.409 54.2969 517.267 54.1634C517.127 54.0298 517.058 53.8693 517.058 53.6818C517.058 53.4943 517.127 53.3338 517.267 53.2003C517.409 53.0668 517.578 53 517.774 53C517.97 53 518.137 53.0668 518.276 53.2003C518.419 53.3338 518.49 53.4943 518.49 53.6818C518.49 53.8693 518.419 54.0298 518.276 54.1634C518.137 54.2969 517.97 54.3636 517.774 54.3636ZM522.769 62.1364C522.155 62.1364 521.627 61.9915 521.184 61.7017C520.741 61.4119 520.4 61.0128 520.161 60.5043C519.922 59.9957 519.803 59.4148 519.803 58.7614C519.803 58.0966 519.925 57.5099 520.17 57.0014C520.417 56.4901 520.76 56.0909 521.201 55.804C521.644 55.5142 522.161 55.3693 522.752 55.3693C523.212 55.3693 523.627 55.4545 523.996 55.625C524.366 55.7955 524.668 56.0341 524.904 56.3409C525.14 56.6477 525.286 57.0057 525.343 57.4148H524.337C524.26 57.1165 524.09 56.8523 523.826 56.6222C523.564 56.3892 523.212 56.2727 522.769 56.2727C522.377 56.2727 522.033 56.375 521.738 56.5795C521.445 56.7812 521.216 57.0668 521.052 57.4361C520.89 57.8026 520.809 58.233 520.809 58.7273C520.809 59.233 520.888 59.6733 521.047 60.0483C521.209 60.4233 521.437 60.7145 521.729 60.9219C522.025 61.1293 522.371 61.233 522.769 61.233C523.03 61.233 523.268 61.1875 523.481 61.0966C523.694 61.0057 523.874 60.875 524.022 60.7045C524.17 60.5341 524.275 60.3295 524.337 60.0909H525.343C525.286 60.4773 525.145 60.8253 524.921 61.1349C524.699 61.4418 524.405 61.6861 524.039 61.8679C523.675 62.0469 523.252 62.1364 522.769 62.1364Z" fill="#171717"/>
<path d="M291.5 70L281.5 64.2265V75.7735L291.5 70ZM179 70L189 75.7735V64.2265L179 70ZM282.5 70V69L188 69V70V71L282.5 71V70Z" fill="#A3A3A3"/>
<path d="M207.918 48V39.2727H213.185V40.2102H208.975V43.1591H212.912V44.0966H208.975V47.0625H213.253V48H207.918ZM215.959 44.0625V48H214.954V41.4545H215.925V42.4773H216.01C216.164 42.1449 216.397 41.8778 216.709 41.6761C217.022 41.4716 217.425 41.3693 217.92 41.3693C218.363 41.3693 218.751 41.4602 219.083 41.642C219.415 41.821 219.674 42.0938 219.858 42.4602C220.043 42.8239 220.135 43.2841 220.135 43.8409V48H219.13V43.9091C219.13 43.3949 218.996 42.9943 218.729 42.7074C218.462 42.4176 218.096 42.2727 217.63 42.2727C217.309 42.2727 217.022 42.3423 216.769 42.4815C216.519 42.6207 216.322 42.8239 216.177 43.0909C216.032 43.358 215.959 43.6818 215.959 44.0625ZM224.632 48.1364C224.019 48.1364 223.49 47.9915 223.047 47.7017C222.604 47.4119 222.263 47.0128 222.024 46.5043C221.786 45.9957 221.666 45.4148 221.666 44.7614C221.666 44.0966 221.789 43.5099 222.033 43.0014C222.28 42.4901 222.624 42.0909 223.064 41.804C223.507 41.5142 224.024 41.3693 224.615 41.3693C225.075 41.3693 225.49 41.4545 225.86 41.625C226.229 41.7955 226.531 42.0341 226.767 42.3409C227.003 42.6477 227.149 43.0057 227.206 43.4148H226.2C226.124 43.1165 225.953 42.8523 225.689 42.6222C225.428 42.3892 225.075 42.2727 224.632 42.2727C224.24 42.2727 223.896 42.375 223.601 42.5795C223.308 42.7812 223.08 43.0668 222.915 43.4361C222.753 43.8026 222.672 44.233 222.672 44.7273C222.672 45.233 222.752 45.6733 222.911 46.0483C223.073 46.4233 223.3 46.7145 223.593 46.9219C223.888 47.1293 224.235 47.233 224.632 47.233C224.894 47.233 225.131 47.1875 225.344 47.0966C225.557 47.0057 225.737 46.875 225.885 46.7045C226.033 46.5341 226.138 46.3295 226.2 46.0909H227.206C227.149 46.4773 227.009 46.8253 226.784 47.1349C226.563 47.4418 226.269 47.6861 225.902 47.8679C225.539 48.0469 225.115 48.1364 224.632 48.1364ZM228.676 48V41.4545H229.648V42.4432H229.716C229.835 42.1193 230.051 41.8565 230.364 41.6548C230.676 41.4531 231.029 41.3523 231.421 41.3523C231.494 41.3523 231.587 41.3537 231.698 41.3565C231.808 41.3594 231.892 41.3636 231.949 41.3693V42.392C231.915 42.3835 231.837 42.3707 231.715 42.3537C231.595 42.3338 231.469 42.3239 231.335 42.3239C231.017 42.3239 230.733 42.3906 230.483 42.5241C230.236 42.6548 230.04 42.8366 229.895 43.0696C229.753 43.2997 229.682 43.5625 229.682 43.858V48H228.676ZM233.988 50.4545C233.818 50.4545 233.666 50.4403 233.532 50.4119C233.399 50.3864 233.306 50.3608 233.255 50.3352L233.511 49.4489C233.755 49.5114 233.971 49.5341 234.159 49.517C234.346 49.5 234.512 49.4162 234.657 49.2656C234.805 49.1179 234.94 48.8778 235.062 48.5455L235.249 48.0341L232.829 41.4545H233.92L235.727 46.6705H235.795L237.602 41.4545H238.693L235.914 48.9545C235.789 49.2926 235.634 49.5724 235.45 49.794C235.265 50.0185 235.051 50.1847 234.806 50.2926C234.565 50.4006 234.292 50.4545 233.988 50.4545ZM240.02 50.4545V41.4545H240.992V42.4943H241.111C241.185 42.3807 241.287 42.2358 241.418 42.0597C241.551 41.8807 241.742 41.7216 241.989 41.5824C242.239 41.4403 242.577 41.3693 243.003 41.3693C243.554 41.3693 244.04 41.5071 244.46 41.7827C244.881 42.0582 245.209 42.4489 245.445 42.9545C245.681 43.4602 245.798 44.0568 245.798 44.7443C245.798 45.4375 245.681 46.0384 245.445 46.5469C245.209 47.0526 244.882 47.4446 244.465 47.723C244.047 47.9986 243.566 48.1364 243.02 48.1364C242.6 48.1364 242.263 48.0668 242.01 47.9276C241.757 47.7855 241.563 47.625 241.426 47.446C241.29 47.2642 241.185 47.1136 241.111 46.9943H241.026V50.4545H240.02ZM241.009 44.7273C241.009 45.2216 241.081 45.6577 241.226 46.0355C241.371 46.4105 241.583 46.7045 241.861 46.9176C242.139 47.1278 242.48 47.233 242.884 47.233C243.304 47.233 243.655 47.1222 243.936 46.9006C244.22 46.6761 244.433 46.375 244.575 45.9972C244.72 45.6165 244.793 45.1932 244.793 44.7273C244.793 44.267 244.722 43.8523 244.58 43.483C244.441 43.1108 244.229 42.8168 243.945 42.6009C243.664 42.3821 243.31 42.2727 242.884 42.2727C242.475 42.2727 242.131 42.3764 241.852 42.5838C241.574 42.7884 241.364 43.0753 241.222 43.4446C241.08 43.8111 241.009 44.2386 241.009 44.7273ZM250.179 41.4545V42.3068H246.787V41.4545H250.179ZM247.776 39.8864H248.781V46.125C248.781 46.4091 248.823 46.6222 248.905 46.7642C248.99 46.9034 249.098 46.9972 249.229 47.0455C249.362 47.0909 249.503 47.1136 249.651 47.1136C249.762 47.1136 249.852 47.108 249.923 47.0966C249.994 47.0824 250.051 47.071 250.094 47.0625L250.298 47.9659C250.23 47.9915 250.135 48.017 250.013 48.0426C249.891 48.071 249.736 48.0852 249.548 48.0852C249.264 48.0852 248.986 48.0241 248.713 47.902C248.443 47.7798 248.219 47.5938 248.04 47.3438C247.864 47.0938 247.776 46.7784 247.776 46.3977V39.8864ZM254.366 48.1364C253.735 48.1364 253.191 47.9972 252.734 47.7188C252.279 47.4375 251.928 47.0455 251.681 46.5426C251.437 46.0369 251.315 45.4489 251.315 44.7784C251.315 44.108 251.437 43.517 251.681 43.0057C251.928 42.4915 252.272 42.0909 252.713 41.804C253.156 41.5142 253.673 41.3693 254.264 41.3693C254.605 41.3693 254.941 41.4261 255.274 41.5398C255.606 41.6534 255.909 41.8381 256.181 42.0938C256.454 42.3466 256.671 42.6818 256.833 43.0994C256.995 43.517 257.076 44.0312 257.076 44.642V45.0682H252.031V44.1989H256.053C256.053 43.8295 255.98 43.5 255.832 43.2102C255.687 42.9205 255.48 42.6918 255.21 42.5241C254.943 42.3565 254.627 42.2727 254.264 42.2727C253.863 42.2727 253.517 42.3722 253.224 42.571C252.934 42.767 252.711 43.0227 252.555 43.3381C252.399 43.6534 252.32 43.9915 252.32 44.3523V44.9318C252.32 45.4261 252.406 45.8452 252.576 46.1889C252.749 46.5298 252.99 46.7898 253.296 46.9688C253.603 47.1449 253.96 47.233 254.366 47.233C254.63 47.233 254.869 47.196 255.082 47.1222C255.298 47.0455 255.484 46.9318 255.64 46.7812C255.796 46.6278 255.917 46.4375 256.002 46.2102L256.974 46.483C256.872 46.8125 256.7 47.1023 256.458 47.3523C256.217 47.5994 255.919 47.7926 255.563 47.9318C255.208 48.0682 254.809 48.1364 254.366 48.1364ZM261.078 48.1364C260.532 48.1364 260.051 47.9986 259.633 47.723C259.215 47.4446 258.889 47.0526 258.653 46.5469C258.417 46.0384 258.299 45.4375 258.299 44.7443C258.299 44.0568 258.417 43.4602 258.653 42.9545C258.889 42.4489 259.217 42.0582 259.637 41.7827C260.058 41.5071 260.544 41.3693 261.095 41.3693C261.521 41.3693 261.857 41.4403 262.105 41.5824C262.355 41.7216 262.545 41.8807 262.676 42.0597C262.809 42.2358 262.913 42.3807 262.987 42.4943H263.072V39.2727H264.078V48H263.106V46.9943H262.987C262.913 47.1136 262.808 47.2642 262.671 47.446C262.535 47.625 262.34 47.7855 262.088 47.9276C261.835 48.0668 261.498 48.1364 261.078 48.1364ZM261.214 47.233C261.617 47.233 261.958 47.1278 262.237 46.9176C262.515 46.7045 262.727 46.4105 262.872 46.0355C263.017 45.6577 263.089 45.2216 263.089 44.7273C263.089 44.2386 263.018 43.8111 262.876 43.4446C262.734 43.0753 262.524 42.7884 262.245 42.5838C261.967 42.3764 261.623 42.2727 261.214 42.2727C260.788 42.2727 260.433 42.3821 260.149 42.6009C259.867 42.8168 259.656 43.1108 259.514 43.483C259.374 43.8523 259.305 44.267 259.305 44.7273C259.305 45.1932 259.376 45.6165 259.518 45.9972C259.663 46.375 259.876 46.6761 260.157 46.9006C260.441 47.1222 260.794 47.233 261.214 47.233ZM222.874 56.4545V57.3068H219.482V56.4545H222.874ZM220.471 54.8864H221.477V61.125C221.477 61.4091 221.518 61.6222 221.6 61.7642C221.686 61.9034 221.794 61.9972 221.924 62.0455C222.058 62.0909 222.198 62.1136 222.346 62.1136C222.457 62.1136 222.548 62.108 222.619 62.0966C222.69 62.0824 222.747 62.071 222.789 62.0625L222.994 62.9659C222.926 62.9915 222.83 63.017 222.708 63.0426C222.586 63.071 222.431 63.0852 222.244 63.0852C221.96 63.0852 221.681 63.0241 221.409 62.902C221.139 62.7798 220.914 62.5938 220.735 62.3438C220.559 62.0938 220.471 61.7784 220.471 61.3977V54.8864ZM224.387 63V56.4545H225.359V57.4432H225.427C225.546 57.1193 225.762 56.8565 226.075 56.6548C226.387 56.4531 226.74 56.3523 227.132 56.3523C227.205 56.3523 227.298 56.3537 227.409 56.3565C227.519 56.3594 227.603 56.3636 227.66 56.3693V57.392C227.626 57.3835 227.548 57.3707 227.426 57.3537C227.306 57.3338 227.18 57.3239 227.046 57.3239C226.728 57.3239 226.444 57.3906 226.194 57.5241C225.947 57.6548 225.751 57.8366 225.606 58.0696C225.464 58.2997 225.393 58.5625 225.393 58.858V63H224.387ZM230.778 63.1534C230.363 63.1534 229.987 63.0753 229.649 62.919C229.311 62.7599 229.042 62.5312 228.844 62.233C228.645 61.9318 228.545 61.5682 228.545 61.142C228.545 60.767 228.619 60.4631 228.767 60.2301C228.915 59.9943 229.112 59.8097 229.359 59.6761C229.606 59.5426 229.879 59.4432 230.177 59.3778C230.479 59.3097 230.781 59.2557 231.085 59.2159C231.483 59.1648 231.805 59.1264 232.052 59.1009C232.302 59.0724 232.484 59.0256 232.598 58.9602C232.714 58.8949 232.773 58.7812 232.773 58.6193V58.5852C232.773 58.1648 232.657 57.8381 232.427 57.6051C232.2 57.3722 231.855 57.2557 231.392 57.2557C230.912 57.2557 230.535 57.3608 230.263 57.571C229.99 57.7812 229.798 58.0057 229.687 58.2443L228.733 57.9034C228.903 57.5057 229.131 57.196 229.415 56.9744C229.702 56.75 230.014 56.5937 230.352 56.5057C230.693 56.4148 231.028 56.3693 231.358 56.3693C231.568 56.3693 231.809 56.3949 232.082 56.446C232.358 56.4943 232.623 56.5952 232.879 56.7486C233.138 56.902 233.352 57.1335 233.523 57.4432C233.693 57.7528 233.778 58.1676 233.778 58.6875V63H232.773V62.1136H232.721C232.653 62.2557 232.54 62.4077 232.381 62.5696C232.221 62.7315 232.01 62.8693 231.746 62.983C231.481 63.0966 231.159 63.1534 230.778 63.1534ZM230.932 62.25C231.329 62.25 231.665 62.1719 231.937 62.0156C232.213 61.8594 232.42 61.6577 232.559 61.4105C232.702 61.1634 232.773 60.9034 232.773 60.6307V59.7102C232.73 59.7614 232.636 59.8082 232.491 59.8509C232.349 59.8906 232.184 59.9261 231.997 59.9574C231.812 59.9858 231.632 60.0114 231.456 60.0341C231.282 60.054 231.142 60.071 231.034 60.0852C230.773 60.1193 230.528 60.1747 230.301 60.2514C230.077 60.3253 229.895 60.4375 229.756 60.5881C229.619 60.7358 229.551 60.9375 229.551 61.1932C229.551 61.5426 229.68 61.8068 229.939 61.9858C230.2 62.1619 230.531 62.25 230.932 62.25ZM238.529 56.4545V57.3068H235V56.4545H238.529ZM236.057 63V55.5511C236.057 55.1761 236.145 54.8636 236.321 54.6136C236.497 54.3636 236.726 54.1761 237.007 54.0511C237.289 53.9261 237.585 53.8636 237.898 53.8636C238.145 53.8636 238.347 53.8835 238.503 53.9233C238.659 53.9631 238.776 54 238.852 54.0341L238.563 54.9034C238.512 54.8864 238.441 54.8651 238.35 54.8395C238.262 54.8139 238.145 54.8011 238 54.8011C237.668 54.8011 237.428 54.8849 237.28 55.0526C237.135 55.2202 237.063 55.4659 237.063 55.7898V63H236.057ZM242.853 56.4545V57.3068H239.324V56.4545H242.853ZM240.381 63V55.5511C240.381 55.1761 240.469 54.8636 240.645 54.6136C240.822 54.3636 241.05 54.1761 241.331 54.0511C241.613 53.9261 241.91 53.8636 242.222 53.8636C242.469 53.8636 242.671 53.8835 242.827 53.9233C242.983 53.9631 243.1 54 243.177 54.0341L242.887 54.9034C242.836 54.8864 242.765 54.8651 242.674 54.8395C242.586 54.8139 242.469 54.8011 242.324 54.8011C241.992 54.8011 241.752 54.8849 241.604 55.0526C241.459 55.2202 241.387 55.4659 241.387 55.7898V63H240.381ZM244.262 63V56.4545H245.268V63H244.262ZM244.774 55.3636C244.578 55.3636 244.409 55.2969 244.267 55.1634C244.127 55.0298 244.058 54.8693 244.058 54.6818C244.058 54.4943 244.127 54.3338 244.267 54.2003C244.409 54.0668 244.578 54 244.774 54C244.97 54 245.137 54.0668 245.276 54.2003C245.419 54.3338 245.49 54.4943 245.49 54.6818C245.49 54.8693 245.419 55.0298 245.276 55.1634C245.137 55.2969 244.97 55.3636 244.774 55.3636ZM249.769 63.1364C249.155 63.1364 248.627 62.9915 248.184 62.7017C247.741 62.4119 247.4 62.0128 247.161 61.5043C246.922 60.9957 246.803 60.4148 246.803 59.7614C246.803 59.0966 246.925 58.5099 247.17 58.0014C247.417 57.4901 247.76 57.0909 248.201 56.804C248.644 56.5142 249.161 56.3693 249.752 56.3693C250.212 56.3693 250.627 56.4545 250.996 56.625C251.366 56.7955 251.668 57.0341 251.904 57.3409C252.14 57.6477 252.286 58.0057 252.343 58.4148H251.337C251.26 58.1165 251.09 57.8523 250.826 57.6222C250.564 57.3892 250.212 57.2727 249.769 57.2727C249.377 57.2727 249.033 57.375 248.738 57.5795C248.445 57.7812 248.216 58.0668 248.052 58.4361C247.89 58.8026 247.809 59.233 247.809 59.7273C247.809 60.233 247.888 60.6733 248.047 61.0483C248.209 61.4233 248.437 61.7145 248.729 61.9219C249.025 62.1293 249.371 62.233 249.769 62.233C250.03 62.233 250.268 62.1875 250.481 62.0966C250.694 62.0057 250.874 61.875 251.022 61.7045C251.17 61.5341 251.275 61.3295 251.337 61.0909H252.343C252.286 61.4773 252.145 61.8253 251.921 62.1349C251.699 62.4418 251.405 62.6861 251.039 62.8679C250.675 63.0469 250.252 63.1364 249.769 63.1364Z" fill="#171717"/>
<defs>
<linearGradient id="paint0_linear_38_207" x1="410" y1="68.3436" x2="410" y2="79.9306" gradientUnits="userSpaceOnUse">
<stop stop-color="#4AD8AC"/>
<stop offset="1" stop-color="#4076C4"/>
</linearGradient>
<linearGradient id="paint1_linear_38_207" x1="136" y1="68.3436" x2="136" y2="79.9306" gradientUnits="userSpaceOnUse">
<stop stop-color="#4AD8AC"/>
<stop offset="1" stop-color="#4076C4"/>
</linearGradient>
<linearGradient id="paint2_linear_38_207" x1="683" y1="68.3436" x2="683" y2="79.9306" gradientUnits="userSpaceOnUse">
<stop stop-color="#4AD8AC"/>
<stop offset="1" stop-color="#4076C4"/>
</linearGradient>
</defs>
</svg>
