<svg xmlns="http://www.w3.org/2000/svg" viewBox="0 0 1600 900" width="1600" height="900">
  <defs>
    <linearGradient id="bg" x1="0%" y1="0%" x2="100%" y2="100%">
      <stop offset="0%" stop-color="#0a0f10"/>
      <stop offset="100%" stop-color="#1a1f20"/>
    </linearGradient>
    <radialGradient id="glow" cx="50%" cy="50%" r="55%">
      <stop offset="0%" stop-color="#ffffff" stop-opacity="0.06"/>
      <stop offset="100%" stop-color="#ffffff" stop-opacity="0"/>
    </radialGradient>
  </defs>

  <rect width="1600" height="900" fill="url(#bg)"/>
  <ellipse cx="800" cy="450" rx="800" ry="500" fill="url(#glow)"/>

  <g stroke="#ffffff" stroke-opacity="0.18" stroke-width="1.2" fill="none">
    <line x1="400" y1="280" x2="640" y2="450"/>
    <line x1="400" y1="280" x2="800" y2="280"/>
    <line x1="800" y1="280" x2="1200" y2="280"/>
    <line x1="800" y1="280" x2="960" y2="450"/>
    <line x1="1200" y1="280" x2="960" y2="450"/>
    <line x1="640" y1="450" x2="960" y2="450"/>
    <line x1="640" y1="450" x2="500" y2="620"/>
    <line x1="960" y1="450" x2="1100" y2="620"/>
    <line x1="500" y1="620" x2="1100" y2="620"/>
    <line x1="500" y1="620" x2="800" y2="720"/>
    <line x1="1100" y1="620" x2="800" y2="720"/>
  </g>

  <g stroke="#ffffff" stroke-opacity="0.35" stroke-width="1.2" fill="none">
    <circle cx="400" cy="280" r="20"/>
    <circle cx="800" cy="280" r="20"/>
    <circle cx="1200" cy="280" r="20"/>
    <circle cx="640" cy="450" r="20"/>
    <circle cx="960" cy="450" r="20"/>
    <circle cx="500" cy="620" r="20"/>
    <circle cx="1100" cy="620" r="20"/>
    <circle cx="800" cy="720" r="20"/>
  </g>

  <g fill="#ffffff" fill-opacity="0.85">
    <circle cx="400" cy="280" r="8"/>
    <circle cx="800" cy="280" r="8"/>
    <circle cx="1200" cy="280" r="8"/>
    <circle cx="640" cy="450" r="8"/>
    <circle cx="960" cy="450" r="8"/>
    <circle cx="500" cy="620" r="8"/>
    <circle cx="1100" cy="620" r="8"/>
    <circle cx="800" cy="720" r="8"/>
  </g>

  <text x="100" y="820" font-family="'Noto Sans JP', system-ui, -apple-system, sans-serif" font-weight="800" font-size="48" fill="#ffffff" letter-spacing="-1">Linkerd</text>
  <text x="100" y="865" font-family="'Noto Sans JP', system-ui, -apple-system, sans-serif" font-weight="400" font-size="20" fill="#a3a3a3" letter-spacing="2">TODEA · CLOUD NATIVE ENGINEERING</text>
</svg>
