<svg width="742" height="168" viewBox="0 0 742 168" fill="none" xmlns="http://www.w3.org/2000/svg">
<rect x="0.5" y="0.5" width="467" height="167" rx="18.5" fill="white" stroke="#D4D4D4"/>
<path d="M237.124 14.372C237.052 14.532 236.984 14.708 236.92 14.9C236.856 15.092 236.796 15.264 236.74 15.416C236.588 15.848 236.404 16.324 236.188 16.844C235.972 17.356 235.728 17.864 235.456 18.368C235.184 18.872 234.88 19.344 234.544 19.784C234.184 20.24 233.76 20.684 233.272 21.116C232.784 21.548 232.264 21.944 231.712 22.304C231.16 22.664 230.596 22.964 230.02 23.204L229.18 22.328C229.78 22.12 230.356 21.856 230.908 21.536C231.46 21.208 231.976 20.84 232.456 20.432C232.936 20.024 233.356 19.596 233.716 19.148C234.092 18.684 234.428 18.168 234.724 17.6C235.02 17.032 235.276 16.444 235.492 15.836C235.708 15.228 235.872 14.636 235.984 14.06L237.124 14.372ZM240.724 17.804C240.844 17.812 240.992 17.824 241.168 17.84C241.344 17.848 241.536 17.856 241.744 17.864C241.96 17.864 242.176 17.864 242.392 17.864C242.52 17.864 242.716 17.864 242.98 17.864C243.252 17.864 243.568 17.864 243.928 17.864C244.288 17.864 244.668 17.864 245.068 17.864C245.476 17.864 245.88 17.864 246.28 17.864C246.688 17.864 247.072 17.864 247.432 17.864C247.8 17.864 248.116 17.864 248.38 17.864C248.644 17.864 248.84 17.864 248.968 17.864C249.272 17.864 249.532 17.856 249.748 17.84C249.964 17.824 250.136 17.812 250.264 17.804V18.98C250.144 18.972 249.964 18.96 249.724 18.944C249.492 18.928 249.244 18.92 248.98 18.92C248.852 18.92 248.652 18.92 248.38 18.92C248.108 18.92 247.792 18.92 247.432 18.92C247.08 18.92 246.7 18.92 246.292 18.92C245.884 18.92 245.476 18.92 245.068 18.92C244.668 18.92 244.288 18.92 243.928 18.92C243.576 18.92 243.264 18.92 242.992 18.92C242.72 18.92 242.52 18.92 242.392 18.92C242.064 18.92 241.752 18.928 241.456 18.944C241.16 18.952 240.916 18.964 240.724 18.98V17.804ZM259.372 14.36C259.476 14.504 259.596 14.684 259.732 14.9C259.868 15.108 260 15.324 260.128 15.548C260.264 15.772 260.376 15.98 260.464 16.172L259.78 16.484C259.684 16.276 259.576 16.068 259.456 15.86C259.344 15.644 259.224 15.436 259.096 15.236C258.976 15.028 258.848 14.836 258.712 14.66L259.372 14.36ZM260.824 13.76C260.928 13.896 261.048 14.068 261.184 14.276C261.328 14.484 261.468 14.7 261.604 14.924C261.74 15.148 261.856 15.352 261.952 15.536L261.28 15.872C261.176 15.664 261.064 15.456 260.944 15.248C260.824 15.04 260.696 14.836 260.56 14.636C260.432 14.436 260.3 14.248 260.164 14.072L260.824 13.76ZM255.16 22.1C255.16 21.988 255.16 21.764 255.16 21.428C255.16 21.092 255.16 20.692 255.16 20.228C255.16 19.756 255.16 19.26 255.16 18.74C255.16 18.22 255.16 17.716 255.16 17.228C255.16 16.74 255.16 16.308 255.16 15.932C255.16 15.556 255.16 15.284 255.16 15.116C255.16 14.948 255.152 14.744 255.136 14.504C255.128 14.264 255.104 14.052 255.064 13.868H256.252C256.228 14.052 256.208 14.264 256.192 14.504C256.176 14.736 256.168 14.94 256.168 15.116C256.168 15.428 256.168 15.804 256.168 16.244C256.168 16.676 256.168 17.14 256.168 17.636C256.168 18.124 256.168 18.612 256.168 19.1C256.168 19.58 256.168 20.032 256.168 20.456C256.168 20.872 256.168 21.228 256.168 21.524C256.168 21.812 256.168 22.004 256.168 22.1C256.168 22.22 256.168 22.368 256.168 22.544C256.176 22.72 256.188 22.892 256.204 23.06C256.22 23.236 256.232 23.388 256.24 23.516H255.088C255.112 23.324 255.128 23.096 255.136 22.832C255.152 22.568 255.16 22.324 255.16 22.1ZM255.952 17.012C256.344 17.132 256.78 17.276 257.26 17.444C257.74 17.604 258.224 17.776 258.712 17.96C259.208 18.144 259.676 18.332 260.116 18.524C260.564 18.708 260.956 18.884 261.292 19.052L260.872 20.072C260.528 19.888 260.14 19.7 259.708 19.508C259.284 19.316 258.844 19.128 258.388 18.944C257.932 18.76 257.492 18.596 257.068 18.452C256.652 18.308 256.28 18.184 255.952 18.08V17.012Z" fill="#171717"/>
<rect x="281.5" y="37.5" width="180" height="117" rx="18.5" fill="white" stroke="#D4D4D4"/>
<mask id="path-4-outside-1_38_338" maskUnits="userSpaceOnUse" x="291" y="106" width="162" height="39" fill="black">
<rect fill="white" x="291" y="106" width="162" height="39"/>
<path d="M292 125.5C292 115.283 300.283 107 310.5 107H433.5C443.717 107 452 115.283 452 125.5C452 135.717 443.717 144 433.5 144H310.5C300.283 144 292 135.717 292 125.5Z"/>
</mask>
<path d="M292 125.5C292 115.283 300.283 107 310.5 107H433.5C443.717 107 452 115.283 452 125.5C452 135.717 443.717 144 433.5 144H310.5C300.283 144 292 135.717 292 125.5Z" fill="#F7F7F7"/>
<path d="M292 125.5M452 125.5M452 125.5M292 125.5M310.5 107V108H433.5V107V106H310.5V107ZM452 125.5M433.5 144V143H310.5V144V145H433.5V144ZM292 125.5M310.5 144V143C300.835 143 293 135.165 293 125.5H292H291C291 136.27 299.73 145 310.5 145V144ZM452 125.5H451C451 135.165 443.165 143 433.5 143V144V145C444.27 145 453 136.27 453 125.5H452ZM433.5 107V108C443.165 108 451 115.835 451 125.5H452H453C453 114.73 444.27 106 433.5 106V107ZM310.5 107V106C299.73 106 291 114.73 291 125.5H292H293C293 115.835 300.835 108 310.5 108V107Z" fill="#D4D4D4" mask="url(#path-4-outside-1_38_338)"/>
<path d="M433.5 50.75C443.855 50.75 452.25 59.1447 452.25 69.5C452.25 79.8553 443.855 88.25 433.5 88.25H310.5C300.145 88.25 291.75 79.8553 291.75 69.5C291.75 59.1447 300.145 50.75 310.5 50.75H433.5Z" fill="#F7F7F7" stroke="#D4D4D4" stroke-width="0.5"/>
<path d="M357.16 65.384C357.16 65.6 357.236 65.788 357.388 65.948C357.548 66.1 357.736 66.176 357.952 66.176C358.176 66.176 358.364 66.1 358.516 65.948C358.676 65.788 358.756 65.6 358.756 65.384C358.756 65.16 358.676 64.972 358.516 64.82C358.364 64.66 358.176 64.58 357.952 64.58C357.736 64.58 357.548 64.66 357.388 64.82C357.236 64.972 357.16 65.16 357.16 65.384ZM356.608 65.384C356.608 65.136 356.668 64.912 356.788 64.712C356.916 64.504 357.08 64.34 357.28 64.22C357.48 64.092 357.704 64.028 357.952 64.028C358.2 64.028 358.424 64.092 358.624 64.22C358.832 64.34 358.996 64.504 359.116 64.712C359.244 64.912 359.308 65.136 359.308 65.384C359.308 65.632 359.244 65.856 359.116 66.056C358.996 66.256 358.832 66.42 358.624 66.548C358.424 66.668 358.2 66.728 357.952 66.728C357.704 66.728 357.48 66.668 357.28 66.548C357.08 66.42 356.916 66.256 356.788 66.056C356.668 65.856 356.608 65.632 356.608 65.384ZM357.652 66.188C357.612 66.268 357.576 66.36 357.544 66.464C357.52 66.56 357.496 66.668 357.472 66.788C357.408 67.1 357.324 67.448 357.22 67.832C357.116 68.216 356.988 68.612 356.836 69.02C356.692 69.42 356.524 69.808 356.332 70.184C356.14 70.56 355.924 70.904 355.684 71.216C355.316 71.68 354.908 72.112 354.46 72.512C354.012 72.912 353.5 73.272 352.924 73.592C352.348 73.912 351.692 74.188 350.956 74.42L350.14 73.52C350.924 73.328 351.6 73.088 352.168 72.8C352.744 72.512 353.248 72.188 353.68 71.828C354.112 71.46 354.492 71.064 354.82 70.64C355.108 70.272 355.356 69.86 355.564 69.404C355.78 68.94 355.96 68.476 356.104 68.012C356.248 67.54 356.344 67.112 356.392 66.728C356.28 66.728 356.068 66.728 355.756 66.728C355.444 66.728 355.076 66.728 354.652 66.728C354.228 66.728 353.784 66.728 353.32 66.728C352.864 66.728 352.424 66.728 352 66.728C351.576 66.728 351.208 66.728 350.896 66.728C350.584 66.728 350.372 66.728 350.26 66.728C350.02 66.728 349.8 66.732 349.6 66.74C349.4 66.748 349.22 66.756 349.06 66.764V65.696C349.172 65.712 349.296 65.728 349.432 65.744C349.568 65.752 349.708 65.76 349.852 65.768C349.996 65.776 350.132 65.78 350.26 65.78C350.356 65.78 350.528 65.78 350.776 65.78C351.024 65.78 351.316 65.78 351.652 65.78C351.996 65.78 352.36 65.78 352.744 65.78C353.136 65.78 353.52 65.78 353.896 65.78C354.28 65.78 354.636 65.78 354.964 65.78C355.3 65.78 355.584 65.78 355.816 65.78C356.048 65.78 356.204 65.78 356.284 65.78C356.372 65.78 356.472 65.776 356.584 65.768C356.696 65.76 356.808 65.744 356.92 65.72L357.652 66.188ZM361.252 65.78C361.492 65.788 361.696 65.796 361.864 65.804C362.032 65.804 362.184 65.804 362.32 65.804C362.416 65.804 362.592 65.804 362.848 65.804C363.104 65.804 363.412 65.804 363.772 65.804C364.14 65.804 364.532 65.804 364.948 65.804C365.364 65.804 365.776 65.804 366.184 65.804C366.6 65.804 366.988 65.804 367.348 65.804C367.708 65.804 368.012 65.804 368.26 65.804C368.508 65.804 368.676 65.804 368.764 65.804C368.892 65.804 369.052 65.804 369.244 65.804C369.444 65.796 369.636 65.788 369.82 65.78C369.812 65.924 369.804 66.08 369.796 66.248C369.796 66.408 369.796 66.564 369.796 66.716C369.796 66.796 369.796 66.956 369.796 67.196C369.796 67.428 369.796 67.712 369.796 68.048C369.796 68.384 369.796 68.748 369.796 69.14C369.796 69.524 369.796 69.908 369.796 70.292C369.796 70.676 369.796 71.032 369.796 71.36C369.796 71.688 369.796 71.968 369.796 72.2C369.796 72.424 369.796 72.568 369.796 72.632C369.796 72.72 369.796 72.84 369.796 72.992C369.796 73.144 369.796 73.296 369.796 73.448C369.804 73.6 369.808 73.736 369.808 73.856C369.816 73.968 369.82 74.044 369.82 74.084H368.788C368.788 74.036 368.788 73.94 368.788 73.796C368.796 73.644 368.8 73.476 368.8 73.292C368.808 73.1 368.812 72.92 368.812 72.752C368.812 72.696 368.812 72.544 368.812 72.296C368.812 72.048 368.812 71.744 368.812 71.384C368.812 71.016 368.812 70.624 368.812 70.208C368.812 69.784 368.812 69.372 368.812 68.972C368.812 68.564 368.812 68.192 368.812 67.856C368.812 67.52 368.812 67.252 368.812 67.052C368.812 66.852 368.812 66.752 368.812 66.752H362.248C362.248 66.752 362.248 66.852 362.248 67.052C362.248 67.244 362.248 67.508 362.248 67.844C362.248 68.18 362.248 68.552 362.248 68.96C362.248 69.36 362.248 69.768 362.248 70.184C362.248 70.6 362.248 70.992 362.248 71.36C362.248 71.72 362.248 72.024 362.248 72.272C362.248 72.52 362.248 72.68 362.248 72.752C362.248 72.856 362.248 72.976 362.248 73.112C362.248 73.248 362.248 73.384 362.248 73.52C362.256 73.648 362.26 73.764 362.26 73.868C362.268 73.972 362.272 74.044 362.272 74.084H361.24C361.24 74.044 361.24 73.968 361.24 73.856C361.248 73.736 361.252 73.6 361.252 73.448C361.26 73.296 361.264 73.148 361.264 73.004C361.264 72.852 361.264 72.724 361.264 72.62C361.264 72.556 361.264 72.408 361.264 72.176C361.264 71.944 361.264 71.66 361.264 71.324C361.264 70.988 361.264 70.628 361.264 70.244C361.264 69.852 361.264 69.464 361.264 69.08C361.264 68.688 361.264 68.328 361.264 68C361.264 67.664 361.264 67.384 361.264 67.16C361.264 66.928 361.264 66.78 361.264 66.716C361.264 66.572 361.264 66.416 361.264 66.248C361.264 66.08 361.26 65.924 361.252 65.78ZM369.196 72.452V73.388H361.78V72.452H369.196ZM376.204 65.516C376.172 65.364 376.136 65.22 376.096 65.084C376.064 64.948 376.024 64.82 375.976 64.7L377.056 64.508C377.064 64.62 377.08 64.756 377.104 64.916C377.128 65.068 377.148 65.208 377.164 65.336C377.18 65.416 377.216 65.604 377.272 65.9C377.328 66.188 377.396 66.552 377.476 66.992C377.564 67.432 377.66 67.908 377.764 68.42C377.868 68.932 377.972 69.448 378.076 69.968C378.18 70.488 378.276 70.976 378.364 71.432C378.452 71.888 378.528 72.276 378.592 72.596C378.664 72.916 378.712 73.132 378.736 73.244C378.776 73.42 378.82 73.604 378.868 73.796C378.916 73.988 378.968 74.168 379.024 74.336L377.932 74.54C377.9 74.34 377.872 74.148 377.848 73.964C377.824 73.772 377.792 73.588 377.752 73.412C377.736 73.308 377.696 73.1 377.632 72.788C377.576 72.468 377.504 72.084 377.416 71.636C377.328 71.188 377.232 70.708 377.128 70.196C377.024 69.676 376.92 69.16 376.816 68.648C376.72 68.136 376.628 67.66 376.54 67.22C376.452 66.78 376.376 66.408 376.312 66.104C376.256 65.8 376.22 65.604 376.204 65.516ZM372.82 67.244C372.964 67.236 373.116 67.228 373.276 67.22C373.444 67.204 373.624 67.184 373.816 67.16C374 67.136 374.256 67.104 374.584 67.064C374.912 67.016 375.28 66.964 375.688 66.908C376.104 66.844 376.532 66.776 376.972 66.704C377.42 66.632 377.852 66.564 378.268 66.5C378.684 66.428 379.06 66.364 379.396 66.308C379.732 66.252 379.996 66.204 380.188 66.164C380.364 66.132 380.524 66.1 380.668 66.068C380.82 66.028 380.944 65.992 381.04 65.96L381.244 66.98C381.156 66.988 381.028 67.004 380.86 67.028C380.7 67.044 380.54 67.064 380.38 67.088C380.172 67.12 379.896 67.164 379.552 67.22C379.208 67.276 378.824 67.34 378.4 67.412C377.984 67.476 377.556 67.544 377.116 67.616C376.676 67.68 376.248 67.748 375.832 67.82C375.424 67.884 375.06 67.944 374.74 68C374.42 68.048 374.172 68.088 373.996 68.12C373.828 68.144 373.668 68.172 373.516 68.204C373.372 68.236 373.208 68.276 373.024 68.324L372.82 67.244ZM372.784 70.712C372.928 70.704 373.1 70.692 373.3 70.676C373.5 70.652 373.68 70.628 373.84 70.604C374.056 70.58 374.344 70.54 374.704 70.484C375.072 70.428 375.484 70.364 375.94 70.292C376.404 70.212 376.88 70.132 377.368 70.052C377.864 69.972 378.344 69.892 378.808 69.812C379.272 69.732 379.696 69.66 380.08 69.596C380.472 69.524 380.784 69.468 381.016 69.428C381.248 69.388 381.452 69.348 381.628 69.308C381.804 69.268 381.956 69.232 382.084 69.2L382.276 70.208C382.156 70.216 382 70.236 381.808 70.268C381.624 70.292 381.42 70.324 381.196 70.364C380.932 70.404 380.6 70.456 380.2 70.52C379.808 70.584 379.38 70.656 378.916 70.736C378.452 70.808 377.976 70.884 377.488 70.964C377.008 71.036 376.544 71.112 376.096 71.192C375.648 71.264 375.248 71.332 374.896 71.396C374.544 71.452 374.264 71.5 374.056 71.54C373.824 71.58 373.62 71.616 373.444 71.648C373.276 71.68 373.128 71.716 373 71.756L372.784 70.712ZM387.112 64.784C387.288 64.88 387.496 65.004 387.736 65.156C387.976 65.308 388.224 65.468 388.48 65.636C388.736 65.804 388.972 65.964 389.188 66.116C389.412 66.26 389.588 66.38 389.716 66.476L389.152 67.292C389.008 67.188 388.828 67.06 388.612 66.908C388.396 66.756 388.164 66.6 387.916 66.44C387.668 66.272 387.424 66.116 387.184 65.972C386.952 65.82 386.748 65.692 386.572 65.588L387.112 64.784ZM385.312 73.364C385.752 73.284 386.204 73.18 386.668 73.052C387.132 72.916 387.592 72.76 388.048 72.584C388.504 72.4 388.932 72.192 389.332 71.96C389.996 71.576 390.612 71.152 391.18 70.688C391.748 70.224 392.26 69.728 392.716 69.2C393.172 68.672 393.56 68.128 393.88 67.568L394.456 68.552C393.936 69.36 393.276 70.136 392.476 70.88C391.684 71.624 390.808 72.28 389.848 72.848C389.44 73.08 388.996 73.296 388.516 73.496C388.044 73.688 387.576 73.856 387.112 74C386.656 74.144 386.24 74.256 385.864 74.336L385.312 73.364ZM385.3 67.484C385.476 67.572 385.688 67.692 385.936 67.844C386.184 67.988 386.436 68.14 386.692 68.3C386.948 68.452 387.188 68.6 387.412 68.744C387.636 68.888 387.812 69.008 387.94 69.104L387.388 69.944C387.236 69.832 387.048 69.704 386.824 69.56C386.608 69.408 386.376 69.256 386.128 69.104C385.88 68.944 385.636 68.792 385.396 68.648C385.156 68.504 384.948 68.388 384.772 68.3L385.3 67.484Z" fill="#171717"/>
<path d="M418.611 72.2538L420 73.0697V65.4061L418.611 64.5899V72.2538ZM400 65.4062V73.0702L401.389 72.2539V64.5902L400 65.4062ZM406.112 79.1146L407.501 79.9305L410.808 77.9876L409.419 77.1717L406.112 79.1146Z" fill="#40A0B4"/>
<path d="M408.056 77.9724L409.445 78.7884L410.808 77.9876L409.419 77.1718L408.056 77.9724Z" fill="#338090"/>
<path d="M413.194 76.7479V75.116L407.214 71.6026L406.806 71.8425L406.806 71.8429V72.9951L413.194 76.7479ZM406.806 76.5854L412.5 79.9305L413.889 79.1147L406.806 74.9534V76.5854Z" fill="#45C1A8"/>
<path d="M415.212 66.5871L416.601 67.403L420 65.4061L418.61 64.5904L415.212 66.5871ZM410.702 70.8684L409.313 70.0525L406.111 71.9339L407.5 72.7498L410.702 70.8684ZM416.945 63.6114L415.555 62.7954L412.157 64.7923L413.546 65.6084L416.945 63.6114ZM407.648 69.0737L406.259 68.2578L403.056 70.1391L404.445 70.955L407.648 69.0737ZM409.102 62.9976L410.491 63.8135L413.89 61.8167L412.501 61.0008L409.102 62.9976ZM400.002 68.3443L401.39 69.1602L404.593 67.2789L403.204 66.4629L400.002 68.3443Z" fill="#7CE1C0"/>
<path d="M418.611 69.1596V76.3404L420 75.5244V68.3438L418.611 69.1596ZM416.944 77.3195V70.1388L415.555 70.9547V78.1355L416.944 77.3195ZM412.499 72.7498V79.9306L413.889 79.1146V71.9338L412.499 72.7498ZM406.112 79.1146L407.501 79.9305V72.75L406.112 71.9339V79.1146ZM404.445 70.9548V78.1354L403.056 77.3196V70.1388L404.445 70.9548ZM400.001 75.5244L401.39 76.3402V69.1596L400.001 68.3436V75.5244Z" fill="url(#paint0_linear_38_338)"/>
<path d="M408.055 70.7916L409.444 71.6075L410.702 70.8684L409.314 70.0525L408.055 70.7916ZM401.946 67.2021L403.335 68.018L404.593 67.2789L403.204 66.463L401.946 67.2021ZM405.001 68.9969L406.389 69.8128L407.647 69.0736L406.259 68.2578L405.001 68.9969Z" fill="#45C1A8"/>
<path d="M407.5 61L406.111 61.8159L418.611 69.1595L420 68.3436L407.5 61ZM404.445 62.7952L403.056 63.6111L415.555 70.9547L416.944 70.1388L404.445 62.7952ZM400 65.4062L412.499 72.7498L413.888 71.9339L401.389 64.5903L400 65.4062Z" fill="#A2EACF"/>
<rect x="7.5" y="37.5" width="180" height="117" rx="18.5" fill="white" stroke="#D4D4D4"/>
<mask id="path-16-outside-2_38_338" maskUnits="userSpaceOnUse" x="17" y="106" width="162" height="39" fill="black">
<rect fill="white" x="17" y="106" width="162" height="39"/>
<path d="M18 125.5C18 115.283 26.2827 107 36.5 107H159.5C169.717 107 178 115.283 178 125.5C178 135.717 169.717 144 159.5 144H36.5C26.2827 144 18 135.717 18 125.5Z"/>
</mask>
<path d="M18 125.5C18 115.283 26.2827 107 36.5 107H159.5C169.717 107 178 115.283 178 125.5C178 135.717 169.717 144 159.5 144H36.5C26.2827 144 18 135.717 18 125.5Z" fill="#F7F7F7"/>
<path d="M18 125.5M178 125.5M178 125.5M18 125.5M36.5 107V108H159.5V107V106H36.5V107ZM178 125.5M159.5 144V143H36.5V144V145H159.5V144ZM18 125.5M36.5 144V143C26.835 143 19 135.165 19 125.5H18H17C17 136.27 25.7305 145 36.5 145V144ZM178 125.5H177C177 135.165 169.165 143 159.5 143V144V145C170.27 145 179 136.27 179 125.5H178ZM159.5 107V108C169.165 108 177 115.835 177 125.5H178H179C179 114.73 170.27 106 159.5 106V107ZM36.5 107V106C25.7304 106 17 114.73 17 125.5H18H19C19 115.835 26.835 108 36.5 108V107Z" fill="#D4D4D4" mask="url(#path-16-outside-2_38_338)"/>
<path d="M159.5 50.75C169.855 50.75 178.25 59.1447 178.25 69.5C178.25 79.8553 169.855 88.25 159.5 88.25H36.5C26.1447 88.25 17.75 79.8553 17.75 69.5C17.75 59.1447 26.1447 50.75 36.5 50.75H159.5Z" fill="#F7F7F7" stroke="#D4D4D4" stroke-width="0.5"/>
<path d="M83.16 65.384C83.16 65.6 83.236 65.788 83.388 65.948C83.548 66.1 83.736 66.176 83.952 66.176C84.176 66.176 84.364 66.1 84.516 65.948C84.676 65.788 84.756 65.6 84.756 65.384C84.756 65.16 84.676 64.972 84.516 64.82C84.364 64.66 84.176 64.58 83.952 64.58C83.736 64.58 83.548 64.66 83.388 64.82C83.236 64.972 83.16 65.16 83.16 65.384ZM82.608 65.384C82.608 65.136 82.668 64.912 82.788 64.712C82.916 64.504 83.08 64.34 83.28 64.22C83.48 64.092 83.704 64.028 83.952 64.028C84.2 64.028 84.424 64.092 84.624 64.22C84.832 64.34 84.996 64.504 85.116 64.712C85.244 64.912 85.308 65.136 85.308 65.384C85.308 65.632 85.244 65.856 85.116 66.056C84.996 66.256 84.832 66.42 84.624 66.548C84.424 66.668 84.2 66.728 83.952 66.728C83.704 66.728 83.48 66.668 83.28 66.548C83.08 66.42 82.916 66.256 82.788 66.056C82.668 65.856 82.608 65.632 82.608 65.384ZM83.652 66.188C83.612 66.268 83.576 66.36 83.544 66.464C83.52 66.56 83.496 66.668 83.472 66.788C83.408 67.1 83.324 67.448 83.22 67.832C83.116 68.216 82.988 68.612 82.836 69.02C82.692 69.42 82.524 69.808 82.332 70.184C82.14 70.56 81.924 70.904 81.684 71.216C81.316 71.68 80.908 72.112 80.46 72.512C80.012 72.912 79.5 73.272 78.924 73.592C78.348 73.912 77.692 74.188 76.956 74.42L76.14 73.52C76.924 73.328 77.6 73.088 78.168 72.8C78.744 72.512 79.248 72.188 79.68 71.828C80.112 71.46 80.492 71.064 80.82 70.64C81.108 70.272 81.356 69.86 81.564 69.404C81.78 68.94 81.96 68.476 82.104 68.012C82.248 67.54 82.344 67.112 82.392 66.728C82.28 66.728 82.068 66.728 81.756 66.728C81.444 66.728 81.076 66.728 80.652 66.728C80.228 66.728 79.784 66.728 79.32 66.728C78.864 66.728 78.424 66.728 78 66.728C77.576 66.728 77.208 66.728 76.896 66.728C76.584 66.728 76.372 66.728 76.26 66.728C76.02 66.728 75.8 66.732 75.6 66.74C75.4 66.748 75.22 66.756 75.06 66.764V65.696C75.172 65.712 75.296 65.728 75.432 65.744C75.568 65.752 75.708 65.76 75.852 65.768C75.996 65.776 76.132 65.78 76.26 65.78C76.356 65.78 76.528 65.78 76.776 65.78C77.024 65.78 77.316 65.78 77.652 65.78C77.996 65.78 78.36 65.78 78.744 65.78C79.136 65.78 79.52 65.78 79.896 65.78C80.28 65.78 80.636 65.78 80.964 65.78C81.3 65.78 81.584 65.78 81.816 65.78C82.048 65.78 82.204 65.78 82.284 65.78C82.372 65.78 82.472 65.776 82.584 65.768C82.696 65.76 82.808 65.744 82.92 65.72L83.652 66.188ZM87.252 65.78C87.492 65.788 87.696 65.796 87.864 65.804C88.032 65.804 88.184 65.804 88.32 65.804C88.416 65.804 88.592 65.804 88.848 65.804C89.104 65.804 89.412 65.804 89.772 65.804C90.14 65.804 90.532 65.804 90.948 65.804C91.364 65.804 91.776 65.804 92.184 65.804C92.6 65.804 92.988 65.804 93.348 65.804C93.708 65.804 94.012 65.804 94.26 65.804C94.508 65.804 94.676 65.804 94.764 65.804C94.892 65.804 95.052 65.804 95.244 65.804C95.444 65.796 95.636 65.788 95.82 65.78C95.812 65.924 95.804 66.08 95.796 66.248C95.796 66.408 95.796 66.564 95.796 66.716C95.796 66.796 95.796 66.956 95.796 67.196C95.796 67.428 95.796 67.712 95.796 68.048C95.796 68.384 95.796 68.748 95.796 69.14C95.796 69.524 95.796 69.908 95.796 70.292C95.796 70.676 95.796 71.032 95.796 71.36C95.796 71.688 95.796 71.968 95.796 72.2C95.796 72.424 95.796 72.568 95.796 72.632C95.796 72.72 95.796 72.84 95.796 72.992C95.796 73.144 95.796 73.296 95.796 73.448C95.804 73.6 95.808 73.736 95.808 73.856C95.816 73.968 95.82 74.044 95.82 74.084H94.788C94.788 74.036 94.788 73.94 94.788 73.796C94.796 73.644 94.8 73.476 94.8 73.292C94.808 73.1 94.812 72.92 94.812 72.752C94.812 72.696 94.812 72.544 94.812 72.296C94.812 72.048 94.812 71.744 94.812 71.384C94.812 71.016 94.812 70.624 94.812 70.208C94.812 69.784 94.812 69.372 94.812 68.972C94.812 68.564 94.812 68.192 94.812 67.856C94.812 67.52 94.812 67.252 94.812 67.052C94.812 66.852 94.812 66.752 94.812 66.752H88.248C88.248 66.752 88.248 66.852 88.248 67.052C88.248 67.244 88.248 67.508 88.248 67.844C88.248 68.18 88.248 68.552 88.248 68.96C88.248 69.36 88.248 69.768 88.248 70.184C88.248 70.6 88.248 70.992 88.248 71.36C88.248 71.72 88.248 72.024 88.248 72.272C88.248 72.52 88.248 72.68 88.248 72.752C88.248 72.856 88.248 72.976 88.248 73.112C88.248 73.248 88.248 73.384 88.248 73.52C88.256 73.648 88.26 73.764 88.26 73.868C88.268 73.972 88.272 74.044 88.272 74.084H87.24C87.24 74.044 87.24 73.968 87.24 73.856C87.248 73.736 87.252 73.6 87.252 73.448C87.26 73.296 87.264 73.148 87.264 73.004C87.264 72.852 87.264 72.724 87.264 72.62C87.264 72.556 87.264 72.408 87.264 72.176C87.264 71.944 87.264 71.66 87.264 71.324C87.264 70.988 87.264 70.628 87.264 70.244C87.264 69.852 87.264 69.464 87.264 69.08C87.264 68.688 87.264 68.328 87.264 68C87.264 67.664 87.264 67.384 87.264 67.16C87.264 66.928 87.264 66.78 87.264 66.716C87.264 66.572 87.264 66.416 87.264 66.248C87.264 66.08 87.26 65.924 87.252 65.78ZM95.196 72.452V73.388H87.78V72.452H95.196ZM102.204 65.516C102.172 65.364 102.136 65.22 102.096 65.084C102.064 64.948 102.024 64.82 101.976 64.7L103.056 64.508C103.064 64.62 103.08 64.756 103.104 64.916C103.128 65.068 103.148 65.208 103.164 65.336C103.18 65.416 103.216 65.604 103.272 65.9C103.328 66.188 103.396 66.552 103.476 66.992C103.564 67.432 103.66 67.908 103.764 68.42C103.868 68.932 103.972 69.448 104.076 69.968C104.18 70.488 104.276 70.976 104.364 71.432C104.452 71.888 104.528 72.276 104.592 72.596C104.664 72.916 104.712 73.132 104.736 73.244C104.776 73.42 104.82 73.604 104.868 73.796C104.916 73.988 104.968 74.168 105.024 74.336L103.932 74.54C103.9 74.34 103.872 74.148 103.848 73.964C103.824 73.772 103.792 73.588 103.752 73.412C103.736 73.308 103.696 73.1 103.632 72.788C103.576 72.468 103.504 72.084 103.416 71.636C103.328 71.188 103.232 70.708 103.128 70.196C103.024 69.676 102.92 69.16 102.816 68.648C102.72 68.136 102.628 67.66 102.54 67.22C102.452 66.78 102.376 66.408 102.312 66.104C102.256 65.8 102.22 65.604 102.204 65.516ZM98.82 67.244C98.964 67.236 99.116 67.228 99.276 67.22C99.444 67.204 99.624 67.184 99.816 67.16C100 67.136 100.256 67.104 100.584 67.064C100.912 67.016 101.28 66.964 101.688 66.908C102.104 66.844 102.532 66.776 102.972 66.704C103.42 66.632 103.852 66.564 104.268 66.5C104.684 66.428 105.06 66.364 105.396 66.308C105.732 66.252 105.996 66.204 106.188 66.164C106.364 66.132 106.524 66.1 106.668 66.068C106.82 66.028 106.944 65.992 107.04 65.96L107.244 66.98C107.156 66.988 107.028 67.004 106.86 67.028C106.7 67.044 106.54 67.064 106.38 67.088C106.172 67.12 105.896 67.164 105.552 67.22C105.208 67.276 104.824 67.34 104.4 67.412C103.984 67.476 103.556 67.544 103.116 67.616C102.676 67.68 102.248 67.748 101.832 67.82C101.424 67.884 101.06 67.944 100.74 68C100.42 68.048 100.172 68.088 99.996 68.12C99.828 68.144 99.668 68.172 99.516 68.204C99.372 68.236 99.208 68.276 99.024 68.324L98.82 67.244ZM98.784 70.712C98.928 70.704 99.1 70.692 99.3 70.676C99.5 70.652 99.68 70.628 99.84 70.604C100.056 70.58 100.344 70.54 100.704 70.484C101.072 70.428 101.484 70.364 101.94 70.292C102.404 70.212 102.88 70.132 103.368 70.052C103.864 69.972 104.344 69.892 104.808 69.812C105.272 69.732 105.696 69.66 106.08 69.596C106.472 69.524 106.784 69.468 107.016 69.428C107.248 69.388 107.452 69.348 107.628 69.308C107.804 69.268 107.956 69.232 108.084 69.2L108.276 70.208C108.156 70.216 108 70.236 107.808 70.268C107.624 70.292 107.42 70.324 107.196 70.364C106.932 70.404 106.6 70.456 106.2 70.52C105.808 70.584 105.38 70.656 104.916 70.736C104.452 70.808 103.976 70.884 103.488 70.964C103.008 71.036 102.544 71.112 102.096 71.192C101.648 71.264 101.248 71.332 100.896 71.396C100.544 71.452 100.264 71.5 100.056 71.54C99.824 71.58 99.62 71.616 99.444 71.648C99.276 71.68 99.128 71.716 99 71.756L98.784 70.712ZM113.112 64.784C113.288 64.88 113.496 65.004 113.736 65.156C113.976 65.308 114.224 65.468 114.48 65.636C114.736 65.804 114.972 65.964 115.188 66.116C115.412 66.26 115.588 66.38 115.716 66.476L115.152 67.292C115.008 67.188 114.828 67.06 114.612 66.908C114.396 66.756 114.164 66.6 113.916 66.44C113.668 66.272 113.424 66.116 113.184 65.972C112.952 65.82 112.748 65.692 112.572 65.588L113.112 64.784ZM111.312 73.364C111.752 73.284 112.204 73.18 112.668 73.052C113.132 72.916 113.592 72.76 114.048 72.584C114.504 72.4 114.932 72.192 115.332 71.96C115.996 71.576 116.612 71.152 117.18 70.688C117.748 70.224 118.26 69.728 118.716 69.2C119.172 68.672 119.56 68.128 119.88 67.568L120.456 68.552C119.936 69.36 119.276 70.136 118.476 70.88C117.684 71.624 116.808 72.28 115.848 72.848C115.44 73.08 114.996 73.296 114.516 73.496C114.044 73.688 113.576 73.856 113.112 74C112.656 74.144 112.24 74.256 111.864 74.336L111.312 73.364ZM111.3 67.484C111.476 67.572 111.688 67.692 111.936 67.844C112.184 67.988 112.436 68.14 112.692 68.3C112.948 68.452 113.188 68.6 113.412 68.744C113.636 68.888 113.812 69.008 113.94 69.104L113.388 69.944C113.236 69.832 113.048 69.704 112.824 69.56C112.608 69.408 112.376 69.256 112.128 69.104C111.88 68.944 111.636 68.792 111.396 68.648C111.156 68.504 110.948 68.388 110.772 68.3L111.3 67.484Z" fill="#171717"/>
<path d="M144.611 72.2538L146 73.0697V65.4061L144.611 64.5899V72.2538ZM126 65.4062V73.0702L127.389 72.2539V64.5902L126 65.4062ZM132.112 79.1146L133.501 79.9305L136.808 77.9876L135.419 77.1717L132.112 79.1146Z" fill="#40A0B4"/>
<path d="M134.056 77.9724L135.445 78.7884L136.808 77.9876L135.419 77.1718L134.056 77.9724Z" fill="#338090"/>
<path d="M139.194 76.7479V75.116L133.214 71.6026L132.806 71.8425L132.806 71.8429V72.9951L139.194 76.7479ZM132.806 76.5854L138.5 79.9305L139.889 79.1147L132.806 74.9534V76.5854Z" fill="#45C1A8"/>
<path d="M141.212 66.5871L142.601 67.403L146 65.4061L144.61 64.5904L141.212 66.5871ZM136.702 70.8684L135.313 70.0525L132.111 71.9339L133.5 72.7498L136.702 70.8684ZM142.945 63.6114L141.555 62.7954L138.157 64.7923L139.546 65.6084L142.945 63.6114ZM133.648 69.0737L132.259 68.2578L129.056 70.1391L130.445 70.955L133.648 69.0737ZM135.102 62.9976L136.491 63.8135L139.89 61.8167L138.501 61.0008L135.102 62.9976ZM126.002 68.3443L127.39 69.1602L130.593 67.2789L129.204 66.4629L126.002 68.3443Z" fill="#7CE1C0"/>
<path d="M144.611 69.1596V76.3404L146 75.5244V68.3438L144.611 69.1596ZM142.944 77.3195V70.1388L141.555 70.9547V78.1355L142.944 77.3195ZM138.499 72.7498V79.9306L139.889 79.1146V71.9338L138.499 72.7498ZM132.112 79.1146L133.501 79.9305V72.75L132.112 71.9339V79.1146ZM130.445 70.9548V78.1354L129.056 77.3196V70.1388L130.445 70.9548ZM126.001 75.5244L127.39 76.3402V69.1596L126.001 68.3436V75.5244Z" fill="url(#paint1_linear_38_338)"/>
<path d="M134.055 70.7916L135.444 71.6075L136.702 70.8684L135.314 70.0525L134.055 70.7916ZM127.946 67.2021L129.335 68.018L130.593 67.2789L129.204 66.463L127.946 67.2021ZM131.001 68.9969L132.389 69.8128L133.647 69.0736L132.259 68.2578L131.001 68.9969Z" fill="#45C1A8"/>
<path d="M133.5 61L132.111 61.8159L144.611 69.1595L146 68.3436L133.5 61ZM130.445 62.7952L129.056 63.6111L141.555 70.9547L142.944 70.1388L130.445 62.7952ZM126 65.4062L138.499 72.7498L139.888 71.9339L127.389 64.5903L126 65.4062Z" fill="#A2EACF"/>
<rect x="548.5" y="0.5" width="193" height="167" rx="18.5" fill="white" stroke="#D4D4D4"/>
<path d="M636.124 14.372C636.052 14.532 635.984 14.708 635.92 14.9C635.856 15.092 635.796 15.264 635.74 15.416C635.588 15.848 635.404 16.324 635.188 16.844C634.972 17.356 634.728 17.864 634.456 18.368C634.184 18.872 633.88 19.344 633.544 19.784C633.184 20.24 632.76 20.684 632.272 21.116C631.784 21.548 631.264 21.944 630.712 22.304C630.16 22.664 629.596 22.964 629.02 23.204L628.18 22.328C628.78 22.12 629.356 21.856 629.908 21.536C630.46 21.208 630.976 20.84 631.456 20.432C631.936 20.024 632.356 19.596 632.716 19.148C633.092 18.684 633.428 18.168 633.724 17.6C634.02 17.032 634.276 16.444 634.492 15.836C634.708 15.228 634.872 14.636 634.984 14.06L636.124 14.372ZM639.724 17.804C639.844 17.812 639.992 17.824 640.168 17.84C640.344 17.848 640.536 17.856 640.744 17.864C640.96 17.864 641.176 17.864 641.392 17.864C641.52 17.864 641.716 17.864 641.98 17.864C642.252 17.864 642.568 17.864 642.928 17.864C643.288 17.864 643.668 17.864 644.068 17.864C644.476 17.864 644.88 17.864 645.28 17.864C645.688 17.864 646.072 17.864 646.432 17.864C646.8 17.864 647.116 17.864 647.38 17.864C647.644 17.864 647.84 17.864 647.968 17.864C648.272 17.864 648.532 17.856 648.748 17.84C648.964 17.824 649.136 17.812 649.264 17.804V18.98C649.144 18.972 648.964 18.96 648.724 18.944C648.492 18.928 648.244 18.92 647.98 18.92C647.852 18.92 647.652 18.92 647.38 18.92C647.108 18.92 646.792 18.92 646.432 18.92C646.08 18.92 645.7 18.92 645.292 18.92C644.884 18.92 644.476 18.92 644.068 18.92C643.668 18.92 643.288 18.92 642.928 18.92C642.576 18.92 642.264 18.92 641.992 18.92C641.72 18.92 641.52 18.92 641.392 18.92C641.064 18.92 640.752 18.928 640.456 18.944C640.16 18.952 639.916 18.964 639.724 18.98V17.804ZM658.372 14.36C658.476 14.504 658.596 14.684 658.732 14.9C658.868 15.108 659 15.324 659.128 15.548C659.264 15.772 659.376 15.98 659.464 16.172L658.78 16.484C658.684 16.276 658.576 16.068 658.456 15.86C658.344 15.644 658.224 15.436 658.096 15.236C657.976 15.028 657.848 14.836 657.712 14.66L658.372 14.36ZM659.824 13.76C659.928 13.896 660.048 14.068 660.184 14.276C660.328 14.484 660.468 14.7 660.604 14.924C660.74 15.148 660.856 15.352 660.952 15.536L660.28 15.872C660.176 15.664 660.064 15.456 659.944 15.248C659.824 15.04 659.696 14.836 659.56 14.636C659.432 14.436 659.3 14.248 659.164 14.072L659.824 13.76ZM654.16 22.1C654.16 21.988 654.16 21.764 654.16 21.428C654.16 21.092 654.16 20.692 654.16 20.228C654.16 19.756 654.16 19.26 654.16 18.74C654.16 18.22 654.16 17.716 654.16 17.228C654.16 16.74 654.16 16.308 654.16 15.932C654.16 15.556 654.16 15.284 654.16 15.116C654.16 14.948 654.152 14.744 654.136 14.504C654.128 14.264 654.104 14.052 654.064 13.868H655.252C655.228 14.052 655.208 14.264 655.192 14.504C655.176 14.736 655.168 14.94 655.168 15.116C655.168 15.428 655.168 15.804 655.168 16.244C655.168 16.676 655.168 17.14 655.168 17.636C655.168 18.124 655.168 18.612 655.168 19.1C655.168 19.58 655.168 20.032 655.168 20.456C655.168 20.872 655.168 21.228 655.168 21.524C655.168 21.812 655.168 22.004 655.168 22.1C655.168 22.22 655.168 22.368 655.168 22.544C655.176 22.72 655.188 22.892 655.204 23.06C655.22 23.236 655.232 23.388 655.24 23.516H654.088C654.112 23.324 654.128 23.096 654.136 22.832C654.152 22.568 654.16 22.324 654.16 22.1ZM654.952 17.012C655.344 17.132 655.78 17.276 656.26 17.444C656.74 17.604 657.224 17.776 657.712 17.96C658.208 18.144 658.676 18.332 659.116 18.524C659.564 18.708 659.956 18.884 660.292 19.052L659.872 20.072C659.528 19.888 659.14 19.7 658.708 19.508C658.284 19.316 657.844 19.128 657.388 18.944C656.932 18.76 656.492 18.596 656.068 18.452C655.652 18.308 655.28 18.184 654.952 18.08V17.012Z" fill="#171717"/>
<rect x="554.5" y="37.5" width="180" height="117" rx="18.5" fill="white" stroke="#D4D4D4"/>
<path d="M706.5 50.75C716.855 50.75 725.25 59.1447 725.25 69.5C725.25 79.8553 716.855 88.25 706.5 88.25H583.5C573.145 88.25 564.75 79.8553 564.75 69.5C564.75 59.1447 573.145 50.75 583.5 50.75H706.5Z" fill="#F7F7F7" stroke="#D4D4D4" stroke-width="0.5"/>
<mask id="path-31-outside-3_38_338" maskUnits="userSpaceOnUse" x="564" y="106" width="162" height="39" fill="black">
<rect fill="white" x="564" y="106" width="162" height="39"/>
<path d="M565 125.5C565 115.283 573.283 107 583.5 107H706.5C716.717 107 725 115.283 725 125.5C725 135.717 716.717 144 706.5 144H583.5C573.283 144 565 135.717 565 125.5Z"/>
</mask>
<path d="M565 125.5C565 115.283 573.283 107 583.5 107H706.5C716.717 107 725 115.283 725 125.5C725 135.717 716.717 144 706.5 144H583.5C573.283 144 565 135.717 565 125.5Z" fill="#F7F7F7"/>
<path d="M565 125.5M725 125.5M725 125.5M565 125.5M583.5 107V108H706.5V107V106H583.5V107ZM725 125.5M706.5 144V143H583.5V144V145H706.5V144ZM565 125.5M583.5 144V143C573.835 143 566 135.165 566 125.5H565H564C564 136.27 572.73 145 583.5 145V144ZM725 125.5H724C724 135.165 716.165 143 706.5 143V144V145C717.27 145 726 136.27 726 125.5H725ZM706.5 107V108C716.165 108 724 115.835 724 125.5H725H726C726 114.73 717.27 106 706.5 106V107ZM583.5 107V106C572.73 106 564 114.73 564 125.5H565H566C566 115.835 573.835 108 583.5 108V107Z" fill="#D4D4D4" mask="url(#path-31-outside-3_38_338)"/>
<path d="M630.16 65.384C630.16 65.6 630.236 65.788 630.388 65.948C630.548 66.1 630.736 66.176 630.952 66.176C631.176 66.176 631.364 66.1 631.516 65.948C631.676 65.788 631.756 65.6 631.756 65.384C631.756 65.16 631.676 64.972 631.516 64.82C631.364 64.66 631.176 64.58 630.952 64.58C630.736 64.58 630.548 64.66 630.388 64.82C630.236 64.972 630.16 65.16 630.16 65.384ZM629.608 65.384C629.608 65.136 629.668 64.912 629.788 64.712C629.916 64.504 630.08 64.34 630.28 64.22C630.48 64.092 630.704 64.028 630.952 64.028C631.2 64.028 631.424 64.092 631.624 64.22C631.832 64.34 631.996 64.504 632.116 64.712C632.244 64.912 632.308 65.136 632.308 65.384C632.308 65.632 632.244 65.856 632.116 66.056C631.996 66.256 631.832 66.42 631.624 66.548C631.424 66.668 631.2 66.728 630.952 66.728C630.704 66.728 630.48 66.668 630.28 66.548C630.08 66.42 629.916 66.256 629.788 66.056C629.668 65.856 629.608 65.632 629.608 65.384ZM630.652 66.188C630.612 66.268 630.576 66.36 630.544 66.464C630.52 66.56 630.496 66.668 630.472 66.788C630.408 67.1 630.324 67.448 630.22 67.832C630.116 68.216 629.988 68.612 629.836 69.02C629.692 69.42 629.524 69.808 629.332 70.184C629.14 70.56 628.924 70.904 628.684 71.216C628.316 71.68 627.908 72.112 627.46 72.512C627.012 72.912 626.5 73.272 625.924 73.592C625.348 73.912 624.692 74.188 623.956 74.42L623.14 73.52C623.924 73.328 624.6 73.088 625.168 72.8C625.744 72.512 626.248 72.188 626.68 71.828C627.112 71.46 627.492 71.064 627.82 70.64C628.108 70.272 628.356 69.86 628.564 69.404C628.78 68.94 628.96 68.476 629.104 68.012C629.248 67.54 629.344 67.112 629.392 66.728C629.28 66.728 629.068 66.728 628.756 66.728C628.444 66.728 628.076 66.728 627.652 66.728C627.228 66.728 626.784 66.728 626.32 66.728C625.864 66.728 625.424 66.728 625 66.728C624.576 66.728 624.208 66.728 623.896 66.728C623.584 66.728 623.372 66.728 623.26 66.728C623.02 66.728 622.8 66.732 622.6 66.74C622.4 66.748 622.22 66.756 622.06 66.764V65.696C622.172 65.712 622.296 65.728 622.432 65.744C622.568 65.752 622.708 65.76 622.852 65.768C622.996 65.776 623.132 65.78 623.26 65.78C623.356 65.78 623.528 65.78 623.776 65.78C624.024 65.78 624.316 65.78 624.652 65.78C624.996 65.78 625.36 65.78 625.744 65.78C626.136 65.78 626.52 65.78 626.896 65.78C627.28 65.78 627.636 65.78 627.964 65.78C628.3 65.78 628.584 65.78 628.816 65.78C629.048 65.78 629.204 65.78 629.284 65.78C629.372 65.78 629.472 65.776 629.584 65.768C629.696 65.76 629.808 65.744 629.92 65.72L630.652 66.188ZM634.252 65.78C634.492 65.788 634.696 65.796 634.864 65.804C635.032 65.804 635.184 65.804 635.32 65.804C635.416 65.804 635.592 65.804 635.848 65.804C636.104 65.804 636.412 65.804 636.772 65.804C637.14 65.804 637.532 65.804 637.948 65.804C638.364 65.804 638.776 65.804 639.184 65.804C639.6 65.804 639.988 65.804 640.348 65.804C640.708 65.804 641.012 65.804 641.26 65.804C641.508 65.804 641.676 65.804 641.764 65.804C641.892 65.804 642.052 65.804 642.244 65.804C642.444 65.796 642.636 65.788 642.82 65.78C642.812 65.924 642.804 66.08 642.796 66.248C642.796 66.408 642.796 66.564 642.796 66.716C642.796 66.796 642.796 66.956 642.796 67.196C642.796 67.428 642.796 67.712 642.796 68.048C642.796 68.384 642.796 68.748 642.796 69.14C642.796 69.524 642.796 69.908 642.796 70.292C642.796 70.676 642.796 71.032 642.796 71.36C642.796 71.688 642.796 71.968 642.796 72.2C642.796 72.424 642.796 72.568 642.796 72.632C642.796 72.72 642.796 72.84 642.796 72.992C642.796 73.144 642.796 73.296 642.796 73.448C642.804 73.6 642.808 73.736 642.808 73.856C642.816 73.968 642.82 74.044 642.82 74.084H641.788C641.788 74.036 641.788 73.94 641.788 73.796C641.796 73.644 641.8 73.476 641.8 73.292C641.808 73.1 641.812 72.92 641.812 72.752C641.812 72.696 641.812 72.544 641.812 72.296C641.812 72.048 641.812 71.744 641.812 71.384C641.812 71.016 641.812 70.624 641.812 70.208C641.812 69.784 641.812 69.372 641.812 68.972C641.812 68.564 641.812 68.192 641.812 67.856C641.812 67.52 641.812 67.252 641.812 67.052C641.812 66.852 641.812 66.752 641.812 66.752H635.248C635.248 66.752 635.248 66.852 635.248 67.052C635.248 67.244 635.248 67.508 635.248 67.844C635.248 68.18 635.248 68.552 635.248 68.96C635.248 69.36 635.248 69.768 635.248 70.184C635.248 70.6 635.248 70.992 635.248 71.36C635.248 71.72 635.248 72.024 635.248 72.272C635.248 72.52 635.248 72.68 635.248 72.752C635.248 72.856 635.248 72.976 635.248 73.112C635.248 73.248 635.248 73.384 635.248 73.52C635.256 73.648 635.26 73.764 635.26 73.868C635.268 73.972 635.272 74.044 635.272 74.084H634.24C634.24 74.044 634.24 73.968 634.24 73.856C634.248 73.736 634.252 73.6 634.252 73.448C634.26 73.296 634.264 73.148 634.264 73.004C634.264 72.852 634.264 72.724 634.264 72.62C634.264 72.556 634.264 72.408 634.264 72.176C634.264 71.944 634.264 71.66 634.264 71.324C634.264 70.988 634.264 70.628 634.264 70.244C634.264 69.852 634.264 69.464 634.264 69.08C634.264 68.688 634.264 68.328 634.264 68C634.264 67.664 634.264 67.384 634.264 67.16C634.264 66.928 634.264 66.78 634.264 66.716C634.264 66.572 634.264 66.416 634.264 66.248C634.264 66.08 634.26 65.924 634.252 65.78ZM642.196 72.452V73.388H634.78V72.452H642.196ZM649.204 65.516C649.172 65.364 649.136 65.22 649.096 65.084C649.064 64.948 649.024 64.82 648.976 64.7L650.056 64.508C650.064 64.62 650.08 64.756 650.104 64.916C650.128 65.068 650.148 65.208 650.164 65.336C650.18 65.416 650.216 65.604 650.272 65.9C650.328 66.188 650.396 66.552 650.476 66.992C650.564 67.432 650.66 67.908 650.764 68.42C650.868 68.932 650.972 69.448 651.076 69.968C651.18 70.488 651.276 70.976 651.364 71.432C651.452 71.888 651.528 72.276 651.592 72.596C651.664 72.916 651.712 73.132 651.736 73.244C651.776 73.42 651.82 73.604 651.868 73.796C651.916 73.988 651.968 74.168 652.024 74.336L650.932 74.54C650.9 74.34 650.872 74.148 650.848 73.964C650.824 73.772 650.792 73.588 650.752 73.412C650.736 73.308 650.696 73.1 650.632 72.788C650.576 72.468 650.504 72.084 650.416 71.636C650.328 71.188 650.232 70.708 650.128 70.196C650.024 69.676 649.92 69.16 649.816 68.648C649.72 68.136 649.628 67.66 649.54 67.22C649.452 66.78 649.376 66.408 649.312 66.104C649.256 65.8 649.22 65.604 649.204 65.516ZM645.82 67.244C645.964 67.236 646.116 67.228 646.276 67.22C646.444 67.204 646.624 67.184 646.816 67.16C647 67.136 647.256 67.104 647.584 67.064C647.912 67.016 648.28 66.964 648.688 66.908C649.104 66.844 649.532 66.776 649.972 66.704C650.42 66.632 650.852 66.564 651.268 66.5C651.684 66.428 652.06 66.364 652.396 66.308C652.732 66.252 652.996 66.204 653.188 66.164C653.364 66.132 653.524 66.1 653.668 66.068C653.82 66.028 653.944 65.992 654.04 65.96L654.244 66.98C654.156 66.988 654.028 67.004 653.86 67.028C653.7 67.044 653.54 67.064 653.38 67.088C653.172 67.12 652.896 67.164 652.552 67.22C652.208 67.276 651.824 67.34 651.4 67.412C650.984 67.476 650.556 67.544 650.116 67.616C649.676 67.68 649.248 67.748 648.832 67.82C648.424 67.884 648.06 67.944 647.74 68C647.42 68.048 647.172 68.088 646.996 68.12C646.828 68.144 646.668 68.172 646.516 68.204C646.372 68.236 646.208 68.276 646.024 68.324L645.82 67.244ZM645.784 70.712C645.928 70.704 646.1 70.692 646.3 70.676C646.5 70.652 646.68 70.628 646.84 70.604C647.056 70.58 647.344 70.54 647.704 70.484C648.072 70.428 648.484 70.364 648.94 70.292C649.404 70.212 649.88 70.132 650.368 70.052C650.864 69.972 651.344 69.892 651.808 69.812C652.272 69.732 652.696 69.66 653.08 69.596C653.472 69.524 653.784 69.468 654.016 69.428C654.248 69.388 654.452 69.348 654.628 69.308C654.804 69.268 654.956 69.232 655.084 69.2L655.276 70.208C655.156 70.216 655 70.236 654.808 70.268C654.624 70.292 654.42 70.324 654.196 70.364C653.932 70.404 653.6 70.456 653.2 70.52C652.808 70.584 652.38 70.656 651.916 70.736C651.452 70.808 650.976 70.884 650.488 70.964C650.008 71.036 649.544 71.112 649.096 71.192C648.648 71.264 648.248 71.332 647.896 71.396C647.544 71.452 647.264 71.5 647.056 71.54C646.824 71.58 646.62 71.616 646.444 71.648C646.276 71.68 646.128 71.716 646 71.756L645.784 70.712ZM660.112 64.784C660.288 64.88 660.496 65.004 660.736 65.156C660.976 65.308 661.224 65.468 661.48 65.636C661.736 65.804 661.972 65.964 662.188 66.116C662.412 66.26 662.588 66.38 662.716 66.476L662.152 67.292C662.008 67.188 661.828 67.06 661.612 66.908C661.396 66.756 661.164 66.6 660.916 66.44C660.668 66.272 660.424 66.116 660.184 65.972C659.952 65.82 659.748 65.692 659.572 65.588L660.112 64.784ZM658.312 73.364C658.752 73.284 659.204 73.18 659.668 73.052C660.132 72.916 660.592 72.76 661.048 72.584C661.504 72.4 661.932 72.192 662.332 71.96C662.996 71.576 663.612 71.152 664.18 70.688C664.748 70.224 665.26 69.728 665.716 69.2C666.172 68.672 666.56 68.128 666.88 67.568L667.456 68.552C666.936 69.36 666.276 70.136 665.476 70.88C664.684 71.624 663.808 72.28 662.848 72.848C662.44 73.08 661.996 73.296 661.516 73.496C661.044 73.688 660.576 73.856 660.112 74C659.656 74.144 659.24 74.256 658.864 74.336L658.312 73.364ZM658.3 67.484C658.476 67.572 658.688 67.692 658.936 67.844C659.184 67.988 659.436 68.14 659.692 68.3C659.948 68.452 660.188 68.6 660.412 68.744C660.636 68.888 660.812 69.008 660.94 69.104L660.388 69.944C660.236 69.832 660.048 69.704 659.824 69.56C659.608 69.408 659.376 69.256 659.128 69.104C658.88 68.944 658.636 68.792 658.396 68.648C658.156 68.504 657.948 68.388 657.772 68.3L658.3 67.484Z" fill="#171717"/>
<path d="M691.611 72.2538L693 73.0697V65.4061L691.611 64.5899V72.2538ZM673 65.4062V73.0702L674.389 72.2539V64.5902L673 65.4062ZM679.112 79.1146L680.501 79.9305L683.808 77.9876L682.419 77.1717L679.112 79.1146Z" fill="#40A0B4"/>
<path d="M681.056 77.9724L682.445 78.7884L683.808 77.9876L682.419 77.1718L681.056 77.9724Z" fill="#338090"/>
<path d="M686.194 76.7479V75.116L680.214 71.6026L679.806 71.8425L679.806 71.8429V72.9951L686.194 76.7479ZM679.806 76.5854L685.5 79.9305L686.889 79.1147L679.806 74.9534V76.5854Z" fill="#45C1A8"/>
<path d="M688.212 66.5871L689.601 67.403L693 65.4061L691.61 64.5904L688.212 66.5871ZM683.702 70.8684L682.313 70.0525L679.111 71.9339L680.5 72.7498L683.702 70.8684ZM689.945 63.6114L688.555 62.7954L685.157 64.7923L686.546 65.6084L689.945 63.6114ZM680.647 69.0737L679.258 68.2578L676.056 70.1391L677.445 70.955L680.647 69.0737ZM682.102 62.9976L683.491 63.8135L686.89 61.8167L685.501 61.0008L682.102 62.9976ZM673.001 68.3443L674.39 69.1602L677.592 67.2789L676.204 66.4629L673.001 68.3443Z" fill="#7CE1C0"/>
<path d="M691.611 69.1596V76.3404L693 75.5244V68.3438L691.611 69.1596ZM689.944 77.3195V70.1388L688.555 70.9547V78.1355L689.944 77.3195ZM685.499 72.7498V79.9306L686.889 79.1146V71.9338L685.499 72.7498ZM679.112 79.1146L680.501 79.9305V72.75L679.112 71.9339V79.1146ZM677.445 70.9548V78.1354L676.056 77.3196V70.1388L677.445 70.9548ZM673.001 75.5244L674.39 76.3402V69.1596L673.001 68.3436V75.5244Z" fill="url(#paint2_linear_38_338)"/>
<path d="M681.055 70.7916L682.444 71.6075L683.703 70.8684L682.314 70.0525L681.055 70.7916ZM674.946 67.2021L676.335 68.018L677.593 67.2789L676.204 66.463L674.946 67.2021ZM678.001 68.9969L679.39 69.8128L680.648 69.0736L679.259 68.2578L678.001 68.9969Z" fill="#45C1A8"/>
<path d="M680.5 61L679.111 61.8159L691.611 69.1595L693 68.3436L680.5 61ZM677.445 62.7952L676.056 63.6111L688.555 70.9547L689.944 70.1388L677.445 62.7952ZM673 65.4062L685.499 72.7498L686.888 71.9339L674.389 64.5903L673 65.4062Z" fill="#A2EACF"/>
<path d="M372 107V88" stroke="#A3A3A3" stroke-width="2"/>
<path d="M645 107V88" stroke="#A3A3A3" stroke-width="2"/>
<path d="M100 107V88" stroke="#A3A3A3" stroke-width="2"/>
<path d="M564.5 69L554.5 63.2265V74.7735L564.5 69ZM452 69L462 74.7735V63.2265L452 69ZM555.5 69V68L461 68V69V70L555.5 70V69Z" fill="#A3A3A3"/>
<path d="M495.728 38.096H502.4V38.9H495.728V38.096ZM495.428 40.964H502.616V41.768H495.428V40.964ZM496.856 44.708H501.236V45.428H496.856V44.708ZM496.88 46.664H501.284V47.432H496.88V46.664ZM498.56 37.004H499.448V38.504H498.56V37.004ZM496.76 39.14L497.54 38.984C497.676 39.256 497.804 39.56 497.924 39.896C498.044 40.224 498.124 40.508 498.164 40.748L497.348 40.928C497.308 40.688 497.232 40.4 497.12 40.064C497.008 39.728 496.888 39.42 496.76 39.14ZM500.516 38.96L501.404 39.152C501.284 39.464 501.156 39.784 501.02 40.112C500.892 40.44 500.768 40.716 500.648 40.94L499.904 40.772C499.976 40.604 500.048 40.416 500.12 40.208C500.2 39.992 500.276 39.776 500.348 39.56C500.42 39.336 500.476 39.136 500.516 38.96ZM496.376 42.764H501.8V47.924H500.936V43.52H497.216V47.948H496.376V42.764ZM492.332 37.688H495.2V45.584H492.332V44.768H494.372V38.516H492.332V37.688ZM492.38 41.192H494.84V42.008H492.38V41.192ZM491.912 37.688H492.74V46.568H491.912V37.688ZM506.132 38.216V40.148H511.964V38.216H506.132ZM505.244 37.412H512.9V40.94H505.244V37.412ZM503.588 41.876H514.4V42.704H503.588V41.876ZM506.144 43.772H512.264V44.6H506.144V43.772ZM511.94 43.772H512.912C512.912 43.772 512.908 43.796 512.9 43.844C512.892 43.892 512.884 43.952 512.876 44.024C512.876 44.088 512.872 44.14 512.864 44.18C512.76 44.884 512.656 45.468 512.552 45.932C512.448 46.388 512.336 46.752 512.216 47.024C512.096 47.296 511.96 47.496 511.808 47.624C511.664 47.752 511.512 47.836 511.352 47.876C511.192 47.924 510.996 47.952 510.764 47.96C510.564 47.976 510.276 47.976 509.9 47.96C509.532 47.952 509.136 47.94 508.712 47.924C508.704 47.788 508.672 47.64 508.616 47.48C508.56 47.32 508.488 47.18 508.4 47.06C508.688 47.084 508.968 47.104 509.24 47.12C509.512 47.136 509.756 47.144 509.972 47.144C510.196 47.152 510.36 47.156 510.464 47.156C510.608 47.156 510.724 47.148 510.812 47.132C510.9 47.124 510.976 47.092 511.04 47.036C511.168 46.94 511.28 46.772 511.376 46.532C511.48 46.292 511.58 45.956 511.676 45.524C511.772 45.092 511.86 44.552 511.94 43.904V43.772ZM506.372 42.104L507.332 42.248C507.22 42.592 507.1 42.96 506.972 43.352C506.844 43.736 506.712 44.108 506.576 44.468C506.448 44.828 506.324 45.148 506.204 45.428L505.256 45.26C505.376 44.98 505.504 44.66 505.64 44.3C505.776 43.94 505.908 43.568 506.036 43.184C506.164 42.792 506.276 42.432 506.372 42.104ZM520.832 37.208H521.744V46.124C521.744 46.348 521.764 46.52 521.804 46.64C521.844 46.752 521.92 46.832 522.032 46.88C522.152 46.92 522.324 46.94 522.548 46.94C522.628 46.94 522.772 46.94 522.98 46.94C523.196 46.94 523.432 46.94 523.688 46.94C523.952 46.94 524.196 46.94 524.42 46.94C524.644 46.94 524.804 46.94 524.9 46.94C525.124 46.94 525.288 46.88 525.392 46.76C525.504 46.632 525.584 46.408 525.632 46.088C525.688 45.768 525.728 45.32 525.752 44.744C525.864 44.824 526 44.904 526.16 44.984C526.328 45.056 526.476 45.104 526.604 45.128C526.564 45.784 526.492 46.308 526.388 46.7C526.292 47.084 526.132 47.36 525.908 47.528C525.692 47.696 525.372 47.78 524.948 47.78C524.884 47.78 524.768 47.78 524.6 47.78C524.44 47.78 524.248 47.78 524.024 47.78C523.808 47.78 523.592 47.78 523.376 47.78C523.16 47.78 522.968 47.78 522.8 47.78C522.64 47.78 522.532 47.78 522.476 47.78C522.06 47.78 521.732 47.732 521.492 47.636C521.252 47.54 521.08 47.368 520.976 47.12C520.88 46.88 520.832 46.54 520.832 46.1V37.208ZM525.344 39.2L525.992 39.968C525.592 40.304 525.14 40.636 524.636 40.964C524.132 41.284 523.604 41.596 523.052 41.9C522.508 42.204 521.972 42.492 521.444 42.764C521.412 42.66 521.356 42.544 521.276 42.416C521.204 42.28 521.136 42.16 521.072 42.056C521.584 41.784 522.104 41.488 522.632 41.168C523.16 40.848 523.66 40.52 524.132 40.184C524.604 39.84 525.008 39.512 525.344 39.2ZM518.756 37.1L519.632 37.4C519.328 38.096 518.972 38.78 518.564 39.452C518.156 40.124 517.716 40.756 517.244 41.348C516.78 41.932 516.296 42.448 515.792 42.896C515.768 42.816 515.72 42.72 515.648 42.608C515.584 42.496 515.516 42.384 515.444 42.272C515.372 42.152 515.308 42.056 515.252 41.984C515.716 41.6 516.164 41.152 516.596 40.64C517.036 40.12 517.44 39.56 517.808 38.96C518.176 38.352 518.492 37.732 518.756 37.1ZM517.376 40.244L518.264 39.356L518.276 39.38V47.936H517.376V40.244ZM477.161 60.944C477.161 60.832 477.161 60.608 477.161 60.272C477.161 59.928 477.161 59.524 477.161 59.06C477.161 58.588 477.161 58.096 477.161 57.584C477.161 57.064 477.161 56.56 477.161 56.072C477.161 55.584 477.161 55.152 477.161 54.776C477.161 54.4 477.161 54.128 477.161 53.96C477.161 53.792 477.153 53.588 477.137 53.348C477.121 53.108 477.097 52.896 477.065 52.712H478.241C478.225 52.888 478.205 53.096 478.181 53.336C478.165 53.576 478.157 53.784 478.157 53.96C478.157 54.272 478.157 54.648 478.157 55.088C478.157 55.52 478.157 55.984 478.157 56.48C478.157 56.968 478.157 57.456 478.157 57.944C478.165 58.424 478.169 58.876 478.169 59.3C478.169 59.716 478.169 60.072 478.169 60.368C478.169 60.656 478.169 60.848 478.169 60.944C478.169 61.072 478.169 61.22 478.169 61.388C478.177 61.556 478.189 61.728 478.205 61.904C478.221 62.072 478.233 62.224 478.241 62.36H477.077C477.109 62.168 477.129 61.94 477.137 61.676C477.153 61.412 477.161 61.168 477.161 60.944ZM477.953 55.856C478.345 55.976 478.777 56.12 479.249 56.288C479.729 56.448 480.217 56.62 480.713 56.804C481.209 56.988 481.677 57.176 482.117 57.368C482.565 57.552 482.953 57.728 483.281 57.896L482.873 58.916C482.529 58.724 482.141 58.536 481.709 58.352C481.277 58.16 480.833 57.972 480.377 57.788C479.929 57.604 479.493 57.44 479.069 57.296C478.653 57.144 478.281 57.02 477.953 56.924V55.856ZM487.889 53.06C488.049 53.084 488.221 53.1 488.405 53.108C488.589 53.116 488.777 53.12 488.969 53.12C489.089 53.12 489.305 53.12 489.617 53.12C489.937 53.12 490.297 53.12 490.697 53.12C491.105 53.12 491.509 53.12 491.909 53.12C492.317 53.12 492.681 53.12 493.001 53.12C493.321 53.12 493.549 53.12 493.685 53.12C493.877 53.12 494.069 53.116 494.261 53.108C494.453 53.1 494.625 53.084 494.777 53.06V54.056C494.633 54.04 494.461 54.032 494.261 54.032C494.069 54.024 493.873 54.02 493.673 54.02C493.537 54.02 493.309 54.02 492.989 54.02C492.677 54.02 492.321 54.02 491.921 54.02C491.521 54.02 491.117 54.02 490.709 54.02C490.309 54.02 489.949 54.02 489.629 54.02C489.317 54.02 489.097 54.02 488.969 54.02C488.785 54.02 488.601 54.024 488.417 54.032C488.233 54.04 488.057 54.048 487.889 54.056V53.06ZM495.653 56.228C495.629 56.276 495.597 56.336 495.557 56.408C495.525 56.472 495.505 56.528 495.497 56.576C495.337 57.168 495.117 57.764 494.837 58.364C494.557 58.956 494.193 59.496 493.745 59.984C493.113 60.672 492.429 61.208 491.693 61.592C490.965 61.976 490.217 62.276 489.449 62.492L488.705 61.64C489.553 61.464 490.341 61.188 491.069 60.812C491.797 60.436 492.417 59.98 492.929 59.444C493.297 59.06 493.597 58.632 493.829 58.16C494.069 57.68 494.245 57.224 494.357 56.792C494.269 56.792 494.101 56.792 493.853 56.792C493.613 56.792 493.317 56.792 492.965 56.792C492.613 56.792 492.233 56.792 491.825 56.792C491.425 56.792 491.017 56.792 490.601 56.792C490.193 56.792 489.809 56.792 489.449 56.792C489.097 56.792 488.789 56.792 488.525 56.792C488.269 56.792 488.089 56.792 487.985 56.792C487.841 56.792 487.665 56.796 487.457 56.804C487.249 56.804 487.033 56.812 486.809 56.828V55.82C487.033 55.844 487.245 55.864 487.445 55.88C487.645 55.888 487.825 55.892 487.985 55.892C488.073 55.892 488.241 55.892 488.489 55.892C488.737 55.892 489.037 55.892 489.389 55.892C489.741 55.892 490.121 55.892 490.529 55.892C490.937 55.892 491.345 55.892 491.753 55.892C492.161 55.892 492.541 55.892 492.893 55.892C493.245 55.892 493.545 55.892 493.793 55.892C494.049 55.892 494.221 55.892 494.309 55.892C494.445 55.892 494.573 55.884 494.693 55.868C494.813 55.852 494.905 55.828 494.969 55.796L495.653 56.228ZM507.449 54.02C507.409 54.108 507.373 54.2 507.341 54.296C507.317 54.392 507.293 54.5 507.269 54.62C507.205 54.94 507.121 55.292 507.017 55.676C506.913 56.052 506.785 56.444 506.633 56.852C506.489 57.252 506.317 57.644 506.117 58.028C505.925 58.404 505.713 58.744 505.481 59.048C505.113 59.512 504.705 59.948 504.257 60.356C503.809 60.756 503.297 61.116 502.721 61.436C502.145 61.756 501.489 62.032 500.753 62.264L499.937 61.364C500.721 61.164 501.397 60.924 501.965 60.644C502.541 60.356 503.045 60.028 503.477 59.66C503.909 59.292 504.289 58.896 504.617 58.472C504.905 58.112 505.153 57.7 505.361 57.236C505.577 56.772 505.753 56.308 505.889 55.844C506.033 55.372 506.133 54.944 506.189 54.56C506.077 54.56 505.865 54.56 505.553 54.56C505.241 54.56 504.873 54.56 504.449 54.56C504.025 54.56 503.581 54.56 503.117 54.56C502.661 54.56 502.221 54.56 501.797 54.56C501.373 54.56 501.005 54.56 500.693 54.56C500.381 54.56 500.169 54.56 500.057 54.56C499.817 54.56 499.597 54.564 499.397 54.572C499.197 54.58 499.017 54.588 498.857 54.596V53.54C498.969 53.548 499.093 53.56 499.229 53.576C499.365 53.592 499.505 53.604 499.649 53.612C499.793 53.612 499.929 53.612 500.057 53.612C500.153 53.612 500.325 53.612 500.573 53.612C500.821 53.612 501.113 53.612 501.449 53.612C501.793 53.612 502.157 53.612 502.541 53.612C502.933 53.612 503.317 53.612 503.693 53.612C504.077 53.612 504.433 53.612 504.761 53.612C505.097 53.612 505.381 53.612 505.613 53.612C505.845 53.612 506.001 53.612 506.081 53.612C506.169 53.612 506.269 53.612 506.381 53.612C506.493 53.604 506.605 53.584 506.717 53.552L507.449 54.02ZM510.347 58.904C510.875 58.776 511.407 58.608 511.943 58.4C512.487 58.192 512.995 57.972 513.467 57.74C513.947 57.508 514.347 57.292 514.667 57.092C515.051 56.86 515.419 56.604 515.771 56.324C516.131 56.036 516.463 55.748 516.767 55.46C517.071 55.172 517.323 54.9 517.523 54.644L518.267 55.364C518.043 55.612 517.759 55.888 517.415 56.192C517.079 56.488 516.711 56.784 516.311 57.08C515.911 57.376 515.499 57.652 515.075 57.908C514.827 58.06 514.539 58.22 514.211 58.388C513.883 58.556 513.535 58.724 513.167 58.892C512.799 59.06 512.411 59.224 512.003 59.384C511.603 59.536 511.203 59.672 510.803 59.792L510.347 58.904ZM514.559 57.632L515.555 57.392V61.88C515.555 62 515.555 62.128 515.555 62.264C515.563 62.408 515.571 62.54 515.579 62.66C515.587 62.78 515.599 62.872 515.615 62.936H514.511C514.519 62.872 514.527 62.78 514.535 62.66C514.543 62.54 514.547 62.408 514.547 62.264C514.555 62.128 514.559 62 514.559 61.88V57.632ZM526.679 55.088C526.735 55.208 526.807 55.388 526.895 55.628C526.983 55.86 527.075 56.108 527.171 56.372C527.275 56.636 527.367 56.888 527.447 57.128C527.527 57.36 527.587 57.544 527.627 57.68L526.739 57.992C526.707 57.856 526.651 57.672 526.571 57.44C526.499 57.208 526.415 56.96 526.319 56.696C526.223 56.424 526.127 56.172 526.031 55.94C525.935 55.708 525.859 55.524 525.803 55.388L526.679 55.088ZM531.023 55.76C530.983 55.88 530.947 55.992 530.915 56.096C530.891 56.192 530.867 56.28 530.843 56.36C530.683 57.016 530.467 57.66 530.195 58.292C529.923 58.916 529.571 59.5 529.139 60.044C528.587 60.748 527.963 61.336 527.267 61.808C526.579 62.28 525.899 62.644 525.227 62.9L524.435 62.096C524.899 61.952 525.367 61.76 525.839 61.52C526.319 61.28 526.771 60.992 527.195 60.656C527.627 60.32 528.007 59.948 528.335 59.54C528.623 59.188 528.879 58.792 529.103 58.352C529.335 57.912 529.527 57.444 529.679 56.948C529.831 56.452 529.935 55.948 529.991 55.436L531.023 55.76ZM523.895 55.688C523.959 55.824 524.039 56.008 524.135 56.24C524.231 56.472 524.331 56.728 524.435 57.008C524.547 57.28 524.651 57.544 524.747 57.8C524.851 58.048 524.931 58.248 524.987 58.4L524.075 58.736C524.027 58.584 523.955 58.38 523.859 58.124C523.771 57.86 523.671 57.588 523.559 57.308C523.447 57.028 523.339 56.772 523.235 56.54C523.139 56.308 523.063 56.14 523.007 56.036L523.895 55.688ZM543.347 54.5C543.291 54.58 543.239 54.684 543.191 54.812C543.143 54.932 543.103 55.04 543.071 55.136C542.967 55.536 542.815 55.976 542.615 56.456C542.415 56.928 542.175 57.408 541.895 57.896C541.615 58.376 541.295 58.832 540.935 59.264C540.391 59.928 539.739 60.536 538.979 61.088C538.227 61.632 537.287 62.112 536.159 62.528L535.295 61.748C536.031 61.532 536.691 61.272 537.275 60.968C537.859 60.656 538.383 60.312 538.847 59.936C539.311 59.56 539.723 59.16 540.083 58.736C540.395 58.368 540.679 57.964 540.935 57.524C541.199 57.084 541.423 56.644 541.607 56.204C541.791 55.756 541.923 55.352 542.003 54.992H537.551L537.935 54.128C538.031 54.128 538.211 54.128 538.475 54.128C538.739 54.128 539.039 54.128 539.375 54.128C539.719 54.128 540.059 54.128 540.395 54.128C540.731 54.128 541.023 54.128 541.271 54.128C541.527 54.128 541.691 54.128 541.763 54.128C541.923 54.128 542.071 54.12 542.207 54.104C542.343 54.08 542.455 54.048 542.543 54.008L543.347 54.5ZM539.327 52.676C539.223 52.836 539.123 53.008 539.027 53.192C538.931 53.368 538.855 53.512 538.799 53.624C538.559 54.064 538.259 54.54 537.899 55.052C537.539 55.556 537.111 56.056 536.615 56.552C536.119 57.048 535.547 57.512 534.899 57.944L534.071 57.32C534.591 57.016 535.055 56.684 535.463 56.324C535.871 55.964 536.227 55.6 536.531 55.232C536.843 54.864 537.107 54.512 537.323 54.176C537.539 53.84 537.711 53.536 537.839 53.264C537.903 53.16 537.971 53.016 538.043 52.832C538.123 52.64 538.179 52.468 538.211 52.316L539.327 52.676Z" fill="#171717"/>
<path d="M291.5 70L281.5 64.2265V75.7735L291.5 70ZM179 70L189 75.7735V64.2265L179 70ZM282.5 70V69L188 69V70V71L282.5 71V70Z" fill="#A3A3A3"/>
<path d="M222.728 39.096H229.4V39.9H222.728V39.096ZM222.428 41.964H229.616V42.768H222.428V41.964ZM223.856 45.708H228.236V46.428H223.856V45.708ZM223.88 47.664H228.284V48.432H223.88V47.664ZM225.56 38.004H226.448V39.504H225.56V38.004ZM223.76 40.14L224.54 39.984C224.676 40.256 224.804 40.56 224.924 40.896C225.044 41.224 225.124 41.508 225.164 41.748L224.348 41.928C224.308 41.688 224.232 41.4 224.12 41.064C224.008 40.728 223.888 40.42 223.76 40.14ZM227.516 39.96L228.404 40.152C228.284 40.464 228.156 40.784 228.02 41.112C227.892 41.44 227.768 41.716 227.648 41.94L226.904 41.772C226.976 41.604 227.048 41.416 227.12 41.208C227.2 40.992 227.276 40.776 227.348 40.56C227.42 40.336 227.476 40.136 227.516 39.96ZM223.376 43.764H228.8V48.924H227.936V44.52H224.216V48.948H223.376V43.764ZM219.332 38.688H222.2V46.584H219.332V45.768H221.372V39.516H219.332V38.688ZM219.38 42.192H221.84V43.008H219.38V42.192ZM218.912 38.688H219.74V47.568H218.912V38.688ZM233.132 39.216V41.148H238.964V39.216H233.132ZM232.244 38.412H239.9V41.94H232.244V38.412ZM230.588 42.876H241.4V43.704H230.588V42.876ZM233.144 44.772H239.264V45.6H233.144V44.772ZM238.94 44.772H239.912C239.912 44.772 239.908 44.796 239.9 44.844C239.892 44.892 239.884 44.952 239.876 45.024C239.876 45.088 239.872 45.14 239.864 45.18C239.76 45.884 239.656 46.468 239.552 46.932C239.448 47.388 239.336 47.752 239.216 48.024C239.096 48.296 238.96 48.496 238.808 48.624C238.664 48.752 238.512 48.836 238.352 48.876C238.192 48.924 237.996 48.952 237.764 48.96C237.564 48.976 237.276 48.976 236.9 48.96C236.532 48.952 236.136 48.94 235.712 48.924C235.704 48.788 235.672 48.64 235.616 48.48C235.56 48.32 235.488 48.18 235.4 48.06C235.688 48.084 235.968 48.104 236.24 48.12C236.512 48.136 236.756 48.144 236.972 48.144C237.196 48.152 237.36 48.156 237.464 48.156C237.608 48.156 237.724 48.148 237.812 48.132C237.9 48.124 237.976 48.092 238.04 48.036C238.168 47.94 238.28 47.772 238.376 47.532C238.48 47.292 238.58 46.956 238.676 46.524C238.772 46.092 238.86 45.552 238.94 44.904V44.772ZM233.372 43.104L234.332 43.248C234.22 43.592 234.1 43.96 233.972 44.352C233.844 44.736 233.712 45.108 233.576 45.468C233.448 45.828 233.324 46.148 233.204 46.428L232.256 46.26C232.376 45.98 232.504 45.66 232.64 45.3C232.776 44.94 232.908 44.568 233.036 44.184C233.164 43.792 233.276 43.432 233.372 43.104ZM247.832 38.208H248.744V47.124C248.744 47.348 248.764 47.52 248.804 47.64C248.844 47.752 248.92 47.832 249.032 47.88C249.152 47.92 249.324 47.94 249.548 47.94C249.628 47.94 249.772 47.94 249.98 47.94C250.196 47.94 250.432 47.94 250.688 47.94C250.952 47.94 251.196 47.94 251.42 47.94C251.644 47.94 251.804 47.94 251.9 47.94C252.124 47.94 252.288 47.88 252.392 47.76C252.504 47.632 252.584 47.408 252.632 47.088C252.688 46.768 252.728 46.32 252.752 45.744C252.864 45.824 253 45.904 253.16 45.984C253.328 46.056 253.476 46.104 253.604 46.128C253.564 46.784 253.492 47.308 253.388 47.7C253.292 48.084 253.132 48.36 252.908 48.528C252.692 48.696 252.372 48.78 251.948 48.78C251.884 48.78 251.768 48.78 251.6 48.78C251.44 48.78 251.248 48.78 251.024 48.78C250.808 48.78 250.592 48.78 250.376 48.78C250.16 48.78 249.968 48.78 249.8 48.78C249.64 48.78 249.532 48.78 249.476 48.78C249.06 48.78 248.732 48.732 248.492 48.636C248.252 48.54 248.08 48.368 247.976 48.12C247.88 47.88 247.832 47.54 247.832 47.1V38.208ZM252.344 40.2L252.992 40.968C252.592 41.304 252.14 41.636 251.636 41.964C251.132 42.284 250.604 42.596 250.052 42.9C249.508 43.204 248.972 43.492 248.444 43.764C248.412 43.66 248.356 43.544 248.276 43.416C248.204 43.28 248.136 43.16 248.072 43.056C248.584 42.784 249.104 42.488 249.632 42.168C250.16 41.848 250.66 41.52 251.132 41.184C251.604 40.84 252.008 40.512 252.344 40.2ZM245.756 38.1L246.632 38.4C246.328 39.096 245.972 39.78 245.564 40.452C245.156 41.124 244.716 41.756 244.244 42.348C243.78 42.932 243.296 43.448 242.792 43.896C242.768 43.816 242.72 43.72 242.648 43.608C242.584 43.496 242.516 43.384 242.444 43.272C242.372 43.152 242.308 43.056 242.252 42.984C242.716 42.6 243.164 42.152 243.596 41.64C244.036 41.12 244.44 40.56 244.808 39.96C245.176 39.352 245.492 38.732 245.756 38.1ZM244.376 41.244L245.264 40.356L245.276 40.38V48.936H244.376V41.244ZM204.161 61.944C204.161 61.832 204.161 61.608 204.161 61.272C204.161 60.928 204.161 60.524 204.161 60.06C204.161 59.588 204.161 59.096 204.161 58.584C204.161 58.064 204.161 57.56 204.161 57.072C204.161 56.584 204.161 56.152 204.161 55.776C204.161 55.4 204.161 55.128 204.161 54.96C204.161 54.792 204.153 54.588 204.137 54.348C204.121 54.108 204.097 53.896 204.065 53.712H205.241C205.225 53.888 205.205 54.096 205.181 54.336C205.165 54.576 205.157 54.784 205.157 54.96C205.157 55.272 205.157 55.648 205.157 56.088C205.157 56.52 205.157 56.984 205.157 57.48C205.157 57.968 205.157 58.456 205.157 58.944C205.165 59.424 205.169 59.876 205.169 60.3C205.169 60.716 205.169 61.072 205.169 61.368C205.169 61.656 205.169 61.848 205.169 61.944C205.169 62.072 205.169 62.22 205.169 62.388C205.177 62.556 205.189 62.728 205.205 62.904C205.221 63.072 205.233 63.224 205.241 63.36H204.077C204.109 63.168 204.129 62.94 204.137 62.676C204.153 62.412 204.161 62.168 204.161 61.944ZM204.953 56.856C205.345 56.976 205.777 57.12 206.249 57.288C206.729 57.448 207.217 57.62 207.713 57.804C208.209 57.988 208.677 58.176 209.117 58.368C209.565 58.552 209.953 58.728 210.281 58.896L209.873 59.916C209.529 59.724 209.141 59.536 208.709 59.352C208.277 59.16 207.833 58.972 207.377 58.788C206.929 58.604 206.493 58.44 206.069 58.296C205.653 58.144 205.281 58.02 204.953 57.924V56.856ZM214.889 54.06C215.049 54.084 215.221 54.1 215.405 54.108C215.589 54.116 215.777 54.12 215.969 54.12C216.089 54.12 216.305 54.12 216.617 54.12C216.937 54.12 217.297 54.12 217.697 54.12C218.105 54.12 218.509 54.12 218.909 54.12C219.317 54.12 219.681 54.12 220.001 54.12C220.321 54.12 220.549 54.12 220.685 54.12C220.877 54.12 221.069 54.116 221.261 54.108C221.453 54.1 221.625 54.084 221.777 54.06V55.056C221.633 55.04 221.461 55.032 221.261 55.032C221.069 55.024 220.873 55.02 220.673 55.02C220.537 55.02 220.309 55.02 219.989 55.02C219.677 55.02 219.321 55.02 218.921 55.02C218.521 55.02 218.117 55.02 217.709 55.02C217.309 55.02 216.949 55.02 216.629 55.02C216.317 55.02 216.097 55.02 215.969 55.02C215.785 55.02 215.601 55.024 215.417 55.032C215.233 55.04 215.057 55.048 214.889 55.056V54.06ZM222.653 57.228C222.629 57.276 222.597 57.336 222.557 57.408C222.525 57.472 222.505 57.528 222.497 57.576C222.337 58.168 222.117 58.764 221.837 59.364C221.557 59.956 221.193 60.496 220.745 60.984C220.113 61.672 219.429 62.208 218.693 62.592C217.965 62.976 217.217 63.276 216.449 63.492L215.705 62.64C216.553 62.464 217.341 62.188 218.069 61.812C218.797 61.436 219.417 60.98 219.929 60.444C220.297 60.06 220.597 59.632 220.829 59.16C221.069 58.68 221.245 58.224 221.357 57.792C221.269 57.792 221.101 57.792 220.853 57.792C220.613 57.792 220.317 57.792 219.965 57.792C219.613 57.792 219.233 57.792 218.825 57.792C218.425 57.792 218.017 57.792 217.601 57.792C217.193 57.792 216.809 57.792 216.449 57.792C216.097 57.792 215.789 57.792 215.525 57.792C215.269 57.792 215.089 57.792 214.985 57.792C214.841 57.792 214.665 57.796 214.457 57.804C214.249 57.804 214.033 57.812 213.809 57.828V56.82C214.033 56.844 214.245 56.864 214.445 56.88C214.645 56.888 214.825 56.892 214.985 56.892C215.073 56.892 215.241 56.892 215.489 56.892C215.737 56.892 216.037 56.892 216.389 56.892C216.741 56.892 217.121 56.892 217.529 56.892C217.937 56.892 218.345 56.892 218.753 56.892C219.161 56.892 219.541 56.892 219.893 56.892C220.245 56.892 220.545 56.892 220.793 56.892C221.049 56.892 221.221 56.892 221.309 56.892C221.445 56.892 221.573 56.884 221.693 56.868C221.813 56.852 221.905 56.828 221.969 56.796L222.653 57.228ZM234.449 55.02C234.409 55.108 234.373 55.2 234.341 55.296C234.317 55.392 234.293 55.5 234.269 55.62C234.205 55.94 234.121 56.292 234.017 56.676C233.913 57.052 233.785 57.444 233.633 57.852C233.489 58.252 233.317 58.644 233.117 59.028C232.925 59.404 232.713 59.744 232.481 60.048C232.113 60.512 231.705 60.948 231.257 61.356C230.809 61.756 230.297 62.116 229.721 62.436C229.145 62.756 228.489 63.032 227.753 63.264L226.937 62.364C227.721 62.164 228.397 61.924 228.965 61.644C229.541 61.356 230.045 61.028 230.477 60.66C230.909 60.292 231.289 59.896 231.617 59.472C231.905 59.112 232.153 58.7 232.361 58.236C232.577 57.772 232.753 57.308 232.889 56.844C233.033 56.372 233.133 55.944 233.189 55.56C233.077 55.56 232.865 55.56 232.553 55.56C232.241 55.56 231.873 55.56 231.449 55.56C231.025 55.56 230.581 55.56 230.117 55.56C229.661 55.56 229.221 55.56 228.797 55.56C228.373 55.56 228.005 55.56 227.693 55.56C227.381 55.56 227.169 55.56 227.057 55.56C226.817 55.56 226.597 55.564 226.397 55.572C226.197 55.58 226.017 55.588 225.857 55.596V54.54C225.969 54.548 226.093 54.56 226.229 54.576C226.365 54.592 226.505 54.604 226.649 54.612C226.793 54.612 226.929 54.612 227.057 54.612C227.153 54.612 227.325 54.612 227.573 54.612C227.821 54.612 228.113 54.612 228.449 54.612C228.793 54.612 229.157 54.612 229.541 54.612C229.933 54.612 230.317 54.612 230.693 54.612C231.077 54.612 231.433 54.612 231.761 54.612C232.097 54.612 232.381 54.612 232.613 54.612C232.845 54.612 233.001 54.612 233.081 54.612C233.169 54.612 233.269 54.612 233.381 54.612C233.493 54.604 233.605 54.584 233.717 54.552L234.449 55.02ZM237.347 59.904C237.875 59.776 238.407 59.608 238.943 59.4C239.487 59.192 239.995 58.972 240.467 58.74C240.947 58.508 241.347 58.292 241.667 58.092C242.051 57.86 242.419 57.604 242.771 57.324C243.131 57.036 243.463 56.748 243.767 56.46C244.071 56.172 244.323 55.9 244.523 55.644L245.267 56.364C245.043 56.612 244.759 56.888 244.415 57.192C244.079 57.488 243.711 57.784 243.311 58.08C242.911 58.376 242.499 58.652 242.075 58.908C241.827 59.06 241.539 59.22 241.211 59.388C240.883 59.556 240.535 59.724 240.167 59.892C239.799 60.06 239.411 60.224 239.003 60.384C238.603 60.536 238.203 60.672 237.803 60.792L237.347 59.904ZM241.559 58.632L242.555 58.392V62.88C242.555 63 242.555 63.128 242.555 63.264C242.563 63.408 242.571 63.54 242.579 63.66C242.587 63.78 242.599 63.872 242.615 63.936H241.511C241.519 63.872 241.527 63.78 241.535 63.66C241.543 63.54 241.547 63.408 241.547 63.264C241.555 63.128 241.559 63 241.559 62.88V58.632ZM253.679 56.088C253.735 56.208 253.807 56.388 253.895 56.628C253.983 56.86 254.075 57.108 254.171 57.372C254.275 57.636 254.367 57.888 254.447 58.128C254.527 58.36 254.587 58.544 254.627 58.68L253.739 58.992C253.707 58.856 253.651 58.672 253.571 58.44C253.499 58.208 253.415 57.96 253.319 57.696C253.223 57.424 253.127 57.172 253.031 56.94C252.935 56.708 252.859 56.524 252.803 56.388L253.679 56.088ZM258.023 56.76C257.983 56.88 257.947 56.992 257.915 57.096C257.891 57.192 257.867 57.28 257.843 57.36C257.683 58.016 257.467 58.66 257.195 59.292C256.923 59.916 256.571 60.5 256.139 61.044C255.587 61.748 254.963 62.336 254.267 62.808C253.579 63.28 252.899 63.644 252.227 63.9L251.435 63.096C251.899 62.952 252.367 62.76 252.839 62.52C253.319 62.28 253.771 61.992 254.195 61.656C254.627 61.32 255.007 60.948 255.335 60.54C255.623 60.188 255.879 59.792 256.103 59.352C256.335 58.912 256.527 58.444 256.679 57.948C256.831 57.452 256.935 56.948 256.991 56.436L258.023 56.76ZM250.895 56.688C250.959 56.824 251.039 57.008 251.135 57.24C251.231 57.472 251.331 57.728 251.435 58.008C251.547 58.28 251.651 58.544 251.747 58.8C251.851 59.048 251.931 59.248 251.987 59.4L251.075 59.736C251.027 59.584 250.955 59.38 250.859 59.124C250.771 58.86 250.671 58.588 250.559 58.308C250.447 58.028 250.339 57.772 250.235 57.54C250.139 57.308 250.063 57.14 250.007 57.036L250.895 56.688ZM270.347 55.5C270.291 55.58 270.239 55.684 270.191 55.812C270.143 55.932 270.103 56.04 270.071 56.136C269.967 56.536 269.815 56.976 269.615 57.456C269.415 57.928 269.175 58.408 268.895 58.896C268.615 59.376 268.295 59.832 267.935 60.264C267.391 60.928 266.739 61.536 265.979 62.088C265.227 62.632 264.287 63.112 263.159 63.528L262.295 62.748C263.031 62.532 263.691 62.272 264.275 61.968C264.859 61.656 265.383 61.312 265.847 60.936C266.311 60.56 266.723 60.16 267.083 59.736C267.395 59.368 267.679 58.964 267.935 58.524C268.199 58.084 268.423 57.644 268.607 57.204C268.791 56.756 268.923 56.352 269.003 55.992H264.551L264.935 55.128C265.031 55.128 265.211 55.128 265.475 55.128C265.739 55.128 266.039 55.128 266.375 55.128C266.719 55.128 267.059 55.128 267.395 55.128C267.731 55.128 268.023 55.128 268.271 55.128C268.527 55.128 268.691 55.128 268.763 55.128C268.923 55.128 269.071 55.12 269.207 55.104C269.343 55.08 269.455 55.048 269.543 55.008L270.347 55.5ZM266.327 53.676C266.223 53.836 266.123 54.008 266.027 54.192C265.931 54.368 265.855 54.512 265.799 54.624C265.559 55.064 265.259 55.54 264.899 56.052C264.539 56.556 264.111 57.056 263.615 57.552C263.119 58.048 262.547 58.512 261.899 58.944L261.071 58.32C261.591 58.016 262.055 57.684 262.463 57.324C262.871 56.964 263.227 56.6 263.531 56.232C263.843 55.864 264.107 55.512 264.323 55.176C264.539 54.84 264.711 54.536 264.839 54.264C264.903 54.16 264.971 54.016 265.043 53.832C265.123 53.64 265.179 53.468 265.211 53.316L266.327 53.676Z" fill="#171717"/>
<defs>
<linearGradient id="paint0_linear_38_338" x1="410" y1="68.3436" x2="410" y2="79.9306" gradientUnits="userSpaceOnUse">
<stop stop-color="#4AD8AC"/>
<stop offset="1" stop-color="#4076C4"/>
</linearGradient>
<linearGradient id="paint1_linear_38_338" x1="136" y1="68.3436" x2="136" y2="79.9306" gradientUnits="userSpaceOnUse">
<stop stop-color="#4AD8AC"/>
<stop offset="1" stop-color="#4076C4"/>
</linearGradient>
<linearGradient id="paint2_linear_38_338" x1="683" y1="68.3436" x2="683" y2="79.9306" gradientUnits="userSpaceOnUse">
<stop stop-color="#4AD8AC"/>
<stop offset="1" stop-color="#4076C4"/>
</linearGradient>
</defs>
</svg>
