<svg width="742" height="168" viewBox="0 0 742 168" fill="none" xmlns="http://www.w3.org/2000/svg">
<rect x="0.5" y="0.5" width="467" height="167" rx="18.5" fill="white" stroke="#D4D4D4"/>
<path d="M236.261 18.008H243.773V18.824H236.261V18.008ZM235.061 21.716H244.901V22.532H235.061V21.716ZM239.465 18.5H240.461V21.968H239.465V18.5ZM236.261 14H237.269V18.356H236.261V14ZM247.348 18.284H254.8V19.1H247.348V18.284ZM246.1 21.632H255.94V22.46H246.1V21.632ZM247.348 14.084H254.692V14.9H248.332V18.644H247.348V14.084Z" fill="#171717"/>
<rect x="281.5" y="37.5" width="180" height="117" rx="18.5" fill="white" stroke="#D4D4D4"/>
<mask id="path-4-outside-1_38_269" maskUnits="userSpaceOnUse" x="291" y="106" width="162" height="39" fill="black">
<rect fill="white" x="291" y="106" width="162" height="39"/>
<path d="M292 125.5C292 115.283 300.283 107 310.5 107H433.5C443.717 107 452 115.283 452 125.5C452 135.717 443.717 144 433.5 144H310.5C300.283 144 292 135.717 292 125.5Z"/>
</mask>
<path d="M292 125.5C292 115.283 300.283 107 310.5 107H433.5C443.717 107 452 115.283 452 125.5C452 135.717 443.717 144 433.5 144H310.5C300.283 144 292 135.717 292 125.5Z" fill="#F7F7F7"/>
<path d="M292 125.5M452 125.5M452 125.5M292 125.5M310.5 107V108H433.5V107V106H310.5V107ZM452 125.5M433.5 144V143H310.5V144V145H433.5V144ZM292 125.5M310.5 144V143C300.835 143 293 135.165 293 125.5H292H291C291 136.27 299.73 145 310.5 145V144ZM452 125.5H451C451 135.165 443.165 143 433.5 143V144V145C444.27 145 453 136.27 453 125.5H452ZM433.5 107V108C443.165 108 451 115.835 451 125.5H452H453C453 114.73 444.27 106 433.5 106V107ZM310.5 107V106C299.73 106 291 114.73 291 125.5H292H293C293 115.835 300.835 108 310.5 108V107Z" fill="#D4D4D4" mask="url(#path-4-outside-1_38_269)"/>
<path d="M433.5 50.75C443.855 50.75 452.25 59.1447 452.25 69.5C452.25 79.8553 443.855 88.25 433.5 88.25H310.5C300.145 88.25 291.75 79.8553 291.75 69.5C291.75 59.1447 300.145 50.75 310.5 50.75H433.5Z" fill="#F7F7F7" stroke="#D4D4D4" stroke-width="0.5"/>
<path d="M355.541 72.704H365.381V73.544H355.541V72.704ZM356.405 65.168H364.457V65.984H356.405V65.168ZM356.429 69.74H364.433V70.556H356.429V69.74ZM358.085 65.912H359.081V69.836H358.085V65.912ZM361.781 65.912H362.765V69.836H361.781V65.912ZM366.568 70.052H376.408V70.868H366.568V70.052ZM367.816 64.352H375.148V66.992H368.824V68.444H367.84V66.248H374.164V65.144H367.816V64.352ZM367.84 68.12H375.376V68.912H367.84V68.12ZM370.996 68.528H371.98V70.448H370.996V68.528ZM367.672 71.696H375.208V74.828H374.212V72.5H367.672V71.696ZM380.476 65.012H381.304V66.956C381.304 67.58 381.224 68.188 381.064 68.78C380.912 69.364 380.692 69.912 380.404 70.424C380.124 70.928 379.792 71.376 379.408 71.768C379.032 72.152 378.62 72.456 378.172 72.68L377.56 71.852C377.968 71.668 378.348 71.404 378.7 71.06C379.052 70.716 379.36 70.328 379.624 69.896C379.888 69.456 380.096 68.984 380.248 68.48C380.4 67.976 380.476 67.468 380.476 66.956V65.012ZM380.644 65.012H381.472V66.956C381.472 67.452 381.544 67.94 381.688 68.42C381.84 68.9 382.048 69.356 382.312 69.788C382.584 70.212 382.892 70.588 383.236 70.916C383.588 71.236 383.964 71.488 384.364 71.672L383.764 72.464C383.324 72.256 382.916 71.964 382.54 71.588C382.164 71.212 381.832 70.78 381.544 70.292C381.264 69.804 381.044 69.276 380.884 68.708C380.724 68.14 380.644 67.556 380.644 66.956V65.012ZM385.504 64.076H386.5V74.948H385.504V64.076Z" fill="#171717"/>
<path d="M418.611 72.2538L420 73.0697V65.4061L418.611 64.5899V72.2538ZM400 65.4062V73.0702L401.389 72.2539V64.5902L400 65.4062ZM406.112 79.1146L407.501 79.9305L410.808 77.9876L409.419 77.1717L406.112 79.1146Z" fill="#40A0B4"/>
<path d="M408.056 77.9724L409.445 78.7884L410.808 77.9876L409.419 77.1718L408.056 77.9724Z" fill="#338090"/>
<path d="M413.194 76.7479V75.116L407.214 71.6026L406.806 71.8425L406.806 71.8429V72.9951L413.194 76.7479ZM406.806 76.5854L412.5 79.9305L413.889 79.1147L406.806 74.9534V76.5854Z" fill="#45C1A8"/>
<path d="M415.212 66.5871L416.601 67.403L420 65.4061L418.61 64.5904L415.212 66.5871ZM410.702 70.8684L409.313 70.0525L406.111 71.9339L407.5 72.7498L410.702 70.8684ZM416.945 63.6114L415.555 62.7954L412.157 64.7923L413.546 65.6084L416.945 63.6114ZM407.648 69.0737L406.259 68.2578L403.056 70.1391L404.445 70.955L407.648 69.0737ZM409.102 62.9976L410.491 63.8135L413.89 61.8167L412.501 61.0008L409.102 62.9976ZM400.002 68.3443L401.39 69.1602L404.593 67.2789L403.204 66.4629L400.002 68.3443Z" fill="#7CE1C0"/>
<path d="M418.611 69.1596V76.3404L420 75.5244V68.3438L418.611 69.1596ZM416.944 77.3195V70.1388L415.555 70.9547V78.1355L416.944 77.3195ZM412.499 72.7498V79.9306L413.889 79.1146V71.9338L412.499 72.7498ZM406.112 79.1146L407.501 79.9305V72.75L406.112 71.9339V79.1146ZM404.445 70.9548V78.1354L403.056 77.3196V70.1388L404.445 70.9548ZM400.001 75.5244L401.39 76.3402V69.1596L400.001 68.3436V75.5244Z" fill="url(#paint0_linear_38_269)"/>
<path d="M408.055 70.7916L409.444 71.6075L410.702 70.8684L409.314 70.0525L408.055 70.7916ZM401.946 67.2021L403.335 68.018L404.593 67.2789L403.204 66.463L401.946 67.2021ZM405.001 68.9969L406.389 69.8128L407.647 69.0736L406.259 68.2578L405.001 68.9969Z" fill="#45C1A8"/>
<path d="M407.5 61L406.111 61.8159L418.611 69.1595L420 68.3436L407.5 61ZM404.445 62.7952L403.056 63.6111L415.555 70.9547L416.944 70.1388L404.445 62.7952ZM400 65.4062L412.499 72.7498L413.888 71.9339L401.389 64.5903L400 65.4062Z" fill="#A2EACF"/>
<rect x="7.5" y="37.5" width="180" height="117" rx="18.5" fill="white" stroke="#D4D4D4"/>
<mask id="path-16-outside-2_38_269" maskUnits="userSpaceOnUse" x="17" y="106" width="162" height="39" fill="black">
<rect fill="white" x="17" y="106" width="162" height="39"/>
<path d="M18 125.5C18 115.283 26.2827 107 36.5 107H159.5C169.717 107 178 115.283 178 125.5C178 135.717 169.717 144 159.5 144H36.5C26.2827 144 18 135.717 18 125.5Z"/>
</mask>
<path d="M18 125.5C18 115.283 26.2827 107 36.5 107H159.5C169.717 107 178 115.283 178 125.5C178 135.717 169.717 144 159.5 144H36.5C26.2827 144 18 135.717 18 125.5Z" fill="#F7F7F7"/>
<path d="M18 125.5M178 125.5M178 125.5M18 125.5M36.5 107V108H159.5V107V106H36.5V107ZM178 125.5M159.5 144V143H36.5V144V145H159.5V144ZM18 125.5M36.5 144V143C26.835 143 19 135.165 19 125.5H18H17C17 136.27 25.7305 145 36.5 145V144ZM178 125.5H177C177 135.165 169.165 143 159.5 143V144V145C170.27 145 179 136.27 179 125.5H178ZM159.5 107V108C169.165 108 177 115.835 177 125.5H178H179C179 114.73 170.27 106 159.5 106V107ZM36.5 107V106C25.7304 106 17 114.73 17 125.5H18H19C19 115.835 26.835 108 36.5 108V107Z" fill="#D4D4D4" mask="url(#path-16-outside-2_38_269)"/>
<path d="M159.5 50.75C169.855 50.75 178.25 59.1447 178.25 69.5C178.25 79.8553 169.855 88.25 159.5 88.25H36.5C26.1447 88.25 17.75 79.8553 17.75 69.5C17.75 59.1447 26.1447 50.75 36.5 50.75H159.5Z" fill="#F7F7F7" stroke="#D4D4D4" stroke-width="0.5"/>
<path d="M81.5414 72.704H91.3814V73.544H81.5414V72.704ZM82.4054 65.168H90.4574V65.984H82.4054V65.168ZM82.4294 69.74H90.4334V70.556H82.4294V69.74ZM84.0854 65.912H85.0814V69.836H84.0854V65.912ZM87.7814 65.912H88.7654V69.836H87.7814V65.912ZM92.5685 70.052H102.408V70.868H92.5685V70.052ZM93.8165 64.352H101.148V66.992H94.8245V68.444H93.8405V66.248H100.164V65.144H93.8165V64.352ZM93.8405 68.12H101.376V68.912H93.8405V68.12ZM96.9965 68.528H97.9805V70.448H96.9965V68.528ZM93.6725 71.696H101.208V74.828H100.212V72.5H93.6725V71.696ZM106.476 65.012H107.304V66.956C107.304 67.58 107.224 68.188 107.064 68.78C106.912 69.364 106.692 69.912 106.404 70.424C106.124 70.928 105.792 71.376 105.408 71.768C105.032 72.152 104.62 72.456 104.172 72.68L103.56 71.852C103.968 71.668 104.348 71.404 104.7 71.06C105.052 70.716 105.36 70.328 105.624 69.896C105.888 69.456 106.096 68.984 106.248 68.48C106.4 67.976 106.476 67.468 106.476 66.956V65.012ZM106.644 65.012H107.472V66.956C107.472 67.452 107.544 67.94 107.688 68.42C107.84 68.9 108.048 69.356 108.312 69.788C108.584 70.212 108.892 70.588 109.236 70.916C109.588 71.236 109.964 71.488 110.364 71.672L109.764 72.464C109.324 72.256 108.916 71.964 108.54 71.588C108.164 71.212 107.832 70.78 107.544 70.292C107.264 69.804 107.044 69.276 106.884 68.708C106.724 68.14 106.644 67.556 106.644 66.956V65.012ZM111.504 64.076H112.5V74.948H111.504V64.076Z" fill="#171717"/>
<path d="M144.611 72.2538L146 73.0697V65.4061L144.611 64.5899V72.2538ZM126 65.4062V73.0702L127.389 72.2539V64.5902L126 65.4062ZM132.112 79.1146L133.501 79.9305L136.808 77.9876L135.419 77.1717L132.112 79.1146Z" fill="#40A0B4"/>
<path d="M134.056 77.9724L135.445 78.7884L136.808 77.9876L135.419 77.1718L134.056 77.9724Z" fill="#338090"/>
<path d="M139.194 76.7479V75.116L133.214 71.6026L132.806 71.8425L132.806 71.8429V72.9951L139.194 76.7479ZM132.806 76.5854L138.5 79.9305L139.889 79.1147L132.806 74.9534V76.5854Z" fill="#45C1A8"/>
<path d="M141.212 66.5871L142.601 67.403L146 65.4061L144.61 64.5904L141.212 66.5871ZM136.702 70.8684L135.313 70.0525L132.111 71.9339L133.5 72.7498L136.702 70.8684ZM142.945 63.6114L141.555 62.7954L138.157 64.7923L139.546 65.6084L142.945 63.6114ZM133.648 69.0737L132.259 68.2578L129.056 70.1391L130.445 70.955L133.648 69.0737ZM135.102 62.9976L136.491 63.8135L139.89 61.8167L138.501 61.0008L135.102 62.9976ZM126.002 68.3443L127.39 69.1602L130.593 67.2789L129.204 66.4629L126.002 68.3443Z" fill="#7CE1C0"/>
<path d="M144.611 69.1596V76.3404L146 75.5244V68.3438L144.611 69.1596ZM142.944 77.3195V70.1388L141.555 70.9547V78.1355L142.944 77.3195ZM138.499 72.7498V79.9306L139.889 79.1146V71.9338L138.499 72.7498ZM132.112 79.1146L133.501 79.9305V72.75L132.112 71.9339V79.1146ZM130.445 70.9548V78.1354L129.056 77.3196V70.1388L130.445 70.9548ZM126.001 75.5244L127.39 76.3402V69.1596L126.001 68.3436V75.5244Z" fill="url(#paint1_linear_38_269)"/>
<path d="M134.055 70.7916L135.444 71.6075L136.702 70.8684L135.314 70.0525L134.055 70.7916ZM127.946 67.2021L129.335 68.018L130.593 67.2789L129.204 66.463L127.946 67.2021ZM131.001 68.9969L132.389 69.8128L133.647 69.0736L132.259 68.2578L131.001 68.9969Z" fill="#45C1A8"/>
<path d="M133.5 61L132.111 61.8159L144.611 69.1595L146 68.3436L133.5 61ZM130.445 62.7952L129.056 63.6111L141.555 70.9547L142.944 70.1388L130.445 62.7952ZM126 65.4062L138.499 72.7498L139.888 71.9339L127.389 64.5903L126 65.4062Z" fill="#A2EACF"/>
<rect x="548.5" y="0.5" width="193" height="167" rx="18.5" fill="white" stroke="#D4D4D4"/>
<path d="M635.261 18.008H642.773V18.824H635.261V18.008ZM634.061 21.716H643.901V22.532H634.061V21.716ZM638.465 18.5H639.461V21.968H638.465V18.5ZM635.261 14H636.269V18.356H635.261V14ZM646.348 18.284H653.8V19.1H646.348V18.284ZM645.1 21.632H654.94V22.46H645.1V21.632ZM646.348 14.084H653.692V14.9H647.332V18.644H646.348V14.084Z" fill="#171717"/>
<rect x="554.5" y="37.5" width="180" height="117" rx="18.5" fill="white" stroke="#D4D4D4"/>
<path d="M706.5 50.75C716.855 50.75 725.25 59.1447 725.25 69.5C725.25 79.8553 716.855 88.25 706.5 88.25H583.5C573.145 88.25 564.75 79.8553 564.75 69.5C564.75 59.1447 573.145 50.75 583.5 50.75H706.5Z" fill="#F7F7F7" stroke="#D4D4D4" stroke-width="0.5"/>
<mask id="path-31-outside-3_38_269" maskUnits="userSpaceOnUse" x="564" y="106" width="162" height="39" fill="black">
<rect fill="white" x="564" y="106" width="162" height="39"/>
<path d="M565 125.5C565 115.283 573.283 107 583.5 107H706.5C716.717 107 725 115.283 725 125.5C725 135.717 716.717 144 706.5 144H583.5C573.283 144 565 135.717 565 125.5Z"/>
</mask>
<path d="M565 125.5C565 115.283 573.283 107 583.5 107H706.5C716.717 107 725 115.283 725 125.5C725 135.717 716.717 144 706.5 144H583.5C573.283 144 565 135.717 565 125.5Z" fill="#F7F7F7"/>
<path d="M565 125.5M725 125.5M725 125.5M565 125.5M583.5 107V108H706.5V107V106H583.5V107ZM725 125.5M706.5 144V143H583.5V144V145H706.5V144ZM565 125.5M583.5 144V143C573.835 143 566 135.165 566 125.5H565H564C564 136.27 572.73 145 583.5 145V144ZM725 125.5H724C724 135.165 716.165 143 706.5 143V144V145C717.27 145 726 136.27 726 125.5H725ZM706.5 107V108C716.165 108 724 115.835 724 125.5H725H726C726 114.73 717.27 106 706.5 106V107ZM583.5 107V106C572.73 106 564 114.73 564 125.5H565H566C566 115.835 573.835 108 583.5 108V107Z" fill="#D4D4D4" mask="url(#path-31-outside-3_38_269)"/>
<path d="M628.541 72.704H638.381V73.544H628.541V72.704ZM629.405 65.168H637.457V65.984H629.405V65.168ZM629.429 69.74H637.433V70.556H629.429V69.74ZM631.085 65.912H632.081V69.836H631.085V65.912ZM634.781 65.912H635.765V69.836H634.781V65.912ZM639.568 70.052H649.408V70.868H639.568V70.052ZM640.816 64.352H648.148V66.992H641.824V68.444H640.84V66.248H647.164V65.144H640.816V64.352ZM640.84 68.12H648.376V68.912H640.84V68.12ZM643.996 68.528H644.98V70.448H643.996V68.528ZM640.672 71.696H648.208V74.828H647.212V72.5H640.672V71.696ZM653.476 65.012H654.304V66.956C654.304 67.58 654.224 68.188 654.064 68.78C653.912 69.364 653.692 69.912 653.404 70.424C653.124 70.928 652.792 71.376 652.408 71.768C652.032 72.152 651.62 72.456 651.172 72.68L650.56 71.852C650.968 71.668 651.348 71.404 651.7 71.06C652.052 70.716 652.36 70.328 652.624 69.896C652.888 69.456 653.096 68.984 653.248 68.48C653.4 67.976 653.476 67.468 653.476 66.956V65.012ZM653.644 65.012H654.472V66.956C654.472 67.452 654.544 67.94 654.688 68.42C654.84 68.9 655.048 69.356 655.312 69.788C655.584 70.212 655.892 70.588 656.236 70.916C656.588 71.236 656.964 71.488 657.364 71.672L656.764 72.464C656.324 72.256 655.916 71.964 655.54 71.588C655.164 71.212 654.832 70.78 654.544 70.292C654.264 69.804 654.044 69.276 653.884 68.708C653.724 68.14 653.644 67.556 653.644 66.956V65.012ZM658.504 64.076H659.5V74.948H658.504V64.076Z" fill="#171717"/>
<path d="M691.611 72.2538L693 73.0697V65.4061L691.611 64.5899V72.2538ZM673 65.4062V73.0702L674.389 72.2539V64.5902L673 65.4062ZM679.112 79.1146L680.501 79.9305L683.808 77.9876L682.419 77.1717L679.112 79.1146Z" fill="#40A0B4"/>
<path d="M681.056 77.9724L682.445 78.7884L683.808 77.9876L682.419 77.1718L681.056 77.9724Z" fill="#338090"/>
<path d="M686.194 76.7479V75.116L680.214 71.6026L679.806 71.8425L679.806 71.8429V72.9951L686.194 76.7479ZM679.806 76.5854L685.5 79.9305L686.889 79.1147L679.806 74.9534V76.5854Z" fill="#45C1A8"/>
<path d="M688.212 66.5871L689.601 67.403L693 65.4061L691.61 64.5904L688.212 66.5871ZM683.702 70.8684L682.313 70.0525L679.111 71.9339L680.5 72.7498L683.702 70.8684ZM689.945 63.6114L688.555 62.7954L685.157 64.7923L686.546 65.6084L689.945 63.6114ZM680.647 69.0737L679.258 68.2578L676.056 70.1391L677.445 70.955L680.647 69.0737ZM682.102 62.9976L683.491 63.8135L686.89 61.8167L685.501 61.0008L682.102 62.9976ZM673.001 68.3443L674.39 69.1602L677.592 67.2789L676.204 66.4629L673.001 68.3443Z" fill="#7CE1C0"/>
<path d="M691.611 69.1596V76.3404L693 75.5244V68.3438L691.611 69.1596ZM689.944 77.3195V70.1388L688.555 70.9547V78.1355L689.944 77.3195ZM685.499 72.7498V79.9306L686.889 79.1146V71.9338L685.499 72.7498ZM679.112 79.1146L680.501 79.9305V72.75L679.112 71.9339V79.1146ZM677.445 70.9548V78.1354L676.056 77.3196V70.1388L677.445 70.9548ZM673.001 75.5244L674.39 76.3402V69.1596L673.001 68.3436V75.5244Z" fill="url(#paint2_linear_38_269)"/>
<path d="M681.055 70.7916L682.444 71.6075L683.703 70.8684L682.314 70.0525L681.055 70.7916ZM674.946 67.2021L676.335 68.018L677.593 67.2789L676.204 66.463L674.946 67.2021ZM678.001 68.9969L679.39 69.8128L680.648 69.0736L679.259 68.2578L678.001 68.9969Z" fill="#45C1A8"/>
<path d="M680.5 61L679.111 61.8159L691.611 69.1595L693 68.3436L680.5 61ZM677.445 62.7952L676.056 63.6111L688.555 70.9547L689.944 70.1388L677.445 62.7952ZM673 65.4062L685.499 72.7498L686.888 71.9339L674.389 64.5903L673 65.4062Z" fill="#A2EACF"/>
<path d="M372 107V88" stroke="#A3A3A3" stroke-width="2"/>
<path d="M645 107V88" stroke="#A3A3A3" stroke-width="2"/>
<path d="M100 107V88" stroke="#A3A3A3" stroke-width="2"/>
<path d="M564.5 69L554.5 63.2265V74.7735L564.5 69ZM452 69L462 74.7735V63.2265L452 69ZM555.5 69V68L461 68V69V70L555.5 70V69Z" fill="#A3A3A3"/>
<path d="M493.262 37.076H494.258V43.34H493.262V37.076ZM493.982 39.74H495.854V40.556H493.982V39.74ZM487.442 43.868H494.258V47.792H487.442V43.868ZM493.274 44.672H488.414V46.976H493.274V44.672ZM488.858 37.724C489.41 37.724 489.898 37.832 490.322 38.048C490.746 38.264 491.078 38.564 491.318 38.948C491.566 39.332 491.69 39.776 491.69 40.28C491.69 40.792 491.566 41.24 491.318 41.624C491.078 42 490.746 42.296 490.322 42.512C489.898 42.728 489.41 42.836 488.858 42.836C488.322 42.836 487.838 42.728 487.406 42.512C486.982 42.296 486.646 42 486.398 41.624C486.15 41.24 486.026 40.792 486.026 40.28C486.026 39.776 486.15 39.332 486.398 38.948C486.646 38.564 486.982 38.264 487.406 38.048C487.838 37.832 488.322 37.724 488.858 37.724ZM488.858 38.564C488.506 38.564 488.19 38.64 487.91 38.792C487.63 38.936 487.406 39.136 487.238 39.392C487.078 39.648 486.998 39.944 486.998 40.28C486.998 40.624 487.078 40.924 487.238 41.18C487.406 41.436 487.63 41.636 487.91 41.78C488.19 41.924 488.506 41.996 488.858 41.996C489.218 41.996 489.538 41.924 489.818 41.78C490.098 41.636 490.318 41.436 490.478 41.18C490.646 40.924 490.73 40.624 490.73 40.28C490.73 39.944 490.646 39.648 490.478 39.392C490.318 39.136 490.098 38.936 489.818 38.792C489.538 38.64 489.218 38.564 488.858 38.564ZM497.353 38.672H506.173V39.488H497.353V38.672ZM496.873 45.848H506.713V46.664H496.873V45.848ZM501.277 44.12H502.261V46.16H501.277V44.12ZM501.769 40.208C502.497 40.208 503.125 40.292 503.653 40.46C504.189 40.62 504.601 40.852 504.889 41.156C505.177 41.46 505.321 41.832 505.321 42.272C505.321 42.704 505.177 43.076 504.889 43.388C504.601 43.7 504.189 43.94 503.653 44.108C503.125 44.268 502.497 44.348 501.769 44.348C501.041 44.348 500.409 44.268 499.873 44.108C499.345 43.94 498.937 43.7 498.649 43.388C498.361 43.076 498.217 42.704 498.217 42.272C498.217 41.832 498.361 41.46 498.649 41.156C498.937 40.852 499.345 40.62 499.873 40.46C500.409 40.292 501.041 40.208 501.769 40.208ZM501.769 41C501.241 41 500.785 41.052 500.401 41.156C500.025 41.252 499.733 41.396 499.525 41.588C499.325 41.772 499.225 42 499.225 42.272C499.225 42.536 499.325 42.764 499.525 42.956C499.733 43.148 500.025 43.296 500.401 43.4C500.785 43.496 501.241 43.544 501.769 43.544C502.297 43.544 502.749 43.496 503.125 43.4C503.501 43.296 503.793 43.148 504.001 42.956C504.209 42.764 504.313 42.536 504.313 42.272C504.313 42 504.209 41.772 504.001 41.588C503.793 41.396 503.501 41.252 503.125 41.156C502.749 41.052 502.297 41 501.769 41ZM501.277 37.256H502.261V39.164H501.277V37.256ZM510.721 43.544H511.717V45.308H510.721V43.544ZM515.281 37.076H516.277V47.936H515.281V37.076ZM515.965 41.684H517.969V42.524H515.965V41.684ZM507.937 45.872L507.781 45.032C508.437 45.032 509.149 45.028 509.917 45.02C510.693 45.004 511.485 44.972 512.293 44.924C513.101 44.876 513.881 44.8 514.633 44.696L514.705 45.428C513.929 45.564 513.137 45.664 512.329 45.728C511.529 45.792 510.753 45.832 510.001 45.848C509.257 45.864 508.569 45.872 507.937 45.872ZM507.973 38.396H514.453V39.2H507.973V38.396ZM511.225 39.824C511.729 39.824 512.173 39.908 512.557 40.076C512.941 40.244 513.241 40.48 513.457 40.784C513.673 41.08 513.781 41.432 513.781 41.84C513.781 42.24 513.673 42.592 513.457 42.896C513.241 43.2 512.941 43.436 512.557 43.604C512.173 43.764 511.729 43.844 511.225 43.844C510.721 43.844 510.273 43.764 509.881 43.604C509.497 43.436 509.197 43.2 508.981 42.896C508.773 42.592 508.669 42.24 508.669 41.84C508.669 41.432 508.773 41.08 508.981 40.784C509.197 40.48 509.497 40.244 509.881 40.076C510.273 39.908 510.721 39.824 511.225 39.824ZM511.225 40.604C510.737 40.604 510.345 40.716 510.049 40.94C509.753 41.164 509.605 41.464 509.605 41.84C509.605 42.208 509.753 42.504 510.049 42.728C510.345 42.952 510.737 43.064 511.225 43.064C511.705 43.064 512.093 42.952 512.389 42.728C512.685 42.504 512.833 42.208 512.833 41.84C512.833 41.464 512.685 41.164 512.389 40.94C512.093 40.716 511.705 40.604 511.225 40.604ZM510.721 37.1H511.717V38.924H510.721V37.1ZM519.972 40.628H525.204V41.432H519.972V40.628ZM522.06 41.12H523.056V43.28H522.06V41.12ZM519.972 37.784H525.12V38.6H520.968V40.976H519.972V37.784ZM526.836 37.088H527.832V45.2H526.836V37.088ZM520.812 46.88H528.192V47.696H520.812V46.88ZM520.812 44.66H521.808V47.228H520.812V44.66ZM519.144 43.832L519 43.016C519.696 43.008 520.44 42.996 521.232 42.98C522.024 42.964 522.824 42.936 523.632 42.896C524.44 42.848 525.216 42.784 525.96 42.704L526.032 43.436C525.264 43.54 524.476 43.624 523.668 43.688C522.868 43.744 522.08 43.784 521.304 43.808C520.536 43.824 519.816 43.832 519.144 43.832ZM494.301 57.932H501.753V58.736H494.301V57.932ZM493.041 60.704H502.881V61.532H493.041V60.704ZM494.301 53.012H501.645V53.828H495.309V58.172H494.301V53.012ZM494.997 55.424H501.405V56.228H494.997V55.424ZM504.44 59.504H505.148C505.812 59.504 506.46 59.488 507.092 59.456C507.724 59.416 508.404 59.336 509.132 59.216L509.228 60.032C508.476 60.168 507.776 60.256 507.128 60.296C506.488 60.328 505.828 60.344 505.148 60.344H504.44V59.504ZM504.416 53.252H508.472V57.068H505.4V59.816H504.44V56.252H507.512V54.08H504.416V53.252ZM512.336 52.076H513.284V62.936H512.336V52.076ZM510.5 56.36H512.588V57.176H510.5V56.36ZM509.876 52.316H510.8V62.372H509.876V52.316ZM515.6 52.952H521.432V53.78H515.6V52.952ZM515.42 58.004L515.3 57.164C515.94 57.164 516.636 57.16 517.388 57.152C518.148 57.136 518.92 57.108 519.704 57.068C520.488 57.028 521.236 56.968 521.948 56.888L522.02 57.632C521.284 57.744 520.528 57.828 519.752 57.884C518.976 57.932 518.216 57.964 517.472 57.98C516.728 57.996 516.044 58.004 515.42 58.004ZM516.668 53.54H517.628V57.464H516.668V53.54ZM519.392 53.54H520.364V57.464H519.392V53.54ZM516.764 59.204H524.012V62.936H523.016V60.02H516.764V59.204ZM523.016 52.076H524.012V58.664H523.016V52.076Z" fill="#171717"/>
<path d="M291.5 70L281.5 64.2265V75.7735L291.5 70ZM179 70L189 75.7735V64.2265L179 70ZM282.5 70V69L188 69V70V71L282.5 71V70Z" fill="#A3A3A3"/>
<path d="M220.262 38.076H221.258V44.34H220.262V38.076ZM220.982 40.74H222.854V41.556H220.982V40.74ZM214.442 44.868H221.258V48.792H214.442V44.868ZM220.274 45.672H215.414V47.976H220.274V45.672ZM215.858 38.724C216.41 38.724 216.898 38.832 217.322 39.048C217.746 39.264 218.078 39.564 218.318 39.948C218.566 40.332 218.69 40.776 218.69 41.28C218.69 41.792 218.566 42.24 218.318 42.624C218.078 43 217.746 43.296 217.322 43.512C216.898 43.728 216.41 43.836 215.858 43.836C215.322 43.836 214.838 43.728 214.406 43.512C213.982 43.296 213.646 43 213.398 42.624C213.15 42.24 213.026 41.792 213.026 41.28C213.026 40.776 213.15 40.332 213.398 39.948C213.646 39.564 213.982 39.264 214.406 39.048C214.838 38.832 215.322 38.724 215.858 38.724ZM215.858 39.564C215.506 39.564 215.19 39.64 214.91 39.792C214.63 39.936 214.406 40.136 214.238 40.392C214.078 40.648 213.998 40.944 213.998 41.28C213.998 41.624 214.078 41.924 214.238 42.18C214.406 42.436 214.63 42.636 214.91 42.78C215.19 42.924 215.506 42.996 215.858 42.996C216.218 42.996 216.538 42.924 216.818 42.78C217.098 42.636 217.318 42.436 217.478 42.18C217.646 41.924 217.73 41.624 217.73 41.28C217.73 40.944 217.646 40.648 217.478 40.392C217.318 40.136 217.098 39.936 216.818 39.792C216.538 39.64 216.218 39.564 215.858 39.564ZM224.353 39.672H233.173V40.488H224.353V39.672ZM223.873 46.848H233.713V47.664H223.873V46.848ZM228.277 45.12H229.261V47.16H228.277V45.12ZM228.769 41.208C229.497 41.208 230.125 41.292 230.653 41.46C231.189 41.62 231.601 41.852 231.889 42.156C232.177 42.46 232.321 42.832 232.321 43.272C232.321 43.704 232.177 44.076 231.889 44.388C231.601 44.7 231.189 44.94 230.653 45.108C230.125 45.268 229.497 45.348 228.769 45.348C228.041 45.348 227.409 45.268 226.873 45.108C226.345 44.94 225.937 44.7 225.649 44.388C225.361 44.076 225.217 43.704 225.217 43.272C225.217 42.832 225.361 42.46 225.649 42.156C225.937 41.852 226.345 41.62 226.873 41.46C227.409 41.292 228.041 41.208 228.769 41.208ZM228.769 42C228.241 42 227.785 42.052 227.401 42.156C227.025 42.252 226.733 42.396 226.525 42.588C226.325 42.772 226.225 43 226.225 43.272C226.225 43.536 226.325 43.764 226.525 43.956C226.733 44.148 227.025 44.296 227.401 44.4C227.785 44.496 228.241 44.544 228.769 44.544C229.297 44.544 229.749 44.496 230.125 44.4C230.501 44.296 230.793 44.148 231.001 43.956C231.209 43.764 231.313 43.536 231.313 43.272C231.313 43 231.209 42.772 231.001 42.588C230.793 42.396 230.501 42.252 230.125 42.156C229.749 42.052 229.297 42 228.769 42ZM228.277 38.256H229.261V40.164H228.277V38.256ZM237.721 44.544H238.717V46.308H237.721V44.544ZM242.281 38.076H243.277V48.936H242.281V38.076ZM242.965 42.684H244.969V43.524H242.965V42.684ZM234.937 46.872L234.781 46.032C235.437 46.032 236.149 46.028 236.917 46.02C237.693 46.004 238.485 45.972 239.293 45.924C240.101 45.876 240.881 45.8 241.633 45.696L241.705 46.428C240.929 46.564 240.137 46.664 239.329 46.728C238.529 46.792 237.753 46.832 237.001 46.848C236.257 46.864 235.569 46.872 234.937 46.872ZM234.973 39.396H241.453V40.2H234.973V39.396ZM238.225 40.824C238.729 40.824 239.173 40.908 239.557 41.076C239.941 41.244 240.241 41.48 240.457 41.784C240.673 42.08 240.781 42.432 240.781 42.84C240.781 43.24 240.673 43.592 240.457 43.896C240.241 44.2 239.941 44.436 239.557 44.604C239.173 44.764 238.729 44.844 238.225 44.844C237.721 44.844 237.273 44.764 236.881 44.604C236.497 44.436 236.197 44.2 235.981 43.896C235.773 43.592 235.669 43.24 235.669 42.84C235.669 42.432 235.773 42.08 235.981 41.784C236.197 41.48 236.497 41.244 236.881 41.076C237.273 40.908 237.721 40.824 238.225 40.824ZM238.225 41.604C237.737 41.604 237.345 41.716 237.049 41.94C236.753 42.164 236.605 42.464 236.605 42.84C236.605 43.208 236.753 43.504 237.049 43.728C237.345 43.952 237.737 44.064 238.225 44.064C238.705 44.064 239.093 43.952 239.389 43.728C239.685 43.504 239.833 43.208 239.833 42.84C239.833 42.464 239.685 42.164 239.389 41.94C239.093 41.716 238.705 41.604 238.225 41.604ZM237.721 38.1H238.717V39.924H237.721V38.1ZM246.972 41.628H252.204V42.432H246.972V41.628ZM249.06 42.12H250.056V44.28H249.06V42.12ZM246.972 38.784H252.12V39.6H247.968V41.976H246.972V38.784ZM253.836 38.088H254.832V46.2H253.836V38.088ZM247.812 47.88H255.192V48.696H247.812V47.88ZM247.812 45.66H248.808V48.228H247.812V45.66ZM246.144 44.832L246 44.016C246.696 44.008 247.44 43.996 248.232 43.98C249.024 43.964 249.824 43.936 250.632 43.896C251.44 43.848 252.216 43.784 252.96 43.704L253.032 44.436C252.264 44.54 251.476 44.624 250.668 44.688C249.868 44.744 249.08 44.784 248.304 44.808C247.536 44.824 246.816 44.832 246.144 44.832ZM221.301 58.932H228.753V59.736H221.301V58.932ZM220.041 61.704H229.881V62.532H220.041V61.704ZM221.301 54.012H228.645V54.828H222.309V59.172H221.301V54.012ZM221.997 56.424H228.405V57.228H221.997V56.424ZM231.44 60.504H232.148C232.812 60.504 233.46 60.488 234.092 60.456C234.724 60.416 235.404 60.336 236.132 60.216L236.228 61.032C235.476 61.168 234.776 61.256 234.128 61.296C233.488 61.328 232.828 61.344 232.148 61.344H231.44V60.504ZM231.416 54.252H235.472V58.068H232.4V60.816H231.44V57.252H234.512V55.08H231.416V54.252ZM239.336 53.076H240.284V63.936H239.336V53.076ZM237.5 57.36H239.588V58.176H237.5V57.36ZM236.876 53.316H237.8V63.372H236.876V53.316ZM242.6 53.952H248.432V54.78H242.6V53.952ZM242.42 59.004L242.3 58.164C242.94 58.164 243.636 58.16 244.388 58.152C245.148 58.136 245.92 58.108 246.704 58.068C247.488 58.028 248.236 57.968 248.948 57.888L249.02 58.632C248.284 58.744 247.528 58.828 246.752 58.884C245.976 58.932 245.216 58.964 244.472 58.98C243.728 58.996 243.044 59.004 242.42 59.004ZM243.668 54.54H244.628V58.464H243.668V54.54ZM246.392 54.54H247.364V58.464H246.392V54.54ZM243.764 60.204H251.012V63.936H250.016V61.02H243.764V60.204ZM250.016 53.076H251.012V59.664H250.016V53.076Z" fill="#171717"/>
<defs>
<linearGradient id="paint0_linear_38_269" x1="410" y1="68.3436" x2="410" y2="79.9306" gradientUnits="userSpaceOnUse">
<stop stop-color="#4AD8AC"/>
<stop offset="1" stop-color="#4076C4"/>
</linearGradient>
<linearGradient id="paint1_linear_38_269" x1="136" y1="68.3436" x2="136" y2="79.9306" gradientUnits="userSpaceOnUse">
<stop stop-color="#4AD8AC"/>
<stop offset="1" stop-color="#4076C4"/>
</linearGradient>
<linearGradient id="paint2_linear_38_269" x1="683" y1="68.3436" x2="683" y2="79.9306" gradientUnits="userSpaceOnUse">
<stop stop-color="#4AD8AC"/>
<stop offset="1" stop-color="#4076C4"/>
</linearGradient>
</defs>
</svg>
