<svg version="1.2" xmlns="http://www.w3.org/2000/svg" viewBox="130 205 570 115">
	<style>
		.s0 { fill: #000000 }
	</style>
	<g id="Layer 1">
		<g id="logo">
			<path class="s0" d="m170.65 309.15h24.09v-59.4h-24.09z"/>
			<path class="s0" d="m224.72 211.09h-84.05v20.85h84.05z"/>
			<path fill-rule="evenodd" class="s0" d="m340.51 260.12c0 28.16-20.31 50.99-49.73 50.99-29.42 0-49.73-22.83-49.73-50.99 0-28.16 20.31-50.99 49.73-50.99 29.42 0 49.73 22.83 49.73 50.99zm-24.09 0c0-14.43-8.55-29.98-25.64-29.98-17.09 0-25.64 15.55-25.64 29.98 0 14.43 8.55 29.98 25.64 29.98 17.09 0 25.64-15.55 25.64-29.98z"/>
			<path class="s0" d="m404.32 211.09h-38.22v20.59h21.41 0.81 12.92c17.23 0 29.41 11.63 29.41 28.44 0 16.81-12.18 28.44-29.41 28.44h-12.92-0.81-21.41v20.59h38.22c29.28 0 50.43-21.29 50.43-49.03 0-27.74-21.15-49.03-50.43-49.03z"/>
			<path class="s0" d="m540.28 231.96h27.87v-20.87h-83.15v20.87h55.28z"/>
			<path class="s0" d="m485 309.15h84.27v-20.73h-84.27z"/>
			<path class="s0" d="m566.33 249.76h-26.05v0.01h-55.28v19.99h81.33z"/>
			<path class="s0" d="m650.37 235.04l5.08 14.76h22.71l-15.04-38.71h-25.5l-15.04 38.71h22.71z"/>
			<path class="s0" d="m685.55 268.8h-23.55-23.26-23.54l-15.68 40.35h25.21l6.73-19.47h37.82l6.73 19.47h25.21z"/>
		</g>
	</g>
</svg>
