<svg width="543" height="271" viewBox="0 0 543 271" fill="none" xmlns="http://www.w3.org/2000/svg">
<path d="M142 52.75L142.484 52.7559C152.616 53.0128 160.75 61.3066 160.75 71.5C160.75 81.8553 152.355 90.25 142 90.25H19C8.64466 90.25 0.25 81.8553 0.25 71.5C0.25 61.1447 8.64466 52.75 19 52.75H142Z" fill="#F7F7F7" stroke="#D4D4D4" stroke-width="0.5"/>
<path d="M73.8807 67.2727L76.1307 70.9034H76.1989L78.4489 67.2727H79.6932L76.9489 71.6364L79.6932 76H78.4489L76.1989 72.4375H76.1307L73.8807 76H72.6364L75.4489 71.6364L72.6364 67.2727H73.8807ZM81.0685 76V67.2727H84.0174C84.6992 67.2727 85.2589 67.3892 85.6964 67.6222C86.1339 67.8523 86.4577 68.169 86.668 68.5724C86.8782 68.9759 86.9833 69.4347 86.9833 69.9489C86.9833 70.4631 86.8782 70.919 86.668 71.3168C86.4577 71.7145 86.1353 72.027 85.7006 72.2543C85.266 72.4787 84.7106 72.5909 84.0344 72.5909H81.6481V71.6364H84.0004C84.4663 71.6364 84.8413 71.5682 85.1254 71.4318C85.4123 71.2955 85.6197 71.1023 85.7475 70.8523C85.8782 70.5994 85.9435 70.2983 85.9435 69.9489C85.9435 69.5994 85.8782 69.294 85.7475 69.0327C85.6168 68.7713 85.408 68.5696 85.1211 68.4276C84.8342 68.2827 84.4549 68.2102 83.9833 68.2102H82.1254V76H81.0685ZM85.1765 72.0795L87.3242 76H86.0969L83.9833 72.0795H85.1765Z" fill="#171717"/>
<path d="M142 112.75L142.484 112.756C152.616 113.013 160.75 121.307 160.75 131.5C160.75 141.855 152.355 150.25 142 150.25H19C8.64466 150.25 0.25 141.855 0.25 131.5C0.25 121.145 8.64466 112.75 19 112.75H142Z" fill="#DBEAFE" stroke="#D4D4D4" stroke-width="0.5"/>
<path d="M49.666 136H46.9728V127.273H49.7853C50.6319 127.273 51.3564 127.447 51.9586 127.797C52.5609 128.143 53.0225 128.642 53.3436 129.293C53.6646 129.94 53.8251 130.716 53.8251 131.619C53.8251 132.528 53.6632 133.311 53.3393 133.967C53.0154 134.621 52.5439 135.124 51.9245 135.476C51.3052 135.825 50.5524 136 49.666 136ZM48.0297 135.062H49.5978C50.3194 135.062 50.9174 134.923 51.3919 134.645C51.8663 134.366 52.22 133.97 52.4529 133.456C52.6859 132.942 52.8024 132.33 52.8024 131.619C52.8024 130.915 52.6873 130.308 52.4572 129.8C52.2271 129.288 51.8833 128.896 51.426 128.624C50.9686 128.348 50.399 128.21 49.7172 128.21H48.0297V135.062ZM58.2058 136.136C57.5751 136.136 57.0311 135.997 56.5737 135.719C56.1191 135.438 55.7683 135.045 55.5211 134.543C55.2768 134.037 55.1547 133.449 55.1547 132.778C55.1547 132.108 55.2768 131.517 55.5211 131.006C55.7683 130.491 56.112 130.091 56.5524 129.804C56.9956 129.514 57.5126 129.369 58.1035 129.369C58.4444 129.369 58.7811 129.426 59.1135 129.54C59.4458 129.653 59.7484 129.838 60.0211 130.094C60.2939 130.347 60.5112 130.682 60.6731 131.099C60.835 131.517 60.916 132.031 60.916 132.642V133.068H55.8706V132.199H59.8933C59.8933 131.83 59.8194 131.5 59.6717 131.21C59.5268 130.92 59.3194 130.692 59.0495 130.524C58.7825 130.357 58.4672 130.273 58.1035 130.273C57.7029 130.273 57.3564 130.372 57.0637 130.571C56.774 130.767 56.551 131.023 56.3947 131.338C56.2385 131.653 56.1603 131.991 56.1603 132.352V132.932C56.1603 133.426 56.2456 133.845 56.416 134.189C56.5893 134.53 56.8294 134.79 57.1362 134.969C57.443 135.145 57.7995 135.233 58.2058 135.233C58.47 135.233 58.7086 135.196 58.9217 135.122C59.1376 135.045 59.3237 134.932 59.4799 134.781C59.6362 134.628 59.7569 134.437 59.8422 134.21L60.8137 134.483C60.7115 134.812 60.5396 135.102 60.2981 135.352C60.0566 135.599 59.7583 135.793 59.4032 135.932C59.0481 136.068 58.649 136.136 58.2058 136.136ZM62.4458 138.455V129.455H63.4174V130.494H63.5368C63.6106 130.381 63.7129 130.236 63.8436 130.06C63.9771 129.881 64.1674 129.722 64.4146 129.582C64.6646 129.44 65.0027 129.369 65.4288 129.369C65.9799 129.369 66.4657 129.507 66.8862 129.783C67.3066 130.058 67.6348 130.449 67.8706 130.955C68.1064 131.46 68.2243 132.057 68.2243 132.744C68.2243 133.438 68.1064 134.038 67.8706 134.547C67.6348 135.053 67.3081 135.445 66.8904 135.723C66.4728 135.999 65.9913 136.136 65.4458 136.136C65.0254 136.136 64.6887 136.067 64.4359 135.928C64.1831 135.786 63.9885 135.625 63.8521 135.446C63.7157 135.264 63.6106 135.114 63.5368 134.994H63.4515V138.455H62.4458ZM63.4345 132.727C63.4345 133.222 63.5069 133.658 63.6518 134.036C63.7967 134.411 64.0083 134.705 64.2868 134.918C64.5652 135.128 64.9061 135.233 65.3095 135.233C65.7299 135.233 66.0808 135.122 66.362 134.901C66.6461 134.676 66.8592 134.375 67.0012 133.997C67.1461 133.616 67.2186 133.193 67.2186 132.727C67.2186 132.267 67.1475 131.852 67.0055 131.483C66.8663 131.111 66.6547 130.817 66.3706 130.601C66.0893 130.382 65.7356 130.273 65.3095 130.273C64.9004 130.273 64.5566 130.376 64.2782 130.584C63.9998 130.788 63.7896 131.075 63.6475 131.445C63.5055 131.811 63.4345 132.239 63.4345 132.727ZM70.764 127.273V136H69.7583V127.273H70.764ZM75.2651 136.136C74.6742 136.136 74.1557 135.996 73.7097 135.714C73.2665 135.433 72.9199 135.04 72.6699 134.534C72.4228 134.028 72.2992 133.437 72.2992 132.761C72.2992 132.08 72.4228 131.484 72.6699 130.976C72.9199 130.467 73.2665 130.072 73.7097 129.791C74.1557 129.51 74.6742 129.369 75.2651 129.369C75.856 129.369 76.373 129.51 76.8162 129.791C77.2623 130.072 77.6088 130.467 77.856 130.976C78.106 131.484 78.231 132.08 78.231 132.761C78.231 133.437 78.106 134.028 77.856 134.534C77.6088 135.04 77.2623 135.433 76.8162 135.714C76.373 135.996 75.856 136.136 75.2651 136.136ZM75.2651 135.233C75.714 135.233 76.0833 135.118 76.373 134.888C76.6628 134.658 76.8773 134.355 77.0165 133.98C77.1557 133.605 77.2253 133.199 77.2253 132.761C77.2253 132.324 77.1557 131.916 77.0165 131.538C76.8773 131.161 76.6628 130.855 76.373 130.622C76.0833 130.389 75.714 130.273 75.2651 130.273C74.8162 130.273 74.4469 130.389 74.1571 130.622C73.8674 130.855 73.6529 131.161 73.5137 131.538C73.3745 131.916 73.3049 132.324 73.3049 132.761C73.3049 133.199 73.3745 133.605 73.5137 133.98C73.6529 134.355 73.8674 134.658 74.1571 134.888C74.4469 135.118 74.8162 135.233 75.2651 135.233ZM80.1795 138.455C80.0091 138.455 79.8571 138.44 79.7235 138.412C79.59 138.386 79.4977 138.361 79.4466 138.335L79.7022 137.449C79.9466 137.511 80.1625 137.534 80.35 137.517C80.5375 137.5 80.7037 137.416 80.8485 137.266C80.9963 137.118 81.1312 136.878 81.2534 136.545L81.4409 136.034L79.0204 129.455H80.1113L81.9181 134.67H81.9863L83.7931 129.455H84.8841L82.1056 136.955C81.9806 137.293 81.8258 137.572 81.6412 137.794C81.4565 138.018 81.242 138.185 80.9977 138.293C80.7562 138.401 80.4835 138.455 80.1795 138.455ZM86.2115 136V129.455H87.1831V130.477H87.2683C87.4047 130.128 87.6248 129.857 87.9288 129.663C88.2328 129.467 88.5978 129.369 89.024 129.369C89.4558 129.369 89.8152 129.467 90.1021 129.663C90.3919 129.857 90.6177 130.128 90.7797 130.477H90.8478C91.0154 130.139 91.2669 129.871 91.6021 129.672C91.9373 129.47 92.3393 129.369 92.8081 129.369C93.3933 129.369 93.872 129.553 94.2441 129.919C94.6163 130.283 94.8024 130.849 94.8024 131.619V136H93.7967V131.619C93.7967 131.136 93.6646 130.791 93.4004 130.584C93.1362 130.376 92.8251 130.273 92.4672 130.273C92.0069 130.273 91.6504 130.412 91.3976 130.69C91.1447 130.966 91.0183 131.315 91.0183 131.739V136H89.9956V131.517C89.9956 131.145 89.8748 130.845 89.6333 130.618C89.3919 130.388 89.0808 130.273 88.7001 130.273C88.4387 130.273 88.1944 130.342 87.9672 130.482C87.7427 130.621 87.5609 130.814 87.4217 131.061C87.2853 131.305 87.2172 131.588 87.2172 131.909V136H86.2115ZM99.3855 136.136C98.7548 136.136 98.2108 135.997 97.7534 135.719C97.2988 135.438 96.948 135.045 96.7008 134.543C96.4565 134.037 96.3343 133.449 96.3343 132.778C96.3343 132.108 96.4565 131.517 96.7008 131.006C96.948 130.491 97.2917 130.091 97.7321 129.804C98.1752 129.514 98.6923 129.369 99.2832 129.369C99.6241 129.369 99.9608 129.426 100.293 129.54C100.626 129.653 100.928 129.838 101.201 130.094C101.474 130.347 101.691 130.682 101.853 131.099C102.015 131.517 102.096 132.031 102.096 132.642V133.068H97.0502V132.199H101.073C101.073 131.83 100.999 131.5 100.851 131.21C100.706 130.92 100.499 130.692 100.229 130.524C99.9622 130.357 99.6468 130.273 99.2832 130.273C98.8826 130.273 98.536 130.372 98.2434 130.571C97.9537 130.767 97.7306 131.023 97.5744 131.338C97.4181 131.653 97.34 131.991 97.34 132.352V132.932C97.34 133.426 97.4252 133.845 97.5957 134.189C97.769 134.53 98.0091 134.79 98.3159 134.969C98.6227 135.145 98.9792 135.233 99.3855 135.233C99.6497 135.233 99.8883 135.196 100.101 135.122C100.317 135.045 100.503 134.932 100.66 134.781C100.816 134.628 100.937 134.437 101.022 134.21L101.993 134.483C101.891 134.812 101.719 135.102 101.478 135.352C101.236 135.599 100.938 135.793 100.583 135.932C100.228 136.068 99.8287 136.136 99.3855 136.136ZM104.631 132.062V136H103.626V129.455H104.597V130.477H104.682C104.836 130.145 105.069 129.878 105.381 129.676C105.694 129.472 106.097 129.369 106.591 129.369C107.035 129.369 107.422 129.46 107.755 129.642C108.087 129.821 108.346 130.094 108.53 130.46C108.715 130.824 108.807 131.284 108.807 131.841V136H107.802V131.909C107.802 131.395 107.668 130.994 107.401 130.707C107.134 130.418 106.768 130.273 106.302 130.273C105.981 130.273 105.694 130.342 105.441 130.482C105.191 130.621 104.993 130.824 104.849 131.091C104.704 131.358 104.631 131.682 104.631 132.062ZM113.492 129.455V130.307H110.1V129.455H113.492ZM111.088 127.886H112.094V134.125C112.094 134.409 112.135 134.622 112.218 134.764C112.303 134.903 112.411 134.997 112.541 135.045C112.675 135.091 112.816 135.114 112.963 135.114C113.074 135.114 113.165 135.108 113.236 135.097C113.307 135.082 113.364 135.071 113.406 135.062L113.611 135.966C113.543 135.991 113.448 136.017 113.325 136.043C113.203 136.071 113.048 136.085 112.861 136.085C112.577 136.085 112.298 136.024 112.026 135.902C111.756 135.78 111.531 135.594 111.352 135.344C111.176 135.094 111.088 134.778 111.088 134.398V127.886Z" fill="#171717"/>
<path d="M142 172.75L142.484 172.756C152.616 173.013 160.75 181.307 160.75 191.5C160.75 201.855 152.355 210.25 142 210.25H19C8.64466 210.25 0.25 201.855 0.25 191.5C0.25 181.145 8.64466 172.75 19 172.75H142Z" fill="#DBEAFE" stroke="#D4D4D4" stroke-width="0.5"/>
<path d="M64.5717 189.455C64.5206 189.023 64.3132 188.688 63.9496 188.449C63.5859 188.21 63.1399 188.091 62.6115 188.091C62.2251 188.091 61.8871 188.153 61.5973 188.278C61.3104 188.403 61.0859 188.575 60.924 188.794C60.7649 189.013 60.6854 189.261 60.6854 189.54C60.6854 189.773 60.7408 189.973 60.8516 190.141C60.9652 190.305 61.1101 190.443 61.2862 190.554C61.4624 190.662 61.647 190.751 61.8402 190.822C62.0334 190.891 62.2109 190.946 62.3729 190.989L63.2592 191.227C63.4865 191.287 63.7393 191.369 64.0178 191.474C64.299 191.58 64.5675 191.723 64.8232 191.905C65.0817 192.084 65.2947 192.314 65.4624 192.595C65.63 192.876 65.7138 193.222 65.7138 193.631C65.7138 194.102 65.5902 194.528 65.343 194.909C65.0987 195.29 64.7408 195.592 64.2692 195.817C63.8004 196.041 63.2308 196.153 62.5604 196.153C61.9354 196.153 61.3942 196.053 60.9368 195.851C60.4822 195.649 60.1243 195.368 59.8629 195.007C59.6044 194.646 59.4581 194.227 59.424 193.75H60.5149C60.5433 194.08 60.6541 194.352 60.8473 194.568C61.0433 194.781 61.2905 194.94 61.5888 195.045C61.8899 195.148 62.2138 195.199 62.5604 195.199C62.9638 195.199 63.326 195.134 63.647 195.003C63.968 194.869 64.2223 194.685 64.4098 194.449C64.5973 194.21 64.6911 193.932 64.6911 193.614C64.6911 193.324 64.6101 193.088 64.4482 192.906C64.2862 192.724 64.0732 192.577 63.8089 192.463C63.5447 192.349 63.2592 192.25 62.9524 192.165L61.8786 191.858C61.1967 191.662 60.657 191.382 60.2592 191.018C59.8615 190.655 59.6626 190.179 59.6626 189.591C59.6626 189.102 59.7947 188.676 60.0589 188.312C60.326 187.946 60.6839 187.662 61.1328 187.46C61.5845 187.256 62.0888 187.153 62.6456 187.153C63.2081 187.153 63.7081 187.254 64.1456 187.456C64.5831 187.655 64.9297 187.928 65.1854 188.274C65.4439 188.621 65.5803 189.014 65.5945 189.455H64.5717ZM70.0593 196.136C69.4286 196.136 68.8846 195.997 68.4272 195.719C67.9727 195.438 67.6218 195.045 67.3746 194.543C67.1303 194.037 67.0082 193.449 67.0082 192.778C67.0082 192.108 67.1303 191.517 67.3746 191.006C67.6218 190.491 67.9656 190.091 68.4059 189.804C68.8491 189.514 69.3661 189.369 69.957 189.369C70.2979 189.369 70.6346 189.426 70.967 189.54C71.2994 189.653 71.6019 189.838 71.8746 190.094C72.1474 190.347 72.3647 190.682 72.5266 191.099C72.6886 191.517 72.7695 192.031 72.7695 192.642V193.068H67.7241V192.199H71.7468C71.7468 191.83 71.6729 191.5 71.5252 191.21C71.3803 190.92 71.1729 190.692 70.9031 190.524C70.636 190.357 70.3207 190.273 69.957 190.273C69.5565 190.273 69.2099 190.372 68.9173 190.571C68.6275 190.767 68.4045 191.023 68.2482 191.338C68.092 191.653 68.0138 191.991 68.0138 192.352V192.932C68.0138 193.426 68.0991 193.845 68.2695 194.189C68.4428 194.53 68.6829 194.79 68.9897 194.969C69.2965 195.145 69.6531 195.233 70.0593 195.233C70.3235 195.233 70.5621 195.196 70.7752 195.122C70.9911 195.045 71.1772 194.932 71.3335 194.781C71.4897 194.628 71.6104 194.437 71.6957 194.21L72.6673 194.483C72.565 194.812 72.3931 195.102 72.1516 195.352C71.9102 195.599 71.6119 195.793 71.2567 195.932C70.9016 196.068 70.5025 196.136 70.0593 196.136ZM74.2994 196V189.455H75.271V190.443H75.3391C75.4585 190.119 75.6744 189.857 75.9869 189.655C76.2994 189.453 76.6516 189.352 77.0437 189.352C77.1175 189.352 77.2099 189.354 77.3207 189.357C77.4315 189.359 77.5153 189.364 77.5721 189.369V190.392C77.538 190.384 77.4599 190.371 77.3377 190.354C77.2184 190.334 77.092 190.324 76.9585 190.324C76.6403 190.324 76.3562 190.391 76.1062 190.524C75.859 190.655 75.663 190.837 75.5181 191.07C75.3761 191.3 75.305 191.562 75.305 191.858V196H74.2994ZM84.3157 189.455L81.8952 196H80.8725L78.4521 189.455H79.543L81.3498 194.67H81.418L83.2248 189.455H84.3157ZM85.6431 196V189.455H86.6488V196H85.6431ZM86.1545 188.364C85.9585 188.364 85.7894 188.297 85.6474 188.163C85.5082 188.03 85.4386 187.869 85.4386 187.682C85.4386 187.494 85.5082 187.334 85.6474 187.2C85.7894 187.067 85.9585 187 86.1545 187C86.3505 187 86.5181 187.067 86.6573 187.2C86.7994 187.334 86.8704 187.494 86.8704 187.682C86.8704 187.869 86.7994 188.03 86.6573 188.163C86.5181 188.297 86.3505 188.364 86.1545 188.364ZM91.1499 196.136C90.5362 196.136 90.0078 195.991 89.5646 195.702C89.1214 195.412 88.7805 195.013 88.5419 194.504C88.3033 193.996 88.1839 193.415 88.1839 192.761C88.1839 192.097 88.3061 191.51 88.5504 191.001C88.7976 190.49 89.1413 190.091 89.5817 189.804C90.0249 189.514 90.5419 189.369 91.1328 189.369C91.593 189.369 92.0078 189.455 92.3771 189.625C92.7464 189.795 93.049 190.034 93.2848 190.341C93.5206 190.648 93.6669 191.006 93.7237 191.415H92.718C92.6413 191.116 92.4709 190.852 92.2067 190.622C91.9453 190.389 91.593 190.273 91.1499 190.273C90.7578 190.273 90.4141 190.375 90.1186 190.58C89.826 190.781 89.5973 191.067 89.4325 191.436C89.2706 191.803 89.1896 192.233 89.1896 192.727C89.1896 193.233 89.2692 193.673 89.4283 194.048C89.5902 194.423 89.8175 194.714 90.1101 194.922C90.4055 195.129 90.7521 195.233 91.1499 195.233C91.4112 195.233 91.6484 195.188 91.8615 195.097C92.0746 195.006 92.255 194.875 92.4027 194.705C92.5504 194.534 92.6555 194.33 92.718 194.091H93.7237C93.6669 194.477 93.5263 194.825 93.3018 195.135C93.0803 195.442 92.7862 195.686 92.4197 195.868C92.0561 196.047 91.6328 196.136 91.1499 196.136ZM97.9382 196.136C97.3075 196.136 96.7635 195.997 96.3061 195.719C95.8516 195.438 95.5007 195.045 95.2536 194.543C95.0092 194.037 94.8871 193.449 94.8871 192.778C94.8871 192.108 95.0092 191.517 95.2536 191.006C95.5007 190.491 95.8445 190.091 96.2848 189.804C96.728 189.514 97.245 189.369 97.8359 189.369C98.1768 189.369 98.5135 189.426 98.8459 189.54C99.1783 189.653 99.4808 189.838 99.7536 190.094C100.026 190.347 100.244 190.682 100.406 191.099C100.567 191.517 100.648 192.031 100.648 192.642V193.068H95.603V192.199H99.6257C99.6257 191.83 99.5518 191.5 99.4041 191.21C99.2592 190.92 99.0518 190.692 98.782 190.524C98.5149 190.357 98.1996 190.273 97.8359 190.273C97.4354 190.273 97.0888 190.372 96.7962 190.571C96.5064 190.767 96.2834 191.023 96.1271 191.338C95.9709 191.653 95.8928 191.991 95.8928 192.352V192.932C95.8928 193.426 95.978 193.845 96.1484 194.189C96.3217 194.53 96.5618 194.79 96.8686 194.969C97.1754 195.145 97.532 195.233 97.9382 195.233C98.2024 195.233 98.4411 195.196 98.6541 195.122C98.87 195.045 99.0561 194.932 99.2124 194.781C99.3686 194.628 99.4893 194.437 99.5746 194.21L100.546 194.483C100.444 194.812 100.272 195.102 100.031 195.352C99.7891 195.599 99.4908 195.793 99.1357 195.932C98.7805 196.068 98.3814 196.136 97.9382 196.136Z" fill="#171717"/>
<path d="M142 232.75L142.484 232.756C152.616 233.013 160.75 241.307 160.75 251.5C160.75 261.855 152.355 270.25 142 270.25H19C8.64466 270.25 0.25 261.855 0.25 251.5C0.25 241.145 8.64466 232.75 19 232.75H142Z" fill="#DBEAFE" stroke="#D4D4D4" stroke-width="0.5"/>
<path d="M71.881 247.273H73.1424L76.1083 254.517H76.2106L79.1765 247.273H80.4379V256H79.4492V249.369H79.364L76.6367 256H75.6822L72.9549 249.369H72.8697V256H71.881V247.273ZM82.5568 256V247.273H85.5057C86.1875 247.273 86.7472 247.389 87.1847 247.622C87.6222 247.852 87.946 248.169 88.1562 248.572C88.3665 248.976 88.4716 249.435 88.4716 249.949C88.4716 250.463 88.3665 250.919 88.1562 251.317C87.946 251.714 87.6236 252.027 87.1889 252.254C86.7543 252.479 86.1989 252.591 85.5227 252.591H83.1364V251.636H85.4886C85.9545 251.636 86.3295 251.568 86.6136 251.432C86.9006 251.295 87.108 251.102 87.2358 250.852C87.3665 250.599 87.4318 250.298 87.4318 249.949C87.4318 249.599 87.3665 249.294 87.2358 249.033C87.1051 248.771 86.8963 248.57 86.6094 248.428C86.3224 248.283 85.9432 248.21 85.4716 248.21H83.6136V256H82.5568ZM86.6648 252.08L88.8125 256H87.5852L85.4716 252.08H86.6648Z" fill="#171717"/>
<rect x="350" y="0.5" width="192" height="216" rx="18.5" fill="white" stroke="#D4D4D4"/>
<path d="M511 52.75C521.355 52.75 529.75 61.1447 529.75 71.5C529.75 81.8553 521.355 90.25 511 90.25H379C368.645 90.25 360.25 81.8553 360.25 71.5C360.25 61.1447 368.645 52.75 379 52.75H511Z" fill="#F7F7F7" stroke="#D4D4D4" stroke-width="0.5"/>
<path d="M417.363 68.944H419.895V69.772H417.363V68.944ZM416.355 66.7H417.399C417.399 67.62 417.223 68.456 416.871 69.208C416.519 69.952 415.979 70.6 415.251 71.152C414.531 71.704 413.607 72.156 412.479 72.508L412.083 71.704C413.083 71.408 413.895 71.036 414.519 70.588C415.151 70.132 415.615 69.608 415.911 69.016C416.207 68.424 416.355 67.78 416.355 67.084V66.7ZM412.563 66.7H416.943V67.516H412.563V66.7ZM416.343 68.668V69.376L412.191 69.688L412.023 68.872L416.343 68.668ZM419.727 66.088H420.723V72.328H419.727V66.088ZM413.727 72.916H420.723V76.792H413.727V72.916ZM419.739 73.72H414.699V75.976H419.739V73.72ZM422.834 74.752H432.674V75.592H422.834V74.752ZM427.226 71.944H428.21V75.124H427.226V71.944ZM423.698 67.12H431.75V67.936H423.698V67.12ZM423.722 71.488H431.726V72.28H423.722V71.488ZM425.378 67.768H426.374V71.62H425.378V67.768ZM429.074 67.768H430.058V71.62H429.074V67.768ZM436.741 67.636H437.557V69.388C437.557 69.964 437.477 70.532 437.317 71.092C437.157 71.644 436.933 72.168 436.645 72.664C436.365 73.152 436.037 73.584 435.661 73.96C435.285 74.336 434.881 74.632 434.449 74.848L433.873 74.056C434.265 73.864 434.633 73.604 434.977 73.276C435.329 72.948 435.637 72.572 435.901 72.148C436.165 71.724 436.369 71.276 436.513 70.804C436.665 70.332 436.741 69.86 436.741 69.388V67.636ZM436.945 67.636H437.749V69.388C437.749 69.844 437.821 70.3 437.965 70.756C438.117 71.204 438.325 71.628 438.589 72.028C438.861 72.42 439.169 72.768 439.513 73.072C439.865 73.376 440.241 73.616 440.641 73.792L440.089 74.584C439.649 74.376 439.237 74.096 438.853 73.744C438.469 73.392 438.133 72.988 437.845 72.532C437.565 72.068 437.345 71.572 437.185 71.044C437.025 70.508 436.945 69.956 436.945 69.388V67.636ZM434.221 67.192H440.281V68.02H434.221V67.192ZM441.757 66.076H442.753V76.936H441.757V66.076ZM450.661 67.684H453.097V68.5H450.661V67.684ZM450.661 69.904H453.097V70.72H450.661V69.904ZM447.637 66.688H448.441V68.068C448.441 68.78 448.317 69.448 448.069 70.072C447.821 70.688 447.473 71.228 447.025 71.692C446.585 72.148 446.065 72.5 445.465 72.748L444.937 71.956C445.345 71.796 445.713 71.588 446.041 71.332C446.369 71.068 446.649 70.764 446.881 70.42C447.121 70.076 447.305 69.708 447.433 69.316C447.569 68.916 447.637 68.5 447.637 68.068V66.688ZM447.817 66.688H448.621V68.068C448.621 68.468 448.681 68.856 448.801 69.232C448.929 69.608 449.109 69.96 449.341 70.288C449.573 70.616 449.849 70.908 450.169 71.164C450.497 71.42 450.853 71.624 451.237 71.776L450.685 72.556C450.117 72.324 449.617 71.984 449.185 71.536C448.753 71.08 448.417 70.556 448.177 69.964C447.937 69.372 447.817 68.74 447.817 68.068V66.688ZM452.845 66.088H453.841V74.188H452.845V66.088ZM446.869 75.88H454.093V76.696H446.869V75.88ZM446.869 73.36H447.865V76.312H446.869V73.36ZM463.935 69.172H465.783V70H463.935V69.172ZM461.895 66.928C462.375 66.928 462.799 67.04 463.167 67.264C463.535 67.488 463.827 67.8 464.043 68.2C464.259 68.592 464.367 69.048 464.367 69.568C464.367 70.08 464.259 70.536 464.043 70.936C463.827 71.328 463.535 71.636 463.167 71.86C462.799 72.084 462.375 72.196 461.895 72.196C461.415 72.196 460.991 72.084 460.623 71.86C460.255 71.636 459.963 71.328 459.747 70.936C459.539 70.536 459.435 70.08 459.435 69.568C459.435 69.048 459.539 68.592 459.747 68.2C459.963 67.8 460.255 67.488 460.623 67.264C460.991 67.04 461.415 66.928 461.895 66.928ZM461.895 67.78C461.599 67.78 461.331 67.856 461.091 68.008C460.859 68.16 460.675 68.372 460.539 68.644C460.403 68.908 460.335 69.216 460.335 69.568C460.335 69.912 460.403 70.22 460.539 70.492C460.675 70.756 460.859 70.964 461.091 71.116C461.331 71.268 461.599 71.344 461.895 71.344C462.191 71.344 462.459 71.268 462.699 71.116C462.939 70.964 463.127 70.756 463.263 70.492C463.399 70.22 463.467 69.912 463.467 69.568C463.467 69.216 463.399 68.908 463.263 68.644C463.127 68.372 462.939 68.16 462.699 68.008C462.459 67.856 462.191 67.78 461.895 67.78ZM467.523 66.076H468.471V74.2H467.523V66.076ZM465.471 66.292H466.407V73.888H465.471V66.292ZM461.391 75.88H468.795V76.696H461.391V75.88ZM461.391 73.156H462.387V76.252H461.391V73.156ZM473.258 67.264H474.086V68.38C474.086 69.044 473.958 69.66 473.702 70.228C473.446 70.796 473.086 71.296 472.622 71.728C472.166 72.152 471.634 72.472 471.026 72.688L470.51 71.908C471.054 71.708 471.53 71.432 471.938 71.08C472.354 70.728 472.678 70.32 472.91 69.856C473.142 69.384 473.258 68.892 473.258 68.38V67.264ZM473.45 67.264H474.266V68.38C474.266 68.748 474.33 69.104 474.458 69.448C474.594 69.784 474.786 70.1 475.034 70.396C475.282 70.684 475.57 70.94 475.898 71.164C476.234 71.388 476.602 71.564 477.002 71.692L476.498 72.472C475.898 72.264 475.37 71.96 474.914 71.56C474.458 71.16 474.098 70.688 473.834 70.144C473.578 69.6 473.45 69.012 473.45 68.38V67.264ZM470.774 66.976H476.714V67.792H470.774V66.976ZM478.262 66.088H479.258V74.032H478.262V66.088ZM472.286 75.88H479.594V76.696H472.286V75.88ZM472.286 73.288H473.282V76.24H472.286V73.288Z" fill="#171717"/>
<path d="M511 154.75C521.355 154.75 529.75 163.145 529.75 173.5C529.75 183.855 521.355 192.25 511 192.25H379C368.645 192.25 360.25 183.855 360.25 173.5C360.25 163.145 368.645 154.75 379 154.75H511Z" fill="#F7F7F7" stroke="#D4D4D4" stroke-width="0.5"/>
<path d="M413.704 168.076H414.7V174.616H413.704V168.076ZM414.424 170.956H416.296V171.796H414.424V170.956ZM407.884 175.228H414.7V178.792H407.884V175.228ZM413.716 176.032H408.856V177.976H413.716V176.032ZM406.3 169.228H412.708V170.032H406.3V169.228ZM409.504 170.572C410.024 170.572 410.476 170.652 410.86 170.812C411.252 170.972 411.556 171.2 411.772 171.496C411.988 171.784 412.096 172.12 412.096 172.504C412.096 172.896 411.988 173.236 411.772 173.524C411.556 173.812 411.252 174.036 410.86 174.196C410.476 174.356 410.024 174.436 409.504 174.436C408.984 174.436 408.528 174.356 408.136 174.196C407.752 174.036 407.448 173.812 407.224 173.524C407.008 173.236 406.9 172.896 406.9 172.504C406.9 172.12 407.008 171.784 407.224 171.496C407.448 171.2 407.752 170.972 408.136 170.812C408.528 170.652 408.984 170.572 409.504 170.572ZM409.504 171.34C409.008 171.34 408.608 171.444 408.304 171.652C408.008 171.86 407.86 172.144 407.86 172.504C407.86 172.864 408.008 173.152 408.304 173.368C408.608 173.576 409.008 173.68 409.504 173.68C409.992 173.68 410.388 173.576 410.692 173.368C410.996 173.152 411.148 172.864 411.148 172.504C411.148 172.144 410.996 171.86 410.692 171.652C410.396 171.444 410 171.34 409.504 171.34ZM409.012 167.992H410.008V169.636H409.012V167.992ZM421.707 168.46H422.583V169.072C422.583 169.488 422.503 169.88 422.343 170.248C422.183 170.608 421.963 170.94 421.683 171.244C421.411 171.548 421.091 171.82 420.723 172.06C420.355 172.3 419.955 172.5 419.523 172.66C419.099 172.82 418.663 172.936 418.215 173.008L417.807 172.204C418.207 172.148 418.595 172.052 418.971 171.916C419.355 171.78 419.711 171.616 420.039 171.424C420.367 171.224 420.655 171 420.903 170.752C421.159 170.504 421.355 170.24 421.491 169.96C421.635 169.672 421.707 169.376 421.707 169.072V168.46ZM421.875 168.46H422.739V169.072C422.739 169.376 422.811 169.668 422.955 169.948C423.099 170.228 423.295 170.492 423.543 170.74C423.799 170.988 424.091 171.212 424.419 171.412C424.747 171.612 425.099 171.78 425.475 171.916C425.859 172.052 426.247 172.148 426.639 172.204L426.243 173.008C425.795 172.936 425.359 172.82 424.935 172.66C424.511 172.492 424.111 172.288 423.735 172.048C423.367 171.808 423.043 171.536 422.763 171.232C422.491 170.928 422.275 170.596 422.115 170.236C421.955 169.868 421.875 169.48 421.875 169.072V168.46ZM421.707 174.808H422.691V178.936H421.707V174.808ZM417.315 174.184H427.119V175.012H417.315V174.184ZM431.861 169.24H437.909V170.056H431.861V169.24ZM431.717 176.248L431.597 175.408C432.245 175.408 432.953 175.404 433.721 175.396C434.489 175.38 435.277 175.352 436.085 175.312C436.893 175.264 437.665 175.196 438.401 175.108L438.461 175.852C437.709 175.972 436.933 176.06 436.133 176.116C435.333 176.172 434.553 176.208 433.793 176.224C433.041 176.24 432.349 176.248 431.717 176.248ZM433.025 169.864H433.997V175.636H433.025V169.864ZM435.773 169.864H436.733V175.636H435.773V169.864ZM439.073 168.076H440.069V178.936H439.073V168.076ZM439.841 172.42H441.845V173.248H439.841V172.42ZM450.652 168.076H451.648V178.948H450.652V168.076ZM445.924 168.916C446.46 168.916 446.932 169.072 447.34 169.384C447.756 169.688 448.08 170.124 448.312 170.692C448.552 171.26 448.672 171.928 448.672 172.696C448.672 173.464 448.552 174.132 448.312 174.7C448.08 175.268 447.756 175.708 447.34 176.02C446.932 176.332 446.46 176.488 445.924 176.488C445.388 176.488 444.912 176.332 444.496 176.02C444.08 175.708 443.752 175.268 443.512 174.7C443.28 174.132 443.164 173.464 443.164 172.696C443.164 171.928 443.28 171.26 443.512 170.692C443.752 170.124 444.08 169.688 444.496 169.384C444.912 169.072 445.388 168.916 445.924 168.916ZM445.924 169.804C445.564 169.804 445.248 169.924 444.976 170.164C444.712 170.396 444.504 170.732 444.352 171.172C444.2 171.604 444.124 172.112 444.124 172.696C444.124 173.28 444.2 173.792 444.352 174.232C444.504 174.664 444.712 175 444.976 175.24C445.248 175.48 445.564 175.6 445.924 175.6C446.276 175.6 446.584 175.48 446.848 175.24C447.12 175 447.332 174.664 447.484 174.232C447.636 173.792 447.712 173.28 447.712 172.696C447.712 172.112 447.636 171.604 447.484 171.172C447.332 170.732 447.12 170.396 446.848 170.164C446.584 169.924 446.276 169.804 445.924 169.804ZM453.807 176.704H463.647V177.544H453.807V176.704ZM454.671 169.168H462.723V169.984H454.671V169.168ZM454.695 173.74H462.699V174.556H454.695V173.74ZM456.351 169.912H457.347V173.836H456.351V169.912ZM460.047 169.912H461.031V173.836H460.047V169.912ZM472.202 168.076H473.186V178.948H472.202V168.076ZM472.958 172.384H474.962V173.224H472.958V172.384ZM465.29 175.492H466.154C466.826 175.492 467.442 175.484 468.002 175.468C468.57 175.444 469.118 175.408 469.646 175.36C470.174 175.304 470.71 175.224 471.254 175.12L471.35 175.936C470.79 176.04 470.242 176.12 469.706 176.176C469.178 176.232 468.626 176.272 468.05 176.296C467.474 176.32 466.842 176.332 466.154 176.332H465.29V175.492ZM465.266 169.084H470.162V172.984H466.274V175.828H465.29V172.156H469.178V169.9H465.266V169.084ZM483.781 168.088H484.777V176.008H483.781V168.088ZM477.805 177.88H485.113V178.696H477.805V177.88ZM477.805 175.204H478.801V178.156H477.805V175.204ZM478.957 168.844C479.501 168.844 479.985 168.956 480.409 169.18C480.833 169.404 481.169 169.72 481.417 170.128C481.665 170.528 481.789 170.988 481.789 171.508C481.789 172.028 481.665 172.492 481.417 172.9C481.169 173.3 480.833 173.616 480.409 173.848C479.985 174.072 479.501 174.184 478.957 174.184C478.421 174.184 477.937 174.072 477.505 173.848C477.081 173.616 476.745 173.3 476.497 172.9C476.249 172.492 476.125 172.028 476.125 171.508C476.125 170.988 476.249 170.528 476.497 170.128C476.745 169.72 477.081 169.404 477.505 169.18C477.937 168.956 478.421 168.844 478.957 168.844ZM478.957 169.708C478.605 169.708 478.289 169.784 478.009 169.936C477.729 170.088 477.505 170.3 477.337 170.572C477.177 170.844 477.097 171.156 477.097 171.508C477.097 171.868 477.177 172.184 477.337 172.456C477.505 172.72 477.729 172.928 478.009 173.08C478.289 173.232 478.605 173.308 478.957 173.308C479.309 173.308 479.625 173.232 479.905 173.08C480.193 172.928 480.417 172.72 480.577 172.456C480.737 172.184 480.817 171.868 480.817 171.508C480.817 171.156 480.737 170.844 480.577 170.572C480.417 170.3 480.193 170.088 479.905 169.936C479.625 169.784 479.309 169.708 478.957 169.708Z" fill="#171717"/>
<path d="M252.489 46.076H253.485V52.232H252.489V46.076ZM253.209 48.716H255.081V49.544H253.209V48.716ZM249.477 46.784H250.533C250.533 47.696 250.329 48.52 249.921 49.256C249.521 49.984 248.941 50.608 248.181 51.128C247.421 51.648 246.509 52.056 245.445 52.352L245.049 51.548C245.993 51.3 246.793 50.964 247.449 50.54C248.105 50.108 248.605 49.612 248.949 49.052C249.301 48.492 249.477 47.88 249.477 47.216V46.784ZM245.529 46.784H250.041V47.588H245.529V46.784ZM246.645 52.736H253.485V56.78H246.645V52.736ZM252.501 53.552H247.629V55.976H252.501V53.552ZM258.956 47.012H259.784V48.956C259.784 49.58 259.704 50.188 259.544 50.78C259.392 51.364 259.172 51.912 258.884 52.424C258.604 52.928 258.272 53.376 257.888 53.768C257.512 54.152 257.1 54.456 256.652 54.68L256.04 53.852C256.448 53.668 256.828 53.404 257.18 53.06C257.532 52.716 257.84 52.328 258.104 51.896C258.368 51.456 258.576 50.984 258.728 50.48C258.88 49.976 258.956 49.468 258.956 48.956V47.012ZM259.124 47.012H259.952V48.956C259.952 49.452 260.024 49.94 260.168 50.42C260.32 50.9 260.528 51.356 260.792 51.788C261.064 52.212 261.372 52.588 261.716 52.916C262.068 53.236 262.444 53.488 262.844 53.672L262.244 54.464C261.804 54.256 261.396 53.964 261.02 53.588C260.644 53.212 260.312 52.78 260.024 52.292C259.744 51.804 259.524 51.276 259.364 50.708C259.204 50.14 259.124 49.556 259.124 48.956V47.012ZM263.984 46.076H264.98V56.948H263.984V46.076Z" fill="#171717"/>
<path d="M414.621 127V118.273H417.57C418.252 118.273 418.812 118.389 419.249 118.622C419.687 118.852 420.01 119.169 420.221 119.572C420.431 119.976 420.536 120.435 420.536 120.949C420.536 121.463 420.431 121.919 420.221 122.317C420.01 122.714 419.688 123.027 419.253 123.254C418.819 123.479 418.263 123.591 417.587 123.591H415.201V122.636H417.553C418.019 122.636 418.394 122.568 418.678 122.432C418.965 122.295 419.172 122.102 419.3 121.852C419.431 121.599 419.496 121.298 419.496 120.949C419.496 120.599 419.431 120.294 419.3 120.033C419.17 119.771 418.961 119.57 418.674 119.428C418.387 119.283 418.008 119.21 417.536 119.21H415.678V127H414.621ZM418.729 123.08L420.877 127H419.65L417.536 123.08H418.729ZM426.286 124.324V120.455H427.291V127H426.286V125.892H426.218C426.064 126.224 425.825 126.507 425.502 126.74C425.178 126.97 424.769 127.085 424.274 127.085C423.865 127.085 423.502 126.996 423.183 126.817C422.865 126.635 422.615 126.362 422.433 125.999C422.252 125.632 422.161 125.17 422.161 124.614V120.455H423.166V124.545C423.166 125.023 423.3 125.403 423.567 125.688C423.837 125.972 424.181 126.114 424.598 126.114C424.848 126.114 425.102 126.05 425.361 125.922C425.622 125.794 425.841 125.598 426.017 125.334C426.196 125.07 426.286 124.733 426.286 124.324ZM430.139 123.062V127H429.133V120.455H430.105V121.477H430.19C430.344 121.145 430.577 120.878 430.889 120.676C431.202 120.472 431.605 120.369 432.099 120.369C432.542 120.369 432.93 120.46 433.263 120.642C433.595 120.821 433.854 121.094 434.038 121.46C434.223 121.824 434.315 122.284 434.315 122.841V127H433.309V122.909C433.309 122.395 433.176 121.994 432.909 121.707C432.642 121.418 432.275 121.273 431.809 121.273C431.488 121.273 431.202 121.342 430.949 121.482C430.699 121.621 430.501 121.824 430.356 122.091C430.211 122.358 430.139 122.682 430.139 123.062ZM436.289 127V118.273H441.522V119.21H437.346V122.159H441.13V123.097H437.346V127H436.289ZM446.911 124.324V120.455H447.916V127H446.911V125.892H446.843C446.689 126.224 446.45 126.507 446.127 126.74C445.803 126.97 445.394 127.085 444.899 127.085C444.49 127.085 444.127 126.996 443.808 126.817C443.49 126.635 443.24 126.362 443.058 125.999C442.877 125.632 442.786 125.17 442.786 124.614V120.455H443.791V124.545C443.791 125.023 443.925 125.403 444.192 125.688C444.462 125.972 444.806 126.114 445.223 126.114C445.473 126.114 445.727 126.05 445.986 125.922C446.247 125.794 446.466 125.598 446.642 125.334C446.821 125.07 446.911 124.733 446.911 124.324ZM450.764 123.062V127H449.758V120.455H450.73V121.477H450.815C450.969 121.145 451.202 120.878 451.514 120.676C451.827 120.472 452.23 120.369 452.724 120.369C453.167 120.369 453.555 120.46 453.888 120.642C454.22 120.821 454.479 121.094 454.663 121.46C454.848 121.824 454.94 122.284 454.94 122.841V127H453.934V122.909C453.934 122.395 453.801 121.994 453.534 121.707C453.267 121.418 452.9 121.273 452.434 121.273C452.113 121.273 451.827 121.342 451.574 121.482C451.324 121.621 451.126 121.824 450.981 122.091C450.836 122.358 450.764 122.682 450.764 123.062ZM459.437 127.136C458.823 127.136 458.295 126.991 457.852 126.702C457.409 126.412 457.068 126.013 456.829 125.504C456.59 124.996 456.471 124.415 456.471 123.761C456.471 123.097 456.593 122.51 456.838 122.001C457.085 121.49 457.428 121.091 457.869 120.804C458.312 120.514 458.829 120.369 459.42 120.369C459.88 120.369 460.295 120.455 460.664 120.625C461.034 120.795 461.336 121.034 461.572 121.341C461.808 121.648 461.954 122.006 462.011 122.415H461.005C460.928 122.116 460.758 121.852 460.494 121.622C460.232 121.389 459.88 121.273 459.437 121.273C459.045 121.273 458.701 121.375 458.406 121.58C458.113 121.781 457.884 122.067 457.72 122.436C457.558 122.803 457.477 123.233 457.477 123.727C457.477 124.233 457.556 124.673 457.715 125.048C457.877 125.423 458.105 125.714 458.397 125.922C458.693 126.129 459.039 126.233 459.437 126.233C459.698 126.233 459.936 126.188 460.149 126.097C460.362 126.006 460.542 125.875 460.69 125.705C460.838 125.534 460.943 125.33 461.005 125.091H462.011C461.954 125.477 461.813 125.825 461.589 126.135C461.367 126.442 461.073 126.686 460.707 126.868C460.343 127.047 459.92 127.136 459.437 127.136ZM466.328 120.455V121.307H462.936V120.455H466.328ZM463.924 118.886H464.93V125.125C464.93 125.409 464.971 125.622 465.053 125.764C465.139 125.903 465.247 125.997 465.377 126.045C465.511 126.091 465.651 126.114 465.799 126.114C465.91 126.114 466.001 126.108 466.072 126.097C466.143 126.082 466.2 126.071 466.242 126.062L466.447 126.966C466.379 126.991 466.284 127.017 466.161 127.043C466.039 127.071 465.884 127.085 465.697 127.085C465.413 127.085 465.134 127.024 464.862 126.902C464.592 126.78 464.367 126.594 464.188 126.344C464.012 126.094 463.924 125.778 463.924 125.398V118.886ZM467.84 127V120.455H468.846V127H467.84ZM468.352 119.364C468.156 119.364 467.987 119.297 467.845 119.163C467.705 119.03 467.636 118.869 467.636 118.682C467.636 118.494 467.705 118.334 467.845 118.2C467.987 118.067 468.156 118 468.352 118C468.548 118 468.715 118.067 468.855 118.2C468.997 118.334 469.068 118.494 469.068 118.682C469.068 118.869 468.997 119.03 468.855 119.163C468.715 119.297 468.548 119.364 468.352 119.364ZM473.347 127.136C472.756 127.136 472.238 126.996 471.792 126.714C471.349 126.433 471.002 126.04 470.752 125.534C470.505 125.028 470.381 124.437 470.381 123.761C470.381 123.08 470.505 122.484 470.752 121.976C471.002 121.467 471.349 121.072 471.792 120.791C472.238 120.51 472.756 120.369 473.347 120.369C473.938 120.369 474.455 120.51 474.898 120.791C475.344 121.072 475.691 121.467 475.938 121.976C476.188 122.484 476.313 123.08 476.313 123.761C476.313 124.437 476.188 125.028 475.938 125.534C475.691 126.04 475.344 126.433 474.898 126.714C474.455 126.996 473.938 127.136 473.347 127.136ZM473.347 126.233C473.796 126.233 474.165 126.118 474.455 125.888C474.745 125.658 474.959 125.355 475.099 124.98C475.238 124.605 475.307 124.199 475.307 123.761C475.307 123.324 475.238 122.916 475.099 122.538C474.959 122.161 474.745 121.855 474.455 121.622C474.165 121.389 473.796 121.273 473.347 121.273C472.898 121.273 472.529 121.389 472.239 121.622C471.949 121.855 471.735 122.161 471.596 122.538C471.456 122.916 471.387 123.324 471.387 123.761C471.387 124.199 471.456 124.605 471.596 124.98C471.735 125.355 471.949 125.658 472.239 125.888C472.529 126.118 472.898 126.233 473.347 126.233ZM478.854 123.062V127H477.848V120.455H478.82V121.477H478.905C479.058 121.145 479.291 120.878 479.604 120.676C479.916 120.472 480.32 120.369 480.814 120.369C481.257 120.369 481.645 120.46 481.977 120.642C482.31 120.821 482.568 121.094 482.753 121.46C482.938 121.824 483.03 122.284 483.03 122.841V127H482.024V122.909C482.024 122.395 481.891 121.994 481.624 121.707C481.357 121.418 480.99 121.273 480.524 121.273C480.203 121.273 479.916 121.342 479.664 121.482C479.414 121.621 479.216 121.824 479.071 122.091C478.926 122.358 478.854 122.682 478.854 123.062ZM485.004 127V118.273H487.953C488.635 118.273 489.194 118.389 489.632 118.622C490.069 118.852 490.393 119.169 490.604 119.572C490.814 119.976 490.919 120.435 490.919 120.949C490.919 121.463 490.814 121.919 490.604 122.317C490.393 122.714 490.071 123.027 489.636 123.254C489.202 123.479 488.646 123.591 487.97 123.591H485.584V122.636H487.936C488.402 122.636 488.777 122.568 489.061 122.432C489.348 122.295 489.555 122.102 489.683 121.852C489.814 121.599 489.879 121.298 489.879 120.949C489.879 120.599 489.814 120.294 489.683 120.033C489.552 119.771 489.344 119.57 489.057 119.428C488.77 119.283 488.39 119.21 487.919 119.21H486.061V127H485.004ZM489.112 123.08L491.26 127H490.032L487.919 123.08H489.112ZM495.218 127.136C494.587 127.136 494.043 126.997 493.585 126.719C493.131 126.438 492.78 126.045 492.533 125.543C492.289 125.037 492.166 124.449 492.166 123.778C492.166 123.108 492.289 122.517 492.533 122.006C492.78 121.491 493.124 121.091 493.564 120.804C494.007 120.514 494.524 120.369 495.115 120.369C495.456 120.369 495.793 120.426 496.125 120.54C496.458 120.653 496.76 120.838 497.033 121.094C497.306 121.347 497.523 121.682 497.685 122.099C497.847 122.517 497.928 123.031 497.928 123.642V124.068H492.882V123.199H496.905C496.905 122.83 496.831 122.5 496.683 122.21C496.539 121.92 496.331 121.692 496.061 121.524C495.794 121.357 495.479 121.273 495.115 121.273C494.715 121.273 494.368 121.372 494.075 121.571C493.786 121.767 493.563 122.023 493.406 122.338C493.25 122.653 493.172 122.991 493.172 123.352V123.932C493.172 124.426 493.257 124.845 493.428 125.189C493.601 125.53 493.841 125.79 494.148 125.969C494.455 126.145 494.811 126.233 495.218 126.233C495.482 126.233 495.72 126.196 495.933 126.122C496.149 126.045 496.335 125.932 496.492 125.781C496.648 125.628 496.769 125.437 496.854 125.21L497.825 125.483C497.723 125.812 497.551 126.102 497.31 126.352C497.068 126.599 496.77 126.793 496.415 126.932C496.06 127.068 495.661 127.136 495.218 127.136ZM503.923 129.455V125.994H503.838C503.764 126.114 503.659 126.264 503.523 126.446C503.387 126.625 503.192 126.786 502.939 126.928C502.686 127.067 502.35 127.136 501.929 127.136C501.384 127.136 500.902 126.999 500.485 126.723C500.067 126.445 499.74 126.053 499.504 125.547C499.269 125.038 499.151 124.438 499.151 123.744C499.151 123.057 499.269 122.46 499.504 121.955C499.74 121.449 500.068 121.058 500.489 120.783C500.909 120.507 501.395 120.369 501.946 120.369C502.372 120.369 502.709 120.44 502.956 120.582C503.206 120.722 503.396 120.881 503.527 121.06C503.661 121.236 503.764 121.381 503.838 121.494H503.958V120.455H504.929V129.455H503.923ZM502.066 126.233C502.469 126.233 502.81 126.128 503.088 125.918C503.367 125.705 503.578 125.411 503.723 125.036C503.868 124.658 503.941 124.222 503.941 123.727C503.941 123.239 503.869 122.811 503.727 122.445C503.585 122.075 503.375 121.788 503.097 121.584C502.818 121.376 502.475 121.273 502.066 121.273C501.639 121.273 501.284 121.382 501 121.601C500.719 121.817 500.507 122.111 500.365 122.483C500.226 122.852 500.156 123.267 500.156 123.727C500.156 124.193 500.227 124.616 500.369 124.997C500.514 125.375 500.727 125.676 501.009 125.901C501.293 126.122 501.645 126.233 502.066 126.233ZM510.895 124.324V120.455H511.901V127H510.895V125.892H510.827C510.673 126.224 510.435 126.507 510.111 126.74C509.787 126.97 509.378 127.085 508.884 127.085C508.475 127.085 508.111 126.996 507.793 126.817C507.475 126.635 507.225 126.362 507.043 125.999C506.861 125.632 506.77 125.17 506.77 124.614V120.455H507.776V124.545C507.776 125.023 507.909 125.403 508.176 125.688C508.446 125.972 508.79 126.114 509.208 126.114C509.458 126.114 509.712 126.05 509.97 125.922C510.232 125.794 510.45 125.598 510.627 125.334C510.806 125.07 510.895 124.733 510.895 124.324ZM516.487 127.136C515.856 127.136 515.312 126.997 514.855 126.719C514.4 126.438 514.05 126.045 513.802 125.543C513.558 125.037 513.436 124.449 513.436 123.778C513.436 123.108 513.558 122.517 513.802 122.006C514.05 121.491 514.393 121.091 514.834 120.804C515.277 120.514 515.794 120.369 516.385 120.369C516.726 120.369 517.062 120.426 517.395 120.54C517.727 120.653 518.03 120.838 518.302 121.094C518.575 121.347 518.792 121.682 518.954 122.099C519.116 122.517 519.197 123.031 519.197 123.642V124.068H514.152V123.199H518.175C518.175 122.83 518.101 122.5 517.953 122.21C517.808 121.92 517.601 121.692 517.331 121.524C517.064 121.357 516.748 121.273 516.385 121.273C515.984 121.273 515.638 121.372 515.345 121.571C515.055 121.767 514.832 122.023 514.676 122.338C514.52 122.653 514.442 122.991 514.442 123.352V123.932C514.442 124.426 514.527 124.845 514.697 125.189C514.871 125.53 515.111 125.79 515.417 125.969C515.724 126.145 516.081 126.233 516.487 126.233C516.751 126.233 516.99 126.196 517.203 126.122C517.419 126.045 517.605 125.932 517.761 125.781C517.917 125.628 518.038 125.437 518.123 125.21L519.095 125.483C518.993 125.812 518.821 126.102 518.579 126.352C518.338 126.599 518.04 126.793 517.684 126.932C517.329 127.068 516.93 127.136 516.487 127.136ZM525.363 121.92L524.46 122.176C524.403 122.026 524.319 121.879 524.209 121.737C524.101 121.592 523.953 121.473 523.765 121.379C523.578 121.286 523.338 121.239 523.045 121.239C522.645 121.239 522.311 121.331 522.044 121.516C521.78 121.697 521.648 121.929 521.648 122.21C521.648 122.46 521.738 122.658 521.92 122.803C522.102 122.947 522.386 123.068 522.773 123.165L523.744 123.403C524.329 123.545 524.765 123.763 525.052 124.055C525.339 124.345 525.483 124.719 525.483 125.176C525.483 125.551 525.375 125.886 525.159 126.182C524.946 126.477 524.648 126.71 524.264 126.881C523.881 127.051 523.434 127.136 522.926 127.136C522.258 127.136 521.706 126.991 521.268 126.702C520.831 126.412 520.554 125.989 520.437 125.432L521.392 125.193C521.483 125.545 521.655 125.81 521.907 125.986C522.163 126.162 522.497 126.25 522.909 126.25C523.378 126.25 523.75 126.151 524.025 125.952C524.304 125.75 524.443 125.509 524.443 125.227C524.443 125 524.363 124.81 524.204 124.656C524.045 124.5 523.801 124.384 523.471 124.307L522.381 124.051C521.781 123.909 521.341 123.689 521.059 123.391C520.781 123.089 520.642 122.713 520.642 122.261C520.642 121.892 520.746 121.565 520.953 121.281C521.163 120.997 521.449 120.774 521.809 120.612C522.173 120.45 522.585 120.369 523.045 120.369C523.693 120.369 524.202 120.511 524.571 120.795C524.943 121.08 525.207 121.455 525.363 121.92ZM529.843 120.455V121.307H526.451V120.455H529.843ZM527.44 118.886H528.445V125.125C528.445 125.409 528.487 125.622 528.569 125.764C528.654 125.903 528.762 125.997 528.893 126.045C529.026 126.091 529.167 126.114 529.315 126.114C529.426 126.114 529.517 126.108 529.588 126.097C529.659 126.082 529.715 126.071 529.758 126.062L529.963 126.966C529.894 126.991 529.799 127.017 529.677 127.043C529.555 127.071 529.4 127.085 529.213 127.085C528.928 127.085 528.65 127.024 528.377 126.902C528.107 126.78 527.883 126.594 527.704 126.344C527.528 126.094 527.44 125.778 527.44 125.398V118.886Z" fill="black"/>
<path d="M416.769 17H415.712C415.65 16.696 415.54 16.429 415.384 16.1989C415.231 15.9688 415.043 15.7756 414.822 15.6193C414.603 15.4602 414.36 15.3409 414.093 15.2614C413.826 15.1818 413.547 15.142 413.258 15.142C412.729 15.142 412.251 15.2756 411.822 15.5426C411.395 15.8097 411.056 16.2031 410.803 16.723C410.553 17.2429 410.428 17.8807 410.428 18.6364C410.428 19.392 410.553 20.0298 410.803 20.5497C411.056 21.0696 411.395 21.4631 411.822 21.7301C412.251 21.9972 412.729 22.1307 413.258 22.1307C413.547 22.1307 413.826 22.0909 414.093 22.0114C414.36 21.9318 414.603 21.8139 414.822 21.6577C415.043 21.4986 415.231 21.304 415.384 21.0739C415.54 20.8409 415.65 20.5739 415.712 20.2727H416.769C416.689 20.7187 416.545 21.1179 416.334 21.4702C416.124 21.8224 415.863 22.1222 415.55 22.3693C415.238 22.6136 414.887 22.7997 414.498 22.9276C414.111 23.0554 413.698 23.1193 413.258 23.1193C412.513 23.1193 411.851 22.9375 411.272 22.5739C410.692 22.2102 410.236 21.6932 409.904 21.0227C409.572 20.3523 409.405 19.5568 409.405 18.6364C409.405 17.7159 409.572 16.9205 409.904 16.25C410.236 15.5795 410.692 15.0625 411.272 14.6989C411.851 14.3352 412.513 14.1534 413.258 14.1534C413.698 14.1534 414.111 14.2173 414.498 14.3452C414.887 14.473 415.238 14.6605 415.55 14.9077C415.863 15.152 416.124 15.4503 416.334 15.8026C416.545 16.152 416.689 16.5511 416.769 17ZM418.34 23V16.4545H419.312V17.4432H419.38C419.499 17.1193 419.715 16.8565 420.028 16.6548C420.34 16.4531 420.693 16.3523 421.085 16.3523C421.159 16.3523 421.251 16.3537 421.362 16.3565C421.472 16.3594 421.556 16.3636 421.613 16.3693V17.392C421.579 17.3835 421.501 17.3707 421.379 17.3537C421.259 17.3338 421.133 17.3239 420.999 17.3239C420.681 17.3239 420.397 17.3906 420.147 17.5241C419.9 17.6548 419.704 17.8366 419.559 18.0696C419.417 18.2997 419.346 18.5625 419.346 18.858V23H418.34ZM425.265 23.1364C424.674 23.1364 424.156 22.9957 423.71 22.7145C423.267 22.4332 422.92 22.0398 422.67 21.5341C422.423 21.0284 422.299 20.4375 422.299 19.7614C422.299 19.0795 422.423 18.4844 422.67 17.9759C422.92 17.4673 423.267 17.0724 423.71 16.7912C424.156 16.5099 424.674 16.3693 425.265 16.3693C425.856 16.3693 426.373 16.5099 426.816 16.7912C427.262 17.0724 427.609 17.4673 427.856 17.9759C428.106 18.4844 428.231 19.0795 428.231 19.7614C428.231 20.4375 428.106 21.0284 427.856 21.5341C427.609 22.0398 427.262 22.4332 426.816 22.7145C426.373 22.9957 425.856 23.1364 425.265 23.1364ZM425.265 22.233C425.714 22.233 426.083 22.1179 426.373 21.8878C426.663 21.6577 426.877 21.3551 427.017 20.9801C427.156 20.6051 427.225 20.1989 427.225 19.7614C427.225 19.3239 427.156 18.9162 427.017 18.5384C426.877 18.1605 426.663 17.8551 426.373 17.6222C426.083 17.3892 425.714 17.2727 425.265 17.2727C424.816 17.2727 424.447 17.3892 424.157 17.6222C423.867 17.8551 423.653 18.1605 423.514 18.5384C423.374 18.9162 423.305 19.3239 423.305 19.7614C423.305 20.1989 423.374 20.6051 423.514 20.9801C423.653 21.3551 423.867 21.6577 424.157 21.8878C424.447 22.1179 424.816 22.233 425.265 22.233ZM434.403 17.9205L433.499 18.1761C433.442 18.0256 433.358 17.8793 433.248 17.7372C433.14 17.5923 432.992 17.473 432.805 17.3793C432.617 17.2855 432.377 17.2386 432.084 17.2386C431.684 17.2386 431.35 17.331 431.083 17.5156C430.819 17.6974 430.687 17.929 430.687 18.2102C430.687 18.4602 430.778 18.6577 430.959 18.8026C431.141 18.9474 431.425 19.0682 431.812 19.1648L432.783 19.4034C433.368 19.5455 433.805 19.7628 434.091 20.0554C434.378 20.3452 434.522 20.7187 434.522 21.1761C434.522 21.5511 434.414 21.8864 434.198 22.1818C433.985 22.4773 433.687 22.7102 433.303 22.8807C432.92 23.0511 432.474 23.1364 431.965 23.1364C431.297 23.1364 430.745 22.9915 430.307 22.7017C429.87 22.4119 429.593 21.9886 429.476 21.4318L430.431 21.1932C430.522 21.5455 430.694 21.8097 430.947 21.9858C431.202 22.1619 431.536 22.25 431.948 22.25C432.417 22.25 432.789 22.1506 433.064 21.9517C433.343 21.75 433.482 21.5085 433.482 21.2273C433.482 21 433.403 20.8097 433.243 20.6562C433.084 20.5 432.84 20.3835 432.51 20.3068L431.42 20.0511C430.82 19.9091 430.38 19.6889 430.099 19.3906C429.82 19.0895 429.681 18.7131 429.681 18.2614C429.681 17.892 429.785 17.5653 429.992 17.2812C430.202 16.9972 430.488 16.7741 430.849 16.6122C431.212 16.4503 431.624 16.3693 432.084 16.3693C432.732 16.3693 433.241 16.5114 433.61 16.7955C433.982 17.0795 434.246 17.4545 434.403 17.9205ZM440.672 17.9205L439.769 18.1761C439.712 18.0256 439.628 17.8793 439.517 17.7372C439.409 17.5923 439.262 17.473 439.074 17.3793C438.887 17.2855 438.646 17.2386 438.354 17.2386C437.953 17.2386 437.619 17.331 437.352 17.5156C437.088 17.6974 436.956 17.929 436.956 18.2102C436.956 18.4602 437.047 18.6577 437.229 18.8026C437.411 18.9474 437.695 19.0682 438.081 19.1648L439.053 19.4034C439.638 19.5455 440.074 19.7628 440.361 20.0554C440.648 20.3452 440.791 20.7187 440.791 21.1761C440.791 21.5511 440.683 21.8864 440.468 22.1818C440.254 22.4773 439.956 22.7102 439.573 22.8807C439.189 23.0511 438.743 23.1364 438.235 23.1364C437.567 23.1364 437.014 22.9915 436.577 22.7017C436.139 22.4119 435.862 21.9886 435.746 21.4318L436.7 21.1932C436.791 21.5455 436.963 21.8097 437.216 21.9858C437.472 22.1619 437.806 22.25 438.218 22.25C438.686 22.25 439.058 22.1506 439.334 21.9517C439.612 21.75 439.752 21.5085 439.752 21.2273C439.752 21 439.672 20.8097 439.513 20.6562C439.354 20.5 439.11 20.3835 438.78 20.3068L437.689 20.0511C437.09 19.9091 436.649 19.6889 436.368 19.3906C436.09 19.0895 435.95 18.7131 435.95 18.2614C435.95 17.892 436.054 17.5653 436.262 17.2812C436.472 16.9972 436.757 16.7741 437.118 16.6122C437.482 16.4503 437.894 16.3693 438.354 16.3693C439.002 16.3693 439.51 16.5114 439.879 16.7955C440.252 17.0795 440.516 17.4545 440.672 17.9205ZM442.305 25.4545V16.4545H443.277V17.4943H443.396C443.47 17.3807 443.572 17.2358 443.703 17.0597C443.836 16.8807 444.027 16.7216 444.274 16.5824C444.524 16.4403 444.862 16.3693 445.288 16.3693C445.839 16.3693 446.325 16.5071 446.746 16.7827C447.166 17.0582 447.494 17.4489 447.73 17.9545C447.966 18.4602 448.084 19.0568 448.084 19.7443C448.084 20.4375 447.966 21.0384 447.73 21.5469C447.494 22.0526 447.167 22.4446 446.75 22.723C446.332 22.9986 445.851 23.1364 445.305 23.1364C444.885 23.1364 444.548 23.0668 444.295 22.9276C444.042 22.7855 443.848 22.625 443.711 22.446C443.575 22.2642 443.47 22.1136 443.396 21.9943H443.311V25.4545H442.305ZM443.294 19.7273C443.294 20.2216 443.366 20.6577 443.511 21.0355C443.656 21.4105 443.868 21.7045 444.146 21.9176C444.425 22.1278 444.765 22.233 445.169 22.233C445.589 22.233 445.94 22.1222 446.221 21.9006C446.506 21.6761 446.719 21.375 446.861 20.9972C447.006 20.6165 447.078 20.1932 447.078 19.7273C447.078 19.267 447.007 18.8523 446.865 18.483C446.726 18.1108 446.514 17.8168 446.23 17.6009C445.949 17.3821 445.595 17.2727 445.169 17.2727C444.76 17.2727 444.416 17.3764 444.138 17.5838C443.859 17.7884 443.649 18.0753 443.507 18.4446C443.365 18.8111 443.294 19.2386 443.294 19.7273ZM450.623 14.2727V23H449.618V14.2727H450.623ZM454.392 23.1534C453.977 23.1534 453.6 23.0753 453.262 22.919C452.924 22.7599 452.656 22.5312 452.457 22.233C452.258 21.9318 452.159 21.5682 452.159 21.142C452.159 20.767 452.232 20.4631 452.38 20.2301C452.528 19.9943 452.725 19.8097 452.972 19.6761C453.22 19.5426 453.492 19.4432 453.791 19.3778C454.092 19.3097 454.394 19.2557 454.698 19.2159C455.096 19.1648 455.419 19.1264 455.666 19.1009C455.916 19.0724 456.097 19.0256 456.211 18.9602C456.328 18.8949 456.386 18.7812 456.386 18.6193V18.5852C456.386 18.1648 456.271 17.8381 456.041 17.6051C455.813 17.3722 455.468 17.2557 455.005 17.2557C454.525 17.2557 454.149 17.3608 453.876 17.571C453.603 17.7812 453.411 18.0057 453.301 18.2443L452.346 17.9034C452.517 17.5057 452.744 17.196 453.028 16.9744C453.315 16.75 453.627 16.5937 453.965 16.5057C454.306 16.4148 454.642 16.3693 454.971 16.3693C455.181 16.3693 455.423 16.3949 455.695 16.446C455.971 16.4943 456.237 16.5952 456.492 16.7486C456.751 16.902 456.965 17.1335 457.136 17.4432C457.306 17.7528 457.392 18.1676 457.392 18.6875V23H456.386V22.1136H456.335C456.267 22.2557 456.153 22.4077 455.994 22.5696C455.835 22.7315 455.623 22.8693 455.359 22.983C455.095 23.0966 454.772 23.1534 454.392 23.1534ZM454.545 22.25C454.943 22.25 455.278 22.1719 455.551 22.0156C455.826 21.8594 456.034 21.6577 456.173 21.4105C456.315 21.1634 456.386 20.9034 456.386 20.6307V19.7102C456.343 19.7614 456.249 19.8082 456.105 19.8509C455.963 19.8906 455.798 19.9261 455.61 19.9574C455.426 19.9858 455.245 20.0114 455.069 20.0341C454.896 20.054 454.755 20.071 454.647 20.0852C454.386 20.1193 454.142 20.1747 453.914 20.2514C453.69 20.3253 453.508 20.4375 453.369 20.5881C453.232 20.7358 453.164 20.9375 453.164 21.1932C453.164 21.5426 453.294 21.8068 453.552 21.9858C453.813 22.1619 454.144 22.25 454.545 22.25ZM460.233 19.0625V23H459.227V16.4545H460.199V17.4773H460.284C460.437 17.1449 460.67 16.8778 460.983 16.6761C461.295 16.4716 461.699 16.3693 462.193 16.3693C462.636 16.3693 463.024 16.4602 463.356 16.642C463.689 16.821 463.947 17.0938 464.132 17.4602C464.317 17.8239 464.409 18.2841 464.409 18.8409V23H463.403V18.9091C463.403 18.3949 463.27 17.9943 463.003 17.7074C462.736 17.4176 462.369 17.2727 461.903 17.2727C461.582 17.2727 461.295 17.3423 461.042 17.4815C460.792 17.6207 460.595 17.8239 460.45 18.0909C460.305 18.358 460.233 18.6818 460.233 19.0625ZM468.991 23.1364C468.36 23.1364 467.816 22.9972 467.359 22.7188C466.904 22.4375 466.553 22.0455 466.306 21.5426C466.062 21.0369 465.94 20.4489 465.94 19.7784C465.94 19.108 466.062 18.517 466.306 18.0057C466.553 17.4915 466.897 17.0909 467.338 16.804C467.781 16.5142 468.298 16.3693 468.889 16.3693C469.23 16.3693 469.566 16.4261 469.899 16.5398C470.231 16.6534 470.534 16.8381 470.806 17.0938C471.079 17.3466 471.296 17.6818 471.458 18.0994C471.62 18.517 471.701 19.0312 471.701 19.642V20.0682H466.656V19.1989H470.678C470.678 18.8295 470.605 18.5 470.457 18.2102C470.312 17.9205 470.105 17.6918 469.835 17.5241C469.568 17.3565 469.252 17.2727 468.889 17.2727C468.488 17.2727 468.142 17.3722 467.849 17.571C467.559 17.767 467.336 18.0227 467.18 18.3381C467.024 18.6534 466.945 18.9915 466.945 19.3523V19.9318C466.945 20.4261 467.031 20.8452 467.201 21.1889C467.374 21.5298 467.615 21.7898 467.921 21.9688C468.228 22.1449 468.585 22.233 468.991 22.233C469.255 22.233 469.494 22.196 469.707 22.1222C469.923 22.0455 470.109 21.9318 470.265 21.7812C470.421 21.6278 470.542 21.4375 470.627 21.2102L471.599 21.483C471.497 21.8125 471.325 22.1023 471.083 22.3523C470.842 22.5994 470.544 22.7926 470.188 22.9318C469.833 23.0682 469.434 23.1364 468.991 23.1364Z" fill="#171717"/>
<path d="M275.863 171.375L276.257 170.66L277.035 171.089C277.61 171.405 278.087 171.815 278.468 172.317C278.853 172.812 279.125 173.363 279.283 173.971C279.435 174.575 279.464 175.194 279.371 175.828L278.428 175.897C278.495 175.478 278.502 175.066 278.45 174.663C278.402 174.253 278.301 173.864 278.148 173.496C277.987 173.125 277.78 172.796 277.526 172.51C277.266 172.221 276.971 171.985 276.641 171.804L275.863 171.375ZM275.956 171.207L276.35 170.492L277.117 170.915C277.524 171.139 277.972 171.262 278.461 171.285C278.944 171.304 279.432 171.222 279.927 171.037C280.414 170.849 280.867 170.574 281.286 170.211L281.726 171.029C281.251 171.443 280.729 171.744 280.159 171.933C279.59 172.122 279.007 172.193 278.411 172.148C277.818 172.096 277.256 171.923 276.723 171.63L275.956 171.207ZM278.848 169.539L280.011 167.426L280.736 167.826L279.573 169.938L278.848 169.539ZM274.385 173.314L277.181 168.237L277.895 168.631L275.099 173.708L274.385 173.314ZM280.577 175.204L284.074 168.855L287.385 170.679L286.904 171.552L284.308 170.122L281.292 175.598L280.577 175.204ZM277.392 166.312L277.872 165.44L283.559 168.572L283.078 169.444L277.392 166.312ZM283.281 163.255L283.762 162.383L285.549 163.367L285.068 164.239L283.281 163.255ZM285.203 159.766L285.678 158.904L287.465 159.888L286.99 160.75L285.203 159.766ZM283.589 166.178L288.319 157.591L289.023 157.979L284.293 166.566L283.589 166.178ZM287.381 162.677C287.94 161.661 288.522 160.945 289.126 160.529C289.729 160.112 290.301 160.053 290.841 160.35C291.387 160.651 291.646 161.168 291.617 161.901C291.595 162.637 291.304 163.514 290.744 164.53C290.185 165.546 289.597 166.264 288.983 166.683C288.379 167.1 287.804 167.157 287.257 166.856C286.718 166.559 286.462 166.044 286.492 165.311C286.525 164.571 286.821 163.693 287.381 162.677ZM288.053 163.048C287.779 163.545 287.582 163.994 287.463 164.394C287.347 164.787 287.314 165.12 287.364 165.394C287.407 165.664 287.533 165.857 287.743 165.973C287.968 166.097 288.209 166.106 288.467 166.002C288.719 165.894 288.979 165.686 289.25 165.378C289.523 165.063 289.797 164.657 290.071 164.159C290.345 163.662 290.54 163.217 290.656 162.824C290.776 162.424 290.814 162.089 290.772 161.819C290.722 161.545 290.584 161.346 290.36 161.222C290.15 161.106 289.919 161.103 289.668 161.211C289.409 161.315 289.143 161.525 288.869 161.84C288.599 162.148 288.327 162.55 288.053 163.048ZM281.431 159.401C281.809 158.714 282.206 158.16 282.62 157.74C283.038 157.313 283.453 157.039 283.866 156.92C284.276 156.789 284.667 156.826 285.038 157.031C285.402 157.231 285.643 157.542 285.758 157.962C285.878 158.375 285.869 158.872 285.731 159.454C285.59 160.024 285.331 160.653 284.952 161.34C284.574 162.027 284.18 162.586 283.769 163.017C283.354 163.437 282.939 163.711 282.522 163.837C282.109 163.957 281.721 163.916 281.356 163.716C280.985 163.511 280.743 163.204 280.63 162.795C280.514 162.375 280.523 161.878 280.657 161.303C280.795 160.722 281.053 160.087 281.431 159.401ZM282.114 159.777C281.84 160.274 281.643 160.732 281.523 161.15C281.406 161.56 281.372 161.912 281.422 162.204C281.475 162.489 281.617 162.695 281.848 162.822C282.072 162.946 282.323 162.956 282.599 162.852C282.872 162.738 283.151 162.521 283.436 162.203C283.724 161.878 284.006 161.467 284.28 160.969C284.562 160.458 284.761 159.997 284.877 159.586C284.994 159.175 285.026 158.828 284.973 158.543C284.912 158.254 284.77 158.048 284.546 157.924C284.315 157.797 284.065 157.787 283.795 157.894C283.526 158.002 283.249 158.214 282.964 158.532C282.679 158.851 282.396 159.265 282.114 159.777Z" fill="#171717"/>
<path d="M360.5 71L350.529 65.1767L350.471 76.7236L360.5 71ZM351.5 70.9551L351.505 69.9551L160.005 69L160 70L159.995 71L351.495 71.9551L351.5 70.9551Z" fill="#A3A3A3"/>
<path d="M160.498 131L170.594 136.604L170.399 125.059L160.498 131ZM169.504 130.848L169.539 131.847C213.408 130.332 234.955 117.775 258.619 105.684C282.177 93.6484 307.954 82 360.498 82L360.498 81L360.498 80C307.551 80 281.461 91.7686 257.71 103.903C234.065 115.983 212.861 128.35 169.47 129.849L169.504 130.848Z" fill="#A3A3A3"/>
<path d="M162 192.5L172.21 197.893L171.776 186.354L162 192.5ZM171.001 192.161L171.078 193.158C215.142 189.761 236.406 161.593 259.636 134.714C271.277 121.245 283.411 108.083 299.172 98.2729C314.91 88.478 334.308 82.0002 360.499 82.0001L360.499 81.0001L360.499 80.0001C333.944 80.0002 314.179 86.5773 298.116 96.5749C282.077 106.558 269.774 119.925 258.123 133.406C234.77 160.427 214.03 187.84 170.925 191.164L171.001 192.161Z" fill="#A3A3A3"/>
<path d="M161 254.5L171.32 259.681L170.646 248.153L161 254.5ZM169.978 253.976L170.097 254.969C192.257 252.32 208.69 240.005 222.495 223.183C236.276 206.391 247.527 184.991 259.269 164.066C282.841 122.061 308.399 82.0001 360.499 82.0001L360.499 81.0001L360.499 80.0001C307.097 80.0001 281.023 121.213 257.525 163.088C245.731 184.104 234.587 205.296 220.949 221.914C207.336 238.503 191.328 250.417 169.859 252.983L169.978 253.976Z" fill="#A3A3A3"/>
<path d="M142 52.75L142.484 52.7559C152.616 53.0128 160.75 61.3066 160.75 71.5C160.75 81.8553 152.355 90.25 142 90.25H19C8.64466 90.25 0.25 81.8553 0.25 71.5C0.25 61.1447 8.64466 52.75 19 52.75H142Z" fill="#F7F7F7" stroke="#D4D4D4" stroke-width="0.5"/>
<path d="M73.8807 67.2727L76.1307 70.9034H76.1989L78.4489 67.2727H79.6932L76.9489 71.6364L79.6932 76H78.4489L76.1989 72.4375H76.1307L73.8807 76H72.6364L75.4489 71.6364L72.6364 67.2727H73.8807ZM81.0685 76V67.2727H84.0174C84.6992 67.2727 85.2589 67.3892 85.6964 67.6222C86.1339 67.8523 86.4577 68.169 86.668 68.5724C86.8782 68.9759 86.9833 69.4347 86.9833 69.9489C86.9833 70.4631 86.8782 70.919 86.668 71.3168C86.4577 71.7145 86.1353 72.027 85.7006 72.2543C85.266 72.4787 84.7106 72.5909 84.0344 72.5909H81.6481V71.6364H84.0004C84.4663 71.6364 84.8413 71.5682 85.1254 71.4318C85.4123 71.2955 85.6197 71.1023 85.7475 70.8523C85.8782 70.5994 85.9435 70.2983 85.9435 69.9489C85.9435 69.5994 85.8782 69.294 85.7475 69.0327C85.6168 68.7713 85.408 68.5696 85.1211 68.4276C84.8342 68.2827 84.4549 68.2102 83.9833 68.2102H82.1254V76H81.0685ZM85.1765 72.0795L87.3242 76H86.0969L83.9833 72.0795H85.1765Z" fill="#171717"/>
<path d="M142 112.75L142.484 112.756C152.616 113.013 160.75 121.307 160.75 131.5C160.75 141.855 152.355 150.25 142 150.25H19C8.64466 150.25 0.25 141.855 0.25 131.5C0.25 121.145 8.64466 112.75 19 112.75H142Z" fill="#DBEAFE" stroke="#D4D4D4" stroke-width="0.5"/>
<path d="M47.9785 128H45.2853V119.273H48.0978C48.9444 119.273 49.6689 119.447 50.2711 119.797C50.8734 120.143 51.335 120.642 51.6561 121.293C51.9771 121.94 52.1376 122.716 52.1376 123.619C52.1376 124.528 51.9757 125.311 51.6518 125.967C51.3279 126.621 50.8564 127.124 50.237 127.476C49.6177 127.825 48.8649 128 47.9785 128ZM46.3422 127.062H47.9103C48.6319 127.062 49.2299 126.923 49.7044 126.645C50.1788 126.366 50.5325 125.97 50.7654 125.456C50.9984 124.942 51.1149 124.33 51.1149 123.619C51.1149 122.915 50.9998 122.308 50.7697 121.8C50.5396 121.288 50.1958 120.896 49.7385 120.624C49.2811 120.348 48.7115 120.21 48.0297 120.21H46.3422V127.062ZM56.5183 128.136C55.8876 128.136 55.3436 127.997 54.8862 127.719C54.4316 127.438 54.0808 127.045 53.8336 126.543C53.5893 126.037 53.4672 125.449 53.4672 124.778C53.4672 124.108 53.5893 123.517 53.8336 123.006C54.0808 122.491 54.4245 122.091 54.8649 121.804C55.3081 121.514 55.8251 121.369 56.416 121.369C56.7569 121.369 57.0936 121.426 57.426 121.54C57.7583 121.653 58.0609 121.838 58.3336 122.094C58.6064 122.347 58.8237 122.682 58.9856 123.099C59.1475 123.517 59.2285 124.031 59.2285 124.642V125.068H54.1831V124.199H58.2058C58.2058 123.83 58.1319 123.5 57.9842 123.21C57.8393 122.92 57.6319 122.692 57.362 122.524C57.095 122.357 56.7797 122.273 56.416 122.273C56.0154 122.273 55.6689 122.372 55.3762 122.571C55.0865 122.767 54.8635 123.023 54.7072 123.338C54.551 123.653 54.4728 123.991 54.4728 124.352V124.932C54.4728 125.426 54.5581 125.845 54.7285 126.189C54.9018 126.53 55.1419 126.79 55.4487 126.969C55.7555 127.145 56.112 127.233 56.5183 127.233C56.7825 127.233 57.0211 127.196 57.2342 127.122C57.4501 127.045 57.6362 126.932 57.7924 126.781C57.9487 126.628 58.0694 126.437 58.1547 126.21L59.1262 126.483C59.024 126.812 58.8521 127.102 58.6106 127.352C58.3691 127.599 58.0708 127.793 57.7157 127.932C57.3606 128.068 56.9615 128.136 56.5183 128.136ZM60.7583 130.455V121.455H61.7299V122.494H61.8493C61.9231 122.381 62.0254 122.236 62.1561 122.06C62.2896 121.881 62.4799 121.722 62.7271 121.582C62.9771 121.44 63.3152 121.369 63.7413 121.369C64.2924 121.369 64.7782 121.507 65.1987 121.783C65.6191 122.058 65.9473 122.449 66.1831 122.955C66.4189 123.46 66.5368 124.057 66.5368 124.744C66.5368 125.438 66.4189 126.038 66.1831 126.547C65.9473 127.053 65.6206 127.445 65.2029 127.723C64.7853 127.999 64.3038 128.136 63.7583 128.136C63.3379 128.136 63.0012 128.067 62.7484 127.928C62.4956 127.786 62.301 127.625 62.1646 127.446C62.0282 127.264 61.9231 127.114 61.8493 126.994H61.764V130.455H60.7583ZM61.747 124.727C61.747 125.222 61.8194 125.658 61.9643 126.036C62.1092 126.411 62.3208 126.705 62.5993 126.918C62.8777 127.128 63.2186 127.233 63.622 127.233C64.0424 127.233 64.3933 127.122 64.6745 126.901C64.9586 126.676 65.1717 126.375 65.3137 125.997C65.4586 125.616 65.5311 125.193 65.5311 124.727C65.5311 124.267 65.46 123.852 65.318 123.483C65.1788 123.111 64.9672 122.817 64.6831 122.601C64.4018 122.382 64.0481 122.273 63.622 122.273C63.2129 122.273 62.8691 122.376 62.5907 122.584C62.3123 122.788 62.1021 123.075 61.96 123.445C61.818 123.811 61.747 124.239 61.747 124.727ZM69.0765 119.273V128H68.0708V119.273H69.0765ZM73.5776 128.136C72.9867 128.136 72.4682 127.996 72.0222 127.714C71.579 127.433 71.2324 127.04 70.9824 126.534C70.7353 126.028 70.6117 125.437 70.6117 124.761C70.6117 124.08 70.7353 123.484 70.9824 122.976C71.2324 122.467 71.579 122.072 72.0222 121.791C72.4682 121.51 72.9867 121.369 73.5776 121.369C74.1685 121.369 74.6855 121.51 75.1287 121.791C75.5748 122.072 75.9213 122.467 76.1685 122.976C76.4185 123.484 76.5435 124.08 76.5435 124.761C76.5435 125.437 76.4185 126.028 76.1685 126.534C75.9213 127.04 75.5748 127.433 75.1287 127.714C74.6855 127.996 74.1685 128.136 73.5776 128.136ZM73.5776 127.233C74.0265 127.233 74.3958 127.118 74.6855 126.888C74.9753 126.658 75.1898 126.355 75.329 125.98C75.4682 125.605 75.5378 125.199 75.5378 124.761C75.5378 124.324 75.4682 123.916 75.329 123.538C75.1898 123.161 74.9753 122.855 74.6855 122.622C74.3958 122.389 74.0265 122.273 73.5776 122.273C73.1287 122.273 72.7594 122.389 72.4696 122.622C72.1799 122.855 71.9654 123.161 71.8262 123.538C71.687 123.916 71.6174 124.324 71.6174 124.761C71.6174 125.199 71.687 125.605 71.8262 125.98C71.9654 126.355 72.1799 126.658 72.4696 126.888C72.7594 127.118 73.1287 127.233 73.5776 127.233ZM78.492 130.455C78.3216 130.455 78.1696 130.44 78.036 130.412C77.9025 130.386 77.8102 130.361 77.7591 130.335L78.0147 129.449C78.2591 129.511 78.475 129.534 78.6625 129.517C78.85 129.5 79.0162 129.416 79.161 129.266C79.3088 129.118 79.4437 128.878 79.5659 128.545L79.7534 128.034L77.3329 121.455H78.4238L80.2306 126.67H80.2988L82.1056 121.455H83.1966L80.4181 128.955C80.2931 129.293 80.1383 129.572 79.9537 129.794C79.769 130.018 79.5545 130.185 79.3102 130.293C79.0687 130.401 78.796 130.455 78.492 130.455ZM84.524 128V121.455H85.4956V122.477H85.5808C85.7172 122.128 85.9373 121.857 86.2413 121.663C86.5453 121.467 86.9103 121.369 87.3365 121.369C87.7683 121.369 88.1277 121.467 88.4146 121.663C88.7044 121.857 88.9302 122.128 89.0922 122.477H89.1603C89.3279 122.139 89.5794 121.871 89.9146 121.672C90.2498 121.47 90.6518 121.369 91.1206 121.369C91.7058 121.369 92.1845 121.553 92.5566 121.919C92.9288 122.283 93.1149 122.849 93.1149 123.619V128H92.1092V123.619C92.1092 123.136 91.9771 122.791 91.7129 122.584C91.4487 122.376 91.1376 122.273 90.7797 122.273C90.3194 122.273 89.9629 122.412 89.7101 122.69C89.4572 122.966 89.3308 123.315 89.3308 123.739V128H88.3081V123.517C88.3081 123.145 88.1873 122.845 87.9458 122.618C87.7044 122.388 87.3933 122.273 87.0126 122.273C86.7512 122.273 86.5069 122.342 86.2797 122.482C86.0552 122.621 85.8734 122.814 85.7342 123.061C85.5978 123.305 85.5297 123.588 85.5297 123.909V128H84.524ZM97.698 128.136C97.0673 128.136 96.5233 127.997 96.0659 127.719C95.6113 127.438 95.2605 127.045 95.0133 126.543C94.769 126.037 94.6468 125.449 94.6468 124.778C94.6468 124.108 94.769 123.517 95.0133 123.006C95.2605 122.491 95.6042 122.091 96.0446 121.804C96.4877 121.514 97.0048 121.369 97.5957 121.369C97.9366 121.369 98.2733 121.426 98.6056 121.54C98.938 121.653 99.2406 121.838 99.5133 122.094C99.786 122.347 100.003 122.682 100.165 123.099C100.327 123.517 100.408 124.031 100.408 124.642V125.068H95.3627V124.199H99.3855C99.3855 123.83 99.3116 123.5 99.1639 123.21C99.019 122.92 98.8116 122.692 98.5417 122.524C98.2747 122.357 97.9593 122.273 97.5957 122.273C97.1951 122.273 96.8485 122.372 96.5559 122.571C96.2662 122.767 96.0431 123.023 95.8869 123.338C95.7306 123.653 95.6525 123.991 95.6525 124.352V124.932C95.6525 125.426 95.7377 125.845 95.9082 126.189C96.0815 126.53 96.3216 126.79 96.6284 126.969C96.9352 127.145 97.2917 127.233 97.698 127.233C97.9622 127.233 98.2008 127.196 98.4139 127.122C98.6298 127.045 98.8159 126.932 98.9721 126.781C99.1284 126.628 99.2491 126.437 99.3343 126.21L100.306 126.483C100.204 126.812 100.032 127.102 99.7903 127.352C99.5488 127.599 99.2505 127.793 98.8954 127.932C98.5403 128.068 98.1412 128.136 97.698 128.136ZM102.944 124.062V128H101.938V121.455H102.91V122.477H102.995C103.148 122.145 103.381 121.878 103.694 121.676C104.006 121.472 104.41 121.369 104.904 121.369C105.347 121.369 105.735 121.46 106.067 121.642C106.4 121.821 106.658 122.094 106.843 122.46C107.028 122.824 107.12 123.284 107.12 123.841V128H106.114V123.909C106.114 123.395 105.981 122.994 105.714 122.707C105.447 122.418 105.08 122.273 104.614 122.273C104.293 122.273 104.006 122.342 103.753 122.482C103.503 122.621 103.306 122.824 103.161 123.091C103.016 123.358 102.944 123.682 102.944 124.062ZM111.804 121.455V122.307H108.412V121.455H111.804ZM109.401 119.886H110.406V126.125C110.406 126.409 110.448 126.622 110.53 126.764C110.615 126.903 110.723 126.997 110.854 127.045C110.987 127.091 111.128 127.114 111.276 127.114C111.387 127.114 111.477 127.108 111.548 127.097C111.619 127.082 111.676 127.071 111.719 127.062L111.923 127.966C111.855 127.991 111.76 128.017 111.638 128.043C111.516 128.071 111.361 128.085 111.173 128.085C110.889 128.085 110.611 128.024 110.338 127.902C110.068 127.78 109.844 127.594 109.665 127.344C109.489 127.094 109.401 126.778 109.401 126.398V119.886ZM43.8136 139.318C43.8136 138.244 43.9528 137.257 44.2312 136.357C44.5124 135.453 44.913 134.622 45.4329 133.864H46.3192C46.1147 134.145 45.9229 134.491 45.744 134.903C45.5678 135.312 45.413 135.763 45.2795 136.254C45.146 136.743 45.0408 137.249 44.9641 137.771C44.8903 138.294 44.8533 138.81 44.8533 139.318C44.8533 139.994 44.9187 140.68 45.0494 141.376C45.18 142.072 45.3562 142.719 45.5778 143.315C45.7994 143.912 46.0465 144.398 46.3192 144.773H45.4329C44.913 144.014 44.5124 143.185 44.2312 142.284C43.9528 141.381 43.8136 140.392 43.8136 139.318ZM55.3668 133.076H56.3628V143.948H55.3668V133.076ZM48.1788 140.408H49.0548C49.7748 140.408 50.4228 140.4 50.9988 140.384C51.5748 140.368 52.1188 140.332 52.6308 140.276C53.1508 140.22 53.6788 140.144 54.2148 140.048L54.3108 140.888C53.7668 140.992 53.2308 141.072 52.7028 141.128C52.1748 141.176 51.6188 141.212 51.0348 141.236C50.4508 141.252 49.7908 141.26 49.0548 141.26H48.1788V140.408ZM48.1788 134.108H53.3028V134.936H49.1748V140.72H48.1788V134.108ZM59.4339 133.412H67.3899V134.18H59.4339V133.412ZM59.4699 136.244H67.3539V137.012H59.4699V136.244ZM61.0659 133.7H62.0619V136.76H61.0659V133.7ZM64.7619 133.7H65.7579V136.76H64.7619V133.7ZM58.5219 137.912H68.3259V138.716H58.5219V137.912ZM59.7099 139.664H67.0659V142.052H60.7059V143.36H59.7339V141.332H66.0939V140.408H59.7099V139.664ZM59.7339 143.048H67.3899V143.816H59.7339V143.048ZM69.5609 141.764H79.4009V142.592H69.5609V141.764ZM73.9649 139.448H74.9489V142.112H73.9649V139.448ZM70.7609 133.88H78.1769V137.168H71.7689V139.34H70.7849V136.376H77.1929V134.696H70.7609V133.88ZM70.7849 138.92H78.4289V139.736H70.7849V138.92ZM88.484 133.076H89.48V143.948H88.484V133.076ZM83.756 133.916C84.292 133.916 84.764 134.072 85.172 134.384C85.588 134.688 85.912 135.124 86.144 135.692C86.384 136.26 86.504 136.928 86.504 137.696C86.504 138.464 86.384 139.132 86.144 139.7C85.912 140.268 85.588 140.708 85.172 141.02C84.764 141.332 84.292 141.488 83.756 141.488C83.22 141.488 82.744 141.332 82.328 141.02C81.912 140.708 81.584 140.268 81.344 139.7C81.112 139.132 80.996 138.464 80.996 137.696C80.996 136.928 81.112 136.26 81.344 135.692C81.584 135.124 81.912 134.688 82.328 134.384C82.744 134.072 83.22 133.916 83.756 133.916ZM83.756 134.804C83.396 134.804 83.08 134.924 82.808 135.164C82.544 135.396 82.336 135.732 82.184 136.172C82.032 136.604 81.956 137.112 81.956 137.696C81.956 138.28 82.032 138.792 82.184 139.232C82.336 139.664 82.544 140 82.808 140.24C83.08 140.48 83.396 140.6 83.756 140.6C84.108 140.6 84.416 140.48 84.68 140.24C84.952 140 85.164 139.664 85.316 139.232C85.468 138.792 85.544 138.28 85.544 137.696C85.544 137.112 85.468 136.604 85.316 136.172C85.164 135.732 84.952 135.396 84.68 135.164C84.416 134.924 84.108 134.804 83.756 134.804ZM92.1431 134.024H97.0871V139.076H92.1431V134.024ZM96.1151 134.828H93.1151V138.272H96.1151V134.828ZM99.5711 133.088H100.567V141.008H99.5711V133.088ZM96.7991 136.1H99.8471V136.904H96.7991V136.1ZM93.6431 142.88H100.867V143.696H93.6431V142.88ZM93.6431 140.288H94.6271V143.24H93.6431V140.288ZM103.938 138.932H111.39V139.736H103.938V138.932ZM102.678 141.704H112.518V142.532H102.678V141.704ZM103.938 134.012H111.282V134.828H104.946V139.172H103.938V134.012ZM104.634 136.424H111.042V137.228H104.634V136.424ZM116.185 139.318C116.185 140.392 116.045 141.381 115.763 142.284C115.485 143.185 115.086 144.014 114.566 144.773H113.68C113.884 144.491 114.075 144.145 114.251 143.733C114.43 143.324 114.586 142.875 114.719 142.386C114.853 141.895 114.957 141.388 115.031 140.865C115.107 140.339 115.146 139.824 115.146 139.318C115.146 138.642 115.08 137.956 114.95 137.26C114.819 136.564 114.643 135.918 114.421 135.321C114.2 134.724 113.952 134.239 113.68 133.864H114.566C115.086 134.622 115.485 135.453 115.763 136.357C116.045 137.257 116.185 138.244 116.185 139.318Z" fill="#171717"/>
<path d="M142 172.75L142.484 172.756C152.616 173.013 160.75 181.307 160.75 191.5C160.75 201.855 152.355 210.25 142 210.25H19C8.64466 210.25 0.25 201.855 0.25 191.5C0.25 181.145 8.64466 172.75 19 172.75H142Z" fill="#DBEAFE" stroke="#D4D4D4" stroke-width="0.5"/>
<path d="M62.8842 181.455C62.8331 181.023 62.6257 180.688 62.2621 180.449C61.8984 180.21 61.4524 180.091 60.924 180.091C60.5376 180.091 60.1996 180.153 59.9098 180.278C59.6229 180.403 59.3984 180.575 59.2365 180.794C59.0774 181.013 58.9979 181.261 58.9979 181.54C58.9979 181.773 59.0533 181.973 59.1641 182.141C59.2777 182.305 59.4226 182.443 59.5987 182.554C59.7749 182.662 59.9595 182.751 60.1527 182.822C60.3459 182.891 60.5234 182.946 60.6854 182.989L61.5717 183.227C61.799 183.287 62.0518 183.369 62.3303 183.474C62.6115 183.58 62.88 183.723 63.1357 183.905C63.3942 184.084 63.6072 184.314 63.7749 184.595C63.9425 184.876 64.0263 185.222 64.0263 185.631C64.0263 186.102 63.9027 186.528 63.6555 186.909C63.4112 187.29 63.0533 187.592 62.5817 187.817C62.1129 188.041 61.5433 188.153 60.8729 188.153C60.2479 188.153 59.7067 188.053 59.2493 187.851C58.7947 187.649 58.4368 187.368 58.1754 187.007C57.9169 186.646 57.7706 186.227 57.7365 185.75H58.8274C58.8558 186.08 58.9666 186.352 59.1598 186.568C59.3558 186.781 59.603 186.94 59.9013 187.045C60.2024 187.148 60.5263 187.199 60.8729 187.199C61.2763 187.199 61.6385 187.134 61.9595 187.003C62.2805 186.869 62.5348 186.685 62.7223 186.449C62.9098 186.21 63.0036 185.932 63.0036 185.614C63.0036 185.324 62.9226 185.088 62.7607 184.906C62.5987 184.724 62.3857 184.577 62.1214 184.463C61.8572 184.349 61.5717 184.25 61.2649 184.165L60.1911 183.858C59.5092 183.662 58.9695 183.382 58.5717 183.018C58.174 182.655 57.9751 182.179 57.9751 181.591C57.9751 181.102 58.1072 180.676 58.3714 180.312C58.6385 179.946 58.9964 179.662 59.4453 179.46C59.897 179.256 60.4013 179.153 60.9581 179.153C61.5206 179.153 62.0206 179.254 62.4581 179.456C62.8956 179.655 63.2422 179.928 63.4979 180.274C63.7564 180.621 63.8928 181.014 63.907 181.455H62.8842ZM68.3718 188.136C67.7411 188.136 67.1971 187.997 66.7397 187.719C66.2852 187.438 65.9343 187.045 65.6871 186.543C65.4428 186.037 65.3207 185.449 65.3207 184.778C65.3207 184.108 65.4428 183.517 65.6871 183.006C65.9343 182.491 66.2781 182.091 66.7184 181.804C67.1616 181.514 67.6786 181.369 68.2695 181.369C68.6104 181.369 68.9471 181.426 69.2795 181.54C69.6119 181.653 69.9144 181.838 70.1871 182.094C70.4599 182.347 70.6772 182.682 70.8391 183.099C71.0011 183.517 71.082 184.031 71.082 184.642V185.068H66.0366V184.199H70.0593C70.0593 183.83 69.9854 183.5 69.8377 183.21C69.6928 182.92 69.4854 182.692 69.2156 182.524C68.9485 182.357 68.6332 182.273 68.2695 182.273C67.869 182.273 67.5224 182.372 67.2298 182.571C66.94 182.767 66.717 183.023 66.5607 183.338C66.4045 183.653 66.3263 183.991 66.3263 184.352V184.932C66.3263 185.426 66.4116 185.845 66.582 186.189C66.7553 186.53 66.9954 186.79 67.3022 186.969C67.609 187.145 67.9656 187.233 68.3718 187.233C68.636 187.233 68.8746 187.196 69.0877 187.122C69.3036 187.045 69.4897 186.932 69.646 186.781C69.8022 186.628 69.9229 186.437 70.0082 186.21L70.9798 186.483C70.8775 186.812 70.7056 187.102 70.4641 187.352C70.2227 187.599 69.9244 187.793 69.5692 187.932C69.2141 188.068 68.815 188.136 68.3718 188.136ZM72.6119 188V181.455H73.5835V182.443H73.6516C73.771 182.119 73.9869 181.857 74.2994 181.655C74.6119 181.453 74.9641 181.352 75.3562 181.352C75.43 181.352 75.5224 181.354 75.6332 181.357C75.744 181.359 75.8278 181.364 75.8846 181.369V182.392C75.8505 182.384 75.7724 182.371 75.6502 182.354C75.5309 182.334 75.4045 182.324 75.271 182.324C74.9528 182.324 74.6687 182.391 74.4187 182.524C74.1715 182.655 73.9755 182.837 73.8306 183.07C73.6886 183.3 73.6175 183.562 73.6175 183.858V188H72.6119ZM82.6282 181.455L80.2077 188H79.185L76.7646 181.455H77.8555L79.6623 186.67H79.7305L81.5373 181.455H82.6282ZM83.9556 188V181.455H84.9613V188H83.9556ZM84.467 180.364C84.271 180.364 84.1019 180.297 83.9599 180.163C83.8207 180.03 83.7511 179.869 83.7511 179.682C83.7511 179.494 83.8207 179.334 83.9599 179.2C84.1019 179.067 84.271 179 84.467 179C84.663 179 84.8306 179.067 84.9698 179.2C85.1119 179.334 85.1829 179.494 85.1829 179.682C85.1829 179.869 85.1119 180.03 84.9698 180.163C84.8306 180.297 84.663 180.364 84.467 180.364ZM89.4624 188.136C88.8487 188.136 88.3203 187.991 87.8771 187.702C87.4339 187.412 87.093 187.013 86.8544 186.504C86.6158 185.996 86.4964 185.415 86.4964 184.761C86.4964 184.097 86.6186 183.51 86.8629 183.001C87.1101 182.49 87.4538 182.091 87.8942 181.804C88.3374 181.514 88.8544 181.369 89.4453 181.369C89.9055 181.369 90.3203 181.455 90.6896 181.625C91.0589 181.795 91.3615 182.034 91.5973 182.341C91.8331 182.648 91.9794 183.006 92.0362 183.415H91.0305C90.9538 183.116 90.7834 182.852 90.5192 182.622C90.2578 182.389 89.9055 182.273 89.4624 182.273C89.0703 182.273 88.7266 182.375 88.4311 182.58C88.1385 182.781 87.9098 183.067 87.745 183.436C87.5831 183.803 87.5021 184.233 87.5021 184.727C87.5021 185.233 87.5817 185.673 87.7408 186.048C87.9027 186.423 88.13 186.714 88.4226 186.922C88.718 187.129 89.0646 187.233 89.4624 187.233C89.7237 187.233 89.9609 187.188 90.174 187.097C90.3871 187.006 90.5675 186.875 90.7152 186.705C90.8629 186.534 90.968 186.33 91.0305 186.091H92.0362C91.9794 186.477 91.8388 186.825 91.6143 187.135C91.3928 187.442 91.0987 187.686 90.7322 187.868C90.3686 188.047 89.9453 188.136 89.4624 188.136ZM96.2507 188.136C95.62 188.136 95.076 187.997 94.6186 187.719C94.1641 187.438 93.8132 187.045 93.5661 186.543C93.3217 186.037 93.1996 185.449 93.1996 184.778C93.1996 184.108 93.3217 183.517 93.5661 183.006C93.8132 182.491 94.157 182.091 94.5973 181.804C95.0405 181.514 95.5575 181.369 96.1484 181.369C96.4893 181.369 96.826 181.426 97.1584 181.54C97.4908 181.653 97.7933 181.838 98.0661 182.094C98.3388 182.347 98.5561 182.682 98.718 183.099C98.88 183.517 98.9609 184.031 98.9609 184.642V185.068H93.9155V184.199H97.9382C97.9382 183.83 97.8643 183.5 97.7166 183.21C97.5717 182.92 97.3643 182.692 97.0945 182.524C96.8274 182.357 96.5121 182.273 96.1484 182.273C95.7479 182.273 95.4013 182.372 95.1087 182.571C94.8189 182.767 94.5959 183.023 94.4396 183.338C94.2834 183.653 94.2053 183.991 94.2053 184.352V184.932C94.2053 185.426 94.2905 185.845 94.4609 186.189C94.6342 186.53 94.8743 186.79 95.1811 186.969C95.4879 187.145 95.8445 187.233 96.2507 187.233C96.5149 187.233 96.7536 187.196 96.9666 187.122C97.1825 187.045 97.3686 186.932 97.5249 186.781C97.6811 186.628 97.8018 186.437 97.8871 186.21L98.8587 186.483C98.7564 186.812 98.5845 187.102 98.343 187.352C98.1016 187.599 97.8033 187.793 97.4482 187.932C97.093 188.068 96.6939 188.136 96.2507 188.136ZM60.3722 199.318C60.3722 198.244 60.5114 197.257 60.7898 196.357C61.071 195.453 61.4716 194.622 61.9915 193.864H62.8778C62.6733 194.145 62.4815 194.491 62.3026 194.903C62.1264 195.312 61.9716 195.763 61.8381 196.254C61.7045 196.743 61.5994 197.249 61.5227 197.771C61.4489 198.294 61.4119 198.81 61.4119 199.318C61.4119 199.994 61.4773 200.68 61.608 201.376C61.7386 202.072 61.9148 202.719 62.1364 203.315C62.358 203.912 62.6051 204.398 62.8778 204.773H61.9915C61.4716 204.014 61.071 203.185 60.7898 202.284C60.5114 201.381 60.3722 200.392 60.3722 199.318ZM69.4654 196.76H72.4774V197.576H69.4654V196.76ZM66.8374 194.012H67.6534V195.956C67.6534 196.556 67.5774 197.148 67.4254 197.732C67.2814 198.316 67.0734 198.86 66.8014 199.364C66.5294 199.868 66.2094 200.316 65.8414 200.708C65.4814 201.1 65.0854 201.412 64.6534 201.644L64.0294 200.84C64.4294 200.648 64.7974 200.38 65.1334 200.036C65.4774 199.692 65.7774 199.3 66.0334 198.86C66.2894 198.412 66.4854 197.944 66.6214 197.456C66.7654 196.96 66.8374 196.46 66.8374 195.956V194.012ZM67.0414 194.012H67.8454V195.956C67.8454 196.444 67.9134 196.928 68.0494 197.408C68.1934 197.888 68.3934 198.34 68.6494 198.764C68.9054 199.18 69.2014 199.552 69.5374 199.88C69.8814 200.208 70.2494 200.464 70.6414 200.648L70.0414 201.452C69.6094 201.228 69.2094 200.928 68.8414 200.552C68.4734 200.176 68.1534 199.744 67.8814 199.256C67.6174 198.768 67.4094 198.244 67.2574 197.684C67.1134 197.124 67.0414 196.548 67.0414 195.956V194.012ZM71.9854 193.076H72.9694V203.948H71.9854V193.076ZM82.9645 193.076H83.9605V203.948H82.9645V193.076ZM75.6925 194H76.6885V196.856H79.8205V194H80.8045V201.332H75.6925V194ZM76.6885 197.648V200.504H79.8205V197.648H76.6885ZM90.4635 193.82H91.3395V194.66C91.3395 195.132 91.2555 195.58 91.0875 196.004C90.9275 196.428 90.7035 196.824 90.4155 197.192C90.1355 197.552 89.8075 197.876 89.4315 198.164C89.0635 198.452 88.6675 198.696 88.2435 198.896C87.8275 199.096 87.4035 199.248 86.9715 199.352L86.5275 198.524C86.9035 198.444 87.2795 198.32 87.6555 198.152C88.0395 197.984 88.3995 197.78 88.7355 197.54C89.0715 197.292 89.3675 197.016 89.6235 196.712C89.8875 196.408 90.0915 196.084 90.2355 195.74C90.3875 195.388 90.4635 195.028 90.4635 194.66V193.82ZM90.6555 193.82H91.5075V194.66C91.5075 195.028 91.5835 195.388 91.7355 195.74C91.8875 196.084 92.0915 196.408 92.3475 196.712C92.6115 197.016 92.9115 197.292 93.2475 197.54C93.5835 197.78 93.9395 197.988 94.3155 198.164C94.6995 198.332 95.0835 198.452 95.4675 198.524L95.0115 199.352C94.5795 199.248 94.1555 199.096 93.7395 198.896C93.3235 198.696 92.9275 198.452 92.5515 198.164C92.1835 197.876 91.8555 197.552 91.5675 197.192C91.2795 196.824 91.0555 196.428 90.8955 196.004C90.7355 195.58 90.6555 195.132 90.6555 194.66V193.82ZM86.1195 201.644H95.9595V202.472H86.1195V201.644ZM99.6268 199.318C99.6268 200.392 99.4862 201.381 99.2049 202.284C98.9265 203.185 98.5273 204.014 98.0075 204.773H97.1211C97.3256 204.491 97.516 204.145 97.6921 203.733C97.8711 203.324 98.0273 202.875 98.1609 202.386C98.2944 201.895 98.3981 201.388 98.4719 200.865C98.5487 200.339 98.587 199.824 98.587 199.318C98.587 198.642 98.5217 197.956 98.391 197.26C98.2603 196.564 98.0842 195.918 97.8626 195.321C97.641 194.724 97.3938 194.239 97.1211 193.864H98.0075C98.5273 194.622 98.9265 195.453 99.2049 196.357C99.4862 197.257 99.6268 198.244 99.6268 199.318Z" fill="#171717"/>
<path d="M142 232.75L142.484 232.756C152.616 233.013 160.75 241.307 160.75 251.5C160.75 261.855 152.355 270.25 142 270.25H19C8.64466 270.25 0.25 261.855 0.25 251.5C0.25 241.145 8.64466 232.75 19 232.75H142Z" fill="#DBEAFE" stroke="#D4D4D4" stroke-width="0.5"/>
<path d="M71.881 247.273H73.1424L76.1083 254.517H76.2106L79.1765 247.273H80.4379V256H79.4492V249.369H79.364L76.6367 256H75.6822L72.9549 249.369H72.8697V256H71.881V247.273ZM82.5568 256V247.273H85.5057C86.1875 247.273 86.7472 247.389 87.1847 247.622C87.6222 247.852 87.946 248.169 88.1562 248.572C88.3665 248.976 88.4716 249.435 88.4716 249.949C88.4716 250.463 88.3665 250.919 88.1562 251.317C87.946 251.714 87.6236 252.027 87.1889 252.254C86.7543 252.479 86.1989 252.591 85.5227 252.591H83.1364V251.636H85.4886C85.9545 251.636 86.3295 251.568 86.6136 251.432C86.9006 251.295 87.108 251.102 87.2358 250.852C87.3665 250.599 87.4318 250.298 87.4318 249.949C87.4318 249.599 87.3665 249.294 87.2358 249.033C87.1051 248.771 86.8963 248.57 86.6094 248.428C86.3224 248.283 85.9432 248.21 85.4716 248.21H83.6136V256H82.5568ZM86.6648 252.08L88.8125 256H87.5852L85.4716 252.08H86.6648Z" fill="#171717"/>
<path d="M416.769 17H415.712C415.65 16.696 415.54 16.429 415.384 16.1989C415.231 15.9688 415.043 15.7756 414.822 15.6193C414.603 15.4602 414.36 15.3409 414.093 15.2614C413.826 15.1818 413.547 15.142 413.258 15.142C412.729 15.142 412.251 15.2756 411.822 15.5426C411.395 15.8097 411.056 16.2031 410.803 16.723C410.553 17.2429 410.428 17.8807 410.428 18.6364C410.428 19.392 410.553 20.0298 410.803 20.5497C411.056 21.0696 411.395 21.4631 411.822 21.7301C412.251 21.9972 412.729 22.1307 413.258 22.1307C413.547 22.1307 413.826 22.0909 414.093 22.0114C414.36 21.9318 414.603 21.8139 414.822 21.6577C415.043 21.4986 415.231 21.304 415.384 21.0739C415.54 20.8409 415.65 20.5739 415.712 20.2727H416.769C416.689 20.7187 416.545 21.1179 416.334 21.4702C416.124 21.8224 415.863 22.1222 415.55 22.3693C415.238 22.6136 414.887 22.7997 414.498 22.9276C414.111 23.0554 413.698 23.1193 413.258 23.1193C412.513 23.1193 411.851 22.9375 411.272 22.5739C410.692 22.2102 410.236 21.6932 409.904 21.0227C409.572 20.3523 409.405 19.5568 409.405 18.6364C409.405 17.7159 409.572 16.9205 409.904 16.25C410.236 15.5795 410.692 15.0625 411.272 14.6989C411.851 14.3352 412.513 14.1534 413.258 14.1534C413.698 14.1534 414.111 14.2173 414.498 14.3452C414.887 14.473 415.238 14.6605 415.55 14.9077C415.863 15.152 416.124 15.4503 416.334 15.8026C416.545 16.152 416.689 16.5511 416.769 17ZM418.34 23V16.4545H419.312V17.4432H419.38C419.499 17.1193 419.715 16.8565 420.028 16.6548C420.34 16.4531 420.693 16.3523 421.085 16.3523C421.159 16.3523 421.251 16.3537 421.362 16.3565C421.472 16.3594 421.556 16.3636 421.613 16.3693V17.392C421.579 17.3835 421.501 17.3707 421.379 17.3537C421.259 17.3338 421.133 17.3239 420.999 17.3239C420.681 17.3239 420.397 17.3906 420.147 17.5241C419.9 17.6548 419.704 17.8366 419.559 18.0696C419.417 18.2997 419.346 18.5625 419.346 18.858V23H418.34ZM425.265 23.1364C424.674 23.1364 424.156 22.9957 423.71 22.7145C423.267 22.4332 422.92 22.0398 422.67 21.5341C422.423 21.0284 422.299 20.4375 422.299 19.7614C422.299 19.0795 422.423 18.4844 422.67 17.9759C422.92 17.4673 423.267 17.0724 423.71 16.7912C424.156 16.5099 424.674 16.3693 425.265 16.3693C425.856 16.3693 426.373 16.5099 426.816 16.7912C427.262 17.0724 427.609 17.4673 427.856 17.9759C428.106 18.4844 428.231 19.0795 428.231 19.7614C428.231 20.4375 428.106 21.0284 427.856 21.5341C427.609 22.0398 427.262 22.4332 426.816 22.7145C426.373 22.9957 425.856 23.1364 425.265 23.1364ZM425.265 22.233C425.714 22.233 426.083 22.1179 426.373 21.8878C426.663 21.6577 426.877 21.3551 427.017 20.9801C427.156 20.6051 427.225 20.1989 427.225 19.7614C427.225 19.3239 427.156 18.9162 427.017 18.5384C426.877 18.1605 426.663 17.8551 426.373 17.6222C426.083 17.3892 425.714 17.2727 425.265 17.2727C424.816 17.2727 424.447 17.3892 424.157 17.6222C423.867 17.8551 423.653 18.1605 423.514 18.5384C423.374 18.9162 423.305 19.3239 423.305 19.7614C423.305 20.1989 423.374 20.6051 423.514 20.9801C423.653 21.3551 423.867 21.6577 424.157 21.8878C424.447 22.1179 424.816 22.233 425.265 22.233ZM434.403 17.9205L433.499 18.1761C433.442 18.0256 433.358 17.8793 433.248 17.7372C433.14 17.5923 432.992 17.473 432.805 17.3793C432.617 17.2855 432.377 17.2386 432.084 17.2386C431.684 17.2386 431.35 17.331 431.083 17.5156C430.819 17.6974 430.687 17.929 430.687 18.2102C430.687 18.4602 430.778 18.6577 430.959 18.8026C431.141 18.9474 431.425 19.0682 431.812 19.1648L432.783 19.4034C433.368 19.5455 433.805 19.7628 434.091 20.0554C434.378 20.3452 434.522 20.7187 434.522 21.1761C434.522 21.5511 434.414 21.8864 434.198 22.1818C433.985 22.4773 433.687 22.7102 433.303 22.8807C432.92 23.0511 432.474 23.1364 431.965 23.1364C431.297 23.1364 430.745 22.9915 430.307 22.7017C429.87 22.4119 429.593 21.9886 429.476 21.4318L430.431 21.1932C430.522 21.5455 430.694 21.8097 430.947 21.9858C431.202 22.1619 431.536 22.25 431.948 22.25C432.417 22.25 432.789 22.1506 433.064 21.9517C433.343 21.75 433.482 21.5085 433.482 21.2273C433.482 21 433.403 20.8097 433.243 20.6562C433.084 20.5 432.84 20.3835 432.51 20.3068L431.42 20.0511C430.82 19.9091 430.38 19.6889 430.099 19.3906C429.82 19.0895 429.681 18.7131 429.681 18.2614C429.681 17.892 429.785 17.5653 429.992 17.2812C430.202 16.9972 430.488 16.7741 430.849 16.6122C431.212 16.4503 431.624 16.3693 432.084 16.3693C432.732 16.3693 433.241 16.5114 433.61 16.7955C433.982 17.0795 434.246 17.4545 434.403 17.9205ZM440.672 17.9205L439.769 18.1761C439.712 18.0256 439.628 17.8793 439.517 17.7372C439.409 17.5923 439.262 17.473 439.074 17.3793C438.887 17.2855 438.646 17.2386 438.354 17.2386C437.953 17.2386 437.619 17.331 437.352 17.5156C437.088 17.6974 436.956 17.929 436.956 18.2102C436.956 18.4602 437.047 18.6577 437.229 18.8026C437.411 18.9474 437.695 19.0682 438.081 19.1648L439.053 19.4034C439.638 19.5455 440.074 19.7628 440.361 20.0554C440.648 20.3452 440.791 20.7187 440.791 21.1761C440.791 21.5511 440.683 21.8864 440.468 22.1818C440.254 22.4773 439.956 22.7102 439.573 22.8807C439.189 23.0511 438.743 23.1364 438.235 23.1364C437.567 23.1364 437.014 22.9915 436.577 22.7017C436.139 22.4119 435.862 21.9886 435.746 21.4318L436.7 21.1932C436.791 21.5455 436.963 21.8097 437.216 21.9858C437.472 22.1619 437.806 22.25 438.218 22.25C438.686 22.25 439.058 22.1506 439.334 21.9517C439.612 21.75 439.752 21.5085 439.752 21.2273C439.752 21 439.672 20.8097 439.513 20.6562C439.354 20.5 439.11 20.3835 438.78 20.3068L437.689 20.0511C437.09 19.9091 436.649 19.6889 436.368 19.3906C436.09 19.0895 435.95 18.7131 435.95 18.2614C435.95 17.892 436.054 17.5653 436.262 17.2812C436.472 16.9972 436.757 16.7741 437.118 16.6122C437.482 16.4503 437.894 16.3693 438.354 16.3693C439.002 16.3693 439.51 16.5114 439.879 16.7955C440.252 17.0795 440.516 17.4545 440.672 17.9205ZM442.305 25.4545V16.4545H443.277V17.4943H443.396C443.47 17.3807 443.572 17.2358 443.703 17.0597C443.836 16.8807 444.027 16.7216 444.274 16.5824C444.524 16.4403 444.862 16.3693 445.288 16.3693C445.839 16.3693 446.325 16.5071 446.746 16.7827C447.166 17.0582 447.494 17.4489 447.73 17.9545C447.966 18.4602 448.084 19.0568 448.084 19.7443C448.084 20.4375 447.966 21.0384 447.73 21.5469C447.494 22.0526 447.167 22.4446 446.75 22.723C446.332 22.9986 445.851 23.1364 445.305 23.1364C444.885 23.1364 444.548 23.0668 444.295 22.9276C444.042 22.7855 443.848 22.625 443.711 22.446C443.575 22.2642 443.47 22.1136 443.396 21.9943H443.311V25.4545H442.305ZM443.294 19.7273C443.294 20.2216 443.366 20.6577 443.511 21.0355C443.656 21.4105 443.868 21.7045 444.146 21.9176C444.425 22.1278 444.765 22.233 445.169 22.233C445.589 22.233 445.94 22.1222 446.221 21.9006C446.506 21.6761 446.719 21.375 446.861 20.9972C447.006 20.6165 447.078 20.1932 447.078 19.7273C447.078 19.267 447.007 18.8523 446.865 18.483C446.726 18.1108 446.514 17.8168 446.23 17.6009C445.949 17.3821 445.595 17.2727 445.169 17.2727C444.76 17.2727 444.416 17.3764 444.138 17.5838C443.859 17.7884 443.649 18.0753 443.507 18.4446C443.365 18.8111 443.294 19.2386 443.294 19.7273ZM450.623 14.2727V23H449.618V14.2727H450.623ZM454.392 23.1534C453.977 23.1534 453.6 23.0753 453.262 22.919C452.924 22.7599 452.656 22.5312 452.457 22.233C452.258 21.9318 452.159 21.5682 452.159 21.142C452.159 20.767 452.232 20.4631 452.38 20.2301C452.528 19.9943 452.725 19.8097 452.972 19.6761C453.22 19.5426 453.492 19.4432 453.791 19.3778C454.092 19.3097 454.394 19.2557 454.698 19.2159C455.096 19.1648 455.419 19.1264 455.666 19.1009C455.916 19.0724 456.097 19.0256 456.211 18.9602C456.328 18.8949 456.386 18.7812 456.386 18.6193V18.5852C456.386 18.1648 456.271 17.8381 456.041 17.6051C455.813 17.3722 455.468 17.2557 455.005 17.2557C454.525 17.2557 454.149 17.3608 453.876 17.571C453.603 17.7812 453.411 18.0057 453.301 18.2443L452.346 17.9034C452.517 17.5057 452.744 17.196 453.028 16.9744C453.315 16.75 453.627 16.5937 453.965 16.5057C454.306 16.4148 454.642 16.3693 454.971 16.3693C455.181 16.3693 455.423 16.3949 455.695 16.446C455.971 16.4943 456.237 16.5952 456.492 16.7486C456.751 16.902 456.965 17.1335 457.136 17.4432C457.306 17.7528 457.392 18.1676 457.392 18.6875V23H456.386V22.1136H456.335C456.267 22.2557 456.153 22.4077 455.994 22.5696C455.835 22.7315 455.623 22.8693 455.359 22.983C455.095 23.0966 454.772 23.1534 454.392 23.1534ZM454.545 22.25C454.943 22.25 455.278 22.1719 455.551 22.0156C455.826 21.8594 456.034 21.6577 456.173 21.4105C456.315 21.1634 456.386 20.9034 456.386 20.6307V19.7102C456.343 19.7614 456.249 19.8082 456.105 19.8509C455.963 19.8906 455.798 19.9261 455.61 19.9574C455.426 19.9858 455.245 20.0114 455.069 20.0341C454.896 20.054 454.755 20.071 454.647 20.0852C454.386 20.1193 454.142 20.1747 453.914 20.2514C453.69 20.3253 453.508 20.4375 453.369 20.5881C453.232 20.7358 453.164 20.9375 453.164 21.1932C453.164 21.5426 453.294 21.8068 453.552 21.9858C453.813 22.1619 454.144 22.25 454.545 22.25ZM460.233 19.0625V23H459.227V16.4545H460.199V17.4773H460.284C460.437 17.1449 460.67 16.8778 460.983 16.6761C461.295 16.4716 461.699 16.3693 462.193 16.3693C462.636 16.3693 463.024 16.4602 463.356 16.642C463.689 16.821 463.947 17.0938 464.132 17.4602C464.317 17.8239 464.409 18.2841 464.409 18.8409V23H463.403V18.9091C463.403 18.3949 463.27 17.9943 463.003 17.7074C462.736 17.4176 462.369 17.2727 461.903 17.2727C461.582 17.2727 461.295 17.3423 461.042 17.4815C460.792 17.6207 460.595 17.8239 460.45 18.0909C460.305 18.358 460.233 18.6818 460.233 19.0625ZM468.991 23.1364C468.36 23.1364 467.816 22.9972 467.359 22.7188C466.904 22.4375 466.553 22.0455 466.306 21.5426C466.062 21.0369 465.94 20.4489 465.94 19.7784C465.94 19.108 466.062 18.517 466.306 18.0057C466.553 17.4915 466.897 17.0909 467.338 16.804C467.781 16.5142 468.298 16.3693 468.889 16.3693C469.23 16.3693 469.566 16.4261 469.899 16.5398C470.231 16.6534 470.534 16.8381 470.806 17.0938C471.079 17.3466 471.296 17.6818 471.458 18.0994C471.62 18.517 471.701 19.0312 471.701 19.642V20.0682H466.656V19.1989H470.678C470.678 18.8295 470.605 18.5 470.457 18.2102C470.312 17.9205 470.105 17.6918 469.835 17.5241C469.568 17.3565 469.252 17.2727 468.889 17.2727C468.488 17.2727 468.142 17.3722 467.849 17.571C467.559 17.767 467.336 18.0227 467.18 18.3381C467.024 18.6534 466.945 18.9915 466.945 19.3523V19.9318C466.945 20.4261 467.031 20.8452 467.201 21.1889C467.374 21.5298 467.615 21.7898 467.921 21.9688C468.228 22.1449 468.585 22.233 468.991 22.233C469.255 22.233 469.494 22.196 469.707 22.1222C469.923 22.0455 470.109 21.9318 470.265 21.7812C470.421 21.6278 470.542 21.4375 470.627 21.2102L471.599 21.483C471.497 21.8125 471.325 22.1023 471.083 22.3523C470.842 22.5994 470.544 22.7926 470.188 22.9318C469.833 23.0682 469.434 23.1364 468.991 23.1364Z" fill="#171717"/>
<path d="M360.5 71L350.529 65.1767L350.471 76.7236L360.5 71ZM351.5 70.9551L351.505 69.9551L160.005 69L160 70L159.995 71L351.495 71.9551L351.5 70.9551Z" fill="#A3A3A3"/>
<path d="M400.5 90L394.726 100H406.274L400.5 90ZM400.5 155L406.274 145H394.726L400.5 155ZM400.5 99H399.5V146H400.5H401.5V99H400.5Z" fill="#A3A3A3"/>
<path d="M160.498 131L170.594 136.604L170.399 125.059L160.498 131ZM169.504 130.848L169.539 131.847C213.408 130.332 234.955 117.775 258.619 105.684C282.177 93.6484 307.954 82 360.498 82L360.498 81L360.498 80C307.551 80 281.461 91.7686 257.71 103.903C234.065 115.983 212.861 128.35 169.47 129.849L169.504 130.848Z" fill="#A3A3A3"/>
<path d="M162 192.5L172.21 197.893L171.776 186.354L162 192.5ZM171.001 192.161L171.078 193.158C215.142 189.761 236.406 161.593 259.636 134.714C271.277 121.245 283.411 108.083 299.172 98.2729C314.91 88.478 334.308 82.0002 360.499 82.0001L360.499 81.0001L360.499 80.0001C333.944 80.0002 314.179 86.5773 298.116 96.5749C282.077 106.558 269.774 119.925 258.123 133.406C234.77 160.427 214.03 187.84 170.925 191.164L171.001 192.161Z" fill="#A3A3A3"/>
<path d="M161 254.5L171.32 259.681L170.646 248.153L161 254.5ZM169.978 253.976L170.097 254.969C192.257 252.32 208.69 240.005 222.495 223.183C236.276 206.391 247.527 184.991 259.269 164.066C282.841 122.061 308.399 82.0001 360.499 82.0001L360.499 81.0001L360.499 80.0001C307.097 80.0001 281.023 121.213 257.525 163.088C245.731 184.104 234.587 205.296 220.949 221.914C207.336 238.503 191.328 250.417 169.859 252.983L169.978 253.976Z" fill="#A3A3A3"/>
</svg>
